<?xml version="1.0" encoding="UTF-8"?>
<svg id="Layer_1" data-name="Layer 1" xmlns="http://www.w3.org/2000/svg" viewBox="0 0 92.67 11.4">
  <defs>
    <style>
      .cls-1 {
        fill: #ef4623;
      }

      .cls-1, .cls-2, .cls-3, .cls-4 {
        stroke-width: 0px;
      }

      .cls-5, .cls-6 {
        font-family: ArialMT, Arial;
        font-size: 1.05px;
      }

      .cls-5, .cls-6, .cls-7 {
        isolation: isolate;
      }

      .cls-5, .cls-7 {
        fill: #010101;
      }

      .cls-2 {
        fill: #f9eeed;
      }

      .cls-8 {
        letter-spacing: 0em;
      }

      .cls-9 {
        letter-spacing: -.04em;
      }

      .cls-3 {
        fill: #fac4bc;
      }

      .cls-4 {
        fill: #f68e6b;
      }

      .cls-10 {
        letter-spacing: -.02em;
      }

      .cls-7 {
        font-family: Arial-BoldMT, Arial;
        font-size: 1.04px;
        font-weight: 700;
      }
    </style>
  </defs>
  <g>
    <rect class="cls-4" y="6.64" width="92.67" height=".52"/>
    <g>
      <rect class="cls-4" x="17.16" y="6.57" width="1.13" height="1.54"/>
      <path class="cls-2" d="M18.39,8.16h-1.32v-1.64h1.32v1.64ZM17.26,8.05h.94v-1.43h-.94v1.43Z"/>
    </g>
    <g>
      <rect class="cls-4" x="44.95" y="6.57" width="1.13" height="1.54"/>
      <path class="cls-2" d="M46.17,8.16h-1.32v-1.64h1.32v1.64ZM45.04,8.05h.94v-1.43h-.94v1.43Z"/>
    </g>
    <g>
      <rect class="cls-4" x="75.39" y="6.57" width="1.13" height="1.54"/>
      <path class="cls-2" d="M76.61,8.16h-1.32v-1.64h1.32v1.64ZM75.48,8.05h.94v-1.43h-.94v1.43Z"/>
    </g>
  </g>
  <g>
    <path class="cls-3" d="M84.02,5.94h-16.13c-.52,0-.94-.42-.94-.94V.94c0-.52.42-.94.94-.94h16.13c.52,0,.94.42.94.94v4.07c-.01.51-.43.93-.94.93Z"/>
    <path class="cls-1" d="M84.95,4.89c0,.61-.47,1.11-1.06,1.11h-15.88c-.58,0-1.06-.5-1.06-1.11"/>
  </g>
  <g>
    <path class="cls-3" d="M53.61,5.98h-16.2c-.5,0-.9-.4-.9-.9V.93c0-.5.4-.9.9-.9h16.19c.5,0,.9.4.9.9v4.14c0,.5-.39.91-.89.91Z"/>
    <path class="cls-1" d="M54.51,4.92c0,.61-.47,1.11-1.06,1.11h-15.88c-.58,0-1.06-.5-1.06-1.11"/>
  </g>
  <text class="cls-7" transform="translate(14.6 9.76)"><tspan x="0" y="0">Ciclo Básico</tspan></text>
  <text class="cls-7" transform="translate(16.51 11.01)"><tspan x="0" y="0">I a IV</tspan></text>
  <text class="cls-7" transform="translate(40.64 9.76)"><tspan x="0" y="0">Ciclo Especializado</tspan></text>
  <text class="cls-7" transform="translate(43.8 11.01)"><tspan x="0" y="0">V a VIII</tspan></text>
  <text class="cls-7" transform="translate(71.69 9.76)"><tspan x="0" y="0">Ciclo Profesional</tspan></text>
  <text class="cls-7" transform="translate(74.53 11.01)"><tspan x="0" y="0">IX a X</tspan></text>
  <text class="cls-5" transform="translate(41.75 3.22)"><tspan x="0" y="0">Proyecto V y VI </tspan></text>
  <text class="cls-6" transform="translate(70.58 3.17)"><tspan x="0" y="0">Proyecto de</tspan><tspan class="cls-10" x="5.6" y="0"> </tspan><tspan class="cls-9" x="5.88" y="0">T</tspan><tspan class="cls-8" x="6.48" y="0">itulo I y II</tspan></text>
</svg>