<?xml version="1.0" encoding="utf-8"?>
<svg version="1.1" xmlns="http://www.w3.org/2000/svg" xmlns:xlink="http://www.w3.org/1999/xlink" viewBox="0 0 100 20">
<style type="text/css">
	.st0{fill:#F68E6B;}
	.st1{fill:#F9EEED;}
	.st2{fill:#FAC4BC;}
	.st3{fill:#EF4623;}
	.st4{fill:none;}
	.st5{enable-background:new    ;}
	.st6{fill:#010101;}
</style>
<g>
	<g>
		<rect x="3.66" y="13.6" class="st0" width="92.67" height="0.52"/>
	</g>
	<g>
		<g>
			<rect x="20.82" y="13.53" class="st0" width="1.13" height="1.54"/>
			<path class="st1" d="M22.05,15.12h-1.32v-1.64h1.32V15.12z M20.92,15.01h0.94v-1.43h-0.94V15.01z"/>
		</g>
	</g>
	<g>
		<g>
			<rect x="48.61" y="13.53" class="st0" width="1.13" height="1.54"/>
			<path class="st1" d="M49.83,15.12h-1.32v-1.64h1.32V15.12z M48.7,15.01h0.94v-1.43H48.7V15.01z"/>
		</g>
	</g>
	<g>
		<g>
			<rect x="79.06" y="13.53" class="st0" width="1.13" height="1.54"/>
			<path class="st1" d="M80.27,15.12h-1.32v-1.64h1.32V15.12z M79.14,15.01h0.94v-1.43h-0.94V15.01z"/>
		</g>
	</g>
</g>
<g>
	<path class="st2" d="M87.68,12.9H71.56c-0.52,0-0.94-0.42-0.94-0.94V7.9c0-0.52,0.42-0.94,0.94-0.94h16.13
		c0.52,0,0.94,0.42,0.94,0.94v4.07C88.61,12.48,88.19,12.9,87.68,12.9z"/>
	<path class="st3" d="M88.61,11.85c0,0.61-0.47,1.11-1.06,1.11H71.67c-0.58,0-1.06-0.5-1.06-1.11"/>
</g>
<g>
	<path class="st2" d="M57.27,12.94h-16.2c-0.5,0-0.9-0.4-0.9-0.9V7.89c0-0.5,0.4-0.9,0.9-0.9h16.19c0.5,0,0.9,0.4,0.9,0.9v4.14
		C58.17,12.53,57.77,12.94,57.27,12.94z"/>
	<path class="st3" d="M58.17,11.88c0,0.61-0.47,1.11-1.06,1.11H41.23c-0.58,0-1.06-0.5-1.06-1.11"/>
</g>
<rect x="16.92" y="15.97" class="st4" width="8.94" height="2.4"/>
<g class="st5">
	<path class="st6" d="M18.81,16.45l0.15,0.05c-0.02,0.08-0.06,0.14-0.11,0.18c-0.05,0.04-0.12,0.06-0.2,0.06
		c-0.1,0-0.18-0.03-0.24-0.1c-0.06-0.07-0.1-0.16-0.1-0.28c0-0.12,0.03-0.22,0.1-0.29c0.06-0.07,0.15-0.1,0.25-0.1
		c0.09,0,0.17,0.03,0.22,0.08c0.03,0.03,0.06,0.08,0.08,0.14l-0.15,0.04c-0.01-0.04-0.03-0.07-0.06-0.09
		c-0.03-0.02-0.06-0.03-0.1-0.03c-0.06,0-0.1,0.02-0.13,0.06c-0.03,0.04-0.05,0.1-0.05,0.19c0,0.09,0.02,0.16,0.05,0.2
		c0.03,0.04,0.08,0.06,0.13,0.06c0.04,0,0.07-0.01,0.1-0.04S18.8,16.5,18.81,16.45z"/>
	<path class="st6" d="M19.09,16.11v-0.13h0.14v0.13H19.09z M19.09,16.72v-0.54h0.14v0.54H19.09z"/>
	<path class="st6" d="M19.85,16.34l-0.14,0.03c0-0.03-0.02-0.05-0.03-0.06c-0.02-0.01-0.04-0.02-0.07-0.02
		c-0.04,0-0.06,0.01-0.08,0.04c-0.02,0.03-0.03,0.07-0.03,0.12c0,0.06,0.01,0.11,0.03,0.14c0.02,0.03,0.05,0.04,0.09,0.04
		c0.03,0,0.05-0.01,0.07-0.02c0.02-0.02,0.03-0.04,0.04-0.08l0.14,0.02c-0.01,0.06-0.04,0.11-0.08,0.15s-0.1,0.05-0.17,0.05
		c-0.08,0-0.14-0.03-0.19-0.08c-0.05-0.05-0.07-0.12-0.07-0.21s0.02-0.16,0.07-0.21c0.05-0.05,0.11-0.08,0.19-0.08
		c0.07,0,0.12,0.01,0.16,0.04S19.83,16.28,19.85,16.34z"/>
	<path class="st6" d="M19.96,16.72v-0.75h0.14v0.75H19.96z"/>
	<path class="st6" d="M20.22,16.44c0-0.05,0.01-0.09,0.04-0.14c0.02-0.04,0.06-0.08,0.1-0.1s0.09-0.04,0.14-0.04
		c0.08,0,0.15,0.03,0.2,0.08c0.05,0.05,0.08,0.12,0.08,0.2c0,0.08-0.03,0.15-0.08,0.2s-0.12,0.08-0.2,0.08
		c-0.05,0-0.1-0.01-0.14-0.03s-0.08-0.06-0.1-0.1S20.22,16.5,20.22,16.44z M20.36,16.45c0,0.05,0.01,0.09,0.04,0.12
		c0.03,0.03,0.06,0.04,0.09,0.04c0.04,0,0.07-0.01,0.09-0.04s0.04-0.07,0.04-0.12c0-0.05-0.01-0.09-0.04-0.12
		c-0.03-0.03-0.06-0.04-0.09-0.04c-0.04,0-0.07,0.01-0.09,0.04C20.38,16.35,20.36,16.4,20.36,16.45z"/>
	<path class="st6" d="M21.18,15.97h0.3c0.06,0,0.1,0,0.13,0.01c0.03,0,0.06,0.01,0.08,0.03s0.04,0.04,0.06,0.06s0.02,0.06,0.02,0.09
		c0,0.03-0.01,0.07-0.03,0.1s-0.04,0.05-0.08,0.07c0.05,0.01,0.08,0.04,0.1,0.07s0.04,0.07,0.04,0.11c0,0.03-0.01,0.07-0.02,0.1
		c-0.02,0.03-0.04,0.06-0.06,0.08c-0.03,0.02-0.06,0.03-0.1,0.04c-0.03,0-0.09,0-0.18,0h-0.25V15.97z M21.33,16.1v0.17h0.1
		c0.06,0,0.1,0,0.11,0c0.03,0,0.05-0.01,0.06-0.03s0.02-0.03,0.02-0.06s-0.01-0.04-0.02-0.06s-0.03-0.02-0.06-0.03
		c-0.02,0-0.06,0-0.13,0H21.33z M21.33,16.39v0.2h0.14c0.05,0,0.09,0,0.1,0c0.02,0,0.04-0.01,0.05-0.03
		c0.01-0.02,0.02-0.04,0.02-0.06c0-0.02-0.01-0.04-0.02-0.06c-0.01-0.02-0.03-0.03-0.05-0.03c-0.02-0.01-0.07-0.01-0.13-0.01H21.33z
		"/>
	<path class="st6" d="M22.04,16.34l-0.13-0.02c0.01-0.05,0.04-0.09,0.08-0.12s0.09-0.04,0.16-0.04c0.06,0,0.11,0.01,0.14,0.02
		c0.03,0.01,0.05,0.03,0.07,0.06c0.01,0.02,0.02,0.07,0.02,0.13l0,0.17c0,0.05,0,0.08,0.01,0.11s0.01,0.05,0.03,0.07h-0.14
		c0-0.01-0.01-0.02-0.01-0.04c0-0.01,0-0.01,0-0.02c-0.02,0.02-0.05,0.04-0.08,0.05s-0.06,0.02-0.09,0.02
		c-0.06,0-0.1-0.02-0.13-0.05s-0.05-0.07-0.05-0.11c0-0.03,0.01-0.06,0.02-0.08c0.01-0.02,0.04-0.04,0.06-0.05s0.06-0.02,0.11-0.03
		c0.07-0.01,0.11-0.02,0.14-0.04v-0.01c0-0.03-0.01-0.05-0.02-0.06s-0.04-0.02-0.08-0.02c-0.03,0-0.05,0-0.06,0.01
		C22.06,16.3,22.05,16.32,22.04,16.34z M22.23,16.46c-0.02,0.01-0.05,0.01-0.09,0.02c-0.04,0.01-0.07,0.02-0.08,0.03
		c-0.02,0.01-0.03,0.03-0.03,0.05c0,0.02,0.01,0.04,0.02,0.05c0.02,0.01,0.03,0.02,0.06,0.02c0.03,0,0.05-0.01,0.07-0.03
		c0.02-0.01,0.03-0.03,0.03-0.05c0-0.01,0.01-0.04,0.01-0.07V16.46z M22.07,16.11l0.07-0.15h0.16l-0.14,0.15H22.07z"/>
	<path class="st6" d="M22.46,16.57l0.14-0.02c0.01,0.03,0.02,0.05,0.04,0.06c0.02,0.01,0.04,0.02,0.08,0.02
		c0.04,0,0.06-0.01,0.08-0.02c0.01-0.01,0.02-0.02,0.02-0.04c0-0.01,0-0.02-0.01-0.03s-0.02-0.01-0.05-0.02
		c-0.12-0.03-0.19-0.05-0.22-0.07c-0.04-0.03-0.06-0.07-0.06-0.12c0-0.05,0.02-0.09,0.06-0.12c0.04-0.03,0.09-0.05,0.17-0.05
		c0.07,0,0.13,0.01,0.17,0.04c0.04,0.02,0.06,0.06,0.07,0.11l-0.14,0.03c-0.01-0.02-0.02-0.04-0.03-0.05
		c-0.02-0.01-0.04-0.02-0.07-0.02c-0.04,0-0.06,0-0.08,0.02c-0.01,0.01-0.02,0.02-0.02,0.03c0,0.01,0,0.02,0.01,0.03
		c0.01,0.01,0.06,0.02,0.13,0.04c0.08,0.02,0.13,0.04,0.16,0.06c0.03,0.03,0.04,0.06,0.04,0.11c0,0.05-0.02,0.09-0.06,0.13
		c-0.04,0.04-0.1,0.05-0.18,0.05c-0.07,0-0.13-0.02-0.17-0.04C22.5,16.66,22.47,16.62,22.46,16.57z"/>
	<path class="st6" d="M23.09,16.11v-0.13h0.14v0.13H23.09z M23.09,16.72v-0.54h0.14v0.54H23.09z"/>
	<path class="st6" d="M23.85,16.34l-0.14,0.03c0-0.03-0.02-0.05-0.03-0.06c-0.02-0.01-0.04-0.02-0.07-0.02
		c-0.04,0-0.06,0.01-0.08,0.04c-0.02,0.03-0.03,0.07-0.03,0.12c0,0.06,0.01,0.11,0.03,0.14c0.02,0.03,0.05,0.04,0.09,0.04
		c0.03,0,0.05-0.01,0.07-0.02c0.02-0.02,0.03-0.04,0.04-0.08l0.14,0.02c-0.01,0.06-0.04,0.11-0.08,0.15s-0.1,0.05-0.17,0.05
		c-0.08,0-0.14-0.03-0.19-0.08c-0.05-0.05-0.07-0.12-0.07-0.21s0.02-0.16,0.07-0.21c0.05-0.05,0.11-0.08,0.19-0.08
		c0.07,0,0.12,0.01,0.16,0.04S23.84,16.28,23.85,16.34z"/>
	<path class="st6" d="M23.93,16.44c0-0.05,0.01-0.09,0.04-0.14c0.02-0.04,0.06-0.08,0.1-0.1s0.09-0.04,0.14-0.04
		c0.08,0,0.15,0.03,0.2,0.08c0.05,0.05,0.08,0.12,0.08,0.2c0,0.08-0.03,0.15-0.08,0.2s-0.12,0.08-0.2,0.08
		c-0.05,0-0.1-0.01-0.14-0.03s-0.08-0.06-0.1-0.1S23.93,16.5,23.93,16.44z M24.08,16.45c0,0.05,0.01,0.09,0.04,0.12
		c0.03,0.03,0.06,0.04,0.09,0.04c0.04,0,0.07-0.01,0.09-0.04s0.04-0.07,0.04-0.12c0-0.05-0.01-0.09-0.04-0.12
		c-0.03-0.03-0.06-0.04-0.09-0.04c-0.04,0-0.07,0.01-0.09,0.04C24.09,16.35,24.08,16.4,24.08,16.45z"/>
</g>
<g class="st5">
	<path class="st6" d="M20.24,17.97v-0.75h0.15v0.75H20.24z"/>
	<path class="st6" d="M20.93,17.59l-0.13-0.02c0.01-0.05,0.04-0.09,0.08-0.12s0.09-0.04,0.16-0.04c0.06,0,0.11,0.01,0.14,0.02
		c0.03,0.01,0.05,0.03,0.07,0.06c0.01,0.02,0.02,0.07,0.02,0.13l0,0.17c0,0.05,0,0.08,0.01,0.11s0.01,0.05,0.03,0.07h-0.14
		c0-0.01-0.01-0.02-0.01-0.04c0-0.01,0-0.01,0-0.02c-0.02,0.02-0.05,0.04-0.08,0.05s-0.06,0.02-0.09,0.02
		c-0.06,0-0.1-0.02-0.13-0.05s-0.05-0.07-0.05-0.11c0-0.03,0.01-0.06,0.02-0.08c0.01-0.02,0.04-0.04,0.06-0.05s0.06-0.02,0.11-0.03
		c0.07-0.01,0.11-0.02,0.14-0.04V17.6c0-0.03-0.01-0.05-0.02-0.06s-0.04-0.02-0.08-0.02c-0.03,0-0.05,0-0.06,0.01
		C20.95,17.55,20.94,17.57,20.93,17.59z M21.12,17.71c-0.02,0.01-0.05,0.01-0.09,0.02c-0.04,0.01-0.07,0.02-0.08,0.03
		c-0.02,0.01-0.03,0.03-0.03,0.05c0,0.02,0.01,0.04,0.02,0.05c0.02,0.01,0.03,0.02,0.06,0.02c0.03,0,0.05-0.01,0.07-0.03
		c0.02-0.01,0.03-0.03,0.03-0.05c0-0.01,0.01-0.04,0.01-0.07V17.71z"/>
	<path class="st6" d="M21.69,17.97v-0.75h0.15v0.75H21.69z"/>
	<path class="st6" d="M22.18,17.97l-0.27-0.75h0.16l0.19,0.55l0.18-0.55h0.16l-0.27,0.75H22.18z"/>
</g>
<rect x="44.18" y="15.97" class="st4" width="9.99" height="2.4"/>
<g class="st5">
	<path class="st6" d="M44.86,16.45L45,16.49c-0.02,0.08-0.06,0.14-0.11,0.18c-0.05,0.04-0.12,0.06-0.2,0.06
		c-0.1,0-0.18-0.03-0.24-0.1c-0.06-0.07-0.1-0.16-0.1-0.28c0-0.12,0.03-0.22,0.1-0.29c0.06-0.07,0.15-0.1,0.25-0.1
		c0.09,0,0.17,0.03,0.22,0.08c0.03,0.03,0.06,0.08,0.08,0.14l-0.15,0.04c-0.01-0.04-0.03-0.07-0.06-0.09
		c-0.03-0.02-0.06-0.03-0.1-0.03c-0.06,0-0.1,0.02-0.13,0.06c-0.03,0.04-0.05,0.1-0.05,0.19c0,0.09,0.02,0.16,0.05,0.2
		c0.03,0.04,0.08,0.06,0.13,0.06c0.04,0,0.07-0.01,0.1-0.04S44.85,16.5,44.86,16.45z"/>
	<path class="st6" d="M45.13,16.11v-0.13h0.14v0.13H45.13z M45.13,16.72v-0.54h0.14v0.54H45.13z"/>
	<path class="st6" d="M45.89,16.34l-0.14,0.03c0-0.03-0.02-0.05-0.03-0.06c-0.02-0.01-0.04-0.02-0.07-0.02
		c-0.04,0-0.06,0.01-0.08,0.04c-0.02,0.03-0.03,0.07-0.03,0.12c0,0.06,0.01,0.11,0.03,0.14c0.02,0.03,0.05,0.04,0.09,0.04
		c0.03,0,0.05-0.01,0.07-0.02c0.02-0.02,0.03-0.04,0.04-0.08l0.14,0.02c-0.01,0.06-0.04,0.11-0.08,0.15s-0.1,0.05-0.17,0.05
		c-0.08,0-0.14-0.03-0.19-0.08c-0.05-0.05-0.07-0.12-0.07-0.21s0.02-0.16,0.07-0.21c0.05-0.05,0.11-0.08,0.19-0.08
		c0.07,0,0.12,0.01,0.16,0.04S45.88,16.28,45.89,16.34z"/>
	<path class="st6" d="M46,16.72v-0.75h0.14v0.75H46z"/>
	<path class="st6" d="M46.26,16.44c0-0.05,0.01-0.09,0.04-0.14c0.02-0.04,0.06-0.08,0.1-0.1s0.09-0.04,0.14-0.04
		c0.08,0,0.15,0.03,0.2,0.08c0.05,0.05,0.08,0.12,0.08,0.2c0,0.08-0.03,0.15-0.08,0.2s-0.12,0.08-0.2,0.08
		c-0.05,0-0.1-0.01-0.14-0.03s-0.08-0.06-0.1-0.1S46.26,16.5,46.26,16.44z M46.41,16.45c0,0.05,0.01,0.09,0.04,0.12
		c0.03,0.03,0.06,0.04,0.09,0.04c0.04,0,0.07-0.01,0.09-0.04s0.04-0.07,0.04-0.12c0-0.05-0.01-0.09-0.04-0.12
		c-0.03-0.03-0.06-0.04-0.09-0.04c-0.04,0-0.07,0.01-0.09,0.04C46.42,16.35,46.41,16.4,46.41,16.45z"/>
	<path class="st6" d="M47.22,16.72v-0.75h0.55v0.13h-0.4v0.17h0.38v0.13h-0.38v0.2h0.42v0.13H47.22z"/>
	<path class="st6" d="M47.87,16.57l0.14-0.02c0.01,0.03,0.02,0.05,0.04,0.06c0.02,0.01,0.04,0.02,0.08,0.02
		c0.04,0,0.06-0.01,0.08-0.02c0.01-0.01,0.02-0.02,0.02-0.04c0-0.01,0-0.02-0.01-0.03s-0.02-0.01-0.05-0.02
		c-0.12-0.03-0.19-0.05-0.22-0.07c-0.04-0.03-0.06-0.07-0.06-0.12c0-0.05,0.02-0.09,0.06-0.12c0.04-0.03,0.09-0.05,0.17-0.05
		c0.07,0,0.13,0.01,0.17,0.04c0.04,0.02,0.06,0.06,0.07,0.11l-0.14,0.03c-0.01-0.02-0.02-0.04-0.03-0.05
		c-0.02-0.01-0.04-0.02-0.07-0.02c-0.04,0-0.06,0-0.08,0.02c-0.01,0.01-0.02,0.02-0.02,0.03c0,0.01,0,0.02,0.01,0.03
		c0.01,0.01,0.06,0.02,0.13,0.04c0.08,0.02,0.13,0.04,0.16,0.06c0.03,0.03,0.04,0.06,0.04,0.11c0,0.05-0.02,0.09-0.06,0.13
		c-0.04,0.04-0.1,0.05-0.18,0.05c-0.07,0-0.13-0.02-0.17-0.04C47.91,16.66,47.88,16.62,47.87,16.57z"/>
	<path class="st6" d="M48.49,16.18h0.13v0.08c0.02-0.03,0.04-0.05,0.07-0.07c0.03-0.02,0.06-0.03,0.1-0.03
		c0.06,0,0.12,0.03,0.16,0.07c0.04,0.05,0.07,0.12,0.07,0.21c0,0.09-0.02,0.16-0.07,0.21c-0.04,0.05-0.1,0.08-0.16,0.08
		c-0.03,0-0.06-0.01-0.08-0.02c-0.02-0.01-0.05-0.03-0.08-0.06v0.27h-0.14V16.18z M48.63,16.44c0,0.06,0.01,0.11,0.04,0.13
		c0.02,0.03,0.05,0.04,0.09,0.04c0.03,0,0.06-0.01,0.08-0.04c0.02-0.03,0.03-0.07,0.03-0.13c0-0.06-0.01-0.1-0.03-0.13
		c-0.02-0.03-0.05-0.04-0.08-0.04c-0.04,0-0.06,0.01-0.09,0.04C48.65,16.35,48.63,16.39,48.63,16.44z"/>
	<path class="st6" d="M49.45,16.55l0.14,0.02c-0.02,0.05-0.05,0.09-0.09,0.12c-0.04,0.03-0.09,0.04-0.15,0.04
		c-0.09,0-0.16-0.03-0.21-0.09c-0.04-0.05-0.05-0.11-0.05-0.19c0-0.09,0.02-0.16,0.07-0.21s0.11-0.08,0.18-0.08
		c0.08,0,0.14,0.03,0.19,0.08c0.05,0.05,0.07,0.13,0.07,0.24h-0.36c0,0.04,0.01,0.08,0.03,0.1c0.02,0.02,0.05,0.04,0.08,0.04
		c0.02,0,0.04-0.01,0.06-0.02C49.43,16.59,49.44,16.57,49.45,16.55z M49.46,16.4c0-0.04-0.01-0.07-0.03-0.09s-0.04-0.03-0.07-0.03
		c-0.03,0-0.06,0.01-0.08,0.03c-0.02,0.02-0.03,0.05-0.03,0.09H49.46z"/>
	<path class="st6" d="M50.19,16.34l-0.14,0.03c0-0.03-0.02-0.05-0.03-0.06c-0.02-0.01-0.04-0.02-0.07-0.02
		c-0.04,0-0.06,0.01-0.08,0.04c-0.02,0.03-0.03,0.07-0.03,0.12c0,0.06,0.01,0.11,0.03,0.14c0.02,0.03,0.05,0.04,0.09,0.04
		c0.03,0,0.05-0.01,0.07-0.02c0.02-0.02,0.03-0.04,0.04-0.08l0.14,0.02c-0.01,0.06-0.04,0.11-0.08,0.15
		c-0.04,0.03-0.1,0.05-0.17,0.05c-0.08,0-0.14-0.03-0.19-0.08c-0.05-0.05-0.07-0.12-0.07-0.21s0.02-0.16,0.07-0.21
		c0.05-0.05,0.11-0.08,0.19-0.08c0.07,0,0.12,0.01,0.16,0.04S50.17,16.28,50.19,16.34z"/>
	<path class="st6" d="M50.29,16.11v-0.13h0.14v0.13H50.29z M50.29,16.72v-0.54h0.14v0.54H50.29z"/>
	<path class="st6" d="M50.69,16.34l-0.13-0.02c0.01-0.05,0.04-0.09,0.08-0.12c0.04-0.03,0.09-0.04,0.16-0.04
		c0.06,0,0.11,0.01,0.14,0.02c0.03,0.01,0.05,0.03,0.07,0.06c0.01,0.02,0.02,0.07,0.02,0.13l0,0.17c0,0.05,0,0.08,0.01,0.11
		c0,0.02,0.01,0.05,0.03,0.07h-0.14c0-0.01-0.01-0.02-0.01-0.04c0-0.01,0-0.01,0-0.02c-0.02,0.02-0.05,0.04-0.08,0.05
		c-0.03,0.01-0.06,0.02-0.09,0.02c-0.06,0-0.1-0.02-0.13-0.05s-0.05-0.07-0.05-0.11c0-0.03,0.01-0.06,0.02-0.08
		c0.01-0.02,0.04-0.04,0.06-0.05s0.06-0.02,0.11-0.03c0.07-0.01,0.11-0.02,0.14-0.04v-0.01c0-0.03-0.01-0.05-0.02-0.06
		s-0.04-0.02-0.08-0.02c-0.03,0-0.04,0-0.06,0.01S50.7,16.32,50.69,16.34z M50.88,16.46c-0.02,0.01-0.05,0.01-0.09,0.02
		c-0.04,0.01-0.07,0.02-0.08,0.03c-0.02,0.01-0.03,0.03-0.03,0.05c0,0.02,0.01,0.04,0.02,0.05s0.03,0.02,0.06,0.02
		c0.03,0,0.05-0.01,0.07-0.03c0.02-0.01,0.03-0.03,0.03-0.05c0-0.01,0.01-0.04,0.01-0.07V16.46z"/>
	<path class="st6" d="M51.17,16.72v-0.75h0.14v0.75H51.17z"/>
	<path class="st6" d="M51.46,16.11v-0.13h0.14v0.13H51.46z M51.46,16.72v-0.54h0.14v0.54H51.46z"/>
	<path class="st6" d="M51.69,16.72v-0.11l0.2-0.23c0.03-0.04,0.06-0.06,0.07-0.08c-0.02,0-0.04,0-0.07,0l-0.19,0v-0.12h0.45v0.1
		l-0.21,0.24l-0.07,0.08c0.04,0,0.06,0,0.07,0h0.22v0.13H51.69z"/>
	<path class="st6" d="M52.37,16.34l-0.13-0.02c0.01-0.05,0.04-0.09,0.08-0.12c0.04-0.03,0.09-0.04,0.16-0.04
		c0.06,0,0.11,0.01,0.14,0.02c0.03,0.01,0.05,0.03,0.07,0.06c0.01,0.02,0.02,0.07,0.02,0.13l0,0.17c0,0.05,0,0.08,0.01,0.11
		c0,0.02,0.01,0.05,0.03,0.07H52.6c0-0.01-0.01-0.02-0.01-0.04c0-0.01,0-0.01,0-0.02c-0.02,0.02-0.05,0.04-0.08,0.05
		c-0.03,0.01-0.06,0.02-0.09,0.02c-0.06,0-0.1-0.02-0.13-0.05s-0.05-0.07-0.05-0.11c0-0.03,0.01-0.06,0.02-0.08
		c0.01-0.02,0.04-0.04,0.06-0.05s0.06-0.02,0.11-0.03c0.07-0.01,0.11-0.02,0.14-0.04v-0.01c0-0.03-0.01-0.05-0.02-0.06
		s-0.04-0.02-0.08-0.02c-0.03,0-0.04,0-0.06,0.01S52.38,16.32,52.37,16.34z M52.57,16.46c-0.02,0.01-0.05,0.01-0.09,0.02
		c-0.04,0.01-0.07,0.02-0.08,0.03c-0.02,0.01-0.03,0.03-0.03,0.05c0,0.02,0.01,0.04,0.02,0.05s0.03,0.02,0.06,0.02
		c0.03,0,0.05-0.01,0.07-0.03c0.02-0.01,0.03-0.03,0.03-0.05c0-0.01,0.01-0.04,0.01-0.07V16.46z"/>
	<path class="st6" d="M53.34,16.72h-0.13v-0.08c-0.02,0.03-0.05,0.05-0.08,0.07c-0.03,0.02-0.06,0.02-0.09,0.02
		c-0.06,0-0.12-0.03-0.16-0.08c-0.04-0.05-0.07-0.12-0.07-0.21c0-0.09,0.02-0.16,0.06-0.21s0.1-0.07,0.16-0.07
		c0.06,0,0.11,0.03,0.16,0.08v-0.27h0.14V16.72z M52.96,16.44c0,0.06,0.01,0.1,0.02,0.12c0.02,0.04,0.06,0.06,0.1,0.06
		c0.03,0,0.06-0.01,0.08-0.04c0.02-0.03,0.04-0.07,0.04-0.13c0-0.06-0.01-0.11-0.03-0.13s-0.05-0.04-0.09-0.04
		c-0.03,0-0.06,0.01-0.08,0.04C52.97,16.34,52.96,16.38,52.96,16.44z"/>
	<path class="st6" d="M53.45,16.44c0-0.05,0.01-0.09,0.04-0.14c0.02-0.04,0.06-0.08,0.1-0.1s0.09-0.04,0.14-0.04
		c0.08,0,0.15,0.03,0.2,0.08s0.08,0.12,0.08,0.2c0,0.08-0.03,0.15-0.08,0.2s-0.12,0.08-0.2,0.08c-0.05,0-0.1-0.01-0.14-0.03
		s-0.08-0.06-0.1-0.1S53.45,16.5,53.45,16.44z M53.6,16.45c0,0.05,0.01,0.09,0.04,0.12s0.06,0.04,0.09,0.04
		c0.04,0,0.07-0.01,0.09-0.04s0.04-0.07,0.04-0.12c0-0.05-0.01-0.09-0.04-0.12c-0.03-0.03-0.06-0.04-0.09-0.04
		c-0.04,0-0.07,0.01-0.09,0.04C53.61,16.35,53.6,16.4,53.6,16.45z"/>
</g>
<g class="st5">
	<path class="st6" d="M47.73,17.97l-0.27-0.75h0.16l0.19,0.55L48,17.22h0.16l-0.27,0.75H47.73z"/>
	<path class="st6" d="M48.63,17.59l-0.13-0.02c0.01-0.05,0.04-0.09,0.08-0.12s0.09-0.04,0.16-0.04c0.06,0,0.11,0.01,0.14,0.02
		c0.03,0.01,0.05,0.03,0.07,0.06c0.01,0.02,0.02,0.07,0.02,0.13l0,0.17c0,0.05,0,0.08,0.01,0.11s0.01,0.05,0.03,0.07h-0.14
		c0-0.01-0.01-0.02-0.01-0.04c0-0.01,0-0.01,0-0.02c-0.02,0.02-0.05,0.04-0.08,0.05s-0.06,0.02-0.09,0.02
		c-0.06,0-0.1-0.02-0.13-0.05s-0.05-0.07-0.05-0.11c0-0.03,0.01-0.06,0.02-0.08c0.01-0.02,0.04-0.04,0.06-0.05s0.06-0.02,0.11-0.03
		c0.07-0.01,0.11-0.02,0.14-0.04V17.6c0-0.03-0.01-0.05-0.02-0.06s-0.04-0.02-0.08-0.02c-0.03,0-0.05,0-0.06,0.01
		C48.65,17.55,48.64,17.57,48.63,17.59z M48.82,17.71c-0.02,0.01-0.05,0.01-0.09,0.02c-0.04,0.01-0.07,0.02-0.08,0.03
		c-0.02,0.01-0.03,0.03-0.03,0.05c0,0.02,0.01,0.04,0.02,0.05c0.02,0.01,0.03,0.02,0.06,0.02c0.03,0,0.05-0.01,0.07-0.03
		c0.02-0.01,0.03-0.03,0.03-0.05c0-0.01,0.01-0.04,0.01-0.07V17.71z"/>
	<path class="st6" d="M49.59,17.97l-0.27-0.75h0.16l0.19,0.55l0.18-0.55h0.16l-0.27,0.75H49.59z"/>
	<path class="st6" d="M50.09,17.97v-0.75h0.15v0.75H50.09z"/>
	<path class="st6" d="M50.38,17.97v-0.75h0.15v0.75H50.38z"/>
	<path class="st6" d="M50.67,17.97v-0.75h0.15v0.75H50.67z"/>
</g>
<rect x="74.62" y="15.97" class="st4" width="9.99" height="2.4"/>
<g class="st5">
	<path class="st6" d="M75.91,16.45l0.15,0.05c-0.02,0.08-0.06,0.14-0.11,0.18c-0.05,0.04-0.12,0.06-0.2,0.06
		c-0.1,0-0.18-0.03-0.24-0.1s-0.1-0.16-0.1-0.28c0-0.12,0.03-0.22,0.1-0.29c0.06-0.07,0.15-0.1,0.25-0.1c0.09,0,0.17,0.03,0.22,0.08
		c0.03,0.03,0.06,0.08,0.08,0.14l-0.15,0.04c-0.01-0.04-0.03-0.07-0.05-0.09c-0.03-0.02-0.06-0.03-0.1-0.03
		c-0.06,0-0.1,0.02-0.13,0.06s-0.05,0.1-0.05,0.19c0,0.09,0.02,0.16,0.05,0.2c0.03,0.04,0.08,0.06,0.13,0.06
		c0.04,0,0.07-0.01,0.1-0.04C75.88,16.54,75.9,16.5,75.91,16.45z"/>
	<path class="st6" d="M76.18,16.11v-0.13h0.14v0.13H76.18z M76.18,16.72v-0.54h0.14v0.54H76.18z"/>
	<path class="st6" d="M76.95,16.34l-0.14,0.03c0-0.03-0.02-0.05-0.03-0.06c-0.02-0.01-0.04-0.02-0.07-0.02
		c-0.04,0-0.06,0.01-0.08,0.04c-0.02,0.03-0.03,0.07-0.03,0.12c0,0.06,0.01,0.11,0.03,0.14s0.05,0.04,0.09,0.04
		c0.03,0,0.05-0.01,0.07-0.02c0.02-0.02,0.03-0.04,0.04-0.08l0.14,0.02c-0.01,0.06-0.04,0.11-0.08,0.15
		c-0.04,0.03-0.1,0.05-0.17,0.05c-0.08,0-0.14-0.03-0.19-0.08c-0.05-0.05-0.07-0.12-0.07-0.21s0.02-0.16,0.07-0.21
		c0.05-0.05,0.11-0.08,0.19-0.08c0.07,0,0.12,0.01,0.16,0.04S76.93,16.28,76.95,16.34z"/>
	<path class="st6" d="M77.05,16.72v-0.75h0.14v0.75H77.05z"/>
	<path class="st6" d="M77.31,16.44c0-0.05,0.01-0.09,0.04-0.14c0.02-0.04,0.06-0.08,0.1-0.1s0.09-0.04,0.14-0.04
		c0.08,0,0.15,0.03,0.2,0.08c0.05,0.05,0.08,0.12,0.08,0.2c0,0.08-0.03,0.15-0.08,0.2s-0.12,0.08-0.2,0.08
		c-0.05,0-0.1-0.01-0.14-0.03s-0.08-0.06-0.1-0.1S77.31,16.5,77.31,16.44z M77.46,16.45c0,0.05,0.01,0.09,0.04,0.12
		c0.03,0.03,0.06,0.04,0.09,0.04s0.07-0.01,0.09-0.04s0.04-0.07,0.04-0.12c0-0.05-0.01-0.09-0.04-0.12
		c-0.03-0.03-0.06-0.04-0.09-0.04s-0.07,0.01-0.09,0.04C77.47,16.35,77.46,16.4,77.46,16.45z"/>
	<path class="st6" d="M78.27,16.72v-0.75h0.24c0.09,0,0.15,0,0.18,0.01c0.04,0.01,0.08,0.04,0.11,0.07
		c0.03,0.04,0.04,0.09,0.04,0.15c0,0.05-0.01,0.08-0.02,0.12s-0.04,0.06-0.06,0.07s-0.05,0.03-0.08,0.04
		c-0.04,0.01-0.09,0.01-0.16,0.01h-0.1v0.28H78.27z M78.42,16.1v0.21h0.08c0.06,0,0.1,0,0.12-0.01c0.02-0.01,0.04-0.02,0.05-0.04
		s0.02-0.04,0.02-0.06c0-0.03-0.01-0.05-0.02-0.07c-0.02-0.02-0.04-0.03-0.06-0.03c-0.02,0-0.05-0.01-0.11-0.01H78.42z"/>
	<path class="st6" d="M79.1,16.72h-0.14v-0.54h0.13v0.08c0.02-0.04,0.04-0.06,0.06-0.07c0.02-0.01,0.04-0.02,0.06-0.02
		c0.03,0,0.06,0.01,0.09,0.03l-0.04,0.12c-0.02-0.02-0.05-0.02-0.07-0.02c-0.02,0-0.04,0-0.05,0.02c-0.01,0.01-0.02,0.03-0.03,0.06
		c-0.01,0.03-0.01,0.09-0.01,0.18V16.72z"/>
	<path class="st6" d="M79.34,16.44c0-0.05,0.01-0.09,0.04-0.14c0.02-0.04,0.06-0.08,0.1-0.1s0.09-0.04,0.14-0.04
		c0.08,0,0.15,0.03,0.2,0.08c0.05,0.05,0.08,0.12,0.08,0.2c0,0.08-0.03,0.15-0.08,0.2s-0.12,0.08-0.2,0.08
		c-0.05,0-0.1-0.01-0.14-0.03s-0.08-0.06-0.1-0.1S79.34,16.5,79.34,16.44z M79.49,16.45c0,0.05,0.01,0.09,0.04,0.12
		c0.03,0.03,0.06,0.04,0.09,0.04s0.07-0.01,0.09-0.04s0.04-0.07,0.04-0.12c0-0.05-0.01-0.09-0.04-0.12
		c-0.03-0.03-0.06-0.04-0.09-0.04s-0.07,0.01-0.09,0.04C79.5,16.35,79.49,16.4,79.49,16.45z"/>
	<path class="st6" d="M79.95,16.18h0.08v-0.04c0-0.05,0-0.08,0.01-0.1s0.03-0.04,0.05-0.05c0.03-0.01,0.06-0.02,0.1-0.02
		c0.04,0,0.08,0.01,0.12,0.02l-0.02,0.1c-0.02-0.01-0.04-0.01-0.07-0.01c-0.02,0-0.04,0-0.04,0.01c-0.01,0.01-0.01,0.03-0.01,0.06
		v0.04h0.11v0.11h-0.11v0.43h-0.14v-0.43h-0.08V16.18z"/>
	<path class="st6" d="M80.67,16.55l0.14,0.02c-0.02,0.05-0.05,0.09-0.09,0.12c-0.04,0.03-0.09,0.04-0.15,0.04
		c-0.09,0-0.16-0.03-0.21-0.09c-0.04-0.05-0.05-0.11-0.05-0.19c0-0.09,0.02-0.16,0.07-0.21s0.11-0.08,0.18-0.08
		c0.08,0,0.14,0.03,0.19,0.08s0.07,0.13,0.07,0.24h-0.36c0,0.04,0.01,0.08,0.03,0.1c0.02,0.02,0.05,0.04,0.08,0.04
		c0.02,0,0.04-0.01,0.06-0.02C80.65,16.59,80.66,16.57,80.67,16.55z M80.68,16.4c0-0.04-0.01-0.07-0.03-0.09s-0.04-0.03-0.07-0.03
		c-0.03,0-0.06,0.01-0.08,0.03c-0.02,0.02-0.03,0.05-0.03,0.09H80.68z"/>
	<path class="st6" d="M80.89,16.57l0.14-0.02c0.01,0.03,0.02,0.05,0.04,0.06c0.02,0.01,0.04,0.02,0.08,0.02
		c0.04,0,0.06-0.01,0.08-0.02c0.01-0.01,0.02-0.02,0.02-0.04c0-0.01,0-0.02-0.01-0.03s-0.02-0.01-0.05-0.02
		c-0.12-0.03-0.19-0.05-0.22-0.07c-0.04-0.03-0.06-0.07-0.06-0.12c0-0.05,0.02-0.09,0.06-0.12c0.04-0.03,0.09-0.05,0.17-0.05
		c0.07,0,0.13,0.01,0.17,0.04c0.04,0.02,0.06,0.06,0.07,0.11l-0.13,0.03c-0.01-0.02-0.02-0.04-0.03-0.05
		c-0.02-0.01-0.04-0.02-0.07-0.02c-0.04,0-0.07,0-0.08,0.02c-0.01,0.01-0.02,0.02-0.02,0.03c0,0.01,0,0.02,0.01,0.03
		c0.01,0.01,0.06,0.02,0.13,0.04c0.08,0.02,0.13,0.04,0.16,0.06s0.04,0.06,0.04,0.11c0,0.05-0.02,0.09-0.06,0.13
		c-0.04,0.04-0.1,0.05-0.18,0.05c-0.07,0-0.13-0.02-0.17-0.04C80.93,16.66,80.9,16.62,80.89,16.57z"/>
	<path class="st6" d="M81.52,16.11v-0.13h0.14v0.13H81.52z M81.52,16.72v-0.54h0.14v0.54H81.52z"/>
	<path class="st6" d="M81.78,16.44c0-0.05,0.01-0.09,0.04-0.14c0.02-0.04,0.06-0.08,0.1-0.1s0.09-0.04,0.14-0.04
		c0.08,0,0.15,0.03,0.2,0.08c0.05,0.05,0.08,0.12,0.08,0.2c0,0.08-0.03,0.15-0.08,0.2s-0.12,0.08-0.2,0.08
		c-0.05,0-0.1-0.01-0.14-0.03s-0.08-0.06-0.1-0.1S81.78,16.5,81.78,16.44z M81.92,16.45c0,0.05,0.01,0.09,0.04,0.12
		c0.03,0.03,0.06,0.04,0.09,0.04s0.07-0.01,0.09-0.04s0.04-0.07,0.04-0.12c0-0.05-0.01-0.09-0.04-0.12
		c-0.03-0.03-0.06-0.04-0.09-0.04s-0.07,0.01-0.09,0.04C81.94,16.35,81.92,16.4,81.92,16.45z"/>
	<path class="st6" d="M82.94,16.72H82.8v-0.28c0-0.06,0-0.1-0.01-0.11c-0.01-0.02-0.02-0.03-0.03-0.04
		c-0.01-0.01-0.03-0.01-0.05-0.01c-0.03,0-0.05,0.01-0.07,0.02s-0.03,0.03-0.04,0.05c-0.01,0.02-0.01,0.06-0.01,0.12v0.25h-0.14
		v-0.54h0.13v0.08c0.05-0.06,0.11-0.09,0.18-0.09c0.03,0,0.06,0.01,0.09,0.02c0.03,0.01,0.05,0.03,0.06,0.04
		c0.01,0.02,0.02,0.04,0.03,0.06s0.01,0.05,0.01,0.1V16.72z"/>
	<path class="st6" d="M83.19,16.34l-0.13-0.02c0.01-0.05,0.04-0.09,0.08-0.12c0.04-0.03,0.09-0.04,0.16-0.04
		c0.06,0,0.11,0.01,0.14,0.02c0.03,0.01,0.05,0.03,0.07,0.06c0.01,0.02,0.02,0.07,0.02,0.13l0,0.17c0,0.05,0,0.08,0.01,0.11
		c0,0.02,0.01,0.05,0.03,0.07h-0.14c0-0.01-0.01-0.02-0.01-0.04c0-0.01,0-0.01,0-0.02c-0.02,0.02-0.05,0.04-0.08,0.05
		c-0.03,0.01-0.06,0.02-0.09,0.02c-0.06,0-0.1-0.02-0.13-0.05s-0.05-0.07-0.05-0.11c0-0.03,0.01-0.06,0.02-0.08
		c0.01-0.02,0.04-0.04,0.06-0.05s0.06-0.02,0.11-0.03c0.07-0.01,0.11-0.02,0.14-0.04v-0.01c0-0.03-0.01-0.05-0.02-0.06
		s-0.04-0.02-0.08-0.02c-0.03,0-0.04,0-0.06,0.01S83.2,16.32,83.19,16.34z M83.38,16.46c-0.02,0.01-0.05,0.01-0.09,0.02
		c-0.04,0.01-0.07,0.02-0.08,0.03c-0.02,0.01-0.03,0.03-0.03,0.05c0,0.02,0.01,0.04,0.02,0.05s0.03,0.02,0.06,0.02
		c0.03,0,0.05-0.01,0.07-0.03c0.02-0.01,0.03-0.03,0.03-0.05c0-0.01,0.01-0.04,0.01-0.07V16.46z"/>
	<path class="st6" d="M83.67,16.72v-0.75h0.14v0.75H83.67z"/>
</g>
<g class="st5">
	<path class="st6" d="M78.27,17.97v-0.75h0.15v0.75H78.27z"/>
	<path class="st6" d="M78.49,17.97l0.26-0.39l-0.23-0.36h0.18l0.15,0.24l0.15-0.24h0.17l-0.23,0.36l0.25,0.38H79l-0.17-0.26
		l-0.17,0.26H78.49z"/>
	<path class="st6" d="M79.65,17.59l-0.13-0.02c0.01-0.05,0.04-0.09,0.08-0.12c0.04-0.03,0.09-0.04,0.16-0.04
		c0.06,0,0.11,0.01,0.14,0.02c0.03,0.01,0.05,0.03,0.07,0.06c0.01,0.02,0.02,0.07,0.02,0.13l0,0.17c0,0.05,0,0.08,0.01,0.11
		c0,0.02,0.01,0.05,0.03,0.07h-0.14c0-0.01-0.01-0.02-0.01-0.04c0-0.01,0-0.01,0-0.02c-0.02,0.02-0.05,0.04-0.08,0.05
		c-0.03,0.01-0.06,0.02-0.09,0.02c-0.06,0-0.1-0.02-0.13-0.05s-0.05-0.07-0.05-0.11c0-0.03,0.01-0.06,0.02-0.08
		c0.01-0.02,0.04-0.04,0.06-0.05s0.06-0.02,0.11-0.03c0.07-0.01,0.11-0.02,0.14-0.04V17.6c0-0.03-0.01-0.05-0.02-0.06
		s-0.04-0.02-0.08-0.02c-0.03,0-0.05,0-0.06,0.01C79.67,17.55,79.66,17.57,79.65,17.59z M79.84,17.71
		c-0.02,0.01-0.05,0.01-0.09,0.02c-0.04,0.01-0.07,0.02-0.08,0.03c-0.02,0.01-0.03,0.03-0.03,0.05c0,0.02,0.01,0.04,0.02,0.05
		c0.02,0.01,0.03,0.02,0.06,0.02c0.03,0,0.05-0.01,0.07-0.03c0.02-0.01,0.03-0.03,0.03-0.05c0-0.01,0.01-0.04,0.01-0.07V17.71z"/>
	<path class="st6" d="M80.34,17.97l0.26-0.39l-0.23-0.36h0.18l0.15,0.24l0.15-0.24h0.17l-0.23,0.36l0.25,0.38h-0.18l-0.17-0.26
		l-0.17,0.26H80.34z"/>
</g>
<g>
	<rect x="41.82" y="9.02" class="st4" width="14.72" height="1.47"/>
	<g class="st5">
		<path class="st6" d="M45.49,10.18V9.43h0.28c0.05,0,0.09,0,0.11,0.01c0.04,0.01,0.07,0.02,0.09,0.04
			c0.02,0.02,0.04,0.04,0.06,0.07s0.02,0.07,0.02,0.1c0,0.06-0.02,0.12-0.06,0.16s-0.11,0.07-0.22,0.07h-0.19v0.31H45.49z
			 M45.59,9.78h0.19c0.06,0,0.11-0.01,0.14-0.04c0.03-0.02,0.04-0.06,0.04-0.1c0-0.03-0.01-0.06-0.02-0.08s-0.04-0.04-0.06-0.04
			c-0.02,0-0.05-0.01-0.09-0.01h-0.19V9.78z"/>
		<path class="st6" d="M46.18,10.18V9.63h0.08v0.08c0.02-0.04,0.04-0.06,0.06-0.08c0.02-0.01,0.04-0.02,0.06-0.02
			c0.03,0,0.06,0.01,0.09,0.03l-0.03,0.09c-0.02-0.01-0.04-0.02-0.07-0.02c-0.02,0-0.04,0.01-0.05,0.02
			c-0.02,0.01-0.03,0.03-0.03,0.05c-0.01,0.03-0.02,0.07-0.02,0.11v0.28H46.18z"/>
		<path class="st6" d="M46.5,9.91c0-0.1,0.03-0.17,0.08-0.22c0.05-0.04,0.1-0.06,0.17-0.06c0.08,0,0.14,0.02,0.18,0.07
			s0.07,0.12,0.07,0.2c0,0.07-0.01,0.13-0.03,0.17s-0.05,0.07-0.09,0.09c-0.04,0.02-0.08,0.03-0.13,0.03
			c-0.08,0-0.14-0.02-0.18-0.07C46.52,10.07,46.5,10,46.5,9.91z M46.59,9.91c0,0.07,0.02,0.12,0.05,0.16
			c0.03,0.03,0.07,0.05,0.11,0.05s0.08-0.02,0.11-0.05c0.03-0.03,0.05-0.09,0.05-0.16c0-0.07-0.02-0.12-0.05-0.15
			C46.83,9.72,46.8,9.7,46.75,9.7c-0.05,0-0.08,0.02-0.11,0.05S46.59,9.84,46.59,9.91z"/>
		<path class="st6" d="M47.11,10.39L47.1,10.3c0.02,0.01,0.04,0.01,0.05,0.01c0.02,0,0.04,0,0.05-0.01s0.02-0.02,0.03-0.03
			c0.01-0.01,0.02-0.03,0.03-0.07c0,0,0-0.01,0.01-0.02l-0.21-0.55h0.1l0.11,0.32c0.01,0.04,0.03,0.08,0.04,0.13
			c0.01-0.04,0.02-0.08,0.04-0.12l0.12-0.32h0.09l-0.21,0.55c-0.02,0.06-0.04,0.1-0.05,0.12c-0.02,0.03-0.04,0.05-0.06,0.07
			c-0.02,0.01-0.05,0.02-0.08,0.02C47.15,10.4,47.13,10.4,47.11,10.39z"/>
		<path class="st6" d="M48.01,10l0.1,0.01c-0.01,0.06-0.04,0.1-0.08,0.13c-0.04,0.03-0.09,0.05-0.16,0.05
			c-0.08,0-0.14-0.03-0.19-0.07c-0.05-0.05-0.07-0.12-0.07-0.21c0-0.09,0.02-0.16,0.07-0.21c0.05-0.05,0.11-0.08,0.18-0.08
			c0.07,0,0.13,0.02,0.18,0.07c0.05,0.05,0.07,0.12,0.07,0.21c0,0.01,0,0.01,0,0.02H47.7c0,0.06,0.02,0.11,0.05,0.14
			c0.03,0.03,0.07,0.05,0.11,0.05c0.03,0,0.06-0.01,0.09-0.03C47.98,10.07,48,10.04,48.01,10z M47.71,9.85h0.3
			c0-0.05-0.02-0.08-0.03-0.1c-0.03-0.04-0.07-0.05-0.11-0.05c-0.04,0-0.08,0.01-0.11,0.04S47.71,9.81,47.71,9.85z"/>
		<path class="st6" d="M48.58,9.98l0.09,0.01c-0.01,0.06-0.04,0.11-0.08,0.15c-0.04,0.04-0.09,0.05-0.15,0.05
			c-0.07,0-0.13-0.02-0.18-0.07S48.2,10,48.2,9.91c0-0.06,0.01-0.11,0.03-0.15s0.05-0.08,0.09-0.1c0.04-0.02,0.08-0.03,0.13-0.03
			c0.06,0,0.11,0.01,0.15,0.04c0.04,0.03,0.06,0.07,0.07,0.13l-0.09,0.01c-0.01-0.04-0.02-0.06-0.05-0.08
			C48.5,9.71,48.48,9.7,48.45,9.7c-0.05,0-0.08,0.02-0.11,0.05c-0.03,0.03-0.04,0.09-0.04,0.16c0,0.07,0.01,0.13,0.04,0.16
			c0.03,0.03,0.06,0.05,0.11,0.05c0.04,0,0.07-0.01,0.09-0.03S48.57,10.03,48.58,9.98z"/>
		<path class="st6" d="M48.95,10.1l0.01,0.08c-0.03,0.01-0.05,0.01-0.07,0.01c-0.03,0-0.06,0-0.08-0.02s-0.03-0.02-0.04-0.04
			c-0.01-0.02-0.01-0.05-0.01-0.11V9.71H48.7V9.63h0.07V9.5l0.09-0.05v0.19h0.09v0.07h-0.09v0.32c0,0.03,0,0.04,0,0.05
			c0,0.01,0.01,0.01,0.02,0.02c0.01,0,0.02,0.01,0.03,0.01C48.92,10.1,48.93,10.1,48.95,10.1z"/>
		<path class="st6" d="M49.01,9.91c0-0.1,0.03-0.17,0.08-0.22c0.05-0.04,0.1-0.06,0.17-0.06c0.08,0,0.14,0.02,0.18,0.07
			s0.07,0.12,0.07,0.2c0,0.07-0.01,0.13-0.03,0.17s-0.05,0.07-0.09,0.09c-0.04,0.02-0.08,0.03-0.13,0.03
			c-0.08,0-0.14-0.02-0.18-0.07C49.03,10.07,49.01,10,49.01,9.91z M49.1,9.91c0,0.07,0.02,0.12,0.05,0.16
			c0.03,0.03,0.07,0.05,0.11,0.05s0.08-0.02,0.11-0.05c0.03-0.03,0.05-0.09,0.05-0.16c0-0.07-0.02-0.12-0.05-0.15
			c-0.03-0.03-0.07-0.05-0.11-0.05c-0.05,0-0.08,0.02-0.11,0.05S49.1,9.84,49.1,9.91z"/>
		<path class="st6" d="M50.14,10.18l-0.29-0.75h0.11l0.2,0.55c0.02,0.04,0.03,0.08,0.04,0.12c0.01-0.04,0.03-0.08,0.04-0.12
			l0.2-0.55h0.1l-0.29,0.75H50.14z"/>
		<path class="st6" d="M50.9,10.39l-0.01-0.09c0.02,0.01,0.04,0.01,0.05,0.01c0.02,0,0.04,0,0.05-0.01
			c0.01-0.01,0.02-0.02,0.03-0.03c0.01-0.01,0.02-0.03,0.03-0.07c0,0,0-0.01,0.01-0.02l-0.21-0.55h0.1l0.11,0.32
			c0.01,0.04,0.03,0.08,0.04,0.13c0.01-0.04,0.02-0.08,0.04-0.12l0.12-0.32h0.09l-0.21,0.55c-0.02,0.06-0.04,0.1-0.05,0.12
			c-0.02,0.03-0.04,0.05-0.06,0.07c-0.02,0.01-0.05,0.02-0.08,0.02C50.95,10.4,50.93,10.4,50.9,10.39z"/>
		<path class="st6" d="M51.95,10.18l-0.29-0.75h0.11l0.2,0.55c0.02,0.04,0.03,0.08,0.04,0.12c0.01-0.04,0.02-0.08,0.04-0.12
			l0.2-0.55h0.1l-0.29,0.75H51.95z"/>
		<path class="st6" d="M52.45,10.18V9.43h0.1v0.75H52.45z"/>
	</g>
</g>
<g>
	<rect x="74.19" y="8.87" class="st4" width="10.85" height="1.77"/>
	<g class="st5">
		<path class="st6" d="M74.33,10.13V9.38h0.28c0.05,0,0.09,0,0.11,0.01c0.04,0.01,0.07,0.02,0.09,0.04
			c0.03,0.02,0.04,0.04,0.06,0.07c0.01,0.03,0.02,0.07,0.02,0.1c0,0.06-0.02,0.12-0.06,0.16c-0.04,0.04-0.11,0.07-0.22,0.07h-0.19
			v0.31H74.33z M74.43,9.73h0.19c0.06,0,0.11-0.01,0.14-0.04c0.03-0.02,0.04-0.06,0.04-0.1c0-0.03-0.01-0.06-0.02-0.08
			c-0.02-0.02-0.04-0.04-0.06-0.04c-0.02,0-0.05-0.01-0.09-0.01h-0.19V9.73z"/>
		<path class="st6" d="M75.02,10.13V9.58h0.08v0.08c0.02-0.04,0.04-0.06,0.06-0.08c0.02-0.01,0.04-0.02,0.06-0.02
			c0.03,0,0.06,0.01,0.09,0.03l-0.03,0.09c-0.02-0.01-0.04-0.02-0.07-0.02c-0.02,0-0.04,0.01-0.05,0.02
			c-0.02,0.01-0.03,0.03-0.03,0.05c-0.01,0.03-0.02,0.07-0.02,0.11v0.29H75.02z"/>
		<path class="st6" d="M75.33,9.86c0-0.1,0.03-0.17,0.08-0.22c0.05-0.04,0.1-0.06,0.17-0.06c0.08,0,0.14,0.02,0.18,0.07
			c0.05,0.05,0.07,0.12,0.07,0.2c0,0.07-0.01,0.13-0.03,0.17c-0.02,0.04-0.05,0.07-0.09,0.09c-0.04,0.02-0.08,0.03-0.13,0.03
			c-0.08,0-0.14-0.02-0.18-0.07C75.36,10.02,75.33,9.95,75.33,9.86z M75.43,9.86c0,0.07,0.01,0.12,0.04,0.16
			c0.03,0.03,0.07,0.05,0.12,0.05s0.08-0.02,0.11-0.05c0.03-0.03,0.05-0.09,0.05-0.16c0-0.07-0.02-0.12-0.05-0.15
			c-0.03-0.03-0.07-0.05-0.11-0.05c-0.05,0-0.08,0.02-0.12,0.05S75.43,9.79,75.43,9.86z"/>
		<path class="st6" d="M75.95,10.34l-0.01-0.09c0.02,0.01,0.04,0.01,0.05,0.01c0.02,0,0.04,0,0.05-0.01
			c0.01-0.01,0.02-0.02,0.03-0.03c0.01-0.01,0.02-0.03,0.03-0.07c0,0,0-0.01,0.01-0.02L75.9,9.58H76l0.11,0.32
			c0.01,0.04,0.03,0.08,0.04,0.13c0.01-0.04,0.02-0.08,0.04-0.12l0.12-0.32h0.09l-0.21,0.55c-0.02,0.06-0.04,0.1-0.05,0.12
			c-0.02,0.03-0.04,0.05-0.06,0.07c-0.02,0.01-0.05,0.02-0.08,0.02C75.99,10.35,75.97,10.35,75.95,10.34z"/>
		<path class="st6" d="M76.85,9.95l0.1,0.01c-0.01,0.06-0.04,0.1-0.08,0.13c-0.04,0.03-0.09,0.05-0.16,0.05
			c-0.08,0-0.14-0.03-0.19-0.07s-0.07-0.12-0.07-0.21c0-0.09,0.02-0.16,0.07-0.21c0.05-0.05,0.11-0.08,0.18-0.08
			c0.07,0,0.13,0.02,0.18,0.07s0.07,0.12,0.07,0.21c0,0.01,0,0.01,0,0.02h-0.41c0,0.06,0.02,0.11,0.05,0.14
			c0.03,0.03,0.07,0.05,0.11,0.05c0.03,0,0.06-0.01,0.09-0.03C76.82,10.02,76.83,9.99,76.85,9.95z M76.55,9.81h0.3
			c0-0.05-0.02-0.08-0.03-0.1c-0.03-0.04-0.07-0.05-0.11-0.05c-0.04,0-0.08,0.01-0.11,0.04C76.57,9.72,76.55,9.76,76.55,9.81z"/>
		<path class="st6" d="M77.42,9.93l0.09,0.01c-0.01,0.06-0.04,0.11-0.08,0.15s-0.09,0.05-0.15,0.05c-0.07,0-0.13-0.02-0.18-0.07
			c-0.05-0.05-0.07-0.12-0.07-0.21c0-0.06,0.01-0.11,0.03-0.15s0.05-0.08,0.09-0.1c0.04-0.02,0.08-0.03,0.13-0.03
			c0.06,0,0.11,0.01,0.15,0.04c0.04,0.03,0.06,0.07,0.07,0.13l-0.09,0.01c-0.01-0.04-0.02-0.06-0.04-0.08
			c-0.02-0.02-0.05-0.03-0.08-0.03c-0.05,0-0.08,0.02-0.11,0.05s-0.04,0.09-0.04,0.16c0,0.07,0.01,0.13,0.04,0.16
			c0.03,0.03,0.07,0.05,0.11,0.05c0.04,0,0.07-0.01,0.09-0.03S77.41,9.98,77.42,9.93z"/>
		<path class="st6" d="M77.79,10.05l0.01,0.08c-0.03,0.01-0.05,0.01-0.07,0.01c-0.03,0-0.06,0-0.08-0.02s-0.03-0.02-0.04-0.04
			c-0.01-0.02-0.01-0.05-0.01-0.11V9.66h-0.07V9.58h0.07V9.45l0.09-0.05v0.19h0.09v0.07h-0.09v0.32c0,0.03,0,0.04,0,0.05
			c0,0.01,0.01,0.01,0.02,0.02c0.01,0,0.02,0.01,0.03,0.01C77.76,10.05,77.77,10.05,77.79,10.05z"/>
		<path class="st6" d="M77.84,9.86c0-0.1,0.03-0.17,0.08-0.22c0.05-0.04,0.1-0.06,0.17-0.06c0.08,0,0.14,0.02,0.18,0.07
			c0.05,0.05,0.07,0.12,0.07,0.2c0,0.07-0.01,0.13-0.03,0.17c-0.02,0.04-0.05,0.07-0.09,0.09c-0.04,0.02-0.08,0.03-0.13,0.03
			c-0.08,0-0.14-0.02-0.18-0.07C77.87,10.02,77.84,9.95,77.84,9.86z M77.94,9.86c0,0.07,0.01,0.12,0.04,0.16
			c0.03,0.03,0.07,0.05,0.12,0.05s0.08-0.02,0.11-0.05c0.03-0.03,0.05-0.09,0.05-0.16c0-0.07-0.02-0.12-0.05-0.15
			c-0.03-0.03-0.07-0.05-0.11-0.05c-0.05,0-0.08,0.02-0.12,0.05S77.94,9.79,77.94,9.86z"/>
		<path class="st6" d="M79.11,10.13v-0.07c-0.04,0.05-0.08,0.08-0.15,0.08c-0.04,0-0.08-0.01-0.12-0.04
			c-0.04-0.02-0.06-0.06-0.08-0.1c-0.02-0.04-0.03-0.09-0.03-0.15c0-0.05,0.01-0.1,0.03-0.15c0.02-0.04,0.04-0.08,0.08-0.1
			s0.08-0.04,0.12-0.04c0.03,0,0.06,0.01,0.09,0.02c0.03,0.01,0.05,0.03,0.06,0.05V9.38h0.09v0.75H79.11z M78.81,9.86
			c0,0.07,0.01,0.12,0.04,0.16c0.03,0.03,0.06,0.05,0.1,0.05s0.07-0.02,0.1-0.05c0.03-0.03,0.04-0.08,0.04-0.15
			c0-0.08-0.01-0.13-0.04-0.16C79.04,9.67,79,9.65,78.96,9.65c-0.04,0-0.08,0.02-0.1,0.05C78.83,9.73,78.81,9.79,78.81,9.86z"/>
		<path class="st6" d="M79.71,9.95l0.09,0.01c-0.01,0.06-0.04,0.1-0.08,0.13c-0.04,0.03-0.09,0.05-0.16,0.05
			c-0.08,0-0.14-0.03-0.19-0.07c-0.05-0.05-0.07-0.12-0.07-0.21c0-0.09,0.02-0.16,0.07-0.21c0.05-0.05,0.11-0.08,0.18-0.08
			c0.07,0,0.13,0.02,0.18,0.07c0.05,0.05,0.07,0.12,0.07,0.21c0,0.01,0,0.01,0,0.02H79.4c0,0.06,0.02,0.11,0.05,0.14
			c0.03,0.03,0.07,0.05,0.11,0.05c0.03,0,0.06-0.01,0.09-0.03C79.68,10.02,79.69,9.99,79.71,9.95z M79.41,9.81h0.3
			c0-0.05-0.02-0.08-0.04-0.1c-0.03-0.04-0.07-0.05-0.11-0.05c-0.04,0-0.08,0.01-0.11,0.04C79.42,9.72,79.41,9.76,79.41,9.81z"/>
		<path class="st6" d="M80.4,10.13V9.47h-0.25V9.38h0.6v0.09H80.5v0.66H80.4z"/>
		<path class="st6" d="M80.8,9.48V9.38h0.09v0.11H80.8z M80.8,10.13V9.58h0.09v0.55H80.8z"/>
		<path class="st6" d="M81.23,10.05l0.01,0.08c-0.03,0.01-0.05,0.01-0.07,0.01c-0.03,0-0.06,0-0.08-0.02s-0.03-0.02-0.04-0.04
			c-0.01-0.02-0.01-0.05-0.01-0.11V9.66h-0.07V9.58h0.07V9.45l0.09-0.05v0.19h0.09v0.07h-0.09v0.32c0,0.03,0,0.04,0,0.05
			c0,0.01,0.01,0.01,0.02,0.02c0.01,0,0.02,0.01,0.03,0.01C81.2,10.05,81.21,10.05,81.23,10.05z"/>
		<path class="st6" d="M81.68,10.13v-0.08c-0.04,0.06-0.1,0.09-0.17,0.09c-0.03,0-0.06-0.01-0.09-0.02
			c-0.03-0.01-0.05-0.03-0.06-0.05s-0.02-0.04-0.03-0.07c0-0.02-0.01-0.05-0.01-0.09V9.58h0.09v0.3c0,0.05,0,0.08,0,0.1
			c0.01,0.02,0.02,0.04,0.04,0.06s0.04,0.02,0.07,0.02c0.03,0,0.05-0.01,0.08-0.02c0.02-0.01,0.04-0.03,0.05-0.06
			c0.01-0.02,0.02-0.06,0.02-0.11V9.58h0.09v0.55H81.68z"/>
		<path class="st6" d="M81.9,10.13V9.38H82v0.75H81.9z"/>
		<path class="st6" d="M82.1,9.86c0-0.1,0.03-0.17,0.08-0.22c0.05-0.04,0.1-0.06,0.17-0.06c0.08,0,0.14,0.02,0.18,0.07
			c0.05,0.05,0.07,0.12,0.07,0.2c0,0.07-0.01,0.13-0.03,0.17c-0.02,0.04-0.05,0.07-0.09,0.09c-0.04,0.02-0.08,0.03-0.13,0.03
			c-0.08,0-0.14-0.02-0.18-0.07C82.13,10.02,82.1,9.95,82.1,9.86z M82.2,9.86c0,0.07,0.02,0.12,0.05,0.16
			c0.03,0.03,0.07,0.05,0.11,0.05s0.08-0.02,0.11-0.05c0.03-0.03,0.05-0.09,0.05-0.16c0-0.07-0.01-0.12-0.05-0.15
			c-0.03-0.03-0.07-0.05-0.11-0.05s-0.08,0.02-0.11,0.05S82.2,9.79,82.2,9.86z"/>
		<path class="st6" d="M83.04,10.13V9.38h0.1v0.75H83.04z"/>
		<path class="st6" d="M83.59,10.34l-0.01-0.09c0.02,0.01,0.04,0.01,0.05,0.01c0.02,0,0.04,0,0.05-0.01
			c0.01-0.01,0.02-0.02,0.03-0.03c0.01-0.01,0.01-0.03,0.03-0.07c0,0,0-0.01,0.01-0.02l-0.21-0.55h0.1l0.11,0.32
			c0.01,0.04,0.03,0.08,0.04,0.13c0.01-0.04,0.02-0.08,0.04-0.12l0.12-0.32h0.09l-0.21,0.55c-0.02,0.06-0.04,0.1-0.05,0.12
			c-0.02,0.03-0.04,0.05-0.06,0.07c-0.02,0.01-0.05,0.02-0.08,0.02C83.63,10.35,83.61,10.35,83.59,10.34z"/>
		<path class="st6" d="M84.44,10.13V9.38h0.1v0.75H84.44z"/>
		<path class="st6" d="M84.73,10.13V9.38h0.1v0.75H84.73z"/>
	</g>
</g>
</svg>
