<?xml version="1.0" encoding="utf-8"?>
<!-- Generator: Adobe Illustrator 27.9.3, SVG Export Plug-In . SVG Version: 9.03 Build 53313)  -->
<svg version="1.1" id="Capa_1" xmlns="http://www.w3.org/2000/svg" xmlns:xlink="http://www.w3.org/1999/xlink" x="0px" y="0px"
	 viewBox="0 0 100 32.83" style="enable-background:new 0 0 100 32.83;" xml:space="preserve">
<style type="text/css">
	.st0{fill:#FFE7B6;}
	.st1{fill:#FFA300;}
	.st2{fill:#FFD3CC;}
	.st3{fill:#FF5432;}
	.st4{font-family:'Arial-BoldMT';}
	.st5{font-size:1.5px;}
	.st6{font-family:'ArialMT';}
	.st7{font-size:1px;}
	.st8{fill:#D1CFE8;}
	.st9{fill:#393F95;}
	.st10{fill:none;stroke:#1D1D1B;stroke-width:0.5;stroke-miterlimit:10;}
	.st11{font-size:2px;}
	.st12{font-family:'Arial-ItalicMT';}
</style>
<g>
	<rect x="35.43" y="10.97" class="st0" width="30.15" height="8.59"/>
	<rect x="35.43" y="18.64" class="st1" width="30.15" height="1.28"/>
</g>
<g>
	<rect x="69.85" y="10.98" class="st2" width="30.15" height="8.59"/>
	<rect x="69.85" y="18.65" class="st3" width="30.15" height="1.28"/>
</g>
<g>
	<rect x="-0.01" y="10.98" class="st2" width="30.15" height="8.59"/>
	<rect x="-0.01" y="18.65" class="st3" width="30.15" height="1.28"/>
</g>
<text transform="matrix(1 0 0 1 46.1649 15.793)" class="st4 st5">Proyecto VII</text>
<text transform="matrix(1 0 0 1 77.9714 15.8042)" class="st4 st5">Proyecto de Título I</text>
<g>
	<rect x="21.33" y="29.47" class="st0" width="2" height="1.92"/>
	<rect x="21.33" y="31.19" class="st1" width="2" height="0.29"/>
</g>
<text transform="matrix(1.1 0 0 1 24.0107 30.8627)" class="st6 st7">Mención industrial y servicios</text>
<g>
	<g>
		<rect x="40.8" y="29.43" class="st8" width="2" height="1.92"/>
		<rect x="40.8" y="31.14" class="st9" width="2" height="0.29"/>
	</g>
	<text transform="matrix(1.1 0 0 1 43.521 30.8432)" class="st6 st7">Mención visualidad y medios</text>
</g>
<g>
	<g>
		<rect x="60.12" y="29.53" class="st2" width="2" height="1.92"/>
		<rect x="60.12" y="31.25" class="st3" width="2" height="0.29"/>
	</g>
	<text transform="matrix(1.1 0 0 1 62.8408 30.8432)" class="st6 st7">Ambas menciones</text>
</g>
<g>
	<text transform="matrix(1.1 0 0 1 11.271 30.8627)" class="st6 st7">Electivo troncal</text>
	<text transform="matrix(1 0 0 1 8.64 31.043)" class="st4 st5">E</text>
	<text transform="matrix(1 0 0 1 9.64 31.043)" class="st4 st5">T</text>
	<text transform="matrix(1 0 0 1 10.39 31.043)" class="st4 st5">.</text>
</g>
<g>
	<text transform="matrix(1.1 0 0 1 2.3311 30.8627)" class="st6 st7">Electivo</text>
	<text transform="matrix(1 0 0 1 -0.01 31.043)" class="st4 st5">E.</text>
</g>
<g id="Línea">
	<g>
		<line class="st10" x1="15.07" y1="22.59" x2="15.07" y2="19.79"/>
		<line class="st10" x1="0" y1="19.92" x2="100" y2="19.92"/>
		<line class="st10" x1="50" y1="22.71" x2="50" y2="19.92"/>
		<line class="st10" x1="84.93" y1="22.71" x2="84.93" y2="19.92"/>
	</g>
	<text transform="matrix(1 0 0 1 10.28 25.143)" class="st6 st11">Ciclo básico</text>
	<text transform="matrix(1 0 0 1 13.34 27.143)" class="st12 st11">I a IV</text>
	<text transform="matrix(1 0 0 1 41.37 25.053)" class="st6 st11">Ciclo Especializado</text>
	<text transform="matrix(1 0 0 1 46.76 27.053)" class="st12 st11">V a VIII</text>
	<text transform="matrix(1 0 0 1 77.53 25.033)" class="st6 st11">Ciclo profesional</text>
	<text transform="matrix(1 0 0 1 82.2 27.033)" class="st12 st11">IX a X</text>
</g>
<text transform="matrix(1 0 0 1 6.5267 15.8042)" class="st4 st5">Procesos y prototipos II</text>
</svg>
