<?xml version="1.0" encoding="UTF-8"?>
<svg id="Capa_1" data-name="Capa 1" xmlns="http://www.w3.org/2000/svg" viewBox="0 0 100 30">
  <defs>
    <style>
      .cls-1, .cls-2, .cls-3, .cls-4, .cls-5, .cls-6, .cls-7, .cls-8, .cls-9, .cls-10, .cls-11 {
        isolation: isolate;
      }

      .cls-1, .cls-7 {
        font-family: Arial-BoldMT, Arial;
        font-size: 1.5px;
        font-weight: 700;
      }

      .cls-12, .cls-13 {
        fill: none;
      }

      .cls-2, .cls-10 {
        opacity: .5;
      }

      .cls-2, .cls-14 {
        fill: #da4f40;
      }

      .cls-4, .cls-5, .cls-6, .cls-9, .cls-11 {
        font-family: ArialMT, Arial;
      }

      .cls-4, .cls-8 {
        font-size: 2px;
      }

      .cls-5 {
        fill: #fff;
      }

      .cls-5, .cls-6, .cls-9, .cls-11 {
        font-size: 1px;
      }

      .cls-15 {
        letter-spacing: -.08em;
      }

      .cls-6 {
        fill: #444;
      }

      .cls-16 {
        letter-spacing: -.02em;
      }

      .cls-7 {
        letter-spacing: -.02em;
      }

      .cls-8 {
        font-family: Arial-ItalicMT, Arial;
        font-style: italic;
      }

      .cls-9 {
        fill: #1d1d1b;
      }

      .cls-10, .cls-17 {
        fill: #f7ce65;
      }

      .cls-13 {
        stroke: #1d1d1b;
        stroke-miterlimit: 10;
        stroke-width: .5px;
      }
    </style>
  </defs>
  <g id="Cuadros">
    <g>
      <rect class="cls-10" x="69.84" y="9.77" width="30.15" height="8.25"/>
      <rect class="cls-17" x="69.84" y="17.22" width="30.15" height="1.49"/>
    </g>
    <g>
      <rect class="cls-10" x="34.93" y="9.77" width="30.15" height="8.24"/>
      <rect class="cls-17" x="34.93" y="17.22" width="30.15" height="1.49"/>
    </g>
    <g class="cls-3">
      <text class="cls-1" transform="translate(40.25 13.27)"><tspan x="0" y="0">Seminario de Licenciatura I </tspan></text>
      <text class="cls-6" transform="translate(44.72 14.77)"><tspan x="0" y="0">(Primer semestre-2025)</tspan></text>
    </g>
    <g class="cls-3">
      <text class="cls-1" transform="translate(78.17 13.3)"><tspan x="0" y="0">Proyecto de </tspan></text>
      <text class="cls-7" transform="translate(87.17 13.3)"><tspan x="0" y="0">T</tspan></text>
      <text class="cls-1" transform="translate(88.06 13.3)"><tspan x="0" y="0">itulo I</tspan></text>
      <text class="cls-6" transform="translate(79.84 14.8)"><tspan x="0" y="0">(Primer semestre-2025)</tspan></text>
    </g>
    <g>
      <g>
        <rect class="cls-10" x="34.93" y="0" width="30.15" height="8.2"/>
        <rect class="cls-17" x="34.93" y="7.43" width="30.15" height="1.5"/>
      </g>
      <g class="cls-3">
        <text class="cls-1" transform="translate(44.22 3.5)"><tspan x="0" y="0">Práctica Laboral</tspan></text>
        <text class="cls-6" transform="translate(38.77 5)"><tspan x="0" y="0">(Segundo semestre-2024 y Primer semestre-2025)</tspan></text>
      </g>
      <g class="cls-3">
        <text class="cls-9" transform="translate(47.41 8.49)"><tspan class="cls-16" x="0" y="0">(</tspan><tspan class="cls-15" x=".31" y="0">A</tspan></text>
        <text class="cls-9" transform="translate(48.28 8.49)"><tspan x="0" y="0">UD8I002)</tspan></text>
      </g>
    </g>
    <g>
      <rect class="cls-10" x="69.84" y="0" width="30.15" height="8.25"/>
      <rect class="cls-17" x="69.84" y="7.44" width="30.15" height="1.49"/>
    </g>
    <g class="cls-3">
      <text class="cls-1" transform="translate(77.9 3.52)"><tspan x="0" y="0">Práctica Profesional</tspan></text>
      <text class="cls-6" transform="translate(73.83 5.02)"><tspan x="0" y="0">(Segundo semestre-2024 y Primer semestre-2025)</tspan></text>
    </g>
    <g class="cls-3">
      <text class="cls-9" transform="translate(81.86 8.54)"><tspan class="cls-16" x="0" y="0">(</tspan><tspan class="cls-15" x=".31" y="0">A</tspan></text>
      <text class="cls-9" transform="translate(82.73 8.54)"><tspan x="0" y="0">UD9I002)</tspan></text>
    </g>
    <g class="cls-3">
      <text class="cls-9" transform="translate(47.46 18.25)"><tspan class="cls-16" x="0" y="0">(</tspan><tspan class="cls-15" x=".31" y="0">A</tspan></text>
      <text class="cls-9" transform="translate(48.33 18.25)"><tspan x="0" y="0">UD7I002)</tspan></text>
    </g>
    <g class="cls-3">
      <text class="cls-9" transform="translate(82.43 18.25)"><tspan class="cls-16" x="0" y="0">(</tspan><tspan class="cls-15" x=".31" y="0">A</tspan></text>
      <text class="cls-9" transform="translate(83.3 18.25)"><tspan x="0" y="0">UD9I001)</tspan></text>
    </g>
    <g>
      <rect class="cls-2" y="9.77" width="30.15" height="8.24"/>
      <rect class="cls-14" y="17.22" width="30.15" height="1.49"/>
    </g>
    <g class="cls-3">
      <text class="cls-1" transform="translate(10.92 13.27)"><tspan x="0" y="0">Proyecto IV</tspan></text>
      <text class="cls-6" transform="translate(3.76 14.77)"><tspan x="0" y="0">(Segundo semestre-2024 y Primer semestre-2025)</tspan></text>
    </g>
    <g class="cls-3">
      <text class="cls-5" transform="translate(12.4 18.24)"><tspan class="cls-16" x="0" y="0">(</tspan><tspan class="cls-15" x=".31" y="0">A</tspan></text>
      <text class="cls-5" transform="translate(13.27 18.24)"><tspan x="0" y="0">UD40001)</tspan></text>
    </g>
    <g>
      <rect class="cls-12" y="-.03" width="30.15" height="8.24"/>
      <rect class="cls-12" y="7.42" width="30.15" height="1.49"/>
    </g>
  </g>
  <g>
    <line class="cls-13" x1="15.07" y1="21.62" x2="15.07" y2="18.82"/>
    <line class="cls-13" y1="18.95" x2="100" y2="18.95"/>
    <line class="cls-13" x1="50" y1="21.74" x2="50" y2="18.95"/>
    <line class="cls-13" x1="84.93" y1="21.74" x2="84.93" y2="18.95"/>
  </g>
  <g class="cls-3">
    <text class="cls-4" transform="translate(10.28 23.81)"><tspan x="0" y="0">Ciclo básico</tspan></text>
    <text class="cls-8" transform="translate(8.78 25.81)"><tspan x="0" y="0">Semestre I a IV</tspan></text>
  </g>
  <g class="cls-3">
    <text class="cls-4" transform="translate(41.33 23.85)"><tspan x="0" y="0">Ciclo Especializado</tspan></text>
    <text class="cls-8" transform="translate(42.16 25.85)"><tspan x="0" y="0">Semestre V a VIII</tspan></text>
  </g>
  <g class="cls-3">
    <text class="cls-4" transform="translate(77.42 23.84)"><tspan x="0" y="0">Ciclo Profesional</tspan></text>
    <text class="cls-8" transform="translate(77.64 25.84)"><tspan x="0" y="0">Semestre IX a X</tspan></text>
  </g>
  <g>
    <g id="Simbología">
      <g>
        <g>
          <rect class="cls-2" x="18.97" y="28" width="2" height="1.92"/>
          <rect class="cls-14" x="18.97" y="29.71" width="2" height=".29"/>
        </g>
        <g class="cls-3">
          <text class="cls-11" transform="translate(21.69 29.37) scale(1.1 1)"><tspan x="0" y="0">Ambas menciones</tspan></text>
        </g>
      </g>
    </g>
    <g>
      <rect class="cls-10" y="27.95" width="2" height="1.92"/>
      <rect class="cls-17" y="29.67" width="2" height=".29"/>
    </g>
    <g class="cls-3">
      <text class="cls-11" transform="translate(2.68 29.34) scale(1.1 1)"><tspan x="0" y="0">Mención industrial y servicios</tspan></text>
    </g>
  </g>
</svg>