<?xml version="1.0" encoding="utf-8"?>
<!-- Generator: Adobe Illustrator 28.0.0, SVG Export Plug-In . SVG Version: 6.00 Build 0)  -->
<svg version="1.1" id="Capa_1" xmlns="http://www.w3.org/2000/svg" xmlns:xlink="http://www.w3.org/1999/xlink" x="0px" y="0px"
	 viewBox="0 0 100 20" style="enable-background:new 0 0 100 20;" xml:space="preserve">
<style type="text/css">
	.st0{fill:#FFD3CA;}
	.st1{fill:#FF3C00;}
	.st2{fill:none;}
	.st3{font-family:'Arial-BoldMT';}
	.st4{font-size:1.4887px;}
	.st5{fill:#9F9FFF;}
	.st6{fill:#00007F;}
	.st7{font-family:'ArialMT';}
	.st8{font-size:1.3136px;}
	.st9{font-size:0.7px;}
	.st10{fill:#CACAFF;}
</style>
<g>
	<rect x="77.5" y="9.2" class="st0" width="18.4" height="4.9"/>
	<rect x="77.5" y="13.9" class="st1" width="18.4" height="0.9"/>
</g>
<g>
	<rect x="3.3" y="9.3" class="st0" width="18.4" height="4.9"/>
	<rect x="3.3" y="13.9" class="st1" width="18.4" height="0.9"/>
</g>
<g>
	<rect x="41.1" y="9.3" class="st0" width="18.4" height="4.9"/>
	<rect x="41.1" y="13.9" class="st1" width="18.4" height="0.9"/>
</g>
<rect x="86.3" y="14.9" width="0.9" height="1.4"/>
<rect x="49.8" y="14.8" width="0.9" height="1.4"/>
<rect x="12.1" y="14.8" width="0.9" height="1.4"/>
<rect x="6.3" y="16.5" class="st2" width="13.4" height="3.3"/>
<text transform="matrix(1 0 0 1 8.581 17.6136)"><tspan x="0" y="0" class="st3 st4">Ciclo básico</tspan><tspan x="2.6" y="1.8" class="st3 st4">I a IV</tspan></text>
<rect x="43.5" y="16.7" class="st2" width="14.4" height="3.3"/>
<text transform="matrix(1 0 0 1 43.8119 17.7243)"><tspan x="0" y="0" class="st3 st4">Ciclo especializado</tspan><tspan x="4.4" y="1.8" class="st3 st4">V a VIII</tspan></text>
<rect x="79.8" y="16.7" class="st2" width="14.4" height="3.3"/>
<text transform="matrix(1 0 0 1 80.9679 17.7243)"><tspan x="0" y="0" class="st3 st4">Ciclo profesional</tspan><tspan x="4.2" y="1.8" class="st3 st4">IXa X</tspan></text>
<rect y="14.8" width="100" height="0.7"/>
<rect x="4.6" y="10.7" class="st2" width="16.1" height="2.3"/>
<text transform="matrix(1 0 0 1 5.1338 11.6068)"><tspan x="0" y="0" class="st7 st8">Teoría y critica del diseño</tspan><tspan x="5.8" y="0.8" class="st7 st9">AUD20002</tspan></text>
<rect x="47" y="10.6" class="st2" width="6.5" height="2.6"/>
<text transform="matrix(1 0 0 1 47.0267 11.5597)"><tspan x="0" y="0" class="st7 st8">Proyecto V</tspan><tspan x="1.5" y="0.8" class="st7 st9">AUD5V001</tspan></text>
<rect x="80.1" y="10.6" class="st2" width="13.9" height="2.9"/>
<text transform="matrix(1 0 0 1 81.3109 11.5016)"><tspan x="0" y="0" class="st7 st8">Proyecto de Título I</tspan><tspan x="3.9" y="0.8" class="st7 st9">AUD9V001</tspan></text>
</svg>
