<?xml version="1.0" encoding="UTF-8"?>
<svg id="Capa_1" data-name="Capa 1" xmlns="http://www.w3.org/2000/svg" viewBox="0 0 100 20">
  <defs>
    <style>
      .cls-1 {
        font-size: 1.31px;
      }

      .cls-2 {
        font-family: Arial-BoldMT, Arial;
        font-size: 1.49px;
        font-weight: 700;
      }

      .cls-3, .cls-4, .cls-5 {
        stroke-width: 0px;
      }

      .cls-6 {
        letter-spacing: -.11em;
      }

      .cls-7 {
        font-size: .7px;
      }

      .cls-8 {
        font-family: ArialMT, Arial;
      }

      .cls-9 {
        letter-spacing: -.02em;
      }

      .cls-4 {
        fill: #ff3c00;
      }

      .cls-5 {
        fill: #ffd3ca;
      }
    </style>
  </defs>
  <g>
    <rect class="cls-5" x="77.53" y="9.24" width="18.36" height="4.89"/>
    <rect class="cls-4" x="77.53" y="13.87" width="18.36" height=".92"/>
  </g>
  <g>
    <rect class="cls-5" x="3.35" y="9.25" width="18.36" height="4.89"/>
    <rect class="cls-4" x="3.35" y="13.88" width="18.36" height=".92"/>
  </g>
  <g>
    <rect class="cls-5" x="41.06" y="9.25" width="18.36" height="4.89"/>
    <rect class="cls-4" x="41.06" y="13.88" width="18.36" height=".92"/>
  </g>
  <rect class="cls-3" x="86.27" y="14.94" width=".88" height="1.39"/>
  <rect class="cls-3" x="49.8" y="14.8" width=".88" height="1.39"/>
  <rect class="cls-3" x="12.09" y="14.8" width=".88" height="1.39"/>
  <text class="cls-2" transform="translate(8.58 17.61)"><tspan x="0" y="0">Ciclo básico</tspan><tspan x="2.65" y="1.79">I a IV</tspan></text>
  <text class="cls-2" transform="translate(43.81 17.72)"><tspan x="0" y="0">Ciclo especializado</tspan><tspan x="4.43" y="1.79">V a VIII</tspan></text>
  <text class="cls-2" transform="translate(80.97 17.72)"><tspan x="0" y="0">Ciclo profesional</tspan><tspan x="4.22" y="1.79">IXa X</tspan></text>
  <rect class="cls-3" y="14.75" width="100" height=".74"/>
  <text class="cls-8" transform="translate(5.21 11.32)"><tspan class="cls-1"><tspan class="cls-6" x="0" y="0">T</tspan><tspan x=".66" y="0">eoría y critica del diseño</tspan></tspan><tspan class="cls-7"><tspan x="5.7" y=".84">AUD20002</tspan></tspan></text>
  <text class="cls-8" transform="translate(47.03 11.28)"><tspan class="cls-1"><tspan x="0" y="0">Proyecto V</tspan></tspan><tspan class="cls-7"><tspan x="1.46" y=".84">AUD5V001</tspan></tspan></text>
  <text class="cls-8" transform="translate(81.04 11.5)"><tspan class="cls-1"><tspan x="0" y="0">Proyecto de</tspan><tspan class="cls-9" x="7.01" y="0"> </tspan><tspan x="7.35" y="0">Título I</tspan></tspan><tspan class="cls-7"><tspan x="3.93" y=".84">AUD9V001</tspan></tspan></text>
</svg>