<?xml version="1.0" encoding="UTF-8"?>
<svg xmlns="http://www.w3.org/2000/svg" version="1.1" viewBox="0 0 100.3 40.6">
  <defs>
    <style>
      .cls-1 {
        fill: #393f95;
      }

      .cls-2 {
        fill: #ff5432;
      }

      .cls-3, .cls-4, .cls-5, .cls-6, .cls-7, .cls-8, .cls-9 {
        isolation: isolate;
      }

      .cls-3, .cls-6, .cls-7 {
        font-family: Arial-BoldMT, Arial;
        font-size: 1.5px;
        font-weight: 700;
      }

      .cls-10, .cls-11 {
        fill: none;
      }

      .cls-5, .cls-8 {
        font-size: 2px;
      }

      .cls-5, .cls-9 {
        font-family: ArialMT, Arial;
      }

      .cls-6 {
        letter-spacing: -.1em;
      }

      .cls-12 {
        fill: #ffa300;
      }

      .cls-7 {
        letter-spacing: 0em;
      }

      .cls-13 {
        fill: #ffe7b6;
      }

      .cls-8 {
        font-family: Arial-ItalicMT, Arial;
        font-style: italic;
      }

      .cls-9 {
        font-size: 1px;
      }

      .cls-11 {
        stroke: #1d1d1b;
        stroke-miterlimit: 10;
        stroke-width: .5px;
      }

      .cls-14 {
        fill: #d1cfe8;
      }

      .cls-15 {
        fill: #ffd3cc;
      }
    </style>
  </defs>
  <!-- Generator: Adobe Illustrator 28.7.7, SVG Export Plug-In . SVG Version: 1.2.0 Build 194)  -->
  <g>
    <g id="Capa_1">
      <g id="Cuadros">
        <g>
          <rect class="cls-15" x="35.7" y="19.9" width="30.1" height="8.6"/>
          <rect class="cls-2" x="35.7" y="27.6" width="30.1" height="1.3"/>
        </g>
        <g>
          <rect class="cls-15" x=".3" y="19.9" width="30.1" height="8.6"/>
          <rect class="cls-2" x=".3" y="27.6" width="30.1" height="1.3"/>
        </g>
        <g>
          <rect class="cls-15" x="70.2" y="19.9" width="30.2" height="8.6"/>
          <rect class="cls-2" x="70.2" y="27.6" width="30.2" height="1.3"/>
        </g>
        <g>
          <rect class="cls-14" x="35.7" y="10.1" width="30.1" height="8.6"/>
          <rect class="cls-1" x="35.7" y="17.8" width="30.1" height="1.3"/>
        </g>
        <g class="cls-4">
          <text class="cls-3" transform="translate(39.3 24.6)"><tspan x="0" y="0">Seminario de Licenciatura I y II</tspan></text>
        </g>
        <g class="cls-4">
          <text class="cls-3" transform="translate(77.1 24.8)"><tspan x="0" y="0">Proyecto de </tspan></text>
          <text class="cls-7" transform="translate(86.1 24.8)"><tspan x="0" y="0">T</tspan></text>
          <text class="cls-3" transform="translate(87 24.8)"><tspan x="0" y="0">itulo I y II</tspan></text>
        </g>
        <g>
          <rect class="cls-10" x="70.2" y="10.1" width="30.2" height="8.6"/>
          <rect class="cls-10" x="70.2" y="17.8" width="30.2" height="1.3"/>
        </g>
        <g>
          <rect class="cls-15" x="35.7" width="30.1" height="8.6"/>
          <rect class="cls-2" x="35.7" y="7.7" width="30.1" height="1.3"/>
        </g>
        <g class="cls-4">
          <text class="cls-3" transform="translate(36.7 4.8)"><tspan x="0" y="0">Métodos de Investigación Cuantitativos</tspan></text>
        </g>
        <g>
          <g>
            <rect class="cls-13" x="21.6" y="38.4" width="2" height="1.9"/>
            <rect class="cls-12" x="21.6" y="40.1" width="2" height=".3"/>
          </g>
          <g class="cls-4">
            <text class="cls-9" transform="translate(24.3 39.8) scale(1.1 1)"><tspan x="0" y="0">Mención industrial y servicios</tspan></text>
          </g>
          <g>
            <rect class="cls-10" x=".4" y="10.1" width="30" height="8.6"/>
            <rect class="cls-10" x=".4" y="17.8" width="30" height="1.3"/>
          </g>
        </g>
        <g>
          <g>
            <rect class="cls-14" x="41.1" y="38.4" width="2" height="1.9"/>
            <rect class="cls-1" x="41.1" y="40.1" width="2" height=".3"/>
          </g>
          <g class="cls-4">
            <text class="cls-9" transform="translate(43.8 39.8) scale(1.1 1)"><tspan x="0" y="0">Mención visualidad y medios</tspan></text>
          </g>
        </g>
        <g>
          <g>
            <rect class="cls-15" x="60.4" y="38.5" width="2" height="1.9"/>
            <rect class="cls-2" x="60.4" y="40.2" width="2" height=".3"/>
          </g>
          <g class="cls-4">
            <text class="cls-9" transform="translate(63.2 39.8) scale(1.1 1)"><tspan x="0" y="0">Ambas menciones</tspan></text>
          </g>
        </g>
        <g>
          <g class="cls-4">
            <text class="cls-9" transform="translate(11.6 39.8) scale(1.1 1)"><tspan x="0" y="0">Electivo troncal</tspan></text>
          </g>
          <g class="cls-4">
            <text class="cls-3" transform="translate(8.9 40)"><tspan x="0" y="0">E</tspan></text>
            <text class="cls-6" transform="translate(9.9 40)"><tspan x="0" y="0">T</tspan></text>
            <text class="cls-3" transform="translate(10.7 40)"><tspan x="0" y="0">.</tspan></text>
          </g>
        </g>
        <g>
          <g class="cls-4">
            <text class="cls-9" transform="translate(2.6 39.8) scale(1.1 1)"><tspan x="0" y="0">Electivo</tspan></text>
          </g>
          <g class="cls-4">
            <text class="cls-3" transform="translate(.3 40)"><tspan x="0" y="0">E.</tspan></text>
          </g>
        </g>
        <g class="cls-4">
          <text class="cls-3" transform="translate(35.8 14.9)"><tspan x="0" y="0">E</tspan></text>
          <text class="cls-6" transform="translate(36.8 14.9)"><tspan x="0" y="0">T</tspan></text>
          <text class="cls-3" transform="translate(37.5 14.9)"><tspan x="0" y="0">. Diseño y </tspan></text>
          <text class="cls-7" transform="translate(45 14.9)"><tspan x="0" y="0">V</tspan></text>
          <text class="cls-3" transform="translate(46 14.9)"><tspan x="0" y="0">isualización de Información</tspan></text>
        </g>
        <g class="cls-4">
          <text class="cls-3" transform="translate(5.5 24.6)"><tspan x="0" y="0">Diseño, Estética y Sociedad</tspan></text>
        </g>
      </g>
      <g id="Línea">
        <g>
          <line class="cls-11" x1="15.4" y1="31.5" x2="15.4" y2="28.7"/>
          <line class="cls-11" x1=".3" y1="28.9" x2="100.3" y2="28.9"/>
          <line class="cls-11" x1="50.3" y1="31.7" x2="50.3" y2="28.9"/>
          <line class="cls-11" x1="85.2" y1="31.7" x2="85.2" y2="28.9"/>
        </g>
        <g class="cls-4">
          <text class="cls-5" transform="translate(10.6 34.1)"><tspan x="0" y="0">Ciclo básico</tspan></text>
          <text class="cls-8" transform="translate(13.7 36.1)"><tspan x="0" y="0">I a IV</tspan></text>
        </g>
        <g class="cls-4">
          <text class="cls-5" transform="translate(41.7 34)"><tspan x="0" y="0">Ciclo Especializado</tspan></text>
          <text class="cls-8" transform="translate(47.1 36)"><tspan x="0" y="0">V a VIII</tspan></text>
        </g>
        <g class="cls-4">
          <text class="cls-5" transform="translate(77.8 34)"><tspan x="0" y="0">Ciclo profesional</tspan></text>
          <text class="cls-8" transform="translate(82.5 36)"><tspan x="0" y="0">IX a X</tspan></text>
        </g>
      </g>
    </g>
  </g>
</svg>