<?xml version="1.0" encoding="UTF-8"?>
<svg xmlns="http://www.w3.org/2000/svg" viewBox="0 0 100.31 20.64">
  <defs>
    <style>
      .cls-1 {
        font-size: 1px;
      }

      .cls-1, .cls-2 {
        font-family: ArialMT, Arial;
      }

      .cls-3 {
        fill: #393f95;
      }

      .cls-4, .cls-5 {
        fill: #ff5432;
      }

      .cls-4, .cls-6 {
        stroke: #1d1d1b;
        stroke-miterlimit: 10;
        stroke-width: .5px;
      }

      .cls-7 {
        fill: #ffa300;
      }

      .cls-8 {
        letter-spacing: -.11em;
      }

      .cls-9 {
        fill: #ffe7b6;
      }

      .cls-10 {
        font-family: Arial-BoldMT, Arial;
        font-size: 1.5px;
        font-weight: 700;
      }

      .cls-11 {
        font-family: Arial-ItalicMT, Arial;
        font-style: italic;
      }

      .cls-6 {
        fill: none;
      }

      .cls-12 {
        font-size: 2px;
      }

      .cls-13 {
        fill: #d1cfe8;
      }

      .cls-14 {
        fill: #ffd3cc;
      }
    </style>
  </defs>
  <g id="Cuadros">
    <g>
      <rect class="cls-14" x="35.69" width="30.15" height="8.59"/>
      <rect class="cls-5" x="35.69" y="7.67" width="30.15" height="1.28"/>
    </g>
    <text class="cls-10" transform="translate(39.76 4.67)"><tspan x="0" y="0">Seminario de Licenciatura I y II</tspan></text>
    <g>
      <rect class="cls-14" x="70.17" y=".02" width="30.15" height="8.59"/>
      <rect class="cls-5" x="70.17" y="7.69" width="30.15" height="1.28"/>
    </g>
    <text class="cls-10" transform="translate(77.03 4.66)"><tspan x="0" y="0">Proyecto de Título I y II</tspan></text>
  </g>
  <g id="Info_lectura" data-name="Info lectura">
    <g>
      <g>
        <g>
          <rect class="cls-9" x="21.65" y="18.51" width="2" height="1.92"/>
          <rect class="cls-7" x="21.65" y="20.22" width="2" height=".29"/>
        </g>
        <text class="cls-1" transform="translate(24.33 19.9) scale(1.1 1)"><tspan x="0" y="0">Mención industrial y servicios</tspan></text>
      </g>
      <g>
        <g>
          <rect class="cls-13" x="41.11" y="18.46" width="2" height="1.92"/>
          <rect class="cls-3" x="41.11" y="20.18" width="2" height=".29"/>
        </g>
        <text class="cls-1" transform="translate(43.83 19.88) scale(1.1 1)"><tspan x="0" y="0">Mención visualidad y medios</tspan></text>
      </g>
      <g>
        <g>
          <rect class="cls-14" x="60.44" y="18.57" width="2" height="1.92"/>
          <rect class="cls-5" x="60.44" y="20.28" width="2" height=".29"/>
        </g>
        <text class="cls-1" transform="translate(63.15 19.87) scale(1.1 1)"><tspan x="0" y="0">Ambas menciones</tspan></text>
      </g>
      <g>
        <text class="cls-1" transform="translate(11.58 19.89) scale(1.1 1)"><tspan x="0" y="0">Electivo troncal</tspan></text>
        <text class="cls-10" transform="translate(8.95 20.08)"><tspan x="0" y="0">E</tspan><tspan class="cls-8" x="1" y="0">T</tspan><tspan x="1.75" y="0">.</tspan></text>
      </g>
      <g>
        <text class="cls-1" transform="translate(2.64 19.89) scale(1.1 1)"><tspan x="0" y="0">Electivo</tspan></text>
        <text class="cls-10" transform="translate(.3 20.08)"><tspan x="0" y="0">E.</tspan></text>
      </g>
    </g>
  </g>
  <g id="Línea">
    <g>
      <line class="cls-6" x1="15.39" y1="11.62" x2="15.39" y2="8.83"/>
      <line class="cls-4" x1=".31" y1="8.95" x2="100.31" y2="8.95"/>
      <line class="cls-6" x1="50.31" y1="11.75" x2="50.31" y2="8.95"/>
      <line class="cls-6" x1="85.24" y1="11.75" x2="85.24" y2="8.95"/>
    </g>
    <text class="cls-12" transform="translate(10.6 14.17)"><tspan class="cls-2"><tspan x="0" y="0">Ciclo básico</tspan></tspan><tspan class="cls-11"><tspan x="3.06" y="2">I a IV</tspan></tspan></text>
    <text class="cls-12" transform="translate(41.68 14.08)"><tspan class="cls-2"><tspan x="0" y="0">Ciclo Especializado</tspan></tspan><tspan class="cls-11"><tspan x="5.39" y="2">V a VIII</tspan></tspan></text>
    <text class="cls-12" transform="translate(77.85 14.07)"><tspan class="cls-2"><tspan x="0" y="0">Ciclo profesional</tspan></tspan><tspan class="cls-11"><tspan x="4.67" y="2">IX a X</tspan></tspan></text>
  </g>
</svg>