<?xml version="1.0" encoding="utf-8"?>
<!-- Generator: Adobe Illustrator 28.1.0, SVG Export Plug-In . SVG Version: 6.00 Build 0)  -->
<svg version="1.1" xmlns="http://www.w3.org/2000/svg" xmlns:xlink="http://www.w3.org/1999/xlink" x="0px" y="0px"
	 viewBox="0 0 100 20" style="enable-background:new 0 0 100 20;" xml:space="preserve">
<style type="text/css">
	.st0{fill:#FFC5BC;}
	.st1{fill:#FF5722;}
	.st2{fill:#D0CDEA;}
	.st3{fill:#383C95;}
	.st4{fill:none;}
	.st5{fill:#070707;}
	.st6{font-family:'ArialMT';}
	.st7{font-size:1.9128px;}
	.st8{font-family:'Arial-BoldMT';}
	.st9{display:none;}
	.st10{display:inline;opacity:0.29;fill:#D0CDEA;}
	.st11{display:inline;opacity:0.29;fill:#FFC5BC;}
	.st12{display:inline;opacity:0.29;fill:#F9ED32;}
	.st13{display:inline;opacity:0.44;fill:none;stroke:#231F20;stroke-width:0.25;stroke-miterlimit:10;}
</style>
<g id="colores">
	<g>
		<rect x="36.26" y="1.34" class="st0" width="27.27" height="10.31"/>
		<rect x="36.26" y="10.87" class="st1" width="27.27" height="0.78"/>
	</g>
	<g>
		<rect x="69.58" y="6.1" class="st2" width="27.27" height="5.55"/>
		<rect x="69.58" y="10.87" class="st3" width="27.27" height="0.78"/>
	</g>
	<g>
		<rect x="3.03" y="4.78" class="st2" width="27.27" height="6.91"/>
		<rect x="3.03" y="10.71" class="st3" width="27.27" height="0.98"/>
	</g>
</g>
<g id="linea">
	<rect y="11.65" width="100" height="1.13"/>
	<rect x="82.63" y="11.85" width="1.18" height="1.94"/>
	<rect x="49.3" y="11.85" width="1.18" height="1.94"/>
	<rect x="16.08" y="11.85" width="1.18" height="1.94"/>
</g>
<g id="texto">
	<rect x="37.07" y="3.43" class="st4" width="25.64" height="6.38"/>
	<text transform="matrix(1 0 0 1 37.0695 5.0695)"><tspan x="0" y="0" class="st5 st6 st7">Electivo Mención I y S: </tspan><tspan x="0" y="2.3" class="st5 st6 st7">artesanías: cultura, técnica y </tspan><tspan x="0" y="4.59" class="st5 st6 st7">producto</tspan></text>
	<text transform="matrix(1 0 0 1 74.9891 9.6584)" class="st5 st6 st7">Proyecto de Título I</text>
	<rect x="3.8" y="5.66" class="st4" width="25.73" height="3.96"/>
	<text transform="matrix(1 0 0 1 3.8005 7.3029)"><tspan x="0" y="0" class="st5 st6 st7">Introducción a la Investigación</tspan><tspan x="0" y="2.3" class="st5 st6 st7">en el Diseño</tspan></text>
	<rect x="10.94" y="14.7" class="st4" width="11.44" height="3.96"/>
	<text transform="matrix(1 0 0 1 11.032 16.3444)"><tspan x="0" y="0" class="st8 st7">Ciclo básico</tspan><tspan x="3.4" y="2.3" class="st8 st7">I a IV</tspan></text>
	<rect x="41.03" y="14.7" class="st4" width="17.72" height="3.96"/>
	<text transform="matrix(1 0 0 1 41.0668 16.3444)"><tspan x="0" y="0" class="st8 st7">Ciclo especializado</tspan><tspan x="5.69" y="2.3" class="st8 st7">V a VIII</tspan></text>
	<rect x="74.36" y="14.7" class="st4" width="17.72" height="3.96"/>
	<text transform="matrix(1 0 0 1 75.4588 16.3444)"><tspan x="0" y="0" class="st8 st7">Ciclo profesional</tspan><tspan x="5.15" y="2.3" class="st8 st7">IX a X</tspan></text>
</g>
<g id="cuadros" class="st9">
	<rect class="st10" width="33.33" height="20"/>
	<rect x="33.33" class="st11" width="33.33" height="20"/>
	<rect x="66.67" class="st12" width="33.33" height="20"/>
	<rect class="st13" width="33.33" height="10"/>
	<rect x="33.33" class="st13" width="33.33" height="10"/>
	<rect x="66.67" class="st13" width="33.33" height="10"/>
	<rect y="10" class="st13" width="33.33" height="10"/>
	<rect x="33.33" y="10" class="st13" width="33.33" height="10"/>
	<rect x="66.67" y="10" class="st13" width="33.33" height="10"/>
</g>
</svg>
