<?xml version="1.0" encoding="UTF-8"?>
<svg id="Capa_1" data-name="Capa 1" xmlns="http://www.w3.org/2000/svg" viewBox="0 0 100 40">
  <defs>
    <style>
      .cls-1, .cls-2, .cls-3, .cls-4, .cls-5, .cls-6, .cls-7, .cls-8, .cls-9, .cls-10, .cls-11, .cls-12 {
        isolation: isolate;
      }

      .cls-1, .cls-6 {
        font-family: Arial-BoldMT, Arial;
        font-size: 1.5px;
        font-weight: 700;
      }

      .cls-13, .cls-2 {
        fill: #1f5592;
      }

      .cls-2, .cls-11 {
        opacity: .5;
      }

      .cls-4 {
        letter-spacing: -.05em;
      }

      .cls-4, .cls-5, .cls-7, .cls-8, .cls-10, .cls-12 {
        font-family: ArialMT, Arial;
      }

      .cls-4, .cls-7 {
        fill: #fff;
      }

      .cls-4, .cls-7, .cls-8, .cls-10, .cls-12 {
        font-size: 1px;
      }

      .cls-5, .cls-9 {
        font-size: 2px;
      }

      .cls-6 {
        letter-spacing: -.11em;
      }

      .cls-8 {
        fill: #444;
      }

      .cls-9 {
        font-family: Arial-ItalicMT, Arial;
        font-style: italic;
      }

      .cls-10 {
        fill: #1d1d1b;
      }

      .cls-11, .cls-14 {
        fill: #f7ce65;
      }

      .cls-15 {
        fill: none;
        stroke: #1d1d1b;
        stroke-miterlimit: 10;
        stroke-width: .5px;
      }
    </style>
  </defs>
  <g id="Simbología">
    <g>
      <rect class="cls-11" x="12.59" y="37.97" width="2" height="1.92"/>
      <rect class="cls-14" x="12.59" y="39.69" width="2" height=".29"/>
    </g>
    <g class="cls-3">
      <text class="cls-12" transform="translate(15.27 39.36) scale(1.1 1)"><tspan x="0" y="0">Mención industrial y servicios</tspan></text>
    </g>
    <g>
      <g>
        <rect class="cls-2" x="32.18" y="38.01" width="2" height="1.92"/>
        <rect class="cls-13" x="32.18" y="39.72" width="2" height=".29"/>
      </g>
      <g class="cls-3">
        <text class="cls-12" transform="translate(34.9 39.38) scale(1.1 1)"><tspan x="0" y="0">Mención visualidad y medios</tspan></text>
      </g>
    </g>
    <g>
      <g class="cls-3">
        <text class="cls-12" transform="translate(2.51 39.36) scale(1.1 1)"><tspan x="0" y="0">Electivo troncal</tspan></text>
      </g>
      <g class="cls-3">
        <text class="cls-1" transform="translate(-.12 39.54)"><tspan x="0" y="0">E</tspan></text>
        <text class="cls-6" transform="translate(.88 39.54)"><tspan x="0" y="0">T</tspan></text>
        <text class="cls-1" transform="translate(1.63 39.54)"><tspan x="0" y="0">.</tspan></text>
      </g>
    </g>
  </g>
  <g id="Cuadros">
    <g>
      <rect class="cls-2" x="34.93" y="19.57" width="30.15" height="8.24"/>
      <rect class="cls-13" x="34.93" y="27.02" width="30.15" height="1.49"/>
    </g>
    <g class="cls-3">
      <text class="cls-1" transform="translate(40.7 22.32)"><tspan x="0" y="0">E</tspan></text>
      <text class="cls-6" transform="translate(41.7 22.32)"><tspan x="0" y="0">T</tspan></text>
      <text class="cls-1" transform="translate(42.45 22.32)"><tspan x="0" y="0">. Diseño y visualización </tspan></text>
      <text class="cls-1" transform="translate(44.62 23.82)"><tspan x="0" y="0">de información</tspan></text>
      <text class="cls-8" transform="translate(44.72 25.32)"><tspan x="0" y="0">(Primer semestre-2025)</tspan></text>
    </g>
    <g class="cls-3">
      <text class="cls-7" transform="translate(47.16 28.14)"><tspan x="0" y="0">(AUD5V027)</tspan></text>
    </g>
    <g>
      <rect class="cls-2" x="69.85" y="19.56" width="30.15" height="8.24"/>
      <rect class="cls-13" x="69.85" y="27.01" width="30.15" height="1.49"/>
    </g>
    <g class="cls-3">
      <text class="cls-1" transform="translate(76.72 23.06)"><tspan x="0" y="0">Proyecto de Título I y II</tspan></text>
      <text class="cls-8" transform="translate(73.65 24.56)"><tspan x="0" y="0">(Segundo semestre-2024 y Primer semestre-2025)</tspan></text>
    </g>
    <g class="cls-3">
      <text class="cls-7" transform="translate(79.21 28.13)"><tspan x="0" y="0">(AUD9V001 |</tspan></text>
      <text class="cls-4" transform="translate(85.08 28.13)"><tspan x="0" y="0"> </tspan></text>
      <text class="cls-7" transform="translate(85.31 28.13)"><tspan x="0" y="0">AUD10V01)</tspan></text>
    </g>
    <g>
      <rect class="cls-2" x="34.93" y="9.78" width="30.15" height="8.24"/>
      <rect class="cls-13" x="34.93" y="17.23" width="30.15" height="1.49"/>
    </g>
    <g class="cls-3">
      <text class="cls-1" transform="translate(39 13.28)"><tspan x="0" y="0">Seminario de Licenciatura I y II</tspan></text>
      <text class="cls-8" transform="translate(38.72 14.78)"><tspan x="0" y="0">(Segundo semestre-2024 y Primer semestre-2025)</tspan></text>
    </g>
    <g class="cls-3">
      <text class="cls-7" transform="translate(44.28 18.35)"><tspan x="0" y="0">(AUD7V002 |</tspan></text>
      <text class="cls-4" transform="translate(50.16 18.35)"><tspan x="0" y="0"> </tspan></text>
      <text class="cls-7" transform="translate(50.38 18.35)"><tspan x="0" y="0">AUD8V001)</tspan></text>
    </g>
    <g>
      <rect class="cls-11" x="34.92" y=".02" width="30.15" height="8.24"/>
      <rect class="cls-14" x="34.92" y="7.47" width="30.15" height="1.49"/>
    </g>
    <g class="cls-3">
      <text class="cls-1" transform="translate(40.04 3.52)"><tspan x="0" y="0">Seminario de Licenciatura II</tspan></text>
      <text class="cls-8" transform="translate(44.71 5.02)"><tspan x="0" y="0">(Primer semestre-2025)</tspan></text>
    </g>
    <g class="cls-3">
      <text class="cls-10" transform="translate(47.35 8.59)"><tspan x="0" y="0">(AUD8I001)</tspan></text>
    </g>
    <g>
      <rect class="cls-11" x="69.85" y="9.8" width="30.15" height="8.24"/>
      <rect class="cls-14" x="69.85" y="17.25" width="30.15" height="1.49"/>
    </g>
    <g class="cls-3">
      <text class="cls-1" transform="translate(77.76 13.3)"><tspan x="0" y="0">Proyecto de Título II</tspan></text>
      <text class="cls-8" transform="translate(79.65 14.8)"><tspan x="0" y="0">(Primer semestre-2025)</tspan></text>
    </g>
    <g class="cls-3">
      <text class="cls-10" transform="translate(82.29 18.37)"><tspan x="0" y="0">(AUD10I01)</tspan></text>
    </g>
  </g>
  <g id="Línea">
    <g>
      <line class="cls-15" x1="15.07" y1="31.39" x2="15.07" y2="28.59"/>
      <line class="cls-15" y1="28.72" x2="100" y2="28.72"/>
      <line class="cls-15" x1="50" y1="31.51" x2="50" y2="28.72"/>
      <line class="cls-15" x1="84.93" y1="31.51" x2="84.93" y2="28.72"/>
    </g>
    <g class="cls-3">
      <text class="cls-5" transform="translate(10.28 33.58)"><tspan x="0" y="0">Ciclo básico</tspan></text>
      <text class="cls-9" transform="translate(8.78 35.58)"><tspan x="0" y="0">Semestre I a IV</tspan></text>
    </g>
    <g class="cls-3">
      <text class="cls-5" transform="translate(41.33 33.62)"><tspan x="0" y="0">Ciclo Especializado</tspan></text>
      <text class="cls-9" transform="translate(42.16 35.62)"><tspan x="0" y="0">Semestre V a VIII</tspan></text>
    </g>
    <g class="cls-3">
      <text class="cls-5" transform="translate(77.42 33.61)"><tspan x="0" y="0">Ciclo Profesional</tspan></text>
      <text class="cls-9" transform="translate(77.64 35.61)"><tspan x="0" y="0">Semestre IX a X</tspan></text>
    </g>
  </g>
</svg>