<?xml version="1.0" encoding="UTF-8"?>
<svg id="Layer_1" data-name="Layer 1" xmlns="http://www.w3.org/2000/svg" viewBox="0 0 100 19.69">
  <defs>
    <style>
      .cls-1 {
        fill: none;
        stroke: #1d1d1b;
        stroke-miterlimit: 10;
        stroke-width: .5px;
      }

      .cls-2 {
        fill: #471ca7;
      }

      .cls-2, .cls-3, .cls-4, .cls-5 {
        stroke-width: 0px;
      }

      .cls-6 {
        letter-spacing: .01em;
      }

      .cls-7, .cls-8, .cls-9, .cls-10 {
        font-family: MyriadConceptRoman-Bold, 'Myriad Variable Concept';
        font-variation-settings: 'wght' 700, 'wdth' 100;
        font-weight: 700;
      }

      .cls-7, .cls-11 {
        letter-spacing: 0em;
      }

      .cls-12 {
        letter-spacing: 0em;
      }

      .cls-13 {
        font-size: 1.71px;
      }

      .cls-13, .cls-14 {
        font-family: MyriadPro-Regular, 'Myriad Pro';
      }

      .cls-3 {
        fill: #ffd6cd;
      }

      .cls-15 {
        letter-spacing: 0em;
      }

      .cls-16 {
        letter-spacing: -.04em;
      }

      .cls-17 {
        letter-spacing: -.01em;
      }

      .cls-18 {
        letter-spacing: 0em;
      }

      .cls-19 {
        letter-spacing: -.04em;
      }

      .cls-20 {
        letter-spacing: -.02em;
      }

      .cls-21 {
        letter-spacing: 0em;
      }

      .cls-21, .cls-22 {
        font-family: MyriadConceptRoman-Semibold, 'Myriad Variable Concept';
        font-variation-settings: 'wght' 600, 'wdth' 100;
        font-weight: 600;
      }

      .cls-8, .cls-23 {
        letter-spacing: 0em;
      }

      .cls-24 {
        letter-spacing: -.01em;
      }

      .cls-25 {
        letter-spacing: 0em;
      }

      .cls-26 {
        font-size: 1.22px;
      }

      .cls-27 {
        letter-spacing: 0em;
      }

      .cls-9, .cls-28 {
        font-size: 1.47px;
      }

      .cls-29 {
        letter-spacing: 0em;
      }

      .cls-30 {
        letter-spacing: -.03em;
      }

      .cls-31 {
        letter-spacing: 0em;
      }

      .cls-32 {
        font-size: 1.22px;
      }

      .cls-33 {
        letter-spacing: 0em;
      }

      .cls-34 {
        letter-spacing: -.01em;
      }

      .cls-35 {
        letter-spacing: 0em;
      }

      .cls-36 {
        letter-spacing: 0em;
      }

      .cls-4 {
        fill: #dacaff;
      }

      .cls-37 {
        letter-spacing: 0em;
      }

      .cls-5 {
        fill: #ff5607;
      }
    </style>
  </defs>
  <path class="cls-3" d="M40.11,7.85h16.45c.39,0,.72.32.72.72v6.15h-17.88v-6.15c0-.39.32-.72.72-.72Z"/>
  <path class="cls-3" d="M79.98,8.95h16.45c.39,0,.72.32.72.72v4.9h-17.88v-4.9c0-.39.32-.72.72-.72Z"/>
  <rect class="cls-5" x="79.27" y="13.68" width="17.88" height=".89"/>
  <rect class="cls-5" x="39.4" y="13.83" width="17.88" height=".89"/>
  <g>
    <g>
      <line class="cls-1" x1="48.34" y1="16.19" x2="48.34" y2="14.88"/>
      <text class="cls-9" transform="translate(42.14 17.56)"><tspan class="cls-11" x="0" y="0">C</tspan><tspan class="cls-23" x=".87" y="0">iclo </tspan><tspan class="cls-35" x="3.48" y="0">E</tspan><tspan x="4.27" y="0">specializado</tspan><tspan x="3.98" y="1.76">V a</tspan><tspan class="cls-19" x="5.98" y="1.76"> </tspan><tspan class="cls-23" x="6.22" y="1.76">VIII</tspan></text>
    </g>
    <g>
      <line class="cls-1" x1="10.5" y1="16.16" x2="10.5" y2="14.85"/>
      <text class="cls-28" transform="translate(6.35 17.53)"><tspan class="cls-7" x="0" y="0">C</tspan><tspan class="cls-8" x=".87" y="0">iclo B</tspan><tspan class="cls-22" x="4.36" y="0">ási</tspan><tspan class="cls-21" x="6.1" y="0">c</tspan><tspan class="cls-22" x="6.74" y="0">o</tspan><tspan class="cls-10"><tspan x="2.22" y="1.76">I a IV</tspan></tspan></text>
    </g>
    <g>
      <line class="cls-1" x1="88.21" y1="16.19" x2="88.21" y2="14.88"/>
      <text class="cls-9" transform="translate(82.76 17.56)"><tspan class="cls-11" x="0" y="0">C</tspan><tspan x=".87" y="0">iclo </tspan><tspan class="cls-12" x="3.48" y="0">Pr</tspan><tspan x="4.86" y="0">o</tspan><tspan class="cls-33" x="5.71" y="0">f</tspan><tspan x="6.2" y="0">esional</tspan><tspan x="3.65" y="1.76">IX a X</tspan></text>
    </g>
  </g>
  <text class="cls-13" transform="translate(80.25 11.83)"><tspan class="cls-20" x="0" y="0">P</tspan><tspan class="cls-34" x=".88" y="0">r</tspan><tspan class="cls-25" x="1.43" y="0">o</tspan><tspan class="cls-34" x="2.35" y="0">y</tspan><tspan x="3.14" y="0">e</tspan><tspan class="cls-6" x="4" y="0">c</tspan><tspan class="cls-37" x="4.79" y="0">t</tspan><tspan x="5.35" y="0">o de</tspan><tspan class="cls-16" x="8.47" y="0"> </tspan><tspan class="cls-24" x="8.77" y="0">T</tspan><tspan x="9.6" y="0">ítulo I y II</tspan></text>
  <text class="cls-13" transform="translate(43.63 10.54)"><tspan class="cls-36" x="0" y="0">S</tspan><tspan class="cls-29" x=".85" y="0">emina</tspan><tspan class="cls-15" x="5.32" y="0">r</tspan><tspan x="5.88" y="0">io de</tspan><tspan x="-1.18" y="2.05">Li</tspan><tspan class="cls-27" x=".03" y="2.05">c</tspan><tspan x=".79" y="2.05">enci</tspan><tspan class="cls-31" x="3.76" y="2.05">a</tspan><tspan class="cls-29" x="4.58" y="2.05">tu</tspan><tspan class="cls-18" x="6.09" y="2.05">r</tspan><tspan x="6.64" y="2.05">a I y II</tspan></text>
  <path class="cls-4" d="M40.11,0h16.45c.39,0,.72.32.72.72v6.23h-17.88V.72c0-.39.32-.72.72-.72Z"/>
  <rect class="cls-2" x="39.4" y="6.05" width="17.88" height=".89"/>
  <text class="cls-14" transform="translate(42.88 2.67)"><tspan class="cls-32"><tspan class="cls-30" x="0" y="0">A</tspan><tspan x=".71" y="0" xml:space="preserve">UD5V027 :  Diseño y</tspan></tspan><tspan class="cls-26"><tspan x="-1.78" y="1.47">visualización de in</tspan><tspan class="cls-17" x="7.5" y="1.47">f</tspan><tspan x="7.84" y="1.47">ormación</tspan></tspan></text>
  <polyline class="cls-1" points="0 14.85 50 14.85 100 14.85"/>
</svg>