<?xml version="1.0" encoding="UTF-8"?>
<svg id="Capa_1" data-name="Capa 1" xmlns="http://www.w3.org/2000/svg" viewBox="0 0 100 30">
  <defs>
    <style>
      .cls-1 {
        font-family: Arial-BoldMT, Arial;
        font-size: 1.5px;
        font-weight: 700;
      }

      .cls-1, .cls-2, .cls-3, .cls-4, .cls-5, .cls-6, .cls-7, .cls-8 {
        isolation: isolate;
      }

      .cls-3, .cls-4, .cls-6, .cls-8 {
        font-family: ArialMT, Arial;
      }

      .cls-3, .cls-5 {
        font-size: 2px;
      }

      .cls-4 {
        fill: #444;
      }

      .cls-4, .cls-6, .cls-8 {
        font-size: 1px;
      }

      .cls-5 {
        font-family: Arial-ItalicMT, Arial;
        font-style: italic;
      }

      .cls-6 {
        fill: #1d1d1b;
      }

      .cls-7 {
        opacity: .5;
      }

      .cls-7, .cls-9 {
        fill: #f7ce65;
      }

      .cls-10 {
        fill: none;
        stroke: #1d1d1b;
        stroke-miterlimit: 10;
        stroke-width: .5px;
      }
    </style>
  </defs>
  <g id="Simbología">
    <g>
      <rect class="cls-7" y="27.99" width="2" height="1.92"/>
      <rect class="cls-9" y="29.71" width="2" height=".29"/>
    </g>
    <g class="cls-2">
      <text class="cls-8" transform="translate(2.68 29.38) scale(1.1 1)"><tspan x="0" y="0">Mención industrial y servicios</tspan></text>
    </g>
  </g>
  <g id="Cuadros">
    <g>
      <rect class="cls-7" x="69.84" y="9.79" width="30.15" height="8.25"/>
      <rect class="cls-9" x="69.84" y="17.24" width="30.15" height="1.49"/>
    </g>
    <g>
      <rect class="cls-7" x="34.93" y="9.8" width="30.15" height="8.24"/>
      <rect class="cls-9" x="34.93" y="17.25" width="30.15" height="1.49"/>
    </g>
    <g class="cls-2">
      <text class="cls-1" transform="translate(39 13.3)"><tspan x="0" y="0">Seminario de Licenciatura I y II</tspan></text>
      <text class="cls-4" transform="translate(38.77 14.8)"><tspan x="0" y="0">(Primeir semestre 2025 y Segundo semestre 2024)</tspan></text>
    </g>
    <g class="cls-2">
      <text class="cls-1" transform="translate(76.72 13.32)"><tspan x="0" y="0">Proyecto de Título I y II</tspan></text>
      <text class="cls-4" transform="translate(73.7 14.82)"><tspan x="0" y="0">(Primeir semestre 2025 y Segundo semestre 2024)</tspan></text>
    </g>
    <g class="cls-2">
      <text class="cls-6" transform="translate(79.68 18.34)"><tspan x="0" y="0">(AUD9I001) | (AUD10I01)</tspan></text>
    </g>
    <g class="cls-2">
      <text class="cls-6" transform="translate(44.59 18.27)"><tspan x="0" y="0">(AUD7I002) | (AUD8I001)</tspan></text>
    </g>
    <g>
      <rect class="cls-7" x="69.84" y=".03" width="30.15" height="8.25"/>
      <rect class="cls-9" x="69.84" y="7.48" width="30.15" height="1.49"/>
    </g>
    <g class="cls-2">
      <text class="cls-1" transform="translate(77.76 3.56)"><tspan x="0" y="0">Práctica profesional</tspan></text>
      <text class="cls-4" transform="translate(79.22 5.06)"><tspan x="0" y="0">(Segundo semestre 2024)</tspan></text>
    </g>
    <g class="cls-2">
      <text class="cls-6" transform="translate(82.33 8.58)"><tspan x="0" y="0">(AUD9I002)</tspan></text>
    </g>
  </g>
  <g id="Línea">
    <g>
      <line class="cls-10" x1="15.07" y1="21.64" x2="15.07" y2="18.84"/>
      <line class="cls-10" y1="18.97" x2="100" y2="18.97"/>
      <line class="cls-10" x1="50" y1="21.77" x2="50" y2="18.97"/>
      <line class="cls-10" x1="84.93" y1="21.77" x2="84.93" y2="18.97"/>
    </g>
    <g class="cls-2">
      <text class="cls-3" transform="translate(10.28 23.83)"><tspan x="0" y="0">Ciclo básico</tspan></text>
      <text class="cls-5" transform="translate(8.78 25.83)"><tspan x="0" y="0">Semestre I a IV</tspan></text>
    </g>
    <g class="cls-2">
      <text class="cls-3" transform="translate(41.33 23.87)"><tspan x="0" y="0">Ciclo Especializado</tspan></text>
      <text class="cls-5" transform="translate(42.16 25.87)"><tspan x="0" y="0">Semestre V a VIII</tspan></text>
    </g>
    <g class="cls-2">
      <text class="cls-3" transform="translate(77.42 23.86)"><tspan x="0" y="0">Ciclo Profesional</tspan></text>
      <text class="cls-5" transform="translate(77.64 25.86)"><tspan x="0" y="0">Semestre IX a X</tspan></text>
    </g>
  </g>
</svg>