<?xml version="1.0" encoding="UTF-8"?>
<svg id="Capa_1" data-name="Capa 1" xmlns="http://www.w3.org/2000/svg" viewBox="0 0 100.02 40.56">
  <defs>
    <style>
      .cls-1 {
        fill: #393f95;
      }

      .cls-2 {
        fill: #ff5432;
      }

      .cls-3 {
        fill: #dbc62e;
      }

      .cls-4, .cls-5, .cls-6, .cls-7, .cls-8 {
        isolation: isolate;
      }

      .cls-4, .cls-9 {
        font-family: Arial-BoldMT, Arial;
        font-size: 1.5px;
        font-weight: 700;
      }

      .cls-6, .cls-7 {
        font-size: 2px;
      }

      .cls-6, .cls-8 {
        font-family: ArialMT, Arial;
      }

      .cls-10 {
        fill: #ffa300;
      }

      .cls-11 {
        fill: #ffe7b6;
      }

      .cls-7 {
        font-family: Arial-ItalicMT, Arial;
        font-style: italic;
      }

      .cls-8 {
        font-size: 1px;
      }

      .cls-12 {
        fill: none;
        stroke: #1d1d1b;
        stroke-miterlimit: 10;
        stroke-width: .5px;
      }

      .cls-13 {
        fill: #d1cfe8;
      }

      .cls-14 {
        fill: #ffd3cc;
      }
    </style>
  </defs>
  <g>
    <rect class="cls-14" x="69.87" y="19.43" width="30.15" height="8.59"/>
    <rect class="cls-2" x="69.87" y="27.1" width="30.15" height="1.28"/>
  </g>
  <g>
    <rect class="cls-11" x="34.82" y="9.66" width="30.15" height="8.59"/>
    <rect class="cls-3" x="34.82" y="17.26" width="30.15" height="1.28"/>
    <g class="cls-5">
      <text class="cls-9" transform="translate(45.77 14.36)"><tspan x="0" y="0">Proyecto VI</tspan></text>
    </g>
  </g>
  <text class="cls-9" transform="translate(76.73 24.33)"><tspan x="0" y="0">Proyecto de Título I y II</tspan></text>
  <g>
    <rect class="cls-14" x="34.78" y="19.42" width="30.15" height="8.59"/>
    <rect class="cls-2" x="34.78" y="27.09" width="30.15" height="1.28"/>
  </g>
  <text class="cls-9" transform="translate(38.89 24.33)"><tspan x="0" y="0">Seminario de Licenciatura I y II</tspan></text>
  <g id="INDICE">
    <g>
      <g>
        <rect class="cls-13" x="40.81" y="38.39" width="2" height="1.92"/>
        <rect class="cls-1" x="40.81" y="40.1" width="2" height=".29"/>
      </g>
      <g class="cls-5">
        <text class="cls-8" transform="translate(43.53 39.8) scale(1.1 1)"><tspan x="0" y="0">Mención visualidad y medios</tspan></text>
      </g>
    </g>
    <g>
      <g>
        <rect class="cls-14" x="60.14" y="38.49" width="2" height="1.92"/>
        <rect class="cls-2" x="60.14" y="40.2" width="2" height=".29"/>
      </g>
      <g class="cls-5">
        <text class="cls-8" transform="translate(62.85 39.79) scale(1.1 1)"><tspan x="0" y="0">Ambas menciones</tspan></text>
      </g>
    </g>
    <g>
      <g class="cls-5">
        <text class="cls-8" transform="translate(11.28 39.82) scale(1.1 1)"><tspan x="0" y="0">Electivo troncal</tspan></text>
      </g>
      <g class="cls-5">
        <text class="cls-4" transform="translate(8.65 40)"><tspan x="0" y="0">E</tspan></text>
        <text class="cls-4" transform="translate(9.65 40)"><tspan x="0" y="0">T</tspan></text>
        <text class="cls-4" transform="translate(10.4 40)"><tspan x="0" y="0">.</tspan></text>
      </g>
    </g>
    <g>
      <g class="cls-5">
        <text class="cls-8" transform="translate(2.34 39.82) scale(1.1 1)"><tspan x="0" y="0">Electivo</tspan></text>
      </g>
      <g class="cls-5">
        <text class="cls-4" transform="translate(0 40)"><tspan x="0" y="0">E.</tspan></text>
      </g>
    </g>
    <g>
      <g>
        <rect class="cls-11" x="22.03" y="38.49" width="2" height="1.92"/>
        <rect class="cls-10" x="22.03" y="40.2" width="2" height=".29"/>
      </g>
      <g class="cls-5">
        <text class="cls-8" transform="translate(24.71 39.88) scale(1.1 1)"><tspan x="0" y="0">Mención industrial y servicios</tspan></text>
      </g>
    </g>
  </g>
  <g id="Línea">
    <g>
      <line class="cls-12" x1="15.17" y1="31.05" x2="15.17" y2="28.25"/>
      <line class="cls-12" x1=".11" y1="28.38" x2="100.01" y2="28.38"/>
      <line class="cls-12" x1="50.06" y1="31.18" x2="50.06" y2="28.38"/>
      <line class="cls-12" x1="84.96" y1="31.18" x2="84.96" y2="28.38"/>
    </g>
    <g class="cls-5">
      <text class="cls-6" transform="translate(10.39 33.6)"><tspan x="0" y="0">Ciclo básico</tspan></text>
      <text class="cls-7" transform="translate(13.45 35.6)"><tspan x="0" y="0">I a IV</tspan></text>
    </g>
    <g class="cls-5">
      <text class="cls-6" transform="translate(41.44 33.51)"><tspan x="0" y="0">Ciclo Especializado</tspan></text>
      <text class="cls-7" transform="translate(46.82 35.51)"><tspan x="0" y="0">V a VIII</tspan></text>
    </g>
    <g class="cls-5">
      <text class="cls-6" transform="translate(77.57 33.5)"><tspan x="0" y="0">Ciclo profesional</tspan></text>
      <text class="cls-7" transform="translate(82.24 35.5)"><tspan x="0" y="0">IX a X</tspan></text>
    </g>
  </g>
  <g>
    <rect class="cls-11" x="34.85" width="30.15" height="8.59"/>
    <rect class="cls-3" x="34.85" y="7.6" width="30.15" height="1.28"/>
    <g class="cls-5">
      <text class="cls-9" transform="translate(46.01 4.7)"><tspan x="0" y="0">Proyecto V</tspan></text>
    </g>
  </g>
</svg>