<?xml version="1.0" encoding="UTF-8"?>
<svg xmlns="http://www.w3.org/2000/svg" viewBox="0 0 100 30">
  <defs>
    <style>
      .cls-1, .cls-2, .cls-3, .cls-4, .cls-5 {
        font-family: ArialMT, Arial;
      }

      .cls-1, .cls-2, .cls-3, .cls-5 {
        font-size: 1px;
      }

      .cls-6, .cls-7 {
        opacity: .5;
      }

      .cls-6, .cls-8 {
        fill: #f7ce65;
      }

      .cls-2 {
        fill: #fff;
      }

      .cls-9 {
        fill: #ff5432;
      }

      .cls-9, .cls-10 {
        stroke: #1d1d1b;
        stroke-miterlimit: 10;
        stroke-width: .5px;
      }

      .cls-3 {
        fill: #444;
      }

      .cls-7, .cls-11 {
        fill: #1f5592;
      }

      .cls-12 {
        letter-spacing: -.11em;
      }

      .cls-13 {
        font-family: Arial-BoldMT, Arial;
        font-size: 1.5px;
        font-weight: 700;
      }

      .cls-14 {
        font-family: Arial-ItalicMT, Arial;
        font-style: italic;
      }

      .cls-10 {
        fill: none;
      }

      .cls-15 {
        font-size: 2px;
      }

      .cls-5 {
        fill: #1d1d1b;
      }
    </style>
  </defs>
  <g id="Simbología">
    <g>
      <text class="cls-1" transform="translate(15.28 29.38) scale(1.1 1)"><tspan x="0" y="0">Mención industrial y servicios</tspan></text>
      <g>
        <g>
          <rect class="cls-6" x="12.6" y="27.99" width="2" height="1.92"/>
          <rect class="cls-8" x="12.6" y="29.71" width="2" height=".29"/>
        </g>
        <g>
          <g>
            <rect class="cls-7" x="32.06" y="28" width="2" height="1.92"/>
            <rect class="cls-11" x="32.06" y="29.72" width="2" height=".29"/>
          </g>
          <text class="cls-1" transform="translate(34.78 29.38) scale(1.1 1)"><tspan x="0" y="0">Mención visualidad y medios</tspan></text>
        </g>
        <g>
          <text class="cls-1" transform="translate(2.53 29.38) scale(1.1 1)"><tspan x="0" y="0">Electivo troncal</tspan></text>
          <text class="cls-13" transform="translate(-.1 29.56)"><tspan x="0" y="0">E</tspan><tspan class="cls-12" x="1" y="0">T</tspan><tspan x="1.75" y="0">.</tspan></text>
        </g>
      </g>
    </g>
  </g>
  <g id="Cuadros">
    <g>
      <rect class="cls-6" x="69.84" y="9.79" width="30.15" height="8.25"/>
      <rect class="cls-8" x="69.84" y="17.24" width="30.15" height="1.49"/>
    </g>
    <g>
      <rect class="cls-7" x="34.93" y="9.79" width="30.15" height="8.24"/>
      <rect class="cls-11" x="34.93" y="17.24" width="30.15" height="1.49"/>
    </g>
    <g>
      <rect class="cls-7" x="34.92" y="0" width="30.15" height="8.2"/>
      <rect class="cls-11" x="34.92" y="7.45" width="30.15" height="1.5"/>
    </g>
    <text transform="translate(38.08 3.52)"><tspan class="cls-13"><tspan x="0" y="0">E</tspan><tspan class="cls-12" x="1" y="0">T</tspan><tspan x="1.75" y="0">. Diseño editorial y publicación</tspan></tspan><tspan class="cls-3"><tspan x="6.11" y="1.5">(Segundo semestre-2024)</tspan></tspan></text>
    <text transform="translate(45.66 13.29)"><tspan class="cls-13"><tspan x="0" y="0">Proyecto VII</tspan></tspan><tspan class="cls-3"><tspan x="-.92" y="1.5">(Primer semestre 2025)</tspan></tspan></text>
    <text transform="translate(77.75 13.32)"><tspan class="cls-13"><tspan x="0" y="0">Proyecto de Título II</tspan></tspan><tspan class="cls-3"><tspan x="1.92" y="1.5">(Primer semestre 2025) </tspan></tspan></text>
    <text class="cls-2" transform="translate(47.17 8.52)"><tspan x="0" y="0">(AUD6V020)</tspan></text>
    <text class="cls-5" transform="translate(82.28 18.35)"><tspan x="0" y="0">(AUD10I01)</tspan></text>
    <text class="cls-2" transform="translate(47.17 18.28)"><tspan x="0" y="0">(AUD7V001)</tspan></text>
    <g>
      <rect class="cls-7" x="69.85" y=".01" width="30.15" height="8.25"/>
      <rect class="cls-11" x="69.85" y="7.46" width="30.15" height="1.49"/>
    </g>
    <text transform="translate(76.72 3.54)"><tspan class="cls-13"><tspan x="0" y="0">Proyecto de Título I y II</tspan></tspan><tspan class="cls-3"><tspan x="-3.05" y="1.5">(Primer semestre 2025 y Segundo semestre-2024) </tspan></tspan></text>
    <text class="cls-2" transform="translate(78.85 8.57)"><tspan x="0" y="0">(AUD9V001) | (AUD10V01)</tspan></text>
  </g>
  <g id="Línea">
    <g>
      <line class="cls-10" x1="15.07" y1="21.64" x2="15.07" y2="18.84"/>
      <line class="cls-9" y1="18.97" x2="100" y2="18.97"/>
      <line class="cls-10" x1="50" y1="21.76" x2="50" y2="18.97"/>
      <line class="cls-10" x1="84.93" y1="21.76" x2="84.93" y2="18.97"/>
    </g>
    <text class="cls-15" transform="translate(10.28 23.83)"><tspan class="cls-4"><tspan x="0" y="0">Ciclo básico</tspan></tspan><tspan class="cls-14"><tspan x="-1.5" y="2">Semestre I a IV</tspan></tspan></text>
    <text class="cls-15" transform="translate(41.33 23.87)"><tspan class="cls-4"><tspan x="0" y="0">Ciclo Especializado</tspan></tspan><tspan class="cls-14"><tspan x=".83" y="2">Semestre V a VIII</tspan></tspan></text>
    <text class="cls-15" transform="translate(77.42 23.86)"><tspan class="cls-4"><tspan x="0" y="0">Ciclo Profesional</tspan></tspan><tspan class="cls-14"><tspan x=".22" y="2">Semestre IX a X</tspan></tspan></text>
  </g>
</svg>