<?xml version="1.0" encoding="UTF-8"?>
<svg xmlns="http://www.w3.org/2000/svg" viewBox="0 0 100 31.44">
  <defs>
    <style>
      .cls-1, .cls-2, .cls-3, .cls-4 {
        font-family: ArialMT, Arial;
      }

      .cls-1, .cls-2, .cls-4 {
        font-size: 1px;
      }

      .cls-5, .cls-6 {
        opacity: .5;
      }

      .cls-5, .cls-7 {
        fill: #f7ce65;
      }

      .cls-8 {
        fill: #ff5432;
      }

      .cls-8, .cls-9 {
        stroke: #1d1d1b;
        stroke-miterlimit: 10;
        stroke-width: .5px;
      }

      .cls-2 {
        fill: #444;
      }

      .cls-6, .cls-10 {
        fill: #1f5592;
      }

      .cls-11 {
        letter-spacing: -.11em;
      }

      .cls-12 {
        font-family: Arial-BoldMT, Arial;
        font-size: 1.5px;
        font-weight: 700;
      }

      .cls-13 {
        font-family: Arial-ItalicMT, Arial;
        font-style: italic;
      }

      .cls-9 {
        fill: none;
      }

      .cls-14 {
        font-size: 2px;
      }

      .cls-4 {
        fill: #1d1d1b;
      }
    </style>
  </defs>
  <g id="Simbología">
    <g>
      <text class="cls-1" transform="translate(15.28 30.82) scale(1.1 1)"><tspan x="0" y="0">Mención industrial y servicios</tspan></text>
      <g>
        <g>
          <rect class="cls-5" x="12.6" y="29.43" width="2" height="1.92"/>
          <rect class="cls-7" x="12.6" y="31.15" width="2" height=".29"/>
        </g>
        <g>
          <g>
            <rect class="cls-6" x="32.06" y="29.44" width="2" height="1.92"/>
            <rect class="cls-10" x="32.06" y="31.16" width="2" height=".29"/>
          </g>
          <text class="cls-1" transform="translate(34.78 30.82) scale(1.1 1)"><tspan x="0" y="0">Mención visualidad y medios</tspan></text>
        </g>
        <g>
          <text class="cls-1" transform="translate(2.53 30.82) scale(1.1 1)"><tspan x="0" y="0">Electivo troncal</tspan></text>
          <text class="cls-12" transform="translate(-.1 31)"><tspan x="0" y="0">E</tspan><tspan class="cls-11" x="1" y="0">T</tspan><tspan x="1.75" y="0">.</tspan></text>
        </g>
      </g>
    </g>
  </g>
  <g id="Cuadros">
    <g>
      <rect class="cls-5" x="69.84" y="10.98" width="30.15" height="8.25"/>
      <rect class="cls-7" x="69.84" y="18.43" width="30.15" height="1.49"/>
    </g>
    <g>
      <rect class="cls-6" x="34.93" y="10.99" width="30.15" height="8.24"/>
      <rect class="cls-10" x="34.93" y="18.44" width="30.15" height="1.49"/>
    </g>
    <g>
      <rect class="cls-6" x="34.92" y="1.2" width="30.15" height="8.2"/>
      <rect class="cls-10" x="34.92" y="8.64" width="30.15" height="1.5"/>
    </g>
    <text transform="translate(38.08 4.71)"><tspan class="cls-12"><tspan x="0" y="0">E</tspan><tspan class="cls-11" x="1" y="0">T</tspan><tspan x="1.75" y="0">. Diseño editorial y publicación</tspan></tspan><tspan class="cls-2"><tspan x="6.11" y="1.5">(Segundo semestre-2024)</tspan></tspan></text>
    <text transform="translate(45.66 14.49)"><tspan class="cls-12"><tspan x="0" y="0">Proyecto VII</tspan></tspan><tspan class="cls-2"><tspan x="-.92" y="1.5">(Primer semestre 2025)</tspan></tspan></text>
    <text transform="translate(77.75 14.51)"><tspan class="cls-12"><tspan x="0" y="0">Proyecto de Título II</tspan></tspan><tspan class="cls-2"><tspan x="1.92" y="1.5">(Primer semestre 2025) </tspan></tspan></text>
    <text class="cls-4" transform="translate(47.17 9.71)"><tspan x="0" y="0">(AUD6V020)</tspan></text>
    <text class="cls-4" transform="translate(82.28 19.54)"><tspan x="0" y="0">(AUD10I01)</tspan></text>
    <text class="cls-4" transform="translate(47.17 19.47)"><tspan x="0" y="0">(AUD7V001)</tspan></text>
    <g>
      <rect class="cls-6" x="69.85" y="1.21" width="30.15" height="8.25"/>
      <rect class="cls-10" x="69.85" y="8.66" width="30.15" height="1.49"/>
    </g>
    <text transform="translate(76.72 4.73)"><tspan class="cls-12"><tspan x="0" y="0">Proyecto de Título I y II</tspan></tspan><tspan class="cls-2"><tspan x="-3.05" y="1.5">(Primer semestre 2025 y Segundo semestre-2024) </tspan></tspan></text>
    <text class="cls-4" transform="translate(78.85 9.77)"><tspan x="0" y="0">(AUD9V001) | (AUD10V01)</tspan></text>
  </g>
  <g id="Línea">
    <g>
      <line class="cls-9" x1="15.07" y1="22.83" x2="15.07" y2="20.03"/>
      <line class="cls-8" y1="20.16" x2="100" y2="20.16"/>
      <line class="cls-9" x1="50" y1="22.96" x2="50" y2="20.16"/>
      <line class="cls-9" x1="84.93" y1="22.96" x2="84.93" y2="20.16"/>
    </g>
    <text class="cls-14" transform="translate(10.28 25.02)"><tspan class="cls-3"><tspan x="0" y="0">Ciclo básico</tspan></tspan><tspan class="cls-13"><tspan x="-1.5" y="2">Semestre I a IV</tspan></tspan></text>
    <text class="cls-14" transform="translate(41.33 25.06)"><tspan class="cls-3"><tspan x="0" y="0">Ciclo Especializado</tspan></tspan><tspan class="cls-13"><tspan x=".83" y="2">Semestre V a VIII</tspan></tspan></text>
    <text class="cls-14" transform="translate(77.42 25.05)"><tspan class="cls-3"><tspan x="0" y="0">Ciclo Profesional</tspan></tspan><tspan class="cls-13"><tspan x=".22" y="2">Semestre IX a X</tspan></tspan></text>
  </g>
</svg>