<?xml version="1.0" encoding="utf-8"?>
<!-- Generator: Adobe Illustrator 27.9.3, SVG Export Plug-In . SVG Version: 9.03 Build 53313)  -->
<svg version="1.1" id="Capa_1" xmlns="http://www.w3.org/2000/svg" xmlns:xlink="http://www.w3.org/1999/xlink" x="0px" y="0px"
	 viewBox="0 0 100 22.69" style="enable-background:new 0 0 100 22.69;" xml:space="preserve">
<style type="text/css">
	.st0{fill:#FFD3CC;}
	.st1{fill:#FF5432;}
	.st2{font-family:'Arial-BoldMT';}
	.st3{font-size:1.5px;}
	.st4{fill:#FFE7B6;}
	.st5{fill:#FFA300;}
	.st6{fill:none;}
	.st7{font-family:'ArialMT';}
	.st8{font-size:1px;}
	.st9{fill:#D1CFE8;}
	.st10{fill:#393F95;}
	.st11{fill:none;stroke:#1D1D1B;stroke-width:0.5;stroke-miterlimit:10;}
	.st12{font-size:2px;}
	.st13{font-family:'Arial-ItalicMT';}
</style>
<g>
	<rect x="35.38" y="0.8" class="st0" width="30.15" height="8.59"/>
	<rect x="35.38" y="8.47" class="st1" width="30.15" height="1.28"/>
</g>
<g>
	<rect x="-0.03" y="0.83" class="st0" width="30.15" height="8.59"/>
	<rect x="-0.03" y="8.5" class="st1" width="30.15" height="1.28"/>
</g>
<g>
	<rect x="69.85" y="0.83" class="st0" width="30.15" height="8.59"/>
	<rect x="69.85" y="8.5" class="st1" width="30.15" height="1.28"/>
</g>
<g>
	<text transform="matrix(1 0 0 1 39.4509 5.6185)" class="st2 st3">Seminario de Licenciatura I y II</text>
</g>
<g>
	<text transform="matrix(1 0 0 1 76.7204 5.6535)" class="st2 st3">Proyecto de Título I y II</text>
</g>
<g>
	<rect x="21.33" y="19.33" class="st4" width="2" height="1.92"/>
	<rect x="21.33" y="21.05" class="st5" width="2" height="0.29"/>
</g>
<g>
	<rect x="24.01" y="20.01" class="st6" width="14.47" height="0.94"/>
	<text transform="matrix(1.1014 0 0 1 24.0142 20.7212)" class="st7 st8">Mención industrial y servicios</text>
</g>
<g>
	<g>
		<rect x="40.8" y="19.29" class="st9" width="2" height="1.92"/>
		<rect x="40.8" y="21" class="st10" width="2" height="0.29"/>
	</g>
	<g>
		<rect x="43.52" y="19.99" class="st6" width="14.1" height="0.81"/>
		<text transform="matrix(1.1014 0 0 1 43.5176 20.7046)" class="st7 st8">Mención visualidad y medios</text>
	</g>
</g>
<g>
	<g>
		<rect x="60.12" y="19.39" class="st0" width="2" height="1.92"/>
		<rect x="60.12" y="21.11" class="st1" width="2" height="0.29"/>
	</g>
	<g>
		<rect x="62.84" y="19.98" class="st6" width="9.55" height="0.93"/>
		<text transform="matrix(1.1014 0 0 1 62.8374 20.6958)" class="st7 st8">Ambas menciones</text>
	</g>
</g>
<g>
	<g>
		<rect x="11.27" y="20" class="st6" width="7.73" height="0.93"/>
		<text transform="matrix(1.1014 0 0 1 11.27 20.7178)" class="st7 st8">Electivo troncal</text>
	</g>
	<rect x="8.63" y="19.83" class="st6" width="2.2" height="1.27"/>
	<text transform="matrix(1 0 0 1 8.766 20.9036)" class="st2 st3">ET</text>
</g>
<g>
	<g>
		<rect x="2.33" y="20" class="st6" width="3.99" height="0.93"/>
		<text transform="matrix(1.1014 0 0 1 2.3306 20.7178)" class="st7 st8">Electivo</text>
	</g>
	<rect x="-0.31" y="19.83" class="st6" width="2.02" height="1.27"/>
	<text transform="matrix(1 0 0 1 -0.0135 20.9036)" class="st2 st3">E.</text>
</g>
<rect x="0.02" y="4.5" class="st6" width="30.05" height="1.54"/>
<text transform="matrix(1 0 0 1 10.9991 5.5753)" class="st2 st3">Proyecto III</text>
<g id="Línea">
	<g>
		<line class="st11" x1="15.07" y1="12.45" x2="15.07" y2="9.65"/>
		<line class="st11" x1="0" y1="9.78" x2="100" y2="9.78"/>
		<line class="st11" x1="50" y1="12.57" x2="50" y2="9.78"/>
		<line class="st11" x1="84.93" y1="12.57" x2="84.93" y2="9.78"/>
	</g>
	<text transform="matrix(1 0 0 1 10.2845 14.9993)" class="st7 st12">Ciclo básico</text>
	<text transform="matrix(1 0 0 1 13.3445 16.9993)" class="st13 st12">I a IV</text>
	<text transform="matrix(1 0 0 1 41.3683 14.9051)" class="st7 st12">Ciclo Especializado</text>
	<text transform="matrix(1 0 0 1 46.7583 16.9051)" class="st13 st12">V a VIII</text>
	<text transform="matrix(1 0 0 1 77.5336 14.8937)" class="st7 st12">Ciclo profesional</text>
	<text transform="matrix(1 0 0 1 82.2036 16.8937)" class="st13 st12">IX a X</text>
</g>
<g id="Guías">
</g>
</svg>
