<?xml version="1.0" encoding="UTF-8"?>
<svg id="Capa_1" data-name="Capa 1" xmlns="http://www.w3.org/2000/svg" viewBox="0 0 100 20">
  <defs>
    <style>
      .cls-1, .cls-2, .cls-3 {
        stroke: #1d1d1b;
        stroke-miterlimit: 10;
        stroke-width: .25px;
      }

      .cls-1, .cls-4, .cls-5 {
        fill: #1d1d1b;
      }

      .cls-2 {
        fill: none;
      }

      .cls-4 {
        font-size: 1px;
      }

      .cls-4, .cls-5 {
        font-family: Futura-Medium, Futura;
        font-weight: 500;
      }

      .cls-5 {
        font-size: 2px;
      }

      .cls-3 {
        fill: #fff;
      }

      .cls-6 {
        letter-spacing: -.02em;
      }

      .cls-7 {
        letter-spacing: -.02em;
      }

      .cls-8 {
        letter-spacing: 0em;
      }

      .cls-9 {
        letter-spacing: 0em;
      }

      .cls-10 {
        letter-spacing: .02em;
      }

      .cls-11 {
        letter-spacing: 0em;
      }
    </style>
  </defs>
  <rect class="cls-3" x=".74" y=".71" width="98.36" height="18.47" rx="4.14" ry="4.14"/>
  <line class="cls-2" x1="5.19" y1="13.63" x2="94.81" y2="13.63"/>
  <rect class="cls-1" x="18.82" y="13.63" width="1.02" height="1.51"/>
  <rect class="cls-1" x="49.49" y="13.79" width="1.02" height="1.51"/>
  <rect class="cls-1" x="80.11" y="13.79" width="1.02" height="1.51"/>
  <rect class="cls-2" x="35.81" y="7.68" width="28.39" height="5.95"/>
  <rect class="cls-2" x="66.42" y="8.97" width="28.39" height="4.66"/>
  <text class="cls-5" transform="translate(37.6 10.19)"><tspan x="0" y="0">Semina</tspan><tspan class="cls-10" x="6.65" y="0">r</tspan><tspan x="7.43" y="0">io de Licenciatu</tspan><tspan class="cls-8" x="21.5" y="0">r</tspan><tspan x="22.23" y="0">a </tspan><tspan x="0" y="2.4">I y II</tspan></text>
  <text class="cls-5" transform="translate(68.39 11.84)"><tspan x="0" y="0">P</tspan><tspan class="cls-9" x="1.08" y="0">r</tspan><tspan class="cls-6" x="1.81" y="0">o</tspan><tspan class="cls-7" x="2.97" y="0">y</tspan><tspan x="4.02" y="0">ec</tspan><tspan class="cls-11" x="6.08" y="0">t</tspan><tspan x="6.64" y="0">o de título I y II</tspan></text>
  <text class="cls-4" transform="translate(45.57 16.74)"><tspan x="0" y="0">Ciclo especializado</tspan><tspan x="2.73" y="1.2">V y VIII</tspan></text>
  <text class="cls-4" transform="translate(16.57 16.74)"><tspan x="0" y="0">Ciclo básico</tspan><tspan x="1.52" y="1.2">I a IV</tspan></text>
  <text class="cls-4" transform="translate(76.78 16.74)"><tspan x="0" y="0">Ciclo p</tspan><tspan class="cls-9" x="3.18" y="0">r</tspan><tspan x="3.55" y="0">o</tspan><tspan class="cls-10" x="4.15" y="0">f</tspan><tspan x="4.46" y="0">esional</tspan><tspan x="2.46" y="1.2">IX a X</tspan></text>
</svg>