<?xml version="1.0" encoding="UTF-8"?>
<svg id="Capa_1" data-name="Capa 1" xmlns="http://www.w3.org/2000/svg" viewBox="0 0 100 20">
  <defs>
    <style>
      .cls-1 {
        fill: #f5d8d0;
      }

      .cls-2, .cls-3 {
        fill: #da633c;
      }

      .cls-4 {
        font-family: Arial-BoldMT, Arial;
        font-size: 1.5px;
        font-weight: 700;
      }

      .cls-5 {
        fill: #fff;
        stroke: #1d1d1b;
      }

      .cls-5, .cls-3 {
        stroke-miterlimit: 10;
        stroke-width: .25px;
      }

      .cls-6 {
        fill: #1d1d1b;
        font-family: ArialMT, Arial;
        font-size: 1px;
      }

      .cls-3 {
        stroke: #da633c;
      }
    </style>
  </defs>
  <rect class="cls-5" x=".74" y=".71" width="98.36" height="18.47" rx="4.14" ry="4.14"/>
  <rect class="cls-1" x="66.42" y="6.97" width="28.39" height="5.95" rx="1.08" ry="1.08"/>
  <path class="cls-2" d="M66.42,11.79h28.39v.66c0,.26-.21.47-.47.47h-27.44c-.26,0-.47-.21-.47-.47v-.66h0Z"/>
  <line class="cls-3" x1="5.19" y1="13.63" x2="94.81" y2="13.63"/>
  <rect class="cls-2" x="18.82" y="13.63" width="1.02" height="1.51"/>
  <rect class="cls-2" x="49.49" y="13.79" width="1.02" height="1.51"/>
  <rect class="cls-2" x="80.11" y="13.79" width="1.02" height="1.51"/>
  <rect class="cls-1" x="35.81" y="6.97" width="28.39" height="5.95" rx="1.08" ry="1.08"/>
  <text class="cls-4" transform="translate(39 10.15)"><tspan x="0" y="0">Seminario de Licenciatura I y II</tspan></text>
  <text class="cls-4" transform="translate(72.61 9.99)"><tspan x="0" y="0">Proyecto de título I y II</tspan></text>
  <text class="cls-6" transform="translate(45.72 16.63)"><tspan x="0" y="0">Ciclo especializado</tspan><tspan x="2.67" y="1.2">V y VIII</tspan></text>
  <text class="cls-6" transform="translate(16.64 16.63)"><tspan x="0" y="0">Ciclo básico</tspan><tspan x="1.53" y="1.2">I a IV</tspan></text>
  <text class="cls-6" transform="translate(76.92 16.63)"><tspan x="0" y="0">Ciclo profesional</tspan><tspan x="2.33" y="1.2">IX a X</tspan></text>
  <path class="cls-2" d="M35.81,11.79h28.39v.66c0,.26-.21.47-.47.47h-27.44c-.26,0-.47-.21-.47-.47v-.66h0Z"/>
</svg>