<?xml version="1.0" encoding="UTF-8"?>
<svg xmlns="http://www.w3.org/2000/svg" viewBox="0 0 100.31 30.42">
  <defs>
    <style>
      .cls-1 {
        font-size: 1px;
      }

      .cls-1, .cls-2 {
        font-family: ArialMT, Arial;
      }

      .cls-3 {
        fill: #393f95;
      }

      .cls-4, .cls-5, .cls-6 {
        fill: none;
      }

      .cls-4, .cls-7 {
        font-family: Arial-BoldMT, Arial;
        font-size: 1.5px;
        font-weight: 700;
      }

      .cls-8, .cls-9 {
        fill: #ff5432;
      }

      .cls-8, .cls-6 {
        stroke: #1d1d1b;
        stroke-miterlimit: 10;
        stroke-width: .5px;
      }

      .cls-10 {
        letter-spacing: -.02em;
      }

      .cls-11 {
        fill: #ffa300;
      }

      .cls-12 {
        letter-spacing: -.11em;
      }

      .cls-13 {
        fill: #ffe7b6;
      }

      .cls-14 {
        font-family: Arial-ItalicMT, Arial;
        font-style: italic;
      }

      .cls-15 {
        letter-spacing: 0em;
      }

      .cls-16 {
        font-size: 2px;
      }

      .cls-17 {
        fill: #d1cfe8;
      }

      .cls-18 {
        fill: #ffd3cc;
      }
    </style>
  </defs>
  <g id="Cuadros">
    <g>
      <rect class="cls-18" x="35.69" y="9.78" width="30.15" height="8.59"/>
      <rect class="cls-9" x="35.69" y="17.45" width="30.15" height="1.28"/>
    </g>
    <g>
      <rect class="cls-5" x=".31" y="9.78" width="30.15" height="8.59"/>
      <rect class="cls-5" x=".31" y="17.45" width="30.15" height="1.28"/>
    </g>
    <g>
      <rect class="cls-18" x="70.17" y="9.78" width="30.15" height="8.59"/>
      <rect class="cls-9" x="70.17" y="17.45" width="30.15" height="1.28"/>
    </g>
    <g>
      <rect class="cls-5" x="70.17" width="30.15" height="8.59"/>
      <rect class="cls-5" x="70.17" y="7.67" width="30.15" height="1.28"/>
    </g>
    <g>
      <rect class="cls-5" x="35.69" width="30.15" height="8.59"/>
      <rect class="cls-5" x="35.69" y="7.67" width="30.15" height="1.28"/>
    </g>
    <text class="cls-7" transform="translate(39.31 14.61)"><tspan x="0" y="0">Seminario de Licenciatura I y II</tspan></text>
    <text class="cls-7" transform="translate(76.84 14.61)"><tspan x="0" y="0">Proyecto de </tspan><tspan class="cls-10" x="9" y="0">T</tspan><tspan class="cls-15" x="9.89" y="0">itulo I y II </tspan></text>
    <g>
      <g>
        <rect class="cls-13" x="21.65" y="28.29" width="2" height="1.92"/>
        <rect class="cls-11" x="21.65" y="30" width="2" height=".29"/>
      </g>
      <text class="cls-1" transform="translate(24.33 29.67) scale(1.1 1)"><tspan x="0" y="0">Mención industrial y servicios</tspan></text>
    </g>
    <g>
      <g>
        <rect class="cls-17" x="41.11" y="28.24" width="2" height="1.92"/>
        <rect class="cls-3" x="41.11" y="29.95" width="2" height=".29"/>
      </g>
      <text class="cls-1" transform="translate(43.83 29.66) scale(1.1 1)"><tspan x="0" y="0">Mención visualidad y medios</tspan></text>
    </g>
    <g>
      <g>
        <rect class="cls-18" x="60.44" y="28.34" width="2" height="1.92"/>
        <rect class="cls-9" x="60.44" y="30.06" width="2" height=".29"/>
      </g>
      <text class="cls-1" transform="translate(63.15 29.65) scale(1.1 1)"><tspan x="0" y="0">Ambas menciones</tspan></text>
    </g>
    <g>
      <text class="cls-1" transform="translate(11.58 29.67) scale(1.1 1)"><tspan x="0" y="0">Electivo troncal</tspan></text>
      <text class="cls-7" transform="translate(8.95 29.86)"><tspan x="0" y="0">E</tspan><tspan class="cls-12" x="1" y="0">T</tspan><tspan x="1.75" y="0">.</tspan></text>
    </g>
    <g>
      <text class="cls-1" transform="translate(2.64 29.67) scale(1.1 1)"><tspan x="0" y="0">Electivo</tspan></text>
      <text class="cls-7" transform="translate(.3 29.86)"><tspan x="0" y="0">E.</tspan></text>
    </g>
    <text class="cls-4" transform="translate(44.93 4.75)"><tspan x="0" y="0">Práctica Laboral</tspan></text>
    <text class="cls-4" transform="translate(78.03 4.63)"><tspan x="0" y="0">Práctica Profesional </tspan></text>
    <text class="cls-4" transform="translate(11.12 14.31)"><tspan x="0" y="0">Proyecto IV</tspan></text>
  </g>
  <g id="Línea">
    <g>
      <line class="cls-6" x1="15.39" y1="21.4" x2="15.39" y2="18.6"/>
      <line class="cls-8" x1=".31" y1="18.73" x2="100.31" y2="18.73"/>
      <line class="cls-6" x1="50.31" y1="21.53" x2="50.31" y2="18.73"/>
      <line class="cls-6" x1="85.24" y1="21.53" x2="85.24" y2="18.73"/>
    </g>
    <text class="cls-16" transform="translate(10.6 23.95)"><tspan class="cls-2"><tspan x="0" y="0">Ciclo básico</tspan></tspan><tspan class="cls-14"><tspan x="3.06" y="2">I a IV</tspan></tspan></text>
    <text class="cls-16" transform="translate(41.68 23.86)"><tspan class="cls-2"><tspan x="0" y="0">Ciclo Especializado</tspan></tspan><tspan class="cls-14"><tspan x="5.39" y="2">V a VIII</tspan></tspan></text>
    <text class="cls-16" transform="translate(77.85 23.85)"><tspan class="cls-2"><tspan x="0" y="0">Ciclo profesional</tspan></tspan><tspan class="cls-14"><tspan x="4.67" y="2">IX a X</tspan></tspan></text>
  </g>
</svg>