<?xml version="1.0" encoding="UTF-8"?>
<svg id="Capa_1" data-name="Capa 1" xmlns="http://www.w3.org/2000/svg" viewBox="0 0 100 20">
  <defs>
    <style>
      .cls-1, .cls-2, .cls-3, .cls-4, .cls-5, .cls-6, .cls-7, .cls-8, .cls-9 {
        isolation: isolate;
      }

      .cls-1, .cls-5 {
        font-family: Arial-BoldMT, Arial;
        font-size: 1.5px;
        font-weight: 700;
      }

      .cls-3, .cls-4, .cls-7, .cls-9 {
        font-family: ArialMT, Arial;
      }

      .cls-3, .cls-6 {
        font-size: 2px;
      }

      .cls-10 {
        letter-spacing: -.08em;
      }

      .cls-4 {
        fill: #444;
      }

      .cls-4, .cls-7, .cls-9 {
        font-size: 1px;
      }

      .cls-11 {
        letter-spacing: -.02em;
      }

      .cls-5 {
        letter-spacing: -.02em;
      }

      .cls-6 {
        font-family: Arial-ItalicMT, Arial;
        font-style: italic;
      }

      .cls-7 {
        fill: #1d1d1b;
      }

      .cls-8 {
        opacity: .5;
      }

      .cls-8, .cls-12 {
        fill: #f7ce65;
      }

      .cls-13 {
        fill: none;
        stroke: #1d1d1b;
        stroke-miterlimit: 10;
        stroke-width: .5px;
      }
    </style>
  </defs>
  <g id="Simbología">
    <g>
      <rect class="cls-8" y="18" width="2" height="1.92"/>
      <rect class="cls-12" y="19.71" width="2" height=".29"/>
    </g>
    <g class="cls-2">
      <text class="cls-9" transform="translate(2.68 19.39) scale(1.1 1)"><tspan x="0" y="0">Mención industrial y servicios</tspan></text>
    </g>
  </g>
  <g id="Cuadros">
    <g>
      <rect class="cls-8" x="69.84" y="-.02" width="30.15" height="8.25"/>
      <rect class="cls-12" x="69.84" y="7.43" width="30.15" height="1.49"/>
    </g>
    <g>
      <rect class="cls-8" x="34.93" y="-.02" width="30.15" height="8.24"/>
      <rect class="cls-12" x="34.93" y="7.43" width="30.15" height="1.49"/>
    </g>
    <g class="cls-2">
      <text class="cls-1" transform="translate(39.21 3.48)"><tspan x="0" y="0">Seminario de Licenciatura I y II </tspan></text>
      <text class="cls-4" transform="translate(38.93 4.98)"><tspan x="0" y="0">(Segundo semestre-2024 y Primer semestre-2025)</tspan></text>
    </g>
    <g class="cls-2">
      <text class="cls-1" transform="translate(76.92 3.51)"><tspan x="0" y="0">Proyecto de </tspan></text>
      <text class="cls-5" transform="translate(85.92 3.51)"><tspan x="0" y="0">T</tspan></text>
      <text class="cls-1" transform="translate(86.81 3.51)"><tspan x="0" y="0">itulo I y II</tspan></text>
      <text class="cls-4" transform="translate(73.83 5.01)"><tspan x="0" y="0">(Segundo semestre-2024 y Primer semestre-2025)</tspan></text>
    </g>
    <g class="cls-2">
      <text class="cls-7" transform="translate(44.62 8.43)"><tspan class="cls-11" x="0" y="0">(</tspan><tspan class="cls-10" x=".31" y="0">A</tspan></text>
      <text class="cls-7" transform="translate(45.49 8.43)"><tspan x="0" y="0">UD7I002) | </tspan></text>
      <text class="cls-7" transform="translate(50.38 8.43)"><tspan class="cls-11" x="0" y="0">(</tspan><tspan class="cls-10" x=".31" y="0">A</tspan></text>
      <text class="cls-7" transform="translate(51.25 8.43)"><tspan x="0" y="0">UD8I001)</tspan></text>
    </g>
    <g class="cls-2">
      <text class="cls-7" transform="translate(79.71 8.46)"><tspan class="cls-11" x="0" y="0">(</tspan><tspan class="cls-10" x=".31" y="0">A</tspan></text>
      <text class="cls-7" transform="translate(80.58 8.46)"><tspan x="0" y="0">UD9I001) | </tspan></text>
      <text class="cls-7" transform="translate(85.37 8.46)"><tspan class="cls-11" x="0" y="0">(</tspan><tspan class="cls-10" x=".31" y="0">A</tspan></text>
      <text class="cls-7" transform="translate(86.24 8.46)"><tspan x="0" y="0">U</tspan></text>
      <text class="cls-7" transform="translate(86.92 8.46)"><tspan x="0" y="0">D</tspan></text>
      <text class="cls-7" transform="translate(87.58 8.46)"><tspan x="0" y="0">10I01)</tspan></text>
    </g>
  </g>
  <g id="Línea">
    <g>
      <line class="cls-13" x1="15.07" y1="11.83" x2="15.07" y2="9.03"/>
      <line class="cls-13" y1="9.16" x2="100" y2="9.16"/>
      <line class="cls-13" x1="50" y1="11.95" x2="50" y2="9.16"/>
      <line class="cls-13" x1="84.93" y1="11.95" x2="84.93" y2="9.16"/>
    </g>
    <g class="cls-2">
      <text class="cls-3" transform="translate(10.28 14.02)"><tspan x="0" y="0">Ciclo básico</tspan></text>
      <text class="cls-6" transform="translate(8.78 16.02)"><tspan x="0" y="0">Semestre I a IV</tspan></text>
    </g>
    <g class="cls-2">
      <text class="cls-3" transform="translate(41.33 14.06)"><tspan x="0" y="0">Ciclo Especializado</tspan></text>
      <text class="cls-6" transform="translate(42.16 16.06)"><tspan x="0" y="0">Semestre V a VIII</tspan></text>
    </g>
    <g class="cls-2">
      <text class="cls-3" transform="translate(77.42 14.05)"><tspan x="0" y="0">Ciclo Profesional</tspan></text>
      <text class="cls-6" transform="translate(77.64 16.05)"><tspan x="0" y="0">Semestre IX a X</tspan></text>
    </g>
  </g>
</svg>