<?xml version="1.0" encoding="UTF-8"?>
<svg id="Capa_1" data-name="Capa 1" xmlns="http://www.w3.org/2000/svg" viewBox="0 0 100 30">
  <defs>
    <style>
      .cls-1 {
        letter-spacing: 0em;
      }

      .cls-1, .cls-2, .cls-3, .cls-4, .cls-5, .cls-6, .cls-7, .cls-8, .cls-9, .cls-10, .cls-11, .cls-12 {
        isolation: isolate;
      }

      .cls-1, .cls-5, .cls-6, .cls-7, .cls-10, .cls-12 {
        font-family: ArialMT, Arial;
      }

      .cls-1, .cls-6 {
        fill: #fff;
      }

      .cls-1, .cls-6, .cls-7, .cls-10, .cls-12 {
        font-size: 1px;
      }

      .cls-2, .cls-8 {
        font-family: Arial-BoldMT, Arial;
        font-size: 1.5px;
        font-weight: 700;
      }

      .cls-13, .cls-14 {
        fill: none;
      }

      .cls-15, .cls-3 {
        fill: #1f5592;
      }

      .cls-3, .cls-11 {
        opacity: .5;
      }

      .cls-5, .cls-9 {
        font-size: 2px;
      }

      .cls-16 {
        letter-spacing: -.08em;
      }

      .cls-7 {
        fill: #444;
      }

      .cls-17 {
        letter-spacing: -.02em;
      }

      .cls-8 {
        letter-spacing: -.02em;
      }

      .cls-9 {
        font-family: Arial-ItalicMT, Arial;
        font-style: italic;
      }

      .cls-10 {
        fill: #1d1d1b;
      }

      .cls-11, .cls-18 {
        fill: #f7ce65;
      }

      .cls-14 {
        stroke: #1d1d1b;
        stroke-miterlimit: 10;
        stroke-width: .5px;
      }
    </style>
  </defs>
  <g>
    <rect class="cls-11" x="69.84" y="9.77" width="30.15" height="8.25"/>
    <rect class="cls-18" x="69.84" y="17.22" width="30.15" height="1.49"/>
  </g>
  <g>
    <rect class="cls-11" x="34.93" y="9.77" width="30.15" height="8.24"/>
    <rect class="cls-18" x="34.93" y="17.22" width="30.15" height="1.49"/>
  </g>
  <g class="cls-4">
    <text class="cls-2" transform="translate(39.21 13.27)"><tspan x="0" y="0">Seminario de Licenciatura I y II </tspan></text>
    <text class="cls-7" transform="translate(38.93 14.77)"><tspan x="0" y="0">(Segundo semestre-2024 y Primer semestre-2025)</tspan></text>
  </g>
  <g class="cls-4">
    <text class="cls-2" transform="translate(76.92 13.3)"><tspan x="0" y="0">Proyecto de </tspan></text>
    <text class="cls-8" transform="translate(85.92 13.3)"><tspan x="0" y="0">T</tspan></text>
    <text class="cls-2" transform="translate(86.81 13.3)"><tspan x="0" y="0">itulo I y II</tspan></text>
    <text class="cls-7" transform="translate(73.83 14.8)"><tspan x="0" y="0">(Segundo semestre-2024 y Primer semestre-2025)</tspan></text>
  </g>
  <g>
    <g>
      <rect class="cls-3" x="34.93" y="0" width="30.15" height="8.2"/>
      <rect class="cls-15" x="34.93" y="7.43" width="30.15" height="1.5"/>
    </g>
    <g class="cls-4">
      <text class="cls-2" transform="translate(40.46 3.5)"><tspan x="0" y="0">Seminario de Licenciatura I</tspan></text>
      <text class="cls-7" transform="translate(44.93 5)"><tspan x="0" y="0">(Primer semestre-2025)</tspan></text>
    </g>
    <g class="cls-4">
      <text class="cls-6" transform="translate(47.3 8.49)"><tspan class="cls-17" x="0" y="0">(</tspan><tspan class="cls-16" x=".31" y="0">A</tspan></text>
      <text class="cls-6" transform="translate(48.17 8.49)"><tspan x="0" y="0">UD7</tspan></text>
      <text class="cls-1" transform="translate(50.02 8.49)"><tspan x="0" y="0">V</tspan></text>
      <text class="cls-6" transform="translate(50.62 8.49)"><tspan x="0" y="0">002)</tspan></text>
    </g>
  </g>
  <g>
    <rect class="cls-13" x="69.84" y="0" width="30.15" height="8.25"/>
    <rect class="cls-13" x="69.84" y="7.44" width="30.15" height="1.49"/>
  </g>
  <g class="cls-4">
    <text class="cls-10" transform="translate(44.62 18.25)"><tspan class="cls-17" x="0" y="0">(</tspan><tspan class="cls-16" x=".31" y="0">A</tspan></text>
    <text class="cls-10" transform="translate(45.49 18.25)"><tspan x="0" y="0">UD7I002) | </tspan></text>
    <text class="cls-10" transform="translate(50.38 18.25)"><tspan class="cls-17" x="0" y="0">(</tspan><tspan class="cls-16" x=".31" y="0">A</tspan></text>
    <text class="cls-10" transform="translate(51.25 18.25)"><tspan x="0" y="0">UD8I001)</tspan></text>
  </g>
  <g class="cls-4">
    <text class="cls-10" transform="translate(79.71 18.25)"><tspan class="cls-17" x="0" y="0">(</tspan><tspan class="cls-16" x=".31" y="0">A</tspan></text>
    <text class="cls-10" transform="translate(80.58 18.25)"><tspan x="0" y="0">UD9I001) | </tspan></text>
    <text class="cls-10" transform="translate(85.37 18.25)"><tspan class="cls-17" x="0" y="0">(</tspan><tspan class="cls-16" x=".31" y="0">A</tspan></text>
    <text class="cls-10" transform="translate(86.24 18.25)"><tspan x="0" y="0">U</tspan></text>
    <text class="cls-10" transform="translate(86.92 18.25)"><tspan x="0" y="0">D</tspan></text>
    <text class="cls-10" transform="translate(87.58 18.25)"><tspan x="0" y="0">10I01)</tspan></text>
  </g>
  <g>
    <rect class="cls-13" y="9.77" width="30.15" height="8.24"/>
    <rect class="cls-13" y="17.22" width="30.15" height="1.49"/>
  </g>
  <rect class="cls-13" y="7.42" width="30.15" height="1.49"/>
  <g>
    <g id="Simbología">
      <g>
        <rect class="cls-11" y="28" width="2" height="1.92"/>
        <rect class="cls-18" y="29.71" width="2" height=".29"/>
      </g>
      <g class="cls-4">
        <text class="cls-12" transform="translate(2.68 29.39) scale(1.1 1)"><tspan x="0" y="0">Mención industrial y servicios</tspan></text>
      </g>
    </g>
    <g>
      <g>
        <rect class="cls-3" x="19.34" y="27.99" width="2" height="1.92"/>
        <rect class="cls-15" x="19.34" y="29.71" width="2" height=".29"/>
      </g>
      <g class="cls-4">
        <text class="cls-12" transform="translate(22.06 29.37) scale(1.1 1)"><tspan x="0" y="0">Mención visualidad y medios</tspan></text>
      </g>
    </g>
  </g>
  <g id="Línea">
    <g>
      <line class="cls-14" x1="15.07" y1="21.62" x2="15.07" y2="18.82"/>
      <line class="cls-14" y1="18.95" x2="100" y2="18.95"/>
      <line class="cls-14" x1="50" y1="21.74" x2="50" y2="18.95"/>
      <line class="cls-14" x1="84.93" y1="21.74" x2="84.93" y2="18.95"/>
    </g>
    <g class="cls-4">
      <text class="cls-5" transform="translate(10.28 23.81)"><tspan x="0" y="0">Ciclo básico</tspan></text>
      <text class="cls-9" transform="translate(8.78 25.81)"><tspan x="0" y="0">Semestre I a IV</tspan></text>
    </g>
    <g class="cls-4">
      <text class="cls-5" transform="translate(41.33 23.85)"><tspan x="0" y="0">Ciclo Especializado</tspan></text>
      <text class="cls-9" transform="translate(42.16 25.85)"><tspan x="0" y="0">Semestre V a VIII</tspan></text>
    </g>
    <g class="cls-4">
      <text class="cls-5" transform="translate(77.42 23.84)"><tspan x="0" y="0">Ciclo Profesional</tspan></text>
      <text class="cls-9" transform="translate(77.64 25.84)"><tspan x="0" y="0">Semestre IX a X</tspan></text>
    </g>
  </g>
</svg>