<?xml version="1.0" encoding="utf-8"?>
<!-- Generator: Adobe Illustrator 28.1.0, SVG Export Plug-In . SVG Version: 6.00 Build 0)  -->
<svg version="1.1" id="Layer_1" xmlns="http://www.w3.org/2000/svg" xmlns:xlink="http://www.w3.org/1999/xlink" x="0px" y="0px"
	 viewBox="0 0 100 40" style="enable-background:new 0 0 100 40;" xml:space="preserve">
<style type="text/css">
	.st0{fill:#F8BAB2;}
	.st1{fill:#EC552E;}
	.st2{fill:none;stroke:#000000;stroke-miterlimit:10;}
	.st3{fill:none;}
	.st4{font-family:'ArialMT';}
	.st5{font-size:2.5px;}
	.st6{font-family:'ArialNarrow';}
	.st7{fill:none;stroke:#000000;stroke-width:4;stroke-miterlimit:10;}
</style>
<rect x="32.41" y="9.94" class="st0" width="31.26" height="4.09"/>
<rect x="32.44" y="14.04" class="st1" width="31.26" height="1.28"/>
<rect x="32.55" y="16.57" class="st0" width="31.26" height="7.8"/>
<rect x="32.55" y="24.16" class="st1" width="31.26" height="0.93"/>
<line class="st2" x1="0" y1="25.62" x2="100" y2="25.62"/>
<rect x="39.49" y="18.24" class="st3" width="27.02" height="9.56"/>
<text transform="matrix(1 0 0 1 39.4894 20.0353)"><tspan x="0" y="0" class="st4 st5">Seminario de </tspan><tspan x="0" y="3" class="st4 st5">licenciatura I Y II</tspan></text>
<g>
	<g>
		<path d="M6.2,29.38c-0.09-0.05-0.17-0.13-0.22-0.23c-0.05-0.1-0.08-0.22-0.08-0.35v-0.49c0-0.13,0.03-0.25,0.08-0.35
			c0.05-0.1,0.12-0.18,0.22-0.23c0.09-0.05,0.2-0.08,0.32-0.08c0.1,0,0.2,0.02,0.28,0.07c0.09,0.04,0.16,0.11,0.21,0.18
			c0.06,0.08,0.1,0.17,0.12,0.28H6.88c-0.02-0.06-0.04-0.1-0.08-0.15c-0.04-0.04-0.08-0.08-0.13-0.1s-0.1-0.04-0.15-0.04
			c-0.07,0-0.14,0.02-0.19,0.05c-0.05,0.04-0.1,0.08-0.13,0.15c-0.03,0.06-0.04,0.14-0.04,0.22v0.49c0,0.08,0.01,0.16,0.04,0.22
			s0.07,0.11,0.13,0.15c0.05,0.04,0.12,0.05,0.19,0.05c0.05,0,0.1-0.01,0.15-0.03c0.05-0.02,0.09-0.05,0.13-0.1
			c0.04-0.04,0.06-0.09,0.08-0.15h0.25c-0.02,0.1-0.06,0.2-0.12,0.28c-0.06,0.08-0.13,0.14-0.21,0.18
			c-0.08,0.04-0.18,0.07-0.28,0.07C6.4,29.46,6.29,29.44,6.2,29.38z"/>
		<path d="M7.46,27.67h0.25v0.25H7.46V27.67z M7.46,28.18h0.25v1.27H7.46V28.18z"/>
		<path d="M8.3,29.4c-0.08-0.04-0.14-0.11-0.19-0.19c-0.04-0.08-0.06-0.18-0.06-0.3v-0.21c0-0.11,0.02-0.21,0.06-0.29
			c0.04-0.08,0.11-0.14,0.19-0.19c0.08-0.04,0.18-0.06,0.3-0.06c0.07,0,0.13,0.01,0.19,0.02c0.06,0.02,0.11,0.04,0.16,0.07
			s0.08,0.07,0.12,0.11l-0.18,0.16c-0.04-0.04-0.08-0.07-0.13-0.09c-0.05-0.02-0.1-0.03-0.15-0.03c-0.1,0-0.17,0.03-0.22,0.08
			c-0.05,0.05-0.08,0.13-0.08,0.23v0.21c0,0.1,0.03,0.18,0.08,0.23c0.05,0.05,0.13,0.08,0.22,0.08c0.05,0,0.1-0.01,0.15-0.04
			s0.09-0.06,0.12-0.1l0.18,0.17c-0.03,0.04-0.07,0.08-0.12,0.11c-0.05,0.03-0.1,0.05-0.16,0.07s-0.12,0.02-0.18,0.02
			C8.49,29.46,8.39,29.44,8.3,29.4z"/>
		<path d="M9.58,29.12c0,0.03,0.01,0.05,0.02,0.07c0.01,0.02,0.03,0.03,0.06,0.03h0.12v0.24H9.63c-0.09,0-0.17-0.03-0.22-0.09
			s-0.08-0.14-0.08-0.25v-1.45h0.25V29.12z"/>
		<path d="M10.26,29.4c-0.08-0.04-0.14-0.11-0.18-0.19c-0.04-0.08-0.06-0.18-0.06-0.3v-0.21c0-0.12,0.02-0.21,0.06-0.29
			s0.1-0.14,0.18-0.19c0.08-0.04,0.17-0.06,0.28-0.06s0.2,0.02,0.28,0.06c0.08,0.04,0.14,0.1,0.18,0.19s0.06,0.18,0.06,0.29v0.21
			c0,0.12-0.02,0.21-0.06,0.3s-0.1,0.14-0.18,0.19s-0.17,0.06-0.28,0.06S10.34,29.44,10.26,29.4z M10.75,29.15
			c0.05-0.05,0.07-0.13,0.07-0.23v-0.21c0-0.1-0.02-0.17-0.07-0.23c-0.05-0.05-0.12-0.08-0.2-0.08s-0.15,0.03-0.2,0.08
			c-0.05,0.05-0.07,0.13-0.07,0.23v0.21c0,0.1,0.02,0.17,0.07,0.23c0.05,0.05,0.12,0.08,0.2,0.08S10.7,29.2,10.75,29.15z"/>
		<path d="M12.09,27.67h0.25v1.77h-0.25V27.67z M12.45,29.41c-0.06-0.04-0.1-0.09-0.13-0.16l0.02-0.26c0,0.05,0.01,0.1,0.03,0.14
			s0.05,0.07,0.08,0.09s0.08,0.03,0.13,0.03c0.08,0,0.15-0.03,0.19-0.08c0.05-0.05,0.07-0.12,0.07-0.21v-0.27
			c0-0.09-0.02-0.17-0.07-0.22c-0.04-0.05-0.11-0.08-0.19-0.08c-0.05,0-0.1,0.01-0.13,0.03s-0.07,0.05-0.08,0.09
			s-0.03,0.08-0.03,0.14l-0.03-0.24c0.04-0.07,0.09-0.13,0.15-0.17s0.13-0.06,0.21-0.06c0.09,0,0.17,0.02,0.23,0.06
			s0.11,0.1,0.15,0.18c0.03,0.08,0.05,0.17,0.05,0.28v0.28c0,0.11-0.02,0.2-0.05,0.28c-0.03,0.08-0.08,0.13-0.15,0.17
			c-0.07,0.04-0.15,0.06-0.24,0.06C12.58,29.46,12.51,29.45,12.45,29.41z"/>
		<path d="M13.51,29.37c-0.08-0.07-0.12-0.16-0.12-0.29c0-0.13,0.04-0.22,0.11-0.28c0.07-0.06,0.18-0.09,0.32-0.09h0.36l0.02,0.2
			h-0.38c-0.06,0-0.11,0.01-0.15,0.04c-0.03,0.03-0.05,0.07-0.05,0.13c0,0.06,0.02,0.11,0.06,0.14c0.04,0.03,0.11,0.05,0.19,0.05
			c0.1,0,0.17-0.01,0.21-0.03s0.07-0.05,0.07-0.09l0.03,0.18c-0.02,0.03-0.05,0.06-0.08,0.08c-0.03,0.02-0.07,0.04-0.11,0.05
			c-0.04,0.01-0.09,0.02-0.14,0.02C13.7,29.46,13.58,29.43,13.51,29.37z M14.17,28.64c0-0.08-0.02-0.15-0.07-0.19
			s-0.11-0.07-0.19-0.07c-0.05,0-0.1,0.01-0.15,0.02s-0.09,0.04-0.13,0.06l-0.18-0.12c0.05-0.06,0.11-0.1,0.19-0.13
			s0.17-0.05,0.26-0.05c0.1,0,0.19,0.02,0.27,0.06s0.13,0.09,0.17,0.16s0.06,0.16,0.06,0.25v0.81h-0.24V28.64z M13.78,27.81
			l0.35-0.43l0.18,0.15l-0.37,0.41L13.78,27.81z"/>
		<path d="M15.02,29.44c-0.07-0.01-0.13-0.04-0.18-0.07s-0.11-0.07-0.16-0.11l0.15-0.18c0.07,0.05,0.14,0.09,0.2,0.12
			c0.07,0.03,0.13,0.04,0.2,0.04c0.1,0,0.17-0.01,0.22-0.05c0.05-0.03,0.07-0.08,0.07-0.14c0-0.04-0.01-0.07-0.04-0.09
			s-0.06-0.03-0.1-0.04s-0.1-0.01-0.17-0.02c-0.01,0-0.01,0-0.02,0c-0.01,0-0.01,0-0.02,0c0,0-0.01,0-0.01,0c0,0-0.01,0-0.01,0
			c-0.08-0.01-0.15-0.02-0.21-0.04c-0.06-0.02-0.1-0.05-0.14-0.1c-0.04-0.05-0.06-0.12-0.06-0.21c0-0.09,0.02-0.16,0.05-0.22
			c0.04-0.06,0.09-0.1,0.16-0.13c0.07-0.03,0.16-0.04,0.27-0.04c0.07,0,0.13,0.01,0.19,0.02c0.06,0.01,0.12,0.03,0.17,0.05
			c0.05,0.02,0.11,0.05,0.16,0.09l-0.15,0.18c-0.06-0.04-0.13-0.07-0.19-0.09s-0.12-0.03-0.18-0.03c-0.08,0-0.15,0.01-0.19,0.04
			c-0.04,0.03-0.06,0.07-0.06,0.13c0,0.03,0.01,0.06,0.04,0.08c0.02,0.02,0.05,0.03,0.09,0.03s0.09,0.01,0.16,0.01
			c0,0,0.01,0,0.02,0s0.01,0,0.02,0c0,0,0,0,0.01,0s0,0,0.01,0c0.09,0.01,0.16,0.02,0.23,0.04c0.06,0.02,0.11,0.05,0.16,0.11
			s0.06,0.13,0.06,0.23c0,0.09-0.02,0.17-0.06,0.23c-0.04,0.06-0.1,0.1-0.18,0.13s-0.18,0.04-0.3,0.04
			C15.16,29.46,15.09,29.46,15.02,29.44z"/>
		<path d="M16.08,27.67h0.25v0.25h-0.25V27.67z M16.08,28.18h0.25v1.27h-0.25V28.18z"/>
		<path d="M16.92,29.4c-0.08-0.04-0.14-0.11-0.19-0.19c-0.04-0.08-0.06-0.18-0.06-0.3v-0.21c0-0.11,0.02-0.21,0.06-0.29
			c0.04-0.08,0.11-0.14,0.19-0.19c0.08-0.04,0.18-0.06,0.3-0.06c0.07,0,0.13,0.01,0.19,0.02c0.06,0.02,0.11,0.04,0.16,0.07
			s0.08,0.07,0.12,0.11l-0.18,0.16c-0.04-0.04-0.08-0.07-0.13-0.09c-0.05-0.02-0.1-0.03-0.15-0.03c-0.1,0-0.17,0.03-0.22,0.08
			c-0.05,0.05-0.08,0.13-0.08,0.23v0.21c0,0.1,0.03,0.18,0.08,0.23c0.05,0.05,0.13,0.08,0.22,0.08c0.05,0,0.1-0.01,0.15-0.04
			s0.09-0.06,0.12-0.1l0.18,0.17c-0.03,0.04-0.07,0.08-0.12,0.11c-0.05,0.03-0.1,0.05-0.16,0.07s-0.12,0.02-0.18,0.02
			C17.1,29.46,17,29.44,16.92,29.4z"/>
		<path d="M18.16,29.4c-0.08-0.04-0.14-0.11-0.18-0.19c-0.04-0.08-0.06-0.18-0.06-0.3v-0.21c0-0.12,0.02-0.21,0.06-0.29
			s0.1-0.14,0.18-0.19c0.08-0.04,0.17-0.06,0.28-0.06s0.2,0.02,0.28,0.06c0.08,0.04,0.14,0.1,0.18,0.19s0.06,0.18,0.06,0.29v0.21
			c0,0.12-0.02,0.21-0.06,0.3s-0.1,0.14-0.18,0.19s-0.17,0.06-0.28,0.06S18.23,29.44,18.16,29.4z M18.64,29.15
			c0.05-0.05,0.07-0.13,0.07-0.23v-0.21c0-0.1-0.02-0.17-0.07-0.23c-0.05-0.05-0.12-0.08-0.2-0.08s-0.15,0.03-0.2,0.08
			c-0.05,0.05-0.07,0.13-0.07,0.23v0.21c0,0.1,0.02,0.17,0.07,0.23c0.05,0.05,0.12,0.08,0.2,0.08S18.59,29.2,18.64,29.15z"/>
		<path d="M10.22,32.45H9.97v-1.77h0.25V32.45z"/>
		<path d="M11.36,32.37c-0.08-0.07-0.12-0.16-0.12-0.29c0-0.13,0.04-0.22,0.11-0.28c0.07-0.06,0.18-0.09,0.32-0.09h0.36l0.02,0.2
			h-0.38c-0.06,0-0.11,0.01-0.15,0.04c-0.03,0.03-0.05,0.07-0.05,0.13c0,0.06,0.02,0.11,0.06,0.14c0.04,0.03,0.11,0.05,0.19,0.05
			c0.1,0,0.17-0.01,0.21-0.03s0.07-0.05,0.07-0.09l0.03,0.18c-0.02,0.03-0.05,0.06-0.08,0.08c-0.03,0.02-0.07,0.04-0.11,0.05
			c-0.04,0.01-0.09,0.02-0.14,0.02C11.55,32.46,11.44,32.43,11.36,32.37z M12.02,31.64c0-0.08-0.02-0.15-0.07-0.19
			s-0.11-0.07-0.19-0.07c-0.05,0-0.1,0.01-0.15,0.02s-0.09,0.04-0.13,0.06l-0.18-0.12c0.05-0.06,0.11-0.1,0.19-0.13
			s0.17-0.05,0.26-0.05c0.1,0,0.19,0.02,0.27,0.06s0.13,0.09,0.17,0.16s0.06,0.16,0.06,0.25v0.81h-0.24V31.64z"/>
		<path d="M13.58,32.45h-0.25v-1.77h0.25V32.45z"/>
		<path d="M13.83,30.67h0.27l0.43,1.39l0.43-1.39h0.27l-0.58,1.77h-0.24L13.83,30.67z"/>
	</g>
</g>
<g>
	<g>
		<path d="M37.33,29.09c-0.09-0.05-0.17-0.13-0.22-0.23c-0.05-0.1-0.08-0.22-0.08-0.35v-0.49c0-0.13,0.03-0.25,0.08-0.35
			c0.05-0.1,0.12-0.18,0.22-0.23c0.09-0.05,0.2-0.08,0.32-0.08c0.1,0,0.2,0.02,0.28,0.07c0.09,0.04,0.16,0.11,0.21,0.18
			c0.06,0.08,0.1,0.17,0.12,0.28h-0.25c-0.02-0.06-0.04-0.1-0.08-0.15c-0.04-0.04-0.08-0.08-0.13-0.1s-0.1-0.04-0.15-0.04
			c-0.07,0-0.14,0.02-0.19,0.05c-0.05,0.04-0.1,0.08-0.13,0.15c-0.03,0.06-0.04,0.14-0.04,0.22v0.49c0,0.08,0.01,0.16,0.04,0.22
			s0.07,0.11,0.13,0.15c0.05,0.04,0.12,0.05,0.19,0.05c0.05,0,0.1-0.01,0.15-0.03c0.05-0.02,0.09-0.05,0.13-0.1
			c0.04-0.04,0.06-0.09,0.08-0.15h0.25c-0.02,0.1-0.06,0.2-0.12,0.28c-0.06,0.08-0.13,0.14-0.21,0.18
			c-0.08,0.04-0.18,0.07-0.28,0.07C37.53,29.17,37.42,29.14,37.33,29.09z"/>
		<path d="M38.6,27.38h0.25v0.25H38.6V27.38z M38.6,27.88h0.25v1.27H38.6V27.88z"/>
		<path d="M39.44,29.11c-0.08-0.04-0.14-0.11-0.19-0.19c-0.04-0.08-0.06-0.18-0.06-0.3v-0.21c0-0.11,0.02-0.21,0.06-0.29
			c0.04-0.08,0.11-0.14,0.19-0.19c0.08-0.04,0.18-0.06,0.3-0.06c0.07,0,0.13,0.01,0.19,0.02c0.06,0.02,0.11,0.04,0.16,0.07
			s0.08,0.07,0.12,0.11l-0.18,0.16c-0.04-0.04-0.08-0.07-0.13-0.09c-0.05-0.02-0.1-0.03-0.15-0.03c-0.1,0-0.17,0.03-0.22,0.08
			c-0.05,0.05-0.08,0.13-0.08,0.23v0.21c0,0.1,0.03,0.18,0.08,0.23c0.05,0.05,0.13,0.08,0.22,0.08c0.05,0,0.1-0.01,0.15-0.04
			s0.09-0.06,0.12-0.1l0.18,0.17c-0.03,0.04-0.07,0.08-0.12,0.11c-0.05,0.03-0.1,0.05-0.16,0.07s-0.12,0.02-0.18,0.02
			C39.62,29.17,39.52,29.15,39.44,29.11z"/>
		<path d="M40.72,28.82c0,0.03,0.01,0.05,0.02,0.07c0.01,0.02,0.03,0.03,0.06,0.03h0.12v0.24h-0.15c-0.09,0-0.17-0.03-0.22-0.09
			s-0.08-0.14-0.08-0.25v-1.45h0.25V28.82z"/>
		<path d="M41.4,29.11c-0.08-0.04-0.14-0.11-0.18-0.19c-0.04-0.08-0.06-0.18-0.06-0.3v-0.21c0-0.12,0.02-0.21,0.06-0.29
			s0.1-0.14,0.18-0.19c0.08-0.04,0.17-0.06,0.28-0.06s0.2,0.02,0.28,0.06c0.08,0.04,0.14,0.1,0.18,0.19s0.06,0.18,0.06,0.29v0.21
			c0,0.12-0.02,0.21-0.06,0.3s-0.1,0.14-0.18,0.19s-0.17,0.06-0.28,0.06S41.48,29.15,41.4,29.11z M41.88,28.85
			c0.05-0.05,0.07-0.13,0.07-0.23v-0.21c0-0.1-0.02-0.17-0.07-0.23c-0.05-0.05-0.12-0.08-0.2-0.08s-0.15,0.03-0.2,0.08
			c-0.05,0.05-0.07,0.13-0.07,0.23v0.21c0,0.1,0.02,0.17,0.07,0.23c0.05,0.05,0.12,0.08,0.2,0.08S41.83,28.91,41.88,28.85z"/>
		<path d="M43.45,29.1c-0.08-0.04-0.15-0.11-0.19-0.19s-0.07-0.19-0.07-0.31v-0.14c0-0.12,0.02-0.23,0.06-0.32s0.1-0.16,0.18-0.2
			c0.08-0.05,0.18-0.07,0.29-0.07c0.11,0,0.2,0.03,0.27,0.08c0.08,0.05,0.13,0.13,0.17,0.23c0.04,0.1,0.06,0.22,0.06,0.36v0.08
			h-0.85v-0.2h0.62c-0.01-0.1-0.03-0.18-0.08-0.24s-0.11-0.09-0.18-0.09c-0.09,0-0.17,0.03-0.22,0.09s-0.08,0.15-0.08,0.26v0.16
			c0,0.1,0.03,0.19,0.08,0.24c0.06,0.06,0.13,0.08,0.24,0.08c0.05,0,0.1-0.01,0.15-0.03s0.09-0.05,0.13-0.08l0.16,0.16
			c-0.06,0.06-0.13,0.11-0.21,0.14c-0.08,0.03-0.16,0.05-0.24,0.05C43.63,29.17,43.53,29.15,43.45,29.1z"/>
		<path d="M44.81,29.15c-0.07-0.01-0.13-0.04-0.18-0.07s-0.11-0.07-0.16-0.11l0.15-0.18c0.07,0.05,0.14,0.09,0.2,0.12
			c0.07,0.03,0.13,0.04,0.2,0.04c0.1,0,0.17-0.01,0.22-0.05c0.05-0.03,0.07-0.08,0.07-0.14c0-0.04-0.01-0.07-0.04-0.09
			s-0.06-0.03-0.1-0.04s-0.1-0.01-0.17-0.02c-0.01,0-0.01,0-0.02,0c-0.01,0-0.01,0-0.02,0c0,0-0.01,0-0.01,0c0,0-0.01,0-0.01,0
			c-0.08-0.01-0.15-0.02-0.21-0.04c-0.06-0.02-0.1-0.05-0.14-0.1c-0.04-0.05-0.06-0.12-0.06-0.21c0-0.09,0.02-0.16,0.05-0.22
			c0.04-0.06,0.09-0.1,0.16-0.13c0.07-0.03,0.16-0.04,0.27-0.04c0.07,0,0.13,0.01,0.19,0.02c0.06,0.01,0.12,0.03,0.17,0.05
			c0.05,0.02,0.11,0.05,0.16,0.09l-0.15,0.18c-0.06-0.04-0.13-0.07-0.19-0.09s-0.12-0.03-0.18-0.03c-0.08,0-0.15,0.01-0.19,0.04
			c-0.04,0.03-0.06,0.07-0.06,0.13c0,0.03,0.01,0.06,0.04,0.08c0.02,0.02,0.05,0.03,0.09,0.03s0.09,0.01,0.16,0.01
			c0,0,0.01,0,0.02,0s0.01,0,0.02,0c0,0,0,0,0.01,0s0,0,0.01,0c0.09,0.01,0.16,0.02,0.23,0.04c0.06,0.02,0.11,0.05,0.16,0.11
			s0.06,0.13,0.06,0.23c0,0.09-0.02,0.17-0.06,0.23c-0.04,0.06-0.1,0.1-0.18,0.13s-0.18,0.04-0.3,0.04
			C44.94,29.17,44.87,29.16,44.81,29.15z"/>
		<path d="M45.86,27.88h0.25v1.78h-0.25V27.88z M46.23,29.11c-0.06-0.04-0.1-0.09-0.13-0.16l0.02-0.26c0,0.05,0.01,0.1,0.03,0.14
			s0.05,0.07,0.08,0.09s0.08,0.03,0.13,0.03c0.08,0,0.15-0.03,0.19-0.08c0.05-0.05,0.07-0.12,0.07-0.21v-0.27
			c0-0.09-0.02-0.17-0.07-0.22c-0.04-0.05-0.11-0.08-0.19-0.08c-0.05,0-0.1,0.01-0.13,0.03s-0.07,0.05-0.08,0.09
			s-0.03,0.08-0.03,0.14l-0.03-0.24c0.04-0.07,0.09-0.13,0.15-0.17s0.13-0.06,0.21-0.06c0.09,0,0.17,0.02,0.23,0.06
			s0.11,0.1,0.15,0.18c0.03,0.08,0.05,0.17,0.05,0.28v0.28c0,0.11-0.02,0.2-0.05,0.28c-0.03,0.08-0.08,0.13-0.15,0.17
			c-0.07,0.04-0.15,0.06-0.24,0.06C46.35,29.17,46.28,29.15,46.23,29.11z"/>
		<path d="M47.44,29.1c-0.08-0.04-0.15-0.11-0.19-0.19s-0.07-0.19-0.07-0.31v-0.14c0-0.12,0.02-0.23,0.06-0.32s0.1-0.16,0.18-0.2
			c0.08-0.05,0.18-0.07,0.29-0.07c0.11,0,0.2,0.03,0.27,0.08c0.08,0.05,0.13,0.13,0.17,0.23c0.04,0.1,0.06,0.22,0.06,0.36v0.08
			h-0.85v-0.2h0.62c-0.01-0.1-0.03-0.18-0.08-0.24s-0.11-0.09-0.18-0.09c-0.09,0-0.17,0.03-0.22,0.09s-0.08,0.15-0.08,0.26v0.16
			c0,0.1,0.03,0.19,0.08,0.24c0.06,0.06,0.13,0.08,0.24,0.08c0.05,0,0.1-0.01,0.15-0.03s0.09-0.05,0.13-0.08l0.16,0.16
			c-0.06,0.06-0.13,0.11-0.21,0.14c-0.08,0.03-0.16,0.05-0.24,0.05C47.63,29.17,47.53,29.15,47.44,29.1z"/>
		<path d="M48.78,29.11c-0.08-0.04-0.14-0.11-0.19-0.19c-0.04-0.08-0.06-0.18-0.06-0.3v-0.21c0-0.11,0.02-0.21,0.06-0.29
			c0.04-0.08,0.11-0.14,0.19-0.19c0.08-0.04,0.18-0.06,0.3-0.06c0.07,0,0.13,0.01,0.19,0.02c0.06,0.02,0.11,0.04,0.16,0.07
			s0.08,0.07,0.12,0.11l-0.18,0.16c-0.04-0.04-0.08-0.07-0.13-0.09c-0.05-0.02-0.1-0.03-0.15-0.03c-0.1,0-0.17,0.03-0.22,0.08
			c-0.05,0.05-0.08,0.13-0.08,0.23v0.21c0,0.1,0.03,0.18,0.08,0.23c0.05,0.05,0.13,0.08,0.22,0.08c0.05,0,0.1-0.01,0.15-0.04
			s0.09-0.06,0.12-0.1l0.18,0.17c-0.03,0.04-0.07,0.08-0.12,0.11c-0.05,0.03-0.1,0.05-0.16,0.07s-0.12,0.02-0.18,0.02
			C48.96,29.17,48.86,29.15,48.78,29.11z"/>
		<path d="M49.81,27.38h0.25v0.25h-0.25V27.38z M49.81,27.88h0.25v1.27h-0.25V27.88z"/>
		<path d="M50.49,29.07c-0.08-0.07-0.12-0.16-0.12-0.29c0-0.13,0.04-0.22,0.11-0.28c0.07-0.06,0.18-0.09,0.32-0.09h0.36l0.02,0.2
			H50.8c-0.06,0-0.11,0.01-0.15,0.04c-0.03,0.03-0.05,0.07-0.05,0.13c0,0.06,0.02,0.11,0.06,0.14c0.04,0.03,0.11,0.05,0.19,0.05
			c0.1,0,0.17-0.01,0.21-0.03s0.07-0.05,0.07-0.09l0.03,0.18c-0.02,0.03-0.05,0.06-0.08,0.08c-0.03,0.02-0.07,0.04-0.11,0.05
			c-0.04,0.01-0.09,0.02-0.14,0.02C50.69,29.17,50.57,29.14,50.49,29.07z M51.15,28.35c0-0.08-0.02-0.15-0.07-0.19
			c-0.04-0.05-0.11-0.07-0.19-0.07c-0.05,0-0.1,0.01-0.15,0.02s-0.09,0.04-0.13,0.06l-0.18-0.12c0.05-0.06,0.11-0.1,0.19-0.13
			s0.17-0.05,0.26-0.05c0.1,0,0.19,0.02,0.27,0.06c0.07,0.04,0.13,0.09,0.17,0.16s0.06,0.16,0.06,0.25v0.81h-0.24V28.35z"/>
		<path d="M52.02,28.82c0,0.03,0.01,0.05,0.02,0.07s0.03,0.03,0.06,0.03h0.12v0.24h-0.15c-0.09,0-0.17-0.03-0.22-0.09
			s-0.08-0.14-0.08-0.25v-1.45h0.25V28.82z"/>
		<path d="M52.49,27.38h0.25v0.25h-0.25V27.38z M52.49,27.88h0.25v1.27h-0.25V27.88z"/>
		<path d="M53.99,28.09l-0.61,0.83h0.64v0.23h-0.94v-0.21l0.62-0.82H53.1v-0.23h0.89V28.09z"/>
		<path d="M54.41,29.07c-0.08-0.07-0.12-0.16-0.12-0.29c0-0.13,0.04-0.22,0.11-0.28c0.07-0.06,0.18-0.09,0.32-0.09h0.36l0.02,0.2
			h-0.38c-0.07,0-0.11,0.01-0.15,0.04c-0.03,0.03-0.05,0.07-0.05,0.13c0,0.06,0.02,0.11,0.06,0.14s0.11,0.05,0.19,0.05
			c0.1,0,0.17-0.01,0.21-0.03s0.07-0.05,0.07-0.09l0.03,0.18c-0.02,0.03-0.05,0.06-0.08,0.08c-0.03,0.02-0.07,0.04-0.11,0.05
			s-0.09,0.02-0.14,0.02C54.61,29.17,54.49,29.14,54.41,29.07z M55.07,28.35c0-0.08-0.02-0.15-0.07-0.19
			c-0.04-0.05-0.11-0.07-0.19-0.07c-0.05,0-0.1,0.01-0.15,0.02c-0.05,0.02-0.09,0.04-0.13,0.06l-0.18-0.12
			c0.05-0.06,0.11-0.1,0.19-0.13c0.08-0.03,0.17-0.05,0.26-0.05c0.1,0,0.19,0.02,0.27,0.06c0.07,0.04,0.13,0.09,0.17,0.16
			s0.06,0.16,0.06,0.25v0.81h-0.24V28.35z"/>
		<path d="M55.85,29.11c-0.07-0.04-0.12-0.1-0.15-0.18s-0.05-0.17-0.05-0.28v-0.28c0-0.11,0.02-0.2,0.05-0.28s0.08-0.14,0.15-0.18
			c0.06-0.04,0.14-0.06,0.23-0.06c0.08,0,0.14,0.02,0.21,0.06c0.06,0.04,0.11,0.09,0.15,0.17l-0.03,0.26c0-0.05-0.01-0.1-0.03-0.14
			s-0.05-0.07-0.08-0.09c-0.04-0.02-0.08-0.03-0.13-0.03c-0.08,0-0.15,0.03-0.19,0.08c-0.04,0.05-0.07,0.12-0.07,0.22v0.28
			c0,0.09,0.02,0.16,0.07,0.21c0.04,0.05,0.11,0.08,0.19,0.08c0.05,0,0.1-0.01,0.13-0.03c0.04-0.02,0.07-0.05,0.08-0.09
			s0.03-0.08,0.03-0.14l0.02,0.27c-0.03,0.06-0.07,0.12-0.12,0.16c-0.06,0.04-0.13,0.06-0.21,0.06C56,29.17,55.92,29.15,55.85,29.11
			z M56.41,27.38h0.25v1.77h-0.25V27.38z"/>
		<path d="M57.24,29.11c-0.08-0.04-0.14-0.11-0.18-0.19c-0.04-0.08-0.06-0.18-0.06-0.3v-0.21c0-0.12,0.02-0.21,0.06-0.29
			s0.1-0.14,0.18-0.19c0.08-0.04,0.17-0.06,0.28-0.06c0.11,0,0.2,0.02,0.28,0.06c0.08,0.04,0.14,0.1,0.18,0.19s0.06,0.18,0.06,0.29
			v0.21c0,0.12-0.02,0.21-0.06,0.3s-0.1,0.14-0.18,0.19s-0.17,0.06-0.28,0.06C57.41,29.17,57.32,29.15,57.24,29.11z M57.72,28.85
			c0.05-0.05,0.07-0.13,0.07-0.23v-0.21c0-0.1-0.02-0.17-0.07-0.23c-0.05-0.05-0.12-0.08-0.2-0.08s-0.15,0.03-0.2,0.08
			s-0.07,0.13-0.07,0.23v0.21c0,0.1,0.02,0.17,0.07,0.23s0.12,0.08,0.2,0.08S57.67,28.91,57.72,28.85z"/>
		<path d="M44.28,30.38h0.27l0.43,1.39l0.43-1.39h0.27l-0.58,1.77h-0.24L44.28,30.38z"/>
		<path d="M46.63,32.07c-0.08-0.07-0.12-0.16-0.12-0.29c0-0.13,0.04-0.22,0.11-0.28c0.07-0.06,0.18-0.09,0.32-0.09h0.36l0.02,0.2
			h-0.38c-0.06,0-0.11,0.01-0.15,0.04c-0.03,0.03-0.05,0.07-0.05,0.13c0,0.06,0.02,0.11,0.06,0.14c0.04,0.03,0.11,0.05,0.19,0.05
			c0.1,0,0.17-0.01,0.21-0.03s0.07-0.05,0.07-0.09l0.03,0.18c-0.02,0.03-0.05,0.06-0.08,0.08c-0.03,0.02-0.07,0.04-0.11,0.05
			c-0.04,0.01-0.09,0.02-0.14,0.02C46.82,32.17,46.71,32.14,46.63,32.07z M47.29,31.35c0-0.08-0.02-0.15-0.07-0.19
			s-0.11-0.07-0.19-0.07c-0.05,0-0.1,0.01-0.15,0.02s-0.09,0.04-0.13,0.06l-0.18-0.12c0.05-0.06,0.11-0.1,0.19-0.13
			s0.17-0.05,0.26-0.05c0.1,0,0.19,0.02,0.27,0.06s0.13,0.09,0.17,0.16s0.06,0.16,0.06,0.25v0.81h-0.24V31.35z"/>
		<path d="M48.42,30.38h0.27l0.43,1.39l0.43-1.39h0.27l-0.58,1.77H49L48.42,30.38z"/>
		<path d="M50.32,32.15h-0.25v-1.77h0.25V32.15z"/>
		<path d="M51.01,32.15h-0.25v-1.77h0.25V32.15z"/>
		<path d="M51.69,32.15h-0.25v-1.77h0.25V32.15z"/>
	</g>
</g>
<g>
	<g>
		<path d="M73.13,29.09c-0.09-0.05-0.17-0.13-0.22-0.23c-0.05-0.1-0.08-0.22-0.08-0.35v-0.49c0-0.13,0.03-0.25,0.08-0.35
			c0.05-0.1,0.12-0.18,0.22-0.23c0.09-0.05,0.2-0.08,0.32-0.08c0.1,0,0.2,0.02,0.28,0.07c0.08,0.04,0.16,0.11,0.21,0.18
			c0.06,0.08,0.1,0.17,0.12,0.28h-0.25c-0.02-0.06-0.04-0.1-0.08-0.15c-0.04-0.04-0.08-0.08-0.13-0.1s-0.1-0.04-0.15-0.04
			c-0.07,0-0.14,0.02-0.19,0.05c-0.05,0.04-0.1,0.08-0.13,0.15c-0.03,0.06-0.04,0.14-0.04,0.22v0.49c0,0.08,0.01,0.16,0.04,0.22
			s0.07,0.11,0.13,0.15c0.05,0.04,0.12,0.05,0.19,0.05c0.05,0,0.1-0.01,0.15-0.03c0.05-0.02,0.09-0.05,0.13-0.1
			c0.04-0.04,0.06-0.09,0.08-0.15h0.25c-0.02,0.1-0.06,0.2-0.12,0.28c-0.06,0.08-0.13,0.14-0.21,0.18
			c-0.08,0.04-0.18,0.07-0.28,0.07C73.33,29.17,73.22,29.14,73.13,29.09z"/>
		<path d="M74.4,27.38h0.25v0.25H74.4V27.38z M74.4,27.88h0.25v1.27H74.4V27.88z"/>
		<path d="M75.24,29.11c-0.08-0.04-0.14-0.11-0.19-0.19c-0.04-0.08-0.07-0.18-0.07-0.3v-0.21c0-0.11,0.02-0.21,0.07-0.29
			c0.04-0.08,0.11-0.14,0.19-0.19c0.08-0.04,0.18-0.06,0.3-0.06c0.07,0,0.13,0.01,0.19,0.02c0.06,0.02,0.11,0.04,0.16,0.07
			c0.05,0.03,0.08,0.07,0.12,0.11l-0.18,0.16c-0.04-0.04-0.08-0.07-0.13-0.09c-0.05-0.02-0.1-0.03-0.15-0.03
			c-0.1,0-0.17,0.03-0.22,0.08c-0.05,0.05-0.08,0.13-0.08,0.23v0.21c0,0.1,0.03,0.18,0.08,0.23s0.13,0.08,0.22,0.08
			c0.05,0,0.1-0.01,0.15-0.04s0.09-0.06,0.12-0.1L76,28.97c-0.03,0.04-0.07,0.08-0.12,0.11c-0.05,0.03-0.1,0.05-0.16,0.07
			c-0.06,0.02-0.12,0.02-0.18,0.02C75.42,29.17,75.32,29.15,75.24,29.11z"/>
		<path d="M76.52,28.82c0,0.03,0.01,0.05,0.02,0.07c0.01,0.02,0.03,0.03,0.06,0.03h0.12v0.24h-0.15c-0.09,0-0.17-0.03-0.22-0.09
			s-0.08-0.14-0.08-0.25v-1.45h0.25V28.82z"/>
		<path d="M77.2,29.11c-0.08-0.04-0.14-0.11-0.18-0.19c-0.04-0.08-0.06-0.18-0.06-0.3v-0.21c0-0.12,0.02-0.21,0.06-0.29
			s0.1-0.14,0.18-0.19c0.08-0.04,0.17-0.06,0.28-0.06c0.11,0,0.2,0.02,0.28,0.06c0.08,0.04,0.14,0.1,0.18,0.19S78,28.3,78,28.41
			v0.21c0,0.12-0.02,0.21-0.06,0.3s-0.1,0.14-0.18,0.19s-0.17,0.06-0.28,0.06C77.37,29.17,77.28,29.15,77.2,29.11z M77.68,28.85
			c0.05-0.05,0.07-0.13,0.07-0.23v-0.21c0-0.1-0.02-0.17-0.07-0.23c-0.05-0.05-0.12-0.08-0.2-0.08s-0.15,0.03-0.2,0.08
			s-0.07,0.13-0.07,0.23v0.21c0,0.1,0.02,0.17,0.07,0.23s0.12,0.08,0.2,0.08S77.63,28.91,77.68,28.85z"/>
		<path d="M79.03,27.88h0.25v1.78h-0.25V27.88z M79.39,29.11c-0.06-0.04-0.1-0.09-0.13-0.16l0.02-0.26c0,0.05,0.01,0.1,0.03,0.14
			s0.05,0.07,0.08,0.09s0.08,0.03,0.13,0.03c0.08,0,0.15-0.03,0.19-0.08c0.05-0.05,0.07-0.12,0.07-0.21v-0.27
			c0-0.09-0.02-0.17-0.07-0.22c-0.04-0.05-0.11-0.08-0.19-0.08c-0.05,0-0.1,0.01-0.13,0.03s-0.07,0.05-0.08,0.09
			s-0.03,0.08-0.03,0.14l-0.03-0.24c0.04-0.07,0.09-0.13,0.15-0.17c0.06-0.04,0.13-0.06,0.21-0.06c0.09,0,0.17,0.02,0.23,0.06
			c0.06,0.04,0.11,0.1,0.15,0.18c0.03,0.08,0.05,0.17,0.05,0.28v0.28c0,0.11-0.02,0.2-0.05,0.28c-0.03,0.08-0.08,0.13-0.15,0.17
			c-0.07,0.04-0.15,0.06-0.24,0.06C79.52,29.17,79.45,29.15,79.39,29.11z"/>
		<path d="M80.39,27.88h0.25v1.27h-0.25V27.88z M81,28.12c-0.03-0.01-0.07-0.02-0.12-0.02c-0.08,0-0.14,0.02-0.18,0.07
			c-0.04,0.04-0.07,0.1-0.07,0.18l-0.03-0.24c0.04-0.08,0.09-0.13,0.15-0.18s0.13-0.06,0.21-0.06c0.06,0,0.11,0.01,0.16,0.03
			s0.09,0.04,0.12,0.07l-0.16,0.22C81.06,28.16,81.03,28.14,81,28.12z"/>
		<path d="M81.66,29.11c-0.08-0.04-0.14-0.11-0.18-0.19c-0.04-0.08-0.06-0.18-0.06-0.3v-0.21c0-0.12,0.02-0.21,0.06-0.29
			s0.1-0.14,0.18-0.19c0.08-0.04,0.17-0.06,0.28-0.06c0.11,0,0.2,0.02,0.28,0.06c0.08,0.04,0.14,0.1,0.18,0.19s0.06,0.18,0.06,0.29
			v0.21c0,0.12-0.02,0.21-0.06,0.3s-0.1,0.14-0.18,0.19s-0.17,0.06-0.28,0.06C81.83,29.17,81.74,29.15,81.66,29.11z M82.14,28.85
			c0.05-0.05,0.07-0.13,0.07-0.23v-0.21c0-0.1-0.02-0.17-0.07-0.23s-0.12-0.08-0.2-0.08s-0.15,0.03-0.2,0.08
			c-0.05,0.05-0.07,0.13-0.07,0.23v0.21c0,0.1,0.02,0.17,0.07,0.23c0.05,0.05,0.12,0.08,0.2,0.08S82.09,28.91,82.14,28.85z"/>
		<path d="M82.72,27.88h0.63v0.21h-0.63V27.88z M82.85,27.71c0-0.11,0.03-0.2,0.08-0.25s0.13-0.08,0.24-0.08h0.18v0.24h-0.18
			c-0.02,0-0.04,0.01-0.05,0.03c-0.01,0.02-0.02,0.04-0.02,0.07v1.44h-0.25V27.71z"/>
		<path d="M83.83,29.1c-0.08-0.04-0.15-0.11-0.19-0.19c-0.04-0.08-0.07-0.19-0.07-0.31v-0.14c0-0.12,0.02-0.23,0.06-0.32
			s0.1-0.16,0.18-0.2c0.08-0.05,0.18-0.07,0.29-0.07c0.11,0,0.2,0.03,0.27,0.08c0.08,0.05,0.13,0.13,0.17,0.23
			c0.04,0.1,0.06,0.22,0.06,0.36v0.08h-0.85v-0.2h0.62c-0.01-0.1-0.03-0.18-0.08-0.24s-0.11-0.09-0.18-0.09
			c-0.09,0-0.17,0.03-0.22,0.09s-0.08,0.15-0.08,0.26v0.16c0,0.1,0.03,0.19,0.08,0.24c0.06,0.06,0.13,0.08,0.24,0.08
			c0.05,0,0.1-0.01,0.15-0.03s0.09-0.05,0.13-0.08l0.16,0.16c-0.06,0.06-0.13,0.11-0.21,0.14c-0.08,0.03-0.16,0.05-0.24,0.05
			C84.01,29.17,83.91,29.15,83.83,29.1z"/>
		<path d="M85.19,29.15c-0.07-0.01-0.13-0.04-0.18-0.07c-0.06-0.03-0.11-0.07-0.16-0.11l0.15-0.18c0.07,0.05,0.14,0.09,0.2,0.12
			c0.07,0.03,0.13,0.04,0.2,0.04c0.1,0,0.17-0.01,0.22-0.05c0.05-0.03,0.07-0.08,0.07-0.14c0-0.04-0.01-0.07-0.04-0.09
			c-0.03-0.02-0.06-0.03-0.1-0.04s-0.1-0.01-0.17-0.02c-0.01,0-0.01,0-0.02,0c-0.01,0-0.01,0-0.02,0c0,0-0.01,0-0.01,0
			c0,0-0.01,0-0.01,0c-0.08-0.01-0.15-0.02-0.21-0.04c-0.06-0.02-0.1-0.05-0.14-0.1c-0.04-0.05-0.06-0.12-0.06-0.21
			c0-0.09,0.02-0.16,0.05-0.22c0.04-0.06,0.09-0.1,0.16-0.13c0.07-0.03,0.16-0.04,0.27-0.04c0.07,0,0.13,0.01,0.19,0.02
			c0.06,0.01,0.12,0.03,0.17,0.05c0.05,0.02,0.11,0.05,0.16,0.09l-0.15,0.18c-0.06-0.04-0.13-0.07-0.19-0.09s-0.12-0.03-0.18-0.03
			c-0.08,0-0.15,0.01-0.19,0.04c-0.04,0.03-0.06,0.07-0.06,0.13c0,0.03,0.01,0.06,0.04,0.08c0.02,0.02,0.05,0.03,0.09,0.03
			c0.04,0.01,0.09,0.01,0.16,0.01c0,0,0.01,0,0.02,0c0,0,0.01,0,0.02,0c0,0,0,0,0.01,0c0,0,0,0,0.01,0
			c0.09,0.01,0.16,0.02,0.23,0.04c0.06,0.02,0.11,0.05,0.16,0.11c0.04,0.05,0.06,0.13,0.06,0.23c0,0.09-0.02,0.17-0.06,0.23
			c-0.04,0.06-0.1,0.1-0.18,0.13c-0.08,0.03-0.18,0.04-0.3,0.04C85.32,29.17,85.25,29.16,85.19,29.15z"/>
		<path d="M86.25,27.38h0.25v0.25h-0.25V27.38z M86.25,27.88h0.25v1.27h-0.25V27.88z"/>
		<path d="M87.08,29.11C87,29.06,86.94,29,86.9,28.92c-0.04-0.08-0.06-0.18-0.06-0.3v-0.21c0-0.12,0.02-0.21,0.06-0.29
			s0.1-0.14,0.18-0.19c0.08-0.04,0.17-0.06,0.28-0.06c0.11,0,0.2,0.02,0.28,0.06c0.08,0.04,0.14,0.1,0.18,0.19s0.06,0.18,0.06,0.29
			v0.21c0,0.12-0.02,0.21-0.06,0.3s-0.1,0.14-0.18,0.19s-0.17,0.06-0.28,0.06C87.25,29.17,87.16,29.15,87.08,29.11z M87.56,28.85
			c0.05-0.05,0.07-0.13,0.07-0.23v-0.21c0-0.1-0.02-0.17-0.07-0.23s-0.12-0.08-0.2-0.08s-0.15,0.03-0.2,0.08
			c-0.05,0.05-0.07,0.13-0.07,0.23v0.21c0,0.1,0.02,0.17,0.07,0.23c0.05,0.05,0.12,0.08,0.2,0.08S87.51,28.91,87.56,28.85z"/>
		<path d="M88.24,27.88h0.25v1.27h-0.25V27.88z M89,28.38c0-0.09-0.02-0.16-0.07-0.21c-0.05-0.05-0.11-0.07-0.2-0.07
			c-0.08,0-0.14,0.02-0.19,0.07c-0.04,0.04-0.07,0.1-0.07,0.18l-0.03-0.24c0.04-0.08,0.09-0.14,0.15-0.18
			c0.06-0.04,0.13-0.06,0.21-0.06c0.14,0,0.24,0.04,0.32,0.13s0.11,0.22,0.11,0.38v0.77H89V28.38z"/>
		<path d="M89.69,29.07c-0.08-0.07-0.12-0.16-0.12-0.29c0-0.13,0.04-0.22,0.11-0.28c0.07-0.06,0.18-0.09,0.32-0.09h0.36l0.02,0.2H90
			c-0.07,0-0.11,0.01-0.15,0.04c-0.03,0.03-0.05,0.07-0.05,0.13c0,0.06,0.02,0.11,0.06,0.14s0.11,0.05,0.19,0.05
			c0.1,0,0.17-0.01,0.21-0.03s0.07-0.05,0.07-0.09l0.03,0.18c-0.02,0.03-0.05,0.06-0.08,0.08c-0.03,0.02-0.07,0.04-0.11,0.05
			s-0.09,0.02-0.14,0.02C89.88,29.17,89.76,29.14,89.69,29.07z M90.35,28.35c0-0.08-0.02-0.15-0.07-0.19
			c-0.04-0.05-0.11-0.07-0.19-0.07c-0.05,0-0.1,0.01-0.15,0.02c-0.05,0.02-0.09,0.04-0.13,0.06l-0.18-0.12
			c0.05-0.06,0.11-0.1,0.19-0.13c0.08-0.03,0.17-0.05,0.26-0.05c0.1,0,0.19,0.02,0.27,0.06c0.07,0.04,0.13,0.09,0.17,0.16
			s0.06,0.16,0.06,0.25v0.81h-0.24V28.35z"/>
		<path d="M91.21,28.82c0,0.03,0.01,0.05,0.02,0.07s0.03,0.03,0.06,0.03h0.12v0.24h-0.15c-0.09,0-0.17-0.03-0.22-0.09
			s-0.08-0.14-0.08-0.25v-1.45h0.25V28.82z"/>
		<path d="M79.17,32.15h-0.25v-1.77h0.25V32.15z"/>
		<path d="M80.03,31.14l0.45-0.76h0.28l-0.59,0.96l-0.48,0.81h-0.28L80.03,31.14z M80.04,31.37L80,31.31l-0.58-0.93h0.28l0.43,0.72
			l0.04,0.07l0.61,0.99H80.5L80.04,31.37z"/>
		<path d="M81.73,32.07c-0.08-0.07-0.12-0.16-0.12-0.29c0-0.13,0.04-0.22,0.11-0.28c0.07-0.06,0.18-0.09,0.32-0.09h0.36l0.02,0.2
			h-0.38c-0.07,0-0.11,0.01-0.15,0.04c-0.03,0.03-0.05,0.07-0.05,0.13c0,0.06,0.02,0.11,0.06,0.14s0.11,0.05,0.19,0.05
			c0.1,0,0.17-0.01,0.21-0.03s0.07-0.05,0.07-0.09l0.03,0.18c-0.02,0.03-0.05,0.06-0.08,0.08c-0.03,0.02-0.07,0.04-0.11,0.05
			s-0.09,0.02-0.14,0.02C81.92,32.17,81.8,32.14,81.73,32.07z M82.39,31.35c0-0.08-0.02-0.15-0.07-0.19
			c-0.04-0.05-0.11-0.07-0.19-0.07c-0.05,0-0.1,0.01-0.15,0.02c-0.05,0.02-0.09,0.04-0.13,0.06l-0.18-0.12
			c0.05-0.06,0.11-0.1,0.19-0.13c0.08-0.03,0.17-0.05,0.26-0.05c0.1,0,0.19,0.02,0.27,0.06c0.07,0.04,0.13,0.09,0.17,0.16
			s0.06,0.16,0.06,0.25v0.81h-0.24V31.35z"/>
		<path d="M84.12,31.14l0.45-0.76h0.28l-0.59,0.96l-0.48,0.81H83.5L84.12,31.14z M84.13,31.37l-0.04-0.06l-0.58-0.93h0.28l0.43,0.72
			l0.04,0.07l0.61,0.99h-0.28L84.13,31.37z"/>
	</g>
</g>
<rect x="40.74" y="11.13" class="st3" width="19.96" height="2.9"/>
<text transform="matrix(1 0 0 1 40.7399 12.9223)" class="st6 st5">Proyecto V y VI</text>
<rect x="67.74" y="24.16" class="st1" width="28.34" height="0.93"/>
<rect x="67.74" y="19.33" class="st0" width="28.34" height="4.83"/>
<rect x="70.35" y="20.71" class="st3" width="28.72" height="3.55"/>
<text transform="matrix(1 0 0 1 70.3522 22.5004)" class="st6 st5">Proyecto de Titulo I Y II</text>
<line class="st7" x1="13.18" y1="25.62" x2="13.18" y2="27.08"/>
<line class="st7" x1="48.04" y1="25.77" x2="48.04" y2="27.23"/>
<line class="st7" x1="82.45" y1="25.77" x2="82.45" y2="27.23"/>
</svg>
