<?xml version="1.0" encoding="UTF-8"?>
<svg id="Capa_1" data-name="Capa 1" xmlns="http://www.w3.org/2000/svg" viewBox="0 0 100 20">
  <rect x="75.56" y="11.77" width="14.32" height="2.31" fill="#ffd7cd" stroke-width="0"/>
  <rect x="45.58" y="12.39" width="15.72" height="2.61" fill="#ffd7cd" stroke-width="0"/>
  <text transform="translate(2.74 3.28)" fill="#301b82" font-family="Bahnschrift, Bahnschrift" font-size=".91" font-variation-settings="&apos;wght&apos; 400, &apos;wdth&apos; 100"><tspan x="0" y="0">Asignaturas impartidas</tspan></text>
  <text transform="translate(2.7 4.58)" fill="#301b82" font-family="Bahnschrift-Light, Bahnschrift" font-size=".81" font-variation-settings="&apos;wght&apos; 300, &apos;wdth&apos; 100" font-weight="300"><tspan x="0" y="0">Durante los ciclos de la car</tspan><tspan x="9.53" y="0" letter-spacing="0em">r</tspan><tspan x="9.87" y="0">era</tspan></text>
  <text transform="translate(20.16 17.81)" fill="#301b82" font-family="Bahnschrift, Bahnschrift" font-size="1.28" font-variation-settings="&apos;wght&apos; 400, &apos;wdth&apos; 100"><tspan x="0" y="0">Ciclo básico</tspan><tspan x="2.07" y="1.61">I a IV</tspan></text>
  <text transform="translate(48.17 17.83)" fill="#301b82" font-family="Bahnschrift, Bahnschrift" font-size="1.25" font-variation-settings="&apos;wght&apos; 400, &apos;wdth&apos; 100"><tspan x="0" y="0">Ciclo especializado</tspan><tspan x="3.49" y="1.58">V a VIII</tspan></text>
  <text transform="translate(78.68 17.93)" fill="#301b82" font-family="Bahnschrift, Bahnschrift" font-size="1.19" font-variation-settings="&apos;wght&apos; 400, &apos;wdth&apos; 100"><tspan x="0" y="0">Ciclo p</tspan><tspan x="3.47" y="0" letter-spacing="0em">r</tspan><tspan x="3.96" y="0">o</tspan><tspan x="4.61" y="0" letter-spacing="-.01em">f</tspan><tspan x="4.97" y="0">esional</tspan><tspan x="3.05" y="1.5">IX a X</tspan></text>
  <text transform="translate(46.25 13.96)" fill="#000" font-family="Bahnschrift-Light, Bahnschrift" font-size=".92" font-variation-settings="&apos;wght&apos; 300, &apos;wdth&apos; 100" font-weight="300"><tspan x="0" y="0">Seminario de Licenciatura I y II</tspan></text>
  <text transform="translate(76.18 13.26)" fill="#000" font-family="Bahnschrift-Light, Bahnschrift" font-size=".88" font-variation-settings="&apos;wght&apos; 300, &apos;wdth&apos; 100" font-weight="300"><tspan x="0" y="0" letter-spacing="-.02em">P</tspan><tspan x=".52" y="0" letter-spacing="-.01em">roy</tspan><tspan x="1.77" y="0">ecto de título I y II</tspan></text>
  <rect x="17" y="10.79" width="13" height="4.21" fill="#ffd7cd" stroke-width="0"/>
  <text transform="translate(17.67 12)" fill="#000" font-family="Bahnschrift-Light, Bahnschrift" font-size=".94" font-variation-settings="&apos;wght&apos; 300, &apos;wdth&apos; 100" font-weight="300"><tspan x="0" y="0">Comunicación del </tspan><tspan x="7.49" y="0" letter-spacing="-.02em">P</tspan><tspan x="8.06" y="0" letter-spacing="0em">roy</tspan><tspan x="9.4" y="0">ecto </tspan><tspan x="0" y="1.14">de Diseño</tspan></text>
  <rect x="17" y="6.64" width="13" height="3.36" fill="#ffd7cd" stroke-width="0"/>
  <text transform="translate(17.65 7.91)" fill="#000" font-family="Bahnschrift-Light, Bahnschrift" font-variation-settings="&apos;wght&apos; 300, &apos;wdth&apos; 100" font-weight="300"><tspan font-size=".94"><tspan x="0" y="0">Gestión del </tspan><tspan x="4.78" y="0" letter-spacing="-.02em">P</tspan><tspan x="5.34" y="0" letter-spacing="0em">roy</tspan><tspan x="6.68" y="0">ecto de </tspan></tspan><tspan x="0" y="1.21" font-size=".94">Diseño</tspan><tspan x="2.88" y="1.21" font-size="1.14" letter-spacing="1.54em">	</tspan></text>
  <rect x="45.58" y="8.28" width="15.72" height="2.91" fill="#dacaff" stroke-width="0"/>
  <rect x="45.58" y="5.1" width="15.72" height="1.98" fill="#ffd7cd" stroke-width="0"/>
  <text transform="translate(46.27 9.45)" fill="#000" font-family="Bahnschrift-Light, Bahnschrift" font-size=".92" font-variation-settings="&apos;wght&apos; 300, &apos;wdth&apos; 100" font-weight="300"><tspan x="0" y="0">Electi</tspan><tspan x="2.31" y="0" letter-spacing="0em">v</tspan><tspan x="2.76" y="0">o Mención I y </tspan><tspan x="8.05" y="0" letter-spacing="-.03em">S</tspan><tspan x="8.59" y="0">: </tspan><tspan x="0" y="1.12">Emp</tspan><tspan x="1.85" y="1.12" letter-spacing="0em">r</tspan><tspan x="2.23" y="1.12">endimiento basado en Diseño</tspan></text>
  <text transform="translate(46.28 6.49)" fill="#000" font-family="Bahnschrift-Light, Bahnschrift" font-size=".92" font-variation-settings="&apos;wght&apos; 300, &apos;wdth&apos; 100" font-weight="300"><tspan x="0" y="0" letter-spacing="-.04em">P</tspan><tspan x=".54" y="0">orta</tspan><tspan x="2.23" y="0" letter-spacing="-.01em">f</tspan><tspan x="2.51" y="0" letter-spacing="0em">olios e Inducción </tspan><tspan x="9.42" y="0" letter-spacing="0em">laboral</tspan></text>
  <rect x="45.58" y="1" width="15.72" height="2.91" fill="#dacaff" stroke-width="0"/>
  <text transform="translate(46.1 2.22)" fill="#000" font-family="Bahnschrift-Light, Bahnschrift" font-size=".92" font-variation-settings="&apos;wght&apos; 300, &apos;wdth&apos; 100" font-weight="300"><tspan x="0" y="0">Electi</tspan><tspan x="2.31" y="0" letter-spacing="0em">v</tspan><tspan x="2.76" y="0">o Ambas Menciones: </tspan><tspan x="0" y="1.12">Estrategias de Ecodiseño</tspan></text>
  <line x1="2.7" y1="15.48" x2="97.75" y2="15.48" fill="#301b82" stroke="#301b82" stroke-miterlimit="10" stroke-width=".5"/>
  <line x1="17" y1="10" x2="30" y2="10" fill="none" stroke="#ff5509" stroke-miterlimit="10" stroke-width=".75"/>
  <line x1="17" y1="14.5" x2="30" y2="14.5" fill="none" stroke="#ff5509" stroke-miterlimit="10" stroke-width=".86"/>
  <line x1="45.58" y1="15" x2="61.29" y2="15" fill="#ffd7cd" stroke="#ff5509" stroke-miterlimit="10" stroke-width=".75"/>
  <line x1="45.58" y1="11.19" x2="61.29" y2="11.19" fill="#ffd7cd" stroke="#471ba7" stroke-miterlimit="10" stroke-width=".75"/>
  <line x1="45.58" y1="7.08" x2="61.29" y2="7.08" fill="#ffd7cd" stroke="#ff5509" stroke-miterlimit="10" stroke-width=".89"/>
  <line x1="45.58" y1="3.91" x2="61.29" y2="3.91" fill="#ffd7cd" stroke="#471ba7" stroke-miterlimit="10" stroke-width=".89"/>
  <line x1="75.56" y1="14.09" x2="89.87" y2="14.09" fill="#ffd7cd" stroke="#ff5509" stroke-miterlimit="10"/>
</svg>