<?xml version="1.0" encoding="UTF-8"?>
<svg id="Capa_1" data-name="Capa 1" xmlns="http://www.w3.org/2000/svg" viewBox="0 0 100 20">
  <defs>
    <style>
      .cls-1, .cls-2, .cls-3, .cls-4, .cls-5, .cls-6 {
        fill: #ffd7cd;
      }

      .cls-1, .cls-7 {
        stroke-width: 0px;
      }

      .cls-8 {
        font-family: Bahnschrift-Light, Bahnschrift;
        font-size: 1.14px;
        font-variation-settings: 'wght' 300, 'wdth' 100;
        font-weight: 300;
        letter-spacing: 1.5em;
      }

      .cls-9 {
        font-size: 1.25px;
      }

      .cls-9, .cls-10, .cls-11, .cls-12, .cls-13, .cls-14, .cls-15 {
        font-family: ArialMT, Arial;
      }

      .cls-9, .cls-10, .cls-16, .cls-14 {
        fill: #301b82;
      }

      .cls-10 {
        font-size: 1.28px;
      }

      .cls-17 {
        stroke-width: .86px;
      }

      .cls-17, .cls-2, .cls-3, .cls-16, .cls-4, .cls-5, .cls-6, .cls-18 {
        stroke-miterlimit: 10;
      }

      .cls-17, .cls-2, .cls-4, .cls-5, .cls-18 {
        stroke: #ff5509;
      }

      .cls-17, .cls-18 {
        fill: none;
      }

      .cls-2, .cls-6 {
        stroke-width: .89px;
      }

      .cls-11 {
        font-size: .92px;
      }

      .cls-11, .cls-12, .cls-13, .cls-19 {
        fill: #000;
      }

      .cls-12, .cls-15 {
        font-size: .94px;
      }

      .cls-20 {
        letter-spacing: -.05em;
      }

      .cls-3, .cls-5, .cls-18 {
        stroke-width: .75px;
      }

      .cls-3, .cls-6 {
        stroke: #471ba7;
      }

      .cls-16 {
        stroke: #301b82;
        stroke-width: .5px;
      }

      .cls-13 {
        font-size: .88px;
      }

      .cls-14 {
        font-size: 1.19px;
      }

      .cls-7 {
        fill: #dacaff;
      }
    </style>
  </defs>
  <rect class="cls-1" x="75.56" y="11.77" width="14.32" height="2.31"/>
  <rect class="cls-1" x="45.58" y="12.39" width="15.72" height="2.61"/>
  <text class="cls-10" transform="translate(20.08 17.82)"><tspan x="0" y="0">Ciclo básico</tspan><tspan x="1.95" y="1.61">I a IV</tspan></text>
  <text class="cls-9" transform="translate(48.09 17.84)"><tspan x="0" y="0">Ciclo especializado</tspan><tspan x="3.31" y="1.58">V a VIII</tspan></text>
  <text class="cls-14" transform="translate(78.69 17.94)"><tspan x="0" y="0">Ciclo profesional</tspan><tspan x="2.77" y="1.5">IX a X</tspan></text>
  <text class="cls-11" transform="translate(46.25 13.96)"><tspan x="0" y="0">Seminario de Licenciatura I y II</tspan></text>
  <text class="cls-13" transform="translate(76.18 13.27)"><tspan x="0" y="0">Proyecto de título I y II</tspan></text>
  <rect class="cls-1" x="17" y="10.79" width="13" height="4.21"/>
  <text class="cls-12" transform="translate(17.67 12)"><tspan x="0" y="0">Comunicación del Proyecto </tspan><tspan x="0" y="1.14">de Diseño</tspan></text>
  <rect class="cls-1" x="17" y="6.64" width="13" height="3.36"/>
  <text class="cls-19" transform="translate(17.65 7.91)"><tspan class="cls-15"><tspan x="0" y="0">Gestión del Proyecto de </tspan></tspan><tspan class="cls-15" x="0" y="1.21">Diseño</tspan><tspan class="cls-8" x="2.92" y="1.21">	</tspan></text>
  <rect class="cls-7" x="45.58" y="8.28" width="15.72" height="2.91"/>
  <rect class="cls-1" x="45.58" y="5.1" width="15.72" height="1.98"/>
  <text class="cls-11" transform="translate(46.27 9.45)"><tspan x="0" y="0">Electivo Mención I y S: </tspan><tspan x="0" y="1.12">Emprendimiento basado en Diseño</tspan></text>
  <text class="cls-11" transform="translate(46.28 6.5)"><tspan x="0" y="0">Portafolios e Inducción laboral</tspan></text>
  <rect class="cls-7" x="45.58" y="1" width="15.72" height="2.91"/>
  <text class="cls-11" transform="translate(46.1 2.23)"><tspan x="0" y="0">Electivo</tspan><tspan class="cls-20" x="3.24" y="0"> </tspan><tspan x="3.44" y="0">Ambas Menciones: </tspan><tspan x="0" y="1.12">Estrategias de Ecodiseño</tspan></text>
  <line class="cls-16" x1="2.7" y1="15.48" x2="97.75" y2="15.48"/>
  <line class="cls-18" x1="17" y1="10" x2="30" y2="10"/>
  <line class="cls-17" x1="17" y1="14.5" x2="30" y2="14.5"/>
  <line class="cls-5" x1="45.58" y1="15" x2="61.29" y2="15"/>
  <line class="cls-3" x1="45.58" y1="11.19" x2="61.29" y2="11.19"/>
  <line class="cls-2" x1="45.58" y1="7.08" x2="61.29" y2="7.08"/>
  <line class="cls-6" x1="45.58" y1="3.91" x2="61.29" y2="3.91"/>
  <line class="cls-4" x1="75.56" y1="14.09" x2="89.87" y2="14.09"/>
</svg>