<?xml version="1.0" encoding="UTF-8"?>
<svg id="Capa_1" data-name="Capa 1" xmlns="http://www.w3.org/2000/svg" viewBox="0 0 100.02 30.86">
  <defs>
    <style>
      .cls-1 {
        fill: #393f95;
      }

      .cls-2 {
        fill: #ff5432;
      }

      .cls-3, .cls-4, .cls-5, .cls-6, .cls-7 {
        isolation: isolate;
      }

      .cls-3, .cls-8 {
        font-family: Arial-BoldMT, Arial;
        font-size: 1.5px;
        font-weight: 700;
      }

      .cls-5, .cls-6 {
        font-size: 2px;
      }

      .cls-5, .cls-7 {
        font-family: ArialMT, Arial;
      }

      .cls-9 {
        fill: #ffa300;
      }

      .cls-10 {
        fill: #ffe7b6;
      }

      .cls-6 {
        font-family: Arial-ItalicMT, Arial;
        font-style: italic;
      }

      .cls-11 {
        letter-spacing: -.06em;
      }

      .cls-7 {
        font-size: 1px;
      }

      .cls-12 {
        fill: none;
        stroke: #1d1d1b;
        stroke-miterlimit: 10;
        stroke-width: .5px;
      }

      .cls-13 {
        fill: #d1cfe8;
      }

      .cls-14 {
        fill: #ffd3cc;
      }

      .cls-15 {
        letter-spacing: -.06em;
      }
    </style>
  </defs>
  <g id="NARANJA">
    <g>
      <rect class="cls-14" x="0" y="9.73" width="30.15" height="8.59"/>
      <rect class="cls-2" x="0" y="17.4" width="30.15" height="1.28"/>
    </g>
    <g>
      <rect class="cls-14" x="35.38" y="9.73" width="30.15" height="8.59"/>
      <rect class="cls-2" x="35.38" y="17.4" width="30.15" height="1.28"/>
    </g>
    <g>
      <rect class="cls-14" x="35.39" width="30.15" height="8.59"/>
      <rect class="cls-2" x="35.39" y="7.67" width="30.15" height="1.28"/>
    </g>
    <g>
      <rect class="cls-14" x="69.87" y="9.73" width="30.15" height="8.59"/>
      <rect class="cls-2" x="69.87" y="17.4" width="30.15" height="1.28"/>
    </g>
  </g>
  <g id="INDICE">
    <g>
      <g>
        <rect class="cls-13" x="40.81" y="28.69" width="2" height="1.92"/>
        <rect class="cls-1" x="40.81" y="30.4" width="2" height=".29"/>
      </g>
      <g class="cls-4">
        <text class="cls-7" transform="translate(43.53 30.1) scale(1.1 1)"><tspan x="0" y="0">Mención visualidad y medios</tspan></text>
      </g>
    </g>
    <g>
      <g>
        <rect class="cls-14" x="60.14" y="28.79" width="2" height="1.92"/>
        <rect class="cls-2" x="60.14" y="30.5" width="2" height=".29"/>
      </g>
      <g class="cls-4">
        <text class="cls-7" transform="translate(62.85 30.09) scale(1.1 1)"><tspan x="0" y="0">Ambas menciones</tspan></text>
      </g>
    </g>
    <g>
      <g class="cls-4">
        <text class="cls-7" transform="translate(11.28 30.12) scale(1.1 1)"><tspan x="0" y="0">Electivo troncal</tspan></text>
      </g>
      <g class="cls-4">
        <text class="cls-3" transform="translate(8.65 30.3)"><tspan x="0" y="0">E</tspan></text>
        <text class="cls-3" transform="translate(9.65 30.3)"><tspan x="0" y="0">T</tspan></text>
        <text class="cls-3" transform="translate(10.4 30.3)"><tspan x="0" y="0">.</tspan></text>
      </g>
    </g>
    <g>
      <g class="cls-4">
        <text class="cls-7" transform="translate(2.34 30.12) scale(1.1 1)"><tspan x="0" y="0">Electivo</tspan></text>
      </g>
      <g class="cls-4">
        <text class="cls-3" transform="translate(0 30.3)"><tspan x="0" y="0">E.</tspan></text>
      </g>
    </g>
    <g>
      <g>
        <rect class="cls-10" x="22.03" y="28.79" width="2" height="1.92"/>
        <rect class="cls-9" x="22.03" y="30.5" width="2" height=".29"/>
      </g>
      <g class="cls-4">
        <text class="cls-7" transform="translate(24.71 30.18) scale(1.1 1)"><tspan x="0" y="0">Mención industrial y servicios</tspan></text>
      </g>
    </g>
  </g>
  <g id="Línea">
    <g>
      <line class="cls-12" x1="15.09" y1="21.35" x2="15.09" y2="18.55"/>
      <line class="cls-12" x1=".01" y1="18.68" x2="100.01" y2="18.68"/>
      <line class="cls-12" x1="50.01" y1="21.48" x2="50.01" y2="18.68"/>
      <line class="cls-12" x1="84.94" y1="21.48" x2="84.94" y2="18.68"/>
    </g>
    <g class="cls-4">
      <text class="cls-5" transform="translate(10.3 23.9)"><tspan x="0" y="0">Ciclo básico</tspan></text>
      <text class="cls-6" transform="translate(13.36 25.9)"><tspan x="0" y="0">I a IV</tspan></text>
    </g>
    <g class="cls-4">
      <text class="cls-5" transform="translate(41.38 23.81)"><tspan x="0" y="0">Ciclo Especializado</tspan></text>
      <text class="cls-6" transform="translate(46.77 25.81)"><tspan x="0" y="0">V a VIII</tspan></text>
    </g>
    <g class="cls-4">
      <text class="cls-5" transform="translate(77.55 23.8)"><tspan x="0" y="0">Ciclo profesional</tspan></text>
      <text class="cls-6" transform="translate(82.22 25.8)"><tspan x="0" y="0">IX a X</tspan></text>
    </g>
  </g>
  <text class="cls-8" transform="translate(39.46 14.5)"><tspan x="0" y="0">Seminario de Licenciatura I y II</tspan></text>
  <text class="cls-8" transform="translate(40.91 3.92)"><tspan class="cls-11" x="0" y="0">T</tspan><tspan x=".83" y="0">ransversal </tspan><tspan class="cls-15" x="8.76" y="0">F</tspan><tspan x="9.59" y="0">AU: Proyecto </tspan><tspan x="2.88" y="1.8">aplicado al terreno</tspan></text>
  <text class="cls-8" transform="translate(8.63 13.68)"><tspan x="0" y="0">Comunicación del </tspan><tspan x="-.54" y="1.8">Proyecto de Diseño</tspan></text>
  <g class="cls-4">
    <text class="cls-3" transform="translate(77.12 14.45)"><tspan x="0" y="0">Proyecto de Título I y II</tspan></text>
  </g>
</svg>