<?xml version="1.0" encoding="UTF-8"?>
<svg id="Capa_1" data-name="Capa 1" xmlns="http://www.w3.org/2000/svg" viewBox="0 0 100 40">
  <defs>
    <style>
      .cls-1 {
        font-family: Arial-BoldMT, Arial;
        font-size: 1.5px;
        font-weight: 700;
      }

      .cls-1, .cls-2, .cls-3, .cls-4, .cls-5, .cls-6, .cls-7, .cls-8, .cls-9, .cls-10 {
        isolation: isolate;
      }

      .cls-2, .cls-9 {
        opacity: .5;
      }

      .cls-2, .cls-11 {
        fill: #da4f40;
      }

      .cls-4, .cls-5, .cls-6, .cls-8, .cls-10 {
        font-family: ArialMT, Arial;
      }

      .cls-4, .cls-7 {
        font-size: 2px;
      }

      .cls-5 {
        fill: #fff;
      }

      .cls-5, .cls-6, .cls-8, .cls-10 {
        font-size: 1px;
      }

      .cls-6 {
        fill: #444;
      }

      .cls-7 {
        font-family: Arial-ItalicMT, Arial;
        font-style: italic;
      }

      .cls-8 {
        fill: #1d1d1b;
      }

      .cls-9, .cls-12 {
        fill: #f7ce65;
      }

      .cls-13 {
        fill: none;
        stroke: #1d1d1b;
        stroke-miterlimit: 10;
        stroke-width: .5px;
      }
    </style>
  </defs>
  <g id="Simbología">
    <g>
      <rect class="cls-9" x="8.53" y="37.96" width="2" height="1.92"/>
      <rect class="cls-12" x="8.53" y="39.67" width="2" height=".29"/>
    </g>
    <g class="cls-3">
      <text class="cls-10" transform="translate(11.21 39.35) scale(1.1 1)"><tspan x="0" y="0">Mención industrial y servicios</tspan></text>
    </g>
    <g>
      <g>
        <rect class="cls-2" x="28" y="38" width="2" height="1.92"/>
        <rect class="cls-11" x="28" y="39.71" width="2" height=".29"/>
      </g>
      <g class="cls-3">
        <text class="cls-10" transform="translate(30.71 39.37) scale(1.1 1)"><tspan x="0" y="0">Ambas menciones</tspan></text>
      </g>
    </g>
  </g>
  <g id="Cuadros">
    <g>
      <rect class="cls-9" x="69.84" y="19.54" width="30.15" height="8.25"/>
      <rect class="cls-12" x="69.84" y="26.99" width="30.15" height="1.49"/>
    </g>
    <g>
      <rect class="cls-9" x="34.93" y="19.55" width="30.15" height="8.24"/>
      <rect class="cls-12" x="34.93" y="27" width="30.15" height="1.49"/>
    </g>
    <g>
      <rect class="cls-2" x="34.92" y="9.76" width="30.15" height="8.2"/>
      <rect class="cls-11" x="34.92" y="17.2" width="30.15" height="1.5"/>
    </g>
    <g class="cls-3">
      <text class="cls-1" transform="translate(37.9 12.27)"><tspan x="0" y="0">E. Representación arquitectónica </tspan></text>
      <text class="cls-1" transform="translate(35.36 14.27)"><tspan x="0" y="0">mediante técnicas gráficas tradicionales</tspan></text>
      <text class="cls-6" transform="translate(44.49 15.77)"><tspan x="0" y="0">(Primer semestre-2025)</tspan></text>
    </g>
    <g class="cls-3">
      <text class="cls-1" transform="translate(39 23.05)"><tspan x="0" y="0">Seminario de Licenciatura I y II</tspan></text>
      <text class="cls-6" transform="translate(38.72 24.55)"><tspan x="0" y="0">(Primer semestre-2025 y Segundo semestre-2024)</tspan></text>
    </g>
    <g class="cls-3">
      <text class="cls-1" transform="translate(76.72 23.07)"><tspan x="0" y="0">Proyecto de Título I y II</tspan></text>
      <text class="cls-6" transform="translate(73.65 24.57)"><tspan x="0" y="0">(Primer semestre-2025 y Segundo semestre-2024)</tspan></text>
    </g>
    <g class="cls-3">
      <text class="cls-5" transform="translate(47.39 18.26)"><tspan x="0" y="0">(AUDIV030)</tspan></text>
    </g>
    <g>
      <rect class="cls-2" x="34.92" width="30.15" height="8.2"/>
      <rect class="cls-11" x="34.92" y="7.44" width="30.15" height="1.5"/>
    </g>
    <g class="cls-3">
      <text class="cls-1" transform="translate(39.83 2.51)"><tspan x="0" y="0">E. Patrimonio y restauración </tspan></text>
      <text class="cls-1" transform="translate(44.87 4.51)"><tspan x="0" y="0">arquitectónica</tspan></text>
      <text class="cls-6" transform="translate(44.21 6.01)"><tspan x="0" y="0">(Segundo semestre-2024)</tspan></text>
    </g>
    <g class="cls-3">
      <text class="cls-5" transform="translate(47.41 8.5)"><tspan x="0" y="0">(AUDIV042)</tspan></text>
    </g>
    <g>
      <rect class="cls-2" x="-.03" y="19.53" width="30.15" height="8.2"/>
      <rect class="cls-11" x="-.03" y="26.97" width="30.15" height="1.5"/>
    </g>
    <g class="cls-3">
      <text class="cls-1" transform="translate(6.46 23.03)"><tspan x="0" y="0">Procesos y Prototipos II</tspan></text>
      <text class="cls-6" transform="translate(3.77 24.53)"><tspan x="0" y="0">(Primer semestre-2025 y Segundo semestre-2024)</tspan></text>
    </g>
    <g class="cls-3">
      <text class="cls-5" transform="translate(12.26 28.02)"><tspan x="0" y="0">(AUD40005)</tspan></text>
    </g>
    <g class="cls-3">
      <text class="cls-8" transform="translate(79.68 28.09)"><tspan x="0" y="0">(AUD9I001) | (AUD10I01)</tspan></text>
    </g>
    <g class="cls-3">
      <text class="cls-8" transform="translate(44.59 28.02)"><tspan x="0" y="0">(AUD7I002) | (AUD8I001)</tspan></text>
    </g>
    <g>
      <g class="cls-3">
        <text class="cls-10" transform="translate(2.31 39.38) scale(1.1 1)"><tspan x="0" y="0">Electivo</tspan></text>
      </g>
      <g class="cls-3">
        <text class="cls-1" transform="translate(-.04 39.56)"><tspan x="0" y="0">E.</tspan></text>
      </g>
    </g>
  </g>
  <g id="Línea">
    <g>
      <line class="cls-13" x1="15.07" y1="31.39" x2="15.07" y2="28.59"/>
      <line class="cls-13" y1="28.72" x2="100" y2="28.72"/>
      <line class="cls-13" x1="50" y1="31.52" x2="50" y2="28.72"/>
      <line class="cls-13" x1="84.93" y1="31.52" x2="84.93" y2="28.72"/>
    </g>
    <g class="cls-3">
      <text class="cls-4" transform="translate(10.28 33.58)"><tspan x="0" y="0">Ciclo básico</tspan></text>
      <text class="cls-7" transform="translate(8.78 35.58)"><tspan x="0" y="0">Semestre I a IV</tspan></text>
    </g>
    <g class="cls-3">
      <text class="cls-4" transform="translate(41.33 33.62)"><tspan x="0" y="0">Ciclo Especializado</tspan></text>
      <text class="cls-7" transform="translate(42.16 35.62)"><tspan x="0" y="0">Semestre V a VIII</tspan></text>
    </g>
    <g class="cls-3">
      <text class="cls-4" transform="translate(77.42 33.61)"><tspan x="0" y="0">Ciclo Profesional</tspan></text>
      <text class="cls-7" transform="translate(77.64 35.61)"><tspan x="0" y="0">Semestre IX a X</tspan></text>
    </g>
  </g>
</svg>