<?xml version="1.0" encoding="utf-8"?>
<!-- Generator: Adobe Illustrator 26.3.0, SVG Export Plug-In . SVG Version: 6.00 Build 0)  -->
<svg version="1.1" xmlns="http://www.w3.org/2000/svg" xmlns:xlink="http://www.w3.org/1999/xlink" x="0px" y="0px"
	 viewBox="0 0 100 20" style="enable-background:new 0 0 100 20;" xml:space="preserve">
<style type="text/css">
	.st0{fill:#FF5722;}
	.st1{fill:#EFEFEF;}
	.st2{fill:none;stroke:#000000;stroke-width:0.5;stroke-miterlimit:10;}
	.st3{fill:none;}
	.st4{font-family:'HelveticaNowText-Bold';}
	.st5{font-size:1.4561px;}
	.st6{font-family:'Helvetica';}
</style>
<g id="Capa_3">
	<rect x="37.3" y="12.1" class="st0" width="25.3" height="1.4"/>
	<rect x="73.5" y="12.1" class="st0" width="25.2" height="1.4"/>
	<rect x="1.3" y="12.1" class="st0" width="25.3" height="1.4"/>
	<rect x="37.3" y="7.1" class="st1" width="25.3" height="5"/>
	<rect x="73.5" y="7.1" class="st1" width="25.2" height="5"/>
	<rect x="1.3" y="7.1" class="st1" width="25.3" height="5"/>
	<line class="st2" x1="1.3" y1="13.5" x2="98.7" y2="13.5"/>
	<rect x="6" y="16" class="st3" width="13.3" height="3.2"/>
	<text transform="matrix(1 0 0 1 8.4694 17.0499)"><tspan x="0" y="0" class="st4 st5">Ciclo básico</tspan><tspan x="2.5" y="1.7" class="st4 st5">I a IV</tspan></text>
	<rect x="39.9" y="16" class="st3" width="20.2" height="3.7"/>
	<text transform="matrix(1 0 0 1 43.4323 17.0499)"><tspan x="0" y="0" class="st4 st5">Ciclo especializado</tspan><tspan x="4.2" y="1.7" class="st4 st5">V a VIII</tspan></text>
	<rect x="78" y="16" class="st3" width="17.1" height="3.7"/>
	<text transform="matrix(1 0 0 1 80.7929 17.0499)"><tspan x="0" y="0" class="st4 st5">Ciclo profesional</tspan><tspan x="3.8" y="1.7" class="st4 st5">IX a X</tspan></text>
	<rect x="12.1" y="13.5" width="1" height="1.4"/>
	<rect x="49.5" y="13.5" width="1" height="1.4"/>
	<rect x="86" y="13.5" width="1" height="1.4"/>
	<rect x="7.2" y="8.1" class="st3" width="12.1" height="3.5"/>
	<text transform="matrix(1 0 0 1 9.6497 9.1129)"><tspan x="0" y="0" class="st6 st5">Procesos y </tspan><tspan x="-0.2" y="1.7" class="st6 st5">prototipos II</tspan></text>
	<rect x="37.2" y="9.1" class="st3" width="25.4" height="2.4"/>
	<text transform="matrix(1 0 0 1 46.0325 10.1612)" class="st6 st5">Seminario II</text>
	<rect x="73.5" y="9.1" class="st3" width="25.1" height="2.4"/>
	<text transform="matrix(1 0 0 1 78.5759 10.1612)" class="st6 st5">Proyecto de Título I y II</text>
</g>
<g id="Capa_1">
</g>
<g id="Capa_2">
</g>
</svg>
