<?xml version="1.0" encoding="UTF-8"?>
<svg id="Capa_1" data-name="Capa 1" xmlns="http://www.w3.org/2000/svg" viewBox="0 0 100 30">
  <defs>
    <style>
      .cls-1 {
        font-family: Arial-BoldMT, Arial;
        font-size: 1.5px;
        font-weight: 700;
      }

      .cls-1, .cls-2, .cls-3, .cls-4, .cls-5, .cls-6, .cls-7, .cls-8, .cls-9 {
        isolation: isolate;
      }

      .cls-10, .cls-2 {
        fill: #1f5592;
      }

      .cls-2, .cls-3 {
        opacity: .5;
      }

      .cls-3, .cls-11 {
        fill: #da4f40;
      }

      .cls-5, .cls-6, .cls-7, .cls-9 {
        font-family: ArialMT, Arial;
      }

      .cls-5, .cls-8 {
        font-size: 2px;
      }

      .cls-6 {
        fill: #fff;
      }

      .cls-6, .cls-7, .cls-9 {
        font-size: 1px;
      }

      .cls-7 {
        fill: #444;
      }

      .cls-8 {
        font-family: Arial-ItalicMT, Arial;
        font-style: italic;
      }

      .cls-12 {
        fill: none;
        stroke: #1d1d1b;
        stroke-miterlimit: 10;
        stroke-width: .5px;
      }
    </style>
  </defs>
  <g id="Simbología">
    <g>
      <g>
        <rect class="cls-2" y="28" width="2" height="1.92"/>
        <rect class="cls-10" y="29.71" width="2" height=".29"/>
      </g>
      <g class="cls-4">
        <text class="cls-9" transform="translate(2.72 29.37) scale(1.1 1)"><tspan x="0" y="0">Mención visualidad y medios</tspan></text>
      </g>
    </g>
    <g>
      <g>
        <rect class="cls-3" x="19.35" y="28" width="2" height="1.92"/>
        <rect class="cls-11" x="19.35" y="29.71" width="2" height=".29"/>
      </g>
      <g class="cls-4">
        <text class="cls-9" transform="translate(22.07 29.36) scale(1.1 1)"><tspan x="0" y="0">Ambas menciones</tspan></text>
      </g>
    </g>
  </g>
  <g id="Cuadros">
    <g>
      <rect class="cls-2" x="69.84" y="9.79" width="30.15" height="8.25"/>
      <rect class="cls-10" x="69.84" y="17.24" width="30.15" height="1.49"/>
    </g>
    <g>
      <rect class="cls-2" x="34.93" y="9.8" width="30.15" height="8.24"/>
      <rect class="cls-10" x="34.93" y="17.25" width="30.15" height="1.49"/>
    </g>
    <g>
      <rect class="cls-3" x="-.03" y="9.78" width="30.15" height="8.2"/>
      <rect class="cls-11" x="-.03" y="17.22" width="30.15" height="1.5"/>
    </g>
    <g class="cls-4">
      <text class="cls-1" transform="translate(5.08 13.28)"><tspan x="0" y="0">Diseño, Estética y Sociedad</tspan></text>
      <text class="cls-7" transform="translate(3.76 14.78)"><tspan x="0" y="0">(Primer semestre-2025 y Segundo semestre-2024)</tspan></text>
    </g>
    <g class="cls-4">
      <text class="cls-1" transform="translate(39 13.3)"><tspan x="0" y="0">Seminario de Licenciatura I y II</tspan></text>
      <text class="cls-7" transform="translate(38.61 14.8)"><tspan x="0" y="0">(Primer semestre-2025 y Segundo semestre-2024 )</tspan></text>
    </g>
    <g class="cls-4">
      <text class="cls-1" transform="translate(76.71 13.32)"><tspan x="0" y="0">Proyecto de Título I y II</tspan></text>
      <text class="cls-7" transform="translate(73.64 14.82)"><tspan x="0" y="0">(Primer semestre-2025 y Segundo semestre-2024)</tspan></text>
    </g>
    <g class="cls-4">
      <text class="cls-6" transform="translate(12.28 18.27)"><tspan x="0" y="0">(AUD30002)</tspan></text>
    </g>
    <g>
      <rect class="cls-3" x="-.03" y="0" width="30.15" height="8.2"/>
      <rect class="cls-11" x="-.03" y="7.44" width="30.15" height="1.5"/>
    </g>
    <g class="cls-4">
      <text class="cls-1" transform="translate(4.04 2.51)"><tspan x="0" y="0">Introducción a la Investigación </tspan></text>
      <text class="cls-1" transform="translate(10.62 4.51)"><tspan x="0" y="0">en el Diseño</tspan></text>
      <text class="cls-7" transform="translate(3.76 6.01)"><tspan x="0" y="0">(Primer semestre-2025 y Segundo semestre-2024)</tspan></text>
    </g>
    <g class="cls-4">
      <text class="cls-6" transform="translate(12.26 8.5)"><tspan x="0" y="0">(AUD40002)</tspan></text>
    </g>
    <g class="cls-4">
      <text class="cls-6" transform="translate(79.25 18.34)"><tspan x="0" y="0">(AUD9V001) | (AUD10V01)</tspan></text>
    </g>
    <g class="cls-4">
      <text class="cls-6" transform="translate(44.24 18.27)"><tspan x="0" y="0">(AUD7V002) | (AUD8V001)</tspan></text>
    </g>
  </g>
  <g id="Línea">
    <g>
      <line class="cls-12" x1="15.07" y1="21.64" x2="15.07" y2="18.84"/>
      <line class="cls-12" y1="18.97" x2="100" y2="18.97"/>
      <line class="cls-12" x1="50" y1="21.77" x2="50" y2="18.97"/>
      <line class="cls-12" x1="84.93" y1="21.77" x2="84.93" y2="18.97"/>
    </g>
    <g class="cls-4">
      <text class="cls-5" transform="translate(10.28 23.83)"><tspan x="0" y="0">Ciclo básico</tspan></text>
      <text class="cls-8" transform="translate(8.78 25.83)"><tspan x="0" y="0">Semestre I a IV</tspan></text>
    </g>
    <g class="cls-4">
      <text class="cls-5" transform="translate(41.33 23.87)"><tspan x="0" y="0">Ciclo Especializado</tspan></text>
      <text class="cls-8" transform="translate(42.16 25.87)"><tspan x="0" y="0">Semestre V a VIII</tspan></text>
    </g>
    <g class="cls-4">
      <text class="cls-5" transform="translate(77.42 23.86)"><tspan x="0" y="0">Ciclo Profesional</tspan></text>
      <text class="cls-8" transform="translate(77.64 25.86)"><tspan x="0" y="0">Semestre IX a X</tspan></text>
    </g>
  </g>
</svg>