<?xml version="1.0" encoding="UTF-8"?>
<svg id="Layer_1" data-name="Layer 1" xmlns="http://www.w3.org/2000/svg" viewBox="0 0 100 39.6">
  <defs>
    <style>
      .cls-1 {
        letter-spacing: .02em;
      }

      .cls-2, .cls-3 {
        fill: none;
        stroke: #231f20;
        stroke-miterlimit: 10;
      }

      .cls-4 {
        font-family: Bahnschrift, Bahnschrift;
        font-variation-settings: 'wght' 400, 'wdth' 100;
      }

      .cls-4, .cls-5, .cls-6 {
        fill: #231f20;
      }

      .cls-4, .cls-6 {
        font-size: 2.5px;
      }

      .cls-7 {
        letter-spacing: -.02em;
      }

      .cls-8 {
        letter-spacing: -.01em;
      }

      .cls-5 {
        font-size: 2.2px;
      }

      .cls-5, .cls-6 {
        font-family: ArialNarrow, Arial;
      }

      .cls-9 {
        fill: #ec552e;
      }

      .cls-9, .cls-10, .cls-11, .cls-12 {
        stroke-width: 0px;
      }

      .cls-10 {
        fill: #f8bab2;
      }

      .cls-3 {
        stroke-width: 4px;
      }

      .cls-11 {
        fill: #c2c2e1;
      }

      .cls-12 {
        fill: #304b9f;
      }

      .cls-13 {
        letter-spacing: 0em;
      }

      .cls-14 {
        letter-spacing: 0em;
      }

      .cls-15 {
        letter-spacing: -.01em;
      }
    </style>
  </defs>
  <rect class="cls-11" x="33.2" y="10.84" width="31.26" height="5.58"/>
  <rect class="cls-12" x="33.2" y="16.44" width="31.26" height="1.81"/>
  <rect class="cls-10" x="33.2" y="21.56" width="31.26" height="5.62"/>
  <rect class="cls-9" x="33.2" y="27.17" width="31.26" height="1.85"/>
  <rect class="cls-9" x="67.77" y="27.17" width="28.34" height="1.85"/>
  <line class="cls-2" y1="29.17" x2="100" y2="29.17"/>
  <text class="cls-6" transform="translate(35.94 23.62)"><tspan x="0" y="0">Seminario de licenciatura I y </tspan><tspan x="0" y="3">II</tspan></text>
  <rect class="cls-10" x=".66" y="10.74" width="31.26" height="5.71"/>
  <text class="cls-6" transform="translate(3.3 12.63)"><tspan x="0" y="0">Introduccion a la </tspan><tspan x="0" y="3">investigación del diseño</tspan></text>
  <text class="cls-4" transform="translate(5.72 33)"><tspan x="0" y="0">Ciclo básico </tspan><tspan x="0" y="3" xml:space="preserve">      I a </tspan><tspan class="cls-1" x="7.39" y="3">I</tspan><tspan x="8.13" y="3">V</tspan></text>
  <text class="cls-4" transform="translate(38.08 32.7)"><tspan x="0" y="0">Ciclo especializado </tspan><tspan x="0" y="3" xml:space="preserve">           V a </tspan><tspan class="cls-14" x="11.53" y="3">V</tspan><tspan x="13.01" y="3">III</tspan></text>
  <text class="cls-4" transform="translate(72.65 32.7)"><tspan x="0" y="0">Ciclo p</tspan><tspan class="cls-13" x="7.54" y="0">r</tspan><tspan x="8.58" y="0">o</tspan><tspan class="cls-15" x="9.94" y="0">f</tspan><tspan x="10.7" y="0">esional </tspan><tspan x="0" y="3" xml:space="preserve">         IX a X</tspan></text>
  <text class="cls-6" transform="translate(35.25 12.81)"><tspan x="0" y="0">Electivo mencion V y M: </tspan><tspan x="0" y="3">Creatividad y diseño</tspan></text>
  <rect class="cls-11" x="33.2" y=".31" width="31.26" height="7.53"/>
  <rect class="cls-12" x="33.2" y="7.87" width="31.26" height="1.81"/>
  <text class="cls-5" transform="translate(35.25 1.89)"><tspan x="0" y="0">Electivo mencion V y M: Enfoques </tspan><tspan x="0" y="2.64">investigativos en diseño, </tspan><tspan x="0" y="5.28">innovación y creatividad</tspan></text>
  <rect class="cls-10" x=".75" y="21.56" width="31.26" height="5.28"/>
  <rect class="cls-9" x=".75" y="26.84" width="31.26" height="1.79"/>
  <text class="cls-6" transform="translate(2.73 25.28)"><tspan x="0" y="0">Diseño estetica y sociedad</tspan></text>
  <rect class="cls-10" x="67.77" y="23.27" width="28.34" height="3.9"/>
  <text class="cls-6" transform="translate(70.84 26.17)"><tspan x="0" y="0">Proyecto de</tspan><tspan class="cls-8" x="10.94" y="0"> </tspan><tspan class="cls-7" x="11.48" y="0">T</tspan><tspan x="12.68" y="0">itulo I y II</tspan></text>
  <rect class="cls-9" x=".66" y="16.44" width="31.26" height="1.73"/>
  <line class="cls-3" x1="12.83" y1="29.19" x2="12.83" y2="30.65"/>
  <line class="cls-3" x1="48.83" y1="29.32" x2="48.83" y2="30.78"/>
  <line class="cls-3" x1="82.87" y1="29.17" x2="82.87" y2="30.64"/>
</svg>