<?xml version="1.0" encoding="UTF-8"?>
<svg id="Capa_1" data-name="Capa 1" xmlns="http://www.w3.org/2000/svg" viewBox="0 0 100 27.48">
  <defs>
    <style>
      .cls-1 {
        fill: #f5d8d0;
      }

      .cls-2, .cls-3 {
        fill: #da633c;
      }

      .cls-4 {
        font-family: Arial-BoldMT, Arial;
        font-size: 1.5px;
        font-weight: 700;
      }

      .cls-5 {
        fill: #fff;
        stroke: #1d1d1b;
      }

      .cls-5, .cls-3 {
        stroke-miterlimit: 10;
        stroke-width: .25px;
      }

      .cls-6 {
        fill: #1d1d1b;
        font-family: ArialMT, Arial;
        font-size: 1px;
      }

      .cls-3 {
        stroke: #da633c;
      }

      .cls-7 {
        letter-spacing: -.04em;
      }
    </style>
  </defs>
  <rect class="cls-5" x=".74" y=".66" width="98.36" height="26" rx="4.91" ry="4.91"/>
  <g>
    <rect class="cls-1" x="66.42" y="14.46" width="28.39" height="5.95" rx="1.08" ry="1.08"/>
    <path class="cls-2" d="M66.42,19.28h28.39v.66c0,.26-.21.47-.47.47h-27.44c-.26,0-.47-.21-.47-.47v-.66h0Z"/>
  </g>
  <line class="cls-3" x1="5.19" y1="21.11" x2="94.81" y2="21.11"/>
  <rect class="cls-2" x="18.82" y="21.11" width="1.02" height="1.51"/>
  <rect class="cls-2" x="49.49" y="21.27" width="1.02" height="1.51"/>
  <rect class="cls-2" x="80.11" y="21.27" width="1.02" height="1.51"/>
  <rect class="cls-1" x="35.81" y="12.72" width="28.39" height="7.69" rx="1.23" ry="1.23"/>
  <text class="cls-4" transform="translate(41.38 15.87)"><tspan x="0" y="0">Electivo Mención V y M:</tspan><tspan x="-1.93" y="1.8">Diseño Gráfico para las</tspan><tspan class="cls-7" x="14.82" y="1.8"> </tspan><tspan x="15.18" y="1.8">Artes</tspan></text>
  <text class="cls-4" transform="translate(73.86 17.33)"><tspan x="0" y="0">Proyecto de título I</tspan></text>
  <text class="cls-6" transform="translate(45.72 24.11)"><tspan x="0" y="0">Ciclo especializado</tspan><tspan x="2.67" y="1.2">V y VIII</tspan></text>
  <text class="cls-6" transform="translate(16.64 24.11)"><tspan x="0" y="0">Ciclo básico</tspan><tspan x="1.53" y="1.2">I a IV</tspan></text>
  <text class="cls-6" transform="translate(76.92 24.11)"><tspan x="0" y="0">Ciclo profesional</tspan><tspan x="2.33" y="1.2">IX a X</tspan></text>
  <path class="cls-2" d="M35.81,19.28h28.39v.66c0,.26-.21.47-.47.47h-27.44c-.26,0-.47-.21-.47-.47v-.66h0Z"/>
  <g>
    <rect class="cls-1" x="5.14" y="14.41" width="28.39" height="5.95" rx="1.08" ry="1.08"/>
    <path class="cls-2" d="M5.14,19.23h28.39v.66c0,.26-.21.47-.47.47H5.61c-.26,0-.47-.21-.47-.47v-.66h0Z"/>
  </g>
  <text class="cls-4" transform="translate(15.29 17.33)"><tspan x="0" y="0">Proyecto III</tspan></text>
  <g>
    <rect class="cls-1" x="5.14" y="7.33" width="28.39" height="5.95" rx="1.08" ry="1.08"/>
    <path class="cls-2" d="M5.14,12.16h28.39c0,.62-.51,1.13-1.13,1.13H6.27c-.62,0-1.13-.51-1.13-1.13h0Z"/>
  </g>
  <text class="cls-4" transform="translate(15.21 10.25)"><tspan x="0" y="0">Proyecto IV</tspan></text>
  <g>
    <rect class="cls-1" x="35.81" y="2.42" width="28.39" height="9.22" rx="1.35" ry="1.35"/>
    <path class="cls-2" d="M35.81,10.51h28.39c0,.62-.51,1.13-1.13,1.13h-26.13c-.62,0-1.13-.51-1.13-1.13h0Z"/>
  </g>
  <text class="cls-4" transform="translate(41.79 5.28)"><tspan x="0" y="0">Electivo Mención I y S: </tspan><tspan x="-2.25" y="1.8">Complementos sostenibles y </tspan><tspan x="-.29" y="3.6">Joyería contemporánea</tspan></text>
</svg>