<?xml version="1.0" encoding="UTF-8"?>
<svg id="Capa_1" data-name="Capa 1" xmlns="http://www.w3.org/2000/svg" viewBox="0 0 100 27.46">
  <defs>
    <style>
      .cls-1, .cls-2, .cls-3 {
        stroke: #1d1d1b;
        stroke-miterlimit: 10;
        stroke-width: .25px;
      }

      .cls-1, .cls-4, .cls-5 {
        fill: #1d1d1b;
      }

      .cls-2 {
        fill: none;
      }

      .cls-4 {
        font-size: 1px;
      }

      .cls-4, .cls-5 {
        font-family: Futura-Medium, Futura;
        font-weight: 500;
      }

      .cls-5 {
        font-size: 2px;
      }

      .cls-3 {
        fill: #fff;
      }

      .cls-6 {
        letter-spacing: -.02em;
      }

      .cls-7 {
        letter-spacing: -.02em;
      }

      .cls-8 {
        letter-spacing: -.02em;
      }

      .cls-9 {
        letter-spacing: 0em;
      }

      .cls-10 {
        letter-spacing: 0em;
      }

      .cls-11 {
        letter-spacing: .02em;
      }

      .cls-12 {
        letter-spacing: .02em;
      }

      .cls-13 {
        letter-spacing: .04em;
      }

      .cls-14 {
        letter-spacing: 0em;
      }

      .cls-15 {
        letter-spacing: .01em;
      }

      .cls-16 {
        letter-spacing: 0em;
      }
    </style>
  </defs>
  <rect class="cls-3" x=".74" y=".9" width="98.36" height="25.75" rx="4.88" ry="4.88"/>
  <line class="cls-2" x1="5.19" y1="21.09" x2="94.81" y2="21.09"/>
  <rect class="cls-1" x="18.82" y="21.09" width="1.02" height="1.51"/>
  <rect class="cls-1" x="49.49" y="21.25" width="1.02" height="1.51"/>
  <rect class="cls-1" x="80.11" y="21.25" width="1.02" height="1.51"/>
  <rect class="cls-2" x="35.81" y="12.33" width="28.39" height="8.76"/>
  <text class="cls-5" transform="translate(37.6 15.17)"><tspan x="0" y="0">Electi</tspan><tspan class="cls-8" x="4.73" y="0">v</tspan><tspan x="5.7" y="0">o Mención V y M:</tspan><tspan x="0" y="2.4">Diseño G</tspan><tspan class="cls-9" x="8.47" y="2.4">r</tspan><tspan x="9.2" y="2.4">á</tspan><tspan class="cls-11" x="10.4" y="2.4">f</tspan><tspan x="11.04" y="2.4">ico pa</tspan><tspan class="cls-9" x="16.71" y="2.4">r</tspan><tspan x="17.44" y="2.4">a las </tspan><tspan x="0" y="4.8">A</tspan><tspan class="cls-13" x="1.48" y="4.8">r</tspan><tspan class="cls-16" x="2.3" y="4.8">t</tspan><tspan x="2.87" y="4.8">es</tspan></text>
  <text class="cls-4" transform="translate(45.57 24.2)"><tspan x="0" y="0">Ciclo especializado</tspan><tspan x="2.73" y="1.2">V y VIII</tspan></text>
  <text class="cls-4" transform="translate(16.57 24.2)"><tspan x="0" y="0">Ciclo básico</tspan><tspan x="1.52" y="1.2">I a IV</tspan></text>
  <text class="cls-4" transform="translate(76.78 24.2)"><tspan x="0" y="0">Ciclo p</tspan><tspan class="cls-10" x="3.18" y="0">r</tspan><tspan x="3.55" y="0">o</tspan><tspan class="cls-12" x="4.15" y="0">f</tspan><tspan x="4.46" y="0">esional</tspan><tspan x="2.46" y="1.2">IX a X</tspan></text>
  <rect class="cls-2" x="5.14" y="16.69" width="28.39" height="4.39"/>
  <text class="cls-5" transform="translate(7.11 19.46)"><tspan x="0" y="0">P</tspan><tspan class="cls-10" x="1.08" y="0">r</tspan><tspan class="cls-6" x="1.81" y="0">o</tspan><tspan class="cls-7" x="2.97" y="0">y</tspan><tspan x="4.02" y="0">ec</tspan><tspan class="cls-14" x="6.08" y="0">t</tspan><tspan x="6.64" y="0">o III</tspan></text>
  <rect class="cls-2" x="35.81" y="3.07" width="28.39" height="9.3"/>
  <text class="cls-5" transform="translate(37.77 6.03)"><tspan x="0" y="0">Electi</tspan><tspan class="cls-8" x="4.73" y="0">v</tspan><tspan x="5.7" y="0">o Mención I y S: </tspan><tspan x="0" y="2.4">Co</tspan><tspan class="cls-15" x="2.6" y="2.4">m</tspan><tspan x="4.21" y="2.4">plemen</tspan><tspan class="cls-14" x="10.8" y="2.4">t</tspan><tspan x="11.36" y="2.4">os sos</tspan><tspan class="cls-16" x="16.82" y="2.4">t</tspan><tspan x="17.38" y="2.4">enibles </tspan><tspan x="0" y="4.8">y J</tspan><tspan class="cls-6" x="2.52" y="4.8">o</tspan><tspan class="cls-7" x="3.68" y="4.8">y</tspan><tspan x="4.74" y="4.8">ería con</tspan><tspan class="cls-16" x="12.16" y="4.8">t</tspan><tspan x="12.72" y="4.8">e</tspan><tspan class="cls-15" x="13.83" y="4.8">m</tspan><tspan x="15.43" y="4.8">po</tspan><tspan class="cls-9" x="17.83" y="4.8">r</tspan><tspan x="18.57" y="4.8">ánea</tspan></text>
  <rect class="cls-2" x="66.42" y="16.43" width="28.39" height="4.66"/>
  <text class="cls-5" transform="translate(68.39 19.3)"><tspan x="0" y="0">P</tspan><tspan class="cls-10" x="1.08" y="0">r</tspan><tspan class="cls-6" x="1.81" y="0">o</tspan><tspan class="cls-7" x="2.97" y="0">y</tspan><tspan x="4.02" y="0">ec</tspan><tspan class="cls-14" x="6.08" y="0">t</tspan><tspan x="6.64" y="0">o de título I</tspan></text>
  <rect class="cls-2" x="5.14" y="12.33" width="28.39" height="4.39"/>
  <text class="cls-5" transform="translate(7.11 15.09)"><tspan x="0" y="0">P</tspan><tspan class="cls-10" x="1.08" y="0">r</tspan><tspan class="cls-6" x="1.81" y="0">o</tspan><tspan class="cls-7" x="2.97" y="0">y</tspan><tspan x="4.02" y="0">ec</tspan><tspan class="cls-14" x="6.08" y="0">t</tspan><tspan x="6.64" y="0">o IV</tspan></text>
</svg>