<?xml version="1.0" encoding="UTF-8"?>
<svg id="Capa_2" xmlns="http://www.w3.org/2000/svg" version="1.1" viewBox="0 0 100 20">
  <!-- Generator: Adobe Illustrator 29.5.1, SVG Export Plug-In . SVG Version: 2.1.0 Build 141)  -->
  <defs>
    <style>
      .st0 {
        fill: #ffccbc;
      }

      .st1 {
        fill: #ff5722;
      }

      .st2 {
        fill: #1d1d1b;
      }

      .st3 {
        fill: none;
        stroke: #ffccbc;
        stroke-miterlimit: 10;
        stroke-width: .25px;
      }
    </style>
  </defs>
  <g>
    <rect class="st0" x="40.56" y=".86" width="19.02" height="5.36" rx=".78" ry=".78"/>
    <rect class="st1" x="40.56" y="4.9" width="19.02" height="1.41" rx=".71" ry=".71"/>
  </g>
  <g>
    <path class="st2" d="M41.5,2.81v-.74h.52v.09h-.42v.56h.43v.09h-.54ZM41.6,2.48v-.09h.38v.09h-.38Z"/>
    <path class="st2" d="M42.19,2.81v-.79h.1v.79h-.1Z"/>
    <path class="st2" d="M42.74,2.81c-.06,0-.11-.01-.16-.04-.05-.03-.08-.06-.11-.1-.02-.04-.04-.09-.04-.15s.01-.11.04-.15.06-.08.1-.1c.04-.02.09-.04.14-.04s.1.01.14.04c.04.02.07.06.1.1.02.04.04.09.04.15,0,0,0,0,0,.01,0,0,0,.01,0,.02h-.48v-.07h.42l-.04.03s0-.07-.02-.1c-.02-.03-.04-.05-.06-.07-.03-.02-.06-.02-.09-.02s-.07,0-.09.02-.05.04-.06.07c-.02.03-.02.06-.02.1v.02s0,.07.03.1c.02.03.04.05.07.07.03.02.07.02.11.02.03,0,.06,0,.09-.02.03-.01.05-.03.07-.05l.06.07s-.06.05-.09.07c-.04.02-.08.02-.13.02Z"/>
    <path class="st2" d="M43.38,2.81c-.06,0-.11-.01-.15-.04-.04-.03-.08-.06-.11-.1-.03-.04-.04-.09-.04-.15s.01-.11.04-.15.06-.08.11-.1.1-.04.15-.04c.05,0,.1,0,.14.03.04.02.07.05.09.09l-.08.05s-.04-.05-.07-.06-.05-.02-.09-.02c-.04,0-.07,0-.1.02-.03.02-.05.04-.07.07-.02.03-.03.06-.03.1s0,.08.03.1c.02.03.04.05.07.07.03.02.06.02.1.02.03,0,.06,0,.09-.02.03-.01.05-.03.07-.06l.08.05s-.05.07-.09.09c-.04.02-.08.03-.14.03Z"/>
    <path class="st2" d="M43.66,2.33v-.08h.36v.08h-.36ZM43.94,2.81c-.06,0-.1-.02-.13-.05-.03-.03-.05-.07-.05-.13v-.51h.1v.51s0,.05.02.07c.02.02.04.02.06.02.03,0,.06,0,.08-.03l.03.07s-.03.02-.06.03c-.02,0-.04,0-.07,0Z"/>
    <path class="st2" d="M44.23,2.14s-.04,0-.05-.02c-.01-.01-.02-.03-.02-.05s0-.04.02-.05c.01-.01.03-.02.05-.02s.04,0,.05.02c.01.01.02.03.02.05,0,.02,0,.04-.02.05-.01.01-.03.02-.05.02ZM44.18,2.81v-.56h.1v.56h-.1Z"/>
    <path class="st2" d="M44.62,2.81l-.25-.56h.11l.22.51h-.05l.22-.51h.1l-.25.56h-.1Z"/>
    <path class="st2" d="M45.31,2.81c-.06,0-.11-.01-.15-.04-.04-.03-.08-.06-.1-.1-.03-.04-.04-.09-.04-.15s.01-.11.04-.15c.03-.04.06-.08.1-.1.04-.03.09-.04.15-.04s.11.01.15.04c.04.02.08.06.1.1.03.04.04.09.04.15s-.01.1-.04.15c-.02.04-.06.08-.1.1-.04.02-.09.04-.15.04ZM45.31,2.72s.07,0,.1-.02c.03-.02.05-.04.07-.07.02-.03.02-.06.02-.1,0-.04,0-.08-.02-.1s-.04-.05-.07-.07c-.03-.02-.06-.02-.1-.02s-.07,0-.1.02c-.03.02-.05.04-.07.07-.02.03-.03.06-.03.1s0,.07.03.1c.02.03.04.05.07.07.03.02.06.02.1.02Z"/>
    <path class="st2" d="M46.04,2.81v-.74h.09l.33.56h-.05l.33-.56h.09v.74s-.1,0-.1,0v-.58s.02,0,.02,0l-.29.49h-.05l-.29-.49h.03v.58h-.1Z"/>
    <path class="st2" d="M47.29,2.81c-.06,0-.11-.01-.16-.04-.05-.03-.08-.06-.11-.1-.02-.04-.04-.09-.04-.15s.01-.11.04-.15.06-.08.1-.1c.04-.02.09-.04.14-.04s.1.01.14.04c.04.02.07.06.1.1.02.04.04.09.04.15,0,0,0,0,0,.01,0,0,0,.01,0,.02h-.48v-.07h.42l-.04.03s0-.07-.02-.1c-.02-.03-.04-.05-.06-.07-.03-.02-.06-.02-.09-.02s-.07,0-.09.02-.05.04-.06.07c-.02.03-.02.06-.02.1v.02s0,.07.03.1c.02.03.04.05.07.07.03.02.07.02.11.02.03,0,.06,0,.09-.02.03-.01.05-.03.07-.05l.06.07s-.06.05-.09.07c-.04.02-.08.02-.13.02Z"/>
    <path class="st2" d="M47.69,2.81v-.56h.1v.15l-.02-.04s.05-.07.08-.09.08-.03.13-.03c.05,0,.09,0,.12.03.03.02.06.04.08.08.02.04.03.08.03.14v.32h-.1v-.31c0-.05-.01-.1-.04-.12s-.06-.04-.11-.04c-.04,0-.07,0-.09.02-.03.01-.05.03-.06.06-.01.03-.02.06-.02.1v.29h-.1Z"/>
    <path class="st2" d="M48.65,2.81c-.06,0-.11-.01-.15-.04-.04-.03-.08-.06-.11-.1-.03-.04-.04-.09-.04-.15s.01-.11.04-.15.06-.08.11-.1.1-.04.15-.04c.05,0,.1,0,.14.03.04.02.07.05.09.09l-.08.05s-.04-.05-.07-.06-.05-.02-.09-.02c-.04,0-.07,0-.1.02-.03.02-.05.04-.07.07-.02.03-.03.06-.03.1s0,.08.03.1c.02.03.04.05.07.07.03.02.06.02.1.02.03,0,.06,0,.09-.02.03-.01.05-.03.07-.06l.08.05s-.05.07-.09.09c-.04.02-.08.03-.14.03Z"/>
    <path class="st2" d="M49.06,2.14s-.04,0-.05-.02c-.01-.01-.02-.03-.02-.05s0-.04.02-.05c.01-.01.03-.02.05-.02s.04,0,.05.02c.01.01.02.03.02.05,0,.02,0,.04-.02.05-.01.01-.03.02-.05.02ZM49.01,2.81v-.56h.1v.56h-.1Z"/>
    <path class="st2" d="M49.55,2.81c-.06,0-.11-.01-.15-.04-.04-.03-.08-.06-.1-.1-.03-.04-.04-.09-.04-.15s.01-.11.04-.15c.03-.04.06-.08.1-.1.04-.03.09-.04.15-.04s.11.01.15.04c.04.02.08.06.1.1.03.04.04.09.04.15s-.01.1-.04.15c-.02.04-.06.08-.1.1-.04.02-.09.04-.15.04ZM49.55,2.72s.07,0,.1-.02c.03-.02.05-.04.07-.07.02-.03.02-.06.02-.1,0-.04,0-.08-.02-.1s-.04-.05-.07-.07c-.03-.02-.06-.02-.1-.02s-.07,0-.1.02c-.03.02-.05.04-.07.07-.02.03-.03.06-.03.1s0,.07.03.1c.02.03.04.05.07.07.03.02.06.02.1.02ZM49.47,2.16l.14-.14h.13l-.18.14h-.1Z"/>
    <path class="st2" d="M49.98,2.81v-.56h.1v.15l-.02-.04s.05-.07.08-.09.08-.03.13-.03c.05,0,.09,0,.12.03.03.02.06.04.08.08.02.04.03.08.03.14v.32h-.1v-.31c0-.05-.01-.1-.04-.12s-.06-.04-.11-.04c-.04,0-.07,0-.09.02-.03.01-.05.03-.06.06-.01.03-.02.06-.02.1v.29h-.1Z"/>
    <path class="st2" d="M51.22,2.81l-.33-.74h.11l.3.68h-.07l.3-.68h.11l-.33.74h-.11Z"/>
    <path class="st2" d="M52.05,3.02s-.05,0-.08-.01-.05-.02-.07-.04l.04-.08s.03.02.05.03c.02,0,.03.01.05.01.02,0,.04,0,.06-.02.02-.01.03-.04.04-.07l.04-.08h.01s.22-.52.22-.52h.1l-.27.62s-.03.07-.05.09-.04.04-.07.05c-.02,0-.05.01-.08.01ZM52.18,2.82l-.26-.58h.11l.22.5-.07.08Z"/>
    <path class="st2" d="M52.92,2.81v-.74h.09l.33.56h-.05l.33-.56h.09v.74s-.1,0-.1,0v-.58s.02,0,.02,0l-.29.49h-.05l-.29-.49h.03v.58h-.1Z"/>
    <path class="st2" d="M53.94,2.39s-.04,0-.05-.02c-.01-.01-.02-.03-.02-.05s0-.04.02-.05c.01-.01.03-.02.05-.02s.04,0,.05.02c.01.01.02.03.02.05s0,.04-.02.05-.03.02-.05.02ZM53.94,2.81s-.04,0-.05-.02c-.01-.01-.02-.03-.02-.05s0-.04.02-.05c.01-.01.03-.02.05-.02s.04,0,.05.02c.01.01.02.03.02.05s0,.04-.02.05-.03.02-.05.02Z"/>
    <path class="st2" d="M54.46,2.81v-.74h.11v.65h.4v.09h-.51Z"/>
    <path class="st2" d="M55.12,2.14s-.04,0-.05-.02c-.01-.01-.02-.03-.02-.05s0-.04.02-.05c.01-.01.03-.02.05-.02s.04,0,.05.02c.01.01.02.03.02.05,0,.02,0,.04-.02.05-.01.01-.03.02-.05.02ZM55.07,2.81v-.56h.1v.56h-.1Z"/>
    <path class="st2" d="M55.36,2.81v-.79h.1v.5s0,.13,0,.13v.15h-.1ZM55.66,2.81s-.09-.01-.13-.03c-.04-.02-.07-.05-.09-.1-.02-.04-.03-.09-.03-.16s.01-.12.03-.16c.02-.04.05-.07.09-.1.04-.02.08-.03.13-.03.06,0,.1.01.15.04.04.02.08.06.1.1s.04.09.04.15-.01.11-.04.15c-.02.04-.06.08-.1.1-.04.02-.09.04-.15.04ZM55.65,2.72s.07,0,.1-.02c.03-.02.05-.04.07-.07.02-.03.03-.06.03-.1,0-.04,0-.08-.03-.1s-.04-.05-.07-.07c-.03-.02-.06-.02-.1-.02s-.07,0-.1.02c-.03.02-.05.04-.07.07s-.03.06-.03.1,0,.07.03.1c.02.03.04.05.07.07.03.02.06.02.1.02Z"/>
    <path class="st2" d="M56.09,2.81v-.56h.1v.15-.04s.03-.07.07-.09c.04-.02.08-.03.14-.03v.1s0,0-.01,0h-.01c-.05,0-.1.02-.13.05-.03.03-.05.08-.05.14v.28h-.1Z"/>
    <path class="st2" d="M56.76,2.81c-.06,0-.11-.01-.15-.04-.04-.03-.08-.06-.1-.1-.03-.04-.04-.09-.04-.15s.01-.11.04-.15c.03-.04.06-.08.1-.1.04-.03.09-.04.15-.04s.11.01.15.04c.04.02.08.06.1.1s.04.09.04.15-.01.1-.04.15c-.03.04-.06.08-.1.1-.04.02-.09.04-.15.04ZM56.76,2.72s.07,0,.1-.02c.03-.02.05-.04.07-.07.02-.03.02-.06.02-.1,0-.04,0-.08-.02-.1-.02-.03-.04-.05-.07-.07-.03-.02-.06-.02-.1-.02s-.07,0-.1.02c-.03.02-.05.04-.07.07s-.03.06-.03.1,0,.07.03.1c.02.03.04.05.07.07.03.02.06.02.1.02Z"/>
    <path class="st2" d="M57.71,2.81c-.05,0-.1-.01-.15-.04-.04-.02-.08-.06-.1-.1-.02-.04-.04-.09-.04-.15s.01-.11.04-.15c.03-.04.06-.08.1-.1.04-.02.09-.04.15-.04.05,0,.09.01.13.03.04.02.07.05.09.1.02.04.03.09.03.16s-.01.12-.03.16c-.02.04-.05.07-.09.1s-.08.03-.13.03ZM57.72,2.72s.07,0,.1-.02c.03-.02.05-.04.07-.07.02-.03.03-.06.03-.1,0-.04,0-.08-.03-.1s-.04-.05-.07-.07c-.03-.02-.06-.02-.1-.02s-.07,0-.1.02c-.03.02-.05.04-.07.07-.02.03-.03.06-.03.1s0,.07.03.1c.02.03.04.05.07.07.03.02.06.02.1.02ZM57.91,2.81v-.28s0-.13,0-.13v-.37h.1v.79h-.1Z"/>
    <path class="st2" d="M58.45,2.81c-.06,0-.11-.01-.16-.04-.05-.03-.08-.06-.11-.1-.02-.04-.04-.09-.04-.15s.01-.11.04-.15.06-.08.1-.1c.04-.02.09-.04.14-.04s.1.01.14.04c.04.02.07.06.1.1.02.04.04.09.04.15,0,0,0,0,0,.01s0,.01,0,.02h-.48v-.07h.42l-.04.03s0-.07-.02-.1-.04-.05-.06-.07c-.03-.02-.06-.02-.09-.02s-.07,0-.09.02-.05.04-.06.07c-.02.03-.02.06-.02.1v.02s0,.07.03.1c.02.03.04.05.07.07.03.02.07.02.11.02.03,0,.06,0,.09-.02s.05-.03.07-.05l.06.07s-.06.05-.09.07c-.04.02-.08.02-.13.02Z"/>
    <path class="st2" d="M44.04,4.09s-.08,0-.11-.02c-.03-.01-.06-.03-.07-.06-.02-.03-.03-.05-.03-.09,0-.03,0-.06.02-.08.01-.03.04-.04.07-.06.03-.01.08-.02.13-.02h.18v.07h-.17c-.05,0-.08,0-.1.03s-.03.04-.03.06c0,.03.01.05.03.07s.05.02.09.02.07,0,.1-.03c.03-.02.05-.04.06-.07l.02.07s-.04.06-.07.08c-.03.02-.08.03-.13.03ZM44.23,4.08v-.14s0-.2,0-.2c0-.04-.01-.08-.04-.1-.02-.02-.06-.04-.11-.04-.03,0-.07,0-.1.02-.03.01-.06.03-.08.04l-.04-.08s.06-.04.1-.05c.04-.01.08-.02.13-.02.08,0,.14.02.18.06.04.04.06.09.06.17v.34h-.1Z"/>
    <path class="st2" d="M44.51,4.08v-.56h.1v.15-.04s.03-.07.07-.09.08-.03.14-.03v.1s0,0-.01,0h-.01c-.05,0-.1.02-.13.05-.03.03-.05.08-.05.14v.28h-.1Z"/>
    <path class="st2" d="M44.86,3.6v-.08h.36v.08h-.36ZM45.14,4.09c-.06,0-.1-.02-.13-.05-.03-.03-.05-.07-.05-.13v-.51h.1v.51s0,.05.02.07c.02.02.04.02.06.02.03,0,.06,0,.08-.03l.03.07s-.03.02-.06.03c-.02,0-.04,0-.07,0Z"/>
    <path class="st2" d="M45.43,3.41s-.04,0-.05-.02c-.01-.01-.02-.03-.02-.05s0-.04.02-.05c.01-.01.03-.02.05-.02s.04,0,.05.02c.01.01.02.03.02.05,0,.02,0,.04-.02.05-.01.01-.03.02-.05.02ZM45.38,4.08v-.56h.1v.56h-.1Z"/>
    <path class="st2" d="M45.84,4.09s-.09,0-.13-.02-.08-.03-.1-.05l.04-.08s.05.03.09.04c.04.01.07.02.11.02.05,0,.08,0,.1-.02.02-.01.03-.03.03-.06,0-.02,0-.03-.02-.04s-.03-.02-.05-.02c-.02,0-.04,0-.07-.01-.03,0-.05,0-.08-.01-.03,0-.05-.01-.07-.03-.02-.01-.04-.03-.05-.05s-.02-.05-.02-.08c0-.03,0-.06.03-.09.02-.03.05-.04.08-.06.04-.01.08-.02.12-.02.04,0,.07,0,.11.01.04,0,.07.02.09.04l-.04.08s-.05-.03-.08-.04c-.03,0-.05,0-.08,0-.04,0-.08,0-.1.02s-.03.03-.03.06c0,.02,0,.03.02.04.01,0,.03.02.05.02.02,0,.04.01.07.01s.05,0,.08.01.05.01.07.03c.02,0,.04.03.05.04.01.02.02.04.02.08,0,.03,0,.06-.03.09-.02.03-.05.04-.08.06s-.08.02-.13.02Z"/>
    <path class="st2" d="M46.13,3.6v-.08h.36v.08h-.36ZM46.4,4.09c-.06,0-.1-.02-.13-.05-.03-.03-.05-.07-.05-.13v-.51h.1v.51s0,.05.02.07c.02.02.04.02.06.02.03,0,.06,0,.08-.03l.03.07s-.03.02-.06.03c-.02,0-.04,0-.07,0Z"/>
    <path class="st2" d="M46.81,4.09s-.08,0-.11-.02c-.03-.01-.06-.03-.07-.06-.02-.03-.03-.05-.03-.09,0-.03,0-.06.02-.08.01-.03.04-.04.07-.06.03-.01.08-.02.13-.02h.18v.07h-.17c-.05,0-.08,0-.1.03s-.03.04-.03.06c0,.03.01.05.03.07s.05.02.09.02.07,0,.1-.03c.03-.02.05-.04.06-.07l.02.07s-.04.06-.07.08c-.03.02-.08.03-.13.03ZM47,4.08v-.14s0-.2,0-.2c0-.04-.01-.08-.04-.1-.02-.02-.06-.04-.11-.04-.03,0-.07,0-.1.02-.03.01-.06.03-.08.04l-.04-.08s.06-.04.1-.05c.04-.01.08-.02.13-.02.08,0,.14.02.18.06.04.04.06.09.06.17v.34h-.1Z"/>
    <path class="st2" d="M47.24,4.24l.05-.21v.06s-.02,0-.04-.02c-.01-.01-.02-.03-.02-.05s0-.04.02-.05c.01-.01.03-.02.05-.02.02,0,.04,0,.05.02s.02.03.02.05c0,0,0,.01,0,.02s0,.01,0,.02,0,.02-.01.03l-.05.15h-.07Z"/>
    <path class="st2" d="M47.73,3.6v-.08h.36v.08h-.36ZM48,4.09c-.06,0-.1-.02-.13-.05-.03-.03-.05-.07-.05-.13v-.51h.1v.51s0,.05.02.07c.02.02.04.02.06.02.03,0,.06,0,.08-.03l.03.07s-.03.02-.06.03c-.02,0-.04,0-.07,0Z"/>
    <path class="st2" d="M48.49,4.09c-.06,0-.11-.01-.16-.04-.05-.03-.08-.06-.11-.1-.02-.04-.04-.09-.04-.15s.01-.11.04-.15.06-.08.1-.1c.04-.02.09-.04.14-.04s.1.01.14.04c.04.02.07.06.1.1.02.04.04.09.04.15,0,0,0,0,0,.01,0,0,0,.01,0,.02h-.48v-.07h.42l-.04.03s0-.07-.02-.1c-.02-.03-.04-.05-.06-.07-.03-.02-.06-.02-.09-.02s-.07,0-.09.02-.05.04-.06.07c-.02.03-.02.06-.02.1v.02s0,.07.03.1c.02.03.04.05.07.07.03.02.07.02.11.02.03,0,.06,0,.09-.02.03-.01.05-.03.07-.05l.06.07s-.06.05-.09.07c-.04.02-.08.02-.13.02Z"/>
    <path class="st2" d="M49.13,4.09c-.06,0-.11-.01-.15-.04-.04-.03-.08-.06-.1-.1-.03-.04-.04-.09-.04-.15s.01-.11.04-.15c.03-.04.06-.08.1-.1.04-.03.09-.04.15-.04s.11.01.15.04c.04.02.08.06.1.1.03.04.04.09.04.15s-.01.1-.04.15c-.02.04-.06.08-.1.1-.04.02-.09.04-.15.04ZM49.13,4s.07,0,.1-.02c.03-.02.05-.04.07-.07.02-.03.02-.06.02-.1,0-.04,0-.08-.02-.1s-.04-.05-.07-.07c-.03-.02-.06-.02-.1-.02s-.07,0-.1.02c-.03.02-.05.04-.07.07-.02.03-.03.06-.03.1s0,.07.03.1c.02.03.04.05.07.07.03.02.06.02.1.02Z"/>
    <path class="st2" d="M49.57,4.08v-.56h.1v.15-.04s.03-.07.07-.09.08-.03.14-.03v.1s0,0-.01,0h-.01c-.05,0-.1.02-.13.05-.03.03-.05.08-.05.14v.28h-.1Z"/>
    <path class="st2" d="M49.97,3.44l.14-.14h.13l-.18.14h-.1ZM50,4.08v-.56h.1v.56h-.1Z"/>
    <path class="st2" d="M50.46,4.09s-.08,0-.11-.02c-.03-.01-.06-.03-.07-.06-.02-.03-.03-.05-.03-.09,0-.03,0-.06.02-.08.01-.03.04-.04.07-.06.03-.01.08-.02.13-.02h.18v.07h-.17c-.05,0-.08,0-.1.03s-.03.04-.03.06c0,.03.01.05.03.07s.05.02.09.02.07,0,.1-.03c.03-.02.05-.04.06-.07l.02.07s-.04.06-.07.08c-.03.02-.08.03-.13.03ZM50.64,4.08v-.14s0-.2,0-.2c0-.04-.01-.08-.04-.1-.02-.02-.06-.04-.11-.04-.03,0-.07,0-.1.02-.03.01-.06.03-.08.04l-.04-.08s.06-.04.1-.05c.04-.01.08-.02.13-.02.08,0,.14.02.18.06.04.04.06.09.06.17v.34h-.1Z"/>
    <path class="st2" d="M51.24,4.29s-.05,0-.08-.01-.05-.02-.07-.04l.04-.08s.03.02.05.03.04.01.05.01c.03,0,.05,0,.06-.02.02-.01.03-.04.05-.07l.04-.08h.01s.22-.52.22-.52h.1l-.27.62s-.03.07-.05.09c-.02.02-.04.04-.07.05-.02,0-.05.01-.08.01ZM51.37,4.1l-.26-.58h.11l.22.5-.07.08Z"/>
    <path class="st2" d="M52.09,4.28v-.77h.1v.28s0,.13,0,.13v.35h-.1ZM52.39,4.09s-.09-.01-.13-.03-.07-.05-.09-.1c-.02-.04-.04-.09-.04-.16s.01-.12.03-.16c.02-.04.05-.07.09-.1.04-.02.08-.03.13-.03.05,0,.1.01.15.04.04.02.08.06.1.1.03.04.04.09.04.15s-.01.11-.04.15c-.02.04-.06.08-.1.1-.04.02-.09.04-.15.04ZM52.38,4s.07,0,.1-.02c.03-.02.05-.04.07-.07.02-.03.02-.06.02-.1,0-.04,0-.08-.02-.1s-.04-.05-.07-.07c-.03-.02-.06-.02-.1-.02s-.07,0-.1.02c-.03.02-.05.04-.07.07s-.02.06-.02.1,0,.07.02.1c.02.03.04.05.07.07.03.02.06.02.1.02Z"/>
    <path class="st2" d="M52.81,4.08v-.56h.1v.15-.04s.03-.07.07-.09c.04-.02.08-.03.14-.03v.1s0,0-.01,0h-.01c-.05,0-.1.02-.13.05-.03.03-.05.08-.05.14v.28h-.1Z"/>
    <path class="st2" d="M53.41,4.09s-.08,0-.11-.02c-.03-.01-.06-.03-.07-.06-.02-.03-.03-.05-.03-.09,0-.03,0-.06.02-.08.01-.03.04-.04.07-.06.03-.01.08-.02.13-.02h.18v.07h-.17c-.05,0-.08,0-.1.03s-.03.04-.03.06c0,.03.01.05.03.07.02.02.05.02.09.02s.07,0,.1-.03c.03-.02.05-.04.06-.07l.02.07s-.04.06-.07.08c-.03.02-.08.03-.13.03ZM53.6,4.08v-.14s0-.2,0-.2c0-.04-.01-.08-.04-.1s-.06-.04-.11-.04c-.03,0-.07,0-.1.02-.03.01-.06.03-.08.04l-.04-.08s.06-.04.1-.05c.04-.01.08-.02.13-.02.08,0,.14.02.18.06.04.04.06.09.06.17v.34h-.1ZM53.38,3.44l.14-.14h.13l-.18.14h-.09Z"/>
    <path class="st2" d="M54.13,4.09c-.06,0-.11-.01-.15-.04-.04-.03-.08-.06-.11-.1-.03-.04-.04-.09-.04-.15s.01-.11.04-.15.06-.08.11-.1.1-.04.15-.04c.05,0,.1,0,.14.03.04.02.07.05.09.09l-.08.05s-.04-.05-.07-.06-.05-.02-.09-.02c-.04,0-.07,0-.1.02-.03.02-.05.04-.07.07s-.03.06-.03.1,0,.08.03.1.04.05.07.07c.03.02.06.02.1.02.03,0,.06,0,.09-.02.03-.01.05-.03.07-.06l.08.05s-.05.07-.09.09c-.04.02-.08.03-.14.03Z"/>
    <path class="st2" d="M54.41,3.6v-.08h.36v.08h-.36ZM54.68,4.09c-.06,0-.1-.02-.13-.05s-.05-.07-.05-.13v-.51h.1v.51s0,.05.02.07c.01.02.04.02.06.02.03,0,.06,0,.08-.03l.03.07s-.03.02-.06.03c-.02,0-.04,0-.07,0Z"/>
    <path class="st2" d="M54.97,3.41s-.04,0-.05-.02c-.01-.01-.02-.03-.02-.05s0-.04.02-.05c.01-.01.03-.02.05-.02s.04,0,.05.02c.01.01.02.03.02.05,0,.02,0,.04-.02.05-.01.01-.03.02-.05.02ZM54.92,4.08v-.56h.1v.56h-.1Z"/>
    <path class="st2" d="M55.46,4.09c-.06,0-.11-.01-.15-.04-.04-.03-.08-.06-.11-.1-.03-.04-.04-.09-.04-.15s.01-.11.04-.15.06-.08.11-.1.1-.04.15-.04c.05,0,.1,0,.14.03.04.02.07.05.09.09l-.08.05s-.04-.05-.07-.06-.05-.02-.09-.02c-.04,0-.07,0-.1.02-.03.02-.05.04-.07.07s-.03.06-.03.1,0,.08.03.1.04.05.07.07c.03.02.06.02.1.02.03,0,.06,0,.09-.02.03-.01.05-.03.07-.06l.08.05s-.05.07-.09.09c-.04.02-.08.03-.14.03Z"/>
    <path class="st2" d="M55.99,4.09s-.08,0-.11-.02c-.03-.01-.06-.03-.07-.06-.02-.03-.03-.05-.03-.09,0-.03,0-.06.02-.08.01-.03.04-.04.07-.06.03-.01.08-.02.13-.02h.18v.07h-.17c-.05,0-.08,0-.1.03s-.03.04-.03.06c0,.03.01.05.03.07.02.02.05.02.09.02s.07,0,.1-.03c.03-.02.05-.04.06-.07l.02.07s-.04.06-.07.08c-.03.02-.08.03-.13.03ZM56.17,4.08v-.14s0-.2,0-.2c0-.04-.01-.08-.04-.1s-.06-.04-.11-.04c-.03,0-.07,0-.1.02-.03.01-.06.03-.08.04l-.04-.08s.06-.04.1-.05c.04-.01.08-.02.13-.02.08,0,.14.02.18.06.04.04.06.09.06.17v.34h-.1Z"/>
  </g>
  <line class="st3" x1="3.98" y1="15.01" x2="96.16" y2="15.01"/>
  <g>
    <rect class="st0" x="40.56" y="8.05" width="19.02" height="5.36" rx=".78" ry=".78"/>
    <rect class="st1" x="40.56" y="12.09" width="19.02" height="1.41" rx=".71" ry=".71"/>
  </g>
  <g>
    <rect class="st0" x="12.94" y=".91" width="19.02" height="5.36" rx=".78" ry=".78"/>
    <rect class="st1" x="12.94" y="4.95" width="19.02" height="1.41" rx=".71" ry=".71"/>
  </g>
  <g>
    <rect class="st0" x="12.62" y="7.96" width="19.02" height="5.36" rx=".78" ry=".78"/>
    <rect class="st1" x="12.62" y="12" width="19.02" height="1.41" rx=".71" ry=".71"/>
  </g>
  <line class="st3" x1="21.71" y1="14.12" x2="21.71" y2="15.88"/>
  <line class="st3" x1="50.07" y1="14.13" x2="50.07" y2="15.89"/>
  <line class="st3" x1="75.52" y1="14.07" x2="75.52" y2="15.83"/>
  <g>
    <path class="st2" d="M43.11,10.69c-.06,0-.11,0-.16-.03-.05-.02-.09-.04-.12-.07l.04-.08s.06.04.11.06c.04.02.09.02.14.02.04,0,.08,0,.1-.01s.05-.02.06-.04c.01-.02.02-.04.02-.06,0-.03,0-.05-.02-.06-.02-.01-.04-.03-.06-.04-.03,0-.06-.02-.09-.03-.03,0-.06-.01-.1-.02s-.06-.02-.09-.04c-.03-.02-.05-.04-.06-.06-.02-.02-.02-.06-.02-.1s0-.07.03-.11c.02-.03.05-.06.09-.08.04-.02.1-.03.16-.03.04,0,.09,0,.13.02.04.01.08.03.11.05l-.03.08s-.07-.04-.1-.05c-.04,0-.07-.01-.1-.01-.04,0-.08,0-.1.02-.03,0-.05.02-.06.04-.01.02-.02.04-.02.06,0,.03,0,.05.02.06s.04.03.06.04c.03,0,.06.02.09.02.03,0,.06.02.1.03.03,0,.06.02.09.04.03.02.05.04.06.06.02.03.02.06.02.1s-.01.07-.03.1-.05.06-.09.08c-.04.02-.1.03-.16.03Z"/>
    <path class="st2" d="M43.78,10.69c-.06,0-.11-.01-.16-.04-.05-.03-.08-.06-.11-.1-.02-.04-.04-.09-.04-.15s.01-.11.04-.15.06-.08.1-.1c.04-.02.09-.04.14-.04s.1.01.14.04c.04.02.07.06.1.1.02.04.04.09.04.15,0,0,0,0,0,.01,0,0,0,.01,0,.02h-.48v-.07h.42l-.04.03s0-.07-.02-.1c-.02-.03-.04-.05-.06-.07-.03-.02-.06-.02-.09-.02s-.07,0-.09.02-.05.04-.06.07c-.02.03-.02.06-.02.1v.02s0,.07.03.1c.02.03.04.05.07.07.03.02.07.02.11.02.03,0,.06,0,.09-.02.03-.01.05-.03.07-.05l.06.07s-.06.05-.09.07c-.04.02-.08.02-.13.02Z"/>
    <path class="st2" d="M44.18,10.68v-.56h.1v.15l-.02-.04s.04-.07.08-.09c.04-.02.08-.03.13-.03.05,0,.1.01.14.04.04.03.06.07.08.12l-.04-.02s.05-.08.09-.1.09-.04.15-.04c.04,0,.08,0,.12.03s.06.04.08.08.03.08.03.14v.32h-.1v-.31c0-.05-.01-.1-.04-.12s-.06-.04-.11-.04c-.03,0-.06,0-.09.02-.03.01-.04.03-.06.06s-.02.06-.02.1v.29h-.1v-.31c0-.05-.01-.1-.04-.12-.03-.03-.06-.04-.11-.04-.03,0-.06,0-.09.02-.03.01-.05.03-.06.06-.01.03-.02.06-.02.1v.29h-.1Z"/>
    <path class="st2" d="M45.35,10.01s-.04,0-.05-.02c-.01-.01-.02-.03-.02-.05s0-.04.02-.05c.01-.01.03-.02.05-.02s.04,0,.05.02c.01.01.02.03.02.05,0,.02,0,.04-.02.05-.01.01-.03.02-.05.02ZM45.3,10.68v-.56h.1v.56h-.1Z"/>
    <path class="st2" d="M45.6,10.68v-.56h.1v.15l-.02-.04s.05-.07.08-.09.08-.03.13-.03c.05,0,.09,0,.12.03.03.02.06.04.08.08.02.04.03.08.03.14v.32h-.1v-.31c0-.05-.01-.1-.04-.12s-.06-.04-.11-.04c-.04,0-.07,0-.09.02-.03.01-.05.03-.06.06-.01.03-.02.06-.02.1v.29h-.1Z"/>
    <path class="st2" d="M46.48,10.69s-.08,0-.11-.02c-.03-.01-.06-.03-.07-.06-.02-.03-.03-.05-.03-.09,0-.03,0-.06.02-.08.01-.03.04-.04.07-.06.03-.01.08-.02.13-.02h.18v.07h-.17c-.05,0-.08,0-.1.03s-.03.04-.03.06c0,.03.01.05.03.07s.05.02.09.02.07,0,.1-.03c.03-.02.05-.04.06-.07l.02.07s-.04.06-.07.08c-.03.02-.08.03-.13.03ZM46.67,10.68v-.14s0-.2,0-.2c0-.04-.01-.08-.04-.1-.02-.02-.06-.04-.11-.04-.03,0-.07,0-.1.02-.03.01-.06.03-.08.04l-.04-.08s.06-.04.1-.05c.04-.01.08-.02.13-.02.08,0,.14.02.18.06.04.04.06.09.06.17v.34h-.1Z"/>
    <path class="st2" d="M46.95,10.68v-.56h.1v.15-.04s.03-.07.07-.09.08-.03.14-.03v.1s0,0-.01,0h-.01c-.05,0-.1.02-.13.05-.03.03-.05.08-.05.14v.28h-.1Z"/>
    <path class="st2" d="M47.44,10.01s-.04,0-.05-.02c-.01-.01-.02-.03-.02-.05s0-.04.02-.05c.01-.01.03-.02.05-.02s.04,0,.05.02c.01.01.02.03.02.05,0,.02,0,.04-.02.05-.01.01-.03.02-.05.02ZM47.39,10.68v-.56h.1v.56h-.1Z"/>
    <path class="st2" d="M47.92,10.69c-.06,0-.11-.01-.15-.04-.04-.03-.08-.06-.1-.1-.03-.04-.04-.09-.04-.15s.01-.11.04-.15c.03-.04.06-.08.1-.1.04-.03.09-.04.15-.04s.11.01.15.04c.04.02.08.06.1.1.03.04.04.09.04.15s-.01.1-.04.15c-.02.04-.06.08-.1.1-.04.02-.09.04-.15.04ZM47.92,10.6s.07,0,.1-.02c.03-.02.05-.04.07-.07.02-.03.02-.06.02-.1,0-.04,0-.08-.02-.1s-.04-.05-.07-.07c-.03-.02-.06-.02-.1-.02s-.07,0-.1.02c-.03.02-.05.04-.07.07-.02.03-.03.06-.03.1s0,.07.03.1c.02.03.04.05.07.07.03.02.06.02.1.02Z"/>
    <path class="st2" d="M48.87,10.69c-.05,0-.1-.01-.15-.04-.04-.02-.08-.06-.1-.1-.02-.04-.04-.09-.04-.15s.01-.11.04-.15.06-.08.1-.1c.04-.02.09-.04.15-.04.05,0,.09.01.13.03.04.02.07.05.09.1.02.04.03.09.03.16s-.01.12-.03.16c-.02.04-.05.07-.09.1s-.08.03-.13.03ZM48.88,10.6s.07,0,.1-.02c.03-.02.05-.04.07-.07.02-.03.02-.06.02-.1,0-.04,0-.08-.02-.1s-.04-.05-.07-.07c-.03-.02-.06-.02-.1-.02s-.07,0-.1.02c-.03.02-.05.04-.07.07-.02.03-.03.06-.03.1s0,.07.03.1c.02.03.04.05.07.07.03.02.06.02.1.02ZM49.07,10.68v-.28s0-.13,0-.13v-.37h.1v.79h-.1Z"/>
    <path class="st2" d="M49.61,10.69c-.06,0-.11-.01-.16-.04-.05-.03-.08-.06-.11-.1-.02-.04-.04-.09-.04-.15s.01-.11.04-.15.06-.08.1-.1c.04-.02.09-.04.14-.04s.1.01.14.04c.04.02.07.06.1.1.02.04.04.09.04.15,0,0,0,0,0,.01,0,0,0,.01,0,.02h-.48v-.07h.42l-.04.03s0-.07-.02-.1c-.02-.03-.04-.05-.06-.07-.03-.02-.06-.02-.09-.02s-.07,0-.09.02-.05.04-.06.07c-.02.03-.02.06-.02.1v.02s0,.07.03.1c.02.03.04.05.07.07.03.02.07.02.11.02.03,0,.06,0,.09-.02.03-.01.05-.03.07-.05l.06.07s-.06.05-.09.07c-.04.02-.08.02-.13.02Z"/>
    <path class="st2" d="M50.31,10.68v-.74h.11v.65h.4v.09h-.51Z"/>
    <path class="st2" d="M50.98,10.01s-.04,0-.05-.02c-.01-.01-.02-.03-.02-.05s0-.04.02-.05c.01-.01.03-.02.05-.02s.04,0,.05.02.02.03.02.05c0,.02,0,.04-.02.05-.01.01-.03.02-.05.02ZM50.92,10.68v-.56h.1v.56h-.1Z"/>
    <path class="st2" d="M51.46,10.69c-.06,0-.11-.01-.15-.04-.04-.03-.08-.06-.11-.1-.03-.04-.04-.09-.04-.15s.01-.11.04-.15.06-.08.11-.1.1-.04.15-.04c.05,0,.1,0,.14.03.04.02.07.05.09.09l-.08.05s-.04-.05-.07-.06-.05-.02-.09-.02c-.04,0-.07,0-.1.02-.03.02-.05.04-.07.07s-.03.06-.03.1,0,.08.03.1.04.05.07.07c.03.02.06.02.1.02.03,0,.06,0,.09-.02.03-.01.05-.03.07-.06l.08.05s-.05.07-.09.09c-.04.02-.08.03-.14.03Z"/>
    <path class="st2" d="M52.07,10.69c-.06,0-.11-.01-.16-.04-.04-.03-.08-.06-.11-.1-.03-.04-.04-.09-.04-.15s.01-.11.04-.15.06-.08.1-.1.09-.04.14-.04.1.01.14.04c.04.02.07.06.1.1.02.04.04.09.04.15,0,0,0,0,0,.01,0,0,0,.01,0,.02h-.48v-.07h.42l-.04.03s0-.07-.02-.1c-.02-.03-.04-.05-.06-.07s-.06-.02-.09-.02-.07,0-.09.02-.05.04-.06.07c-.02.03-.02.06-.02.1v.02s0,.07.03.1c.02.03.04.05.07.07.03.02.07.02.11.02.03,0,.06,0,.09-.02.03-.01.05-.03.07-.05l.06.07s-.06.05-.09.07-.08.02-.13.02Z"/>
    <path class="st2" d="M52.47,10.68v-.56h.1v.15l-.02-.04s.05-.07.08-.09.08-.03.13-.03c.05,0,.09,0,.12.03.03.02.06.04.08.08.02.04.03.08.03.14v.32h-.1v-.31c0-.05-.01-.1-.04-.12s-.06-.04-.11-.04c-.04,0-.07,0-.09.02-.03.01-.05.03-.06.06-.01.03-.02.06-.02.1v.29h-.1Z"/>
    <path class="st2" d="M53.44,10.69c-.06,0-.11-.01-.15-.04-.04-.03-.08-.06-.11-.1-.03-.04-.04-.09-.04-.15s.01-.11.04-.15.06-.08.11-.1.1-.04.15-.04c.05,0,.1,0,.14.03.04.02.07.05.09.09l-.08.05s-.04-.05-.07-.06-.05-.02-.09-.02c-.04,0-.07,0-.1.02-.03.02-.05.04-.07.07s-.03.06-.03.1,0,.08.03.1.04.05.07.07c.03.02.06.02.1.02.03,0,.06,0,.09-.02.03-.01.05-.03.07-.06l.08.05s-.05.07-.09.09c-.04.02-.08.03-.14.03Z"/>
    <path class="st2" d="M53.85,10.01s-.04,0-.05-.02c-.01-.01-.02-.03-.02-.05s0-.04.02-.05c.01-.01.03-.02.05-.02s.04,0,.05.02c.01.01.02.03.02.05,0,.02,0,.04-.02.05-.01.01-.03.02-.05.02ZM53.8,10.68v-.56h.1v.56h-.1Z"/>
    <path class="st2" d="M54.26,10.69s-.08,0-.11-.02c-.03-.01-.06-.03-.07-.06-.02-.03-.03-.05-.03-.09,0-.03,0-.06.02-.08.01-.03.04-.04.07-.06.03-.01.08-.02.13-.02h.18v.07h-.17c-.05,0-.08,0-.1.03s-.03.04-.03.06c0,.03.01.05.03.07.02.02.05.02.09.02s.07,0,.1-.03c.03-.02.05-.04.06-.07l.02.07s-.04.06-.07.08c-.03.02-.08.03-.13.03ZM54.44,10.68v-.14s0-.2,0-.2c0-.04-.01-.08-.04-.1s-.06-.04-.11-.04c-.03,0-.07,0-.1.02-.03.01-.06.03-.08.04l-.04-.08s.06-.04.1-.05c.04-.01.08-.02.13-.02.08,0,.14.02.18.06.04.04.06.09.06.17v.34h-.1Z"/>
    <path class="st2" d="M54.65,10.21v-.08h.36v.08h-.36ZM54.92,10.69c-.06,0-.1-.02-.13-.05-.03-.03-.05-.07-.05-.13v-.51h.1v.51s0,.05.02.07c.02.02.04.02.07.02.03,0,.06,0,.08-.03l.03.07s-.03.02-.06.03c-.02,0-.04,0-.07,0Z"/>
    <path class="st2" d="M55.4,10.69s-.09,0-.13-.03c-.04-.02-.06-.04-.08-.08-.02-.04-.03-.08-.03-.14v-.32h.1v.31c0,.05.01.1.04.12s.06.04.11.04c.04,0,.07,0,.09-.02.03-.01.05-.04.06-.06.01-.03.02-.06.02-.1v-.29h.1v.56h-.1v-.15l.02.04s-.05.07-.08.09c-.04.02-.08.03-.12.03Z"/>
    <path class="st2" d="M55.88,10.68v-.56h.1v.15-.04s.03-.07.07-.09c.04-.02.08-.03.14-.03v.1s0,0-.01,0h-.01c-.05,0-.1.02-.13.05-.03.03-.05.08-.05.14v.28h-.1Z"/>
    <path class="st2" d="M56.46,10.69s-.08,0-.11-.02c-.03-.01-.06-.03-.07-.06-.02-.03-.03-.05-.03-.09,0-.03,0-.06.02-.08.01-.03.04-.04.07-.06.03-.01.08-.02.13-.02h.18v.07h-.17c-.05,0-.08,0-.1.03s-.03.04-.03.06c0,.03.01.05.03.07.02.02.05.02.09.02s.07,0,.1-.03c.03-.02.05-.04.06-.07l.02.07s-.04.06-.07.08c-.03.02-.08.03-.13.03ZM56.65,10.68v-.14s0-.2,0-.2c0-.04-.01-.08-.04-.1s-.06-.04-.11-.04c-.03,0-.07,0-.1.02-.03.01-.06.03-.08.04l-.04-.08s.06-.04.1-.05c.04-.01.08-.02.13-.02.08,0,.14.02.18.06.04.04.06.09.06.17v.34h-.1Z"/>
    <path class="st2" d="M57.23,10.68v-.74h.11v.74h-.11Z"/>
  </g>
  <g>
    <path class="st2" d="M16.02,10.68v-.74h.11v.65h.4v.09h-.51Z"/>
    <path class="st2" d="M16.87,10.69c-.06,0-.11-.01-.16-.04-.05-.03-.08-.06-.11-.1-.02-.04-.04-.09-.04-.15s.01-.11.04-.15.06-.08.1-.1c.04-.02.09-.04.14-.04s.1.01.14.04c.04.02.07.06.1.1.02.04.04.09.04.15,0,0,0,0,0,.01,0,0,0,.01,0,.02h-.48v-.07h.42l-.04.03s0-.07-.02-.1c-.02-.03-.04-.05-.06-.07-.03-.02-.06-.02-.09-.02s-.07,0-.09.02-.05.04-.06.07c-.02.03-.02.06-.02.1v.02s0,.07.03.1c.02.03.04.05.07.07.03.02.07.02.11.02.03,0,.06,0,.09-.02.03-.01.05-.03.07-.05l.06.07s-.06.05-.09.07c-.04.02-.08.02-.13.02Z"/>
    <path class="st2" d="M17.25,10.68v-.56h.1v.15l-.02-.04s.05-.07.08-.09.08-.03.13-.03c.05,0,.09,0,.12.03.03.02.06.04.08.08.02.04.03.08.03.14v.32h-.1v-.31c0-.05-.01-.1-.04-.12s-.06-.04-.11-.04c-.04,0-.07,0-.09.02-.03.01-.05.03-.06.06-.01.03-.02.06-.02.1v.29h-.1Z"/>
    <path class="st2" d="M18.18,10.66c-.05,0-.1-.01-.15-.03-.04-.02-.08-.05-.1-.1s-.04-.09-.04-.14.01-.1.04-.14c.02-.04.06-.07.1-.09.04-.02.09-.03.15-.03.05,0,.09,0,.13.03.04.02.07.05.09.09.02.04.04.09.04.15s-.01.11-.04.15c-.02.04-.06.07-.09.09-.04.02-.08.03-.13.03ZM18.2,10.9c-.05,0-.1,0-.15-.02s-.09-.04-.12-.06l.05-.08s.06.04.1.05c.04.01.08.02.12.02.07,0,.12-.02.15-.05.03-.03.05-.08.05-.14v-.23s0-.11,0-.11v-.15h.1v.49c0,.1-.02.17-.07.22-.05.05-.12.07-.22.07ZM18.2,10.57s.07,0,.1-.02c.03-.02.05-.04.07-.06s.02-.06.02-.1,0-.07-.02-.09-.04-.05-.07-.06c-.03-.01-.06-.02-.1-.02s-.07,0-.1.02c-.03.02-.05.04-.07.06-.02.03-.02.06-.02.09s0,.07.02.1c.02.03.04.05.07.06.03.02.06.02.1.02Z"/>
    <path class="st2" d="M18.9,10.69s-.09,0-.13-.03c-.04-.02-.06-.04-.08-.08-.02-.04-.03-.08-.03-.14v-.32h.1v.31c0,.05.01.1.04.12s.06.04.11.04c.04,0,.07,0,.09-.02.03-.01.05-.04.06-.06.01-.03.02-.06.02-.1v-.29h.1v.56h-.1v-.15l.02.04s-.05.07-.08.09-.08.03-.12.03Z"/>
    <path class="st2" d="M19.53,10.69s-.08,0-.11-.02c-.03-.01-.06-.03-.07-.06-.02-.03-.03-.05-.03-.09,0-.03,0-.06.02-.08.01-.03.04-.04.07-.06.03-.01.08-.02.13-.02h.18v.07h-.17c-.05,0-.08,0-.1.03s-.03.04-.03.06c0,.03.01.05.03.07s.05.02.09.02.07,0,.1-.03c.03-.02.05-.04.06-.07l.02.07s-.04.06-.07.08c-.03.02-.08.03-.13.03ZM19.71,10.68v-.14s0-.2,0-.2c0-.04-.01-.08-.04-.1-.02-.02-.06-.04-.11-.04-.03,0-.07,0-.1.02-.03.01-.06.03-.08.04l-.04-.08s.06-.04.1-.05c.04-.01.08-.02.13-.02.08,0,.14.02.18.06.04.04.06.09.06.17v.34h-.1Z"/>
    <path class="st2" d="M19.9,10.9s-.05,0-.07,0-.04-.01-.05-.03l.03-.08s.05.03.08.03c.03,0,.05,0,.06-.02.01-.02.02-.04.02-.07v-.59h.1v.59c0,.06-.02.1-.05.14-.03.03-.08.05-.13.05ZM20.03,10.01s-.04,0-.05-.02c-.01-.01-.02-.03-.02-.05s0-.04.02-.05c.01-.01.03-.02.05-.02s.04,0,.05.02.02.03.02.05c0,.02,0,.04-.02.05-.01.01-.03.02-.05.02Z"/>
    <path class="st2" d="M20.51,10.69c-.06,0-.11-.01-.16-.04-.05-.03-.08-.06-.11-.1-.02-.04-.04-.09-.04-.15s.01-.11.04-.15.06-.08.1-.1c.04-.02.09-.04.14-.04s.1.01.14.04c.04.02.07.06.1.1.02.04.04.09.04.15,0,0,0,0,0,.01,0,0,0,.01,0,.02h-.48v-.07h.42l-.04.03s0-.07-.02-.1c-.02-.03-.04-.05-.06-.07-.03-.02-.06-.02-.09-.02s-.07,0-.09.02-.05.04-.06.07c-.02.03-.02.06-.02.1v.02s0,.07.03.1c.02.03.04.05.07.07.03.02.07.02.11.02.03,0,.06,0,.09-.02.03-.01.05-.03.07-.05l.06.07s-.06.05-.09.07c-.04.02-.08.02-.13.02Z"/>
    <path class="st2" d="M21.18,10.9s-.05,0-.08-.01-.05-.02-.07-.04l.04-.08s.03.02.05.03c.02,0,.03.01.05.01.02,0,.05,0,.06-.02s.03-.04.05-.07l.04-.08h.01s.22-.52.22-.52h.1l-.27.62s-.03.07-.05.09c-.02.02-.04.04-.07.05-.02,0-.05.01-.08.01ZM21.31,10.7l-.26-.58h.11l.22.5-.07.08Z"/>
    <path class="st2" d="M22.22,10.69c-.06,0-.11,0-.16-.03-.05-.02-.09-.04-.12-.07l.04-.08s.06.04.11.06c.04.02.09.02.14.02.04,0,.08,0,.1-.01s.05-.02.06-.04c.01-.02.02-.04.02-.06,0-.03,0-.05-.02-.06-.02-.01-.04-.03-.06-.04-.03,0-.06-.02-.09-.03-.03,0-.06-.01-.1-.02s-.06-.02-.09-.04c-.03-.02-.05-.04-.06-.06-.02-.02-.02-.06-.02-.1s0-.07.03-.11c.02-.03.05-.06.09-.08.04-.02.1-.03.16-.03.04,0,.09,0,.13.02.04.01.08.03.11.05l-.03.08s-.07-.04-.1-.05c-.04,0-.07-.01-.1-.01-.04,0-.08,0-.1.02-.03,0-.05.02-.06.04-.01.02-.02.04-.02.06,0,.03,0,.05.02.06s.04.03.06.04c.03,0,.06.02.09.02.03,0,.06.02.1.03.03,0,.06.02.09.04.03.02.05.04.06.06.02.03.02.06.02.1s-.01.07-.03.1-.05.06-.09.08c-.04.02-.1.03-.16.03Z"/>
    <path class="st2" d="M22.68,10.01s-.04,0-.05-.02c-.01-.01-.02-.03-.02-.05s0-.04.02-.05c.01-.01.03-.02.05-.02s.04,0,.05.02c.01.01.02.03.02.05,0,.02,0,.04-.02.05-.01.01-.03.02-.05.02ZM22.63,10.68v-.56h.1v.56h-.1Z"/>
    <path class="st2" d="M23.14,10.66c-.05,0-.1-.01-.15-.03-.04-.02-.08-.05-.1-.1s-.04-.09-.04-.14.01-.1.04-.14c.02-.04.06-.07.1-.09.04-.02.09-.03.15-.03.05,0,.09,0,.13.03.04.02.07.05.09.09.02.04.04.09.04.15s-.01.11-.04.15c-.02.04-.06.07-.09.09-.04.02-.08.03-.13.03ZM23.15,10.9c-.05,0-.1,0-.15-.02s-.09-.04-.12-.06l.05-.08s.06.04.1.05c.04.01.08.02.12.02.07,0,.12-.02.15-.05.03-.03.05-.08.05-.14v-.23s0-.11,0-.11v-.15h.1v.49c0,.1-.02.17-.07.22-.05.05-.12.07-.22.07ZM23.15,10.57s.07,0,.1-.02c.03-.02.05-.04.07-.06s.02-.06.02-.1,0-.07-.02-.09-.04-.05-.07-.06c-.03-.01-.06-.02-.1-.02s-.07,0-.1.02c-.03.02-.05.04-.07.06-.02.03-.02.06-.02.09s0,.07.02.1c.02.03.04.05.07.06.03.02.06.02.1.02Z"/>
    <path class="st2" d="M23.62,10.68v-.56h.1v.15l-.02-.04s.05-.07.08-.09.08-.03.13-.03c.05,0,.09,0,.12.03.03.02.06.04.08.08.02.04.03.08.03.14v.32h-.1v-.31c0-.05-.01-.1-.04-.12s-.06-.04-.11-.04c-.04,0-.07,0-.09.02-.03.01-.05.03-.06.06-.01.03-.02.06-.02.1v.29h-.1Z"/>
    <path class="st2" d="M24.37,10.01s-.04,0-.05-.02c-.01-.01-.02-.03-.02-.05s0-.04.02-.05c.01-.01.03-.02.05-.02s.04,0,.05.02c.01.01.02.03.02.05,0,.02,0,.04-.02.05-.01.01-.03.02-.05.02ZM24.32,10.68v-.56h.1v.56h-.1Z"/>
    <path class="st2" d="M24.52,10.21v-.08h.36v.08h-.36ZM24.61,10.68v-.61c0-.05.02-.1.05-.13.03-.03.08-.05.14-.05.02,0,.04,0,.06,0,.02,0,.04.01.05.02l-.03.08s-.02-.01-.04-.02c-.01,0-.03,0-.04,0-.03,0-.05,0-.07.03-.02.02-.02.04-.02.07v.12s0,.49,0,.49h-.1ZM25.02,10.01s-.04,0-.05-.02c-.01-.01-.02-.03-.02-.05s0-.04.02-.05c.01-.01.03-.02.05-.02s.04,0,.05.02c.01.01.02.03.02.05,0,.02,0,.04-.02.05-.01.01-.03.02-.05.02ZM24.97,10.68v-.56h.1v.56h-.1Z"/>
    <path class="st2" d="M25.49,10.69c-.06,0-.11-.01-.15-.04-.04-.03-.08-.06-.11-.1-.03-.04-.04-.09-.04-.15s.01-.11.04-.15.06-.08.11-.1.1-.04.15-.04c.05,0,.1,0,.14.03.04.02.07.05.09.09l-.08.05s-.04-.05-.07-.06-.05-.02-.09-.02c-.04,0-.07,0-.1.02-.03.02-.05.04-.07.07-.02.03-.03.06-.03.1s0,.08.03.1c.02.03.04.05.07.07.03.02.06.02.1.02.03,0,.06,0,.09-.02.03-.01.05-.03.07-.06l.08.05s-.05.07-.09.09c-.04.02-.08.03-.14.03Z"/>
    <path class="st2" d="M26,10.69s-.08,0-.11-.02c-.03-.01-.06-.03-.07-.06-.02-.03-.03-.05-.03-.09,0-.03,0-.06.02-.08.01-.03.04-.04.07-.06.03-.01.08-.02.13-.02h.18v.07h-.17c-.05,0-.08,0-.1.03s-.03.04-.03.06c0,.03.01.05.03.07s.05.02.09.02.07,0,.1-.03c.03-.02.05-.04.06-.07l.02.07s-.04.06-.07.08c-.03.02-.08.03-.13.03ZM26.18,10.68v-.14s0-.2,0-.2c0-.04-.01-.08-.04-.1-.02-.02-.06-.04-.11-.04-.03,0-.07,0-.1.02-.03.01-.06.03-.08.04l-.04-.08s.06-.04.1-.05c.04-.01.08-.02.13-.02.08,0,.14.02.18.06.04.04.06.09.06.17v.34h-.1Z"/>
    <path class="st2" d="M26.69,10.69c-.06,0-.11-.01-.15-.04-.04-.03-.08-.06-.11-.1-.03-.04-.04-.09-.04-.15s.01-.11.04-.15.06-.08.11-.1.1-.04.15-.04c.05,0,.1,0,.14.03.04.02.07.05.09.09l-.08.05s-.04-.05-.07-.06-.05-.02-.09-.02c-.04,0-.07,0-.1.02-.03.02-.05.04-.07.07-.02.03-.03.06-.03.1s0,.08.03.1c.02.03.04.05.07.07.03.02.06.02.1.02.03,0,.06,0,.09-.02.03-.01.05-.03.07-.06l.08.05s-.05.07-.09.09c-.04.02-.08.03-.14.03Z"/>
    <path class="st2" d="M27.08,10.01s-.04,0-.05-.02c-.01-.01-.02-.03-.02-.05s0-.04.02-.05c.01-.01.03-.02.05-.02s.04,0,.05.02c.01.01.02.03.02.05,0,.02,0,.04-.02.05-.01.01-.03.02-.05.02ZM27.03,10.68v-.56h.1v.56h-.1Z"/>
    <path class="st2" d="M27.55,10.69c-.06,0-.11-.01-.15-.04-.04-.03-.08-.06-.1-.1-.03-.04-.04-.09-.04-.15s.01-.11.04-.15c.03-.04.06-.08.1-.1.04-.03.09-.04.15-.04s.11.01.15.04c.04.02.08.06.1.1.03.04.04.09.04.15s-.01.1-.04.15c-.02.04-.06.08-.1.1-.04.02-.09.04-.15.04ZM27.55,10.6s.07,0,.1-.02c.03-.02.05-.04.07-.07.02-.03.02-.06.02-.1,0-.04,0-.08-.02-.1s-.04-.05-.07-.07c-.03-.02-.06-.02-.1-.02s-.07,0-.1.02c-.03.02-.05.04-.07.07-.02.03-.03.06-.03.1s0,.07.03.1c.02.03.04.05.07.07.03.02.06.02.1.02ZM27.47,10.04l.14-.14h.13l-.18.14h-.1Z"/>
    <path class="st2" d="M27.96,10.68v-.56h.1v.15l-.02-.04s.05-.07.08-.09.08-.03.13-.03c.05,0,.09,0,.12.03.03.02.06.04.08.08.02.04.03.08.03.14v.32h-.1v-.31c0-.05-.01-.1-.04-.12s-.06-.04-.11-.04c-.04,0-.07,0-.09.02-.03.01-.05.03-.06.06-.01.03-.02.06-.02.1v.29h-.1Z"/>
  </g>
  <g>
    <path class="st2" d="M19.01,17.36c-.06,0-.11,0-.16-.03-.05-.02-.09-.04-.12-.08s-.06-.08-.08-.12c-.02-.05-.03-.1-.03-.15s0-.11.03-.15c.02-.05.05-.09.08-.12s.08-.06.12-.08.1-.03.16-.03.11,0,.16.03.09.05.12.09l-.07.07s-.06-.05-.1-.07c-.04-.01-.07-.02-.11-.02s-.08,0-.12.02c-.04.01-.07.03-.09.06-.03.03-.05.06-.06.09-.01.04-.02.07-.02.11s0,.08.02.11c.01.04.03.07.06.09.03.03.06.04.09.06.04.01.07.02.12.02s.08,0,.11-.02c.04-.01.07-.04.1-.07l.07.07s-.08.07-.12.09c-.05.02-.1.03-.16.03Z"/>
    <path class="st2" d="M19.47,16.68s-.04,0-.05-.02c-.01-.01-.02-.03-.02-.05s0-.04.02-.05c.01-.01.03-.02.05-.02s.04,0,.05.02c.01.01.02.03.02.05,0,.02,0,.04-.02.05-.01.01-.03.02-.05.02ZM19.42,17.35v-.56h.1v.56h-.1Z"/>
    <path class="st2" d="M19.96,17.35c-.06,0-.11-.01-.15-.04-.04-.03-.08-.06-.11-.1-.03-.04-.04-.09-.04-.15s.01-.11.04-.15.06-.08.11-.1.1-.04.15-.04c.05,0,.1,0,.14.03.04.02.07.05.09.09l-.08.05s-.04-.05-.07-.06-.05-.02-.09-.02c-.04,0-.07,0-.1.02-.03.02-.05.04-.07.07-.02.03-.03.06-.03.1s0,.08.03.1c.02.03.04.05.07.07.03.02.06.02.1.02.03,0,.06,0,.09-.02.03-.01.05-.03.07-.06l.08.05s-.05.07-.09.09c-.04.02-.08.03-.14.03Z"/>
    <path class="st2" d="M20.32,17.35v-.79h.1v.79h-.1Z"/>
    <path class="st2" d="M20.85,17.35c-.06,0-.11-.01-.15-.04-.04-.03-.08-.06-.1-.1-.03-.04-.04-.09-.04-.15s.01-.11.04-.15c.03-.04.06-.08.1-.1.04-.03.09-.04.15-.04s.11.01.15.04c.04.02.08.06.1.1.03.04.04.09.04.15s-.01.1-.04.15c-.02.04-.06.08-.1.1-.04.02-.09.04-.15.04ZM20.85,17.26s.07,0,.1-.02c.03-.02.05-.04.07-.07.02-.03.02-.06.02-.1,0-.04,0-.08-.02-.1s-.04-.05-.07-.07c-.03-.02-.06-.02-.1-.02s-.07,0-.1.02c-.03.02-.05.04-.07.07-.02.03-.03.06-.03.1s0,.07.03.1c.02.03.04.05.07.07.03.02.06.02.1.02Z"/>
    <path class="st2" d="M21.59,17.35v-.74h.33c.09,0,.15.02.2.05s.07.08.07.14c0,.04,0,.07-.03.1s-.04.05-.07.06c-.03.01-.06.02-.1.02l.02-.03s.08,0,.11.02c.03.01.06.04.08.07s.03.06.03.11c0,.06-.02.11-.07.15-.05.04-.12.05-.21.05h-.35ZM21.69,17.26h.24c.06,0,.1,0,.13-.03.03-.02.05-.05.05-.09s-.02-.07-.05-.09c-.03-.02-.08-.03-.13-.03h-.25v-.08h.23c.05,0,.1-.01.12-.03.03-.02.04-.05.04-.09s-.02-.07-.04-.09c-.03-.02-.07-.03-.12-.03h-.22v.57Z"/>
    <path class="st2" d="M22.54,17.35s-.08,0-.11-.02c-.03-.01-.06-.03-.07-.06-.02-.03-.03-.05-.03-.09,0-.03,0-.06.02-.08.01-.03.04-.04.07-.06.03-.01.08-.02.13-.02h.18v.07h-.17c-.05,0-.08,0-.1.03s-.03.04-.03.06c0,.03.01.05.03.07s.05.02.09.02.07,0,.1-.03c.03-.02.05-.04.06-.07l.02.07s-.04.06-.07.08c-.03.02-.08.03-.13.03ZM22.72,17.35v-.14s0-.2,0-.2c0-.04-.01-.08-.04-.1-.02-.02-.06-.04-.11-.04-.03,0-.07,0-.1.02-.03.01-.06.03-.08.04l-.04-.08s.06-.04.1-.05c.04-.01.08-.02.13-.02.08,0,.14.02.18.06.04.04.06.09.06.17v.34h-.1ZM22.51,16.7l.14-.14h.13l-.18.14h-.1Z"/>
    <path class="st2" d="M23.17,17.35s-.09,0-.13-.02-.08-.03-.1-.05l.04-.08s.05.03.09.04c.04.01.07.02.11.02.05,0,.08,0,.1-.02.02-.01.03-.03.03-.06,0-.02,0-.03-.02-.04s-.03-.02-.05-.02c-.02,0-.04,0-.07-.01-.03,0-.05,0-.08-.01-.03,0-.05-.01-.07-.03-.02-.01-.04-.03-.05-.05s-.02-.05-.02-.08c0-.03,0-.06.03-.09.02-.03.05-.04.08-.06.04-.01.08-.02.12-.02.04,0,.07,0,.11.01.04,0,.07.02.09.04l-.04.08s-.05-.03-.08-.04c-.03,0-.05,0-.08,0-.04,0-.08,0-.1.02s-.03.03-.03.06c0,.02,0,.03.02.04.01,0,.03.02.05.02.02,0,.04.01.07.01s.05,0,.08.01.05.01.07.03c.02,0,.04.03.05.04.01.02.02.04.02.08,0,.03,0,.06-.03.09-.02.03-.05.04-.08.06s-.08.02-.13.02Z"/>
    <path class="st2" d="M23.59,16.68s-.04,0-.05-.02c-.01-.01-.02-.03-.02-.05s0-.04.02-.05c.01-.01.03-.02.05-.02s.04,0,.05.02c.01.01.02.03.02.05,0,.02,0,.04-.02.05-.01.01-.03.02-.05.02ZM23.54,17.35v-.56h.1v.56h-.1Z"/>
    <path class="st2" d="M24.08,17.35c-.06,0-.11-.01-.15-.04-.04-.03-.08-.06-.11-.1-.03-.04-.04-.09-.04-.15s.01-.11.04-.15.06-.08.11-.1.1-.04.15-.04c.05,0,.1,0,.14.03.04.02.07.05.09.09l-.08.05s-.04-.05-.07-.06-.05-.02-.09-.02c-.04,0-.07,0-.1.02-.03.02-.05.04-.07.07-.02.03-.03.06-.03.1s0,.08.03.1c.02.03.04.05.07.07.03.02.06.02.1.02.03,0,.06,0,.09-.02.03-.01.05-.03.07-.06l.08.05s-.05.07-.09.09c-.04.02-.08.03-.14.03Z"/>
    <path class="st2" d="M24.67,17.35c-.06,0-.11-.01-.15-.04-.04-.03-.08-.06-.1-.1-.03-.04-.04-.09-.04-.15s.01-.11.04-.15c.03-.04.06-.08.1-.1.04-.03.09-.04.15-.04s.11.01.15.04c.04.02.08.06.1.1.03.04.04.09.04.15s-.01.1-.04.15c-.02.04-.06.08-.1.1-.04.02-.09.04-.15.04ZM24.67,17.26s.07,0,.1-.02c.03-.02.05-.04.07-.07.02-.03.02-.06.02-.1,0-.04,0-.08-.02-.1s-.04-.05-.07-.07c-.03-.02-.06-.02-.1-.02s-.07,0-.1.02c-.03.02-.05.04-.07.07-.02.03-.03.06-.03.1s0,.07.03.1c.02.03.04.05.07.07.03.02.06.02.1.02Z"/>
  </g>
  <g>
    <path class="st2" d="M20.62,18.62v-.74h.11v.74h-.11Z"/>
    <path class="st2" d="M21.39,18.62s-.08,0-.11-.02c-.03-.01-.06-.03-.07-.06-.02-.03-.03-.05-.03-.09,0-.03,0-.06.02-.08.01-.03.04-.04.07-.06.03-.01.08-.02.13-.02h.18v.07h-.17c-.05,0-.08,0-.1.03s-.03.04-.03.06c0,.03.01.05.03.07s.05.02.09.02.07,0,.1-.03c.03-.02.05-.04.06-.07l.02.07s-.04.06-.07.08c-.03.02-.08.03-.13.03ZM21.57,18.62v-.14s0-.2,0-.2c0-.04-.01-.08-.04-.1-.02-.02-.06-.04-.11-.04-.03,0-.07,0-.1.02-.03.01-.06.03-.08.04l-.04-.08s.06-.04.1-.05c.04-.01.08-.02.13-.02.08,0,.14.02.18.06.04.04.06.09.06.17v.34h-.1Z"/>
    <path class="st2" d="M22.15,18.62v-.74h.11v.74h-.11Z"/>
    <path class="st2" d="M22.68,18.62l-.33-.74h.11l.3.68h-.07l.3-.68h.11l-.33.74h-.1Z"/>
  </g>
  <g>
    <g>
      <path class="st2" d="M45.4,17.46c-.06,0-.11,0-.16-.03-.05-.02-.09-.04-.12-.08s-.06-.08-.08-.12c-.02-.05-.03-.1-.03-.15s0-.11.03-.15c.02-.05.05-.09.08-.12s.08-.06.12-.08.1-.03.16-.03.11,0,.16.03.09.05.12.09l-.07.07s-.06-.05-.1-.07c-.04-.01-.07-.02-.11-.02s-.08,0-.12.02c-.04.01-.07.03-.09.06-.03.03-.05.06-.06.09-.01.04-.02.07-.02.11s0,.08.02.11c.01.04.03.07.06.09.03.03.06.04.09.06.04.01.07.02.12.02s.08,0,.11-.02c.04-.01.07-.04.1-.07l.07.07s-.08.07-.12.09c-.05.02-.1.03-.16.03Z"/>
      <path class="st2" d="M45.86,16.78s-.04,0-.05-.02c-.01-.01-.02-.03-.02-.05s0-.04.02-.05c.01-.01.03-.02.05-.02s.04,0,.05.02c.01.01.02.03.02.05,0,.02,0,.04-.02.05-.01.01-.03.02-.05.02ZM45.81,17.45v-.56h.1v.56h-.1Z"/>
      <path class="st2" d="M46.35,17.46c-.06,0-.11-.01-.15-.04-.04-.03-.08-.06-.11-.1-.03-.04-.04-.09-.04-.15s.01-.11.04-.15.06-.08.11-.1.1-.04.15-.04c.05,0,.1,0,.14.03.04.02.07.05.09.09l-.08.05s-.04-.05-.07-.06-.05-.02-.09-.02c-.04,0-.07,0-.1.02-.03.02-.05.04-.07.07-.02.03-.03.06-.03.1s0,.08.03.1c.02.03.04.05.07.07.03.02.06.02.1.02.03,0,.06,0,.09-.02.03-.01.05-.03.07-.06l.08.05s-.05.07-.09.09c-.04.02-.08.03-.14.03Z"/>
      <path class="st2" d="M46.71,17.45v-.79h.1v.79h-.1Z"/>
      <path class="st2" d="M47.25,17.46c-.06,0-.11-.01-.15-.04-.04-.03-.08-.06-.1-.1-.03-.04-.04-.09-.04-.15s.01-.11.04-.15c.03-.04.06-.08.1-.1.04-.03.09-.04.15-.04s.11.01.15.04c.04.02.08.06.1.1.03.04.04.09.04.15s-.01.1-.04.15c-.02.04-.06.08-.1.1-.04.02-.09.04-.15.04ZM47.25,17.37s.07,0,.1-.02c.03-.02.05-.04.07-.07.02-.03.02-.06.02-.1,0-.04,0-.08-.02-.1s-.04-.05-.07-.07c-.03-.02-.06-.02-.1-.02s-.07,0-.1.02c-.03.02-.05.04-.07.07-.02.03-.03.06-.03.1s0,.07.03.1c.02.03.04.05.07.07.03.02.06.02.1.02Z"/>
      <path class="st2" d="M47.98,17.45v-.74h.52v.09h-.42v.56h.43v.09h-.54ZM48.08,17.12v-.09h.38v.09h-.38Z"/>
      <path class="st2" d="M48.83,17.46s-.09,0-.13-.02-.08-.03-.1-.05l.04-.08s.05.03.09.04c.04.01.07.02.11.02.05,0,.08,0,.1-.02.02-.01.03-.03.03-.06,0-.02,0-.03-.02-.04s-.03-.02-.05-.02c-.02,0-.04,0-.07-.01-.03,0-.05,0-.08-.01-.03,0-.05-.01-.07-.03-.02-.01-.04-.03-.05-.05s-.02-.05-.02-.08c0-.03,0-.06.03-.09.02-.03.05-.04.08-.06.04-.01.08-.02.12-.02.04,0,.07,0,.11.01.04,0,.07.02.09.04l-.04.08s-.05-.03-.08-.04c-.03,0-.05,0-.08,0-.04,0-.08,0-.1.02s-.03.03-.03.06c0,.02,0,.03.02.04.01,0,.03.02.05.02.02,0,.04.01.07.01s.05,0,.08.01.05.01.07.03c.02,0,.04.03.05.04.01.02.02.04.02.08,0,.03,0,.06-.03.09-.02.03-.05.04-.08.06s-.08.02-.13.02Z"/>
      <path class="st2" d="M49.2,17.66v-.77h.1v.28s0,.13,0,.13v.35h-.1ZM49.5,17.46s-.09-.01-.13-.03c-.04-.02-.07-.05-.09-.1-.02-.04-.03-.09-.03-.16s.01-.12.03-.16c.02-.04.05-.07.09-.1.04-.02.08-.03.13-.03.06,0,.1.01.15.04.04.02.08.06.1.1.02.04.04.09.04.15s-.01.11-.04.15c-.02.04-.06.08-.1.1-.04.02-.09.04-.15.04ZM49.49,17.37s.07,0,.1-.02c.03-.02.05-.04.07-.07.02-.03.02-.06.02-.1,0-.04,0-.08-.02-.1s-.04-.05-.07-.07c-.03-.02-.06-.02-.1-.02s-.07,0-.1.02c-.03.02-.05.04-.07.07s-.02.06-.02.1,0,.07.02.1c.02.03.04.05.07.07.03.02.06.02.1.02Z"/>
      <path class="st2" d="M50.17,17.46c-.06,0-.11-.01-.16-.04-.05-.03-.08-.06-.11-.1-.02-.04-.04-.09-.04-.15s.01-.11.04-.15.06-.08.1-.1c.04-.02.09-.04.14-.04s.1.01.14.04c.04.02.07.06.1.1.02.04.04.09.04.15,0,0,0,0,0,.01,0,0,0,.01,0,.02h-.48v-.07h.42l-.04.03s0-.07-.02-.1c-.02-.03-.04-.05-.06-.07-.03-.02-.06-.02-.09-.02s-.07,0-.09.02-.05.04-.06.07c-.02.03-.02.06-.02.1v.02s0,.07.03.1c.02.03.04.05.07.07.03.02.07.02.11.02.03,0,.06,0,.09-.02.03-.01.05-.03.07-.05l.06.07s-.06.05-.09.07c-.04.02-.08.02-.13.02Z"/>
      <path class="st2" d="M50.82,17.46c-.06,0-.11-.01-.15-.04-.04-.03-.08-.06-.11-.1-.03-.04-.04-.09-.04-.15s.01-.11.04-.15.06-.08.11-.1.1-.04.15-.04c.05,0,.1,0,.14.03.04.02.07.05.09.09l-.08.05s-.04-.05-.07-.06-.05-.02-.09-.02c-.04,0-.07,0-.1.02-.03.02-.05.04-.07.07-.02.03-.03.06-.03.1s0,.08.03.1c.02.03.04.05.07.07.03.02.06.02.1.02.03,0,.06,0,.09-.02.03-.01.05-.03.07-.06l.08.05s-.05.07-.09.09c-.04.02-.08.03-.14.03Z"/>
      <path class="st2" d="M51.23,16.78s-.04,0-.05-.02c-.01-.01-.02-.03-.02-.05s0-.04.02-.05c.01-.01.03-.02.05-.02s.04,0,.05.02c.01.01.02.03.02.05,0,.02,0,.04-.02.05-.01.01-.03.02-.05.02ZM51.18,17.45v-.56h.1v.56h-.1Z"/>
      <path class="st2" d="M51.64,17.46s-.08,0-.11-.02c-.03-.01-.06-.03-.07-.06-.02-.03-.03-.05-.03-.09,0-.03,0-.06.02-.08.01-.03.04-.04.07-.06s.08-.02.13-.02h.18v.07h-.17c-.05,0-.08,0-.1.03s-.03.04-.03.06c0,.03.01.05.03.07.02.02.05.02.09.02s.07,0,.1-.03c.03-.02.05-.04.06-.07l.02.07s-.04.06-.07.08-.08.03-.13.03ZM51.82,17.45v-.14s0-.2,0-.2c0-.04-.01-.08-.04-.1-.02-.02-.06-.04-.11-.04-.03,0-.07,0-.1.02-.03.01-.06.03-.08.04l-.04-.08s.06-.04.1-.05c.04-.01.08-.02.13-.02.08,0,.14.02.18.06.04.04.06.09.06.17v.34h-.1Z"/>
      <path class="st2" d="M52.11,17.45v-.79h.1v.79h-.1Z"/>
      <path class="st2" d="M52.45,16.78s-.04,0-.05-.02-.02-.03-.02-.05,0-.04.02-.05.03-.02.05-.02.04,0,.05.02.02.03.02.05c0,.02,0,.04-.02.05-.01.01-.03.02-.05.02ZM52.4,17.45v-.56h.1v.56h-.1Z"/>
      <path class="st2" d="M52.64,17.45v-.07l.36-.45.02.04h-.37v-.08h.46v.07l-.36.45-.02-.04h.39v.08h-.47Z"/>
      <path class="st2" d="M53.41,17.46s-.08,0-.11-.02c-.03-.01-.06-.03-.07-.06-.02-.03-.03-.05-.03-.09,0-.03,0-.06.02-.08.01-.03.04-.04.07-.06s.08-.02.13-.02h.18v.07h-.17c-.05,0-.08,0-.1.03s-.03.04-.03.06c0,.03.01.05.03.07.02.02.05.02.09.02s.07,0,.1-.03c.03-.02.05-.04.06-.07l.02.07s-.04.06-.07.08-.08.03-.13.03ZM53.6,17.45v-.14s0-.2,0-.2c0-.04-.01-.08-.04-.1-.02-.02-.06-.04-.11-.04-.03,0-.07,0-.1.02-.03.01-.06.03-.08.04l-.04-.08s.06-.04.1-.05c.04-.01.08-.02.13-.02.08,0,.14.02.18.06.04.04.06.09.06.17v.34h-.1Z"/>
      <path class="st2" d="M54.11,17.46c-.05,0-.1-.01-.15-.04-.04-.02-.08-.06-.1-.1-.03-.04-.04-.09-.04-.15s.01-.11.04-.15c.02-.04.06-.08.1-.1.04-.02.09-.04.15-.04.05,0,.09.01.13.03.04.02.07.05.09.1.02.04.03.09.03.16s-.01.12-.03.16c-.02.04-.05.07-.09.1s-.08.03-.13.03ZM54.12,17.37s.07,0,.1-.02c.03-.02.05-.04.07-.07.02-.03.02-.06.02-.1,0-.04,0-.08-.02-.1s-.04-.05-.07-.07c-.03-.02-.06-.02-.1-.02s-.07,0-.1.02c-.03.02-.05.04-.07.07s-.03.06-.03.1,0,.07.03.1c.02.03.04.05.07.07.03.02.06.02.1.02ZM54.31,17.45v-.28s0-.13,0-.13v-.37h.1v.79h-.1Z"/>
      <path class="st2" d="M54.84,17.46c-.06,0-.11-.01-.15-.04-.04-.03-.08-.06-.1-.1-.03-.04-.04-.09-.04-.15s.01-.11.04-.15c.03-.04.06-.08.1-.1.04-.03.09-.04.15-.04s.11.01.15.04c.04.02.08.06.1.1s.04.09.04.15-.01.1-.04.15c-.03.04-.06.08-.1.1-.04.02-.09.04-.15.04ZM54.84,17.37s.07,0,.1-.02c.03-.02.05-.04.07-.07.02-.03.02-.06.02-.1,0-.04,0-.08-.02-.1-.02-.03-.04-.05-.07-.07-.03-.02-.06-.02-.1-.02s-.07,0-.1.02c-.03.02-.05.04-.07.07s-.03.06-.03.1,0,.07.03.1c.02.03.04.05.07.07.03.02.06.02.1.02Z"/>
    </g>
    <g>
      <path class="st2" d="M48.56,18.72l-.33-.74h.11l.3.68h-.07l.3-.68h.11l-.33.74h-.1Z"/>
      <path class="st2" d="M49.53,18.73s-.08,0-.11-.02c-.03-.01-.06-.03-.07-.06-.02-.03-.03-.05-.03-.09,0-.03,0-.06.02-.08.01-.03.04-.04.07-.06.03-.01.08-.02.13-.02h.18v.07h-.17c-.05,0-.08,0-.1.03s-.03.04-.03.06c0,.03.01.05.03.07s.05.02.09.02.07,0,.1-.03c.03-.02.05-.04.06-.07l.02.07s-.04.06-.07.08c-.03.02-.08.03-.13.03ZM49.71,18.72v-.14s0-.2,0-.2c0-.04-.01-.08-.04-.1-.02-.02-.06-.04-.11-.04-.03,0-.07,0-.1.02-.03.01-.06.03-.08.04l-.04-.08s.06-.04.1-.05c.04-.01.08-.02.13-.02.08,0,.14.02.18.06.04.04.06.09.06.17v.34h-.1Z"/>
      <path class="st2" d="M50.51,18.72l-.33-.74h.11l.3.68h-.07l.3-.68h.11l-.33.74h-.1Z"/>
      <path class="st2" d="M51.04,18.72v-.74h.11v.74h-.11Z"/>
      <path class="st2" d="M51.37,18.72v-.74h.11v.74h-.11Z"/>
      <path class="st2" d="M51.7,18.72v-.74h.11v.74h-.11Z"/>
    </g>
  </g>
  <g>
    <g>
      <path class="st2" d="M71.47,17.36c-.06,0-.11,0-.16-.03-.05-.02-.09-.04-.12-.08s-.06-.08-.08-.12c-.02-.05-.03-.1-.03-.15s0-.11.03-.15c.02-.05.05-.09.08-.12s.08-.06.12-.08.1-.03.16-.03.11,0,.16.03c.05.02.09.05.12.09l-.07.07s-.06-.05-.1-.07-.07-.02-.11-.02-.08,0-.12.02c-.04.01-.07.03-.09.06-.03.03-.05.06-.06.09s-.02.07-.02.11,0,.08.02.11.04.07.06.09c.03.03.06.04.09.06.04.01.07.02.12.02s.08,0,.11-.02.07-.04.1-.07l.07.07s-.08.07-.12.09c-.05.02-.1.03-.16.03Z"/>
      <path class="st2" d="M71.93,16.68s-.04,0-.05-.02-.02-.03-.02-.05,0-.04.02-.05.03-.02.05-.02.04,0,.05.02.02.03.02.05c0,.02,0,.04-.02.05-.01.01-.03.02-.05.02ZM71.88,17.35v-.56h.1v.56h-.1Z"/>
      <path class="st2" d="M72.42,17.35c-.06,0-.11-.01-.15-.04-.04-.03-.08-.06-.11-.1-.03-.04-.04-.09-.04-.15s.01-.11.04-.15.06-.08.11-.1.1-.04.15-.04c.05,0,.1,0,.14.03.04.02.07.05.09.09l-.08.05s-.04-.05-.07-.06-.05-.02-.09-.02c-.04,0-.07,0-.1.02-.03.02-.05.04-.07.07s-.03.06-.03.1,0,.08.03.1.04.05.07.07c.03.02.06.02.1.02.03,0,.06,0,.09-.02.03-.01.05-.03.07-.06l.08.05s-.05.07-.09.09c-.04.02-.08.03-.14.03Z"/>
      <path class="st2" d="M72.77,17.35v-.79h.1v.79h-.1Z"/>
      <path class="st2" d="M73.31,17.35c-.06,0-.11-.01-.15-.04-.04-.03-.08-.06-.1-.1-.03-.04-.04-.09-.04-.15s.01-.11.04-.15c.03-.04.06-.08.1-.1.04-.03.09-.04.15-.04s.11.01.15.04.08.06.1.1c.03.04.04.09.04.15s-.01.1-.04.15c-.02.04-.06.08-.1.1-.04.02-.09.04-.15.04ZM73.31,17.26s.07,0,.1-.02c.03-.02.05-.04.07-.07.02-.03.02-.06.02-.1,0-.04,0-.08-.02-.1-.02-.03-.04-.05-.07-.07-.03-.02-.06-.02-.1-.02s-.07,0-.1.02c-.03.02-.05.04-.07.07-.02.03-.03.06-.03.1s0,.07.03.1c.02.03.04.05.07.07.03.02.06.02.1.02Z"/>
      <path class="st2" d="M74.04,17.35v-.74h.29c.07,0,.12,0,.17.03s.08.05.11.09c.02.04.04.08.04.14s-.01.1-.04.14-.06.07-.11.09-.1.03-.17.03h-.23l.05-.05v.27h-.11ZM74.15,17.08l-.05-.05h.23c.07,0,.12-.01.15-.04.04-.03.05-.07.05-.12s-.02-.09-.05-.12c-.04-.03-.09-.04-.15-.04h-.23l.05-.05v.44Z"/>
      <path class="st2" d="M74.78,17.35v-.56h.1v.15-.04s.03-.07.07-.09c.04-.02.08-.03.14-.03v.1s0,0-.01,0h-.01c-.05,0-.1.02-.13.05-.03.03-.05.08-.05.14v.28h-.1Z"/>
      <path class="st2" d="M75.44,17.35c-.06,0-.11-.01-.15-.04-.04-.03-.08-.06-.1-.1-.03-.04-.04-.09-.04-.15s.01-.11.04-.15c.03-.04.06-.08.1-.1.04-.03.09-.04.15-.04s.11.01.15.04c.04.02.08.06.1.1s.04.09.04.15-.01.1-.04.15c-.03.04-.06.08-.1.1-.04.02-.09.04-.15.04ZM75.44,17.26s.07,0,.1-.02c.03-.02.05-.04.07-.07.02-.03.02-.06.02-.1,0-.04,0-.08-.02-.1-.02-.03-.04-.05-.07-.07-.03-.02-.06-.02-.1-.02s-.07,0-.1.02c-.03.02-.05.04-.07.07s-.03.06-.03.1,0,.07.03.1c.02.03.04.05.07.07.03.02.06.02.1.02Z"/>
      <path class="st2" d="M75.79,16.87v-.08h.36v.08h-.36ZM75.89,17.35v-.61c0-.05.02-.1.05-.13s.08-.05.14-.05c.02,0,.04,0,.06,0,.02,0,.04.01.05.02l-.03.08s-.02-.01-.04-.02c-.01,0-.03,0-.04,0-.03,0-.05,0-.07.03-.01.02-.02.04-.02.07v.12s0,.49,0,.49h-.1Z"/>
      <path class="st2" d="M76.49,17.35c-.06,0-.11-.01-.16-.04-.05-.03-.08-.06-.11-.1-.02-.04-.04-.09-.04-.15s.01-.11.04-.15.06-.08.1-.1c.04-.02.09-.04.14-.04s.1.01.14.04c.04.02.07.06.1.1.02.04.04.09.04.15,0,0,0,0,0,.01s0,.01,0,.02h-.48v-.07h.42l-.04.03s0-.07-.02-.1-.04-.05-.06-.07c-.03-.02-.06-.02-.09-.02s-.07,0-.09.02-.05.04-.06.07c-.02.03-.02.06-.02.1v.02s0,.07.03.1c.02.03.04.05.07.07.03.02.07.02.11.02.03,0,.06,0,.09-.02s.05-.03.07-.05l.06.07s-.06.05-.09.07c-.04.02-.08.02-.13.02Z"/>
      <path class="st2" d="M77.05,17.35s-.09,0-.13-.02-.08-.03-.1-.05l.04-.08s.05.03.09.04c.04.01.07.02.11.02.05,0,.08,0,.1-.02.02-.01.03-.03.03-.06,0-.02,0-.03-.02-.04s-.03-.02-.05-.02c-.02,0-.04,0-.07-.01-.03,0-.05,0-.08-.01-.03,0-.05-.01-.07-.03-.02-.01-.04-.03-.05-.05s-.02-.05-.02-.08c0-.03,0-.06.03-.09.02-.03.05-.04.08-.06.04-.01.08-.02.12-.02.04,0,.07,0,.11.01.04,0,.07.02.09.04l-.04.08s-.05-.03-.08-.04c-.03,0-.05,0-.08,0-.04,0-.08,0-.1.02-.02.01-.03.03-.03.06,0,.02,0,.03.02.04.01,0,.03.02.05.02.02,0,.04.01.07.01s.05,0,.08.01.05.01.07.03c.02,0,.04.03.05.04.01.02.02.04.02.08,0,.03,0,.06-.03.09-.02.03-.05.04-.08.06s-.08.02-.13.02Z"/>
      <path class="st2" d="M77.47,16.68s-.04,0-.05-.02c-.01-.01-.02-.03-.02-.05s0-.04.02-.05c.01-.01.03-.02.05-.02s.04,0,.05.02c.01.01.02.03.02.05,0,.02,0,.04-.02.05-.01.01-.03.02-.05.02ZM77.42,17.35v-.56h.1v.56h-.1Z"/>
      <path class="st2" d="M77.96,17.35c-.06,0-.11-.01-.15-.04-.04-.03-.08-.06-.1-.1-.03-.04-.04-.09-.04-.15s.01-.11.04-.15c.03-.04.06-.08.1-.1.04-.03.09-.04.15-.04s.11.01.15.04.08.06.1.1c.03.04.04.09.04.15s-.01.1-.04.15c-.02.04-.06.08-.1.1-.04.02-.09.04-.15.04ZM77.96,17.26s.07,0,.1-.02c.03-.02.05-.04.07-.07.02-.03.02-.06.02-.1,0-.04,0-.08-.02-.1-.02-.03-.04-.05-.07-.07-.03-.02-.06-.02-.1-.02s-.07,0-.1.02c-.03.02-.05.04-.07.07-.02.03-.03.06-.03.1s0,.07.03.1c.02.03.04.05.07.07.03.02.06.02.1.02Z"/>
      <path class="st2" d="M78.39,17.35v-.56h.1v.15l-.02-.04s.05-.07.08-.09.08-.03.13-.03c.05,0,.09,0,.12.03.03.02.06.04.08.08.02.04.03.08.03.14v.32h-.1v-.31c0-.05-.01-.1-.04-.12s-.06-.04-.11-.04c-.04,0-.07,0-.09.02-.03.01-.05.03-.06.06-.01.03-.02.06-.02.1v.29h-.1Z"/>
      <path class="st2" d="M79.27,17.35s-.08,0-.11-.02c-.03-.01-.06-.03-.07-.06-.02-.03-.03-.05-.03-.09,0-.03,0-.06.02-.08.01-.03.04-.04.07-.06.03-.01.08-.02.13-.02h.18v.07h-.17c-.05,0-.08,0-.1.03s-.03.04-.03.06c0,.03.01.05.03.07.02.02.05.02.09.02s.07,0,.1-.03c.03-.02.05-.04.06-.07l.02.07s-.04.06-.07.08c-.03.02-.08.03-.13.03ZM79.46,17.35v-.14s0-.2,0-.2c0-.04-.01-.08-.04-.1s-.06-.04-.11-.04c-.03,0-.07,0-.1.02-.03.01-.06.03-.08.04l-.04-.08s.06-.04.1-.05c.04-.01.08-.02.13-.02.08,0,.14.02.18.06.04.04.06.09.06.17v.34h-.1Z"/>
      <path class="st2" d="M79.74,17.35v-.79h.1v.79h-.1Z"/>
    </g>
    <g>
      <path class="st2" d="M74.17,18.62v-.74h.11v.74h-.11Z"/>
      <path class="st2" d="M74.38,18.62l.31-.42v.08l-.29-.4h.12l.23.32h-.05s.23-.32.23-.32h.12l-.29.4v-.08l.31.42h-.12l-.25-.34h.05l-.24.34h-.12Z"/>
      <path class="st2" d="M75.63,18.62s-.08,0-.11-.02c-.03-.01-.06-.03-.07-.06-.02-.03-.03-.05-.03-.09,0-.03,0-.06.02-.08.01-.03.04-.04.07-.06s.08-.02.13-.02h.18v.07h-.17c-.05,0-.08,0-.1.03s-.03.04-.03.06c0,.03.01.05.03.07.02.02.05.02.09.02s.07,0,.1-.03c.03-.02.05-.04.06-.07l.02.07s-.04.06-.07.08-.08.03-.13.03ZM75.81,18.62v-.14s0-.2,0-.2c0-.04-.01-.08-.04-.1-.02-.02-.06-.04-.11-.04-.03,0-.07,0-.1.02-.03.01-.06.03-.08.04l-.04-.08s.06-.04.1-.05c.04-.01.08-.02.13-.02.08,0,.14.02.18.06.04.04.06.09.06.17v.34h-.1Z"/>
      <path class="st2" d="M76.3,18.62l.31-.42v.08l-.29-.4h.12l.23.32h-.05s.23-.32.23-.32h.12l-.29.4v-.08l.31.42h-.12l-.25-.34h.05l-.24.34h-.12Z"/>
    </g>
  </g>
  <g>
    <path class="st2" d="M19.69,3.54v-.74h.29c.06,0,.12,0,.17.03s.08.05.11.09c.02.04.04.08.04.14s-.01.1-.04.14c-.02.04-.06.07-.11.09s-.1.03-.17.03h-.23l.05-.05v.27h-.11ZM19.79,3.27l-.05-.05h.23c.07,0,.12-.01.15-.04.04-.03.05-.07.05-.12s-.02-.09-.05-.12c-.03-.03-.09-.04-.15-.04h-.23l.05-.05v.44Z"/>
    <path class="st2" d="M20.44,3.54v-.56h.1v.15-.04s.03-.07.07-.09.08-.03.14-.03v.1s0,0-.01,0h-.01c-.05,0-.1.02-.13.05-.03.03-.05.08-.05.14v.28h-.1Z"/>
    <path class="st2" d="M21.11,3.54c-.06,0-.11-.01-.15-.04-.04-.03-.08-.06-.1-.1-.03-.04-.04-.09-.04-.15s.01-.11.04-.15c.03-.04.06-.08.1-.1.04-.03.09-.04.15-.04s.11.01.15.04c.04.02.08.06.1.1.03.04.04.09.04.15s-.01.1-.04.15c-.02.04-.06.08-.1.1-.04.02-.09.04-.15.04ZM21.11,3.46s.07,0,.1-.02c.03-.02.05-.04.07-.07.02-.03.02-.06.02-.1,0-.04,0-.08-.02-.1s-.04-.05-.07-.07c-.03-.02-.06-.02-.1-.02s-.07,0-.1.02c-.03.02-.05.04-.07.07-.02.03-.03.06-.03.1s0,.07.03.1c.02.03.04.05.07.07.03.02.06.02.1.02Z"/>
    <path class="st2" d="M21.57,3.75s-.05,0-.08-.01-.05-.02-.07-.04l.04-.08s.03.02.05.03c.02,0,.03.01.05.01.02,0,.05,0,.06-.02s.03-.04.05-.07l.04-.08h.01s.22-.52.22-.52h.1l-.27.62s-.03.07-.05.09c-.02.02-.04.04-.07.05-.02,0-.05.01-.08.01ZM21.7,3.56l-.26-.58h.11l.22.5-.07.08Z"/>
    <path class="st2" d="M22.38,3.54c-.06,0-.11-.01-.16-.04-.05-.03-.08-.06-.11-.1-.02-.04-.04-.09-.04-.15s.01-.11.04-.15.06-.08.1-.1c.04-.02.09-.04.14-.04s.1.01.14.04c.04.02.07.06.1.1.02.04.04.09.04.15,0,0,0,0,0,.01,0,0,0,.01,0,.02h-.48v-.07h.42l-.04.03s0-.07-.02-.1c-.02-.03-.04-.05-.06-.07-.03-.02-.06-.02-.09-.02s-.07,0-.09.02-.05.04-.06.07c-.02.03-.02.06-.02.1v.02s0,.07.03.1c.02.03.04.05.07.07.03.02.07.02.11.02.03,0,.06,0,.09-.02.03-.01.05-.03.07-.05l.06.07s-.06.05-.09.07c-.04.02-.08.02-.13.02Z"/>
    <path class="st2" d="M23.03,3.54c-.06,0-.11-.01-.15-.04-.04-.03-.08-.06-.11-.1-.03-.04-.04-.09-.04-.15s.01-.11.04-.15.06-.08.11-.1.1-.04.15-.04c.05,0,.1,0,.14.03.04.02.07.05.09.09l-.08.05s-.04-.05-.07-.06-.05-.02-.09-.02c-.04,0-.07,0-.1.02-.03.02-.05.04-.07.07-.02.03-.03.06-.03.1s0,.08.03.1c.02.03.04.05.07.07.03.02.06.02.1.02.03,0,.06,0,.09-.02.03-.01.05-.03.07-.06l.08.05s-.05.07-.09.09c-.04.02-.08.03-.14.03Z"/>
    <path class="st2" d="M23.31,3.06v-.08h.36v.08h-.36ZM23.58,3.54c-.06,0-.1-.02-.13-.05-.03-.03-.05-.07-.05-.13v-.51h.1v.51s0,.05.02.07c.02.02.04.02.06.02.03,0,.06,0,.08-.03l.03.07s-.03.02-.06.03c-.02,0-.04,0-.07,0Z"/>
    <path class="st2" d="M24.07,3.54c-.06,0-.11-.01-.15-.04-.04-.03-.08-.06-.1-.1-.03-.04-.04-.09-.04-.15s.01-.11.04-.15c.03-.04.06-.08.1-.1.04-.03.09-.04.15-.04s.11.01.15.04c.04.02.08.06.1.1.03.04.04.09.04.15s-.01.1-.04.15c-.02.04-.06.08-.1.1-.04.02-.09.04-.15.04ZM24.07,3.46s.07,0,.1-.02c.03-.02.05-.04.07-.07.02-.03.02-.06.02-.1,0-.04,0-.08-.02-.1s-.04-.05-.07-.07c-.03-.02-.06-.02-.1-.02s-.07,0-.1.02c-.03.02-.05.04-.07.07-.02.03-.03.06-.03.1s0,.07.03.1c.02.03.04.05.07.07.03.02.06.02.1.02Z"/>
    <path class="st2" d="M24.8,3.54v-.74h.11v.74h-.11Z"/>
    <path class="st2" d="M25.13,3.54v-.74h.11v.74h-.11Z"/>
  </g>
</svg>