<?xml version="1.0" encoding="UTF-8"?>
<svg xmlns="http://www.w3.org/2000/svg" viewBox="0 0 92.18 18.21">
  <defs>
    <style>
      .cls-1 {
        letter-spacing: 0em;
      }

      .cls-2 {
        letter-spacing: -.02em;
      }

      .cls-3 {
        letter-spacing: -.02em;
      }

      .cls-3, .cls-4 {
        font-family: ArialMT, Arial;
      }

      .cls-3, .cls-4, .cls-5 {
        fill: #1d1d1b;
        font-size: 1.06px;
      }

      .cls-6 {
        fill: #ffccbc;
      }

      .cls-7 {
        letter-spacing: -.02em;
      }

      .cls-8 {
        letter-spacing: 0em;
      }

      .cls-9 {
        letter-spacing: -.02em;
      }

      .cls-10 {
        fill: #ff5722;
      }

      .cls-11 {
        letter-spacing: -.01em;
      }

      .cls-12 {
        letter-spacing: 0em;
      }

      .cls-13 {
        letter-spacing: -.01em;
      }

      .cls-5 {
        font-family: Montserrat-Medium, Montserrat;
        font-variation-settings: 'wght' 500;
        font-weight: 500;
      }

      .cls-14 {
        letter-spacing: 0em;
      }

      .cls-15 {
        fill: none;
        stroke: #ffccbc;
        stroke-miterlimit: 10;
        stroke-width: .25px;
      }

      .cls-16 {
        letter-spacing: 0em;
      }
    </style>
  </defs>
  <g id="Capa_2" data-name="Capa 2">
    <g>
      <rect class="cls-6" x="36.58" y="0" width="19.02" height="5.36" rx=".78" ry=".78"/>
      <rect class="cls-10" x="36.58" y="4.04" width="19.02" height="1.41" rx=".71" ry=".71"/>
    </g>
    <line class="cls-15" y1="14.15" x2="92.18" y2="14.15"/>
    <g>
      <rect class="cls-6" x="36.58" y="7.19" width="19.02" height="5.36" rx=".78" ry=".78"/>
      <rect class="cls-10" x="36.58" y="11.24" width="19.02" height="1.41" rx=".71" ry=".71"/>
    </g>
    <g>
      <rect class="cls-6" x="8.96" y=".05" width="19.02" height="5.36" rx=".78" ry=".78"/>
      <rect class="cls-10" x="8.96" y="4.09" width="19.02" height="1.41" rx=".71" ry=".71"/>
    </g>
    <g>
      <rect class="cls-6" x="8.64" y="7.1" width="19.02" height="5.36" rx=".78" ry=".78"/>
      <rect class="cls-10" x="8.64" y="11.14" width="19.02" height="1.41" rx=".71" ry=".71"/>
    </g>
    <line class="cls-15" x1="17.73" y1="13.26" x2="17.73" y2="15.02"/>
    <line class="cls-15" x1="46.09" y1="13.27" x2="46.09" y2="15.03"/>
    <line class="cls-15" x1="71.54" y1="13.21" x2="71.54" y2="14.97"/>
    <text class="cls-5" transform="translate(14.59 16.49)"><tspan x="0" y="0">Ciclo Bási</tspan><tspan class="cls-12" x="5.17" y="0">c</tspan><tspan class="cls-16" x="5.77" y="0">o</tspan></text>
  </g>
  <g id="Capa_3" data-name="Capa 3">
    <text class="cls-4" transform="translate(16.53 17.76)"><tspan x="0" y="0">I a </tspan><tspan class="cls-13" x="1.47" y="0">I</tspan><tspan x="1.75" y="0">V</tspan></text>
    <g>
      <text class="cls-4" transform="translate(40.98 16.59)"><tspan x="0" y="0">Ciclo </tspan><tspan class="cls-14" x="2.65" y="0">E</tspan><tspan x="3.35" y="0">specializado</tspan></text>
      <text class="cls-4" transform="translate(44.25 17.87)"><tspan x="0" y="0">V a </tspan><tspan class="cls-9" x="1.88" y="0">V</tspan><tspan x="2.57" y="0">III</tspan></text>
    </g>
    <g>
      <text class="cls-4" transform="translate(67.05 16.49)"><tspan x="0" y="0">Ci</tspan><tspan class="cls-8" x="1" y="0">c</tspan><tspan x="1.52" y="0">lo </tspan><tspan class="cls-11" x="2.64" y="0">P</tspan><tspan class="cls-1" x="3.33" y="0">r</tspan><tspan x="3.68" y="0">o</tspan><tspan class="cls-12" x="4.27" y="0">f</tspan><tspan x="4.55" y="0">esional</tspan></text>
      <text class="cls-4" transform="translate(70.08 17.76)"><tspan class="cls-2" x="0" y="0">I</tspan><tspan x=".27" y="0">X a X</tspan></text>
    </g>
    <text class="cls-4" transform="translate(38.38 1.95)"><tspan x="0" y="0">Electivo Mención V y M: Libro de</tspan><tspan x="2.21" y="1.27">artista, teoría y práctica</tspan></text>
    <text class="cls-4" transform="translate(38.8 9.83)"><tspan x="0" y="0">Seminario de Licenciatu</tspan><tspan class="cls-7" x="11.3" y="0">r</tspan><tspan x="11.64" y="0">a I</tspan></text>
    <text class="cls-3" transform="translate(11.93 9.83)"><tspan x="0" y="0">Lenguaje y Signiﬁcación</tspan></text>
    <text class="cls-4" transform="translate(15.59 2.68)"><tspan x="0" y="0">Proyecto II</tspan></text>
  </g>
</svg>