<?xml version="1.0" encoding="UTF-8"?>
<svg id="Layer_1" data-name="Layer 1" xmlns="http://www.w3.org/2000/svg" viewBox="0 0 81.03 22.34">
  <defs>
    <style>
      .cls-1 {
        font-family: Arial-Black, Arial;
        font-size: 1.21px;
        font-weight: 800;
      }

      .cls-1, .cls-2 {
        fill: #505050;
      }

      .cls-3 {
        fill: #ef4623;
      }

      .cls-3, .cls-2, .cls-4, .cls-5, .cls-6 {
        stroke-width: 0px;
      }

      .cls-4 {
        fill: #fac4bd;
      }

      .cls-5 {
        fill: #393e95;
      }

      .cls-7 {
        letter-spacing: -.04em;
      }

      .cls-8 {
        fill: none;
      }

      .cls-8, .cls-9 {
        stroke: #fac4bd;
        stroke-miterlimit: 10;
        stroke-width: .5px;
      }

      .cls-10 {
        fill: #3d3d3d;
        font-family: ArialMT, Arial;
        font-size: 1.13px;
      }

      .cls-6 {
        fill: #d1cee7;
      }

      .cls-11 {
        letter-spacing: .02em;
      }

      .cls-9 {
        fill: #fff;
      }

      .cls-12 {
        letter-spacing: -.06em;
      }

      .cls-13 {
        letter-spacing: -.03em;
      }

      .cls-14 {
        letter-spacing: -.02em;
      }

      .cls-15 {
        letter-spacing: -.02em;
      }

      .cls-16 {
        letter-spacing: 0em;
      }
    </style>
  </defs>
  <rect class="cls-4" x="65.11" y="12.27" width="15.93" height="4.93" rx=".88" ry=".88"/>
  <rect class="cls-4" x="32.66" y="12.02" width="15.93" height="4.93" rx=".88" ry=".88"/>
  <text class="cls-10" transform="translate(68.57 14.69)"><tspan x="0" y="0">Proyecto de</tspan><tspan class="cls-15" x="6" y="0"> </tspan><tspan class="cls-7" x="6.3" y="0">T</tspan><tspan x="6.94" y="0">itulo</tspan><tspan x="3.44" y="1.04">I y II</tspan></text>
  <rect class="cls-6" x="32.66" y="0" width="15.93" height="5.8" rx=".93" ry=".93"/>
  <text class="cls-10" transform="translate(36.78 2.22)"><tspan x="0" y="0">Electivo</tspan><tspan class="cls-12" x="3.94" y="0"> </tspan><tspan x="4.19" y="0">Ambas </tspan><tspan x="-1.97" y="1.04">Menciones: Sociedad y </tspan><tspan x="2.44" y="2.08">Moda</tspan></text>
  <text class="cls-1" transform="translate(3.36 20.76)"><tspan x="0" y="0">Ci</tspan><tspan class="cls-13" x="1.35" y="0">c</tspan><tspan x="2.12" y="0">lo Básico</tspan><tspan x="2.37" y="1.21">I a IV</tspan></text>
  <g>
    <path class="cls-2" d="M34.86,20.41l.23.07c-.02.07-.04.12-.07.17-.03.04-.08.08-.13.1-.05.02-.11.03-.19.03-.09,0-.17-.01-.23-.04s-.11-.08-.15-.14c-.04-.07-.06-.16-.06-.26,0-.14.04-.25.11-.33.08-.08.18-.11.32-.11.11,0,.19.02.26.07.06.04.11.11.14.2l-.24.05s-.02-.04-.03-.06c-.02-.02-.03-.04-.05-.05-.02-.01-.05-.02-.07-.02-.06,0-.11.02-.14.07-.02.04-.04.09-.04.17,0,.1.01.16.04.2.03.04.07.05.12.05s.09-.01.12-.04c.03-.03.04-.07.06-.12Z"/>
    <path class="cls-2" d="M35.22,19.9h.24v.16h-.24v-.16ZM35.22,20.13h.24v.63h-.24v-.63Z"/>
    <path class="cls-2" d="M36.08,20.51l.23.03s-.03.09-.06.12-.07.06-.11.08-.1.03-.17.03-.12,0-.17-.02c-.04-.01-.08-.03-.11-.06s-.06-.06-.07-.1-.03-.09-.03-.15.01-.12.03-.16c.02-.03.04-.06.07-.08.03-.02.06-.04.09-.06.05-.02.11-.03.18-.03.1,0,.18.02.23.05.05.04.09.09.11.16l-.23.03s-.02-.05-.04-.06c-.02-.01-.04-.02-.07-.02-.04,0-.07.01-.1.04-.02.03-.04.07-.04.13,0,.05.01.09.04.12s.06.04.09.04c.03,0,.06,0,.08-.02.02-.02.04-.04.05-.07Z"/>
    <path class="cls-2" d="M36.4,19.9h.24v.86h-.24v-.86Z"/>
    <path class="cls-2" d="M36.76,20.45c0-.09.03-.17.1-.24s.15-.09.26-.09c.13,0,.22.04.28.11.05.06.08.13.08.22,0,.1-.03.17-.1.24s-.15.09-.26.09c-.1,0-.18-.03-.24-.08-.08-.06-.11-.15-.11-.25ZM37,20.45c0,.06.01.1.03.12.02.03.05.04.08.04s.06-.01.08-.04c.02-.03.03-.07.03-.13,0-.05-.01-.09-.03-.12-.02-.03-.05-.04-.08-.04-.04,0-.06.01-.09.04-.02.03-.03.07-.03.12Z"/>
    <path class="cls-2" d="M38.01,19.9h.71v.18h-.45v.14h.42v.18h-.42v.17h.46v.2h-.73v-.86Z"/>
    <path class="cls-2" d="M38.83,20.59l.24-.02s.02.05.04.06c.02.01.04.02.07.02.03,0,.06,0,.07-.02.01-.01.02-.02.02-.04,0-.02,0-.03-.03-.04-.01,0-.05-.01-.1-.03-.08-.01-.14-.03-.17-.04-.03-.01-.06-.03-.08-.06s-.03-.06-.03-.1c0-.04.01-.08.04-.11.02-.03.06-.05.1-.07.04-.02.1-.02.17-.02.07,0,.13,0,.17.02.04.01.06.03.09.05.02.02.04.06.06.1l-.23.02s-.02-.03-.03-.04c-.02-.01-.04-.02-.07-.02s-.05,0-.06.01c-.01,0-.02.02-.02.04,0,.02,0,.03.02.04s.05.01.1.02c.08,0,.14.02.18.04.04.02.07.04.09.07.02.03.03.06.03.1s-.01.07-.03.11c-.02.03-.06.06-.1.08-.05.02-.11.03-.19.03-.11,0-.2-.02-.24-.05-.05-.03-.08-.08-.09-.14Z"/>
    <path class="cls-2" d="M39.61,21v-.86h.22v.09s.06-.07.09-.08c.04-.02.07-.03.12-.03.08,0,.15.03.19.1.05.06.07.14.07.24,0,.1-.02.18-.07.24s-.11.08-.19.08c-.04,0-.07,0-.1-.02-.03-.01-.06-.03-.08-.06v.3h-.24ZM39.85,20.45s.01.09.03.11c.02.02.05.04.08.04.03,0,.05-.01.07-.03.02-.02.03-.06.03-.12,0-.05,0-.09-.03-.11-.02-.02-.04-.04-.07-.04-.03,0-.06.01-.08.04-.02.02-.03.06-.03.12Z"/>
    <path class="cls-2" d="M41.1,20.51h-.48s.01.07.03.09c.02.03.05.04.09.04.02,0,.05,0,.07-.02.01,0,.03-.02.04-.04l.24.02c-.04.06-.08.11-.13.14-.05.03-.12.04-.22.04-.08,0-.15-.01-.2-.03-.05-.02-.09-.06-.12-.11s-.05-.11-.05-.18c0-.1.03-.18.09-.24.06-.06.15-.09.26-.09.09,0,.16.01.21.04.05.03.09.07.12.12.03.05.04.12.04.2v.03ZM40.86,20.39s-.02-.08-.04-.1c-.02-.02-.05-.03-.08-.03-.04,0-.07.02-.09.05-.01.02-.02.05-.03.08h.24Z"/>
    <path class="cls-2" d="M41.68,20.51l.23.03s-.03.09-.06.12-.07.06-.11.08c-.04.02-.1.03-.17.03s-.12,0-.17-.02c-.04-.01-.08-.03-.11-.06s-.06-.06-.08-.1c-.02-.04-.03-.09-.03-.15s.01-.12.03-.16c.02-.03.04-.06.07-.08.03-.02.06-.04.09-.06.05-.02.11-.03.18-.03.1,0,.18.02.23.05s.09.09.11.16l-.23.03s-.02-.05-.04-.06-.04-.02-.08-.02c-.04,0-.07.01-.1.04s-.04.07-.04.13c0,.05.01.09.04.12s.06.04.09.04c.03,0,.06,0,.08-.02.02-.02.04-.04.05-.07Z"/>
    <path class="cls-2" d="M42.03,19.9h.24v.16h-.24v-.16ZM42.03,20.13h.24v.63h-.24v-.63Z"/>
    <path class="cls-2" d="M42.64,20.34l-.23-.02s.02-.07.04-.09c.02-.02.04-.04.07-.06.02-.01.05-.02.09-.03.04,0,.08,0,.12,0,.07,0,.13,0,.17.01.04,0,.08.03.11.05.02.02.04.04.05.08s.02.06.02.09v.28s0,.05,0,.07c0,.02.01.04.02.06h-.23s-.01-.03-.02-.04c0,0,0-.02,0-.04-.03.03-.06.05-.09.06-.04.02-.09.03-.15.03-.07,0-.13-.02-.17-.05-.04-.03-.06-.08-.06-.13,0-.05.01-.09.04-.12.03-.03.08-.05.15-.07.09-.02.15-.03.17-.04.03,0,.05-.02.08-.03,0-.03,0-.05-.02-.06-.01-.01-.03-.02-.06-.02-.04,0-.07,0-.09.02-.02,0-.03.03-.04.06ZM42.85,20.46s-.07.02-.1.03c-.05.01-.08.03-.09.04-.01.01-.02.03-.02.04,0,.02,0,.03.02.05.01.01.03.02.06.02s.05,0,.07-.02c.02-.01.04-.03.05-.05s.01-.04.01-.07v-.04Z"/>
    <path class="cls-2" d="M43.23,19.9h.24v.86h-.24v-.86Z"/>
    <path class="cls-2" d="M43.64,19.9h.24v.16h-.24v-.16ZM43.64,20.13h.24v.63h-.24v-.63Z"/>
    <path class="cls-2" d="M44,20.13h.58v.14l-.32.32h.34v.16h-.62v-.16l.3-.31h-.28v-.16Z"/>
    <path class="cls-2" d="M44.92,20.34l-.23-.02s.02-.07.04-.09c.02-.02.04-.04.07-.06.02-.01.05-.02.09-.03.04,0,.08,0,.12,0,.07,0,.13,0,.17.01.04,0,.08.03.11.05.02.02.04.04.05.08s.02.06.02.09v.28s0,.05,0,.07c0,.02.01.04.02.06h-.23s-.01-.03-.02-.04c0,0,0-.02,0-.04-.03.03-.06.05-.09.06-.04.02-.09.03-.15.03-.07,0-.13-.02-.17-.05-.04-.03-.06-.08-.06-.13,0-.05.01-.09.04-.12.03-.03.08-.05.15-.07.09-.02.15-.03.17-.04.03,0,.05-.02.08-.03,0-.03,0-.05-.02-.06-.01-.01-.03-.02-.06-.02-.04,0-.07,0-.09.02-.02,0-.03.03-.04.06ZM45.13,20.46s-.07.02-.1.03c-.05.01-.08.03-.09.04-.01.01-.02.03-.02.04,0,.02,0,.03.02.05.01.01.03.02.06.02s.05,0,.07-.02c.02-.01.04-.03.05-.05s.01-.04.01-.07v-.04Z"/>
    <path class="cls-2" d="M46.16,19.9v.86h-.22v-.09s-.06.07-.09.08c-.04.02-.07.03-.12.03-.08,0-.15-.03-.19-.1-.05-.06-.07-.14-.07-.24,0-.1.03-.18.08-.24.05-.05.11-.08.19-.08.04,0,.07,0,.1.02s.06.03.08.06v-.3h.24ZM45.92,20.44s0-.09-.03-.11c-.02-.02-.05-.04-.08-.04-.03,0-.05.01-.07.04s-.03.06-.03.12c0,.05,0,.09.03.11.02.02.04.04.07.04s.06-.01.08-.04c.02-.02.03-.06.03-.12Z"/>
    <path class="cls-2" d="M46.28,20.45c0-.09.03-.17.1-.24s.15-.09.26-.09c.12,0,.22.04.28.11.05.06.08.13.08.22,0,.1-.03.17-.1.24s-.15.09-.26.09c-.1,0-.18-.03-.24-.08-.08-.06-.11-.15-.11-.25ZM46.52,20.45c0,.06.01.1.03.12.02.03.05.04.08.04s.06-.01.08-.04.03-.07.03-.13c0-.05-.01-.09-.03-.12-.02-.03-.05-.04-.08-.04-.04,0-.06.01-.09.04-.02.03-.03.07-.03.12Z"/>
    <path class="cls-2" d="M38.18,21.1h.28l.19.62.19-.62h.27l-.32.86h-.29l-.33-.86Z"/>
    <path class="cls-2" d="M39.81,21.54l-.23-.02s.02-.07.04-.09c.02-.02.04-.04.07-.06.02-.01.05-.02.09-.03s.08,0,.12,0c.07,0,.13,0,.17.01.04,0,.08.03.11.05.02.02.04.04.05.08s.02.06.02.09v.28s0,.05,0,.07c0,.02.01.04.02.06h-.23s-.02-.03-.02-.04c0,0,0-.02,0-.04-.03.03-.06.05-.09.06-.04.02-.09.03-.15.03-.07,0-.13-.02-.17-.05-.04-.03-.06-.08-.06-.13,0-.05.01-.09.04-.12.03-.03.08-.05.15-.07.09-.02.15-.03.17-.04.03,0,.06-.02.08-.03,0-.03,0-.05-.02-.06-.01-.01-.03-.02-.06-.02-.04,0-.07,0-.09.02-.02,0-.03.03-.04.06ZM40.01,21.67s-.07.02-.1.03c-.05.01-.08.03-.09.04s-.02.03-.02.04c0,.02,0,.03.02.05.01.01.03.02.06.02s.05,0,.07-.02c.02-.01.04-.03.05-.05,0-.02.01-.04.01-.07v-.04Z"/>
    <path class="cls-2" d="M40.73,21.1h.28l.19.62.19-.62h.27l-.32.86h-.29l-.33-.86Z"/>
    <path class="cls-2" d="M41.76,21.1h.27v.86h-.27v-.86Z"/>
    <path class="cls-2" d="M42.23,21.1h.27v.86h-.27v-.86Z"/>
    <path class="cls-2" d="M42.7,21.1h.27v.86h-.27v-.86Z"/>
  </g>
  <text class="cls-1" transform="translate(67.88 20.76)"><tspan x="0" y="0">Ci</tspan><tspan class="cls-13" x="1.35" y="0">c</tspan><tspan x="2.12" y="0">lo P</tspan><tspan class="cls-11" x="4.61" y="0">r</tspan><tspan x="5.17" y="0">o</tspan><tspan class="cls-14" x="5.98" y="0">f</tspan><tspan class="cls-16" x="6.43" y="0">esional</tspan><tspan x="3.62" y="1.21">IX a X</tspan></text>
  <text class="cls-10" transform="translate(37.93 14.98)"><tspan x="0" y="0">Proyecto V</tspan></text>
  <line class="cls-8" y1="18.16" x2="81.03" y2="18.16"/>
  <path class="cls-5" d="M48.58,5.03c0,.51-.42.93-.93.93h-14.07c-.51,0-.93-.42-.93-.93"/>
  <path class="cls-3" d="M48.58,16.17c0,.51-.42.93-.93.93h-14.07c-.51,0-.93-.42-.93-.93"/>
  <path class="cls-3" d="M81.03,16.41c0,.51-.42.93-.93.93h-14.07c-.51,0-.93-.42-.93-.93"/>
  <line class="cls-9" x1="40.62" y1="17.42" x2="40.62" y2="19.11"/>
  <line class="cls-9" x1="73.07" y1="17.59" x2="73.07" y2="19.28"/>
  <line class="cls-9" x1="7.49" y1="17.59" x2="7.49" y2="19.28"/>
  <rect class="cls-4" x="32.66" y="6.52" width="15.93" height="4.93" rx=".88" ry=".88"/>
  <text class="cls-10" transform="translate(37.31 8.73)"><tspan x="0" y="0">Seminario de </tspan><tspan x="-.94" y="1.04">Licenciatura I y II</tspan></text>
  <path class="cls-3" d="M48.58,10.67c0,.51-.42.93-.93.93h-14.07c-.51,0-.93-.42-.93-.93"/>
</svg>