<?xml version="1.0" encoding="UTF-8"?>
<svg id="Capa_1" data-name="Capa 1" xmlns="http://www.w3.org/2000/svg" viewBox="0 0 100 50">
  <defs>
    <style>
      .cls-1 {
        font-family: Arial-BoldMT, Arial;
        font-size: 1.5px;
        font-weight: 700;
      }

      .cls-1, .cls-2, .cls-3, .cls-4, .cls-5, .cls-6, .cls-7, .cls-8, .cls-9, .cls-10, .cls-11, .cls-12, .cls-13 {
        isolation: isolate;
      }

      .cls-14, .cls-2 {
        fill: #1f5592;
      }

      .cls-2, .cls-3, .cls-12 {
        opacity: .5;
      }

      .cls-3, .cls-15 {
        fill: #da4f40;
      }

      .cls-5, .cls-6, .cls-7, .cls-8, .cls-9, .cls-11, .cls-13 {
        font-family: ArialMT, Arial;
      }

      .cls-5, .cls-7 {
        fill: #fff;
      }

      .cls-5, .cls-7, .cls-8, .cls-9, .cls-11, .cls-13 {
        font-size: 1px;
      }

      .cls-5, .cls-9 {
        letter-spacing: -.05em;
      }

      .cls-6, .cls-10 {
        font-size: 2px;
      }

      .cls-8 {
        fill: #444;
      }

      .cls-9, .cls-11 {
        fill: #1d1d1b;
      }

      .cls-10 {
        font-family: Arial-ItalicMT, Arial;
        font-style: italic;
      }

      .cls-12, .cls-16 {
        fill: #f7ce65;
      }

      .cls-17 {
        fill: none;
        stroke: #1d1d1b;
        stroke-miterlimit: 10;
        stroke-width: .5px;
      }
    </style>
  </defs>
  <g id="Simbología">
    <g>
      <rect class="cls-12" x="8.69" y="47.99" width="2" height="1.92"/>
      <rect class="cls-16" x="8.69" y="49.7" width="2" height=".29"/>
    </g>
    <g class="cls-4">
      <text class="cls-13" transform="translate(11.37 49.38) scale(1.1 1)"><tspan x="0" y="0">Mención industrial y servicios</tspan></text>
    </g>
    <g>
      <g>
        <rect class="cls-2" x="28.29" y="47.98" width="2" height="1.92"/>
        <rect class="cls-14" x="28.29" y="49.69" width="2" height=".29"/>
      </g>
      <g class="cls-4">
        <text class="cls-13" transform="translate(31.01 49.35) scale(1.1 1)"><tspan x="0" y="0">Mención visualidad y medios</tspan></text>
      </g>
    </g>
    <g>
      <g>
        <rect class="cls-3" x="47.7" y="48" width="2" height="1.92"/>
        <rect class="cls-15" x="47.7" y="49.71" width="2" height=".29"/>
      </g>
      <g class="cls-4">
        <text class="cls-13" transform="translate(50.42 49.36) scale(1.1 1)"><tspan x="0" y="0">Ambas menciones</tspan></text>
      </g>
    </g>
    <g>
      <g class="cls-4">
        <text class="cls-13" transform="translate(2.26 49.23) scale(1.1 1)"><tspan x="0" y="0">Electivo</tspan></text>
      </g>
      <g class="cls-4">
        <text class="cls-1" transform="translate(-.09 49.42)"><tspan x="0" y="0">E.</tspan></text>
      </g>
    </g>
  </g>
  <g id="Cuadros">
    <g>
      <rect class="cls-12" x="69.84" y="29.71" width="30.15" height="8.25"/>
      <rect class="cls-16" x="69.84" y="37.16" width="30.15" height="1.49"/>
    </g>
    <g>
      <rect class="cls-12" x="34.93" y="29.68" width="30.15" height="8.24"/>
      <rect class="cls-16" x="34.93" y="37.13" width="30.15" height="1.49"/>
    </g>
    <g class="cls-4">
      <text class="cls-1" transform="translate(46.08 33.18)"><tspan x="0" y="0">Proyecto V</tspan></text>
      <text class="cls-8" transform="translate(44.72 34.68)"><tspan x="0" y="0">(Primer semestre-2025)</tspan></text>
    </g>
    <g class="cls-4">
      <text class="cls-1" transform="translate(76.71 33.2)"><tspan x="0" y="0">Proyecto de Título I y II</tspan></text>
      <text class="cls-8" transform="translate(79.11 34.7)"><tspan x="0" y="0">(Segundo semestre-2024)</tspan></text>
    </g>
    <g class="cls-4">
      <text class="cls-11" transform="translate(47.36 38.25)"><tspan x="0" y="0">(AUD5I001)</tspan></text>
    </g>
    <g class="cls-4">
      <text class="cls-11" transform="translate(79.59 38.29)"><tspan x="0" y="0">(AUD9I001 |</tspan></text>
      <text class="cls-9" transform="translate(85.08 38.29)"><tspan x="0" y="0"> </tspan></text>
      <text class="cls-11" transform="translate(85.3 38.29)"><tspan x="0" y="0">AUD10I01)</tspan></text>
    </g>
    <g>
      <rect class="cls-3" x="34.93" y="19.93" width="30.15" height="8.2"/>
      <rect class="cls-15" x="34.93" y="27.37" width="30.15" height="1.5"/>
    </g>
    <g class="cls-4">
      <text class="cls-1" transform="translate(42.91 23.41)"><tspan x="0" y="0">E. Sociedad y Moda</tspan></text>
      <text class="cls-8" transform="translate(44.14 24.91)"><tspan x="0" y="0">(Segundo semestre-2024)</tspan></text>
    </g>
    <g class="cls-4">
      <text class="cls-7" transform="translate(47.25 28.48)"><tspan x="0" y="0">(AUDIV026)</tspan></text>
    </g>
    <g>
      <rect class="cls-12" x="34.93" y="9.77" width="30.15" height="8.24"/>
      <rect class="cls-16" x="34.93" y="17.6" width="30.15" height="1.49"/>
    </g>
    <g class="cls-4">
      <text class="cls-1" transform="translate(39 13.59)"><tspan x="0" y="0">Seminario de Licenciatura I y II</tspan></text>
      <text class="cls-8" transform="translate(38.72 15.09)"><tspan x="0" y="0">(Segundo semestre-2024 y Primer semestre-2025)</tspan></text>
    </g>
    <g class="cls-4">
      <text class="cls-11" transform="translate(44.67 18.66)"><tspan x="0" y="0">(AUD7I002 |</tspan></text>
      <text class="cls-9" transform="translate(50.16 18.66)"><tspan x="0" y="0"> </tspan></text>
      <text class="cls-11" transform="translate(50.38 18.66)"><tspan x="0" y="0">AUD8I001)</tspan></text>
    </g>
    <g>
      <rect class="cls-2" x="34.93" y="0" width="30.15" height="8.24"/>
      <rect class="cls-14" x="34.93" y="7.45" width="30.15" height="1.49"/>
    </g>
    <g class="cls-4">
      <text class="cls-1" transform="translate(40.04 3.75)"><tspan x="0" y="0">Seminario de Licenciatura II</tspan></text>
      <text class="cls-8" transform="translate(44.19 5.25)"><tspan x="0" y="0">(Segundo semestre-2024)</tspan></text>
    </g>
    <g class="cls-4">
      <text class="cls-7" transform="translate(47.17 8.51)"><tspan x="0" y="0">(AUD8V001)</tspan></text>
    </g>
    <g>
      <rect class="cls-2" x="69.85" y="19.92" width="30.15" height="8.24"/>
      <rect class="cls-14" x="69.85" y="27.37" width="30.15" height="1.49"/>
    </g>
    <g class="cls-4">
      <text class="cls-1" transform="translate(76.72 23.42)"><tspan x="0" y="0">Proyecto de Título I y II</tspan></text>
      <text class="cls-8" transform="translate(79.12 24.92)"><tspan x="0" y="0">(Segundo semestre-2024)</tspan></text>
    </g>
    <g class="cls-4">
      <text class="cls-7" transform="translate(79.21 28.49)"><tspan x="0" y="0">(AUD9V001 |</tspan></text>
      <text class="cls-5" transform="translate(85.08 28.49)"><tspan x="0" y="0"> </tspan></text>
      <text class="cls-7" transform="translate(85.31 28.49)"><tspan x="0" y="0">AUD10V01)</tspan></text>
    </g>
  </g>
  <g id="Línea">
    <g>
      <line class="cls-17" x1="15.07" y1="41.53" x2="15.07" y2="38.73"/>
      <line class="cls-17" y1="38.86" x2="100" y2="38.86"/>
      <line class="cls-17" x1="50" y1="41.65" x2="50" y2="38.86"/>
      <line class="cls-17" x1="84.93" y1="41.65" x2="84.93" y2="38.86"/>
    </g>
    <g class="cls-4">
      <text class="cls-6" transform="translate(10.28 43.72)"><tspan x="0" y="0">Ciclo básico</tspan></text>
      <text class="cls-10" transform="translate(8.78 45.72)"><tspan x="0" y="0">Semestre I a IV</tspan></text>
    </g>
    <g class="cls-4">
      <text class="cls-6" transform="translate(41.33 43.76)"><tspan x="0" y="0">Ciclo Especializado</tspan></text>
      <text class="cls-10" transform="translate(42.16 45.76)"><tspan x="0" y="0">Semestre V a VIII</tspan></text>
    </g>
    <g class="cls-4">
      <text class="cls-6" transform="translate(77.42 43.75)"><tspan x="0" y="0">Ciclo Profesional</tspan></text>
      <text class="cls-10" transform="translate(77.64 45.75)"><tspan x="0" y="0">Semestre IX a X</tspan></text>
    </g>
  </g>
</svg>