<?xml version="1.0" encoding="utf-8"?>
<!-- Generator: Adobe Illustrator 28.1.0, SVG Export Plug-In . SVG Version: 6.00 Build 0)  -->
<svg version="1.1" id="Layer_1" xmlns="http://www.w3.org/2000/svg" xmlns:xlink="http://www.w3.org/1999/xlink" x="0px" y="0px"
	 viewBox="0 0 100 24.7" style="enable-background:new 0 0 100 24.7;" xml:space="preserve">
<style type="text/css">
	.st0{fill:#FAC4BD;}
	.st1{fill:#3D3D3D;}
	.st2{fill:#D1CEE7;}
	.st3{fill:#505050;}
	.st4{fill:none;stroke:#FAC4BD;stroke-width:0.5;stroke-miterlimit:10;}
	.st5{fill:#393E95;}
	.st6{fill:#EF4623;}
	.st7{fill:#FFFFFF;stroke:#FAC4BD;stroke-width:0.5;stroke-miterlimit:10;}
</style>
<g>
	<path class="st0" d="M89.64,18.38H75.47c-0.49,0-0.88-0.39-0.88-0.88v-3.17c0-0.49,0.39-0.88,0.88-0.88h14.16
		c0.49,0,0.88,0.39,0.88,0.88v3.17C90.52,17.99,90.12,18.38,89.64,18.38z"/>
	<path class="st0" d="M57.19,18.14H43.02c-0.49,0-0.88-0.39-0.88-0.88v-3.17c0-0.49,0.39-0.88,0.88-0.88h14.16
		c0.49,0,0.88,0.39,0.88,0.88v3.17C58.07,17.74,57.67,18.14,57.19,18.14z"/>
	<g>
		<g>
			<path class="st1" d="M78.32,15.6v0.3h-0.07v-0.79h0.2c0.08,0,0.15,0.02,0.19,0.06c0.04,0.04,0.07,0.1,0.07,0.17
				c0,0.08-0.02,0.14-0.07,0.19s-0.12,0.07-0.2,0.07H78.32z M78.32,15.18v0.36h0.1c0.07,0,0.12-0.02,0.15-0.05s0.05-0.08,0.05-0.14
				c0-0.06-0.02-0.1-0.05-0.13c-0.03-0.03-0.08-0.04-0.15-0.04H78.32z"/>
			<path class="st1" d="M79.13,15.4c-0.01,0-0.02,0-0.02-0.01c-0.01,0-0.01,0-0.02,0c-0.05,0-0.08,0.02-0.11,0.06
				c-0.03,0.04-0.04,0.1-0.04,0.17v0.28h-0.07v-0.56h0.07v0.12h0c0.01-0.04,0.03-0.07,0.06-0.09c0.03-0.02,0.06-0.03,0.1-0.03
				c0.01,0,0.02,0,0.03,0c0.01,0,0.02,0,0.02,0L79.13,15.4z"/>
			<path class="st1" d="M79.47,15.91c-0.08,0-0.15-0.03-0.2-0.08c-0.05-0.05-0.07-0.12-0.07-0.21c0-0.09,0.03-0.17,0.08-0.22
				c0.05-0.05,0.12-0.08,0.2-0.08c0.08,0,0.15,0.03,0.19,0.08s0.07,0.12,0.07,0.22c0,0.09-0.03,0.16-0.07,0.21
				C79.62,15.89,79.56,15.91,79.47,15.91z M79.48,15.85c0.06,0,0.11-0.02,0.15-0.06c0.03-0.04,0.05-0.1,0.05-0.17
				c0-0.08-0.02-0.13-0.05-0.17s-0.08-0.06-0.14-0.06c-0.06,0-0.11,0.02-0.15,0.06c-0.04,0.04-0.06,0.1-0.06,0.17
				c0,0.07,0.02,0.13,0.05,0.17C79.36,15.83,79.41,15.85,79.48,15.85z"/>
			<path class="st1" d="M80.32,15.34l-0.28,0.69c-0.02,0.04-0.04,0.07-0.07,0.1s-0.06,0.04-0.1,0.04c-0.01,0-0.02,0-0.03,0
				s-0.02,0-0.03,0l0.02-0.06c0.01,0,0.01,0,0.02,0s0.01,0,0.02,0c0.02,0,0.04-0.01,0.06-0.02c0.02-0.01,0.03-0.03,0.04-0.06
				l0.05-0.13l-0.22-0.56h0.08l0.16,0.45c0,0.01,0,0.01,0.01,0.02s0,0.01,0.01,0.02h0c0,0,0-0.01,0-0.02c0-0.01,0-0.01,0.01-0.02
				l0.17-0.45H80.32z"/>
			<path class="st1" d="M80.85,15.63h-0.41c0,0.08,0.02,0.13,0.05,0.17c0.04,0.04,0.08,0.05,0.14,0.05c0.03,0,0.05,0,0.08-0.01
				c0.03-0.01,0.05-0.02,0.08-0.04l0.04,0.05c-0.03,0.02-0.06,0.04-0.09,0.05c-0.03,0.01-0.07,0.02-0.11,0.02
				c-0.08,0-0.14-0.02-0.19-0.07c-0.05-0.05-0.07-0.12-0.07-0.22c0-0.09,0.02-0.16,0.07-0.21s0.11-0.08,0.18-0.08
				c0.07,0,0.13,0.02,0.17,0.07c0.04,0.05,0.06,0.11,0.06,0.2V15.63z M80.78,15.57c0-0.06-0.02-0.1-0.04-0.14
				c-0.03-0.03-0.06-0.05-0.11-0.05c-0.05,0-0.09,0.02-0.12,0.05s-0.05,0.08-0.06,0.14H80.78z"/>
			<path class="st1" d="M81.38,15.87c-0.03,0.02-0.05,0.03-0.08,0.03c-0.03,0.01-0.05,0.01-0.08,0.01c-0.08,0-0.14-0.03-0.19-0.08
				s-0.07-0.12-0.07-0.21c0-0.09,0.03-0.16,0.08-0.22s0.12-0.08,0.21-0.08c0.03,0,0.05,0,0.08,0.01c0.02,0.01,0.05,0.02,0.07,0.03
				l-0.03,0.05c-0.02-0.01-0.04-0.02-0.06-0.02c-0.02,0-0.04-0.01-0.06-0.01c-0.06,0-0.12,0.02-0.15,0.07s-0.06,0.1-0.06,0.17
				c0,0.07,0.02,0.13,0.05,0.17c0.04,0.04,0.08,0.06,0.14,0.06c0.02,0,0.04,0,0.06-0.01s0.04-0.01,0.06-0.03L81.38,15.87z"/>
			<path class="st1" d="M81.75,15.89c-0.01,0.01-0.03,0.01-0.04,0.02c-0.01,0-0.03,0-0.05,0c-0.04,0-0.07-0.01-0.09-0.04
				c-0.02-0.02-0.03-0.06-0.03-0.11V15.4h-0.1v-0.06h0.1v-0.14l0.07-0.02v0.17h0.14v0.06H81.6v0.36c0,0.03,0.01,0.06,0.02,0.07
				s0.03,0.02,0.05,0.02c0.01,0,0.02,0,0.03,0c0.01,0,0.02-0.01,0.03-0.01L81.75,15.89z"/>
			<path class="st1" d="M82.09,15.91c-0.08,0-0.15-0.03-0.2-0.08c-0.05-0.05-0.07-0.12-0.07-0.21c0-0.09,0.03-0.17,0.08-0.22
				c0.05-0.05,0.12-0.08,0.2-0.08c0.08,0,0.15,0.03,0.19,0.08s0.07,0.12,0.07,0.22c0,0.09-0.03,0.16-0.07,0.21
				C82.24,15.89,82.17,15.91,82.09,15.91z M82.09,15.85c0.06,0,0.11-0.02,0.15-0.06c0.03-0.04,0.05-0.1,0.05-0.17
				c0-0.08-0.02-0.13-0.05-0.17s-0.08-0.06-0.14-0.06c-0.06,0-0.11,0.02-0.15,0.06c-0.04,0.04-0.06,0.1-0.06,0.17
				c0,0.07,0.02,0.13,0.05,0.17C81.98,15.83,82.03,15.85,82.09,15.85z"/>
			<path class="st1" d="M83.2,15.8c-0.02,0.04-0.05,0.06-0.08,0.08c-0.03,0.02-0.07,0.03-0.12,0.03c-0.07,0-0.13-0.03-0.17-0.08
				c-0.04-0.05-0.06-0.12-0.06-0.21c0-0.09,0.02-0.17,0.07-0.22c0.05-0.06,0.11-0.08,0.19-0.08c0.04,0,0.08,0.01,0.1,0.02
				c0.03,0.02,0.05,0.04,0.07,0.07h0v-0.35h0.07v0.83h-0.07L83.2,15.8L83.2,15.8z M82.84,15.63c0,0.07,0.02,0.13,0.05,0.17
				s0.08,0.06,0.13,0.06c0.06,0,0.1-0.02,0.14-0.06s0.05-0.08,0.05-0.14v-0.09c0-0.05-0.02-0.09-0.05-0.12
				c-0.03-0.03-0.07-0.05-0.12-0.05c-0.06,0-0.1,0.02-0.14,0.06S82.84,15.55,82.84,15.63z"/>
			<path class="st1" d="M83.9,15.63h-0.41c0,0.08,0.02,0.13,0.05,0.17c0.04,0.04,0.08,0.05,0.14,0.05c0.03,0,0.05,0,0.08-0.01
				c0.03-0.01,0.05-0.02,0.08-0.04l0.04,0.05c-0.03,0.02-0.06,0.04-0.09,0.05s-0.07,0.02-0.11,0.02c-0.08,0-0.14-0.02-0.19-0.07
				s-0.07-0.12-0.07-0.22c0-0.09,0.02-0.16,0.07-0.21c0.05-0.06,0.11-0.08,0.19-0.08c0.07,0,0.13,0.02,0.17,0.07
				c0.04,0.05,0.06,0.11,0.06,0.2V15.63z M83.83,15.57c0-0.06-0.02-0.1-0.04-0.14c-0.03-0.03-0.06-0.05-0.11-0.05
				c-0.05,0-0.09,0.02-0.12,0.05s-0.05,0.08-0.06,0.14H83.83z"/>
			<path class="st1" d="M84.81,15.18h-0.23v0.72h-0.07v-0.72h-0.23v-0.07h0.53V15.18z"/>
			<path class="st1" d="M84.96,15.2c-0.02,0-0.03,0-0.04-0.02c-0.01-0.01-0.02-0.02-0.02-0.04c0-0.02,0.01-0.03,0.02-0.04
				c0.01-0.01,0.02-0.02,0.04-0.02s0.03,0,0.04,0.02s0.02,0.02,0.02,0.04c0,0.02,0,0.03-0.02,0.04
				C84.99,15.19,84.98,15.2,84.96,15.2z M85,15.9h-0.07v-0.56H85V15.9z"/>
			<path class="st1" d="M85.42,15.89c-0.01,0.01-0.03,0.01-0.04,0.02c-0.01,0-0.03,0-0.05,0c-0.04,0-0.07-0.01-0.09-0.04
				c-0.02-0.02-0.03-0.06-0.03-0.11V15.4h-0.1v-0.06h0.1v-0.14l0.07-0.02v0.17h0.15v0.06h-0.15v0.36c0,0.03,0.01,0.06,0.02,0.07
				c0.01,0.01,0.03,0.02,0.05,0.02c0.01,0,0.02,0,0.03,0c0.01,0,0.02-0.01,0.03-0.01L85.42,15.89z"/>
			<path class="st1" d="M85.97,15.9H85.9v-0.1h0c-0.02,0.04-0.04,0.06-0.07,0.08c-0.03,0.02-0.06,0.03-0.1,0.03
				c-0.07,0-0.12-0.02-0.15-0.06c-0.03-0.04-0.05-0.1-0.05-0.18v-0.33h0.07v0.32c0,0.07,0.01,0.12,0.04,0.15
				c0.02,0.03,0.06,0.05,0.11,0.05c0.05,0,0.09-0.02,0.12-0.05s0.05-0.08,0.05-0.14v-0.32h0.07V15.9z"/>
			<path class="st1" d="M86.15,15.9v-0.83h0.07v0.83H86.15z"/>
			<path class="st1" d="M86.64,15.91c-0.08,0-0.15-0.03-0.2-0.08c-0.05-0.05-0.07-0.12-0.07-0.21c0-0.09,0.03-0.17,0.08-0.22
				c0.05-0.05,0.12-0.08,0.2-0.08c0.08,0,0.15,0.03,0.19,0.08s0.07,0.12,0.07,0.22c0,0.09-0.03,0.16-0.07,0.21
				C86.79,15.89,86.72,15.91,86.64,15.91z M86.64,15.85c0.06,0,0.11-0.02,0.15-0.06c0.03-0.04,0.05-0.1,0.05-0.17
				c0-0.08-0.02-0.13-0.05-0.17s-0.08-0.06-0.14-0.06c-0.06,0-0.11,0.02-0.15,0.06c-0.04,0.04-0.06,0.1-0.06,0.17
				c0,0.07,0.02,0.13,0.05,0.17C86.53,15.83,86.58,15.85,86.64,15.85z"/>
			<path class="st1" d="M81.74,16.94h-0.07v-0.79h0.07V16.94z"/>
			<path class="st1" d="M82.67,16.38l-0.28,0.69c-0.02,0.04-0.04,0.07-0.07,0.1s-0.06,0.04-0.1,0.04c-0.01,0-0.02,0-0.03,0
				c-0.01,0-0.02,0-0.03,0l0.02-0.06c0.01,0,0.01,0,0.02,0c0.01,0,0.01,0,0.02,0c0.02,0,0.04-0.01,0.06-0.02
				c0.02-0.01,0.03-0.03,0.04-0.06l0.05-0.13l-0.22-0.56h0.08l0.16,0.45c0,0.01,0,0.01,0.01,0.02s0,0.01,0.01,0.02h0
				c0-0.01,0-0.01,0-0.02c0-0.01,0-0.01,0.01-0.02l0.17-0.45H82.67z"/>
			<path class="st1" d="M83.16,16.94h-0.07v-0.79h0.07V16.94z"/>
			<path class="st1" d="M83.44,16.94h-0.07v-0.79h0.07V16.94z"/>
		</g>
	</g>
	<path class="st2" d="M57.14,6.98H43.07c-0.51,0-0.93-0.42-0.93-0.93V2.11c0-0.51,0.42-0.93,0.93-0.93h14.07
		c0.51,0,0.93,0.42,0.93,0.93v3.95C58.07,6.57,57.65,6.98,57.14,6.98z"/>
	<g>
		<g>
			<path class="st1" d="M44.05,3.76h-0.4V2.97h0.38v0.07h-0.31v0.29h0.29v0.07h-0.29v0.3h0.33V3.76z"/>
			<path class="st1" d="M44.21,3.76V2.92h0.07v0.83H44.21z"/>
			<path class="st1" d="M44.9,3.49h-0.41c0,0.08,0.02,0.13,0.05,0.17s0.08,0.05,0.14,0.05c0.03,0,0.05,0,0.08-0.01
				c0.03-0.01,0.05-0.02,0.08-0.04l0.04,0.05c-0.03,0.02-0.06,0.04-0.09,0.05c-0.03,0.01-0.07,0.02-0.11,0.02
				c-0.08,0-0.14-0.02-0.19-0.07c-0.05-0.05-0.07-0.12-0.07-0.22c0-0.09,0.02-0.16,0.07-0.21c0.05-0.06,0.11-0.08,0.19-0.08
				c0.07,0,0.13,0.02,0.17,0.07c0.04,0.05,0.06,0.11,0.06,0.2V3.49z M44.83,3.43c0-0.06-0.02-0.1-0.04-0.14
				c-0.03-0.03-0.06-0.05-0.11-0.05c-0.05,0-0.09,0.02-0.12,0.05s-0.05,0.08-0.06,0.14H44.83z"/>
			<path class="st1" d="M45.42,3.73c-0.03,0.02-0.05,0.03-0.08,0.03c-0.03,0.01-0.05,0.01-0.08,0.01c-0.08,0-0.14-0.03-0.19-0.08
				S45,3.57,45,3.49c0-0.09,0.03-0.16,0.08-0.22c0.05-0.06,0.12-0.08,0.21-0.08c0.03,0,0.05,0,0.07,0.01
				c0.02,0.01,0.05,0.02,0.07,0.03L45.4,3.27c-0.02-0.01-0.04-0.02-0.06-0.02c-0.02,0-0.04-0.01-0.06-0.01
				c-0.06,0-0.12,0.02-0.15,0.07s-0.06,0.1-0.06,0.17c0,0.07,0.02,0.13,0.05,0.17s0.08,0.06,0.14,0.06c0.02,0,0.04,0,0.06-0.01
				c0.02-0.01,0.04-0.02,0.06-0.03L45.42,3.73z"/>
			<path class="st1" d="M45.79,3.75c-0.01,0.01-0.03,0.01-0.04,0.02s-0.03,0.01-0.05,0.01c-0.04,0-0.07-0.01-0.09-0.04
				s-0.03-0.06-0.03-0.11V3.26h-0.1V3.19h0.1V3.05l0.07-0.02v0.17h0.15v0.06h-0.15v0.36c0,0.03,0.01,0.06,0.02,0.07
				c0.01,0.01,0.03,0.02,0.05,0.02c0.01,0,0.02,0,0.03,0s0.02-0.01,0.03-0.01L45.79,3.75z"/>
			<path class="st1" d="M45.94,3.06c-0.02,0-0.03,0-0.04-0.02C45.89,3.03,45.88,3.02,45.88,3c0-0.02,0.01-0.03,0.02-0.04
				c0.01-0.01,0.02-0.02,0.04-0.02c0.02,0,0.03,0,0.04,0.02c0.01,0.01,0.02,0.02,0.02,0.04c0,0.02-0.01,0.03-0.02,0.04
				C45.97,3.05,45.95,3.06,45.94,3.06z M45.97,3.76H45.9V3.19h0.07V3.76z"/>
			<path class="st1" d="M46.58,3.19l-0.22,0.56h-0.07l-0.22-0.56h0.08l0.15,0.43c0,0.01,0.01,0.03,0.01,0.04
				c0,0.01,0.01,0.02,0.01,0.03h0c0-0.01,0-0.02,0.01-0.04c0-0.01,0.01-0.02,0.01-0.03l0.16-0.43H46.58z"/>
			<path class="st1" d="M46.91,3.77c-0.08,0-0.15-0.03-0.2-0.08c-0.05-0.05-0.07-0.12-0.07-0.21c0-0.09,0.03-0.17,0.08-0.22
				c0.05-0.05,0.12-0.08,0.2-0.08c0.08,0,0.15,0.03,0.19,0.08s0.07,0.12,0.07,0.22c0,0.09-0.02,0.16-0.07,0.21
				C47.06,3.74,46.99,3.77,46.91,3.77z M46.91,3.71c0.06,0,0.11-0.02,0.15-0.06c0.03-0.04,0.05-0.1,0.05-0.17
				c0-0.08-0.02-0.13-0.05-0.17c-0.03-0.04-0.08-0.06-0.14-0.06c-0.06,0-0.11,0.02-0.15,0.06s-0.06,0.1-0.06,0.17
				c0,0.07,0.02,0.13,0.05,0.17C46.8,3.69,46.85,3.71,46.91,3.71z"/>
			<path class="st1" d="M47.56,3.76l0.3-0.79h0.07l0.3,0.79h-0.08l-0.08-0.23h-0.34l-0.08,0.23H47.56z M47.75,3.46h0.29l-0.13-0.35
				c0-0.01-0.01-0.02-0.01-0.03c0-0.01,0-0.02-0.01-0.03h0c0,0.01,0,0.02-0.01,0.03c0,0.01-0.01,0.02-0.01,0.02L47.75,3.46z"/>
			<path class="st1" d="M49.13,3.76h-0.07V3.43c0-0.07-0.01-0.11-0.03-0.14c-0.02-0.03-0.05-0.04-0.1-0.04
				c-0.04,0-0.08,0.02-0.11,0.05c-0.03,0.04-0.04,0.08-0.04,0.14v0.33H48.7V3.42c0-0.06-0.01-0.1-0.03-0.13
				c-0.02-0.03-0.06-0.04-0.1-0.04c-0.04,0-0.08,0.02-0.11,0.05s-0.04,0.08-0.04,0.14v0.32h-0.07V3.19h0.07v0.09h0
				c0.02-0.04,0.04-0.06,0.07-0.08c0.03-0.02,0.06-0.03,0.1-0.03c0.04,0,0.07,0.01,0.1,0.03c0.03,0.02,0.05,0.05,0.06,0.09
				c0.02-0.04,0.04-0.07,0.08-0.09c0.03-0.02,0.07-0.03,0.11-0.03c0.06,0,0.11,0.02,0.14,0.06c0.03,0.04,0.05,0.1,0.05,0.17V3.76z"
				/>
			<path class="st1" d="M49.37,3.67L49.37,3.67l0,0.09h-0.07V2.92h0.07V3.3h0c0.02-0.04,0.05-0.07,0.08-0.09
				c0.04-0.02,0.07-0.03,0.12-0.03c0.07,0,0.13,0.02,0.17,0.07s0.06,0.12,0.06,0.2c0,0.09-0.02,0.17-0.07,0.23s-0.11,0.09-0.18,0.09
				c-0.04,0-0.07-0.01-0.1-0.02C49.41,3.73,49.39,3.7,49.37,3.67z M49.37,3.45v0.07c0,0.05,0.02,0.1,0.05,0.13
				c0.03,0.04,0.08,0.05,0.13,0.05c0.06,0,0.1-0.02,0.13-0.07c0.03-0.05,0.05-0.11,0.05-0.18c0-0.07-0.02-0.12-0.05-0.16
				c-0.03-0.04-0.07-0.06-0.12-0.06c-0.06,0-0.11,0.02-0.14,0.06C49.38,3.34,49.37,3.39,49.37,3.45z"/>
			<path class="st1" d="M50.33,3.76h-0.07v-0.1h0c-0.02,0.04-0.04,0.06-0.08,0.08c-0.03,0.02-0.07,0.03-0.11,0.03
				c-0.05,0-0.1-0.02-0.13-0.05c-0.03-0.03-0.05-0.07-0.05-0.12s0.02-0.09,0.05-0.12c0.03-0.03,0.08-0.05,0.15-0.06l0.16-0.02V3.39
				c0-0.05-0.01-0.09-0.04-0.11c-0.02-0.02-0.05-0.04-0.09-0.04c-0.03,0-0.06,0.01-0.09,0.02c-0.03,0.01-0.05,0.03-0.08,0.05
				l-0.04-0.04c0.03-0.03,0.06-0.05,0.1-0.06c0.03-0.01,0.07-0.02,0.11-0.02c0.07,0,0.11,0.02,0.15,0.05
				c0.03,0.04,0.05,0.09,0.05,0.16V3.76z M50.26,3.52V3.46l-0.15,0.02c-0.05,0.01-0.09,0.02-0.11,0.04
				c-0.02,0.02-0.03,0.04-0.03,0.08c0,0.03,0.01,0.06,0.03,0.08c0.02,0.02,0.05,0.03,0.08,0.03c0.05,0,0.09-0.02,0.13-0.05
				C50.25,3.62,50.26,3.57,50.26,3.52z"/>
			<path class="st1" d="M50.45,3.72l0.03-0.06c0.02,0.01,0.04,0.03,0.07,0.04c0.02,0.01,0.05,0.01,0.08,0.01
				c0.04,0,0.07-0.01,0.1-0.03s0.03-0.04,0.03-0.08c0-0.02-0.01-0.05-0.03-0.06c-0.02-0.02-0.05-0.03-0.1-0.05
				c-0.06-0.02-0.11-0.04-0.13-0.07c-0.02-0.03-0.04-0.06-0.04-0.1c0-0.05,0.02-0.08,0.05-0.11s0.08-0.04,0.14-0.04
				c0.03,0,0.05,0,0.08,0.01s0.05,0.02,0.08,0.04l-0.03,0.05c-0.02-0.01-0.04-0.02-0.06-0.03c-0.02-0.01-0.04-0.01-0.06-0.01
				c-0.04,0-0.07,0.01-0.09,0.02s-0.03,0.04-0.03,0.06c0,0.03,0.01,0.05,0.03,0.06c0.02,0.01,0.05,0.03,0.1,0.04
				c0.06,0.02,0.1,0.04,0.13,0.07c0.03,0.03,0.04,0.06,0.04,0.1c0,0.05-0.02,0.09-0.05,0.12s-0.08,0.05-0.14,0.05
				c-0.03,0-0.06,0-0.09-0.01S50.48,3.73,50.45,3.72z"/>
			<path class="st1" d="M52.05,3.76h-0.07V3.21c0-0.01,0-0.03,0-0.05c0-0.02,0-0.05,0.01-0.08h0c0,0.02-0.01,0.03-0.01,0.04
				c0,0.01-0.01,0.02-0.01,0.03l-0.27,0.61h-0.03l-0.27-0.6c0-0.01-0.01-0.02-0.01-0.03c0-0.01-0.01-0.03-0.01-0.04h0
				c0,0.02,0,0.04,0,0.06s0,0.05,0,0.07v0.55h-0.07V2.97h0.09l0.27,0.59c0.01,0.01,0.01,0.03,0.02,0.04
				c0.01,0.01,0.01,0.03,0.01,0.04h0c0.01-0.02,0.01-0.03,0.02-0.05c0-0.01,0.01-0.03,0.01-0.04l0.27-0.59h0.08V3.76z"/>
			<path class="st1" d="M52.68,3.49h-0.41c0,0.08,0.02,0.13,0.05,0.17s0.08,0.05,0.14,0.05c0.03,0,0.05,0,0.08-0.01
				c0.03-0.01,0.05-0.02,0.08-0.04l0.04,0.05c-0.03,0.02-0.06,0.04-0.09,0.05c-0.03,0.01-0.07,0.02-0.11,0.02
				c-0.08,0-0.14-0.02-0.19-0.07c-0.05-0.05-0.07-0.12-0.07-0.22c0-0.09,0.02-0.16,0.07-0.21s0.11-0.08,0.18-0.08
				c0.07,0,0.13,0.02,0.17,0.07c0.04,0.05,0.06,0.11,0.06,0.2V3.49z M52.61,3.43c0-0.06-0.02-0.1-0.04-0.14
				c-0.03-0.03-0.06-0.05-0.11-0.05c-0.05,0-0.09,0.02-0.12,0.05s-0.05,0.08-0.06,0.14H52.61z"/>
			<path class="st1" d="M53.27,3.76H53.2V3.43c0-0.06-0.01-0.11-0.03-0.14c-0.02-0.03-0.06-0.05-0.1-0.05
				c-0.05,0-0.09,0.02-0.12,0.06c-0.03,0.04-0.05,0.08-0.05,0.14v0.32h-0.07V3.19h0.07v0.1h0c0.02-0.04,0.05-0.07,0.08-0.08
				c0.03-0.02,0.07-0.03,0.11-0.03c0.06,0,0.11,0.02,0.14,0.06c0.03,0.04,0.05,0.1,0.05,0.17V3.76z"/>
			<path class="st1" d="M53.82,3.73c-0.03,0.02-0.05,0.03-0.08,0.03c-0.03,0.01-0.05,0.01-0.08,0.01c-0.08,0-0.14-0.03-0.19-0.08
				S53.4,3.57,53.4,3.49c0-0.09,0.03-0.16,0.08-0.22s0.12-0.08,0.21-0.08c0.03,0,0.05,0,0.08,0.01c0.02,0.01,0.05,0.02,0.07,0.03
				L53.8,3.27c-0.02-0.01-0.04-0.02-0.06-0.02c-0.02,0-0.04-0.01-0.06-0.01c-0.06,0-0.12,0.02-0.15,0.07s-0.06,0.1-0.06,0.17
				c0,0.07,0.02,0.13,0.05,0.17s0.08,0.06,0.14,0.06c0.02,0,0.04,0,0.06-0.01c0.02-0.01,0.04-0.02,0.06-0.03L53.82,3.73z"/>
			<path class="st1" d="M53.98,3.06c-0.02,0-0.03,0-0.04-0.02C53.94,3.03,53.93,3.02,53.93,3c0-0.02,0.01-0.03,0.02-0.04
				c0.01-0.01,0.02-0.02,0.04-0.02s0.03,0,0.04,0.02S54.04,2.99,54.04,3c0,0.02,0,0.03-0.02,0.04C54.01,3.05,54,3.06,53.98,3.06z
				 M54.02,3.76h-0.07V3.19h0.07V3.76z"/>
			<path class="st1" d="M54.43,3.77c-0.08,0-0.15-0.03-0.2-0.08s-0.07-0.12-0.07-0.21c0-0.09,0.03-0.17,0.08-0.22
				c0.05-0.05,0.12-0.08,0.2-0.08c0.08,0,0.15,0.03,0.19,0.08s0.07,0.12,0.07,0.22c0,0.09-0.03,0.16-0.07,0.21
				S54.52,3.77,54.43,3.77z M54.44,3.71c0.06,0,0.11-0.02,0.15-0.06c0.03-0.04,0.05-0.1,0.05-0.17c0-0.08-0.02-0.13-0.05-0.17
				s-0.08-0.06-0.14-0.06c-0.06,0-0.11,0.02-0.15,0.06c-0.04,0.04-0.06,0.1-0.06,0.17c0,0.07,0.02,0.13,0.05,0.17
				C54.32,3.69,54.37,3.71,54.44,3.71z"/>
			<path class="st1" d="M55.3,3.76h-0.07V3.43c0-0.06-0.01-0.11-0.04-0.14c-0.02-0.03-0.06-0.05-0.1-0.05
				c-0.05,0-0.09,0.02-0.12,0.06c-0.03,0.04-0.05,0.08-0.05,0.14v0.32h-0.07V3.19h0.07v0.1h0c0.02-0.04,0.05-0.07,0.08-0.08
				c0.03-0.02,0.07-0.03,0.11-0.03c0.06,0,0.11,0.02,0.14,0.06s0.05,0.1,0.05,0.17V3.76z"/>
			<path class="st1" d="M55.91,3.49H55.5c0,0.08,0.02,0.13,0.05,0.17s0.08,0.05,0.14,0.05c0.03,0,0.05,0,0.08-0.01
				s0.05-0.02,0.08-0.04l0.04,0.05c-0.03,0.02-0.06,0.04-0.09,0.05c-0.03,0.01-0.07,0.02-0.11,0.02c-0.08,0-0.14-0.02-0.19-0.07
				c-0.05-0.05-0.07-0.12-0.07-0.22c0-0.09,0.02-0.16,0.07-0.21c0.05-0.06,0.11-0.08,0.19-0.08c0.07,0,0.13,0.02,0.17,0.07
				c0.04,0.05,0.06,0.11,0.06,0.2V3.49z M55.83,3.43c0-0.06-0.02-0.1-0.04-0.14c-0.03-0.03-0.06-0.05-0.11-0.05
				c-0.05,0-0.09,0.02-0.12,0.05s-0.05,0.08-0.06,0.14H55.83z"/>
			<path class="st1" d="M55.99,3.72l0.03-0.06c0.02,0.01,0.04,0.03,0.07,0.04c0.02,0.01,0.05,0.01,0.08,0.01
				c0.04,0,0.07-0.01,0.1-0.03s0.03-0.04,0.03-0.08c0-0.02-0.01-0.05-0.03-0.06c-0.02-0.02-0.05-0.03-0.1-0.05
				c-0.06-0.02-0.11-0.04-0.13-0.07s-0.04-0.06-0.04-0.1c0-0.05,0.02-0.08,0.05-0.11c0.03-0.03,0.08-0.04,0.14-0.04
				c0.03,0,0.05,0,0.08,0.01s0.05,0.02,0.08,0.04l-0.03,0.05c-0.02-0.01-0.04-0.02-0.06-0.03c-0.02-0.01-0.04-0.01-0.06-0.01
				c-0.04,0-0.07,0.01-0.09,0.02c-0.02,0.02-0.03,0.04-0.03,0.06c0,0.03,0.01,0.05,0.03,0.06c0.02,0.01,0.05,0.03,0.1,0.04
				c0.06,0.02,0.1,0.04,0.13,0.07c0.03,0.03,0.04,0.06,0.04,0.1c0,0.05-0.02,0.09-0.05,0.12s-0.08,0.05-0.14,0.05
				c-0.03,0-0.06,0-0.09-0.01S56.02,3.73,55.99,3.72z"/>
			<path class="st1" d="M56.53,3.29c-0.02,0-0.03-0.01-0.04-0.02c-0.01-0.01-0.02-0.02-0.02-0.04s0.01-0.03,0.02-0.04
				c0.01-0.01,0.02-0.02,0.04-0.02c0.01,0,0.03,0.01,0.04,0.02c0.01,0.01,0.02,0.02,0.02,0.04s0,0.03-0.02,0.04
				S56.55,3.29,56.53,3.29z M56.53,3.77c-0.02,0-0.03-0.01-0.04-0.02c-0.01-0.01-0.02-0.02-0.02-0.04c0-0.01,0.01-0.03,0.02-0.04
				c0.01-0.01,0.02-0.02,0.04-0.02c0.01,0,0.03,0.01,0.04,0.02s0.02,0.02,0.02,0.04c0,0.02,0,0.03-0.02,0.04S56.55,3.77,56.53,3.77z
				"/>
			<path class="st1" d="M45.95,4.73l0.04-0.05c0.03,0.02,0.06,0.04,0.09,0.05c0.03,0.01,0.07,0.02,0.11,0.02
				c0.05,0,0.09-0.01,0.12-0.04c0.03-0.03,0.05-0.06,0.05-0.11c0-0.04-0.01-0.07-0.04-0.1c-0.03-0.02-0.07-0.05-0.13-0.07
				c-0.07-0.03-0.13-0.06-0.16-0.09C46,4.3,45.98,4.26,45.98,4.21c0-0.06,0.02-0.12,0.07-0.15c0.04-0.04,0.1-0.06,0.17-0.06
				c0.03,0,0.06,0,0.1,0.01c0.03,0.01,0.06,0.02,0.1,0.04L46.38,4.1c-0.03-0.02-0.05-0.03-0.08-0.03c-0.03-0.01-0.06-0.01-0.09-0.01
				c-0.05,0-0.09,0.01-0.12,0.04s-0.04,0.06-0.04,0.1c0,0.04,0.01,0.07,0.04,0.09c0.03,0.02,0.07,0.05,0.13,0.07
				c0.07,0.03,0.13,0.06,0.16,0.09c0.03,0.03,0.05,0.08,0.05,0.14c0,0.07-0.02,0.12-0.07,0.16c-0.04,0.04-0.11,0.06-0.18,0.06
				c-0.05,0-0.09-0.01-0.12-0.02C46.02,4.78,45.99,4.76,45.95,4.73z"/>
			<path class="st1" d="M46.81,4.81c-0.08,0-0.15-0.03-0.2-0.08c-0.05-0.05-0.07-0.12-0.07-0.21c0-0.09,0.03-0.17,0.08-0.22
				c0.05-0.05,0.12-0.08,0.2-0.08c0.08,0,0.15,0.03,0.19,0.08s0.07,0.12,0.07,0.22c0,0.09-0.02,0.16-0.07,0.21
				C46.96,4.78,46.89,4.81,46.81,4.81z M46.81,4.75c0.06,0,0.11-0.02,0.15-0.06c0.03-0.04,0.05-0.1,0.05-0.17
				c0-0.08-0.02-0.13-0.05-0.17c-0.03-0.04-0.08-0.06-0.14-0.06c-0.06,0-0.11,0.02-0.15,0.06s-0.06,0.1-0.06,0.17
				c0,0.07,0.02,0.13,0.05,0.17C46.7,4.73,46.75,4.75,46.81,4.75z"/>
			<path class="st1" d="M47.61,4.76c-0.03,0.02-0.05,0.03-0.08,0.03c-0.03,0.01-0.05,0.01-0.08,0.01c-0.08,0-0.14-0.03-0.19-0.08
				s-0.07-0.12-0.07-0.21c0-0.09,0.03-0.16,0.08-0.22c0.05-0.06,0.12-0.08,0.21-0.08c0.03,0,0.05,0,0.07,0.01
				c0.02,0.01,0.05,0.02,0.07,0.03l-0.03,0.05c-0.02-0.01-0.04-0.02-0.06-0.02c-0.02,0-0.04-0.01-0.06-0.01
				c-0.06,0-0.12,0.02-0.15,0.07s-0.06,0.1-0.06,0.17c0,0.07,0.02,0.13,0.05,0.17s0.08,0.06,0.14,0.06c0.02,0,0.04,0,0.06-0.01
				c0.02-0.01,0.04-0.02,0.06-0.03L47.61,4.76z"/>
			<path class="st1" d="M47.77,4.1c-0.02,0-0.03,0-0.04-0.02c-0.01-0.01-0.02-0.02-0.02-0.04c0-0.02,0.01-0.03,0.02-0.04
				c0.01-0.01,0.02-0.02,0.04-0.02c0.02,0,0.03,0,0.04,0.02c0.01,0.01,0.02,0.02,0.02,0.04c0,0.02-0.01,0.03-0.02,0.04
				C47.8,4.09,47.78,4.1,47.77,4.1z M47.8,4.8h-0.07V4.23h0.07V4.8z"/>
			<path class="st1" d="M48.42,4.53h-0.41c0,0.08,0.02,0.13,0.05,0.17s0.08,0.05,0.14,0.05c0.03,0,0.05,0,0.08-0.01
				c0.03-0.01,0.05-0.02,0.08-0.04l0.04,0.05c-0.03,0.02-0.06,0.04-0.09,0.05c-0.03,0.01-0.07,0.02-0.11,0.02
				c-0.08,0-0.14-0.02-0.19-0.07c-0.05-0.05-0.07-0.12-0.07-0.22c0-0.09,0.02-0.16,0.07-0.21c0.05-0.06,0.11-0.08,0.19-0.08
				c0.07,0,0.13,0.02,0.17,0.07c0.04,0.05,0.06,0.11,0.06,0.2V4.53z M48.35,4.47c0-0.06-0.02-0.1-0.04-0.14
				c-0.03-0.03-0.06-0.05-0.11-0.05c-0.05,0-0.09,0.02-0.12,0.05s-0.05,0.08-0.06,0.14H48.35z"/>
			<path class="st1" d="M48.95,4.7c-0.02,0.04-0.05,0.06-0.08,0.08c-0.03,0.02-0.07,0.03-0.12,0.03c-0.07,0-0.13-0.03-0.17-0.08
				s-0.06-0.12-0.06-0.21c0-0.09,0.02-0.17,0.07-0.22c0.05-0.06,0.11-0.08,0.19-0.08c0.04,0,0.08,0.01,0.1,0.02
				c0.03,0.02,0.05,0.04,0.07,0.07h0V3.96h0.07V4.8h-0.07L48.95,4.7L48.95,4.7z M48.59,4.52c0,0.07,0.02,0.13,0.05,0.17
				c0.03,0.04,0.07,0.06,0.13,0.06c0.06,0,0.1-0.02,0.14-0.06c0.03-0.04,0.05-0.09,0.05-0.14V4.46c0-0.05-0.02-0.09-0.05-0.12
				c-0.03-0.03-0.07-0.05-0.12-0.05c-0.06,0-0.1,0.02-0.14,0.06C48.61,4.39,48.59,4.45,48.59,4.52z"/>
			<path class="st1" d="M49.6,4.8h-0.07V4.7h0c-0.02,0.04-0.04,0.06-0.08,0.08c-0.03,0.02-0.07,0.03-0.11,0.03
				c-0.05,0-0.1-0.02-0.13-0.05c-0.03-0.03-0.05-0.07-0.05-0.12s0.02-0.09,0.05-0.12c0.03-0.03,0.08-0.05,0.15-0.06l0.16-0.02V4.43
				c0-0.05-0.01-0.09-0.04-0.11c-0.02-0.02-0.05-0.04-0.09-0.04c-0.03,0-0.06,0.01-0.09,0.02c-0.03,0.01-0.05,0.03-0.08,0.05
				l-0.04-0.04c0.03-0.03,0.06-0.05,0.1-0.06c0.03-0.01,0.07-0.02,0.11-0.02c0.07,0,0.11,0.02,0.15,0.05
				c0.03,0.04,0.05,0.09,0.05,0.16V4.8z M49.53,4.56V4.5l-0.15,0.02c-0.05,0.01-0.09,0.02-0.11,0.04c-0.02,0.02-0.03,0.04-0.03,0.08
				c0,0.03,0.01,0.06,0.03,0.08c0.02,0.02,0.05,0.03,0.08,0.03c0.05,0,0.09-0.02,0.13-0.05C49.51,4.66,49.53,4.61,49.53,4.56z"/>
			<path class="st1" d="M50.16,4.7c-0.02,0.04-0.05,0.06-0.08,0.08c-0.03,0.02-0.07,0.03-0.12,0.03c-0.07,0-0.13-0.03-0.17-0.08
				s-0.06-0.12-0.06-0.21c0-0.09,0.02-0.17,0.07-0.22c0.05-0.06,0.11-0.08,0.19-0.08c0.04,0,0.08,0.01,0.1,0.02
				c0.03,0.02,0.05,0.04,0.07,0.07h0V3.96h0.07V4.8h-0.07L50.16,4.7L50.16,4.7z M49.8,4.52c0,0.07,0.02,0.13,0.05,0.17
				c0.03,0.04,0.07,0.06,0.13,0.06c0.06,0,0.1-0.02,0.14-0.06c0.03-0.04,0.05-0.09,0.05-0.14V4.46c0-0.05-0.02-0.09-0.05-0.12
				C50.09,4.3,50.05,4.28,50,4.28c-0.06,0-0.1,0.02-0.14,0.06C49.82,4.39,49.8,4.45,49.8,4.52z"/>
			<path class="st1" d="M51.16,4.23l-0.28,0.69c-0.02,0.04-0.04,0.07-0.07,0.1s-0.06,0.04-0.1,0.04c-0.01,0-0.02,0-0.03,0
				c-0.01,0-0.02,0-0.03,0l0.02-0.06c0.01,0,0.01,0,0.02,0c0.01,0,0.01,0,0.02,0c0.02,0,0.04-0.01,0.06-0.02
				c0.02-0.01,0.03-0.03,0.04-0.06l0.05-0.13l-0.22-0.56h0.08l0.16,0.45c0,0.01,0,0.01,0.01,0.02s0,0.01,0.01,0.02h0
				c0-0.01,0-0.01,0-0.02c0-0.01,0-0.01,0.01-0.02l0.17-0.45H51.16z"/>
			<path class="st1" d="M52.34,4.8h-0.07V4.25c0-0.01,0-0.03,0-0.05c0-0.02,0-0.05,0-0.08h0c0,0.02-0.01,0.03-0.01,0.04
				c0,0.01-0.01,0.02-0.01,0.03L51.97,4.8h-0.03l-0.28-0.6c0-0.01-0.01-0.02-0.01-0.03c0-0.01-0.01-0.03-0.01-0.04h0
				c0,0.02,0,0.04,0,0.06c0,0.02,0,0.05,0,0.07V4.8h-0.07V4.01h0.09l0.27,0.59c0.01,0.01,0.01,0.03,0.02,0.04s0.01,0.03,0.01,0.04h0
				c0.01-0.02,0.01-0.03,0.02-0.05c0-0.01,0.01-0.03,0.01-0.04l0.27-0.59h0.08V4.8z"/>
			<path class="st1" d="M52.76,4.81c-0.08,0-0.15-0.03-0.2-0.08c-0.05-0.05-0.07-0.12-0.07-0.21c0-0.09,0.03-0.17,0.08-0.22
				c0.05-0.05,0.12-0.08,0.2-0.08c0.08,0,0.15,0.03,0.19,0.08s0.07,0.12,0.07,0.22c0,0.09-0.02,0.16-0.07,0.21
				C52.92,4.78,52.85,4.81,52.76,4.81z M52.77,4.75c0.06,0,0.11-0.02,0.15-0.06c0.03-0.04,0.05-0.1,0.05-0.17
				c0-0.08-0.02-0.13-0.05-0.17c-0.03-0.04-0.08-0.06-0.14-0.06c-0.06,0-0.11,0.02-0.15,0.06c-0.04,0.04-0.05,0.1-0.05,0.17
				c0,0.07,0.02,0.13,0.05,0.17C52.66,4.73,52.71,4.75,52.77,4.75z"/>
			<path class="st1" d="M53.57,4.7c-0.02,0.04-0.05,0.06-0.08,0.08c-0.03,0.02-0.07,0.03-0.12,0.03c-0.07,0-0.13-0.03-0.17-0.08
				s-0.06-0.12-0.06-0.21c0-0.09,0.02-0.17,0.07-0.22c0.05-0.06,0.11-0.08,0.19-0.08c0.04,0,0.08,0.01,0.1,0.02
				c0.03,0.02,0.05,0.04,0.07,0.07h0V3.96h0.07V4.8h-0.07L53.57,4.7L53.57,4.7z M53.21,4.52c0,0.07,0.02,0.13,0.05,0.17
				c0.03,0.04,0.08,0.06,0.13,0.06c0.06,0,0.1-0.02,0.14-0.06c0.03-0.04,0.05-0.09,0.05-0.14V4.46c0-0.05-0.02-0.09-0.05-0.12
				C53.5,4.3,53.45,4.28,53.4,4.28c-0.06,0-0.1,0.02-0.14,0.06S53.21,4.45,53.21,4.52z"/>
			<path class="st1" d="M54.22,4.8h-0.07V4.7h0c-0.02,0.04-0.04,0.06-0.08,0.08C54.04,4.8,54,4.81,53.96,4.81
				c-0.05,0-0.1-0.02-0.13-0.05c-0.03-0.03-0.05-0.07-0.05-0.12s0.02-0.09,0.05-0.12c0.03-0.03,0.08-0.05,0.15-0.06l0.16-0.02V4.43
				c0-0.05-0.01-0.09-0.04-0.11c-0.02-0.02-0.05-0.04-0.09-0.04c-0.03,0-0.06,0.01-0.09,0.02c-0.03,0.01-0.05,0.03-0.08,0.05
				l-0.04-0.04c0.03-0.03,0.06-0.05,0.1-0.06c0.03-0.01,0.07-0.02,0.11-0.02c0.07,0,0.12,0.02,0.15,0.05
				c0.03,0.04,0.05,0.09,0.05,0.16V4.8z M54.15,4.56V4.5L54,4.52c-0.05,0.01-0.09,0.02-0.11,0.04c-0.02,0.02-0.03,0.04-0.03,0.08
				c0,0.03,0.01,0.06,0.03,0.08c0.02,0.02,0.05,0.03,0.08,0.03c0.05,0,0.09-0.02,0.13-0.05C54.13,4.66,54.15,4.61,54.15,4.56z"/>
		</g>
	</g>
	<g>
		<g>
			<path class="st3" d="M14.24,21.9c-0.04,0.02-0.09,0.04-0.13,0.04c-0.04,0.01-0.09,0.01-0.14,0.01c-0.13,0-0.24-0.04-0.31-0.11
				c-0.08-0.07-0.11-0.18-0.11-0.32c0-0.13,0.04-0.24,0.12-0.32s0.19-0.13,0.33-0.13c0.05,0,0.09,0,0.12,0.01
				c0.04,0.01,0.07,0.02,0.11,0.03l-0.06,0.15c-0.03-0.01-0.06-0.02-0.08-0.03c-0.03,0-0.06-0.01-0.09-0.01
				c-0.07,0-0.13,0.03-0.18,0.08c-0.05,0.05-0.08,0.12-0.08,0.2c0,0.09,0.02,0.16,0.07,0.21c0.05,0.05,0.11,0.07,0.19,0.07
				c0.02,0,0.05,0,0.08-0.01c0.03-0.01,0.06-0.02,0.1-0.03L14.24,21.9z"/>
			<path class="st3" d="M14.45,21.24c-0.03,0-0.06-0.01-0.08-0.03c-0.02-0.02-0.03-0.04-0.03-0.07c0-0.03,0.01-0.05,0.03-0.07
				c0.02-0.02,0.05-0.03,0.08-0.03c0.03,0,0.06,0.01,0.08,0.03s0.03,0.04,0.03,0.07s-0.01,0.05-0.03,0.07
				C14.51,21.23,14.48,21.24,14.45,21.24z M14.54,21.94h-0.18v-0.62h0.18V21.94z"/>
			<path class="st3" d="M15.22,21.9c-0.03,0.02-0.06,0.03-0.1,0.04s-0.07,0.01-0.11,0.01c-0.1,0-0.18-0.03-0.24-0.09
				s-0.09-0.13-0.09-0.22c0-0.11,0.03-0.19,0.09-0.25c0.06-0.06,0.14-0.09,0.25-0.09c0.04,0,0.07,0,0.1,0.01
				c0.03,0.01,0.06,0.02,0.09,0.04l-0.07,0.12c-0.02-0.01-0.04-0.02-0.05-0.02s-0.04-0.01-0.06-0.01c-0.05,0-0.09,0.02-0.12,0.05
				c-0.03,0.03-0.04,0.08-0.04,0.14c0,0.06,0.02,0.1,0.05,0.13s0.07,0.05,0.12,0.05c0.01,0,0.03,0,0.05-0.01s0.04-0.01,0.06-0.03
				L15.22,21.9z"/>
			<path class="st3" d="M15.33,21.94v-0.9h0.18v0.9H15.33z"/>
			<path class="st3" d="M15.97,21.96c-0.1,0-0.18-0.03-0.24-0.09c-0.06-0.06-0.09-0.14-0.09-0.24c0-0.1,0.03-0.18,0.09-0.24
				s0.14-0.09,0.25-0.09c0.1,0,0.18,0.03,0.24,0.09c0.06,0.06,0.09,0.13,0.09,0.23c0,0.1-0.03,0.18-0.09,0.24
				C16.16,21.92,16.08,21.96,15.97,21.96z M15.98,21.82c0.05,0,0.08-0.02,0.11-0.05c0.02-0.03,0.04-0.08,0.04-0.14
				c0-0.06-0.01-0.11-0.04-0.14s-0.06-0.05-0.11-0.05c-0.05,0-0.08,0.02-0.11,0.05c-0.03,0.03-0.04,0.08-0.04,0.14
				c0,0.06,0.01,0.11,0.04,0.14S15.93,21.82,15.98,21.82z"/>
			<path class="st3" d="M16.8,21.94v-0.85h0.3c0.09,0,0.17,0.02,0.22,0.05c0.05,0.04,0.08,0.09,0.08,0.15
				c0,0.04-0.01,0.08-0.04,0.12s-0.06,0.06-0.1,0.07v0c0.05,0.01,0.1,0.03,0.13,0.06c0.03,0.04,0.05,0.08,0.05,0.13
				c0,0.08-0.03,0.14-0.08,0.18c-0.06,0.05-0.13,0.07-0.23,0.07H16.8z M16.98,21.23v0.21h0.09c0.04,0,0.07-0.01,0.1-0.03
				s0.04-0.05,0.04-0.08s-0.01-0.06-0.04-0.08c-0.02-0.02-0.06-0.03-0.11-0.03H16.98z M16.98,21.58v0.22h0.11
				c0.05,0,0.08-0.01,0.11-0.03c0.03-0.02,0.04-0.05,0.04-0.09c0-0.03-0.01-0.06-0.04-0.08c-0.03-0.02-0.06-0.03-0.11-0.03H16.98z"
				/>
			<path class="st3" d="M18.07,21.94H17.9v-0.09h0c-0.02,0.04-0.05,0.06-0.08,0.08s-0.07,0.03-0.11,0.03c-0.06,0-0.1-0.02-0.14-0.05
				c-0.04-0.03-0.06-0.08-0.06-0.14c0-0.06,0.02-0.11,0.06-0.14c0.04-0.04,0.1-0.06,0.18-0.07l0.15-0.02v-0.01
				c0-0.03-0.01-0.06-0.03-0.07c-0.02-0.02-0.05-0.02-0.08-0.02c-0.03,0-0.05,0-0.08,0.01s-0.06,0.02-0.09,0.04l-0.06-0.11
				c0.04-0.02,0.08-0.04,0.12-0.06c0.04-0.01,0.09-0.02,0.14-0.02c0.09,0,0.16,0.02,0.2,0.07c0.04,0.04,0.06,0.11,0.06,0.2V21.94z
				 M17.81,21.22h-0.13l0.15-0.19H18L17.81,21.22z M17.9,21.69v-0.04l-0.12,0.01c-0.03,0-0.06,0.01-0.07,0.03
				c-0.02,0.01-0.02,0.03-0.02,0.06c0,0.02,0.01,0.04,0.02,0.06c0.02,0.01,0.04,0.02,0.06,0.02c0.04,0,0.07-0.01,0.09-0.04
				S17.9,21.73,17.9,21.69z"/>
			<path class="st3" d="M18.18,21.89l0.08-0.12c0.02,0.02,0.05,0.03,0.07,0.04c0.03,0.01,0.06,0.02,0.09,0.02
				c0.03,0,0.05,0,0.06-0.01s0.02-0.02,0.02-0.04c0-0.02-0.01-0.03-0.02-0.04c-0.01-0.01-0.04-0.02-0.07-0.03
				c-0.08-0.02-0.13-0.04-0.17-0.07c-0.03-0.03-0.05-0.07-0.05-0.12c0-0.06,0.02-0.11,0.07-0.15c0.05-0.04,0.11-0.06,0.18-0.06
				c0.04,0,0.07,0,0.11,0.01c0.03,0.01,0.06,0.02,0.09,0.04l-0.07,0.12c-0.03-0.02-0.05-0.03-0.07-0.04
				c-0.02-0.01-0.04-0.01-0.07-0.01c-0.03,0-0.05,0-0.06,0.02c-0.02,0.01-0.02,0.02-0.02,0.04c0,0.02,0.01,0.03,0.02,0.04
				c0.02,0.01,0.04,0.02,0.08,0.03c0.07,0.01,0.12,0.04,0.15,0.07s0.05,0.07,0.05,0.12c0,0.06-0.02,0.11-0.07,0.15
				s-0.11,0.06-0.19,0.06c-0.04,0-0.08,0-0.12-0.02S18.21,21.91,18.18,21.89z"/>
			<path class="st3" d="M18.88,21.24c-0.03,0-0.06-0.01-0.08-0.03c-0.02-0.02-0.03-0.04-0.03-0.07c0-0.03,0.01-0.05,0.03-0.07
				c0.02-0.02,0.05-0.03,0.08-0.03c0.03,0,0.06,0.01,0.08,0.03s0.03,0.04,0.03,0.07s-0.01,0.05-0.03,0.07
				C18.94,21.23,18.91,21.24,18.88,21.24z M18.97,21.94h-0.18v-0.62h0.18V21.94z"/>
			<path class="st3" d="M19.64,21.9c-0.03,0.02-0.06,0.03-0.1,0.04s-0.07,0.01-0.11,0.01c-0.1,0-0.18-0.03-0.24-0.09
				s-0.09-0.13-0.09-0.22c0-0.11,0.03-0.19,0.09-0.25c0.06-0.06,0.14-0.09,0.25-0.09c0.04,0,0.07,0,0.1,0.01
				c0.03,0.01,0.06,0.02,0.09,0.04l-0.07,0.12c-0.02-0.01-0.04-0.02-0.05-0.02s-0.04-0.01-0.06-0.01c-0.05,0-0.09,0.02-0.12,0.05
				c-0.03,0.03-0.04,0.08-0.04,0.14c0,0.06,0.02,0.1,0.05,0.13s0.07,0.05,0.12,0.05c0.01,0,0.03,0,0.05-0.01s0.04-0.01,0.06-0.03
				L19.64,21.9z"/>
			<path class="st3" d="M20.05,21.96c-0.1,0-0.18-0.03-0.24-0.09c-0.06-0.06-0.09-0.14-0.09-0.24c0-0.1,0.03-0.18,0.09-0.24
				s0.14-0.09,0.25-0.09c0.1,0,0.18,0.03,0.24,0.09c0.06,0.06,0.09,0.13,0.09,0.23c0,0.1-0.03,0.18-0.09,0.24
				C20.24,21.92,20.15,21.96,20.05,21.96z M20.06,21.82c0.05,0,0.08-0.02,0.11-0.05c0.02-0.03,0.04-0.08,0.04-0.14
				c0-0.06-0.01-0.11-0.04-0.14s-0.06-0.05-0.11-0.05c-0.05,0-0.08,0.02-0.11,0.05c-0.03,0.03-0.04,0.08-0.04,0.14
				c0,0.06,0.01,0.11,0.04,0.14S20.01,21.82,20.06,21.82z"/>
			<path class="st3" d="M15.79,23.15H15.6V22.3h0.18V23.15z"/>
			<path class="st3" d="M16.82,23.15h-0.17v-0.09h0c-0.02,0.04-0.05,0.06-0.08,0.08s-0.07,0.03-0.11,0.03
				c-0.06,0-0.1-0.02-0.14-0.05c-0.04-0.03-0.06-0.08-0.06-0.14c0-0.06,0.02-0.11,0.06-0.14c0.04-0.04,0.1-0.06,0.18-0.07l0.15-0.02
				v-0.01c0-0.03-0.01-0.06-0.03-0.07c-0.02-0.02-0.05-0.02-0.08-0.02c-0.03,0-0.05,0-0.08,0.01s-0.06,0.02-0.09,0.04l-0.06-0.11
				c0.04-0.02,0.08-0.04,0.12-0.06c0.04-0.01,0.09-0.02,0.14-0.02c0.09,0,0.16,0.02,0.2,0.07c0.04,0.04,0.06,0.11,0.06,0.2V23.15z
				 M16.65,22.9v-0.04l-0.12,0.01c-0.03,0-0.06,0.01-0.07,0.03c-0.02,0.01-0.02,0.03-0.02,0.06c0,0.02,0.01,0.04,0.02,0.06
				c0.02,0.01,0.04,0.02,0.06,0.02c0.04,0,0.07-0.01,0.09-0.04S16.65,22.94,16.65,22.9z"/>
			<path class="st3" d="M17.52,23.15h-0.18V22.3h0.18V23.15z"/>
			<path class="st3" d="M18.43,22.3l-0.29,0.85h-0.21l-0.29-0.85h0.2l0.18,0.6c0,0.02,0.01,0.03,0.01,0.04c0,0.01,0,0.03,0.01,0.04
				h0c0-0.01,0-0.03,0.01-0.04c0-0.01,0.01-0.03,0.01-0.04l0.18-0.59H18.43z"/>
		</g>
	</g>
	<g>
		<g>
			<path class="st3" d="M45.36,21.9c-0.04,0.02-0.09,0.04-0.13,0.04c-0.04,0.01-0.09,0.01-0.14,0.01c-0.13,0-0.23-0.04-0.31-0.11
				c-0.08-0.07-0.11-0.18-0.11-0.32c0-0.13,0.04-0.24,0.12-0.32c0.08-0.08,0.19-0.13,0.33-0.13c0.05,0,0.09,0,0.12,0.01
				c0.04,0.01,0.07,0.02,0.11,0.03l-0.06,0.15c-0.03-0.01-0.06-0.02-0.08-0.03s-0.06-0.01-0.09-0.01c-0.07,0-0.13,0.03-0.18,0.07
				c-0.05,0.05-0.08,0.12-0.08,0.2c0,0.09,0.02,0.15,0.07,0.2c0.04,0.05,0.11,0.07,0.18,0.07c0.02,0,0.05,0,0.08-0.01
				s0.06-0.02,0.09-0.04L45.36,21.9z"/>
			<path class="st3" d="M45.57,21.24c-0.03,0-0.06-0.01-0.08-0.03c-0.02-0.02-0.03-0.04-0.03-0.07c0-0.03,0.01-0.05,0.03-0.07
				c0.02-0.02,0.05-0.03,0.08-0.03s0.06,0.01,0.08,0.03c0.02,0.02,0.03,0.04,0.03,0.07s-0.01,0.05-0.03,0.07
				C45.63,21.23,45.6,21.24,45.57,21.24z M45.66,21.94h-0.18v-0.62h0.18V21.94z"/>
			<path class="st3" d="M46.33,21.9c-0.03,0.02-0.06,0.03-0.1,0.04s-0.07,0.01-0.11,0.01c-0.1,0-0.18-0.03-0.24-0.09
				c-0.06-0.06-0.09-0.13-0.09-0.22c0-0.1,0.03-0.19,0.09-0.25c0.06-0.06,0.14-0.09,0.25-0.09c0.04,0,0.07,0,0.1,0.01
				s0.06,0.02,0.09,0.04l-0.07,0.12c-0.02-0.01-0.04-0.02-0.05-0.02c-0.02,0-0.04-0.01-0.06-0.01c-0.05,0-0.09,0.02-0.12,0.05
				c-0.03,0.03-0.04,0.08-0.04,0.14c0,0.06,0.02,0.1,0.05,0.13c0.03,0.03,0.07,0.05,0.12,0.05c0.01,0,0.03,0,0.05-0.01
				c0.02-0.01,0.04-0.02,0.06-0.03L46.33,21.9z"/>
			<path class="st3" d="M46.44,21.94v-0.89h0.18v0.89H46.44z"/>
			<path class="st3" d="M47.08,21.96c-0.1,0-0.18-0.03-0.24-0.09c-0.06-0.06-0.09-0.14-0.09-0.23c0-0.1,0.03-0.18,0.09-0.24
				c0.06-0.06,0.14-0.09,0.25-0.09c0.1,0,0.18,0.03,0.24,0.09s0.09,0.13,0.09,0.23c0,0.1-0.03,0.18-0.09,0.24
				C47.27,21.93,47.19,21.96,47.08,21.96z M47.09,21.82c0.05,0,0.08-0.02,0.11-0.05c0.02-0.03,0.04-0.08,0.04-0.14
				c0-0.06-0.01-0.1-0.04-0.13c-0.02-0.03-0.06-0.05-0.11-0.05c-0.05,0-0.08,0.02-0.11,0.05s-0.04,0.08-0.04,0.14
				c0,0.06,0.01,0.11,0.04,0.14C47,21.8,47.04,21.82,47.09,21.82z"/>
			<path class="st3" d="M48.41,21.94h-0.5V21.1h0.48v0.15h-0.3v0.19h0.28v0.15h-0.28v0.2h0.32V21.94z"/>
			<path class="st3" d="M48.48,21.89l0.08-0.12c0.02,0.02,0.05,0.03,0.07,0.04c0.03,0.01,0.06,0.02,0.09,0.02
				c0.03,0,0.05,0,0.06-0.01c0.02-0.01,0.02-0.02,0.02-0.04c0-0.02-0.01-0.03-0.02-0.04c-0.01-0.01-0.04-0.02-0.07-0.03
				c-0.08-0.02-0.13-0.04-0.17-0.07c-0.03-0.03-0.05-0.07-0.05-0.12c0-0.06,0.02-0.11,0.07-0.15s0.11-0.05,0.18-0.05
				c0.04,0,0.07,0,0.11,0.01s0.06,0.02,0.09,0.04l-0.07,0.12c-0.02-0.02-0.05-0.03-0.07-0.03c-0.02-0.01-0.04-0.01-0.07-0.01
				c-0.03,0-0.05,0-0.06,0.02c-0.02,0.01-0.02,0.02-0.02,0.04c0,0.02,0.01,0.03,0.02,0.04c0.01,0.01,0.04,0.02,0.08,0.03
				c0.07,0.02,0.12,0.04,0.15,0.07s0.05,0.07,0.05,0.12c0,0.06-0.02,0.11-0.07,0.15c-0.05,0.04-0.11,0.06-0.19,0.06
				c-0.04,0-0.08,0-0.12-0.02C48.55,21.93,48.52,21.91,48.48,21.89z"/>
			<path class="st3" d="M49.27,21.87L49.27,21.87l0,0.35h-0.18v-0.9h0.18v0.09h0c0.02-0.04,0.05-0.06,0.09-0.08
				c0.03-0.02,0.07-0.03,0.11-0.03c0.08,0,0.14,0.03,0.19,0.08c0.04,0.05,0.07,0.13,0.07,0.22c0,0.1-0.03,0.19-0.08,0.25
				c-0.05,0.06-0.12,0.09-0.2,0.09c-0.04,0-0.07-0.01-0.1-0.02C49.32,21.92,49.29,21.9,49.27,21.87z M49.27,21.61v0.05
				c0,0.04,0.01,0.08,0.04,0.11s0.05,0.04,0.09,0.04c0.05,0,0.08-0.02,0.11-0.05c0.03-0.04,0.04-0.08,0.04-0.15
				c0-0.06-0.01-0.1-0.03-0.13c-0.02-0.03-0.06-0.04-0.1-0.04c-0.04,0-0.08,0.02-0.1,0.05S49.27,21.56,49.27,21.61z"/>
			<path class="st3" d="M50.41,21.68H50c0,0.05,0.02,0.08,0.05,0.11c0.03,0.02,0.07,0.04,0.12,0.04c0.02,0,0.04,0,0.07-0.02
				c0.03-0.01,0.06-0.03,0.09-0.05l0.08,0.1c-0.04,0.03-0.08,0.05-0.13,0.07s-0.09,0.02-0.14,0.02c-0.1,0-0.18-0.03-0.23-0.08
				c-0.05-0.06-0.08-0.13-0.08-0.23c0-0.1,0.03-0.18,0.09-0.24c0.06-0.06,0.13-0.09,0.22-0.09c0.09,0,0.15,0.03,0.2,0.08
				c0.05,0.05,0.08,0.13,0.08,0.22V21.68z M50.24,21.57c0-0.05-0.01-0.08-0.03-0.11c-0.02-0.02-0.05-0.03-0.08-0.03
				c-0.03,0-0.06,0.01-0.08,0.04c-0.02,0.02-0.04,0.06-0.04,0.1H50.24z"/>
			<path class="st3" d="M51.03,21.9c-0.03,0.02-0.06,0.03-0.1,0.04c-0.03,0.01-0.07,0.01-0.11,0.01c-0.1,0-0.18-0.03-0.24-0.09
				c-0.06-0.06-0.09-0.13-0.09-0.22c0-0.1,0.03-0.19,0.09-0.25c0.06-0.06,0.14-0.09,0.25-0.09c0.04,0,0.07,0,0.1,0.01
				s0.06,0.02,0.09,0.04l-0.07,0.12c-0.02-0.01-0.04-0.02-0.05-0.02c-0.02,0-0.04-0.01-0.06-0.01c-0.05,0-0.09,0.02-0.12,0.05
				c-0.03,0.03-0.04,0.08-0.04,0.14c0,0.06,0.01,0.1,0.04,0.13c0.03,0.03,0.07,0.05,0.12,0.05c0.01,0,0.03,0,0.05-0.01
				c0.02-0.01,0.04-0.02,0.06-0.03L51.03,21.9z"/>
			<path class="st3" d="M51.23,21.24c-0.03,0-0.06-0.01-0.08-0.03c-0.02-0.02-0.03-0.04-0.03-0.07c0-0.03,0.01-0.05,0.03-0.07
				s0.04-0.03,0.08-0.03c0.03,0,0.06,0.01,0.08,0.03c0.02,0.02,0.03,0.04,0.03,0.07s-0.01,0.05-0.03,0.07
				C51.29,21.23,51.26,21.24,51.23,21.24z M51.32,21.94h-0.18v-0.62h0.18V21.94z"/>
			<path class="st3" d="M52,21.94h-0.17v-0.09h0c-0.02,0.04-0.05,0.06-0.08,0.08c-0.03,0.02-0.07,0.03-0.11,0.03
				c-0.05,0-0.1-0.02-0.14-0.05c-0.04-0.03-0.06-0.08-0.06-0.14c0-0.06,0.02-0.1,0.06-0.14c0.04-0.04,0.1-0.06,0.17-0.07l0.15-0.02
				v-0.01c0-0.03-0.01-0.06-0.03-0.07c-0.02-0.02-0.05-0.02-0.08-0.02c-0.03,0-0.05,0-0.08,0.01c-0.03,0.01-0.06,0.02-0.09,0.04
				l-0.06-0.11c0.04-0.02,0.08-0.04,0.12-0.05c0.04-0.01,0.09-0.02,0.13-0.02c0.09,0,0.16,0.02,0.2,0.06
				c0.04,0.04,0.07,0.11,0.07,0.2V21.94z M51.83,21.69v-0.04l-0.12,0.01c-0.03,0-0.06,0.01-0.07,0.03
				c-0.02,0.01-0.02,0.03-0.02,0.06c0,0.02,0.01,0.04,0.02,0.06s0.04,0.02,0.06,0.02c0.04,0,0.07-0.01,0.09-0.04
				C51.82,21.76,51.83,21.73,51.83,21.69z"/>
			<path class="st3" d="M52.17,21.94v-0.89h0.18v0.89H52.17z"/>
			<path class="st3" d="M52.61,21.24c-0.03,0-0.06-0.01-0.08-0.03c-0.02-0.02-0.03-0.04-0.03-0.07c0-0.03,0.01-0.05,0.03-0.07
				s0.04-0.03,0.08-0.03c0.03,0,0.06,0.01,0.08,0.03c0.02,0.02,0.03,0.04,0.03,0.07s-0.01,0.05-0.03,0.07
				C52.67,21.23,52.64,21.24,52.61,21.24z M52.7,21.94h-0.18v-0.62h0.18V21.94z"/>
			<path class="st3" d="M53.36,21.41l-0.3,0.4h0.3v0.13h-0.55v-0.07l0.32-0.41h-0.29v-0.13h0.52V21.41z"/>
			<path class="st3" d="M53.98,21.94h-0.17v-0.09h0c-0.02,0.04-0.05,0.06-0.08,0.08c-0.03,0.02-0.07,0.03-0.11,0.03
				c-0.05,0-0.1-0.02-0.14-0.05c-0.04-0.03-0.06-0.08-0.06-0.14c0-0.06,0.02-0.1,0.06-0.14c0.04-0.04,0.1-0.06,0.17-0.07l0.15-0.02
				v-0.01c0-0.03-0.01-0.06-0.03-0.07c-0.02-0.02-0.05-0.02-0.08-0.02c-0.03,0-0.05,0-0.08,0.01c-0.03,0.01-0.06,0.02-0.09,0.04
				l-0.06-0.11c0.04-0.02,0.08-0.04,0.12-0.05c0.04-0.01,0.09-0.02,0.13-0.02c0.09,0,0.16,0.02,0.2,0.06
				c0.04,0.04,0.07,0.11,0.07,0.2V21.94z M53.81,21.69v-0.04l-0.12,0.01c-0.03,0-0.06,0.01-0.07,0.03
				c-0.02,0.01-0.02,0.03-0.02,0.06c0,0.02,0.01,0.04,0.02,0.06s0.04,0.02,0.06,0.02c0.04,0,0.07-0.01,0.09-0.04
				C53.8,21.76,53.81,21.73,53.81,21.69z"/>
			<path class="st3" d="M54.56,21.85c-0.02,0.03-0.05,0.06-0.08,0.08s-0.07,0.03-0.11,0.03c-0.08,0-0.14-0.03-0.19-0.08
				c-0.05-0.06-0.07-0.13-0.07-0.23c0-0.1,0.03-0.18,0.08-0.25c0.05-0.06,0.12-0.09,0.2-0.09c0.04,0,0.07,0.01,0.1,0.02
				s0.05,0.04,0.07,0.07h0v-0.35h0.18v0.89h-0.18L54.56,21.85L54.56,21.85z M54.29,21.64c0,0.06,0.01,0.1,0.04,0.13
				c0.02,0.03,0.06,0.05,0.1,0.05c0.04,0,0.07-0.02,0.1-0.05s0.04-0.07,0.04-0.13v-0.05c0-0.04-0.01-0.08-0.04-0.1
				s-0.06-0.04-0.09-0.04c-0.04,0-0.08,0.02-0.1,0.05C54.3,21.53,54.29,21.58,54.29,21.64z"/>
			<path class="st3" d="M55.2,21.96c-0.1,0-0.18-0.03-0.24-0.09c-0.06-0.06-0.09-0.14-0.09-0.23c0-0.1,0.03-0.18,0.09-0.24
				s0.14-0.09,0.25-0.09c0.1,0,0.18,0.03,0.24,0.09s0.09,0.13,0.09,0.23c0,0.1-0.03,0.18-0.09,0.24
				C55.39,21.93,55.31,21.96,55.2,21.96z M55.21,21.82c0.05,0,0.08-0.02,0.11-0.05c0.02-0.03,0.04-0.08,0.04-0.14
				c0-0.06-0.01-0.1-0.04-0.13c-0.02-0.03-0.06-0.05-0.11-0.05c-0.05,0-0.08,0.02-0.11,0.05s-0.04,0.08-0.04,0.14
				c0,0.06,0.01,0.11,0.04,0.14C55.12,21.8,55.16,21.82,55.21,21.82z"/>
			<path class="st3" d="M48.84,22.3l-0.29,0.84h-0.21l-0.29-0.84h0.2l0.18,0.59c0,0.02,0.01,0.03,0.01,0.04c0,0.01,0,0.03,0.01,0.04
				h0c0-0.01,0-0.03,0.01-0.04c0-0.01,0.01-0.03,0.01-0.04l0.18-0.59H48.84z"/>
			<path class="st3" d="M49.78,23.15h-0.17v-0.09h0c-0.02,0.04-0.05,0.06-0.08,0.08c-0.03,0.02-0.07,0.03-0.11,0.03
				c-0.06,0-0.1-0.02-0.14-0.05s-0.06-0.08-0.06-0.14c0-0.06,0.02-0.1,0.06-0.14c0.04-0.04,0.1-0.06,0.17-0.07l0.15-0.02v-0.01
				c0-0.03-0.01-0.06-0.03-0.07c-0.02-0.02-0.05-0.02-0.08-0.02c-0.03,0-0.05,0-0.08,0.01c-0.03,0.01-0.06,0.02-0.09,0.04
				l-0.06-0.11c0.04-0.02,0.08-0.04,0.12-0.05c0.04-0.01,0.09-0.02,0.13-0.02c0.09,0,0.16,0.02,0.2,0.06
				c0.04,0.04,0.06,0.11,0.06,0.2V23.15z M49.61,22.89v-0.04l-0.12,0.01c-0.03,0-0.06,0.01-0.07,0.03s-0.02,0.03-0.02,0.06
				c0,0.02,0.01,0.04,0.02,0.06s0.04,0.02,0.06,0.02c0.04,0,0.07-0.01,0.09-0.04C49.6,22.97,49.61,22.93,49.61,22.89z"/>
			<path class="st3" d="M50.99,22.3l-0.29,0.84h-0.21L50.2,22.3h0.2l0.18,0.59c0,0.02,0.01,0.03,0.01,0.04c0,0.01,0,0.03,0.01,0.04
				h0c0-0.01,0-0.03,0.01-0.04c0-0.01,0.01-0.03,0.01-0.04l0.18-0.59H50.99z"/>
			<path class="st3" d="M51.29,23.15H51.1V22.3h0.18V23.15z"/>
			<path class="st3" d="M51.68,23.15h-0.18V22.3h0.18V23.15z"/>
			<path class="st3" d="M52.07,23.15h-0.18V22.3h0.18V23.15z"/>
		</g>
	</g>
	<g>
		<g>
			<path class="st3" d="M78.8,21.9c-0.04,0.02-0.09,0.04-0.13,0.04c-0.04,0.01-0.09,0.01-0.14,0.01c-0.13,0-0.24-0.04-0.31-0.11
				c-0.08-0.07-0.11-0.18-0.11-0.32c0-0.13,0.04-0.24,0.12-0.32c0.08-0.08,0.19-0.13,0.33-0.13c0.05,0,0.09,0,0.12,0.01
				c0.04,0.01,0.07,0.02,0.11,0.03l-0.06,0.15c-0.03-0.01-0.06-0.02-0.08-0.03c-0.03,0-0.06-0.01-0.09-0.01
				c-0.07,0-0.13,0.03-0.18,0.08c-0.05,0.05-0.08,0.12-0.08,0.2c0,0.09,0.02,0.16,0.07,0.21c0.04,0.05,0.11,0.07,0.19,0.07
				c0.02,0,0.05,0,0.08-0.01c0.03-0.01,0.06-0.02,0.09-0.03L78.8,21.9z"/>
			<path class="st3" d="M79.01,21.24c-0.03,0-0.06-0.01-0.08-0.03c-0.02-0.02-0.03-0.04-0.03-0.07c0-0.03,0.01-0.05,0.03-0.07
				c0.02-0.02,0.04-0.03,0.08-0.03c0.03,0,0.06,0.01,0.08,0.03c0.02,0.02,0.03,0.04,0.03,0.07s-0.01,0.05-0.03,0.07
				C79.07,21.23,79.04,21.24,79.01,21.24z M79.1,21.94h-0.18v-0.62h0.18V21.94z"/>
			<path class="st3" d="M79.78,21.9c-0.03,0.02-0.06,0.03-0.1,0.04c-0.03,0.01-0.07,0.01-0.11,0.01c-0.1,0-0.18-0.03-0.24-0.09
				c-0.06-0.06-0.09-0.13-0.09-0.22c0-0.11,0.03-0.19,0.09-0.25c0.06-0.06,0.14-0.09,0.25-0.09c0.04,0,0.07,0,0.1,0.01
				c0.03,0.01,0.06,0.02,0.09,0.04l-0.07,0.12c-0.02-0.01-0.04-0.02-0.05-0.02c-0.02,0-0.04-0.01-0.06-0.01
				c-0.05,0-0.09,0.02-0.12,0.05c-0.03,0.03-0.04,0.08-0.04,0.14c0,0.06,0.02,0.1,0.05,0.13c0.03,0.03,0.07,0.05,0.12,0.05
				c0.01,0,0.03,0,0.05-0.01s0.04-0.01,0.06-0.03L79.78,21.9z"/>
			<path class="st3" d="M79.89,21.94v-0.9h0.18v0.9H79.89z"/>
			<path class="st3" d="M80.53,21.96c-0.1,0-0.18-0.03-0.24-0.09c-0.06-0.06-0.09-0.14-0.09-0.24c0-0.1,0.03-0.18,0.09-0.24
				s0.14-0.09,0.25-0.09c0.1,0,0.18,0.03,0.24,0.09c0.06,0.06,0.09,0.13,0.09,0.23c0,0.1-0.03,0.18-0.09,0.24
				C80.72,21.92,80.64,21.96,80.53,21.96z M80.54,21.82c0.05,0,0.08-0.02,0.11-0.05s0.04-0.08,0.04-0.14c0-0.06-0.01-0.11-0.04-0.14
				s-0.06-0.05-0.11-0.05c-0.05,0-0.08,0.02-0.11,0.05c-0.03,0.03-0.04,0.08-0.04,0.14c0,0.06,0.01,0.11,0.04,0.14
				S80.49,21.82,80.54,21.82z"/>
			<path class="st3" d="M81.54,21.66v0.28h-0.18v-0.85h0.29c0.11,0,0.19,0.02,0.24,0.07s0.08,0.12,0.08,0.21
				c0,0.09-0.03,0.16-0.09,0.21s-0.14,0.08-0.24,0.08H81.54z M81.54,21.23v0.28h0.08c0.05,0,0.09-0.01,0.12-0.04
				c0.03-0.02,0.04-0.06,0.04-0.11c0-0.05-0.01-0.08-0.04-0.11c-0.03-0.02-0.07-0.04-0.12-0.04H81.54z"/>
			<path class="st3" d="M82.47,21.47c-0.01,0-0.02,0-0.02,0c-0.01,0-0.02,0-0.03,0c-0.05,0-0.09,0.02-0.11,0.05
				s-0.04,0.08-0.04,0.13v0.3h-0.18v-0.62h0.18v0.12h0c0.01-0.04,0.04-0.07,0.06-0.09c0.03-0.02,0.06-0.03,0.1-0.03
				c0.01,0,0.02,0,0.03,0c0.01,0,0.02,0,0.03,0L82.47,21.47z"/>
			<path class="st3" d="M82.88,21.96c-0.1,0-0.18-0.03-0.24-0.09c-0.06-0.06-0.09-0.14-0.09-0.24c0-0.1,0.03-0.18,0.09-0.24
				s0.14-0.09,0.25-0.09c0.1,0,0.18,0.03,0.24,0.09s0.09,0.13,0.09,0.23c0,0.1-0.03,0.18-0.09,0.24
				C83.07,21.92,82.98,21.96,82.88,21.96z M82.89,21.82c0.05,0,0.08-0.02,0.11-0.05c0.02-0.03,0.04-0.08,0.04-0.14
				c0-0.06-0.01-0.11-0.04-0.14s-0.06-0.05-0.11-0.05c-0.05,0-0.08,0.02-0.11,0.05c-0.03,0.03-0.04,0.08-0.04,0.14
				c0,0.06,0.01,0.11,0.04,0.14S82.84,21.82,82.89,21.82z"/>
			<path class="st3" d="M83.73,21.18c-0.01-0.01-0.02-0.01-0.03-0.01c-0.01,0-0.02,0-0.03,0c-0.03,0-0.05,0.01-0.06,0.02
				c-0.01,0.02-0.02,0.04-0.02,0.07v0.07h0.14v0.13h-0.14v0.49H83.4v-0.49h-0.1v-0.13h0.1v-0.08c0-0.07,0.02-0.12,0.07-0.16
				s0.1-0.06,0.17-0.06c0.03,0,0.05,0,0.07,0s0.04,0.01,0.06,0.01L83.73,21.18z"/>
			<path class="st3" d="M84.38,21.68h-0.41c0,0.05,0.02,0.08,0.05,0.11c0.03,0.02,0.07,0.04,0.12,0.04c0.02,0,0.04,0,0.07-0.02
				s0.06-0.03,0.09-0.05l0.08,0.11c-0.04,0.03-0.09,0.05-0.13,0.07c-0.04,0.01-0.09,0.02-0.15,0.02c-0.1,0-0.18-0.03-0.23-0.08
				s-0.08-0.13-0.08-0.23s0.03-0.18,0.09-0.24c0.06-0.06,0.13-0.09,0.22-0.09c0.09,0,0.15,0.03,0.21,0.08s0.08,0.13,0.08,0.22V21.68
				z M84.21,21.57c0-0.05-0.01-0.08-0.03-0.11c-0.02-0.02-0.05-0.03-0.08-0.03c-0.03,0-0.06,0.01-0.08,0.04s-0.04,0.06-0.04,0.1
				H84.21z"/>
			<path class="st3" d="M84.45,21.89l0.08-0.12c0.02,0.02,0.05,0.03,0.07,0.04c0.03,0.01,0.06,0.02,0.09,0.02
				c0.03,0,0.05,0,0.06-0.01s0.03-0.02,0.03-0.04c0-0.02-0.01-0.03-0.02-0.04c-0.01-0.01-0.04-0.02-0.07-0.03
				c-0.08-0.02-0.13-0.04-0.17-0.07c-0.03-0.03-0.05-0.07-0.05-0.12c0-0.06,0.02-0.11,0.07-0.15s0.11-0.06,0.18-0.06
				c0.04,0,0.07,0,0.11,0.01s0.06,0.02,0.09,0.04l-0.07,0.12c-0.03-0.02-0.05-0.03-0.07-0.04c-0.02-0.01-0.04-0.01-0.07-0.01
				c-0.03,0-0.05,0-0.06,0.02c-0.02,0.01-0.02,0.02-0.02,0.04c0,0.02,0.01,0.03,0.02,0.04c0.02,0.01,0.04,0.02,0.08,0.03
				c0.07,0.01,0.12,0.04,0.15,0.07s0.05,0.07,0.05,0.12c0,0.06-0.02,0.11-0.07,0.15c-0.05,0.04-0.11,0.06-0.19,0.06
				c-0.04,0-0.08,0-0.12-0.02C84.53,21.93,84.49,21.91,84.45,21.89z"/>
			<path class="st3" d="M85.16,21.24c-0.03,0-0.06-0.01-0.08-0.03c-0.02-0.02-0.03-0.04-0.03-0.07c0-0.03,0.01-0.05,0.03-0.07
				s0.05-0.03,0.08-0.03s0.06,0.01,0.08,0.03c0.02,0.02,0.03,0.04,0.03,0.07s-0.01,0.05-0.03,0.07
				C85.21,21.23,85.19,21.24,85.16,21.24z M85.24,21.94h-0.18v-0.62h0.18V21.94z"/>
			<path class="st3" d="M85.72,21.96c-0.1,0-0.18-0.03-0.24-0.09c-0.06-0.06-0.09-0.14-0.09-0.24c0-0.1,0.03-0.18,0.09-0.24
				s0.14-0.09,0.25-0.09c0.1,0,0.18,0.03,0.24,0.09c0.06,0.06,0.09,0.13,0.09,0.23c0,0.1-0.03,0.18-0.09,0.24
				C85.9,21.92,85.82,21.96,85.72,21.96z M85.72,21.82c0.05,0,0.08-0.02,0.11-0.05s0.04-0.08,0.04-0.14c0-0.06-0.01-0.11-0.04-0.14
				s-0.06-0.05-0.11-0.05c-0.05,0-0.08,0.02-0.11,0.05c-0.03,0.03-0.04,0.08-0.04,0.14c0,0.06,0.01,0.11,0.04,0.14
				S85.67,21.82,85.72,21.82z"/>
			<path class="st3" d="M86.78,21.94H86.6v-0.35c0-0.05-0.01-0.09-0.03-0.11c-0.02-0.02-0.04-0.04-0.08-0.04s-0.06,0.01-0.09,0.04
				c-0.02,0.03-0.03,0.06-0.03,0.1v0.35h-0.18v-0.62h0.18v0.1h0c0.02-0.04,0.05-0.07,0.08-0.09s0.07-0.03,0.12-0.03
				c0.07,0,0.12,0.02,0.16,0.06c0.03,0.04,0.05,0.11,0.05,0.19V21.94z"/>
			<path class="st3" d="M87.45,21.94h-0.17v-0.09h0c-0.02,0.04-0.05,0.06-0.08,0.08s-0.07,0.03-0.11,0.03
				c-0.06,0-0.1-0.02-0.14-0.05c-0.04-0.03-0.06-0.08-0.06-0.14c0-0.06,0.02-0.11,0.06-0.14c0.04-0.04,0.1-0.06,0.18-0.07l0.15-0.02
				v-0.01c0-0.03-0.01-0.06-0.03-0.07c-0.02-0.02-0.05-0.02-0.08-0.02c-0.03,0-0.05,0-0.08,0.01c-0.03,0.01-0.06,0.02-0.09,0.04
				l-0.06-0.11c0.04-0.02,0.08-0.04,0.12-0.06c0.04-0.01,0.09-0.02,0.14-0.02c0.09,0,0.16,0.02,0.2,0.07
				c0.04,0.04,0.06,0.11,0.06,0.2V21.94z M87.28,21.69v-0.04l-0.12,0.01c-0.03,0-0.06,0.01-0.07,0.03
				c-0.02,0.01-0.02,0.03-0.02,0.06c0,0.02,0.01,0.04,0.02,0.06s0.04,0.02,0.06,0.02c0.04,0,0.07-0.01,0.09-0.04
				C87.27,21.76,87.28,21.73,87.28,21.69z"/>
			<path class="st3" d="M87.61,21.94v-0.9h0.18v0.9H87.61z"/>
			<path class="st3" d="M81.59,23.15h-0.18V22.3h0.18V23.15z"/>
			<path class="st3" d="M82.48,23.15h-0.22l-0.15-0.28c0,0-0.01-0.01-0.01-0.02c0-0.01-0.01-0.02-0.01-0.03h0
				c0,0.01,0,0.01-0.01,0.02c0,0.01-0.01,0.02-0.01,0.03l-0.15,0.28h-0.22l0.27-0.42l-0.25-0.42h0.23l0.12,0.26
				c0,0.01,0.01,0.02,0.01,0.03c0,0.01,0.01,0.03,0.01,0.04h0c0-0.01,0.01-0.02,0.01-0.03c0-0.01,0.01-0.03,0.02-0.04l0.14-0.26
				h0.21l-0.25,0.42L82.48,23.15z"/>
			<path class="st3" d="M83.42,23.15h-0.17v-0.09h0c-0.02,0.04-0.05,0.06-0.08,0.08s-0.07,0.03-0.11,0.03
				c-0.05,0-0.1-0.02-0.14-0.05s-0.06-0.08-0.06-0.14c0-0.06,0.02-0.11,0.06-0.14c0.04-0.04,0.1-0.06,0.18-0.07l0.15-0.02v-0.01
				c0-0.03-0.01-0.06-0.03-0.07c-0.02-0.02-0.05-0.02-0.08-0.02c-0.03,0-0.05,0-0.08,0.01c-0.03,0.01-0.06,0.02-0.09,0.04
				l-0.06-0.11c0.04-0.02,0.08-0.04,0.12-0.06c0.04-0.01,0.09-0.02,0.13-0.02c0.09,0,0.16,0.02,0.2,0.07
				c0.04,0.04,0.07,0.11,0.07,0.2V23.15z M83.25,22.9v-0.04l-0.12,0.01c-0.03,0-0.06,0.01-0.07,0.03s-0.02,0.03-0.02,0.06
				c0,0.02,0.01,0.04,0.02,0.06c0.02,0.01,0.04,0.02,0.06,0.02c0.04,0,0.07-0.01,0.09-0.04C83.24,22.97,83.25,22.94,83.25,22.9z"/>
			<path class="st3" d="M84.62,23.15h-0.22l-0.15-0.28c0,0-0.01-0.01-0.01-0.02c0-0.01-0.01-0.02-0.01-0.03h0
				c0,0.01,0,0.01-0.01,0.02c0,0.01-0.01,0.02-0.01,0.03l-0.15,0.28h-0.22l0.27-0.42l-0.25-0.42h0.23l0.12,0.26
				c0,0.01,0.01,0.02,0.01,0.03c0,0.01,0.01,0.03,0.01,0.04h0c0-0.01,0.01-0.02,0.01-0.03c0-0.01,0.01-0.03,0.02-0.04l0.14-0.26
				h0.21l-0.25,0.42L84.62,23.15z"/>
		</g>
	</g>
	<g>
		<g>
			<path class="st1" d="M47.59,15.66v0.3h-0.07v-0.79h0.2c0.08,0,0.15,0.02,0.19,0.06s0.07,0.1,0.07,0.17
				c0,0.08-0.02,0.14-0.07,0.19s-0.12,0.07-0.2,0.07H47.59z M47.59,15.24v0.36h0.1c0.07,0,0.12-0.02,0.15-0.05s0.05-0.08,0.05-0.14
				c0-0.06-0.02-0.1-0.05-0.13c-0.03-0.03-0.08-0.04-0.15-0.04H47.59z"/>
			<path class="st1" d="M48.39,15.46c-0.01,0-0.02,0-0.02-0.01c-0.01,0-0.01,0-0.02,0c-0.05,0-0.08,0.02-0.11,0.06
				c-0.03,0.04-0.04,0.1-0.04,0.17v0.28h-0.07V15.4h0.07v0.12h0c0.01-0.04,0.03-0.07,0.06-0.09c0.03-0.02,0.06-0.03,0.1-0.03
				c0.01,0,0.02,0,0.03,0c0.01,0,0.02,0,0.02,0L48.39,15.46z"/>
			<path class="st1" d="M48.74,15.97c-0.08,0-0.15-0.03-0.2-0.08c-0.05-0.05-0.07-0.12-0.07-0.21c0-0.09,0.03-0.17,0.08-0.22
				c0.05-0.05,0.12-0.08,0.2-0.08c0.08,0,0.15,0.03,0.19,0.08s0.07,0.12,0.07,0.22c0,0.09-0.02,0.16-0.07,0.21
				C48.89,15.94,48.82,15.97,48.74,15.97z M48.74,15.91c0.06,0,0.11-0.02,0.15-0.06c0.03-0.04,0.05-0.1,0.05-0.17
				c0-0.08-0.02-0.13-0.05-0.17c-0.03-0.04-0.08-0.06-0.14-0.06c-0.06,0-0.11,0.02-0.15,0.06s-0.06,0.1-0.06,0.17
				c0,0.07,0.02,0.13,0.05,0.17C48.63,15.89,48.68,15.91,48.74,15.91z"/>
			<path class="st1" d="M49.58,15.4l-0.28,0.69c-0.02,0.04-0.04,0.07-0.07,0.1s-0.06,0.04-0.1,0.04c-0.01,0-0.02,0-0.03,0
				c-0.01,0-0.02,0-0.03,0l0.02-0.06c0.01,0,0.01,0,0.02,0s0.01,0,0.02,0c0.02,0,0.04-0.01,0.06-0.02c0.02-0.01,0.03-0.03,0.04-0.06
				l0.05-0.13l-0.22-0.56h0.08l0.16,0.44c0,0.01,0,0.01,0.01,0.02s0,0.01,0.01,0.02h0c0,0,0-0.01,0-0.02c0-0.01,0-0.01,0.01-0.02
				l0.17-0.45H49.58z"/>
			<path class="st1" d="M50.12,15.69h-0.41c0,0.07,0.02,0.13,0.05,0.17c0.04,0.04,0.08,0.05,0.14,0.05c0.03,0,0.05,0,0.08-0.01
				c0.03-0.01,0.05-0.02,0.08-0.04l0.04,0.05c-0.03,0.02-0.06,0.04-0.09,0.05c-0.03,0.01-0.07,0.02-0.11,0.02
				c-0.08,0-0.14-0.02-0.19-0.07c-0.05-0.05-0.07-0.12-0.07-0.22c0-0.09,0.02-0.16,0.07-0.21c0.05-0.06,0.11-0.08,0.19-0.08
				c0.07,0,0.13,0.02,0.17,0.07c0.04,0.05,0.06,0.11,0.06,0.2V15.69z M50.05,15.63c0-0.06-0.02-0.1-0.04-0.14
				c-0.03-0.03-0.06-0.05-0.11-0.05c-0.05,0-0.09,0.02-0.12,0.05s-0.05,0.08-0.06,0.14H50.05z"/>
			<path class="st1" d="M50.64,15.93c-0.03,0.02-0.05,0.03-0.08,0.03c-0.03,0.01-0.05,0.01-0.08,0.01c-0.08,0-0.14-0.03-0.19-0.08
				s-0.07-0.12-0.07-0.21c0-0.09,0.03-0.16,0.08-0.22c0.05-0.06,0.12-0.08,0.21-0.08c0.03,0,0.05,0,0.07,0.01
				c0.02,0.01,0.05,0.02,0.07,0.03l-0.03,0.05c-0.02-0.01-0.04-0.02-0.06-0.02c-0.02,0-0.04-0.01-0.06-0.01
				c-0.06,0-0.12,0.02-0.15,0.07s-0.06,0.1-0.06,0.17c0,0.07,0.02,0.13,0.05,0.17c0.04,0.04,0.08,0.06,0.14,0.06
				c0.02,0,0.04,0,0.06-0.01s0.04-0.01,0.06-0.03L50.64,15.93z"/>
			<path class="st1" d="M51.01,15.95c-0.01,0.01-0.03,0.01-0.04,0.02c-0.01,0-0.03,0-0.05,0c-0.04,0-0.07-0.01-0.09-0.04
				s-0.03-0.06-0.03-0.11v-0.37h-0.1V15.4h0.1v-0.14l0.07-0.02v0.17h0.15v0.06h-0.15v0.36c0,0.03,0.01,0.06,0.02,0.07
				c0.01,0.01,0.03,0.02,0.05,0.02c0.01,0,0.02,0,0.03,0s0.02-0.01,0.03-0.01L51.01,15.95z"/>
			<path class="st1" d="M51.36,15.97c-0.08,0-0.15-0.03-0.2-0.08c-0.05-0.05-0.07-0.12-0.07-0.21c0-0.09,0.03-0.17,0.08-0.22
				c0.05-0.05,0.12-0.08,0.2-0.08c0.08,0,0.15,0.03,0.19,0.08s0.07,0.12,0.07,0.22c0,0.09-0.03,0.16-0.07,0.21
				C51.51,15.94,51.44,15.97,51.36,15.97z M51.36,15.91c0.06,0,0.11-0.02,0.15-0.06c0.03-0.04,0.05-0.1,0.05-0.17
				c0-0.08-0.02-0.13-0.05-0.17s-0.08-0.06-0.14-0.06c-0.06,0-0.11,0.02-0.15,0.06c-0.04,0.04-0.06,0.1-0.06,0.17
				c0,0.07,0.02,0.13,0.05,0.17C51.25,15.89,51.3,15.91,51.36,15.91z"/>
			<path class="st1" d="M52.66,15.17l-0.3,0.79h-0.07L52,15.17h0.08l0.22,0.63c0,0.01,0.01,0.02,0.01,0.04
				c0,0.01,0.01,0.02,0.01,0.04h0c0-0.01,0-0.02,0.01-0.03c0-0.01,0.01-0.03,0.01-0.04l0.23-0.63H52.66z"/>
		</g>
	</g>
	<line class="st4" x1="9.48" y1="19.34" x2="90.52" y2="19.34"/>
	<path class="st5" d="M58.07,6.21c0,0.51-0.42,0.93-0.93,0.93H43.07c-0.51,0-0.93-0.42-0.93-0.93"/>
	<path class="st6" d="M58.07,17.35c0,0.51-0.42,0.93-0.93,0.93H43.07c-0.51,0-0.93-0.42-0.93-0.93"/>
	<path class="st6" d="M90.52,17.59c0,0.51-0.42,0.93-0.93,0.93H75.52c-0.51,0-0.93-0.42-0.93-0.93"/>
	<line class="st7" x1="50.1" y1="18.6" x2="50.1" y2="20.29"/>
	<line class="st7" x1="82.55" y1="18.77" x2="82.55" y2="20.47"/>
	<line class="st7" x1="16.97" y1="18.77" x2="16.97" y2="20.47"/>
	<path class="st0" d="M57.19,12.64H43.02c-0.49,0-0.88-0.39-0.88-0.88V8.58c0-0.49,0.39-0.88,0.88-0.88h14.16
		c0.49,0,0.88,0.39,0.88,0.88v3.17C58.07,12.24,57.67,12.64,57.19,12.64z"/>
	<g>
		<g>
			<path class="st1" d="M46.97,9.87l0.04-0.05c0.03,0.02,0.06,0.04,0.09,0.05c0.03,0.01,0.07,0.02,0.11,0.02
				c0.05,0,0.09-0.01,0.12-0.04c0.03-0.03,0.05-0.06,0.05-0.11c0-0.04-0.01-0.07-0.04-0.1c-0.03-0.02-0.07-0.05-0.13-0.07
				c-0.07-0.03-0.13-0.06-0.16-0.09C47.02,9.44,47,9.4,47,9.34c0-0.06,0.02-0.12,0.07-0.15c0.04-0.04,0.1-0.06,0.17-0.06
				c0.03,0,0.06,0,0.1,0.01c0.03,0.01,0.06,0.02,0.1,0.04L47.4,9.24c-0.03-0.02-0.05-0.03-0.08-0.03C47.3,9.2,47.27,9.2,47.24,9.2
				c-0.05,0-0.09,0.01-0.12,0.04s-0.04,0.06-0.04,0.1c0,0.04,0.01,0.07,0.04,0.09c0.03,0.02,0.07,0.05,0.13,0.07
				c0.07,0.03,0.13,0.06,0.16,0.09c0.03,0.03,0.05,0.08,0.05,0.14c0,0.07-0.02,0.12-0.07,0.16c-0.04,0.04-0.11,0.06-0.18,0.06
				c-0.05,0-0.09-0.01-0.12-0.02C47.05,9.92,47.01,9.9,46.97,9.87z"/>
			<path class="st1" d="M48.04,9.66h-0.41c0,0.08,0.02,0.13,0.05,0.17s0.08,0.05,0.14,0.05c0.03,0,0.05,0,0.08-0.01
				c0.03-0.01,0.05-0.02,0.08-0.04l0.04,0.05c-0.03,0.02-0.06,0.04-0.09,0.05c-0.03,0.01-0.07,0.02-0.11,0.02
				c-0.08,0-0.14-0.02-0.19-0.07c-0.05-0.05-0.07-0.12-0.07-0.22c0-0.09,0.02-0.16,0.07-0.21c0.05-0.06,0.11-0.08,0.19-0.08
				c0.07,0,0.13,0.02,0.17,0.07c0.04,0.05,0.06,0.11,0.06,0.2V9.66z M47.97,9.6c0-0.06-0.02-0.1-0.04-0.14
				c-0.03-0.03-0.06-0.05-0.11-0.05c-0.05,0-0.09,0.02-0.12,0.05s-0.05,0.08-0.06,0.14H47.97z"/>
			<path class="st1" d="M48.96,9.93h-0.07V9.6c0-0.07-0.01-0.11-0.03-0.14c-0.02-0.03-0.05-0.04-0.1-0.04
				c-0.04,0-0.08,0.02-0.11,0.05c-0.03,0.04-0.04,0.08-0.04,0.14v0.33h-0.07V9.6c0-0.06-0.01-0.1-0.03-0.13
				c-0.02-0.03-0.06-0.04-0.1-0.04c-0.04,0-0.08,0.02-0.11,0.05s-0.04,0.08-0.04,0.14v0.32h-0.07V9.37h0.07v0.09h0
				c0.02-0.04,0.04-0.06,0.07-0.08c0.03-0.02,0.06-0.03,0.1-0.03c0.04,0,0.07,0.01,0.1,0.03c0.03,0.02,0.05,0.05,0.06,0.09
				c0.02-0.04,0.04-0.07,0.08-0.09c0.03-0.02,0.07-0.03,0.11-0.03c0.06,0,0.11,0.02,0.14,0.06c0.03,0.04,0.05,0.1,0.05,0.17V9.93z"
				/>
			<path class="st1" d="M49.16,9.23c-0.02,0-0.03,0-0.04-0.02c-0.01-0.01-0.02-0.02-0.02-0.04c0-0.02,0.01-0.03,0.02-0.04
				c0.01-0.01,0.02-0.02,0.04-0.02c0.02,0,0.03,0,0.04,0.02c0.01,0.01,0.02,0.02,0.02,0.04c0,0.02-0.01,0.03-0.02,0.04
				C49.19,9.23,49.18,9.23,49.16,9.23z M49.2,9.93h-0.07V9.37h0.07V9.93z"/>
			<path class="st1" d="M49.83,9.93h-0.07V9.61c0-0.06-0.01-0.11-0.03-0.14c-0.02-0.03-0.06-0.05-0.1-0.05
				c-0.05,0-0.09,0.02-0.12,0.06c-0.03,0.04-0.05,0.08-0.05,0.14v0.32h-0.07V9.37h0.07v0.1h0c0.02-0.04,0.05-0.07,0.08-0.08
				c0.03-0.02,0.07-0.03,0.11-0.03c0.06,0,0.11,0.02,0.14,0.06c0.03,0.04,0.05,0.1,0.05,0.17V9.93z"/>
			<path class="st1" d="M50.39,9.93h-0.07v-0.1h0c-0.02,0.04-0.04,0.06-0.08,0.08c-0.03,0.02-0.07,0.03-0.11,0.03
				c-0.05,0-0.1-0.02-0.13-0.05c-0.03-0.03-0.05-0.07-0.05-0.12s0.02-0.09,0.05-0.12c0.03-0.03,0.08-0.05,0.15-0.06l0.16-0.02V9.57
				c0-0.05-0.01-0.09-0.04-0.11c-0.02-0.02-0.05-0.04-0.09-0.04c-0.03,0-0.06,0.01-0.09,0.02c-0.03,0.01-0.05,0.03-0.08,0.05
				l-0.04-0.04c0.03-0.03,0.06-0.05,0.1-0.06c0.03-0.01,0.07-0.02,0.11-0.02c0.07,0,0.11,0.02,0.15,0.05
				c0.03,0.04,0.05,0.09,0.05,0.16V9.93z M50.32,9.7V9.64l-0.15,0.02c-0.05,0.01-0.09,0.02-0.11,0.04
				c-0.02,0.02-0.03,0.04-0.03,0.08c0,0.03,0.01,0.06,0.03,0.08c0.02,0.02,0.05,0.03,0.08,0.03c0.05,0,0.09-0.02,0.13-0.05
				C50.3,9.8,50.32,9.75,50.32,9.7z"/>
			<path class="st1" d="M50.83,9.43c-0.01,0-0.02,0-0.02-0.01c-0.01,0-0.01,0-0.02,0c-0.05,0-0.08,0.02-0.11,0.06
				c-0.03,0.04-0.04,0.1-0.04,0.17v0.28h-0.07V9.37h0.07v0.12h0c0.01-0.04,0.03-0.07,0.06-0.09c0.03-0.02,0.06-0.03,0.1-0.03
				c0.01,0,0.02,0,0.03,0s0.02,0,0.02,0L50.83,9.43z"/>
			<path class="st1" d="M50.98,9.23c-0.01,0-0.03,0-0.04-0.02c-0.01-0.01-0.02-0.02-0.02-0.04c0-0.02,0-0.03,0.02-0.04
				c0.01-0.01,0.02-0.02,0.04-0.02c0.02,0,0.03,0,0.04,0.02s0.02,0.02,0.02,0.04c0,0.02-0.01,0.03-0.02,0.04
				C51,9.23,50.99,9.23,50.98,9.23z M51.01,9.93h-0.07V9.37h0.07V9.93z"/>
			<path class="st1" d="M51.42,9.95c-0.08,0-0.15-0.03-0.2-0.08s-0.07-0.12-0.07-0.21c0-0.09,0.03-0.17,0.08-0.22
				c0.05-0.05,0.12-0.08,0.2-0.08c0.08,0,0.15,0.03,0.19,0.08s0.07,0.12,0.07,0.22c0,0.09-0.02,0.16-0.07,0.21
				S51.51,9.95,51.42,9.95z M51.43,9.89c0.06,0,0.11-0.02,0.15-0.06c0.03-0.04,0.05-0.1,0.05-0.17c0-0.08-0.02-0.13-0.05-0.17
				s-0.08-0.06-0.14-0.06s-0.11,0.02-0.15,0.06c-0.04,0.04-0.05,0.1-0.05,0.17c0,0.07,0.02,0.13,0.05,0.17
				C51.32,9.87,51.37,9.89,51.43,9.89z"/>
			<path class="st1" d="M52.54,9.84c-0.02,0.04-0.05,0.06-0.08,0.08c-0.03,0.02-0.07,0.03-0.12,0.03c-0.07,0-0.13-0.03-0.17-0.08
				s-0.06-0.12-0.06-0.21c0-0.09,0.02-0.17,0.07-0.22c0.05-0.06,0.11-0.08,0.19-0.08c0.04,0,0.08,0.01,0.1,0.02
				c0.03,0.02,0.05,0.04,0.07,0.07h0V9.1h0.07v0.83h-0.07L52.54,9.84L52.54,9.84z M52.18,9.66c0,0.07,0.02,0.13,0.05,0.17
				c0.03,0.04,0.08,0.06,0.13,0.06c0.06,0,0.1-0.02,0.14-0.06c0.03-0.04,0.05-0.09,0.05-0.14V9.59c0-0.05-0.02-0.09-0.05-0.12
				c-0.03-0.03-0.07-0.05-0.12-0.05c-0.06,0-0.1,0.02-0.14,0.06S52.18,9.59,52.18,9.66z"/>
			<path class="st1" d="M53.23,9.66h-0.41c0,0.08,0.02,0.13,0.05,0.17s0.08,0.05,0.14,0.05c0.03,0,0.05,0,0.08-0.01
				s0.05-0.02,0.08-0.04l0.04,0.05c-0.03,0.02-0.06,0.04-0.09,0.05c-0.03,0.01-0.07,0.02-0.11,0.02c-0.08,0-0.14-0.02-0.19-0.07
				c-0.05-0.05-0.07-0.12-0.07-0.22c0-0.09,0.02-0.16,0.07-0.21c0.05-0.06,0.11-0.08,0.18-0.08c0.07,0,0.13,0.02,0.17,0.07
				c0.04,0.05,0.06,0.11,0.06,0.2V9.66z M53.16,9.6c0-0.06-0.02-0.1-0.04-0.14c-0.03-0.03-0.06-0.05-0.11-0.05
				c-0.05,0-0.09,0.02-0.12,0.05s-0.05,0.08-0.06,0.14H53.16z"/>
			<path class="st1" d="M46.59,10.97H46.2v-0.79h0.07v0.72h0.32V10.97z"/>
			<path class="st1" d="M46.75,10.27c-0.02,0-0.03,0-0.04-0.02c-0.01-0.01-0.02-0.02-0.02-0.04c0-0.01,0.01-0.03,0.02-0.04
				c0.01-0.01,0.02-0.02,0.04-0.02c0.02,0,0.03,0,0.04,0.02c0.01,0.01,0.02,0.02,0.02,0.04c0,0.02-0.01,0.03-0.02,0.04
				C46.78,10.27,46.76,10.27,46.75,10.27z M46.78,10.97h-0.07v-0.56h0.07V10.97z"/>
			<path class="st1" d="M47.35,10.94c-0.03,0.02-0.05,0.03-0.08,0.04c-0.03,0.01-0.05,0.01-0.08,0.01c-0.08,0-0.14-0.03-0.19-0.08
				s-0.07-0.12-0.07-0.21c0-0.09,0.03-0.16,0.08-0.22c0.05-0.06,0.12-0.08,0.21-0.08c0.03,0,0.05,0,0.07,0.01s0.05,0.02,0.07,0.03
				l-0.03,0.05c-0.02-0.01-0.04-0.02-0.06-0.02c-0.02,0-0.04-0.01-0.06-0.01c-0.06,0-0.12,0.02-0.15,0.07S47,10.63,47,10.7
				c0,0.07,0.02,0.13,0.05,0.17c0.04,0.04,0.08,0.06,0.14,0.06c0.02,0,0.04,0,0.06-0.01c0.02-0.01,0.04-0.01,0.06-0.03L47.35,10.94z
				"/>
			<path class="st1" d="M47.91,10.7h-0.41c0,0.08,0.02,0.13,0.05,0.17s0.08,0.05,0.14,0.05c0.03,0,0.05,0,0.08-0.01
				c0.03-0.01,0.05-0.02,0.08-0.04l0.04,0.05c-0.03,0.02-0.06,0.04-0.09,0.05c-0.03,0.01-0.07,0.02-0.11,0.02
				c-0.08,0-0.14-0.02-0.19-0.07c-0.05-0.05-0.07-0.12-0.07-0.22c0-0.09,0.02-0.16,0.07-0.21c0.05-0.05,0.11-0.08,0.19-0.08
				c0.07,0,0.13,0.02,0.17,0.07c0.04,0.05,0.06,0.11,0.06,0.2V10.7z M47.84,10.64c0-0.06-0.02-0.1-0.04-0.14
				c-0.03-0.03-0.06-0.05-0.11-0.05c-0.05,0-0.09,0.02-0.12,0.05c-0.03,0.03-0.05,0.08-0.06,0.14H47.84z"/>
			<path class="st1" d="M48.5,10.97h-0.07v-0.32c0-0.06-0.01-0.11-0.03-0.14c-0.02-0.03-0.06-0.05-0.1-0.05
				c-0.05,0-0.09,0.02-0.12,0.05s-0.05,0.08-0.05,0.14v0.32h-0.07v-0.56h0.07v0.1h0c0.02-0.04,0.05-0.07,0.08-0.08
				c0.03-0.02,0.07-0.03,0.11-0.03c0.06,0,0.11,0.02,0.14,0.06c0.03,0.04,0.05,0.1,0.05,0.17V10.97z"/>
			<path class="st1" d="M49.05,10.94c-0.03,0.02-0.05,0.03-0.08,0.04c-0.03,0.01-0.05,0.01-0.08,0.01c-0.08,0-0.14-0.03-0.19-0.08
				s-0.07-0.12-0.07-0.21c0-0.09,0.03-0.16,0.08-0.22c0.05-0.06,0.12-0.08,0.21-0.08c0.03,0,0.05,0,0.07,0.01s0.05,0.02,0.07,0.03
				l-0.03,0.05c-0.02-0.01-0.04-0.02-0.06-0.02c-0.02,0-0.04-0.01-0.06-0.01c-0.06,0-0.12,0.02-0.15,0.07s-0.06,0.1-0.06,0.17
				c0,0.07,0.02,0.13,0.05,0.17c0.04,0.04,0.08,0.06,0.14,0.06c0.02,0,0.04,0,0.06-0.01c0.02-0.01,0.04-0.01,0.06-0.03L49.05,10.94z
				"/>
			<path class="st1" d="M49.21,10.27c-0.02,0-0.03,0-0.04-0.02c-0.01-0.01-0.02-0.02-0.02-0.04c0-0.01,0.01-0.03,0.02-0.04
				c0.01-0.01,0.02-0.02,0.04-0.02c0.02,0,0.03,0,0.04,0.02c0.01,0.01,0.02,0.02,0.02,0.04c0,0.02-0.01,0.03-0.02,0.04
				C49.24,10.27,49.23,10.27,49.21,10.27z M49.25,10.97h-0.07v-0.56h0.07V10.97z"/>
			<path class="st1" d="M49.82,10.97h-0.07v-0.1h0c-0.02,0.04-0.04,0.06-0.08,0.08s-0.07,0.03-0.11,0.03c-0.05,0-0.1-0.02-0.13-0.05
				c-0.03-0.03-0.05-0.07-0.05-0.12s0.02-0.09,0.05-0.12c0.03-0.03,0.08-0.05,0.15-0.06l0.16-0.02v-0.02c0-0.05-0.01-0.09-0.04-0.11
				s-0.05-0.04-0.09-0.04c-0.03,0-0.06,0-0.09,0.02c-0.03,0.01-0.05,0.03-0.08,0.05l-0.04-0.04c0.03-0.03,0.06-0.05,0.1-0.06
				c0.03-0.01,0.07-0.02,0.11-0.02c0.07,0,0.11,0.02,0.15,0.05c0.03,0.04,0.05,0.09,0.05,0.16V10.97z M49.75,10.73v-0.06l-0.15,0.02
				c-0.05,0.01-0.09,0.02-0.11,0.04s-0.03,0.04-0.03,0.08c0,0.03,0.01,0.06,0.03,0.08c0.02,0.02,0.05,0.03,0.08,0.03
				c0.05,0,0.09-0.02,0.13-0.05C49.74,10.84,49.75,10.79,49.75,10.73z"/>
			<path class="st1" d="M50.24,10.96c-0.01,0.01-0.03,0.01-0.04,0.01c-0.01,0-0.03,0.01-0.05,0.01c-0.04,0-0.07-0.01-0.09-0.04
				c-0.02-0.03-0.03-0.06-0.03-0.11v-0.37h-0.1v-0.06h0.1v-0.14l0.07-0.02v0.17h0.15v0.06h-0.15v0.36c0,0.03,0.01,0.06,0.02,0.07
				c0.01,0.02,0.03,0.02,0.05,0.02c0.01,0,0.02,0,0.03,0c0.01,0,0.02-0.01,0.03-0.01L50.24,10.96z"/>
			<path class="st1" d="M50.79,10.97h-0.07v-0.1h0c-0.02,0.04-0.04,0.06-0.07,0.08c-0.03,0.02-0.06,0.03-0.1,0.03
				c-0.07,0-0.12-0.02-0.15-0.06c-0.03-0.04-0.05-0.1-0.05-0.18v-0.33h0.07v0.32c0,0.07,0.01,0.12,0.04,0.15s0.06,0.05,0.11,0.05
				c0.05,0,0.09-0.02,0.12-0.05s0.05-0.08,0.05-0.14v-0.32h0.07V10.97z"/>
			<path class="st1" d="M51.24,10.47c-0.01,0-0.02-0.01-0.02-0.01s-0.01,0-0.02,0c-0.05,0-0.08,0.02-0.11,0.06
				c-0.03,0.04-0.04,0.1-0.04,0.17v0.28h-0.07v-0.56h0.07v0.12h0c0.01-0.04,0.03-0.07,0.06-0.09s0.06-0.03,0.1-0.03
				c0.01,0,0.02,0,0.03,0c0.01,0,0.02,0,0.02,0.01L51.24,10.47z"/>
			<path class="st1" d="M51.75,10.97h-0.07v-0.1h0c-0.02,0.04-0.04,0.06-0.07,0.08s-0.07,0.03-0.11,0.03c-0.05,0-0.1-0.02-0.13-0.05
				c-0.03-0.03-0.05-0.07-0.05-0.12s0.02-0.09,0.05-0.12c0.03-0.03,0.08-0.05,0.15-0.06l0.16-0.02v-0.02c0-0.05-0.01-0.09-0.04-0.11
				s-0.05-0.04-0.09-0.04c-0.03,0-0.06,0-0.09,0.02c-0.03,0.01-0.05,0.03-0.08,0.05l-0.04-0.04c0.03-0.03,0.06-0.05,0.1-0.06
				s0.07-0.02,0.12-0.02c0.06,0,0.11,0.02,0.15,0.05c0.03,0.04,0.05,0.09,0.05,0.16V10.97z M51.68,10.73v-0.06l-0.15,0.02
				c-0.05,0.01-0.09,0.02-0.11,0.04c-0.02,0.02-0.03,0.04-0.03,0.08c0,0.03,0.01,0.06,0.03,0.08c0.02,0.02,0.05,0.03,0.08,0.03
				c0.05,0,0.09-0.02,0.13-0.05C51.66,10.84,51.68,10.79,51.68,10.73z"/>
			<path class="st1" d="M52.31,10.97h-0.07v-0.79h0.07V10.97z"/>
			<path class="st1" d="M53.24,10.41l-0.28,0.69c-0.02,0.04-0.04,0.07-0.07,0.1c-0.03,0.03-0.06,0.04-0.1,0.04
				c-0.01,0-0.02,0-0.03,0c-0.01,0-0.02,0-0.03-0.01l0.01-0.06c0.01,0,0.01,0,0.02,0s0.01,0,0.02,0c0.02,0,0.04-0.01,0.06-0.02
				c0.02-0.01,0.03-0.03,0.04-0.06l0.05-0.13l-0.22-0.56h0.08l0.16,0.45c0,0.01,0,0.01,0.01,0.02c0,0.01,0,0.02,0.01,0.02h0
				c0-0.01,0-0.01,0-0.02c0-0.01,0-0.01,0.01-0.02l0.17-0.45H53.24z"/>
			<path class="st1" d="M53.73,10.97h-0.07v-0.79h0.07V10.97z"/>
			<path class="st1" d="M54.01,10.97h-0.07v-0.79h0.07V10.97z"/>
		</g>
	</g>
	<path class="st6" d="M58.07,11.85c0,0.51-0.42,0.93-0.93,0.93H43.07c-0.51,0-0.93-0.42-0.93-0.93"/>
</g>
</svg>
