<?xml version="1.0" encoding="UTF-8"?>
<svg id="Línea" xmlns="http://www.w3.org/2000/svg" viewBox="0 0 100 42.68">
  <defs>
    <style>
      .cls-1 {
        fill: #ffd3cc;
      }

      .cls-2 {
        font-size: 2px;
      }

      .cls-3 {
        font-size: 1px;
      }

      .cls-3, .cls-4 {
        font-family: ArialMT, Arial;
      }

      .cls-5, .cls-6 {
        fill: #ff5432;
      }

      .cls-7 {
        fill: #393f95;
      }

      .cls-8 {
        font-family: Arial-BoldMT, Arial;
        font-size: 1.5px;
        font-weight: 700;
      }

      .cls-9 {
        fill: #ffa300;
      }

      .cls-10 {
        fill: none;
      }

      .cls-10, .cls-6 {
        stroke: #1d1d1b;
        stroke-miterlimit: 10;
        stroke-width: .5px;
      }

      .cls-11 {
        fill: #ffe7b6;
      }

      .cls-12 {
        font-family: Arial-ItalicMT, Arial;
        font-style: italic;
      }

      .cls-13 {
        letter-spacing: -.11em;
      }

      .cls-14 {
        fill: #d1cfe8;
      }
    </style>
  </defs>
  <g>
    <rect class="cls-1" x="69.85" y="20.81" width="30.15" height="8.59"/>
    <rect class="cls-5" x="69.85" y="28.48" width="30.15" height="1.28"/>
  </g>
  <g>
    <rect class="cls-1" x="35.38" y="20.81" width="30.15" height="8.59"/>
    <rect class="cls-5" x="35.38" y="28.48" width="30.15" height="1.28"/>
  </g>
  <text class="cls-8" transform="translate(76.72 25.64)"><tspan x="0" y="0">Proyecto de Título I y II</tspan></text>
  <g>
    <g>
      <rect class="cls-14" x="40.8" y="39.27" width="2" height="1.92"/>
      <rect class="cls-7" x="40.8" y="40.99" width="2" height=".29"/>
    </g>
    <text class="cls-3" transform="translate(43.52 40.69) scale(1.1 1)"><tspan x="0" y="0">Mención visualidad y medios</tspan></text>
  </g>
  <g>
    <g>
      <rect class="cls-1" x="60.12" y="39.38" width="2" height="1.92"/>
      <rect class="cls-5" x="60.12" y="41.09" width="2" height=".29"/>
    </g>
    <text class="cls-3" transform="translate(62.84 40.68) scale(1.1 1)"><tspan x="0" y="0">Ambas menciones</tspan></text>
  </g>
  <g>
    <text class="cls-3" transform="translate(11.27 40.7) scale(1.1 1)"><tspan x="0" y="0">Electivo troncal</tspan></text>
    <text class="cls-8" transform="translate(8.64 40.89)"><tspan x="0" y="0">E</tspan><tspan class="cls-13" x="1" y="0">T</tspan><tspan x="1.75" y="0">.</tspan></text>
  </g>
  <g>
    <text class="cls-3" transform="translate(2.33 40.7) scale(1.1 1)"><tspan x="0" y="0">Electivo</tspan></text>
    <text class="cls-8" transform="translate(-.01 40.89)"><tspan x="0" y="0">E.</tspan></text>
  </g>
  <text class="cls-8" transform="translate(40.07 25.55)"><tspan x="0" y="0">E. Fundamentos fotográficos</tspan></text>
  <g>
    <rect class="cls-11" x="21.33" y="39.32" width="2" height="1.92"/>
    <rect class="cls-9" x="21.33" y="41.03" width="2" height=".29"/>
  </g>
  <text class="cls-3" transform="translate(24.01 40.71) scale(1.1 1)"><tspan x="0" y="0">Mención industrial y servicios</tspan></text>
  <g>
    <rect class="cls-14" x="35.38" y="11.03" width="30.05" height="8.59"/>
    <rect class="cls-7" x="35.38" y="18.7" width="30.05" height="1.28"/>
  </g>
  <text class="cls-8" transform="translate(40.85 14.95)"><tspan x="0" y="0">E. Lenguaje y composición </tspan><tspan x=".54" y="1.8">fotográfica para el diseño</tspan></text>
  <g>
    <line class="cls-10" x1="15.07" y1="32.43" x2="15.07" y2="29.63"/>
    <line class="cls-6" y1="29.76" x2="100" y2="29.76"/>
    <line class="cls-10" x1="50" y1="32.56" x2="50" y2="29.76"/>
    <line class="cls-10" x1="84.93" y1="32.56" x2="84.93" y2="29.76"/>
  </g>
  <text class="cls-2" transform="translate(10.28 34.98)"><tspan class="cls-4"><tspan x="0" y="0">Ciclo básico</tspan></tspan><tspan class="cls-12"><tspan x="3.06" y="2">I a IV</tspan></tspan></text>
  <text class="cls-2" transform="translate(41.37 34.89)"><tspan class="cls-4"><tspan x="0" y="0">Ciclo Especializado</tspan></tspan><tspan class="cls-12"><tspan x="5.39" y="2">V a VIII</tspan></tspan></text>
  <text class="cls-2" transform="translate(77.53 34.88)"><tspan class="cls-4"><tspan x="0" y="0">Ciclo profesional</tspan></tspan><tspan class="cls-12"><tspan x="4.67" y="2">IX a X</tspan></tspan></text>
  <g>
    <rect class="cls-14" x="35.38" y="1.25" width="30.05" height="8.59"/>
    <rect class="cls-7" x="35.38" y="8.93" width="30.05" height="1.28"/>
  </g>
  <text class="cls-8" transform="translate(46.32 5.91)"><tspan x="0" y="0">Proyecto IV</tspan></text>
</svg>