<?xml version="1.0" encoding="utf-8"?>
<!-- Generator: Adobe Illustrator 28.1.0, SVG Export Plug-In . SVG Version: 6.00 Build 0)  -->
<svg version="1.1" id="Layer_1" xmlns="http://www.w3.org/2000/svg" xmlns:xlink="http://www.w3.org/1999/xlink" x="0px" y="0px"
	 viewBox="0 0 100 20" style="enable-background:new 0 0 100 20;" xml:space="preserve">
<style type="text/css">
	.st0{fill:#FFDFBD;}
	.st1{fill:none;}
	.st2{font-family:'ArialMT';}
	.st3{font-size:1.5px;}
	.st4{fill:#F8971D;}
	.st5{fill:none;stroke:#000000;stroke-width:0.5;stroke-miterlimit:10;}
	.st6{font-size:0.8px;}
	.st7{font-size:1px;}
</style>
<rect x="72.39" y="8.02" class="st0" width="22.23" height="4.79"/>
<rect x="16.05" y="12.81" width="0.9" height="1.77"/>
<rect x="49.55" y="12.81" width="0.9" height="1.77"/>
<rect x="83.05" y="12.81" width="0.9" height="1.77"/>
<rect x="11.55" y="15.29" class="st1" width="9.89" height="4.54"/>
<text transform="matrix(1 0 0 1 12.8318 16.4124)" class="st2 st3">Ciclo Básico</text>
<text transform="matrix(1 0 0 1 15.0018 18.2123)" class="st2 st3">I a IV</text>
<rect x="33.36" y="15.73" class="st1" width="33.29" height="4.54"/>
<text transform="matrix(1 0 0 1 44.2435 16.8529)" class="st2 st3">Ciclo Especializado</text>
<text transform="matrix(1 0 0 1 47.8935 18.653)" class="st2 st3">V a VIII</text>
<rect x="68.19" y="15.73" class="st1" width="30.62" height="4.54"/>
<text transform="matrix(1 0 0 1 78.4441 16.8529)" class="st2 st3">Ciclo Profesional</text>
<text transform="matrix(1 0 0 1 81.7841 18.653)" class="st2 st3">IX a X</text>
<rect x="38.89" y="11.58" width="22.23" height="1.22"/>
<rect x="72.39" y="11.58" class="st4" width="22.23" height="1.22"/>
<rect x="38.89" y="8.02" class="st0" width="22.23" height="4.79"/>
<rect x="38.89" y="11.58" class="st4" width="22.23" height="1.22"/>
<rect x="38.89" y="1.69" class="st0" width="22.23" height="4.79"/>
<rect x="38.89" y="5.26" class="st4" width="22.23" height="1.22"/>
<line class="st5" x1="0" y1="12.88" x2="100" y2="12.88"/>
<rect x="40.74" y="2.59" class="st1" width="19.43" height="4.54"/>
<text transform="matrix(1 0 0 1 41.7106 2.9116)" class="st2 st6">Electivo Mención Visualidad y Medios: Lenguaje </text>
<text transform="matrix(1 0 0 1 43.1106 4.1116)" class="st2 st6">y composición fotográfica para el diseño</text>
<rect x="40.28" y="8.74" class="st1" width="19.43" height="4.54"/>
<text transform="matrix(1 0 0 1 42.5076 9.4922)" class="st2 st7">Electivo Mención V y M: Fundamentos </text>
<text transform="matrix(1 0 0 1 47.5676 10.6923)" class="st2 st7">fotográficos</text>
<rect x="73.56" y="8.82" class="st1" width="19.43" height="1.59"/>
<text transform="matrix(1 0 0 1 79.1588 9.9998)" class="st2 st7">Proyecto de Título I y II</text>
</svg>
