<?xml version="1.0" encoding="utf-8"?>
<!-- Generator: Adobe Illustrator 28.1.0, SVG Export Plug-In . SVG Version: 6.00 Build 0)  -->
<svg version="1.1" id="Layer_1" xmlns="http://www.w3.org/2000/svg" xmlns:xlink="http://www.w3.org/1999/xlink" x="0px" y="0px"
	 viewBox="0 0 100 20" style="enable-background:new 0 0 100 20;" xml:space="preserve">
<style type="text/css">
	.st0{fill:#FFDFBD;}
	.st1{fill:none;}
	.st2{font-family:'RobotoCondensed-Regular';}
	.st3{font-size:1.5px;}
	.st4{fill:#F8971D;}
	.st5{fill:#FFFFFF;stroke:#000000;stroke-width:0.5;stroke-miterlimit:10;}
	.st6{font-size:1px;}
</style>
<rect x="72.39" y="8.02" class="st0" width="22.23" height="4.79"/>
<rect x="16.05" y="12.81" width="0.9" height="1.77"/>
<rect x="49.55" y="12.81" width="0.9" height="1.77"/>
<rect x="83.05" y="12.81" width="0.9" height="1.77"/>
<rect x="11.55" y="15.29" class="st1" width="9.89" height="4.54"/>
<text transform="matrix(1 0 0 1 12.8318 16.4123)"><tspan x="0" y="0" class="st2 st3">Ciclo Básico</tspan><tspan x="2.17" y="1.8" class="st2 st3">I a IV</tspan></text>
<rect x="33.36" y="15.73" class="st1" width="33.29" height="4.54"/>
<text transform="matrix(1 0 0 1 44.2435 16.8529)"><tspan x="0" y="0" class="st2 st3">Ciclo Especializado</tspan><tspan x="3.65" y="1.8" class="st2 st3">V a VIII</tspan></text>
<rect x="68.19" y="15.73" class="st1" width="30.62" height="4.54"/>
<text transform="matrix(1 0 0 1 78.4441 16.8529)"><tspan x="0" y="0" class="st2 st3">Ciclo Profesional</tspan><tspan x="3.34" y="1.8" class="st2 st3">IX a X</tspan></text>
<rect x="38.89" y="11.58" width="22.23" height="1.22"/>
<rect x="72.39" y="11.58" class="st4" width="22.23" height="1.22"/>
<rect x="38.89" y="8.02" class="st0" width="22.23" height="4.79"/>
<rect x="38.89" y="11.58" class="st4" width="22.23" height="1.22"/>
<rect x="38.89" y="1.69" class="st0" width="22.23" height="4.79"/>
<rect x="38.89" y="5.26" class="st4" width="22.23" height="1.22"/>
<line class="st5" x1="0" y1="12.88" x2="100" y2="12.88"/>
<rect x="40.74" y="2.59" class="st1" width="19.43" height="4.54"/>
<text transform="matrix(1 0 0 1 40.9977 3.3437)"><tspan x="0" y="0" class="st2 st6">Electivo Mención Visualidad y Medios: Lenguaje </tspan><tspan x="1.4" y="1.2" class="st2 st6">y composición fotográfica para el diseño</tspan></text>
<rect x="40.28" y="8.74" class="st1" width="19.43" height="4.54"/>
<text transform="matrix(1 0 0 1 42.5076 9.4922)"><tspan x="0" y="0" class="st2 st6">Electivo Mención V y M: Fundamentos </tspan><tspan x="5.06" y="1.2" class="st2 st6">fotográficos</tspan></text>
<rect x="73.56" y="8.82" class="st1" width="19.43" height="1.59"/>
<text transform="matrix(1 0 0 1 78.7526 9.572)" class="st2 st6">Proyecto de Título I y II</text>
</svg>
