<?xml version="1.0" encoding="utf-8"?>
<!-- Generator: Adobe Illustrator 28.1.0, SVG Export Plug-In . SVG Version: 6.00 Build 0)  -->
<svg version="1.1" id="Layer_1" xmlns="http://www.w3.org/2000/svg" xmlns:xlink="http://www.w3.org/1999/xlink" x="0px" y="0px"
	 viewBox="0 0 100 20" style="enable-background:new 0 0 100 20;" xml:space="preserve">
<style type="text/css">
	.st0{fill:#F68E6B;}
	.st1{fill:#F9EEED;}
	.st2{fill:#D1CEE8;}
	.st3{fill:#393E95;}
	.st4{fill:#FAC4BC;}
	.st5{fill:#EF4623;}
	.st6{fill:#010101;}
</style>
<g>
	<g>
		<rect x="3.66" y="14.8" class="st0" width="92.67" height="0.52"/>
	</g>
	<g>
		<g>
			<rect x="20.82" y="14.73" class="st0" width="1.13" height="1.54"/>
			<path class="st1" d="M22.05,16.32h-1.32v-1.64h1.32V16.32z M20.92,16.21h0.94v-1.43h-0.94V16.21z"/>
		</g>
	</g>
	<g>
		<g>
			<rect x="48.61" y="14.73" class="st0" width="1.13" height="1.54"/>
			<path class="st1" d="M49.83,16.32h-1.32v-1.64h1.32V16.32z M48.7,16.21h0.94v-1.43H48.7V16.21z"/>
		</g>
	</g>
	<g>
		<g>
			<rect x="79.05" y="14.73" class="st0" width="1.13" height="1.54"/>
			<path class="st1" d="M80.27,16.32h-1.32v-1.64h1.32V16.32z M79.14,16.21h0.94v-1.43h-0.94V16.21z"/>
		</g>
	</g>
</g>
<g>
	<path class="st2" d="M57.26,7.67H41.08c-0.5,0-0.91-0.41-0.91-0.91V2.58c0-0.5,0.41-0.91,0.91-0.91h16.17
		c0.5,0,0.91,0.41,0.91,0.91v4.17C58.17,7.26,57.76,7.67,57.26,7.67z"/>
	<path class="st3" d="M58.17,6.54c0,0.62-0.47,1.12-1.06,1.12H41.23c-0.58,0-1.06-0.5-1.06-1.12"/>
</g>
<g>
	<path class="st4" d="M87.68,14.1H71.55c-0.52,0-0.94-0.42-0.94-0.94V9.1c0-0.52,0.42-0.94,0.94-0.94h16.13
		c0.52,0,0.94,0.42,0.94,0.94v4.07C88.61,13.68,88.19,14.1,87.68,14.1z"/>
	<path class="st5" d="M88.61,13.05c0,0.61-0.47,1.11-1.06,1.11H71.67c-0.58,0-1.06-0.5-1.06-1.11"/>
</g>
<g>
	<path class="st4" d="M57.27,14.14H41.07c-0.5,0-0.9-0.4-0.9-0.9V9.09c0-0.5,0.4-0.9,0.9-0.9h16.19c0.5,0,0.9,0.4,0.9,0.9v4.14
		C58.17,13.73,57.77,14.14,57.27,14.14z"/>
	<path class="st5" d="M58.17,13.08c0,0.61-0.47,1.11-1.06,1.11H41.23c-0.58,0-1.06-0.5-1.06-1.11"/>
</g>
<g>
	<path class="st6" d="M18.81,17.65l0.15,0.05c-0.02,0.08-0.06,0.14-0.11,0.18c-0.05,0.04-0.12,0.06-0.2,0.06
		c-0.1,0-0.18-0.03-0.24-0.1c-0.06-0.07-0.1-0.16-0.1-0.28c0-0.12,0.03-0.22,0.1-0.29c0.06-0.07,0.15-0.1,0.25-0.1
		c0.09,0,0.17,0.03,0.22,0.08c0.03,0.03,0.06,0.08,0.08,0.14l-0.15,0.04c-0.01-0.04-0.03-0.07-0.06-0.09
		c-0.03-0.02-0.06-0.03-0.1-0.03c-0.06,0-0.1,0.02-0.13,0.06c-0.03,0.04-0.05,0.1-0.05,0.19c0,0.09,0.02,0.16,0.05,0.2
		c0.03,0.04,0.08,0.06,0.13,0.06c0.04,0,0.07-0.01,0.1-0.04S18.8,17.7,18.81,17.65z"/>
	<path class="st6" d="M19.08,17.31v-0.13h0.14v0.13H19.08z M19.08,17.92v-0.54h0.14v0.54H19.08z"/>
	<path class="st6" d="M19.85,17.54l-0.14,0.03c0-0.03-0.02-0.05-0.03-0.06c-0.02-0.01-0.04-0.02-0.07-0.02
		c-0.04,0-0.06,0.01-0.08,0.04c-0.02,0.03-0.03,0.07-0.03,0.12c0,0.06,0.01,0.11,0.03,0.14c0.02,0.03,0.05,0.04,0.09,0.04
		c0.03,0,0.05-0.01,0.07-0.02c0.02-0.02,0.03-0.04,0.04-0.08l0.14,0.02c-0.01,0.06-0.04,0.11-0.08,0.15s-0.1,0.05-0.17,0.05
		c-0.08,0-0.14-0.03-0.19-0.08c-0.05-0.05-0.07-0.12-0.07-0.21s0.02-0.16,0.07-0.21c0.05-0.05,0.11-0.08,0.19-0.08
		c0.07,0,0.12,0.01,0.16,0.04S19.83,17.48,19.85,17.54z"/>
	<path class="st6" d="M19.95,17.92v-0.75h0.14v0.75H19.95z"/>
	<path class="st6" d="M20.21,17.64c0-0.05,0.01-0.09,0.04-0.14c0.02-0.04,0.06-0.08,0.1-0.1s0.09-0.04,0.14-0.04
		c0.08,0,0.15,0.03,0.2,0.08s0.08,0.12,0.08,0.2c0,0.08-0.03,0.15-0.08,0.2s-0.12,0.08-0.2,0.08c-0.05,0-0.1-0.01-0.14-0.03
		s-0.08-0.06-0.1-0.1S20.21,17.7,20.21,17.64z M20.36,17.65c0,0.05,0.01,0.09,0.04,0.12c0.03,0.03,0.06,0.04,0.09,0.04
		c0.04,0,0.07-0.01,0.09-0.04s0.04-0.07,0.04-0.12c0-0.05-0.01-0.09-0.04-0.12c-0.03-0.03-0.06-0.04-0.09-0.04
		c-0.04,0-0.07,0.01-0.09,0.04C20.37,17.55,20.36,17.6,20.36,17.65z"/>
	<path class="st6" d="M21.17,17.17h0.3c0.06,0,0.1,0,0.13,0.01c0.03,0,0.06,0.01,0.08,0.03s0.04,0.04,0.06,0.06s0.02,0.06,0.02,0.09
		c0,0.03-0.01,0.07-0.03,0.1s-0.04,0.05-0.08,0.07c0.05,0.01,0.08,0.04,0.1,0.07s0.04,0.07,0.04,0.11c0,0.03-0.01,0.07-0.02,0.1
		c-0.02,0.03-0.04,0.06-0.06,0.08c-0.03,0.02-0.06,0.03-0.1,0.04c-0.03,0-0.09,0-0.18,0h-0.25V17.17z M21.32,17.3v0.17h0.1
		c0.06,0,0.1,0,0.11,0c0.03,0,0.05-0.01,0.06-0.03s0.02-0.03,0.02-0.06c0-0.02-0.01-0.04-0.02-0.06s-0.03-0.02-0.06-0.03
		c-0.02,0-0.06,0-0.13,0H21.32z M21.32,17.59v0.2h0.14c0.05,0,0.09,0,0.1,0c0.02,0,0.04-0.01,0.05-0.03
		c0.01-0.02,0.02-0.04,0.02-0.06c0-0.02-0.01-0.04-0.02-0.06c-0.01-0.02-0.03-0.03-0.05-0.03c-0.02-0.01-0.07-0.01-0.13-0.01H21.32z
		"/>
	<path class="st6" d="M22.03,17.54l-0.13-0.02c0.01-0.05,0.04-0.09,0.08-0.12s0.09-0.04,0.16-0.04c0.06,0,0.11,0.01,0.14,0.02
		c0.03,0.01,0.05,0.03,0.07,0.06c0.01,0.02,0.02,0.07,0.02,0.13l0,0.17c0,0.05,0,0.08,0.01,0.11s0.01,0.05,0.03,0.07h-0.14
		c0-0.01-0.01-0.02-0.01-0.04c0-0.01,0-0.01,0-0.02c-0.02,0.02-0.05,0.04-0.08,0.05s-0.06,0.02-0.09,0.02
		c-0.06,0-0.1-0.02-0.13-0.05s-0.05-0.07-0.05-0.11c0-0.03,0.01-0.06,0.02-0.08c0.01-0.02,0.04-0.04,0.06-0.05s0.06-0.02,0.11-0.03
		c0.07-0.01,0.11-0.02,0.14-0.04v-0.01c0-0.03-0.01-0.05-0.02-0.06s-0.04-0.02-0.08-0.02c-0.03,0-0.05,0-0.06,0.01
		C22.05,17.5,22.04,17.52,22.03,17.54z M22.22,17.66c-0.02,0.01-0.05,0.01-0.09,0.02c-0.04,0.01-0.07,0.02-0.08,0.03
		c-0.02,0.01-0.03,0.03-0.03,0.05c0,0.02,0.01,0.04,0.02,0.05c0.02,0.01,0.03,0.02,0.06,0.02c0.03,0,0.05-0.01,0.07-0.03
		c0.02-0.01,0.03-0.03,0.03-0.05c0-0.01,0.01-0.04,0.01-0.07V17.66z M22.07,17.31l0.07-0.15h0.16l-0.14,0.15H22.07z"/>
	<path class="st6" d="M22.46,17.77l0.14-0.02c0.01,0.03,0.02,0.05,0.04,0.06c0.02,0.01,0.04,0.02,0.08,0.02
		c0.04,0,0.06-0.01,0.08-0.02c0.01-0.01,0.02-0.02,0.02-0.04c0-0.01,0-0.02-0.01-0.03s-0.02-0.01-0.05-0.02
		c-0.12-0.03-0.19-0.05-0.22-0.07c-0.04-0.03-0.06-0.07-0.06-0.12c0-0.05,0.02-0.09,0.06-0.12c0.04-0.03,0.09-0.05,0.17-0.05
		c0.07,0,0.13,0.01,0.17,0.04c0.04,0.02,0.06,0.06,0.07,0.11l-0.14,0.03c-0.01-0.02-0.02-0.04-0.03-0.05
		c-0.02-0.01-0.04-0.02-0.07-0.02c-0.04,0-0.06,0-0.08,0.02c-0.01,0.01-0.02,0.02-0.02,0.03c0,0.01,0,0.02,0.01,0.03
		c0.01,0.01,0.06,0.02,0.13,0.04c0.08,0.02,0.13,0.04,0.16,0.06c0.03,0.03,0.04,0.06,0.04,0.11c0,0.05-0.02,0.09-0.06,0.13
		c-0.04,0.04-0.1,0.05-0.18,0.05c-0.07,0-0.13-0.02-0.17-0.04C22.5,17.86,22.47,17.82,22.46,17.77z"/>
	<path class="st6" d="M23.09,17.31v-0.13h0.14v0.13H23.09z M23.09,17.92v-0.54h0.14v0.54H23.09z"/>
	<path class="st6" d="M23.85,17.54l-0.14,0.03c0-0.03-0.02-0.05-0.03-0.06c-0.02-0.01-0.04-0.02-0.07-0.02
		c-0.04,0-0.06,0.01-0.08,0.04c-0.02,0.03-0.03,0.07-0.03,0.12c0,0.06,0.01,0.11,0.03,0.14c0.02,0.03,0.05,0.04,0.09,0.04
		c0.03,0,0.05-0.01,0.07-0.02c0.02-0.02,0.03-0.04,0.04-0.08l0.14,0.02c-0.01,0.06-0.04,0.11-0.08,0.15s-0.1,0.05-0.17,0.05
		c-0.08,0-0.14-0.03-0.19-0.08c-0.05-0.05-0.07-0.12-0.07-0.21s0.02-0.16,0.07-0.21c0.05-0.05,0.11-0.08,0.19-0.08
		c0.07,0,0.12,0.01,0.16,0.04S23.83,17.48,23.85,17.54z"/>
	<path class="st6" d="M23.92,17.64c0-0.05,0.01-0.09,0.04-0.14c0.02-0.04,0.06-0.08,0.1-0.1s0.09-0.04,0.14-0.04
		c0.08,0,0.15,0.03,0.2,0.08s0.08,0.12,0.08,0.2c0,0.08-0.03,0.15-0.08,0.2s-0.12,0.08-0.2,0.08c-0.05,0-0.1-0.01-0.14-0.03
		s-0.08-0.06-0.1-0.1S23.92,17.7,23.92,17.64z M24.07,17.65c0,0.05,0.01,0.09,0.04,0.12c0.03,0.03,0.06,0.04,0.09,0.04
		c0.04,0,0.07-0.01,0.09-0.04s0.04-0.07,0.04-0.12c0-0.05-0.01-0.09-0.04-0.12c-0.03-0.03-0.06-0.04-0.09-0.04
		c-0.04,0-0.07,0.01-0.09,0.04C24.08,17.55,24.07,17.6,24.07,17.65z"/>
	<path class="st6" d="M20.24,19.17v-0.75h0.15v0.75H20.24z"/>
	<path class="st6" d="M20.93,18.8l-0.13-0.02c0.01-0.05,0.04-0.09,0.08-0.12s0.09-0.04,0.16-0.04c0.06,0,0.11,0.01,0.14,0.02
		c0.03,0.01,0.05,0.03,0.07,0.06c0.01,0.02,0.02,0.07,0.02,0.13l0,0.17c0,0.05,0,0.08,0.01,0.11s0.01,0.05,0.03,0.07h-0.14
		c0-0.01-0.01-0.02-0.01-0.04c0-0.01,0-0.01,0-0.02c-0.02,0.02-0.05,0.04-0.08,0.05s-0.06,0.02-0.09,0.02
		c-0.06,0-0.1-0.02-0.13-0.05s-0.05-0.07-0.05-0.11c0-0.03,0.01-0.06,0.02-0.08c0.01-0.02,0.04-0.04,0.06-0.05s0.06-0.02,0.11-0.03
		c0.07-0.01,0.11-0.02,0.14-0.04v-0.01c0-0.03-0.01-0.05-0.02-0.06s-0.04-0.02-0.08-0.02c-0.03,0-0.05,0-0.06,0.01
		C20.95,18.75,20.94,18.77,20.93,18.8z M21.12,18.91c-0.02,0.01-0.05,0.01-0.09,0.02c-0.04,0.01-0.07,0.02-0.08,0.03
		c-0.02,0.01-0.03,0.03-0.03,0.05c0,0.02,0.01,0.04,0.02,0.05c0.02,0.01,0.03,0.02,0.06,0.02c0.03,0,0.05-0.01,0.07-0.03
		c0.02-0.01,0.03-0.03,0.03-0.05c0-0.01,0.01-0.04,0.01-0.07V18.91z"/>
	<path class="st6" d="M21.69,19.17v-0.75h0.15v0.75H21.69z"/>
	<path class="st6" d="M22.18,19.17l-0.27-0.75h0.16l0.19,0.55l0.18-0.55h0.16l-0.27,0.75H22.18z"/>
</g>
<g>
	<path class="st6" d="M44.85,17.65L45,17.69c-0.02,0.08-0.06,0.14-0.11,0.18c-0.05,0.04-0.12,0.06-0.2,0.06
		c-0.1,0-0.18-0.03-0.24-0.1c-0.06-0.07-0.1-0.16-0.1-0.28c0-0.12,0.03-0.22,0.1-0.29c0.06-0.07,0.15-0.1,0.25-0.1
		c0.09,0,0.17,0.03,0.22,0.08c0.03,0.03,0.06,0.08,0.08,0.14l-0.15,0.04c-0.01-0.04-0.03-0.07-0.06-0.09
		c-0.03-0.02-0.06-0.03-0.1-0.03c-0.06,0-0.1,0.02-0.13,0.06c-0.03,0.04-0.05,0.1-0.05,0.19c0,0.09,0.02,0.16,0.05,0.2
		c0.03,0.04,0.08,0.06,0.13,0.06c0.04,0,0.07-0.01,0.1-0.04S44.84,17.7,44.85,17.65z"/>
	<path class="st6" d="M45.13,17.31v-0.13h0.14v0.13H45.13z M45.13,17.92v-0.54h0.14v0.54H45.13z"/>
	<path class="st6" d="M45.89,17.54l-0.14,0.03c0-0.03-0.02-0.05-0.03-0.06c-0.02-0.01-0.04-0.02-0.07-0.02
		c-0.04,0-0.06,0.01-0.08,0.04c-0.02,0.03-0.03,0.07-0.03,0.12c0,0.06,0.01,0.11,0.03,0.14c0.02,0.03,0.05,0.04,0.09,0.04
		c0.03,0,0.05-0.01,0.07-0.02c0.02-0.02,0.03-0.04,0.04-0.08l0.14,0.02c-0.01,0.06-0.04,0.11-0.08,0.15s-0.1,0.05-0.17,0.05
		c-0.08,0-0.14-0.03-0.19-0.08c-0.05-0.05-0.07-0.12-0.07-0.21s0.02-0.16,0.07-0.21c0.05-0.05,0.11-0.08,0.19-0.08
		c0.07,0,0.12,0.01,0.16,0.04S45.87,17.48,45.89,17.54z"/>
	<path class="st6" d="M46,17.92v-0.75h0.14v0.75H46z"/>
	<path class="st6" d="M46.25,17.64c0-0.05,0.01-0.09,0.04-0.14c0.02-0.04,0.06-0.08,0.1-0.1s0.09-0.04,0.14-0.04
		c0.08,0,0.15,0.03,0.2,0.08s0.08,0.12,0.08,0.2c0,0.08-0.03,0.15-0.08,0.2s-0.12,0.08-0.2,0.08c-0.05,0-0.1-0.01-0.14-0.03
		s-0.08-0.06-0.1-0.1S46.25,17.7,46.25,17.64z M46.4,17.65c0,0.05,0.01,0.09,0.04,0.12c0.03,0.03,0.06,0.04,0.09,0.04
		c0.04,0,0.07-0.01,0.09-0.04s0.04-0.07,0.04-0.12c0-0.05-0.01-0.09-0.04-0.12c-0.03-0.03-0.06-0.04-0.09-0.04
		c-0.04,0-0.07,0.01-0.09,0.04C46.41,17.55,46.4,17.6,46.4,17.65z"/>
	<path class="st6" d="M47.22,17.92v-0.75h0.55v0.13h-0.4v0.17h0.38v0.13h-0.38v0.2h0.42v0.13H47.22z"/>
	<path class="st6" d="M47.86,17.77L48,17.74c0.01,0.03,0.02,0.05,0.04,0.06c0.02,0.01,0.04,0.02,0.08,0.02
		c0.04,0,0.06-0.01,0.08-0.02c0.01-0.01,0.02-0.02,0.02-0.04c0-0.01,0-0.02-0.01-0.03s-0.02-0.01-0.05-0.02
		c-0.12-0.03-0.19-0.05-0.22-0.07c-0.04-0.03-0.06-0.07-0.06-0.12c0-0.05,0.02-0.09,0.06-0.12c0.04-0.03,0.09-0.05,0.17-0.05
		c0.07,0,0.13,0.01,0.17,0.04c0.04,0.02,0.06,0.06,0.07,0.11l-0.14,0.03c-0.01-0.02-0.02-0.04-0.03-0.05
		c-0.02-0.01-0.04-0.02-0.07-0.02c-0.04,0-0.06,0-0.08,0.02c-0.01,0.01-0.02,0.02-0.02,0.03c0,0.01,0,0.02,0.01,0.03
		c0.01,0.01,0.06,0.02,0.13,0.04c0.08,0.02,0.13,0.04,0.16,0.06c0.03,0.03,0.04,0.06,0.04,0.11c0,0.05-0.02,0.09-0.06,0.13
		c-0.04,0.04-0.1,0.05-0.18,0.05c-0.07,0-0.13-0.02-0.17-0.04C47.9,17.86,47.87,17.82,47.86,17.77z"/>
	<path class="st6" d="M48.49,17.38h0.13v0.08c0.02-0.03,0.04-0.05,0.07-0.07c0.03-0.02,0.06-0.03,0.1-0.03
		c0.06,0,0.12,0.03,0.16,0.07c0.04,0.05,0.07,0.12,0.07,0.21c0,0.09-0.02,0.16-0.07,0.21c-0.04,0.05-0.1,0.08-0.16,0.08
		c-0.03,0-0.06-0.01-0.08-0.02c-0.02-0.01-0.05-0.03-0.08-0.06v0.27h-0.14V17.38z M48.63,17.64c0,0.06,0.01,0.11,0.04,0.13
		c0.02,0.03,0.05,0.04,0.09,0.04c0.03,0,0.06-0.01,0.08-0.04c0.02-0.03,0.03-0.07,0.03-0.13c0-0.06-0.01-0.1-0.03-0.13
		c-0.02-0.03-0.05-0.04-0.08-0.04c-0.04,0-0.06,0.01-0.09,0.04C48.64,17.55,48.63,17.59,48.63,17.64z"/>
	<path class="st6" d="M49.44,17.75l0.14,0.02c-0.02,0.05-0.05,0.09-0.09,0.12c-0.04,0.03-0.09,0.04-0.15,0.04
		c-0.09,0-0.16-0.03-0.21-0.09c-0.04-0.05-0.05-0.11-0.05-0.19c0-0.09,0.02-0.16,0.07-0.21s0.11-0.08,0.18-0.08
		c0.08,0,0.14,0.03,0.19,0.08c0.05,0.05,0.07,0.13,0.07,0.24h-0.36c0,0.04,0.01,0.08,0.03,0.1c0.02,0.02,0.05,0.04,0.08,0.04
		c0.02,0,0.04-0.01,0.06-0.02C49.42,17.79,49.44,17.77,49.44,17.75z M49.45,17.6c0-0.04-0.01-0.07-0.03-0.09s-0.04-0.03-0.07-0.03
		c-0.03,0-0.06,0.01-0.08,0.03c-0.02,0.02-0.03,0.05-0.03,0.09H49.45z"/>
	<path class="st6" d="M50.18,17.54l-0.14,0.03c0-0.03-0.02-0.05-0.03-0.06c-0.02-0.01-0.04-0.02-0.07-0.02
		c-0.04,0-0.06,0.01-0.08,0.04c-0.02,0.03-0.03,0.07-0.03,0.12c0,0.06,0.01,0.11,0.03,0.14c0.02,0.03,0.05,0.04,0.09,0.04
		c0.03,0,0.05-0.01,0.07-0.02c0.02-0.02,0.03-0.04,0.04-0.08l0.14,0.02c-0.01,0.06-0.04,0.11-0.08,0.15s-0.1,0.05-0.17,0.05
		c-0.08,0-0.14-0.03-0.19-0.08c-0.05-0.05-0.07-0.12-0.07-0.21s0.02-0.16,0.07-0.21c0.05-0.05,0.11-0.08,0.19-0.08
		c0.07,0,0.12,0.01,0.16,0.04S50.17,17.48,50.18,17.54z"/>
	<path class="st6" d="M50.29,17.31v-0.13h0.14v0.13H50.29z M50.29,17.92v-0.54h0.14v0.54H50.29z"/>
	<path class="st6" d="M50.69,17.54l-0.13-0.02c0.01-0.05,0.04-0.09,0.08-0.12s0.09-0.04,0.16-0.04c0.06,0,0.11,0.01,0.14,0.02
		c0.03,0.01,0.05,0.03,0.07,0.06c0.01,0.02,0.02,0.07,0.02,0.13l0,0.17c0,0.05,0,0.08,0.01,0.11c0,0.02,0.01,0.05,0.03,0.07h-0.14
		c0-0.01-0.01-0.02-0.01-0.04c0-0.01,0-0.01,0-0.02c-0.02,0.02-0.05,0.04-0.08,0.05s-0.06,0.02-0.09,0.02
		c-0.06,0-0.1-0.02-0.13-0.05s-0.05-0.07-0.05-0.11c0-0.03,0.01-0.06,0.02-0.08c0.01-0.02,0.04-0.04,0.06-0.05s0.06-0.02,0.11-0.03
		c0.07-0.01,0.11-0.02,0.14-0.04v-0.01c0-0.03-0.01-0.05-0.02-0.06s-0.04-0.02-0.08-0.02c-0.03,0-0.05,0-0.06,0.01
		C50.71,17.5,50.7,17.52,50.69,17.54z M50.88,17.66c-0.02,0.01-0.05,0.01-0.09,0.02c-0.04,0.01-0.07,0.02-0.08,0.03
		c-0.02,0.01-0.03,0.03-0.03,0.05c0,0.02,0.01,0.04,0.02,0.05c0.02,0.01,0.03,0.02,0.06,0.02c0.03,0,0.05-0.01,0.07-0.03
		c0.02-0.01,0.03-0.03,0.03-0.05c0-0.01,0.01-0.04,0.01-0.07V17.66z"/>
	<path class="st6" d="M51.16,17.92v-0.75h0.14v0.75H51.16z"/>
	<path class="st6" d="M51.45,17.31v-0.13h0.14v0.13H51.45z M51.45,17.92v-0.54h0.14v0.54H51.45z"/>
	<path class="st6" d="M51.68,17.92v-0.11l0.2-0.23c0.03-0.04,0.06-0.06,0.07-0.08c-0.02,0-0.04,0-0.07,0l-0.19,0v-0.12h0.45v0.1
		l-0.21,0.24l-0.07,0.08c0.04,0,0.06,0,0.07,0h0.22v0.13H51.68z"/>
	<path class="st6" d="M52.37,17.54l-0.13-0.02c0.01-0.05,0.04-0.09,0.08-0.12c0.04-0.03,0.09-0.04,0.16-0.04
		c0.06,0,0.11,0.01,0.14,0.02c0.03,0.01,0.05,0.03,0.07,0.06c0.01,0.02,0.02,0.07,0.02,0.13l0,0.17c0,0.05,0,0.08,0.01,0.11
		c0,0.02,0.01,0.05,0.03,0.07h-0.14c0-0.01-0.01-0.02-0.01-0.04c0-0.01,0-0.01,0-0.02c-0.02,0.02-0.05,0.04-0.08,0.05
		c-0.03,0.01-0.06,0.02-0.09,0.02c-0.06,0-0.1-0.02-0.13-0.05s-0.05-0.07-0.05-0.11c0-0.03,0.01-0.06,0.02-0.08
		c0.01-0.02,0.04-0.04,0.06-0.05s0.06-0.02,0.11-0.03c0.07-0.01,0.11-0.02,0.14-0.04v-0.01c0-0.03-0.01-0.05-0.02-0.06
		s-0.04-0.02-0.08-0.02c-0.03,0-0.05,0-0.06,0.01C52.39,17.5,52.38,17.52,52.37,17.54z M52.56,17.66c-0.02,0.01-0.05,0.01-0.09,0.02
		c-0.04,0.01-0.07,0.02-0.08,0.03c-0.02,0.01-0.03,0.03-0.03,0.05c0,0.02,0.01,0.04,0.02,0.05c0.02,0.01,0.03,0.02,0.06,0.02
		c0.03,0,0.05-0.01,0.07-0.03c0.02-0.01,0.03-0.03,0.03-0.05c0-0.01,0.01-0.04,0.01-0.07V17.66z"/>
	<path class="st6" d="M53.34,17.92h-0.13v-0.08c-0.02,0.03-0.05,0.05-0.08,0.07c-0.03,0.02-0.06,0.02-0.09,0.02
		c-0.06,0-0.12-0.03-0.16-0.08c-0.04-0.05-0.07-0.12-0.07-0.21c0-0.09,0.02-0.16,0.06-0.21c0.04-0.05,0.1-0.07,0.16-0.07
		c0.06,0,0.11,0.03,0.16,0.08v-0.27h0.14V17.92z M52.96,17.64c0,0.06,0.01,0.1,0.02,0.12c0.02,0.04,0.06,0.06,0.1,0.06
		c0.03,0,0.06-0.01,0.08-0.04c0.02-0.03,0.03-0.07,0.03-0.13c0-0.06-0.01-0.11-0.03-0.13s-0.05-0.04-0.09-0.04
		c-0.03,0-0.06,0.01-0.08,0.04C52.97,17.54,52.96,17.58,52.96,17.64z"/>
	<path class="st6" d="M53.45,17.64c0-0.05,0.01-0.09,0.04-0.14c0.02-0.04,0.06-0.08,0.1-0.1s0.09-0.04,0.14-0.04
		c0.08,0,0.15,0.03,0.2,0.08s0.08,0.12,0.08,0.2c0,0.08-0.03,0.15-0.08,0.2s-0.12,0.08-0.2,0.08c-0.05,0-0.1-0.01-0.14-0.03
		c-0.05-0.02-0.08-0.06-0.1-0.1S53.45,17.7,53.45,17.64z M53.6,17.65c0,0.05,0.01,0.09,0.04,0.12s0.06,0.04,0.09,0.04
		s0.07-0.01,0.09-0.04s0.04-0.07,0.04-0.12c0-0.05-0.01-0.09-0.04-0.12c-0.03-0.03-0.06-0.04-0.09-0.04s-0.07,0.01-0.09,0.04
		C53.61,17.55,53.6,17.6,53.6,17.65z"/>
	<path class="st6" d="M47.73,19.17l-0.27-0.75h0.16l0.19,0.55l0.18-0.55h0.16l-0.27,0.75H47.73z"/>
	<path class="st6" d="M48.63,18.8l-0.13-0.02c0.01-0.05,0.04-0.09,0.08-0.12s0.09-0.04,0.16-0.04c0.06,0,0.11,0.01,0.14,0.02
		c0.03,0.01,0.05,0.03,0.07,0.06c0.01,0.02,0.02,0.07,0.02,0.13l0,0.17c0,0.05,0,0.08,0.01,0.11s0.01,0.05,0.03,0.07h-0.14
		c0-0.01-0.01-0.02-0.01-0.04c0-0.01,0-0.01,0-0.02c-0.02,0.02-0.05,0.04-0.08,0.05s-0.06,0.02-0.09,0.02
		c-0.06,0-0.1-0.02-0.13-0.05s-0.05-0.07-0.05-0.11c0-0.03,0.01-0.06,0.02-0.08c0.01-0.02,0.04-0.04,0.06-0.05s0.06-0.02,0.11-0.03
		c0.07-0.01,0.11-0.02,0.14-0.04v-0.01c0-0.03-0.01-0.05-0.02-0.06s-0.04-0.02-0.08-0.02c-0.03,0-0.05,0-0.06,0.01
		C48.65,18.75,48.64,18.77,48.63,18.8z M48.82,18.91c-0.02,0.01-0.05,0.01-0.09,0.02c-0.04,0.01-0.07,0.02-0.08,0.03
		c-0.02,0.01-0.03,0.03-0.03,0.05c0,0.02,0.01,0.04,0.02,0.05c0.02,0.01,0.03,0.02,0.06,0.02c0.03,0,0.05-0.01,0.07-0.03
		c0.02-0.01,0.03-0.03,0.03-0.05c0-0.01,0.01-0.04,0.01-0.07V18.91z"/>
	<path class="st6" d="M49.58,19.17l-0.27-0.75h0.16l0.19,0.55l0.18-0.55h0.16l-0.27,0.75H49.58z"/>
	<path class="st6" d="M50.08,19.17v-0.75h0.15v0.75H50.08z"/>
	<path class="st6" d="M50.37,19.17v-0.75h0.15v0.75H50.37z"/>
	<path class="st6" d="M50.66,19.17v-0.75h0.15v0.75H50.66z"/>
</g>
<g>
	<path class="st6" d="M75.9,17.65l0.15,0.05c-0.02,0.08-0.06,0.14-0.11,0.18c-0.05,0.04-0.12,0.06-0.2,0.06
		c-0.1,0-0.18-0.03-0.24-0.1c-0.06-0.07-0.1-0.16-0.1-0.28c0-0.12,0.03-0.22,0.1-0.29c0.06-0.07,0.15-0.1,0.25-0.1
		c0.09,0,0.17,0.03,0.22,0.08c0.03,0.03,0.06,0.08,0.08,0.14l-0.15,0.04c-0.01-0.04-0.03-0.07-0.06-0.09
		c-0.03-0.02-0.06-0.03-0.1-0.03c-0.06,0-0.1,0.02-0.13,0.06c-0.04,0.04-0.05,0.1-0.05,0.19c0,0.09,0.02,0.16,0.05,0.2
		c0.03,0.04,0.08,0.06,0.13,0.06c0.04,0,0.07-0.01,0.1-0.04C75.87,17.74,75.89,17.7,75.9,17.65z"/>
	<path class="st6" d="M76.18,17.31v-0.13h0.14v0.13H76.18z M76.18,17.92v-0.54h0.14v0.54H76.18z"/>
	<path class="st6" d="M76.94,17.54l-0.14,0.03c0-0.03-0.02-0.05-0.03-0.06c-0.02-0.01-0.04-0.02-0.07-0.02
		c-0.04,0-0.06,0.01-0.08,0.04c-0.02,0.03-0.03,0.07-0.03,0.12c0,0.06,0.01,0.11,0.03,0.14s0.05,0.04,0.09,0.04
		c0.03,0,0.05-0.01,0.07-0.02c0.02-0.02,0.03-0.04,0.04-0.08l0.14,0.02c-0.01,0.06-0.04,0.11-0.08,0.15
		c-0.04,0.03-0.1,0.05-0.17,0.05c-0.08,0-0.14-0.03-0.19-0.08c-0.05-0.05-0.07-0.12-0.07-0.21s0.02-0.16,0.07-0.21
		s0.11-0.08,0.19-0.08c0.07,0,0.12,0.01,0.16,0.04S76.92,17.48,76.94,17.54z"/>
	<path class="st6" d="M77.05,17.92v-0.75h0.14v0.75H77.05z"/>
	<path class="st6" d="M77.31,17.64c0-0.05,0.01-0.09,0.04-0.14c0.02-0.04,0.06-0.08,0.1-0.1s0.09-0.04,0.14-0.04
		c0.08,0,0.15,0.03,0.2,0.08c0.05,0.05,0.08,0.12,0.08,0.2c0,0.08-0.03,0.15-0.08,0.2c-0.05,0.05-0.12,0.08-0.2,0.08
		c-0.05,0-0.1-0.01-0.14-0.03s-0.08-0.06-0.1-0.1S77.31,17.7,77.31,17.64z M77.45,17.65c0,0.05,0.01,0.09,0.04,0.12
		s0.06,0.04,0.09,0.04c0.04,0,0.07-0.01,0.09-0.04s0.04-0.07,0.04-0.12c0-0.05-0.01-0.09-0.04-0.12c-0.03-0.03-0.06-0.04-0.09-0.04
		c-0.04,0-0.07,0.01-0.09,0.04C77.47,17.55,77.45,17.6,77.45,17.65z"/>
	<path class="st6" d="M78.27,17.92v-0.75h0.24c0.09,0,0.15,0,0.18,0.01c0.04,0.01,0.08,0.04,0.11,0.07
		c0.03,0.04,0.04,0.09,0.04,0.15c0,0.05-0.01,0.08-0.03,0.12s-0.04,0.06-0.06,0.07s-0.05,0.03-0.08,0.04
		c-0.04,0.01-0.09,0.01-0.16,0.01h-0.1v0.28H78.27z M78.42,17.3v0.21h0.08c0.06,0,0.1,0,0.12-0.01c0.02-0.01,0.04-0.02,0.05-0.04
		s0.02-0.04,0.02-0.06c0-0.03-0.01-0.05-0.02-0.07c-0.02-0.02-0.04-0.03-0.06-0.03c-0.02,0-0.05-0.01-0.11-0.01H78.42z"/>
	<path class="st6" d="M79.1,17.92h-0.14v-0.54h0.13v0.08c0.02-0.04,0.04-0.06,0.06-0.07c0.02-0.01,0.04-0.02,0.06-0.02
		c0.03,0,0.06,0.01,0.09,0.03l-0.04,0.12c-0.02-0.02-0.05-0.02-0.07-0.02c-0.02,0-0.04,0-0.05,0.02c-0.01,0.01-0.02,0.03-0.03,0.06
		c-0.01,0.03-0.01,0.09-0.01,0.18V17.92z"/>
	<path class="st6" d="M79.34,17.64c0-0.05,0.01-0.09,0.04-0.14c0.02-0.04,0.06-0.08,0.1-0.1s0.09-0.04,0.14-0.04
		c0.08,0,0.15,0.03,0.2,0.08c0.05,0.05,0.08,0.12,0.08,0.2c0,0.08-0.03,0.15-0.08,0.2c-0.05,0.05-0.12,0.08-0.2,0.08
		c-0.05,0-0.1-0.01-0.14-0.03s-0.08-0.06-0.1-0.1S79.34,17.7,79.34,17.64z M79.48,17.65c0,0.05,0.01,0.09,0.04,0.12
		s0.06,0.04,0.09,0.04c0.04,0,0.07-0.01,0.09-0.04s0.04-0.07,0.04-0.12c0-0.05-0.01-0.09-0.04-0.12c-0.03-0.03-0.06-0.04-0.09-0.04
		c-0.04,0-0.07,0.01-0.09,0.04C79.5,17.55,79.48,17.6,79.48,17.65z"/>
	<path class="st6" d="M79.95,17.38h0.08v-0.04c0-0.05,0-0.08,0.01-0.1s0.03-0.04,0.05-0.05c0.03-0.01,0.06-0.02,0.1-0.02
		s0.08,0.01,0.12,0.02l-0.02,0.1c-0.02-0.01-0.04-0.01-0.07-0.01c-0.02,0-0.04,0-0.04,0.01c-0.01,0.01-0.01,0.03-0.01,0.06v0.04
		h0.11v0.11h-0.11v0.43h-0.14v-0.43h-0.08V17.38z"/>
	<path class="st6" d="M80.67,17.75l0.14,0.02c-0.02,0.05-0.05,0.09-0.09,0.12c-0.04,0.03-0.09,0.04-0.15,0.04
		c-0.09,0-0.16-0.03-0.21-0.09c-0.04-0.05-0.05-0.11-0.05-0.19c0-0.09,0.02-0.16,0.07-0.21s0.11-0.08,0.18-0.08
		c0.08,0,0.14,0.03,0.19,0.08c0.05,0.05,0.07,0.13,0.07,0.24h-0.36c0,0.04,0.01,0.08,0.04,0.1c0.02,0.02,0.05,0.04,0.08,0.04
		c0.02,0,0.04-0.01,0.06-0.02C80.65,17.79,80.66,17.77,80.67,17.75z M80.68,17.6c0-0.04-0.01-0.07-0.03-0.09s-0.04-0.03-0.07-0.03
		c-0.03,0-0.06,0.01-0.08,0.03c-0.02,0.02-0.03,0.05-0.03,0.09H80.68z"/>
	<path class="st6" d="M80.88,17.77l0.14-0.02c0.01,0.03,0.02,0.05,0.04,0.06c0.02,0.01,0.04,0.02,0.08,0.02
		c0.04,0,0.06-0.01,0.08-0.02c0.01-0.01,0.02-0.02,0.02-0.04c0-0.01,0-0.02-0.01-0.03s-0.02-0.01-0.05-0.02
		c-0.12-0.03-0.19-0.05-0.22-0.07c-0.04-0.03-0.06-0.07-0.06-0.12c0-0.05,0.02-0.09,0.06-0.12c0.04-0.03,0.09-0.05,0.17-0.05
		c0.07,0,0.13,0.01,0.17,0.04c0.04,0.02,0.06,0.06,0.07,0.11l-0.13,0.03c-0.01-0.02-0.02-0.04-0.03-0.05
		c-0.02-0.01-0.04-0.02-0.07-0.02c-0.04,0-0.06,0-0.08,0.02c-0.01,0.01-0.02,0.02-0.02,0.03c0,0.01,0,0.02,0.01,0.03
		c0.01,0.01,0.06,0.02,0.13,0.04c0.08,0.02,0.13,0.04,0.16,0.06c0.03,0.03,0.04,0.06,0.04,0.11c0,0.05-0.02,0.09-0.06,0.13
		c-0.04,0.04-0.1,0.05-0.18,0.05c-0.07,0-0.13-0.02-0.18-0.04C80.93,17.86,80.9,17.82,80.88,17.77z"/>
	<path class="st6" d="M81.52,17.31v-0.13h0.14v0.13H81.52z M81.52,17.92v-0.54h0.14v0.54H81.52z"/>
	<path class="st6" d="M81.77,17.64c0-0.05,0.01-0.09,0.04-0.14c0.02-0.04,0.06-0.08,0.1-0.1s0.09-0.04,0.14-0.04
		c0.08,0,0.15,0.03,0.2,0.08c0.05,0.05,0.08,0.12,0.08,0.2c0,0.08-0.03,0.15-0.08,0.2c-0.05,0.05-0.12,0.08-0.2,0.08
		c-0.05,0-0.1-0.01-0.14-0.03s-0.08-0.06-0.1-0.1S81.77,17.7,81.77,17.64z M81.92,17.65c0,0.05,0.01,0.09,0.04,0.12
		s0.06,0.04,0.09,0.04c0.04,0,0.07-0.01,0.09-0.04s0.04-0.07,0.04-0.12c0-0.05-0.01-0.09-0.04-0.12c-0.03-0.03-0.06-0.04-0.09-0.04
		c-0.04,0-0.07,0.01-0.09,0.04C81.93,17.55,81.92,17.6,81.92,17.65z"/>
	<path class="st6" d="M82.94,17.92h-0.14v-0.28c0-0.06,0-0.1-0.01-0.11c-0.01-0.02-0.02-0.03-0.03-0.04s-0.03-0.01-0.05-0.01
		c-0.02,0-0.05,0.01-0.07,0.02s-0.03,0.03-0.04,0.05c-0.01,0.02-0.01,0.06-0.01,0.12v0.25h-0.14v-0.54h0.13v0.08
		c0.05-0.06,0.11-0.09,0.18-0.09c0.03,0,0.06,0.01,0.09,0.02c0.03,0.01,0.05,0.03,0.06,0.04c0.01,0.02,0.02,0.04,0.03,0.06
		c0,0.02,0.01,0.05,0.01,0.1V17.92z"/>
	<path class="st6" d="M83.19,17.54l-0.13-0.02c0.01-0.05,0.04-0.09,0.08-0.12c0.04-0.03,0.09-0.04,0.16-0.04
		c0.06,0,0.11,0.01,0.14,0.02c0.03,0.01,0.05,0.03,0.07,0.06c0.01,0.02,0.02,0.07,0.02,0.13l0,0.17c0,0.05,0,0.08,0.01,0.11
		s0.01,0.05,0.03,0.07h-0.14c0-0.01-0.01-0.02-0.01-0.04c0-0.01,0-0.01,0-0.02c-0.02,0.02-0.05,0.04-0.08,0.05
		c-0.03,0.01-0.06,0.02-0.09,0.02c-0.06,0-0.1-0.02-0.13-0.05c-0.03-0.03-0.05-0.07-0.05-0.11c0-0.03,0.01-0.06,0.02-0.08
		c0.01-0.02,0.03-0.04,0.06-0.05s0.06-0.02,0.11-0.03c0.07-0.01,0.11-0.02,0.14-0.04v-0.01c0-0.03-0.01-0.05-0.02-0.06
		s-0.04-0.02-0.08-0.02c-0.03,0-0.05,0-0.06,0.01C83.21,17.5,83.2,17.52,83.19,17.54z M83.38,17.66c-0.02,0.01-0.05,0.01-0.09,0.02
		c-0.04,0.01-0.07,0.02-0.08,0.03c-0.02,0.01-0.03,0.03-0.03,0.05c0,0.02,0.01,0.04,0.02,0.05c0.01,0.01,0.03,0.02,0.06,0.02
		c0.03,0,0.05-0.01,0.07-0.03c0.02-0.01,0.03-0.03,0.03-0.05c0-0.01,0-0.04,0-0.07V17.66z"/>
	<path class="st6" d="M83.66,17.92v-0.75h0.14v0.75H83.66z"/>
	<path class="st6" d="M78.26,19.17v-0.75h0.15v0.75H78.26z"/>
	<path class="st6" d="M78.48,19.17l0.25-0.39l-0.23-0.36h0.18l0.15,0.24l0.15-0.24h0.17l-0.23,0.36l0.25,0.38h-0.18l-0.17-0.26
		l-0.17,0.26H78.48z"/>
	<path class="st6" d="M79.65,18.8l-0.13-0.02c0.01-0.05,0.04-0.09,0.08-0.12c0.04-0.03,0.09-0.04,0.16-0.04
		c0.06,0,0.11,0.01,0.14,0.02c0.03,0.01,0.05,0.03,0.07,0.06c0.01,0.02,0.02,0.07,0.02,0.13l0,0.17c0,0.05,0,0.08,0.01,0.11
		s0.01,0.05,0.03,0.07h-0.14c0-0.01-0.01-0.02-0.01-0.04c0-0.01,0-0.01,0-0.02c-0.02,0.02-0.05,0.04-0.08,0.05
		c-0.03,0.01-0.06,0.02-0.09,0.02c-0.06,0-0.1-0.02-0.13-0.05c-0.03-0.03-0.05-0.07-0.05-0.11c0-0.03,0.01-0.06,0.02-0.08
		c0.01-0.02,0.03-0.04,0.06-0.05s0.06-0.02,0.11-0.03c0.07-0.01,0.11-0.02,0.14-0.04v-0.01c0-0.03-0.01-0.05-0.02-0.06
		s-0.04-0.02-0.08-0.02c-0.03,0-0.05,0-0.06,0.01C79.67,18.75,79.66,18.77,79.65,18.8z M79.84,18.91c-0.02,0.01-0.05,0.01-0.09,0.02
		c-0.04,0.01-0.07,0.02-0.08,0.03c-0.02,0.01-0.03,0.03-0.03,0.05c0,0.02,0.01,0.04,0.02,0.05c0.01,0.01,0.03,0.02,0.06,0.02
		c0.03,0,0.05-0.01,0.07-0.03c0.02-0.01,0.03-0.03,0.03-0.05c0-0.01,0-0.04,0-0.07V18.91z"/>
	<path class="st6" d="M80.34,19.17l0.25-0.39l-0.23-0.36h0.18l0.15,0.24l0.15-0.24h0.17l-0.23,0.36l0.25,0.38h-0.18l-0.17-0.26
		l-0.17,0.26H80.34z"/>
</g>
<g>
	<g>
		<path class="st6" d="M43.65,4.25V3.5h0.54v0.09h-0.44v0.23h0.42V3.9h-0.42v0.26h0.46v0.09H43.65z"/>
		<path class="st6" d="M44.34,4.25V3.5h0.09v0.75H44.34z"/>
		<path class="st6" d="M44.94,4.07l0.1,0.01c-0.01,0.06-0.04,0.1-0.08,0.13c-0.04,0.03-0.09,0.05-0.16,0.05
			c-0.08,0-0.14-0.02-0.19-0.07c-0.05-0.05-0.07-0.12-0.07-0.21c0-0.09,0.02-0.16,0.07-0.21c0.05-0.05,0.11-0.08,0.18-0.08
			c0.07,0,0.13,0.02,0.18,0.07c0.05,0.05,0.07,0.12,0.07,0.21c0,0.01,0,0.01,0,0.02h-0.41c0,0.06,0.02,0.11,0.05,0.14
			s0.07,0.05,0.11,0.05c0.03,0,0.06-0.01,0.09-0.03C44.91,4.14,44.93,4.11,44.94,4.07z M44.64,3.92h0.3c0-0.05-0.02-0.08-0.03-0.1
			c-0.03-0.04-0.07-0.05-0.11-0.05c-0.04,0-0.08,0.01-0.11,0.04S44.64,3.88,44.64,3.92z"/>
		<path class="st6" d="M45.51,4.05l0.09,0.01c-0.01,0.06-0.04,0.11-0.08,0.15c-0.04,0.04-0.09,0.05-0.15,0.05
			c-0.07,0-0.13-0.02-0.18-0.07c-0.05-0.05-0.07-0.12-0.07-0.21c0-0.06,0.01-0.11,0.03-0.15c0.02-0.04,0.05-0.08,0.09-0.1
			c0.04-0.02,0.08-0.03,0.13-0.03c0.06,0,0.11,0.01,0.15,0.04c0.04,0.03,0.06,0.07,0.07,0.13L45.5,3.88
			c-0.01-0.04-0.02-0.06-0.05-0.08c-0.02-0.02-0.05-0.03-0.08-0.03c-0.05,0-0.08,0.02-0.11,0.05c-0.03,0.03-0.04,0.09-0.04,0.16
			c0,0.07,0.01,0.13,0.04,0.16c0.03,0.03,0.06,0.05,0.11,0.05c0.04,0,0.07-0.01,0.09-0.03C45.49,4.13,45.5,4.1,45.51,4.05z"/>
		<path class="st6" d="M45.88,4.17l0.01,0.08c-0.03,0.01-0.05,0.01-0.07,0.01c-0.03,0-0.06-0.01-0.08-0.02s-0.03-0.02-0.04-0.04
			C45.7,4.18,45.7,4.15,45.7,4.09V3.78h-0.07V3.71h0.07V3.57l0.09-0.06v0.19h0.09v0.07h-0.09V4.1c0,0.03,0,0.04,0,0.05
			c0,0.01,0.01,0.01,0.02,0.02s0.02,0.01,0.03,0.01C45.85,4.17,45.86,4.17,45.88,4.17z"/>
		<path class="st6" d="M45.97,3.6V3.5h0.09V3.6H45.97z M45.97,4.25V3.71h0.09v0.54H45.97z"/>
		<path class="st6" d="M46.36,4.25l-0.21-0.54h0.1l0.12,0.33c0.01,0.04,0.02,0.07,0.04,0.11c0.01-0.03,0.02-0.06,0.03-0.1l0.12-0.33
			h0.09l-0.21,0.54H46.36z"/>
		<path class="st6" d="M46.69,3.98c0-0.1,0.03-0.18,0.08-0.22c0.05-0.04,0.1-0.06,0.17-0.06c0.08,0,0.14,0.02,0.18,0.07
			c0.05,0.05,0.07,0.12,0.07,0.2c0,0.07-0.01,0.12-0.03,0.17c-0.02,0.04-0.05,0.07-0.09,0.09C47.04,4.25,47,4.26,46.95,4.26
			c-0.08,0-0.14-0.02-0.18-0.07S46.69,4.07,46.69,3.98z M46.79,3.98c0,0.07,0.02,0.12,0.05,0.16s0.07,0.05,0.11,0.05
			s0.08-0.02,0.11-0.05c0.03-0.04,0.05-0.09,0.05-0.16c0-0.07-0.02-0.12-0.05-0.15S47,3.77,46.95,3.77c-0.05,0-0.08,0.02-0.11,0.05
			C46.81,3.86,46.79,3.91,46.79,3.98z"/>
		<path class="st6" d="M47.61,4.25V3.5h0.15l0.18,0.53c0.02,0.05,0.03,0.09,0.04,0.11c0.01-0.03,0.02-0.07,0.04-0.12L48.2,3.5h0.13
			v0.75h-0.1V3.62l-0.22,0.63h-0.09l-0.22-0.64v0.64H47.61z"/>
		<path class="st6" d="M48.85,4.07l0.1,0.01c-0.01,0.06-0.04,0.1-0.08,0.13c-0.04,0.03-0.09,0.05-0.16,0.05
			c-0.08,0-0.14-0.02-0.19-0.07c-0.05-0.05-0.07-0.12-0.07-0.21c0-0.09,0.02-0.16,0.07-0.21c0.05-0.05,0.11-0.08,0.18-0.08
			c0.07,0,0.13,0.02,0.18,0.07c0.05,0.05,0.07,0.12,0.07,0.21c0,0.01,0,0.01,0,0.02h-0.41c0,0.06,0.02,0.11,0.05,0.14
			s0.07,0.05,0.11,0.05c0.03,0,0.06-0.01,0.09-0.03C48.82,4.14,48.84,4.11,48.85,4.07z M48.55,3.92h0.3c0-0.05-0.02-0.08-0.03-0.1
			c-0.03-0.04-0.07-0.05-0.11-0.05c-0.04,0-0.08,0.01-0.11,0.04S48.55,3.88,48.55,3.92z"/>
		<path class="st6" d="M49.06,4.25V3.71h0.08v0.08c0.04-0.06,0.1-0.09,0.17-0.09c0.03,0,0.06,0.01,0.09,0.02s0.05,0.03,0.06,0.05
			S49.5,3.8,49.5,3.83c0,0.02,0.01,0.05,0.01,0.09v0.33h-0.09V3.92c0-0.04,0-0.07-0.01-0.08s-0.02-0.03-0.04-0.04
			c-0.02-0.01-0.04-0.02-0.06-0.02c-0.04,0-0.07,0.01-0.1,0.04c-0.03,0.02-0.04,0.07-0.04,0.14v0.3H49.06z"/>
		<path class="st6" d="M50,4.05l0.09,0.01c-0.01,0.06-0.04,0.11-0.08,0.15c-0.04,0.04-0.09,0.05-0.15,0.05
			c-0.07,0-0.13-0.02-0.18-0.07c-0.05-0.05-0.07-0.12-0.07-0.21c0-0.06,0.01-0.11,0.03-0.15c0.02-0.04,0.05-0.08,0.09-0.1
			c0.04-0.02,0.08-0.03,0.13-0.03c0.06,0,0.11,0.01,0.15,0.04c0.04,0.03,0.06,0.07,0.07,0.13L50,3.88
			c-0.01-0.04-0.02-0.06-0.05-0.08c-0.02-0.02-0.05-0.03-0.08-0.03c-0.05,0-0.08,0.02-0.11,0.05c-0.03,0.03-0.04,0.09-0.04,0.16
			c0,0.07,0.01,0.13,0.04,0.16c0.03,0.03,0.06,0.05,0.11,0.05c0.04,0,0.07-0.01,0.09-0.03C49.98,4.13,50,4.1,50,4.05z"/>
		<path class="st6" d="M50.17,3.6V3.5h0.09V3.6H50.17z M50.17,4.25V3.71h0.09v0.54H50.17z"/>
		<path class="st6" d="M50.37,3.98c0-0.1,0.03-0.18,0.08-0.22c0.05-0.04,0.1-0.06,0.17-0.06c0.08,0,0.14,0.02,0.18,0.07
			c0.05,0.05,0.07,0.12,0.07,0.2c0,0.07-0.01,0.12-0.03,0.17c-0.02,0.04-0.05,0.07-0.09,0.09c-0.04,0.02-0.08,0.03-0.13,0.03
			c-0.08,0-0.14-0.02-0.18-0.07S50.37,4.07,50.37,3.98z M50.47,3.98c0,0.07,0.02,0.12,0.05,0.16s0.07,0.05,0.11,0.05
			s0.08-0.02,0.11-0.05c0.03-0.04,0.05-0.09,0.05-0.16c0-0.07-0.02-0.12-0.05-0.15s-0.07-0.05-0.11-0.05
			c-0.05,0-0.08,0.02-0.11,0.05C50.48,3.86,50.47,3.91,50.47,3.98z M50.58,3.64l0.07-0.14h0.12l-0.11,0.14H50.58z"/>
		<path class="st6" d="M50.99,4.25V3.71h0.08v0.08c0.04-0.06,0.1-0.09,0.17-0.09c0.03,0,0.06,0.01,0.09,0.02s0.05,0.03,0.06,0.05
			s0.02,0.04,0.03,0.07c0,0.02,0.01,0.05,0.01,0.09v0.33h-0.09V3.92c0-0.04,0-0.07-0.01-0.08c-0.01-0.02-0.02-0.03-0.04-0.04
			c-0.02-0.01-0.04-0.02-0.06-0.02c-0.04,0-0.07,0.01-0.1,0.04s-0.04,0.07-0.04,0.14v0.3H50.99z"/>
		<path class="st6" d="M52.09,4.25L51.8,3.5h0.11l0.2,0.55c0.02,0.04,0.03,0.08,0.04,0.12c0.01-0.04,0.02-0.08,0.04-0.12l0.2-0.55
			h0.1l-0.29,0.75H52.09z"/>
		<path class="st6" d="M52.85,4.46l-0.01-0.09c0.02,0.01,0.04,0.01,0.05,0.01c0.02,0,0.04,0,0.05-0.01
			c0.01-0.01,0.02-0.02,0.03-0.03c0.01-0.01,0.02-0.03,0.03-0.07c0,0,0-0.01,0.01-0.02L52.8,3.71h0.1l0.11,0.32
			c0.01,0.04,0.03,0.08,0.04,0.13c0.01-0.04,0.02-0.08,0.04-0.12l0.12-0.32h0.09L53.1,4.26c-0.02,0.06-0.04,0.1-0.05,0.12
			c-0.02,0.03-0.04,0.05-0.06,0.07s-0.05,0.02-0.08,0.02C52.89,4.47,52.88,4.47,52.85,4.46z"/>
		<path class="st6" d="M53.68,4.25V3.5h0.15l0.18,0.53c0.02,0.05,0.03,0.09,0.04,0.11c0.01-0.03,0.02-0.07,0.04-0.12l0.18-0.52h0.13
			v0.75h-0.1V3.62l-0.22,0.63H54l-0.22-0.64v0.64H53.68z"/>
		<path class="st6" d="M54.57,3.81v-0.1h0.11v0.1H54.57z M54.57,4.25v-0.1h0.11v0.1H54.57z"/>
		<path class="st6" d="M44.23,5.35V4.6h0.54v0.09h-0.44v0.23h0.42V5h-0.42v0.26h0.46v0.09H44.23z"/>
		<path class="st6" d="M45.27,5.35V5.28c-0.03,0.05-0.08,0.08-0.15,0.08c-0.04,0-0.08-0.01-0.12-0.04c-0.04-0.02-0.06-0.06-0.08-0.1
			c-0.02-0.04-0.03-0.09-0.03-0.15c0-0.05,0.01-0.1,0.03-0.15c0.02-0.04,0.05-0.08,0.08-0.1s0.08-0.04,0.12-0.04
			c0.03,0,0.06,0.01,0.09,0.02c0.03,0.01,0.05,0.03,0.06,0.05V4.6h0.09v0.75H45.27z M44.98,5.08c0,0.07,0.01,0.12,0.04,0.16
			c0.03,0.03,0.06,0.05,0.1,0.05c0.04,0,0.07-0.02,0.1-0.05c0.03-0.03,0.04-0.08,0.04-0.15c0-0.07-0.01-0.13-0.04-0.16
			c-0.03-0.03-0.06-0.05-0.11-0.05c-0.04,0-0.08,0.02-0.1,0.05C44.99,4.95,44.98,5.01,44.98,5.08z"/>
		<path class="st6" d="M45.86,5.35V5.27c-0.04,0.06-0.1,0.09-0.17,0.09c-0.03,0-0.06-0.01-0.09-0.02c-0.03-0.01-0.05-0.03-0.06-0.05
			c-0.01-0.02-0.02-0.04-0.03-0.07c0-0.02-0.01-0.05-0.01-0.09V4.81h0.09v0.3c0,0.05,0,0.08,0.01,0.1c0.01,0.02,0.02,0.04,0.04,0.06
			c0.02,0.01,0.04,0.02,0.07,0.02c0.03,0,0.05-0.01,0.08-0.02s0.04-0.03,0.05-0.06c0.01-0.02,0.02-0.06,0.02-0.11V4.81h0.09v0.54
			H45.86z"/>
		<path class="st6" d="M46.44,5.15l0.09,0.01c-0.01,0.06-0.04,0.11-0.08,0.15c-0.04,0.04-0.09,0.05-0.15,0.05
			c-0.07,0-0.13-0.02-0.18-0.07c-0.05-0.05-0.07-0.12-0.07-0.21c0-0.06,0.01-0.11,0.03-0.15c0.02-0.04,0.05-0.08,0.09-0.1
			c0.04-0.02,0.08-0.03,0.13-0.03c0.06,0,0.11,0.01,0.15,0.04c0.04,0.03,0.06,0.07,0.07,0.13l-0.09,0.01
			c-0.01-0.04-0.02-0.06-0.05-0.08c-0.02-0.02-0.05-0.03-0.08-0.03c-0.05,0-0.08,0.02-0.11,0.05C46.17,4.95,46.15,5,46.15,5.08
			c0,0.07,0.01,0.13,0.04,0.16c0.03,0.03,0.06,0.05,0.11,0.05c0.04,0,0.07-0.01,0.09-0.03C46.42,5.23,46.44,5.2,46.44,5.15z"/>
		<path class="st6" d="M46.97,5.28c-0.03,0.03-0.07,0.05-0.1,0.06c-0.03,0.01-0.07,0.02-0.1,0.02c-0.06,0-0.11-0.01-0.14-0.04
			c-0.03-0.03-0.05-0.07-0.05-0.11c0-0.03,0.01-0.05,0.02-0.07c0.01-0.02,0.03-0.04,0.05-0.05c0.02-0.01,0.04-0.02,0.07-0.03
			c0.02,0,0.05-0.01,0.08-0.01c0.07-0.01,0.13-0.02,0.16-0.03c0-0.01,0-0.02,0-0.02c0-0.04-0.01-0.06-0.03-0.08
			c-0.02-0.02-0.06-0.03-0.1-0.03c-0.04,0-0.08,0.01-0.1,0.02s-0.04,0.04-0.05,0.08L46.6,4.96c0.01-0.04,0.02-0.07,0.04-0.09
			c0.02-0.02,0.05-0.04,0.08-0.05s0.08-0.02,0.12-0.02c0.05,0,0.08,0.01,0.11,0.02c0.03,0.01,0.05,0.02,0.06,0.04
			s0.02,0.04,0.03,0.06c0,0.02,0,0.04,0,0.09v0.12c0,0.09,0,0.14,0.01,0.16c0,0.02,0.01,0.04,0.02,0.07h-0.1
			C46.98,5.33,46.97,5.31,46.97,5.28z M46.96,5.08c-0.03,0.01-0.08,0.03-0.15,0.04c-0.04,0.01-0.06,0.01-0.08,0.02
			s-0.03,0.02-0.04,0.03c-0.01,0.01-0.01,0.03-0.01,0.04c0,0.02,0.01,0.04,0.03,0.06c0.02,0.02,0.05,0.02,0.08,0.02
			c0.04,0,0.07-0.01,0.09-0.02c0.03-0.02,0.05-0.04,0.06-0.06c0.01-0.02,0.02-0.05,0.02-0.09V5.08z"/>
		<path class="st6" d="M47.55,5.15l0.09,0.01c-0.01,0.06-0.04,0.11-0.08,0.15c-0.04,0.04-0.09,0.05-0.15,0.05
			c-0.07,0-0.13-0.02-0.18-0.07c-0.05-0.05-0.07-0.12-0.07-0.21c0-0.06,0.01-0.11,0.03-0.15c0.02-0.04,0.05-0.08,0.09-0.1
			c0.04-0.02,0.08-0.03,0.13-0.03c0.06,0,0.11,0.01,0.15,0.04c0.04,0.03,0.06,0.07,0.07,0.13l-0.09,0.01
			c-0.01-0.04-0.02-0.06-0.05-0.08c-0.02-0.02-0.05-0.03-0.08-0.03c-0.05,0-0.08,0.02-0.11,0.05C47.28,4.95,47.26,5,47.26,5.08
			c0,0.07,0.01,0.13,0.04,0.16c0.03,0.03,0.06,0.05,0.11,0.05c0.04,0,0.07-0.01,0.09-0.03C47.53,5.23,47.54,5.2,47.55,5.15z"/>
		<path class="st6" d="M47.72,4.7V4.6h0.09V4.7H47.72z M47.72,5.35V4.81h0.09v0.54H47.72z"/>
		<path class="st6" d="M47.92,5.08c0-0.1,0.03-0.18,0.08-0.22c0.05-0.04,0.1-0.06,0.17-0.06c0.08,0,0.14,0.02,0.18,0.07
			c0.05,0.05,0.07,0.12,0.07,0.2c0,0.07-0.01,0.12-0.03,0.17c-0.02,0.04-0.05,0.07-0.09,0.09c-0.04,0.02-0.08,0.03-0.13,0.03
			c-0.08,0-0.14-0.02-0.18-0.07S47.92,5.17,47.92,5.08z M48.02,5.08c0,0.07,0.02,0.12,0.05,0.16s0.07,0.05,0.11,0.05
			s0.08-0.02,0.11-0.05c0.03-0.04,0.05-0.09,0.05-0.16c0-0.07-0.02-0.12-0.05-0.15s-0.07-0.05-0.11-0.05
			c-0.05,0-0.08,0.02-0.11,0.05C48.03,4.96,48.02,5.01,48.02,5.08z M48.12,4.74l0.07-0.14h0.12L48.2,4.74H48.12z"/>
		<path class="st6" d="M48.54,5.35V4.81h0.08v0.08c0.04-0.06,0.1-0.09,0.17-0.09c0.03,0,0.06,0.01,0.09,0.02s0.05,0.03,0.06,0.05
			s0.02,0.04,0.03,0.07c0,0.02,0.01,0.05,0.01,0.09v0.33h-0.09V5.02c0-0.04,0-0.07-0.01-0.08s-0.02-0.03-0.04-0.04
			c-0.02-0.01-0.04-0.02-0.06-0.02c-0.04,0-0.07,0.01-0.1,0.04c-0.03,0.02-0.04,0.07-0.04,0.14v0.3H48.54z"/>
		<path class="st6" d="M49.62,5.27l0.01,0.08c-0.03,0.01-0.05,0.01-0.07,0.01c-0.03,0-0.06-0.01-0.08-0.02s-0.03-0.02-0.04-0.04
			c-0.01-0.02-0.01-0.05-0.01-0.11V4.88h-0.07V4.81h0.07V4.67l0.09-0.06v0.19h0.09v0.07h-0.09V5.2c0,0.03,0,0.04,0,0.05
			c0,0.01,0.01,0.01,0.02,0.02s0.02,0.01,0.03,0.01C49.58,5.27,49.6,5.27,49.62,5.27z"/>
		<path class="st6" d="M49.71,4.7V4.6h0.09V4.7H49.71z M49.71,5.35V4.81h0.09v0.54H49.71z"/>
		<path class="st6" d="M49.94,5.56V4.81h0.08v0.07c0.02-0.03,0.04-0.05,0.07-0.06c0.03-0.01,0.06-0.02,0.09-0.02
			c0.05,0,0.09,0.01,0.12,0.04c0.04,0.02,0.06,0.06,0.08,0.1c0.02,0.04,0.03,0.09,0.03,0.14c0,0.06-0.01,0.11-0.03,0.15
			c-0.02,0.04-0.05,0.08-0.09,0.1c-0.04,0.02-0.08,0.04-0.12,0.04c-0.03,0-0.06-0.01-0.08-0.02c-0.02-0.01-0.04-0.03-0.06-0.05v0.26
			H49.94z M50.02,5.08c0,0.07,0.01,0.12,0.04,0.16s0.06,0.05,0.1,0.05c0.04,0,0.08-0.02,0.11-0.05s0.04-0.09,0.04-0.16
			c0-0.07-0.01-0.12-0.04-0.16s-0.06-0.05-0.1-0.05s-0.07,0.02-0.1,0.06C50.04,4.96,50.02,5.01,50.02,5.08z"/>
		<path class="st6" d="M50.49,5.08c0-0.1,0.03-0.18,0.08-0.22c0.05-0.04,0.1-0.06,0.17-0.06c0.08,0,0.14,0.02,0.18,0.07
			C50.97,4.92,51,4.98,51,5.07c0,0.07-0.01,0.12-0.03,0.17c-0.02,0.04-0.05,0.07-0.09,0.09c-0.04,0.02-0.08,0.03-0.13,0.03
			c-0.08,0-0.14-0.02-0.18-0.07S50.49,5.17,50.49,5.08z M50.58,5.08c0,0.07,0.02,0.12,0.05,0.16s0.07,0.05,0.11,0.05
			s0.08-0.02,0.11-0.05c0.03-0.04,0.05-0.09,0.05-0.16c0-0.07-0.02-0.12-0.05-0.15s-0.07-0.05-0.11-0.05
			c-0.05,0-0.08,0.02-0.11,0.05C50.6,4.96,50.58,5.01,50.58,5.08z"/>
		<path class="st6" d="M51.09,5.39l0.09,0.01c0,0.03,0.01,0.05,0.03,0.06c0.02,0.02,0.05,0.03,0.09,0.03c0.04,0,0.08-0.01,0.1-0.03
			c0.02-0.02,0.04-0.04,0.05-0.07c0-0.02,0.01-0.06,0.01-0.12c-0.04,0.05-0.09,0.07-0.15,0.07c-0.07,0-0.13-0.03-0.17-0.08
			c-0.04-0.05-0.06-0.12-0.06-0.19c0-0.05,0.01-0.1,0.03-0.14c0.02-0.04,0.05-0.08,0.08-0.1s0.08-0.04,0.13-0.04
			c0.06,0,0.12,0.03,0.16,0.08V4.81h0.08v0.47c0,0.08-0.01,0.14-0.03,0.18c-0.02,0.04-0.04,0.06-0.08,0.08
			c-0.04,0.02-0.08,0.03-0.14,0.03c-0.07,0-0.12-0.01-0.16-0.04S51.09,5.45,51.09,5.39z M51.17,5.07c0,0.07,0.01,0.12,0.04,0.16
			s0.06,0.05,0.11,0.05c0.04,0,0.08-0.02,0.11-0.05c0.03-0.03,0.04-0.08,0.04-0.15c0-0.07-0.02-0.12-0.04-0.15s-0.07-0.05-0.11-0.05
			s-0.08,0.02-0.1,0.05C51.18,4.95,51.17,5,51.17,5.07z"/>
		<path class="st6" d="M51.69,5.35V4.81h0.08v0.08c0.02-0.04,0.04-0.06,0.06-0.08c0.02-0.01,0.04-0.02,0.06-0.02
			c0.03,0,0.06,0.01,0.09,0.03l-0.03,0.09c-0.02-0.01-0.04-0.02-0.07-0.02c-0.02,0-0.04,0.01-0.05,0.02S51.8,4.94,51.8,4.96
			c-0.01,0.03-0.02,0.07-0.02,0.11v0.29H51.69z"/>
		<path class="st6" d="M52.4,5.28c-0.03,0.03-0.07,0.05-0.1,0.06c-0.03,0.01-0.07,0.02-0.1,0.02c-0.06,0-0.11-0.01-0.14-0.04
			c-0.03-0.03-0.05-0.07-0.05-0.11c0-0.03,0.01-0.05,0.02-0.07c0.01-0.02,0.03-0.04,0.05-0.05c0.02-0.01,0.04-0.02,0.07-0.03
			c0.02,0,0.05-0.01,0.08-0.01C52.3,5.03,52.35,5.02,52.39,5c0-0.01,0-0.02,0-0.02c0-0.04-0.01-0.06-0.03-0.08
			c-0.02-0.02-0.06-0.03-0.1-0.03c-0.04,0-0.08,0.01-0.1,0.02s-0.04,0.04-0.05,0.08l-0.09-0.01c0.01-0.04,0.02-0.07,0.04-0.09
			c0.02-0.02,0.05-0.04,0.08-0.05c0.04-0.01,0.08-0.02,0.12-0.02s0.08,0.01,0.11,0.02c0.03,0.01,0.05,0.02,0.06,0.04
			s0.02,0.04,0.03,0.06c0,0.02,0,0.04,0,0.09v0.12c0,0.09,0,0.14,0.01,0.16c0,0.02,0.01,0.04,0.02,0.07h-0.1
			C52.41,5.33,52.4,5.31,52.4,5.28z M52.39,5.08c-0.03,0.01-0.08,0.03-0.15,0.04c-0.04,0.01-0.06,0.01-0.08,0.02
			s-0.03,0.02-0.04,0.03c-0.01,0.01-0.01,0.03-0.01,0.04c0,0.02,0.01,0.04,0.03,0.06c0.02,0.02,0.05,0.02,0.08,0.02
			c0.04,0,0.07-0.01,0.09-0.02c0.03-0.02,0.05-0.04,0.06-0.06c0.01-0.02,0.02-0.05,0.02-0.09V5.08z M52.21,4.74l0.07-0.14h0.12
			l-0.11,0.14H52.21z"/>
		<path class="st6" d="M52.65,5.35V4.88h-0.08V4.81h0.08V4.75c0-0.04,0-0.06,0.01-0.08c0.01-0.02,0.02-0.04,0.05-0.06
			c0.02-0.01,0.05-0.02,0.09-0.02c0.03,0,0.05,0,0.09,0.01l-0.01,0.08c-0.02,0-0.04,0-0.05,0c-0.03,0-0.05,0.01-0.06,0.02
			c-0.01,0.01-0.02,0.03-0.02,0.07v0.05h0.11v0.07h-0.11v0.47H52.65z"/>
		<path class="st6" d="M52.92,4.7V4.6h0.09V4.7H52.92z M52.92,5.35V4.81h0.09v0.54H52.92z"/>
		<path class="st6" d="M53.5,5.15l0.09,0.01c-0.01,0.06-0.04,0.11-0.08,0.15c-0.04,0.04-0.09,0.05-0.15,0.05
			c-0.07,0-0.13-0.02-0.18-0.07c-0.05-0.05-0.07-0.12-0.07-0.21c0-0.06,0.01-0.11,0.03-0.15c0.02-0.04,0.05-0.08,0.09-0.1
			c0.04-0.02,0.08-0.03,0.13-0.03c0.06,0,0.11,0.01,0.15,0.04c0.04,0.03,0.06,0.07,0.07,0.13L53.5,4.98
			c-0.01-0.04-0.02-0.06-0.04-0.08s-0.05-0.03-0.08-0.03c-0.05,0-0.08,0.02-0.11,0.05C53.23,4.95,53.22,5,53.22,5.08
			c0,0.07,0.01,0.13,0.04,0.16c0.03,0.03,0.07,0.05,0.11,0.05c0.04,0,0.07-0.01,0.09-0.03C53.48,5.23,53.5,5.2,53.5,5.15z"/>
		<path class="st6" d="M54.03,5.28c-0.03,0.03-0.07,0.05-0.1,0.06c-0.03,0.01-0.07,0.02-0.1,0.02c-0.06,0-0.11-0.01-0.14-0.04
			c-0.03-0.03-0.05-0.07-0.05-0.11c0-0.03,0.01-0.05,0.02-0.07c0.01-0.02,0.03-0.04,0.05-0.05c0.02-0.01,0.04-0.02,0.07-0.03
			c0.02,0,0.05-0.01,0.08-0.01c0.08-0.01,0.13-0.02,0.17-0.03c0-0.01,0-0.02,0-0.02c0-0.04-0.01-0.06-0.03-0.08
			c-0.02-0.02-0.06-0.03-0.11-0.03c-0.04,0-0.08,0.01-0.1,0.02c-0.02,0.02-0.04,0.04-0.05,0.08l-0.09-0.01
			c0.01-0.04,0.02-0.07,0.04-0.09c0.02-0.02,0.05-0.04,0.08-0.05s0.08-0.02,0.12-0.02c0.05,0,0.08,0.01,0.11,0.02
			c0.03,0.01,0.05,0.02,0.06,0.04s0.02,0.04,0.03,0.06c0,0.02,0,0.04,0,0.09v0.12c0,0.09,0,0.14,0.01,0.16
			c0,0.02,0.01,0.04,0.02,0.07h-0.1C54.04,5.33,54.03,5.31,54.03,5.28z M54.02,5.08c-0.03,0.01-0.08,0.03-0.15,0.04
			c-0.04,0.01-0.06,0.01-0.08,0.02s-0.03,0.02-0.04,0.03s-0.01,0.03-0.01,0.04c0,0.02,0.01,0.04,0.03,0.06
			c0.02,0.02,0.05,0.02,0.08,0.02c0.04,0,0.07-0.01,0.09-0.02c0.03-0.02,0.05-0.04,0.06-0.06c0.01-0.02,0.01-0.05,0.01-0.09V5.08z"
			/>
	</g>
</g>
<g>
	<g>
		<path class="st6" d="M41.85,11.03l0.09-0.01c0,0.04,0.01,0.07,0.03,0.09c0.02,0.02,0.04,0.04,0.08,0.06s0.07,0.02,0.12,0.02
			c0.04,0,0.07-0.01,0.1-0.02c0.03-0.01,0.05-0.03,0.06-0.05s0.02-0.04,0.02-0.06s-0.01-0.04-0.02-0.06s-0.04-0.03-0.07-0.04
			c-0.02-0.01-0.06-0.02-0.13-0.04s-0.12-0.03-0.15-0.05c-0.04-0.02-0.06-0.04-0.08-0.07c-0.02-0.03-0.03-0.06-0.03-0.09
			c0-0.04,0.01-0.07,0.03-0.11c0.02-0.03,0.05-0.06,0.09-0.08c0.04-0.02,0.09-0.03,0.14-0.03c0.06,0,0.1,0.01,0.15,0.03
			c0.04,0.02,0.08,0.04,0.1,0.08c0.02,0.03,0.04,0.07,0.04,0.12l-0.1,0.01c0-0.05-0.02-0.08-0.05-0.11
			c-0.03-0.02-0.07-0.04-0.13-0.04c-0.06,0-0.1,0.01-0.13,0.03c-0.03,0.02-0.04,0.05-0.04,0.08c0,0.03,0.01,0.05,0.03,0.07
			c0.02,0.02,0.07,0.04,0.15,0.05c0.08,0.02,0.14,0.03,0.17,0.05c0.04,0.02,0.08,0.05,0.1,0.08c0.02,0.03,0.03,0.07,0.03,0.11
			c0,0.04-0.01,0.08-0.03,0.11c-0.02,0.04-0.06,0.06-0.1,0.08c-0.04,0.02-0.09,0.03-0.14,0.03c-0.07,0-0.12-0.01-0.17-0.03
			c-0.05-0.02-0.08-0.05-0.11-0.09C41.87,11.13,41.86,11.08,41.85,11.03z"/>
		<path class="st6" d="M42.95,11.1l0.1,0.01c-0.01,0.06-0.04,0.1-0.08,0.13c-0.04,0.03-0.09,0.05-0.16,0.05
			c-0.08,0-0.14-0.02-0.19-0.07c-0.05-0.05-0.07-0.12-0.07-0.21c0-0.09,0.02-0.16,0.07-0.21c0.05-0.05,0.11-0.08,0.18-0.08
			c0.07,0,0.13,0.02,0.18,0.07c0.05,0.05,0.07,0.12,0.07,0.21c0,0.01,0,0.01,0,0.03h-0.41c0,0.06,0.02,0.11,0.05,0.14
			s0.07,0.05,0.11,0.05c0.03,0,0.06-0.01,0.09-0.03S42.94,11.14,42.95,11.1z M42.65,10.95h0.3c0-0.05-0.02-0.08-0.03-0.1
			c-0.03-0.04-0.07-0.05-0.11-0.05c-0.04,0-0.08,0.01-0.11,0.04S42.65,10.9,42.65,10.95z"/>
		<path class="st6" d="M43.16,11.28v-0.54h0.08v0.08c0.02-0.03,0.04-0.05,0.07-0.06c0.03-0.02,0.06-0.02,0.1-0.02
			c0.04,0,0.07,0.01,0.1,0.02c0.03,0.02,0.04,0.04,0.05,0.07c0.04-0.06,0.1-0.1,0.17-0.1c0.05,0,0.1,0.01,0.12,0.04
			c0.03,0.03,0.04,0.08,0.04,0.14v0.37h-0.09v-0.34c0-0.04,0-0.06-0.01-0.08c-0.01-0.02-0.02-0.03-0.03-0.04
			c-0.02-0.01-0.03-0.01-0.06-0.01c-0.04,0-0.07,0.01-0.1,0.04s-0.04,0.07-0.04,0.12v0.32h-0.09v-0.35c0-0.04-0.01-0.07-0.02-0.09
			c-0.02-0.02-0.04-0.03-0.07-0.03c-0.03,0-0.05,0.01-0.07,0.02c-0.02,0.01-0.04,0.03-0.05,0.06s-0.01,0.06-0.01,0.11v0.28H43.16z"
			/>
		<path class="st6" d="M44.04,10.63v-0.11h0.09v0.11H44.04z M44.04,11.28v-0.54h0.09v0.54H44.04z"/>
		<path class="st6" d="M44.27,11.28v-0.54h0.08v0.08c0.04-0.06,0.1-0.09,0.17-0.09c0.03,0,0.06,0.01,0.09,0.02s0.05,0.03,0.06,0.05
			c0.01,0.02,0.02,0.04,0.03,0.07c0,0.02,0.01,0.05,0.01,0.09v0.33h-0.09v-0.33c0-0.04,0-0.07-0.01-0.08
			c-0.01-0.02-0.02-0.03-0.04-0.04c-0.02-0.01-0.04-0.02-0.06-0.02c-0.04,0-0.07,0.01-0.1,0.04c-0.03,0.03-0.04,0.07-0.04,0.14v0.3
			H44.27z"/>
		<path class="st6" d="M45.21,11.21c-0.03,0.03-0.07,0.05-0.1,0.06c-0.03,0.01-0.07,0.02-0.1,0.02c-0.06,0-0.11-0.01-0.14-0.04
			c-0.03-0.03-0.05-0.07-0.05-0.11c0-0.03,0.01-0.05,0.02-0.07c0.01-0.02,0.03-0.04,0.05-0.05c0.02-0.01,0.04-0.02,0.07-0.03
			c0.02,0,0.05-0.01,0.08-0.01c0.07-0.01,0.13-0.02,0.16-0.03c0-0.01,0-0.02,0-0.02c0-0.04-0.01-0.06-0.03-0.08
			c-0.02-0.02-0.06-0.03-0.1-0.03c-0.04,0-0.08,0.01-0.1,0.02c-0.02,0.01-0.04,0.04-0.05,0.08l-0.09-0.01
			c0.01-0.04,0.02-0.07,0.04-0.09c0.02-0.02,0.05-0.04,0.08-0.06c0.04-0.01,0.08-0.02,0.12-0.02c0.05,0,0.08,0.01,0.11,0.02
			c0.03,0.01,0.05,0.02,0.06,0.04s0.02,0.04,0.03,0.06c0,0.02,0,0.04,0,0.08v0.12c0,0.09,0,0.14,0.01,0.16s0.01,0.04,0.02,0.07h-0.1
			C45.22,11.26,45.21,11.24,45.21,11.21z M45.2,11c-0.03,0.01-0.08,0.03-0.15,0.04c-0.04,0.01-0.06,0.01-0.08,0.02
			s-0.03,0.02-0.04,0.03c-0.01,0.01-0.01,0.03-0.01,0.04c0,0.03,0.01,0.04,0.03,0.06c0.02,0.02,0.05,0.02,0.08,0.02
			c0.04,0,0.07-0.01,0.09-0.02c0.03-0.01,0.05-0.04,0.06-0.06c0.01-0.02,0.02-0.05,0.02-0.09V11z"/>
		<path class="st6" d="M45.44,11.28v-0.54h0.08v0.08c0.02-0.04,0.04-0.06,0.06-0.08s0.04-0.02,0.06-0.02c0.03,0,0.06,0.01,0.09,0.03
			l-0.03,0.09c-0.02-0.01-0.04-0.02-0.07-0.02c-0.02,0-0.04,0.01-0.05,0.02c-0.02,0.01-0.03,0.03-0.03,0.05
			c-0.01,0.03-0.02,0.07-0.02,0.11v0.29H45.44z"/>
		<path class="st6" d="M45.79,10.63v-0.11h0.09v0.11H45.79z M45.79,11.28v-0.54h0.09v0.54H45.79z"/>
		<path class="st6" d="M45.99,11c0-0.1,0.03-0.17,0.08-0.22c0.05-0.04,0.1-0.06,0.17-0.06c0.08,0,0.14,0.02,0.18,0.07
			c0.05,0.05,0.07,0.12,0.07,0.2c0,0.07-0.01,0.12-0.03,0.16c-0.02,0.04-0.05,0.07-0.09,0.09c-0.04,0.02-0.08,0.03-0.13,0.03
			c-0.08,0-0.14-0.02-0.18-0.07S45.99,11.1,45.99,11z M46.08,11c0,0.07,0.02,0.12,0.05,0.16c0.03,0.03,0.07,0.05,0.11,0.05
			s0.08-0.02,0.11-0.05c0.03-0.04,0.05-0.09,0.05-0.16c0-0.07-0.02-0.12-0.05-0.15c-0.03-0.04-0.07-0.05-0.11-0.05
			c-0.05,0-0.08,0.02-0.11,0.05S46.08,10.93,46.08,11z"/>
		<path class="st6" d="M47.25,11.28v-0.07c-0.03,0.05-0.08,0.08-0.15,0.08c-0.04,0-0.08-0.01-0.12-0.04
			c-0.04-0.02-0.06-0.06-0.08-0.1c-0.02-0.04-0.03-0.09-0.03-0.15c0-0.05,0.01-0.1,0.03-0.15c0.02-0.04,0.05-0.08,0.08-0.1
			s0.08-0.04,0.12-0.04c0.03,0,0.06,0.01,0.09,0.02c0.03,0.01,0.05,0.03,0.06,0.05v-0.27h0.09v0.75H47.25z M46.96,11
			c0,0.07,0.01,0.12,0.04,0.16c0.03,0.03,0.06,0.05,0.1,0.05c0.04,0,0.07-0.02,0.1-0.05c0.03-0.03,0.04-0.08,0.04-0.15
			c0-0.07-0.01-0.13-0.04-0.16s-0.06-0.05-0.11-0.05c-0.04,0-0.08,0.02-0.1,0.05C46.97,10.88,46.96,10.93,46.96,11z"/>
		<path class="st6" d="M47.85,11.1l0.1,0.01c-0.01,0.06-0.04,0.1-0.08,0.13c-0.04,0.03-0.09,0.05-0.16,0.05
			c-0.08,0-0.14-0.02-0.19-0.07c-0.05-0.05-0.07-0.12-0.07-0.21c0-0.09,0.02-0.16,0.07-0.21c0.05-0.05,0.11-0.08,0.18-0.08
			c0.07,0,0.13,0.02,0.18,0.07c0.05,0.05,0.07,0.12,0.07,0.21c0,0.01,0,0.01,0,0.03h-0.41c0,0.06,0.02,0.11,0.05,0.14
			s0.07,0.05,0.11,0.05c0.03,0,0.06-0.01,0.09-0.03S47.84,11.14,47.85,11.1z M47.55,10.95h0.3c0-0.05-0.02-0.08-0.03-0.1
			c-0.03-0.04-0.07-0.05-0.11-0.05c-0.04,0-0.08,0.01-0.11,0.04S47.55,10.9,47.55,10.95z"/>
		<path class="st6" d="M48.36,11.28v-0.75h0.1v0.66h0.37v0.09H48.36z"/>
		<path class="st6" d="M48.94,10.63v-0.11h0.09v0.11H48.94z M48.94,11.28v-0.54h0.09v0.54H48.94z"/>
		<path class="st6" d="M49.53,11.08l0.09,0.01c-0.01,0.06-0.04,0.11-0.08,0.15c-0.04,0.04-0.09,0.05-0.15,0.05
			c-0.07,0-0.13-0.02-0.18-0.07s-0.07-0.12-0.07-0.21c0-0.06,0.01-0.11,0.03-0.15c0.02-0.04,0.05-0.08,0.09-0.1
			c0.04-0.02,0.08-0.03,0.13-0.03c0.06,0,0.11,0.01,0.15,0.04c0.04,0.03,0.06,0.07,0.07,0.13l-0.09,0.01
			c-0.01-0.04-0.02-0.06-0.05-0.08c-0.02-0.02-0.05-0.03-0.08-0.03c-0.05,0-0.08,0.02-0.11,0.05c-0.03,0.03-0.04,0.09-0.04,0.16
			c0,0.07,0.01,0.13,0.04,0.16c0.03,0.03,0.06,0.05,0.11,0.05c0.04,0,0.07-0.01,0.09-0.03S49.52,11.12,49.53,11.08z"/>
		<path class="st6" d="M50.07,11.1l0.1,0.01c-0.01,0.06-0.04,0.1-0.08,0.13c-0.04,0.03-0.09,0.05-0.16,0.05
			c-0.08,0-0.14-0.02-0.19-0.07c-0.05-0.05-0.07-0.12-0.07-0.21c0-0.09,0.02-0.16,0.07-0.21c0.05-0.05,0.11-0.08,0.18-0.08
			c0.07,0,0.13,0.02,0.18,0.07c0.05,0.05,0.07,0.12,0.07,0.21c0,0.01,0,0.01,0,0.03h-0.41c0,0.06,0.02,0.11,0.05,0.14
			s0.07,0.05,0.11,0.05c0.03,0,0.06-0.01,0.09-0.03S50.06,11.14,50.07,11.1z M49.77,10.95h0.3c0-0.05-0.02-0.08-0.03-0.1
			c-0.03-0.04-0.07-0.05-0.11-0.05c-0.04,0-0.08,0.01-0.11,0.04S49.77,10.9,49.77,10.95z"/>
		<path class="st6" d="M50.28,11.28v-0.54h0.08v0.08c0.04-0.06,0.1-0.09,0.17-0.09c0.03,0,0.06,0.01,0.09,0.02s0.05,0.03,0.06,0.05
			c0.01,0.02,0.02,0.04,0.03,0.07c0,0.02,0.01,0.05,0.01,0.09v0.33h-0.09v-0.33c0-0.04,0-0.07-0.01-0.08
			c-0.01-0.02-0.02-0.03-0.04-0.04c-0.02-0.01-0.04-0.02-0.06-0.02c-0.04,0-0.07,0.01-0.1,0.04c-0.03,0.03-0.04,0.07-0.04,0.14v0.3
			H50.28z"/>
		<path class="st6" d="M51.22,11.08l0.09,0.01c-0.01,0.06-0.04,0.11-0.08,0.15s-0.09,0.05-0.15,0.05c-0.07,0-0.13-0.02-0.18-0.07
			s-0.07-0.12-0.07-0.21c0-0.06,0.01-0.11,0.03-0.15c0.02-0.04,0.05-0.08,0.09-0.1c0.04-0.02,0.08-0.03,0.13-0.03
			c0.06,0,0.11,0.01,0.15,0.04c0.04,0.03,0.06,0.07,0.07,0.13l-0.09,0.01c-0.01-0.04-0.02-0.06-0.04-0.08
			c-0.02-0.02-0.05-0.03-0.08-0.03c-0.05,0-0.08,0.02-0.11,0.05c-0.03,0.03-0.04,0.09-0.04,0.16c0,0.07,0.01,0.13,0.04,0.16
			c0.03,0.03,0.07,0.05,0.11,0.05c0.04,0,0.07-0.01,0.09-0.03S51.21,11.12,51.22,11.08z"/>
		<path class="st6" d="M51.39,10.63v-0.11h0.09v0.11H51.39z M51.39,11.28v-0.54h0.09v0.54H51.39z"/>
		<path class="st6" d="M51.98,11.21c-0.03,0.03-0.07,0.05-0.1,0.06c-0.03,0.01-0.07,0.02-0.1,0.02c-0.06,0-0.11-0.01-0.14-0.04
			s-0.05-0.07-0.05-0.11c0-0.03,0.01-0.05,0.02-0.07c0.01-0.02,0.03-0.04,0.05-0.05s0.04-0.02,0.07-0.03c0.02,0,0.05-0.01,0.08-0.01
			c0.07-0.01,0.13-0.02,0.17-0.03c0-0.01,0-0.02,0-0.02c0-0.04-0.01-0.06-0.03-0.08c-0.02-0.02-0.06-0.03-0.1-0.03
			c-0.04,0-0.08,0.01-0.1,0.02c-0.02,0.01-0.04,0.04-0.05,0.08l-0.09-0.01c0.01-0.04,0.02-0.07,0.04-0.09
			c0.02-0.02,0.05-0.04,0.08-0.06c0.04-0.01,0.08-0.02,0.12-0.02s0.08,0.01,0.11,0.02c0.03,0.01,0.05,0.02,0.06,0.04
			s0.02,0.04,0.03,0.06c0,0.02,0.01,0.04,0.01,0.08v0.12c0,0.09,0,0.14,0.01,0.16s0.01,0.04,0.02,0.07H52
			C51.99,11.26,51.98,11.24,51.98,11.21z M51.97,11c-0.03,0.01-0.08,0.03-0.15,0.04c-0.04,0.01-0.06,0.01-0.08,0.02
			s-0.03,0.02-0.04,0.03c-0.01,0.01-0.01,0.03-0.01,0.04c0,0.03,0.01,0.04,0.03,0.06c0.02,0.02,0.05,0.02,0.08,0.02
			c0.04,0,0.07-0.01,0.09-0.02c0.03-0.01,0.05-0.04,0.06-0.06c0.01-0.02,0.02-0.05,0.02-0.09V11z"/>
		<path class="st6" d="M52.41,11.19l0.01,0.08c-0.03,0.01-0.05,0.01-0.07,0.01c-0.03,0-0.06,0-0.08-0.02s-0.03-0.02-0.04-0.04
			c-0.01-0.02-0.01-0.05-0.01-0.11V10.8h-0.07v-0.07h0.07V10.6l0.09-0.06v0.19h0.09v0.07h-0.09v0.32c0,0.03,0,0.04,0,0.05
			s0.01,0.01,0.02,0.02c0.01,0,0.02,0.01,0.03,0.01C52.38,11.2,52.39,11.2,52.41,11.19z"/>
		<path class="st6" d="M52.86,11.28V11.2c-0.04,0.06-0.1,0.09-0.17,0.09c-0.03,0-0.06-0.01-0.09-0.02
			c-0.03-0.01-0.05-0.03-0.06-0.05c-0.01-0.02-0.02-0.04-0.03-0.07c0-0.02-0.01-0.05-0.01-0.09v-0.34h0.09v0.3
			c0,0.05,0,0.08,0.01,0.1c0.01,0.02,0.02,0.04,0.04,0.06s0.04,0.02,0.07,0.02c0.03,0,0.05-0.01,0.08-0.02
			c0.02-0.01,0.04-0.03,0.05-0.06c0.01-0.02,0.01-0.06,0.01-0.11v-0.29h0.09v0.54H52.86z"/>
		<path class="st6" d="M53.08,11.28v-0.54h0.08v0.08c0.02-0.04,0.04-0.06,0.06-0.08s0.04-0.02,0.06-0.02c0.03,0,0.06,0.01,0.09,0.03
			l-0.03,0.09c-0.02-0.01-0.04-0.02-0.07-0.02c-0.02,0-0.04,0.01-0.05,0.02c-0.02,0.01-0.03,0.03-0.03,0.05
			c-0.01,0.03-0.02,0.07-0.02,0.11v0.29H53.08z"/>
		<path class="st6" d="M53.79,11.21c-0.03,0.03-0.07,0.05-0.1,0.06c-0.03,0.01-0.07,0.02-0.1,0.02c-0.06,0-0.11-0.01-0.14-0.04
			s-0.05-0.07-0.05-0.11c0-0.03,0.01-0.05,0.02-0.07c0.01-0.02,0.03-0.04,0.05-0.05s0.04-0.02,0.07-0.03c0.02,0,0.05-0.01,0.08-0.01
			c0.08-0.01,0.13-0.02,0.17-0.03c0-0.01,0-0.02,0-0.02c0-0.04-0.01-0.06-0.03-0.08c-0.02-0.02-0.06-0.03-0.11-0.03
			c-0.04,0-0.08,0.01-0.1,0.02c-0.02,0.01-0.04,0.04-0.05,0.08l-0.09-0.01c0.01-0.04,0.02-0.07,0.04-0.09
			c0.02-0.02,0.05-0.04,0.08-0.06c0.04-0.01,0.08-0.02,0.12-0.02c0.05,0,0.08,0.01,0.11,0.02c0.03,0.01,0.05,0.02,0.06,0.04
			s0.02,0.04,0.03,0.06c0,0.02,0,0.04,0,0.08v0.12c0,0.09,0,0.14,0.01,0.16s0.01,0.04,0.02,0.07h-0.1
			C53.8,11.26,53.79,11.24,53.79,11.21z M53.78,11c-0.03,0.01-0.08,0.03-0.15,0.04c-0.04,0.01-0.06,0.01-0.08,0.02
			s-0.03,0.02-0.04,0.03c-0.01,0.01-0.01,0.03-0.01,0.04c0,0.03,0.01,0.04,0.03,0.06c0.02,0.02,0.05,0.02,0.08,0.02
			c0.04,0,0.07-0.01,0.09-0.02c0.03-0.01,0.05-0.04,0.06-0.06c0.01-0.02,0.01-0.05,0.01-0.09V11z"/>
		<path class="st6" d="M54.34,11.28v-0.75h0.1v0.75H54.34z"/>
		<path class="st6" d="M54.89,11.49l-0.01-0.09c0.02,0.01,0.04,0.01,0.05,0.01c0.02,0,0.04,0,0.05-0.01
			c0.01-0.01,0.02-0.02,0.03-0.03c0.01-0.01,0.01-0.03,0.03-0.07c0,0,0-0.01,0.01-0.02l-0.21-0.55h0.1l0.11,0.32
			c0.01,0.04,0.03,0.08,0.04,0.12c0.01-0.04,0.02-0.08,0.04-0.12l0.12-0.32h0.09l-0.21,0.55c-0.02,0.06-0.04,0.1-0.05,0.12
			c-0.02,0.03-0.04,0.05-0.06,0.07c-0.02,0.01-0.05,0.02-0.08,0.02C54.93,11.5,54.91,11.49,54.89,11.49z"/>
		<path class="st6" d="M55.74,11.28v-0.75h0.1v0.75H55.74z"/>
		<path class="st6" d="M56.03,11.28v-0.75h0.1v0.75H56.03z"/>
	</g>
</g>
<g>
	<g>
		<path class="st6" d="M74.35,11.33v-0.75h0.28c0.05,0,0.09,0,0.11,0.01c0.04,0.01,0.07,0.02,0.09,0.04
			c0.03,0.02,0.04,0.04,0.06,0.07s0.02,0.07,0.02,0.1c0,0.06-0.02,0.12-0.06,0.16c-0.04,0.04-0.11,0.07-0.22,0.07h-0.19v0.31H74.35z
			 M74.45,10.94h0.19c0.06,0,0.11-0.01,0.14-0.04s0.04-0.06,0.04-0.1c0-0.03-0.01-0.06-0.02-0.08s-0.04-0.04-0.06-0.04
			c-0.02,0-0.05-0.01-0.09-0.01h-0.19V10.94z"/>
		<path class="st6" d="M75.04,11.33v-0.54h0.08v0.08c0.02-0.04,0.04-0.06,0.06-0.08c0.02-0.01,0.04-0.02,0.06-0.02
			c0.03,0,0.06,0.01,0.09,0.03l-0.03,0.09c-0.02-0.01-0.04-0.02-0.07-0.02c-0.02,0-0.04,0.01-0.05,0.02
			c-0.02,0.01-0.03,0.03-0.03,0.05c-0.01,0.03-0.02,0.07-0.02,0.11v0.29H75.04z"/>
		<path class="st6" d="M75.36,11.06c0-0.1,0.03-0.17,0.08-0.22c0.05-0.04,0.1-0.06,0.17-0.06c0.08,0,0.14,0.02,0.18,0.07
			c0.05,0.05,0.07,0.12,0.07,0.2c0,0.07-0.01,0.12-0.03,0.17c-0.02,0.04-0.05,0.07-0.09,0.09c-0.04,0.02-0.08,0.03-0.13,0.03
			c-0.08,0-0.14-0.02-0.18-0.07S75.36,11.15,75.36,11.06z M75.45,11.06c0,0.07,0.01,0.12,0.05,0.16c0.03,0.03,0.07,0.05,0.11,0.05
			s0.08-0.02,0.11-0.05c0.03-0.04,0.05-0.09,0.05-0.16c0-0.07-0.02-0.12-0.05-0.15s-0.07-0.05-0.11-0.05s-0.08,0.02-0.11,0.05
			C75.47,10.94,75.45,10.99,75.45,11.06z"/>
		<path class="st6" d="M75.97,11.54l-0.01-0.09c0.02,0,0.04,0.01,0.05,0.01c0.02,0,0.04,0,0.05-0.01c0.01-0.01,0.02-0.02,0.03-0.03
			c0.01-0.01,0.01-0.03,0.03-0.07c0,0,0-0.01,0.01-0.02l-0.21-0.54h0.1l0.11,0.32c0.01,0.04,0.03,0.08,0.04,0.13
			c0.01-0.04,0.02-0.08,0.04-0.12l0.12-0.32h0.09l-0.21,0.55c-0.02,0.06-0.04,0.1-0.05,0.12c-0.02,0.03-0.04,0.05-0.06,0.07
			c-0.02,0.01-0.05,0.02-0.08,0.02C76.01,11.55,75.99,11.55,75.97,11.54z"/>
		<path class="st6" d="M76.87,11.15l0.09,0.01c-0.01,0.06-0.04,0.1-0.08,0.13c-0.04,0.03-0.09,0.05-0.16,0.05
			c-0.08,0-0.14-0.02-0.19-0.07c-0.05-0.05-0.07-0.12-0.07-0.21c0-0.09,0.02-0.16,0.07-0.21c0.05-0.05,0.11-0.08,0.18-0.08
			c0.07,0,0.13,0.02,0.18,0.07c0.05,0.05,0.07,0.12,0.07,0.21c0,0.01,0,0.01,0,0.03h-0.41c0,0.06,0.02,0.11,0.05,0.14
			c0.03,0.03,0.07,0.05,0.11,0.05c0.03,0,0.06-0.01,0.09-0.03C76.84,11.22,76.86,11.19,76.87,11.15z M76.57,11h0.3
			c0-0.05-0.02-0.08-0.04-0.1c-0.03-0.04-0.07-0.05-0.11-0.05c-0.04,0-0.08,0.01-0.11,0.04C76.59,10.92,76.57,10.96,76.57,11z"/>
		<path class="st6" d="M77.44,11.13l0.09,0.01c-0.01,0.06-0.04,0.11-0.08,0.15c-0.04,0.04-0.09,0.05-0.15,0.05
			c-0.08,0-0.13-0.02-0.18-0.07c-0.05-0.05-0.07-0.12-0.07-0.21c0-0.06,0.01-0.11,0.03-0.15c0.02-0.04,0.05-0.08,0.09-0.1
			c0.04-0.02,0.08-0.03,0.13-0.03c0.06,0,0.11,0.01,0.15,0.04c0.04,0.03,0.06,0.07,0.07,0.13l-0.09,0.01
			c-0.01-0.04-0.02-0.06-0.05-0.08c-0.02-0.02-0.05-0.03-0.08-0.03c-0.05,0-0.08,0.02-0.11,0.05c-0.03,0.03-0.04,0.09-0.04,0.16
			c0,0.07,0.01,0.13,0.04,0.16s0.06,0.05,0.11,0.05c0.04,0,0.07-0.01,0.09-0.03C77.42,11.21,77.43,11.18,77.44,11.13z"/>
		<path class="st6" d="M77.81,11.25l0.01,0.08c-0.03,0.01-0.05,0.01-0.07,0.01c-0.03,0-0.06-0.01-0.08-0.02s-0.03-0.02-0.04-0.04
			c-0.01-0.02-0.01-0.05-0.01-0.11v-0.31h-0.07v-0.07h0.07v-0.13l0.09-0.06v0.19h0.09v0.07h-0.09v0.32c0,0.03,0,0.04,0,0.05
			c0,0.01,0.01,0.01,0.02,0.02c0.01,0,0.02,0.01,0.03,0.01C77.78,11.25,77.79,11.25,77.81,11.25z"/>
		<path class="st6" d="M77.87,11.06c0-0.1,0.03-0.17,0.08-0.22c0.05-0.04,0.1-0.06,0.17-0.06c0.08,0,0.14,0.02,0.18,0.07
			c0.05,0.05,0.07,0.12,0.07,0.2c0,0.07-0.01,0.12-0.03,0.17c-0.02,0.04-0.05,0.07-0.09,0.09c-0.04,0.02-0.08,0.03-0.13,0.03
			c-0.08,0-0.14-0.02-0.18-0.07S77.87,11.15,77.87,11.06z M77.96,11.06c0,0.07,0.01,0.12,0.05,0.16c0.03,0.03,0.07,0.05,0.11,0.05
			s0.08-0.02,0.11-0.05c0.03-0.04,0.05-0.09,0.05-0.16c0-0.07-0.02-0.12-0.05-0.15s-0.07-0.05-0.11-0.05s-0.08,0.02-0.11,0.05
			C77.98,10.94,77.96,10.99,77.96,11.06z"/>
		<path class="st6" d="M79.13,11.33v-0.07c-0.04,0.05-0.09,0.08-0.15,0.08c-0.04,0-0.08-0.01-0.12-0.04
			c-0.04-0.02-0.06-0.06-0.08-0.1c-0.02-0.04-0.03-0.09-0.03-0.15c0-0.05,0.01-0.1,0.03-0.15c0.02-0.04,0.04-0.08,0.08-0.1
			s0.08-0.04,0.12-0.04c0.03,0,0.06,0.01,0.09,0.02c0.03,0.01,0.05,0.03,0.06,0.05v-0.27h0.09v0.75H79.13z M78.84,11.06
			c0,0.07,0.01,0.12,0.04,0.16s0.06,0.05,0.1,0.05s0.07-0.02,0.1-0.05c0.03-0.03,0.04-0.08,0.04-0.15c0-0.07-0.01-0.13-0.04-0.16
			c-0.03-0.03-0.06-0.05-0.11-0.05c-0.04,0-0.08,0.02-0.1,0.05S78.84,10.99,78.84,11.06z"/>
		<path class="st6" d="M79.74,11.15l0.09,0.01c-0.01,0.06-0.04,0.1-0.08,0.13c-0.04,0.03-0.09,0.05-0.16,0.05
			c-0.08,0-0.14-0.02-0.19-0.07c-0.05-0.05-0.07-0.12-0.07-0.21c0-0.09,0.02-0.16,0.07-0.21c0.05-0.05,0.11-0.08,0.18-0.08
			c0.07,0,0.13,0.02,0.18,0.07c0.05,0.05,0.07,0.12,0.07,0.21c0,0.01,0,0.01,0,0.03h-0.41c0,0.06,0.02,0.11,0.05,0.14
			c0.03,0.03,0.07,0.05,0.11,0.05c0.03,0,0.06-0.01,0.09-0.03C79.7,11.22,79.72,11.19,79.74,11.15z M79.43,11h0.3
			c0-0.05-0.02-0.08-0.04-0.1c-0.03-0.04-0.07-0.05-0.11-0.05c-0.04,0-0.08,0.01-0.11,0.04C79.45,10.92,79.43,10.96,79.43,11z"/>
		<path class="st6" d="M80.42,11.33v-0.66h-0.25v-0.09h0.6v0.09h-0.25v0.66H80.42z"/>
		<path class="st6" d="M80.82,10.68v-0.11h0.09v0.11H80.82z M80.82,11.33v-0.54h0.09v0.54H80.82z"/>
		<path class="st6" d="M81.26,11.25l0.01,0.08c-0.03,0.01-0.05,0.01-0.07,0.01c-0.03,0-0.06-0.01-0.08-0.02s-0.03-0.02-0.04-0.04
			c-0.01-0.02-0.01-0.05-0.01-0.11v-0.31H81v-0.07h0.07v-0.13l0.09-0.06v0.19h0.09v0.07h-0.09v0.32c0,0.03,0,0.04,0,0.05
			c0,0.01,0.01,0.01,0.02,0.02c0.01,0,0.02,0.01,0.03,0.01C81.23,11.25,81.24,11.25,81.26,11.25z"/>
		<path class="st6" d="M81.7,11.33v-0.08c-0.04,0.06-0.1,0.09-0.17,0.09c-0.03,0-0.06-0.01-0.09-0.02
			c-0.03-0.01-0.05-0.03-0.06-0.05c-0.01-0.02-0.02-0.04-0.03-0.07c0-0.02-0.01-0.05-0.01-0.09v-0.34h0.09v0.3
			c0,0.05,0,0.08,0.01,0.1c0.01,0.02,0.02,0.04,0.04,0.06s0.04,0.02,0.07,0.02c0.03,0,0.05-0.01,0.08-0.02
			c0.02-0.01,0.04-0.03,0.05-0.06c0.01-0.02,0.01-0.06,0.01-0.11v-0.29h0.09v0.54H81.7z"/>
		<path class="st6" d="M81.93,11.33v-0.75h0.09v0.75H81.93z"/>
		<path class="st6" d="M82.13,11.06c0-0.1,0.03-0.17,0.08-0.22c0.05-0.04,0.1-0.06,0.17-0.06c0.08,0,0.14,0.02,0.18,0.07
			c0.05,0.05,0.07,0.12,0.07,0.2c0,0.07-0.01,0.12-0.03,0.17c-0.02,0.04-0.05,0.07-0.09,0.09c-0.04,0.02-0.08,0.03-0.13,0.03
			c-0.08,0-0.14-0.02-0.18-0.07S82.13,11.15,82.13,11.06z M82.23,11.06c0,0.07,0.01,0.12,0.05,0.16c0.03,0.03,0.07,0.05,0.11,0.05
			s0.08-0.02,0.11-0.05c0.03-0.04,0.05-0.09,0.05-0.16c0-0.07-0.02-0.12-0.05-0.15s-0.07-0.05-0.11-0.05s-0.08,0.02-0.11,0.05
			C82.24,10.94,82.23,10.99,82.23,11.06z"/>
		<path class="st6" d="M83.07,11.33v-0.75h0.1v0.75H83.07z"/>
		<path class="st6" d="M83.62,11.54l-0.01-0.09c0.02,0,0.04,0.01,0.05,0.01c0.02,0,0.04,0,0.05-0.01c0.01-0.01,0.02-0.02,0.03-0.03
			c0.01-0.01,0.01-0.03,0.03-0.07c0,0,0-0.01,0.01-0.02l-0.21-0.54h0.1l0.11,0.32c0.01,0.04,0.03,0.08,0.04,0.13
			c0.01-0.04,0.02-0.08,0.04-0.12l0.12-0.32h0.09l-0.21,0.55c-0.02,0.06-0.04,0.1-0.05,0.12c-0.02,0.03-0.04,0.05-0.06,0.07
			c-0.02,0.01-0.05,0.02-0.08,0.02C83.66,11.55,83.64,11.55,83.62,11.54z"/>
		<path class="st6" d="M84.47,11.33v-0.75h0.1v0.75H84.47z"/>
		<path class="st6" d="M84.76,11.33v-0.75h0.1v0.75H84.76z"/>
	</g>
</g>
</svg>
