<?xml version="1.0" encoding="UTF-8"?>
<svg id="Layer_1" data-name="Layer 1" xmlns="http://www.w3.org/2000/svg" viewBox="0 0 92.67 17.91">
  <defs>
    <style>
      .cls-1 {
        fill: #ef4623;
      }

      .cls-1, .cls-2, .cls-3, .cls-4, .cls-5, .cls-6 {
        stroke-width: 0px;
      }

      .cls-2 {
        fill: #f9eeed;
      }

      .cls-3 {
        fill: #393e95;
      }

      .cls-7 {
        font-family: ArialMT, Arial;
        font-size: 1.05px;
      }

      .cls-7, .cls-8 {
        fill: #010101;
      }

      .cls-4 {
        fill: #d1cee8;
      }

      .cls-9 {
        letter-spacing: -.04em;
      }

      .cls-5 {
        fill: #fac4bc;
      }

      .cls-8 {
        font-family: Arial-BoldMT, Arial;
        font-size: 1.04px;
        font-weight: 700;
      }

      .cls-6 {
        fill: #f68e6b;
      }

      .cls-10 {
        letter-spacing: -.02em;
      }
    </style>
  </defs>
  <g>
    <rect class="cls-6" y="13.13" width="92.67" height=".52"/>
    <g>
      <rect class="cls-6" x="17.16" y="13.06" width="1.13" height="1.54"/>
      <path class="cls-2" d="M18.38,14.65h-1.32v-1.64h1.32v1.64ZM17.25,14.55h.94v-1.43h-.94v1.43Z"/>
    </g>
    <g>
      <rect class="cls-6" x="44.94" y="13.06" width="1.13" height="1.54"/>
      <path class="cls-2" d="M46.17,14.65h-1.32v-1.64h1.32v1.64ZM45.04,14.55h.94v-1.43h-.94v1.43Z"/>
    </g>
    <g>
      <rect class="cls-6" x="75.38" y="13.06" width="1.13" height="1.54"/>
      <path class="cls-2" d="M76.61,14.65h-1.32v-1.64h1.32v1.64ZM75.48,14.55h.94v-1.43h-.94v1.43Z"/>
    </g>
  </g>
  <g>
    <rect class="cls-4" x="36.51" y="0" width="18" height="6" rx=".91" ry=".91"/>
    <path class="cls-3" d="M54.51,4.88c0,.62-.47,1.12-1.06,1.12h-15.88c-.58,0-1.06-.5-1.06-1.12"/>
  </g>
  <g>
    <rect class="cls-5" x="66.95" y="6.5" width="18" height="5.94" rx=".94" ry=".94"/>
    <path class="cls-1" d="M84.95,11.39c0,.61-.47,1.11-1.06,1.11h-15.88c-.58,0-1.06-.5-1.06-1.11"/>
  </g>
  <g>
    <rect class="cls-5" x="36.51" y="6.52" width="18" height="5.95" rx=".9" ry=".9"/>
    <path class="cls-1" d="M54.51,11.41c0,.61-.47,1.11-1.06,1.11h-15.88c-.58,0-1.06-.5-1.06-1.11"/>
  </g>
  <text class="cls-8" transform="translate(14.59 16.25)"><tspan x="0" y="0">Ciclo B치sico</tspan><tspan x="1.91" y="1.25">I a IV</tspan></text>
  <text class="cls-8" transform="translate(40.64 16.25)"><tspan x="0" y="0">Ciclo Especializado</tspan><tspan x="3.16" y="1.25">V a VIII</tspan></text>
  <text class="cls-8" transform="translate(71.69 16.25)"><tspan x="0" y="0">Ciclo Profesional</tspan><tspan x="2.84" y="1.25">IX a X</tspan></text>
  <text class="cls-7" transform="translate(39.9 2.58)"><tspan x="0" y="0">Electivo Menci칩n V y M: </tspan><tspan x=".58" y="1.1">Educaci칩n tipogr치fica</tspan></text>
  <text class="cls-7" transform="translate(38.14 9.61)"><tspan x="0" y="0">Seminario de Licenciatura I y II</tspan></text>
  <text class="cls-7" transform="translate(70.61 9.66)"><tspan x="0" y="0">Proyecto de</tspan><tspan class="cls-10" x="5.6" y="0"> </tspan><tspan class="cls-9" x="5.88" y="0">T</tspan><tspan x="6.48" y="0">itulo I y II</tspan></text>
</svg>