<?xml version="1.0" encoding="UTF-8"?>
<svg id="Capa_1" data-name="Capa 1" xmlns="http://www.w3.org/2000/svg" viewBox="0 0 81.04 15">
  <line y1="10.37" x2="81.03" y2="10.37" style="fill: none; stroke: #f8c4be; stroke-miterlimit: 10; stroke-width: .5px;"/>
  <line x1="40.45" y1="9.63" x2="40.45" y2="11.32" style="fill: none; stroke: #f8c4be; stroke-miterlimit: 10; stroke-width: .5px;"/>
  <line x1="73.07" y1="9.8" x2="73.07" y2="11.49" style="fill: none; stroke: #f8c4be; stroke-miterlimit: 10; stroke-width: .5px;"/>
  <line x1="7.49" y1="9.8" x2="7.49" y2="11.49" style="fill: none; stroke: #f8c4be; stroke-miterlimit: 10; stroke-width: .5px;"/>
  <text transform="translate(2.46 13.07)" style="fill: #50504f; font-family: Arial-Black, Arial; font-size: 1.48px; font-weight: 800;"><tspan x="0" y="0">Ci</tspan><tspan x="1.64" y="0" style="letter-spacing: -.03em;">c</tspan><tspan x="2.59" y="0" style="letter-spacing: 0em;">lo Básico</tspan><tspan x="2.89" y="1.48">I a IV</tspan></text>
  <text transform="translate(32.59 13.07)" style="fill: #50504f; font-family: Arial-Black, Arial; font-size: 1.48px; font-weight: 800;"><tspan x="0" y="0">Ci</tspan><tspan x="1.64" y="0" style="letter-spacing: -.03em;">c</tspan><tspan x="2.59" y="0" style="letter-spacing: 0em;">lo Especializado</tspan><tspan x="4.86" y="1.48">V a VIII</tspan></text>
  <text transform="translate(66.24 13.07)" style="fill: #50504f; font-family: Arial-Black, Arial; font-size: 1.48px; font-weight: 800;"><tspan x="0" y="0">Ci</tspan><tspan x="1.64" y="0" style="letter-spacing: -.03em;">c</tspan><tspan x="2.59" y="0" style="letter-spacing: 0em;">lo P</tspan><tspan x="5.62" y="0" style="letter-spacing: .02em;">r</tspan><tspan x="6.3" y="0" style="letter-spacing: 0em;">o</tspan><tspan x="7.29" y="0" style="letter-spacing: -.02em;">f</tspan><tspan x="7.84" y="0" style="letter-spacing: 0em;">esional</tspan><tspan x="4.41" y="1.48">IX a X</tspan></text>
  <g>
    <rect x="32.57" width="15.93" height="3.73" rx=".93" ry=".93" style="fill: #d1cee7;"/>
    <path d="M48.5,2.96c0,.51-.42.93-.93.93h-14.07c-.51,0-.93-.42-.93-.93" style="fill: #3b4093;"/>
  </g>
  <g>
    <rect x="32.57" y="5.11" width="15.93" height="3.89" rx=".88" ry=".88" style="fill: #f8c4be;"/>
    <path d="M48.48,8.22c0,.51-.42.93-.93.93h-14.07c-.51,0-.93-.42-.93-.93" style="fill: #e84828;"/>
  </g>
  <g>
    <rect x="65.11" y="4.75" width="15.93" height="3.89" rx=".88" ry=".88" style="fill: #f8c4be;"/>
    <path d="M81.03,7.86c0,.51-.42.93-.93.93h-14.07c-.51,0-.93-.42-.93-.93" style="fill: #e84828;"/>
  </g>
  <text transform="translate(37.55 1.49)" style="fill: #50504f; font-family: ArialMT, Arial; font-size: .99px;"><tspan x="0" y="0">Herramientas</tspan><tspan x="-.86" y=".99">Computacionales</tspan></text>
  <text transform="translate(36.69 7.25)" style="fill: #50504f; font-family: ArialMT, Arial; font-size: .99px;"><tspan x="0" y="0">Proyecto VI y VIII</tspan></text>
  <text transform="translate(69.1 6.29)" style="fill: #50504f; font-family: ArialMT, Arial; font-size: .99px;"><tspan x="0" y="0">Proyecto de</tspan><tspan x="5.3" y="0" style="letter-spacing: -.02em;"> </tspan><tspan x="5.56" y="0" style="letter-spacing: -.04em;">T</tspan><tspan x="6.13" y="0">itulo</tspan><tspan x="3.04" y=".99">I y II</tspan></text>
</svg>