<?xml version="1.0" encoding="utf-8"?>
<!-- Generator: Adobe Illustrator 28.1.0, SVG Export Plug-In . SVG Version: 6.00 Build 0)  -->
<svg version="1.1" id="Layer_1" xmlns="http://www.w3.org/2000/svg" xmlns:xlink="http://www.w3.org/1999/xlink" x="0px" y="0px"
	 viewBox="0 0 100 20" style="enable-background:new 0 0 100 20;" xml:space="preserve">
<style type="text/css">
	.st0{fill:#EF4623;}
	.st1{fill:#FAC4BD;}
	.st2{fill:#3D3D3D;}
	.st3{fill:#D1CEE7;}
	.st4{fill:#505050;}
	.st5{fill:none;stroke:#FAC4BD;stroke-width:0.5;stroke-miterlimit:10;}
	.st6{fill:#393E95;}
	.st7{fill:#FFFFFF;stroke:#FAC4BD;stroke-width:0.5;stroke-miterlimit:10;}
</style>
<line class="st0" x1="-18.58" y1="103.32" x2="165.42" y2="103.32"/>
<g>
	<path class="st1" d="M89.64,13.48H75.47c-0.49,0-0.88-0.39-0.88-0.88V9.43c0-0.49,0.39-0.88,0.88-0.88h14.16
		c0.49,0,0.88,0.39,0.88,0.88v3.17C90.52,13.09,90.12,13.48,89.64,13.48z"/>
	<path class="st1" d="M57.19,13.24H43.02c-0.49,0-0.88-0.39-0.88-0.88V9.19c0-0.49,0.39-0.88,0.88-0.88h14.16
		c0.49,0,0.88,0.39,0.88,0.88v3.17C58.07,12.84,57.67,13.24,57.19,13.24z"/>
	<g>
		<g>
			<path class="st2" d="M78.32,10.7V11h-0.07v-0.79h0.2c0.08,0,0.15,0.02,0.19,0.06c0.04,0.04,0.07,0.1,0.07,0.17
				c0,0.08-0.02,0.14-0.07,0.19s-0.12,0.07-0.2,0.07H78.32z M78.32,10.28v0.36h0.1c0.07,0,0.12-0.02,0.15-0.05s0.05-0.08,0.05-0.14
				c0-0.06-0.02-0.1-0.05-0.13c-0.03-0.03-0.08-0.04-0.15-0.04H78.32z"/>
			<path class="st2" d="M79.13,10.5c-0.01,0-0.02,0-0.02-0.01c-0.01,0-0.01,0-0.02,0c-0.05,0-0.08,0.02-0.11,0.06
				c-0.03,0.04-0.04,0.1-0.04,0.17V11h-0.07v-0.56h0.07v0.12h0c0.01-0.04,0.03-0.07,0.06-0.09c0.03-0.02,0.06-0.03,0.1-0.03
				c0.01,0,0.02,0,0.03,0c0.01,0,0.02,0,0.02,0L79.13,10.5z"/>
			<path class="st2" d="M79.47,11.01c-0.08,0-0.15-0.03-0.2-0.08s-0.07-0.12-0.07-0.21c0-0.09,0.03-0.17,0.08-0.22
				c0.05-0.05,0.12-0.08,0.2-0.08c0.08,0,0.15,0.03,0.19,0.08s0.07,0.12,0.07,0.22c0,0.09-0.03,0.16-0.07,0.21
				S79.56,11.01,79.47,11.01z M79.48,10.95c0.06,0,0.11-0.02,0.15-0.06c0.03-0.04,0.05-0.1,0.05-0.17c0-0.08-0.02-0.13-0.05-0.17
				s-0.08-0.06-0.14-0.06c-0.06,0-0.11,0.02-0.15,0.06c-0.04,0.04-0.06,0.1-0.06,0.17c0,0.07,0.02,0.13,0.05,0.17
				C79.36,10.93,79.41,10.95,79.48,10.95z"/>
			<path class="st2" d="M80.32,10.44l-0.28,0.69c-0.02,0.04-0.04,0.07-0.07,0.1s-0.06,0.04-0.1,0.04c-0.01,0-0.02,0-0.03,0
				c-0.01,0-0.02,0-0.03,0l0.02-0.06c0.01,0,0.01,0,0.02,0c0.01,0,0.01,0,0.02,0c0.02,0,0.04-0.01,0.06-0.02
				c0.02-0.01,0.03-0.03,0.04-0.06L80.02,11l-0.22-0.56h0.08l0.16,0.45c0,0.01,0,0.01,0.01,0.02s0,0.01,0.01,0.02h0
				c0-0.01,0-0.01,0-0.02c0-0.01,0-0.01,0.01-0.02l0.17-0.45H80.32z"/>
			<path class="st2" d="M80.85,10.73h-0.41c0,0.08,0.02,0.13,0.05,0.17s0.08,0.05,0.14,0.05c0.03,0,0.05,0,0.08-0.01
				c0.03-0.01,0.05-0.02,0.08-0.04l0.04,0.05c-0.03,0.02-0.06,0.04-0.09,0.05c-0.03,0.01-0.07,0.02-0.11,0.02
				c-0.08,0-0.14-0.02-0.19-0.07c-0.05-0.05-0.07-0.12-0.07-0.22c0-0.09,0.02-0.16,0.07-0.21s0.11-0.08,0.18-0.08
				c0.07,0,0.13,0.02,0.17,0.07c0.04,0.05,0.06,0.11,0.06,0.2V10.73z M80.78,10.67c0-0.06-0.02-0.1-0.04-0.14
				c-0.03-0.03-0.06-0.05-0.11-0.05c-0.05,0-0.09,0.02-0.12,0.05s-0.05,0.08-0.06,0.14H80.78z"/>
			<path class="st2" d="M81.38,10.97c-0.03,0.02-0.05,0.03-0.08,0.03c-0.03,0.01-0.05,0.01-0.08,0.01c-0.08,0-0.14-0.03-0.19-0.08
				s-0.07-0.12-0.07-0.21c0-0.09,0.03-0.16,0.08-0.22s0.12-0.08,0.21-0.08c0.03,0,0.05,0,0.08,0.01c0.02,0.01,0.05,0.02,0.07,0.03
				l-0.03,0.05c-0.02-0.01-0.04-0.02-0.06-0.02c-0.02,0-0.04-0.01-0.06-0.01c-0.06,0-0.12,0.02-0.15,0.07s-0.06,0.1-0.06,0.17
				c0,0.07,0.02,0.13,0.05,0.17s0.08,0.06,0.14,0.06c0.02,0,0.04,0,0.06-0.01c0.02-0.01,0.04-0.02,0.06-0.03L81.38,10.97z"/>
			<path class="st2" d="M81.75,10.99C81.73,11,81.72,11,81.7,11.01c-0.01,0-0.03,0.01-0.05,0.01c-0.04,0-0.07-0.01-0.09-0.04
				c-0.02-0.02-0.03-0.06-0.03-0.11V10.5h-0.1v-0.06h0.1v-0.14l0.07-0.02v0.17h0.14v0.06H81.6v0.36c0,0.03,0.01,0.06,0.02,0.07
				c0.01,0.01,0.03,0.02,0.05,0.02c0.01,0,0.02,0,0.03,0c0.01,0,0.02-0.01,0.03-0.01L81.75,10.99z"/>
			<path class="st2" d="M82.09,11.01c-0.08,0-0.15-0.03-0.2-0.08s-0.07-0.12-0.07-0.21c0-0.09,0.03-0.17,0.08-0.22
				c0.05-0.05,0.12-0.08,0.2-0.08c0.08,0,0.15,0.03,0.19,0.08s0.07,0.12,0.07,0.22c0,0.09-0.03,0.16-0.07,0.21
				S82.17,11.01,82.09,11.01z M82.09,10.95c0.06,0,0.11-0.02,0.15-0.06c0.03-0.04,0.05-0.1,0.05-0.17c0-0.08-0.02-0.13-0.05-0.17
				s-0.08-0.06-0.14-0.06c-0.06,0-0.11,0.02-0.15,0.06c-0.04,0.04-0.06,0.1-0.06,0.17c0,0.07,0.02,0.13,0.05,0.17
				C81.98,10.93,82.03,10.95,82.09,10.95z"/>
			<path class="st2" d="M83.2,10.9c-0.02,0.04-0.05,0.06-0.08,0.08c-0.03,0.02-0.07,0.03-0.12,0.03c-0.07,0-0.13-0.03-0.17-0.08
				s-0.06-0.12-0.06-0.21c0-0.09,0.02-0.17,0.07-0.22c0.05-0.06,0.11-0.08,0.19-0.08c0.04,0,0.08,0.01,0.1,0.02
				c0.03,0.02,0.05,0.04,0.07,0.07h0v-0.35h0.07V11h-0.07L83.2,10.9L83.2,10.9z M82.84,10.73c0,0.07,0.02,0.13,0.05,0.17
				c0.03,0.04,0.08,0.06,0.13,0.06c0.06,0,0.1-0.02,0.14-0.06c0.03-0.04,0.05-0.09,0.05-0.14v-0.09c0-0.05-0.02-0.09-0.05-0.12
				c-0.03-0.03-0.07-0.05-0.12-0.05c-0.06,0-0.1,0.02-0.14,0.06S82.84,10.65,82.84,10.73z"/>
			<path class="st2" d="M83.9,10.73h-0.41c0,0.08,0.02,0.13,0.05,0.17s0.08,0.05,0.14,0.05c0.03,0,0.05,0,0.08-0.01
				s0.05-0.02,0.08-0.04l0.04,0.05c-0.03,0.02-0.06,0.04-0.09,0.05c-0.03,0.01-0.07,0.02-0.11,0.02c-0.08,0-0.14-0.02-0.19-0.07
				c-0.05-0.05-0.07-0.12-0.07-0.22c0-0.09,0.02-0.16,0.07-0.21c0.05-0.06,0.11-0.08,0.19-0.08c0.07,0,0.13,0.02,0.17,0.07
				c0.04,0.05,0.06,0.11,0.06,0.2V10.73z M83.83,10.67c0-0.06-0.02-0.1-0.04-0.14c-0.03-0.03-0.06-0.05-0.11-0.05
				c-0.05,0-0.09,0.02-0.12,0.05s-0.05,0.08-0.06,0.14H83.83z"/>
			<path class="st2" d="M84.81,10.28h-0.23V11h-0.07v-0.72h-0.23v-0.07h0.53V10.28z"/>
			<path class="st2" d="M84.96,10.3c-0.02,0-0.03,0-0.04-0.02c-0.01-0.01-0.02-0.02-0.02-0.04c0-0.02,0.01-0.03,0.02-0.04
				c0.01-0.01,0.02-0.02,0.04-0.02s0.03,0,0.04,0.02s0.02,0.02,0.02,0.04c0,0.02,0,0.03-0.02,0.04
				C84.99,10.29,84.98,10.3,84.96,10.3z M85,11h-0.07v-0.56H85V11z"/>
			<path class="st2" d="M85.42,10.99C85.41,11,85.4,11,85.38,11.01c-0.01,0-0.03,0.01-0.05,0.01c-0.04,0-0.07-0.01-0.09-0.04
				c-0.02-0.02-0.03-0.06-0.03-0.11V10.5h-0.1v-0.06h0.1v-0.14l0.07-0.02v0.17h0.15v0.06h-0.15v0.36c0,0.03,0.01,0.06,0.02,0.07
				c0.01,0.01,0.03,0.02,0.05,0.02c0.01,0,0.02,0,0.03,0c0.01,0,0.02-0.01,0.03-0.01L85.42,10.99z"/>
			<path class="st2" d="M85.97,11H85.9v-0.1h0c-0.02,0.04-0.04,0.06-0.07,0.08c-0.03,0.02-0.06,0.03-0.1,0.03
				c-0.07,0-0.12-0.02-0.15-0.06c-0.03-0.04-0.05-0.1-0.05-0.18v-0.33h0.07v0.32c0,0.07,0.01,0.12,0.04,0.15
				c0.02,0.03,0.06,0.05,0.11,0.05c0.05,0,0.09-0.02,0.12-0.05c0.03-0.04,0.05-0.08,0.05-0.14v-0.32h0.07V11z"/>
			<path class="st2" d="M86.15,11v-0.83h0.07V11H86.15z"/>
			<path class="st2" d="M86.64,11.01c-0.08,0-0.15-0.03-0.2-0.08s-0.07-0.12-0.07-0.21c0-0.09,0.03-0.17,0.08-0.22
				c0.05-0.05,0.12-0.08,0.2-0.08c0.08,0,0.15,0.03,0.19,0.08s0.07,0.12,0.07,0.22c0,0.09-0.03,0.16-0.07,0.21
				S86.72,11.01,86.64,11.01z M86.64,10.95c0.06,0,0.11-0.02,0.15-0.06c0.03-0.04,0.05-0.1,0.05-0.17c0-0.08-0.02-0.13-0.05-0.17
				s-0.08-0.06-0.14-0.06c-0.06,0-0.11,0.02-0.15,0.06c-0.04,0.04-0.06,0.1-0.06,0.17c0,0.07,0.02,0.13,0.05,0.17
				C86.53,10.93,86.58,10.95,86.64,10.95z"/>
			<path class="st2" d="M81.74,12.04h-0.07v-0.79h0.07V12.04z"/>
			<path class="st2" d="M82.67,11.48l-0.28,0.69c-0.02,0.04-0.04,0.07-0.07,0.1s-0.06,0.04-0.1,0.04c-0.01,0-0.02,0-0.03,0
				s-0.02,0-0.03,0l0.02-0.06c0.01,0,0.01,0,0.02,0s0.01,0,0.02,0c0.02,0,0.04-0.01,0.06-0.02c0.02-0.01,0.03-0.03,0.04-0.06
				l0.05-0.13l-0.22-0.56h0.08l0.16,0.45c0,0.01,0,0.01,0.01,0.02s0,0.01,0.01,0.02h0c0,0,0-0.01,0-0.02c0-0.01,0-0.01,0.01-0.02
				l0.17-0.45H82.67z"/>
			<path class="st2" d="M83.16,12.04h-0.07v-0.79h0.07V12.04z"/>
			<path class="st2" d="M83.44,12.04h-0.07v-0.79h0.07V12.04z"/>
		</g>
	</g>
	<path class="st3" d="M57.14,7.18H43.07c-0.51,0-0.93-0.42-0.93-0.93V2.31c0-0.51,0.42-0.93,0.93-0.93h14.07
		c0.51,0,0.93,0.42,0.93,0.93v3.95C58.07,6.77,57.65,7.18,57.14,7.18z"/>
	<g>
		<g>
			<path class="st2" d="M47.55,3.96h-0.07V3.59h-0.43v0.37h-0.07V3.17h0.07v0.35h0.43V3.17h0.07V3.96z"/>
			<path class="st2" d="M48.19,3.69h-0.41c0,0.08,0.02,0.13,0.05,0.17s0.08,0.05,0.14,0.05c0.03,0,0.05,0,0.08-0.01
				c0.03-0.01,0.05-0.02,0.08-0.04l0.04,0.05c-0.03,0.02-0.06,0.04-0.09,0.05C48.04,3.96,48,3.97,47.97,3.97
				c-0.08,0-0.14-0.02-0.19-0.07c-0.05-0.05-0.07-0.12-0.07-0.22c0-0.09,0.02-0.16,0.07-0.21c0.05-0.06,0.11-0.08,0.19-0.08
				c0.07,0,0.13,0.02,0.17,0.07c0.04,0.05,0.06,0.11,0.06,0.2V3.69z M48.11,3.63c0-0.06-0.02-0.1-0.04-0.14
				c-0.03-0.03-0.06-0.05-0.11-0.05c-0.05,0-0.09,0.02-0.12,0.05s-0.05,0.08-0.06,0.14H48.11z"/>
			<path class="st2" d="M48.59,3.46c-0.01,0-0.02,0-0.02-0.01c-0.01,0-0.01,0-0.02,0c-0.05,0-0.08,0.02-0.11,0.06
				c-0.03,0.04-0.04,0.1-0.04,0.17v0.28h-0.07V3.39h0.07v0.12h0c0.01-0.04,0.03-0.07,0.06-0.09c0.03-0.02,0.06-0.03,0.1-0.03
				c0.01,0,0.02,0,0.03,0c0.01,0,0.02,0,0.02,0L48.59,3.46z"/>
			<path class="st2" d="M48.97,3.46c-0.01,0-0.02,0-0.02-0.01c-0.01,0-0.01,0-0.02,0c-0.05,0-0.08,0.02-0.11,0.06
				c-0.03,0.04-0.04,0.1-0.04,0.17v0.28h-0.07V3.39h0.07v0.12h0c0.01-0.04,0.03-0.07,0.06-0.09c0.03-0.02,0.06-0.03,0.1-0.03
				c0.01,0,0.02,0,0.03,0c0.01,0,0.02,0,0.02,0L48.97,3.46z"/>
			<path class="st2" d="M49.48,3.96h-0.07v-0.1h0c-0.02,0.04-0.04,0.06-0.08,0.08c-0.03,0.02-0.07,0.03-0.11,0.03
				c-0.05,0-0.1-0.02-0.13-0.05c-0.03-0.03-0.05-0.07-0.05-0.12s0.02-0.09,0.05-0.12c0.03-0.03,0.08-0.05,0.15-0.06l0.16-0.02V3.59
				c0-0.05-0.01-0.09-0.04-0.11c-0.02-0.02-0.05-0.04-0.09-0.04c-0.03,0-0.06,0.01-0.09,0.02c-0.03,0.01-0.05,0.03-0.08,0.05
				l-0.04-0.04c0.03-0.03,0.06-0.05,0.1-0.06c0.03-0.01,0.07-0.02,0.11-0.02c0.07,0,0.11,0.02,0.15,0.05
				c0.03,0.04,0.05,0.09,0.05,0.16V3.96z M49.41,3.72V3.66l-0.15,0.02c-0.05,0.01-0.09,0.02-0.11,0.04
				c-0.02,0.02-0.03,0.04-0.03,0.08c0,0.03,0.01,0.06,0.03,0.08c0.02,0.02,0.05,0.03,0.08,0.03c0.05,0,0.09-0.02,0.13-0.05
				C49.39,3.82,49.41,3.77,49.41,3.72z"/>
			<path class="st2" d="M50.43,3.96h-0.07V3.63c0-0.07-0.01-0.11-0.03-0.14c-0.02-0.03-0.05-0.04-0.1-0.04
				c-0.04,0-0.08,0.02-0.11,0.05c-0.03,0.04-0.04,0.08-0.04,0.14v0.33H50V3.62c0-0.06-0.01-0.1-0.03-0.13
				c-0.02-0.03-0.06-0.04-0.1-0.04c-0.04,0-0.08,0.02-0.11,0.05s-0.04,0.08-0.04,0.14v0.32h-0.07V3.39h0.07v0.09h0
				c0.02-0.04,0.04-0.06,0.07-0.08c0.03-0.02,0.06-0.03,0.1-0.03c0.04,0,0.07,0.01,0.1,0.03c0.03,0.02,0.05,0.05,0.06,0.09
				c0.02-0.04,0.04-0.07,0.08-0.09c0.03-0.02,0.07-0.03,0.11-0.03c0.06,0,0.11,0.02,0.14,0.06c0.03,0.04,0.05,0.1,0.05,0.17V3.96z"
				/>
			<path class="st2" d="M50.63,3.26c-0.02,0-0.03,0-0.04-0.02c-0.01-0.01-0.02-0.02-0.02-0.04c0-0.02,0.01-0.03,0.02-0.04
				c0.01-0.01,0.02-0.02,0.04-0.02c0.02,0,0.03,0,0.04,0.02c0.01,0.01,0.02,0.02,0.02,0.04c0,0.02-0.01,0.03-0.02,0.04
				C50.66,3.25,50.65,3.26,50.63,3.26z M50.67,3.96H50.6V3.39h0.07V3.96z"/>
			<path class="st2" d="M51.29,3.69h-0.41c0,0.08,0.02,0.13,0.05,0.17s0.08,0.05,0.14,0.05c0.03,0,0.05,0,0.08-0.01
				s0.05-0.02,0.08-0.04l0.04,0.05c-0.03,0.02-0.06,0.04-0.09,0.05c-0.03,0.01-0.07,0.02-0.11,0.02c-0.08,0-0.14-0.02-0.19-0.07
				c-0.05-0.05-0.07-0.12-0.07-0.22c0-0.09,0.02-0.16,0.07-0.21c0.05-0.06,0.11-0.08,0.19-0.08c0.07,0,0.13,0.02,0.17,0.07
				c0.04,0.05,0.06,0.11,0.06,0.2V3.69z M51.22,3.63c0-0.06-0.02-0.1-0.04-0.14c-0.03-0.03-0.06-0.05-0.11-0.05
				c-0.05,0-0.09,0.02-0.12,0.05s-0.05,0.08-0.06,0.14H51.22z"/>
			<path class="st2" d="M51.88,3.96h-0.07V3.63c0-0.06-0.01-0.11-0.04-0.14c-0.02-0.03-0.06-0.05-0.1-0.05
				c-0.05,0-0.09,0.02-0.12,0.06c-0.03,0.04-0.05,0.08-0.05,0.14v0.32h-0.07V3.39h0.07v0.1h0c0.02-0.04,0.05-0.07,0.08-0.08
				c0.03-0.02,0.07-0.03,0.11-0.03c0.06,0,0.11,0.02,0.14,0.06s0.05,0.1,0.05,0.17V3.96z"/>
			<path class="st2" d="M52.29,3.95c-0.01,0.01-0.03,0.01-0.04,0.02s-0.03,0.01-0.05,0.01c-0.04,0-0.07-0.01-0.09-0.04
				c-0.02-0.02-0.03-0.06-0.03-0.11V3.46h-0.1V3.39h0.1V3.25l0.07-0.02v0.17h0.14v0.06h-0.14v0.36c0,0.03,0.01,0.06,0.02,0.07
				c0.01,0.01,0.03,0.02,0.05,0.02c0.01,0,0.02,0,0.03,0c0.01,0,0.02-0.01,0.03-0.01L52.29,3.95z"/>
			<path class="st2" d="M52.8,3.96h-0.07v-0.1h0c-0.02,0.04-0.04,0.06-0.08,0.08c-0.03,0.02-0.07,0.03-0.11,0.03
				c-0.05,0-0.1-0.02-0.13-0.05c-0.03-0.03-0.05-0.07-0.05-0.12s0.02-0.09,0.05-0.12c0.03-0.03,0.08-0.05,0.15-0.06l0.16-0.02V3.59
				c0-0.05-0.01-0.09-0.04-0.11c-0.02-0.02-0.05-0.04-0.09-0.04c-0.03,0-0.06,0.01-0.09,0.02c-0.03,0.01-0.05,0.03-0.08,0.05
				l-0.04-0.04c0.03-0.03,0.06-0.05,0.1-0.06c0.03-0.01,0.07-0.02,0.11-0.02c0.07,0,0.12,0.02,0.15,0.05
				c0.03,0.04,0.05,0.09,0.05,0.16V3.96z M52.73,3.72V3.66l-0.15,0.02c-0.05,0.01-0.09,0.02-0.11,0.04
				c-0.02,0.02-0.03,0.04-0.03,0.08c0,0.03,0.01,0.06,0.03,0.08c0.02,0.02,0.05,0.03,0.08,0.03c0.05,0,0.09-0.02,0.13-0.05
				C52.71,3.82,52.73,3.77,52.73,3.72z"/>
			<path class="st2" d="M52.91,3.92l0.03-0.06c0.02,0.01,0.04,0.03,0.07,0.04c0.02,0.01,0.05,0.01,0.08,0.01
				c0.04,0,0.07-0.01,0.1-0.03s0.03-0.04,0.03-0.08c0-0.02-0.01-0.05-0.03-0.06c-0.02-0.02-0.05-0.03-0.1-0.05
				c-0.06-0.02-0.11-0.04-0.13-0.07s-0.04-0.06-0.04-0.1c0-0.05,0.02-0.08,0.05-0.11c0.03-0.03,0.08-0.04,0.14-0.04
				c0.03,0,0.05,0,0.08,0.01s0.05,0.02,0.08,0.04l-0.03,0.05c-0.02-0.01-0.04-0.02-0.06-0.03c-0.02-0.01-0.04-0.01-0.06-0.01
				c-0.04,0-0.07,0.01-0.09,0.02C53.01,3.48,53,3.5,53,3.53c0,0.03,0.01,0.05,0.03,0.06c0.02,0.01,0.05,0.03,0.1,0.04
				c0.06,0.02,0.1,0.04,0.13,0.07c0.03,0.03,0.04,0.06,0.04,0.1c0,0.05-0.02,0.09-0.05,0.12s-0.08,0.05-0.14,0.05
				c-0.03,0-0.06,0-0.09-0.01S52.94,3.93,52.91,3.92z"/>
			<path class="st2" d="M46.57,4.96C46.54,4.98,46.5,4.99,46.47,5C46.43,5,46.4,5.01,46.35,5.01c-0.11,0-0.2-0.04-0.27-0.11
				c-0.07-0.07-0.1-0.17-0.1-0.28c0-0.13,0.04-0.23,0.11-0.31c0.07-0.08,0.17-0.12,0.29-0.12c0.03,0,0.07,0,0.1,0.01
				c0.03,0.01,0.06,0.02,0.09,0.03l-0.03,0.06c-0.03-0.01-0.06-0.02-0.08-0.03s-0.05-0.01-0.09-0.01c-0.1,0-0.17,0.03-0.23,0.09
				c-0.06,0.06-0.09,0.15-0.09,0.26c0,0.1,0.03,0.18,0.08,0.24c0.06,0.06,0.13,0.09,0.22,0.09c0.03,0,0.06,0,0.09-0.01
				c0.03-0.01,0.06-0.02,0.09-0.03L46.57,4.96z"/>
			<path class="st2" d="M46.95,5.01c-0.08,0-0.15-0.03-0.2-0.08c-0.05-0.05-0.07-0.12-0.07-0.21c0-0.09,0.03-0.17,0.08-0.22
				c0.05-0.05,0.12-0.08,0.2-0.08c0.08,0,0.15,0.03,0.19,0.08s0.07,0.12,0.07,0.22c0,0.09-0.02,0.16-0.07,0.21
				C47.1,4.98,47.03,5.01,46.95,5.01z M46.95,4.95c0.06,0,0.11-0.02,0.15-0.06c0.03-0.04,0.05-0.1,0.05-0.17
				c0-0.08-0.02-0.13-0.05-0.17c-0.03-0.04-0.08-0.06-0.14-0.06c-0.06,0-0.11,0.02-0.15,0.06s-0.06,0.1-0.06,0.17
				c0,0.07,0.02,0.13,0.05,0.17C46.84,4.93,46.89,4.95,46.95,4.95z"/>
			<path class="st2" d="M48.14,5h-0.07V4.67c0-0.07-0.01-0.11-0.03-0.14c-0.02-0.03-0.05-0.04-0.1-0.04c-0.04,0-0.08,0.02-0.11,0.05
				c-0.03,0.04-0.04,0.08-0.04,0.14V5h-0.07V4.66c0-0.06-0.01-0.1-0.03-0.13c-0.02-0.03-0.06-0.04-0.1-0.04
				c-0.04,0-0.08,0.02-0.11,0.05s-0.04,0.08-0.04,0.14V5h-0.07V4.43h0.07v0.09h0c0.02-0.04,0.04-0.06,0.07-0.08
				c0.03-0.02,0.06-0.03,0.1-0.03c0.04,0,0.07,0.01,0.1,0.03c0.03,0.02,0.05,0.05,0.06,0.09c0.02-0.04,0.04-0.07,0.08-0.09
				c0.03-0.02,0.07-0.03,0.11-0.03c0.06,0,0.11,0.02,0.14,0.06c0.03,0.04,0.05,0.1,0.05,0.17V5z"/>
			<path class="st2" d="M48.38,4.9L48.38,4.9l0,0.35h-0.07V4.43h0.07v0.11h0c0.02-0.04,0.05-0.07,0.08-0.09
				c0.04-0.02,0.07-0.03,0.12-0.03c0.07,0,0.13,0.02,0.17,0.07s0.06,0.12,0.06,0.2c0,0.09-0.02,0.17-0.07,0.23
				c-0.05,0.06-0.11,0.09-0.19,0.09c-0.04,0-0.07-0.01-0.1-0.03S48.4,4.94,48.38,4.9z M48.38,4.69v0.07c0,0.05,0.02,0.1,0.05,0.13
				c0.03,0.04,0.08,0.05,0.13,0.05c0.06,0,0.1-0.02,0.13-0.07c0.03-0.05,0.05-0.11,0.05-0.18c0-0.07-0.02-0.12-0.05-0.16
				c-0.03-0.04-0.07-0.06-0.12-0.06c-0.06,0-0.11,0.02-0.14,0.06C48.4,4.58,48.38,4.63,48.38,4.69z"/>
			<path class="st2" d="M49.39,5h-0.07V4.9h0c-0.02,0.04-0.04,0.06-0.07,0.08c-0.03,0.02-0.06,0.03-0.1,0.03
				c-0.07,0-0.12-0.02-0.15-0.06c-0.03-0.04-0.05-0.1-0.05-0.18V4.43h0.07v0.32c0,0.07,0.01,0.12,0.04,0.15
				c0.02,0.03,0.06,0.05,0.11,0.05c0.05,0,0.09-0.02,0.12-0.05c0.03-0.04,0.05-0.08,0.05-0.14V4.43h0.07V5z"/>
			<path class="st2" d="M49.82,4.99C49.81,4.99,49.79,5,49.78,5s-0.03,0.01-0.05,0.01c-0.04,0-0.07-0.01-0.09-0.04
				S49.6,4.91,49.6,4.86V4.49h-0.1V4.43h0.1V4.29l0.07-0.02v0.17h0.15v0.06h-0.15v0.36c0,0.03,0.01,0.06,0.02,0.07
				c0.01,0.01,0.03,0.02,0.05,0.02c0.01,0,0.02,0,0.03,0s0.02-0.01,0.03-0.01L49.82,4.99z"/>
			<path class="st2" d="M50.32,5h-0.07V4.9h0c-0.02,0.04-0.04,0.06-0.08,0.08C50.15,5,50.11,5.01,50.07,5.01
				c-0.05,0-0.1-0.02-0.13-0.05c-0.03-0.03-0.05-0.07-0.05-0.12s0.02-0.09,0.05-0.12c0.03-0.03,0.08-0.05,0.15-0.06l0.16-0.02V4.63
				c0-0.05-0.01-0.09-0.04-0.11c-0.02-0.02-0.05-0.04-0.09-0.04c-0.03,0-0.06,0.01-0.09,0.02c-0.03,0.01-0.05,0.03-0.08,0.05
				L49.92,4.5c0.03-0.03,0.06-0.05,0.1-0.06c0.03-0.01,0.07-0.02,0.11-0.02c0.07,0,0.11,0.02,0.15,0.05
				c0.03,0.04,0.05,0.09,0.05,0.16V5z M50.25,4.76V4.7l-0.15,0.02C50.06,4.73,50.02,4.74,50,4.76c-0.02,0.02-0.03,0.04-0.03,0.08
				c0,0.03,0.01,0.06,0.03,0.08c0.02,0.02,0.05,0.03,0.08,0.03c0.05,0,0.09-0.02,0.13-0.05C50.24,4.86,50.25,4.81,50.25,4.76z"/>
			<path class="st2" d="M50.88,4.96C50.85,4.98,50.83,4.99,50.8,5c-0.03,0.01-0.05,0.01-0.08,0.01c-0.08,0-0.14-0.03-0.19-0.08
				s-0.07-0.12-0.07-0.21c0-0.09,0.03-0.16,0.08-0.22c0.05-0.06,0.12-0.08,0.21-0.08c0.03,0,0.05,0,0.07,0.01
				c0.02,0.01,0.05,0.02,0.07,0.03l-0.03,0.05c-0.02-0.01-0.04-0.02-0.06-0.02c-0.02,0-0.04-0.01-0.06-0.01
				c-0.06,0-0.12,0.02-0.15,0.07s-0.06,0.1-0.06,0.17c0,0.07,0.02,0.13,0.05,0.17s0.08,0.06,0.14,0.06c0.02,0,0.04,0,0.06-0.01
				c0.02-0.01,0.04-0.02,0.06-0.03L50.88,4.96z"/>
			<path class="st2" d="M51.04,4.3c-0.02,0-0.03,0-0.04-0.02c-0.01-0.01-0.02-0.02-0.02-0.04c0-0.02,0.01-0.03,0.02-0.04
				s0.02-0.02,0.04-0.02c0.01,0,0.03,0,0.04,0.02c0.01,0.01,0.02,0.02,0.02,0.04c0,0.02-0.01,0.03-0.02,0.04
				C51.07,4.29,51.05,4.3,51.04,4.3z M51.07,5H51V4.43h0.07V5z"/>
			<path class="st2" d="M51.49,5.01c-0.08,0-0.15-0.03-0.2-0.08c-0.05-0.05-0.07-0.12-0.07-0.21c0-0.09,0.03-0.17,0.08-0.22
				c0.05-0.05,0.12-0.08,0.2-0.08c0.08,0,0.15,0.03,0.19,0.08s0.07,0.12,0.07,0.22c0,0.09-0.02,0.16-0.07,0.21
				C51.64,4.98,51.57,5.01,51.49,5.01z M51.49,4.95c0.06,0,0.11-0.02,0.15-0.06c0.03-0.04,0.05-0.1,0.05-0.17
				c0-0.08-0.02-0.13-0.05-0.17c-0.03-0.04-0.08-0.06-0.14-0.06c-0.06,0-0.11,0.02-0.15,0.06c-0.04,0.04-0.05,0.1-0.05,0.17
				c0,0.07,0.02,0.13,0.05,0.17C51.38,4.93,51.43,4.95,51.49,4.95z"/>
			<path class="st2" d="M52.35,5h-0.07V4.67c0-0.06-0.01-0.11-0.03-0.14c-0.02-0.03-0.06-0.05-0.1-0.05c-0.05,0-0.09,0.02-0.12,0.06
				c-0.03,0.04-0.05,0.08-0.05,0.14V5H51.9V4.43h0.07v0.1h0c0.02-0.04,0.05-0.07,0.08-0.08c0.03-0.02,0.07-0.03,0.11-0.03
				c0.06,0,0.11,0.02,0.14,0.06c0.03,0.04,0.05,0.1,0.05,0.17V5z"/>
			<path class="st2" d="M52.91,5h-0.07V4.9h0c-0.02,0.04-0.04,0.06-0.08,0.08C52.73,5,52.7,5.01,52.66,5.01
				c-0.05,0-0.09-0.02-0.13-0.05c-0.03-0.03-0.05-0.07-0.05-0.12s0.02-0.09,0.05-0.12s0.08-0.05,0.15-0.06l0.16-0.02V4.63
				c0-0.05-0.01-0.09-0.04-0.11c-0.02-0.02-0.05-0.04-0.09-0.04c-0.03,0-0.06,0.01-0.09,0.02s-0.05,0.03-0.08,0.05L52.5,4.5
				c0.03-0.03,0.06-0.05,0.1-0.06c0.04-0.01,0.07-0.02,0.12-0.02c0.07,0,0.11,0.02,0.15,0.05s0.05,0.09,0.05,0.16V5z M52.84,4.76
				V4.7L52.7,4.72c-0.05,0.01-0.09,0.02-0.11,0.04c-0.02,0.02-0.03,0.04-0.03,0.08c0,0.03,0.01,0.06,0.03,0.08
				c0.02,0.02,0.05,0.03,0.08,0.03c0.05,0,0.09-0.02,0.12-0.05S52.84,4.81,52.84,4.76z"/>
			<path class="st2" d="M53.08,5V4.16h0.07V5H53.08z"/>
			<path class="st2" d="M53.78,4.73h-0.41c0,0.08,0.02,0.13,0.05,0.17s0.08,0.05,0.14,0.05c0.03,0,0.05,0,0.08-0.01
				s0.05-0.02,0.08-0.04l0.04,0.05c-0.03,0.02-0.06,0.04-0.09,0.05C53.63,5,53.59,5.01,53.56,5.01c-0.08,0-0.14-0.02-0.19-0.07
				c-0.05-0.05-0.07-0.12-0.07-0.22c0-0.09,0.02-0.16,0.07-0.21c0.05-0.06,0.11-0.08,0.19-0.08c0.07,0,0.13,0.02,0.17,0.07
				c0.04,0.05,0.06,0.11,0.06,0.2V4.73z M53.7,4.67c0-0.06-0.02-0.1-0.04-0.14c-0.03-0.03-0.06-0.05-0.11-0.05
				c-0.05,0-0.09,0.02-0.12,0.05s-0.05,0.08-0.06,0.14H53.7z"/>
			<path class="st2" d="M53.86,4.95l0.03-0.06c0.02,0.01,0.04,0.03,0.07,0.04c0.02,0.01,0.05,0.01,0.08,0.01
				c0.04,0,0.07-0.01,0.1-0.03s0.03-0.04,0.03-0.08c0-0.02-0.01-0.05-0.03-0.06c-0.02-0.02-0.05-0.03-0.1-0.05
				c-0.06-0.02-0.11-0.04-0.13-0.07s-0.04-0.06-0.04-0.1c0-0.05,0.02-0.08,0.05-0.11c0.03-0.03,0.08-0.04,0.14-0.04
				c0.03,0,0.05,0,0.08,0.01s0.05,0.02,0.08,0.04l-0.03,0.05c-0.02-0.01-0.04-0.02-0.06-0.03c-0.02-0.01-0.04-0.01-0.06-0.01
				c-0.04,0-0.07,0.01-0.09,0.02c-0.02,0.02-0.03,0.04-0.03,0.06c0,0.03,0.01,0.05,0.03,0.06c0.02,0.01,0.05,0.03,0.1,0.04
				c0.06,0.02,0.1,0.04,0.13,0.07c0.03,0.03,0.04,0.06,0.04,0.1c0,0.05-0.02,0.09-0.05,0.12s-0.08,0.05-0.14,0.05
				c-0.03,0-0.06,0-0.09-0.01S53.89,4.97,53.86,4.95z"/>
		</g>
	</g>
	<g>
		<g>
			<path class="st4" d="M14.24,17c-0.04,0.02-0.09,0.04-0.13,0.05c-0.04,0.01-0.09,0.01-0.14,0.01c-0.13,0-0.24-0.04-0.31-0.11
				s-0.11-0.18-0.11-0.32c0-0.13,0.04-0.24,0.12-0.32s0.19-0.13,0.33-0.13c0.05,0,0.09,0,0.12,0.01s0.07,0.02,0.11,0.03l-0.06,0.15
				c-0.03-0.01-0.06-0.02-0.08-0.03c-0.03,0-0.06-0.01-0.09-0.01c-0.07,0-0.13,0.02-0.18,0.07c-0.05,0.05-0.08,0.12-0.08,0.2
				c0,0.09,0.02,0.16,0.07,0.2c0.05,0.05,0.11,0.07,0.19,0.07c0.02,0,0.05,0,0.08-0.01c0.03-0.01,0.06-0.02,0.1-0.04L14.24,17z"/>
			<path class="st4" d="M14.45,16.34c-0.03,0-0.06-0.01-0.08-0.03c-0.02-0.02-0.03-0.04-0.03-0.07c0-0.03,0.01-0.05,0.03-0.07
				c0.02-0.02,0.05-0.03,0.08-0.03c0.03,0,0.06,0.01,0.08,0.03s0.03,0.04,0.03,0.07s-0.01,0.05-0.03,0.07S14.48,16.34,14.45,16.34z
				 M14.54,17.04h-0.18v-0.62h0.18V17.04z"/>
			<path class="st4" d="M15.22,17c-0.03,0.02-0.06,0.03-0.1,0.04c-0.03,0.01-0.07,0.01-0.11,0.01c-0.1,0-0.18-0.03-0.24-0.09
				s-0.09-0.13-0.09-0.22c0-0.1,0.03-0.19,0.09-0.25s0.14-0.09,0.25-0.09c0.04,0,0.07,0,0.1,0.01c0.03,0.01,0.06,0.02,0.09,0.04
				l-0.07,0.12c-0.02-0.01-0.04-0.02-0.05-0.02c-0.02,0-0.04-0.01-0.06-0.01c-0.05,0-0.09,0.02-0.12,0.05s-0.04,0.08-0.04,0.14
				c0,0.06,0.02,0.1,0.05,0.13s0.07,0.05,0.12,0.05c0.01,0,0.03,0,0.05-0.01s0.04-0.02,0.06-0.03L15.22,17z"/>
			<path class="st4" d="M15.33,17.04v-0.9h0.18v0.9H15.33z"/>
			<path class="st4" d="M15.97,17.06c-0.1,0-0.18-0.03-0.24-0.09s-0.09-0.14-0.09-0.24c0-0.1,0.03-0.18,0.09-0.24
				c0.06-0.06,0.14-0.09,0.25-0.09c0.1,0,0.18,0.03,0.24,0.09c0.06,0.06,0.09,0.13,0.09,0.23c0,0.1-0.03,0.18-0.09,0.24
				C16.16,17.03,16.08,17.06,15.97,17.06z M15.98,16.92c0.05,0,0.08-0.02,0.11-0.05c0.02-0.03,0.04-0.08,0.04-0.14
				c0-0.06-0.01-0.1-0.04-0.14c-0.02-0.03-0.06-0.05-0.11-0.05c-0.05,0-0.08,0.02-0.11,0.05c-0.03,0.03-0.04,0.08-0.04,0.14
				c0,0.06,0.01,0.11,0.04,0.14S15.93,16.92,15.98,16.92z"/>
			<path class="st4" d="M16.8,17.04v-0.85h0.3c0.09,0,0.17,0.02,0.22,0.05c0.05,0.04,0.08,0.09,0.08,0.15
				c0,0.05-0.01,0.08-0.04,0.12s-0.06,0.06-0.1,0.07v0c0.05,0.01,0.1,0.03,0.13,0.07c0.03,0.04,0.05,0.08,0.05,0.13
				c0,0.08-0.03,0.14-0.08,0.18c-0.06,0.04-0.13,0.07-0.23,0.07H16.8z M16.98,16.33v0.21h0.09c0.04,0,0.07-0.01,0.1-0.03
				c0.02-0.02,0.04-0.05,0.04-0.08s-0.01-0.06-0.04-0.08c-0.02-0.02-0.06-0.03-0.11-0.03H16.98z M16.98,16.68v0.22h0.11
				c0.05,0,0.08-0.01,0.11-0.03c0.03-0.02,0.04-0.05,0.04-0.09c0-0.03-0.01-0.06-0.04-0.08s-0.06-0.03-0.11-0.03H16.98z"/>
			<path class="st4" d="M18.07,17.04H17.9v-0.09h0c-0.02,0.03-0.05,0.06-0.08,0.08s-0.07,0.03-0.11,0.03c-0.06,0-0.1-0.02-0.14-0.05
				c-0.04-0.03-0.06-0.08-0.06-0.14c0-0.06,0.02-0.1,0.06-0.14s0.1-0.06,0.18-0.07l0.15-0.02v-0.01c0-0.03-0.01-0.06-0.03-0.07
				c-0.02-0.02-0.05-0.02-0.08-0.02c-0.03,0-0.05,0-0.08,0.01s-0.06,0.02-0.09,0.04l-0.06-0.11c0.04-0.03,0.08-0.04,0.12-0.06
				s0.09-0.02,0.14-0.02c0.09,0,0.16,0.02,0.2,0.07c0.04,0.04,0.06,0.11,0.06,0.2V17.04z M17.81,16.32h-0.13l0.15-0.19H18
				L17.81,16.32z M17.9,16.79v-0.04l-0.12,0.02c-0.03,0-0.06,0.01-0.07,0.03c-0.02,0.01-0.02,0.04-0.02,0.06
				c0,0.02,0.01,0.04,0.02,0.06c0.02,0.01,0.04,0.02,0.06,0.02c0.04,0,0.07-0.01,0.09-0.04C17.89,16.86,17.9,16.83,17.9,16.79z"/>
			<path class="st4" d="M18.18,16.99l0.08-0.12c0.02,0.02,0.05,0.03,0.07,0.04c0.03,0.01,0.06,0.02,0.09,0.02
				c0.03,0,0.05,0,0.06-0.01s0.02-0.02,0.02-0.04c0-0.02-0.01-0.03-0.02-0.04c-0.01-0.01-0.04-0.02-0.07-0.03
				c-0.08-0.02-0.13-0.04-0.17-0.07c-0.03-0.03-0.05-0.07-0.05-0.12c0-0.06,0.02-0.11,0.07-0.15c0.05-0.04,0.11-0.06,0.18-0.06
				c0.04,0,0.07,0,0.11,0.01c0.03,0.01,0.06,0.02,0.09,0.04l-0.07,0.12c-0.03-0.02-0.05-0.03-0.07-0.03
				c-0.02-0.01-0.04-0.01-0.07-0.01c-0.03,0-0.05,0-0.06,0.01c-0.02,0.01-0.02,0.02-0.02,0.04c0,0.02,0.01,0.03,0.02,0.04
				c0.02,0.01,0.04,0.02,0.08,0.03c0.07,0.01,0.12,0.04,0.15,0.07c0.03,0.03,0.05,0.07,0.05,0.13c0,0.06-0.02,0.11-0.07,0.15
				s-0.11,0.06-0.19,0.06c-0.04,0-0.08-0.01-0.12-0.02S18.21,17.01,18.18,16.99z"/>
			<path class="st4" d="M18.88,16.34c-0.03,0-0.06-0.01-0.08-0.03c-0.02-0.02-0.03-0.04-0.03-0.07c0-0.03,0.01-0.05,0.03-0.07
				c0.02-0.02,0.05-0.03,0.08-0.03c0.03,0,0.06,0.01,0.08,0.03s0.03,0.04,0.03,0.07s-0.01,0.05-0.03,0.07S18.91,16.34,18.88,16.34z
				 M18.97,17.04h-0.18v-0.62h0.18V17.04z"/>
			<path class="st4" d="M19.64,17c-0.03,0.02-0.06,0.03-0.1,0.04c-0.03,0.01-0.07,0.01-0.11,0.01c-0.1,0-0.18-0.03-0.24-0.09
				s-0.09-0.13-0.09-0.22c0-0.1,0.03-0.19,0.09-0.25s0.14-0.09,0.25-0.09c0.04,0,0.07,0,0.1,0.01c0.03,0.01,0.06,0.02,0.09,0.04
				l-0.07,0.12c-0.02-0.01-0.04-0.02-0.05-0.02c-0.02,0-0.04-0.01-0.06-0.01c-0.05,0-0.09,0.02-0.12,0.05s-0.04,0.08-0.04,0.14
				c0,0.06,0.02,0.1,0.05,0.13s0.07,0.05,0.12,0.05c0.01,0,0.03,0,0.05-0.01s0.04-0.02,0.06-0.03L19.64,17z"/>
			<path class="st4" d="M20.05,17.06c-0.1,0-0.18-0.03-0.24-0.09s-0.09-0.14-0.09-0.24c0-0.1,0.03-0.18,0.09-0.24
				c0.06-0.06,0.14-0.09,0.25-0.09c0.1,0,0.18,0.03,0.24,0.09c0.06,0.06,0.09,0.13,0.09,0.23c0,0.1-0.03,0.18-0.09,0.24
				C20.24,17.03,20.15,17.06,20.05,17.06z M20.06,16.92c0.05,0,0.08-0.02,0.11-0.05c0.02-0.03,0.04-0.08,0.04-0.14
				c0-0.06-0.01-0.1-0.04-0.14c-0.02-0.03-0.06-0.05-0.11-0.05c-0.05,0-0.08,0.02-0.11,0.05c-0.03,0.03-0.04,0.08-0.04,0.14
				c0,0.06,0.01,0.11,0.04,0.14S20.01,16.92,20.06,16.92z"/>
			<path class="st4" d="M15.79,18.25H15.6V17.4h0.18V18.25z"/>
			<path class="st4" d="M16.82,18.25h-0.17v-0.09h0c-0.02,0.03-0.05,0.06-0.08,0.08s-0.07,0.03-0.11,0.03
				c-0.06,0-0.1-0.02-0.14-0.05c-0.04-0.03-0.06-0.08-0.06-0.14c0-0.06,0.02-0.1,0.06-0.14s0.1-0.06,0.18-0.07l0.15-0.02v-0.01
				c0-0.03-0.01-0.06-0.03-0.07c-0.02-0.02-0.05-0.02-0.08-0.02c-0.03,0-0.05,0-0.08,0.01s-0.06,0.02-0.09,0.04l-0.06-0.11
				c0.04-0.03,0.08-0.04,0.12-0.06s0.09-0.02,0.14-0.02c0.09,0,0.16,0.02,0.2,0.07c0.04,0.04,0.06,0.11,0.06,0.2V18.25z M16.65,18
				v-0.04l-0.12,0.02c-0.03,0-0.06,0.01-0.07,0.03c-0.02,0.01-0.02,0.04-0.02,0.06c0,0.02,0.01,0.04,0.02,0.06
				c0.02,0.01,0.04,0.02,0.06,0.02c0.04,0,0.07-0.01,0.09-0.04C16.64,18.07,16.65,18.04,16.65,18z"/>
			<path class="st4" d="M17.52,18.25h-0.18V17.4h0.18V18.25z"/>
			<path class="st4" d="M18.43,17.4l-0.29,0.85h-0.21l-0.29-0.85h0.2l0.18,0.6c0,0.01,0.01,0.03,0.01,0.04c0,0.01,0,0.03,0.01,0.04
				h0c0-0.01,0-0.03,0.01-0.04c0-0.01,0.01-0.03,0.01-0.04l0.18-0.59H18.43z"/>
		</g>
	</g>
	<g>
		<g>
			<path class="st4" d="M45.36,17c-0.04,0.02-0.09,0.04-0.13,0.04c-0.04,0.01-0.09,0.01-0.14,0.01c-0.13,0-0.23-0.04-0.31-0.11
				c-0.08-0.07-0.11-0.18-0.11-0.32c0-0.13,0.04-0.24,0.12-0.32c0.08-0.08,0.19-0.13,0.33-0.13c0.05,0,0.09,0,0.12,0.01
				c0.04,0.01,0.07,0.02,0.11,0.03l-0.06,0.15c-0.03-0.01-0.06-0.02-0.08-0.03s-0.06-0.01-0.09-0.01c-0.07,0-0.13,0.03-0.18,0.07
				c-0.05,0.05-0.08,0.12-0.08,0.2c0,0.09,0.02,0.15,0.07,0.2c0.04,0.05,0.11,0.07,0.18,0.07c0.02,0,0.05,0,0.08-0.01
				s0.06-0.02,0.09-0.04L45.36,17z"/>
			<path class="st4" d="M45.57,16.34c-0.03,0-0.06-0.01-0.08-0.03c-0.02-0.02-0.03-0.04-0.03-0.07c0-0.03,0.01-0.05,0.03-0.07
				c0.02-0.02,0.05-0.03,0.08-0.03s0.06,0.01,0.08,0.03c0.02,0.02,0.03,0.04,0.03,0.07s-0.01,0.05-0.03,0.07
				C45.63,16.33,45.6,16.34,45.57,16.34z M45.66,17.04h-0.18v-0.62h0.18V17.04z"/>
			<path class="st4" d="M46.33,17c-0.03,0.02-0.06,0.03-0.1,0.04s-0.07,0.01-0.11,0.01c-0.1,0-0.18-0.03-0.24-0.09
				c-0.06-0.06-0.09-0.13-0.09-0.22c0-0.1,0.03-0.19,0.09-0.25c0.06-0.06,0.14-0.09,0.25-0.09c0.04,0,0.07,0,0.1,0.01
				s0.06,0.02,0.09,0.04l-0.07,0.12c-0.02-0.01-0.04-0.02-0.05-0.02c-0.02,0-0.04-0.01-0.06-0.01c-0.05,0-0.09,0.02-0.12,0.05
				c-0.03,0.03-0.04,0.08-0.04,0.14c0,0.06,0.02,0.1,0.05,0.13c0.03,0.03,0.07,0.05,0.12,0.05c0.01,0,0.03,0,0.05-0.01
				c0.02-0.01,0.04-0.02,0.06-0.03L46.33,17z"/>
			<path class="st4" d="M46.44,17.04v-0.89h0.18v0.89H46.44z"/>
			<path class="st4" d="M47.08,17.06c-0.1,0-0.18-0.03-0.24-0.09c-0.06-0.06-0.09-0.14-0.09-0.23c0-0.1,0.03-0.18,0.09-0.24
				c0.06-0.06,0.14-0.09,0.25-0.09c0.1,0,0.18,0.03,0.24,0.09s0.09,0.13,0.09,0.23c0,0.1-0.03,0.18-0.09,0.24
				C47.27,17.03,47.19,17.06,47.08,17.06z M47.09,16.92c0.05,0,0.08-0.02,0.11-0.05c0.02-0.03,0.04-0.08,0.04-0.14
				c0-0.06-0.01-0.1-0.04-0.13c-0.02-0.03-0.06-0.05-0.11-0.05c-0.05,0-0.08,0.02-0.11,0.05s-0.04,0.08-0.04,0.14
				c0,0.06,0.01,0.11,0.04,0.14C47,16.9,47.04,16.92,47.09,16.92z"/>
			<path class="st4" d="M48.41,17.04h-0.5V16.2h0.48v0.15h-0.3v0.19h0.28v0.15h-0.28v0.2h0.32V17.04z"/>
			<path class="st4" d="M48.48,16.99l0.08-0.12c0.02,0.02,0.05,0.03,0.07,0.04c0.03,0.01,0.06,0.02,0.09,0.02
				c0.03,0,0.05,0,0.06-0.01c0.02-0.01,0.02-0.02,0.02-0.04c0-0.02-0.01-0.03-0.02-0.04c-0.01-0.01-0.04-0.02-0.07-0.03
				c-0.08-0.02-0.13-0.04-0.17-0.07c-0.03-0.03-0.05-0.07-0.05-0.12c0-0.06,0.02-0.11,0.07-0.15s0.11-0.05,0.18-0.05
				c0.04,0,0.07,0,0.11,0.01s0.06,0.02,0.09,0.04l-0.07,0.12c-0.02-0.02-0.05-0.03-0.07-0.03c-0.02-0.01-0.04-0.01-0.07-0.01
				c-0.03,0-0.05,0-0.06,0.02c-0.02,0.01-0.02,0.02-0.02,0.04c0,0.02,0.01,0.03,0.02,0.04c0.01,0.01,0.04,0.02,0.08,0.03
				c0.07,0.02,0.12,0.04,0.15,0.07s0.05,0.07,0.05,0.12c0,0.06-0.02,0.11-0.07,0.15c-0.05,0.04-0.11,0.06-0.19,0.06
				c-0.04,0-0.08,0-0.12-0.02C48.55,17.03,48.52,17.01,48.48,16.99z"/>
			<path class="st4" d="M49.27,16.97L49.27,16.97l0,0.35h-0.18v-0.9h0.18v0.09h0c0.02-0.04,0.05-0.06,0.09-0.08
				c0.03-0.02,0.07-0.03,0.11-0.03c0.08,0,0.14,0.03,0.19,0.08c0.04,0.05,0.07,0.13,0.07,0.22c0,0.1-0.03,0.19-0.08,0.25
				c-0.05,0.06-0.12,0.09-0.2,0.09c-0.04,0-0.07-0.01-0.1-0.02C49.32,17.02,49.29,17,49.27,16.97z M49.27,16.71v0.05
				c0,0.04,0.01,0.08,0.04,0.11s0.05,0.04,0.09,0.04c0.05,0,0.08-0.02,0.11-0.05c0.03-0.04,0.04-0.08,0.04-0.15
				c0-0.06-0.01-0.1-0.03-0.13c-0.02-0.03-0.06-0.04-0.1-0.04c-0.04,0-0.08,0.02-0.1,0.05S49.27,16.66,49.27,16.71z"/>
			<path class="st4" d="M50.41,16.78H50c0,0.05,0.02,0.08,0.05,0.11c0.03,0.02,0.07,0.04,0.12,0.04c0.02,0,0.04,0,0.07-0.02
				c0.03-0.01,0.06-0.03,0.09-0.05l0.08,0.1c-0.04,0.03-0.08,0.05-0.13,0.07s-0.09,0.02-0.14,0.02c-0.1,0-0.18-0.03-0.23-0.08
				c-0.05-0.06-0.08-0.13-0.08-0.23c0-0.1,0.03-0.18,0.09-0.24c0.06-0.06,0.13-0.09,0.22-0.09c0.09,0,0.15,0.03,0.2,0.08
				c0.05,0.05,0.08,0.13,0.08,0.22V16.78z M50.24,16.67c0-0.05-0.01-0.08-0.03-0.11c-0.02-0.02-0.05-0.03-0.08-0.03
				c-0.03,0-0.06,0.01-0.08,0.04c-0.02,0.02-0.04,0.06-0.04,0.1H50.24z"/>
			<path class="st4" d="M51.03,17c-0.03,0.02-0.06,0.03-0.1,0.04c-0.03,0.01-0.07,0.01-0.11,0.01c-0.1,0-0.18-0.03-0.24-0.09
				c-0.06-0.06-0.09-0.13-0.09-0.22c0-0.1,0.03-0.19,0.09-0.25c0.06-0.06,0.14-0.09,0.25-0.09c0.04,0,0.07,0,0.1,0.01
				s0.06,0.02,0.09,0.04l-0.07,0.12c-0.02-0.01-0.04-0.02-0.05-0.02c-0.02,0-0.04-0.01-0.06-0.01c-0.05,0-0.09,0.02-0.12,0.05
				c-0.03,0.03-0.04,0.08-0.04,0.14c0,0.06,0.01,0.1,0.04,0.13c0.03,0.03,0.07,0.05,0.12,0.05c0.01,0,0.03,0,0.05-0.01
				c0.02-0.01,0.04-0.02,0.06-0.03L51.03,17z"/>
			<path class="st4" d="M51.23,16.34c-0.03,0-0.06-0.01-0.08-0.03c-0.02-0.02-0.03-0.04-0.03-0.07c0-0.03,0.01-0.05,0.03-0.07
				s0.04-0.03,0.08-0.03c0.03,0,0.06,0.01,0.08,0.03c0.02,0.02,0.03,0.04,0.03,0.07s-0.01,0.05-0.03,0.07
				C51.29,16.33,51.26,16.34,51.23,16.34z M51.32,17.04h-0.18v-0.62h0.18V17.04z"/>
			<path class="st4" d="M52,17.04h-0.17v-0.09h0c-0.02,0.04-0.05,0.06-0.08,0.08c-0.03,0.02-0.07,0.03-0.11,0.03
				c-0.05,0-0.1-0.02-0.14-0.05c-0.04-0.03-0.06-0.08-0.06-0.14c0-0.06,0.02-0.1,0.06-0.14c0.04-0.04,0.1-0.06,0.17-0.07l0.15-0.02
				v-0.01c0-0.03-0.01-0.06-0.03-0.07c-0.02-0.02-0.05-0.02-0.08-0.02c-0.03,0-0.05,0-0.08,0.01c-0.03,0.01-0.06,0.02-0.09,0.04
				l-0.06-0.11c0.04-0.02,0.08-0.04,0.12-0.05c0.04-0.01,0.09-0.02,0.13-0.02c0.09,0,0.16,0.02,0.2,0.06
				c0.04,0.04,0.07,0.11,0.07,0.2V17.04z M51.83,16.79v-0.04l-0.12,0.01c-0.03,0-0.06,0.01-0.07,0.03
				c-0.02,0.01-0.02,0.03-0.02,0.06c0,0.02,0.01,0.04,0.02,0.06s0.04,0.02,0.06,0.02c0.04,0,0.07-0.01,0.09-0.04
				C51.82,16.86,51.83,16.83,51.83,16.79z"/>
			<path class="st4" d="M52.17,17.04v-0.89h0.18v0.89H52.17z"/>
			<path class="st4" d="M52.61,16.34c-0.03,0-0.06-0.01-0.08-0.03c-0.02-0.02-0.03-0.04-0.03-0.07c0-0.03,0.01-0.05,0.03-0.07
				s0.04-0.03,0.08-0.03c0.03,0,0.06,0.01,0.08,0.03c0.02,0.02,0.03,0.04,0.03,0.07s-0.01,0.05-0.03,0.07
				C52.67,16.33,52.64,16.34,52.61,16.34z M52.7,17.04h-0.18v-0.62h0.18V17.04z"/>
			<path class="st4" d="M53.36,16.51l-0.3,0.4h0.3v0.13h-0.55v-0.07l0.32-0.41h-0.29v-0.13h0.52V16.51z"/>
			<path class="st4" d="M53.98,17.04h-0.17v-0.09h0c-0.02,0.04-0.05,0.06-0.08,0.08c-0.03,0.02-0.07,0.03-0.11,0.03
				c-0.05,0-0.1-0.02-0.14-0.05c-0.04-0.03-0.06-0.08-0.06-0.14c0-0.06,0.02-0.1,0.06-0.14c0.04-0.04,0.1-0.06,0.17-0.07l0.15-0.02
				v-0.01c0-0.03-0.01-0.06-0.03-0.07c-0.02-0.02-0.05-0.02-0.08-0.02c-0.03,0-0.05,0-0.08,0.01c-0.03,0.01-0.06,0.02-0.09,0.04
				l-0.06-0.11c0.04-0.02,0.08-0.04,0.12-0.05c0.04-0.01,0.09-0.02,0.13-0.02c0.09,0,0.16,0.02,0.2,0.06
				c0.04,0.04,0.07,0.11,0.07,0.2V17.04z M53.81,16.79v-0.04l-0.12,0.01c-0.03,0-0.06,0.01-0.07,0.03
				c-0.02,0.01-0.02,0.03-0.02,0.06c0,0.02,0.01,0.04,0.02,0.06s0.04,0.02,0.06,0.02c0.04,0,0.07-0.01,0.09-0.04
				C53.8,16.86,53.81,16.83,53.81,16.79z"/>
			<path class="st4" d="M54.56,16.95c-0.02,0.03-0.05,0.06-0.08,0.08s-0.07,0.03-0.11,0.03c-0.08,0-0.14-0.03-0.19-0.08
				c-0.05-0.06-0.07-0.13-0.07-0.23c0-0.1,0.03-0.18,0.08-0.25c0.05-0.06,0.12-0.09,0.2-0.09c0.04,0,0.07,0.01,0.1,0.02
				s0.05,0.04,0.07,0.07h0v-0.35h0.18v0.89h-0.18L54.56,16.95L54.56,16.95z M54.29,16.74c0,0.06,0.01,0.1,0.04,0.13
				c0.02,0.03,0.06,0.05,0.1,0.05c0.04,0,0.07-0.02,0.1-0.05s0.04-0.07,0.04-0.13v-0.05c0-0.04-0.01-0.08-0.04-0.1
				s-0.06-0.04-0.09-0.04c-0.04,0-0.08,0.02-0.1,0.05C54.3,16.63,54.29,16.68,54.29,16.74z"/>
			<path class="st4" d="M55.2,17.06c-0.1,0-0.18-0.03-0.24-0.09c-0.06-0.06-0.09-0.14-0.09-0.23c0-0.1,0.03-0.18,0.09-0.24
				s0.14-0.09,0.25-0.09c0.1,0,0.18,0.03,0.24,0.09s0.09,0.13,0.09,0.23c0,0.1-0.03,0.18-0.09,0.24
				C55.39,17.03,55.31,17.06,55.2,17.06z M55.21,16.92c0.05,0,0.08-0.02,0.11-0.05c0.02-0.03,0.04-0.08,0.04-0.14
				c0-0.06-0.01-0.1-0.04-0.13c-0.02-0.03-0.06-0.05-0.11-0.05c-0.05,0-0.08,0.02-0.11,0.05s-0.04,0.08-0.04,0.14
				c0,0.06,0.01,0.11,0.04,0.14C55.12,16.9,55.16,16.92,55.21,16.92z"/>
			<path class="st4" d="M48.84,17.4l-0.29,0.84h-0.21l-0.29-0.84h0.2L48.43,18c0,0.02,0.01,0.03,0.01,0.04c0,0.01,0,0.03,0.01,0.04
				h0c0-0.01,0-0.03,0.01-0.04c0-0.01,0.01-0.03,0.01-0.04l0.18-0.59H48.84z"/>
			<path class="st4" d="M49.78,18.25h-0.17v-0.09h0c-0.02,0.04-0.05,0.06-0.08,0.08c-0.03,0.02-0.07,0.03-0.11,0.03
				c-0.06,0-0.1-0.02-0.14-0.05s-0.06-0.08-0.06-0.14c0-0.06,0.02-0.1,0.06-0.14c0.04-0.04,0.1-0.06,0.17-0.07l0.15-0.02v-0.01
				c0-0.03-0.01-0.06-0.03-0.07c-0.02-0.02-0.05-0.02-0.08-0.02c-0.03,0-0.05,0-0.08,0.01c-0.03,0.01-0.06,0.02-0.09,0.04
				l-0.06-0.11c0.04-0.02,0.08-0.04,0.12-0.05c0.04-0.01,0.09-0.02,0.13-0.02c0.09,0,0.16,0.02,0.2,0.06
				c0.04,0.04,0.06,0.11,0.06,0.2V18.25z M49.61,18v-0.04l-0.12,0.01c-0.03,0-0.06,0.01-0.07,0.03s-0.02,0.03-0.02,0.06
				c0,0.02,0.01,0.04,0.02,0.06s0.04,0.02,0.06,0.02c0.04,0,0.07-0.01,0.09-0.04C49.6,18.07,49.61,18.04,49.61,18z"/>
			<path class="st4" d="M50.99,17.4l-0.29,0.84h-0.21L50.2,17.4h0.2L50.58,18c0,0.02,0.01,0.03,0.01,0.04c0,0.01,0,0.03,0.01,0.04h0
				c0-0.01,0-0.03,0.01-0.04c0-0.01,0.01-0.03,0.01-0.04l0.18-0.59H50.99z"/>
			<path class="st4" d="M51.29,18.25H51.1V17.4h0.18V18.25z"/>
			<path class="st4" d="M51.68,18.25h-0.18V17.4h0.18V18.25z"/>
			<path class="st4" d="M52.07,18.25h-0.18V17.4h0.18V18.25z"/>
		</g>
	</g>
	<g>
		<g>
			<path class="st4" d="M78.8,17c-0.04,0.02-0.09,0.04-0.13,0.05c-0.04,0.01-0.09,0.01-0.14,0.01c-0.13,0-0.24-0.04-0.31-0.11
				c-0.08-0.07-0.11-0.18-0.11-0.32c0-0.13,0.04-0.24,0.12-0.32c0.08-0.08,0.19-0.13,0.33-0.13c0.05,0,0.09,0,0.12,0.01
				c0.04,0.01,0.07,0.02,0.11,0.03l-0.06,0.15c-0.03-0.01-0.06-0.02-0.08-0.03s-0.06-0.01-0.09-0.01c-0.07,0-0.13,0.02-0.18,0.07
				c-0.05,0.05-0.08,0.12-0.08,0.2c0,0.09,0.02,0.16,0.07,0.2c0.04,0.05,0.11,0.07,0.19,0.07c0.02,0,0.05,0,0.08-0.01
				s0.06-0.02,0.09-0.04L78.8,17z"/>
			<path class="st4" d="M79.01,16.34c-0.03,0-0.06-0.01-0.08-0.03c-0.02-0.02-0.03-0.04-0.03-0.07c0-0.03,0.01-0.05,0.03-0.07
				c0.02-0.02,0.04-0.03,0.08-0.03c0.03,0,0.06,0.01,0.08,0.03c0.02,0.02,0.03,0.04,0.03,0.07s-0.01,0.05-0.03,0.07
				C79.07,16.33,79.04,16.34,79.01,16.34z M79.1,17.04h-0.18v-0.62h0.18V17.04z"/>
			<path class="st4" d="M79.78,17c-0.03,0.02-0.06,0.03-0.1,0.04c-0.03,0.01-0.07,0.01-0.11,0.01c-0.1,0-0.18-0.03-0.24-0.09
				c-0.06-0.06-0.09-0.13-0.09-0.22c0-0.1,0.03-0.19,0.09-0.25c0.06-0.06,0.14-0.09,0.25-0.09c0.04,0,0.07,0,0.1,0.01
				s0.06,0.02,0.09,0.04l-0.07,0.12c-0.02-0.01-0.04-0.02-0.05-0.02c-0.02,0-0.04-0.01-0.06-0.01c-0.05,0-0.09,0.02-0.12,0.05
				c-0.03,0.03-0.04,0.08-0.04,0.14c0,0.06,0.02,0.1,0.05,0.13c0.03,0.03,0.07,0.05,0.12,0.05c0.01,0,0.03,0,0.05-0.01
				s0.04-0.02,0.06-0.03L79.78,17z"/>
			<path class="st4" d="M79.89,17.04v-0.9h0.18v0.9H79.89z"/>
			<path class="st4" d="M80.53,17.06c-0.1,0-0.18-0.03-0.24-0.09s-0.09-0.14-0.09-0.24c0-0.1,0.03-0.18,0.09-0.24
				c0.06-0.06,0.14-0.09,0.25-0.09c0.1,0,0.18,0.03,0.24,0.09c0.06,0.06,0.09,0.13,0.09,0.23c0,0.1-0.03,0.18-0.09,0.24
				C80.72,17.03,80.64,17.06,80.53,17.06z M80.54,16.92c0.05,0,0.08-0.02,0.11-0.05c0.02-0.03,0.04-0.08,0.04-0.14
				c0-0.06-0.01-0.1-0.04-0.14c-0.02-0.03-0.06-0.05-0.11-0.05c-0.05,0-0.08,0.02-0.11,0.05c-0.03,0.03-0.04,0.08-0.04,0.14
				c0,0.06,0.01,0.11,0.04,0.14S80.49,16.92,80.54,16.92z"/>
			<path class="st4" d="M81.54,16.76v0.28h-0.18v-0.85h0.29c0.11,0,0.19,0.02,0.24,0.07c0.05,0.05,0.08,0.11,0.08,0.21
				c0,0.09-0.03,0.16-0.09,0.21s-0.14,0.08-0.24,0.08H81.54z M81.54,16.33v0.28h0.08c0.05,0,0.09-0.01,0.12-0.04
				c0.03-0.02,0.04-0.06,0.04-0.11c0-0.05-0.01-0.08-0.04-0.11c-0.03-0.02-0.07-0.03-0.12-0.03H81.54z"/>
			<path class="st4" d="M82.47,16.57c-0.01,0-0.02,0-0.02,0c-0.01,0-0.02,0-0.03,0c-0.05,0-0.09,0.02-0.11,0.05
				s-0.04,0.07-0.04,0.13v0.3h-0.18v-0.62h0.18v0.12h0c0.01-0.04,0.04-0.07,0.06-0.09c0.03-0.02,0.06-0.03,0.1-0.03
				c0.01,0,0.02,0,0.03,0s0.02,0,0.03,0L82.47,16.57z"/>
			<path class="st4" d="M82.88,17.06c-0.1,0-0.18-0.03-0.24-0.09s-0.09-0.14-0.09-0.24c0-0.1,0.03-0.18,0.09-0.24
				c0.06-0.06,0.14-0.09,0.25-0.09c0.1,0,0.18,0.03,0.24,0.09s0.09,0.13,0.09,0.23c0,0.1-0.03,0.18-0.09,0.24
				C83.07,17.03,82.98,17.06,82.88,17.06z M82.89,16.92c0.05,0,0.08-0.02,0.11-0.05c0.02-0.03,0.04-0.08,0.04-0.14
				c0-0.06-0.01-0.1-0.04-0.14c-0.02-0.03-0.06-0.05-0.11-0.05c-0.05,0-0.08,0.02-0.11,0.05c-0.03,0.03-0.04,0.08-0.04,0.14
				c0,0.06,0.01,0.11,0.04,0.14S82.84,16.92,82.89,16.92z"/>
			<path class="st4" d="M83.73,16.28c-0.01,0-0.02-0.01-0.03-0.01c-0.01,0-0.02,0-0.03,0c-0.03,0-0.05,0.01-0.06,0.02
				c-0.01,0.02-0.02,0.04-0.02,0.07v0.07h0.14v0.13h-0.14v0.49H83.4v-0.49h-0.1v-0.13h0.1v-0.08c0-0.07,0.02-0.12,0.07-0.16
				s0.1-0.06,0.17-0.06c0.03,0,0.05,0,0.07,0c0.02,0,0.04,0.01,0.06,0.01L83.73,16.28z"/>
			<path class="st4" d="M84.38,16.78h-0.41c0,0.05,0.02,0.08,0.05,0.11c0.03,0.02,0.07,0.04,0.12,0.04c0.02,0,0.04,0,0.07-0.02
				c0.03-0.01,0.06-0.03,0.09-0.05l0.08,0.11c-0.04,0.03-0.09,0.05-0.13,0.07c-0.04,0.01-0.09,0.02-0.15,0.02
				c-0.1,0-0.18-0.03-0.23-0.08s-0.08-0.13-0.08-0.23c0-0.1,0.03-0.18,0.09-0.24c0.06-0.06,0.13-0.09,0.22-0.09
				c0.09,0,0.15,0.03,0.21,0.08c0.05,0.05,0.08,0.13,0.08,0.23V16.78z M84.21,16.67c0-0.05-0.01-0.08-0.03-0.11
				c-0.02-0.02-0.05-0.03-0.08-0.03c-0.03,0-0.06,0.01-0.08,0.04c-0.02,0.02-0.04,0.06-0.04,0.1H84.21z"/>
			<path class="st4" d="M84.45,16.99l0.08-0.12c0.02,0.02,0.05,0.03,0.07,0.04c0.03,0.01,0.06,0.02,0.09,0.02
				c0.03,0,0.05,0,0.06-0.01s0.03-0.02,0.03-0.04c0-0.02-0.01-0.03-0.02-0.04c-0.01-0.01-0.04-0.02-0.07-0.03
				c-0.08-0.02-0.13-0.04-0.17-0.07c-0.03-0.03-0.05-0.07-0.05-0.12c0-0.06,0.02-0.11,0.07-0.15s0.11-0.06,0.18-0.06
				c0.04,0,0.07,0,0.11,0.01s0.06,0.02,0.09,0.04l-0.07,0.12c-0.03-0.02-0.05-0.03-0.07-0.03c-0.02-0.01-0.04-0.01-0.07-0.01
				c-0.03,0-0.05,0-0.06,0.01c-0.02,0.01-0.02,0.02-0.02,0.04c0,0.02,0.01,0.03,0.02,0.04c0.02,0.01,0.04,0.02,0.08,0.03
				c0.07,0.01,0.12,0.04,0.15,0.07c0.03,0.03,0.05,0.07,0.05,0.13c0,0.06-0.02,0.11-0.07,0.15c-0.05,0.04-0.11,0.06-0.19,0.06
				c-0.04,0-0.08-0.01-0.12-0.02C84.53,17.03,84.49,17.01,84.45,16.99z"/>
			<path class="st4" d="M85.16,16.34c-0.03,0-0.06-0.01-0.08-0.03c-0.02-0.02-0.03-0.04-0.03-0.07c0-0.03,0.01-0.05,0.03-0.07
				s0.05-0.03,0.08-0.03s0.06,0.01,0.08,0.03c0.02,0.02,0.03,0.04,0.03,0.07s-0.01,0.05-0.03,0.07
				C85.21,16.33,85.19,16.34,85.16,16.34z M85.24,17.04h-0.18v-0.62h0.18V17.04z"/>
			<path class="st4" d="M85.72,17.06c-0.1,0-0.18-0.03-0.24-0.09s-0.09-0.14-0.09-0.24c0-0.1,0.03-0.18,0.09-0.24
				c0.06-0.06,0.14-0.09,0.25-0.09c0.1,0,0.18,0.03,0.24,0.09c0.06,0.06,0.09,0.13,0.09,0.23c0,0.1-0.03,0.18-0.09,0.24
				C85.9,17.03,85.82,17.06,85.72,17.06z M85.72,16.92c0.05,0,0.08-0.02,0.11-0.05c0.02-0.03,0.04-0.08,0.04-0.14
				c0-0.06-0.01-0.1-0.04-0.14c-0.02-0.03-0.06-0.05-0.11-0.05c-0.05,0-0.08,0.02-0.11,0.05c-0.03,0.03-0.04,0.08-0.04,0.14
				c0,0.06,0.01,0.11,0.04,0.14S85.67,16.92,85.72,16.92z"/>
			<path class="st4" d="M86.78,17.04H86.6v-0.35c0-0.05-0.01-0.09-0.03-0.11c-0.02-0.03-0.04-0.04-0.08-0.04s-0.06,0.01-0.09,0.04
				c-0.02,0.03-0.03,0.06-0.03,0.1v0.35h-0.18v-0.62h0.18v0.1h0c0.02-0.04,0.05-0.07,0.08-0.08c0.03-0.02,0.07-0.03,0.12-0.03
				c0.07,0,0.12,0.02,0.16,0.06c0.03,0.04,0.05,0.11,0.05,0.19V17.04z"/>
			<path class="st4" d="M87.45,17.04h-0.17v-0.09h0c-0.02,0.03-0.05,0.06-0.08,0.08s-0.07,0.03-0.11,0.03
				c-0.06,0-0.1-0.02-0.14-0.05c-0.04-0.03-0.06-0.08-0.06-0.14c0-0.06,0.02-0.1,0.06-0.14c0.04-0.04,0.1-0.06,0.18-0.07l0.15-0.02
				v-0.01c0-0.03-0.01-0.06-0.03-0.07c-0.02-0.02-0.05-0.02-0.08-0.02c-0.03,0-0.05,0-0.08,0.01c-0.03,0.01-0.06,0.02-0.09,0.04
				l-0.06-0.11c0.04-0.03,0.08-0.04,0.12-0.06c0.04-0.01,0.09-0.02,0.14-0.02c0.09,0,0.16,0.02,0.2,0.07
				c0.04,0.04,0.06,0.11,0.06,0.2V17.04z M87.28,16.79v-0.04l-0.12,0.02c-0.03,0-0.06,0.01-0.07,0.03
				c-0.02,0.01-0.02,0.04-0.02,0.06c0,0.02,0.01,0.04,0.02,0.06s0.04,0.02,0.06,0.02c0.04,0,0.07-0.01,0.09-0.04
				C87.27,16.86,87.28,16.83,87.28,16.79z"/>
			<path class="st4" d="M87.61,17.04v-0.9h0.18v0.9H87.61z"/>
			<path class="st4" d="M81.59,18.25h-0.18V17.4h0.18V18.25z"/>
			<path class="st4" d="M82.48,18.25h-0.22l-0.15-0.28c0,0-0.01-0.01-0.01-0.02c0-0.01-0.01-0.02-0.01-0.03h0
				c0,0.01,0,0.01-0.01,0.02s-0.01,0.02-0.01,0.03l-0.15,0.28h-0.22l0.27-0.42l-0.25-0.42h0.23l0.12,0.26
				c0,0.01,0.01,0.02,0.01,0.03c0,0.01,0.01,0.02,0.01,0.04h0c0-0.01,0.01-0.02,0.01-0.03c0-0.01,0.01-0.03,0.02-0.04l0.14-0.25
				h0.21l-0.25,0.42L82.48,18.25z"/>
			<path class="st4" d="M83.42,18.25h-0.17v-0.09h0c-0.02,0.03-0.05,0.06-0.08,0.08s-0.07,0.03-0.11,0.03
				c-0.05,0-0.1-0.02-0.14-0.05s-0.06-0.08-0.06-0.14c0-0.06,0.02-0.1,0.06-0.14c0.04-0.04,0.1-0.06,0.18-0.07l0.15-0.02v-0.01
				c0-0.03-0.01-0.06-0.03-0.07c-0.02-0.02-0.05-0.02-0.08-0.02c-0.03,0-0.05,0-0.08,0.01c-0.03,0.01-0.06,0.02-0.09,0.04
				l-0.06-0.11c0.04-0.03,0.08-0.04,0.12-0.06c0.04-0.01,0.09-0.02,0.13-0.02c0.09,0,0.16,0.02,0.2,0.07
				c0.04,0.04,0.07,0.11,0.07,0.2V18.25z M83.25,18v-0.04l-0.12,0.02c-0.03,0-0.06,0.01-0.07,0.03s-0.02,0.04-0.02,0.06
				c0,0.02,0.01,0.04,0.02,0.06c0.02,0.01,0.04,0.02,0.06,0.02c0.04,0,0.07-0.01,0.09-0.04C83.24,18.07,83.25,18.04,83.25,18z"/>
			<path class="st4" d="M84.62,18.25h-0.22l-0.15-0.28c0,0-0.01-0.01-0.01-0.02c0-0.01-0.01-0.02-0.01-0.03h0
				c0,0.01,0,0.01-0.01,0.02s-0.01,0.02-0.01,0.03l-0.15,0.28h-0.22l0.27-0.42l-0.25-0.42h0.23l0.12,0.26
				c0,0.01,0.01,0.02,0.01,0.03c0,0.01,0.01,0.02,0.01,0.04h0c0-0.01,0.01-0.02,0.01-0.03c0-0.01,0.01-0.03,0.02-0.04l0.14-0.25
				h0.21l-0.25,0.42L84.62,18.25z"/>
		</g>
	</g>
	<g>
		<g>
			<path class="st2" d="M46.09,10.83v0.3h-0.07v-0.79h0.2c0.08,0,0.15,0.02,0.19,0.06s0.07,0.1,0.07,0.17
				c0,0.08-0.02,0.14-0.07,0.19s-0.12,0.07-0.2,0.07H46.09z M46.09,10.41v0.36h0.1c0.07,0,0.12-0.02,0.15-0.05s0.05-0.08,0.05-0.14
				c0-0.06-0.02-0.1-0.05-0.13c-0.03-0.03-0.08-0.04-0.15-0.04H46.09z"/>
			<path class="st2" d="M46.89,10.63c-0.01,0-0.02,0-0.02-0.01c-0.01,0-0.01,0-0.02,0c-0.05,0-0.08,0.02-0.11,0.06
				c-0.03,0.04-0.04,0.1-0.04,0.17v0.28h-0.07v-0.56h0.07v0.12h0c0.01-0.04,0.03-0.07,0.06-0.09c0.03-0.02,0.06-0.03,0.1-0.03
				c0.01,0,0.02,0,0.03,0c0.01,0,0.02,0,0.02,0L46.89,10.63z"/>
			<path class="st2" d="M47.24,11.14c-0.08,0-0.15-0.03-0.2-0.08c-0.05-0.05-0.07-0.12-0.07-0.21c0-0.09,0.03-0.17,0.08-0.22
				c0.05-0.05,0.12-0.08,0.2-0.08c0.08,0,0.15,0.03,0.19,0.08s0.07,0.12,0.07,0.22c0,0.09-0.02,0.16-0.07,0.21
				C47.39,11.12,47.32,11.14,47.24,11.14z M47.24,11.08c0.06,0,0.11-0.02,0.15-0.06c0.03-0.04,0.05-0.1,0.05-0.17
				c0-0.08-0.02-0.13-0.05-0.17c-0.03-0.04-0.08-0.06-0.14-0.06c-0.06,0-0.11,0.02-0.15,0.06s-0.06,0.1-0.06,0.17
				c0,0.07,0.02,0.13,0.05,0.17C47.13,11.06,47.18,11.08,47.24,11.08z"/>
			<path class="st2" d="M48.08,10.57l-0.28,0.69c-0.02,0.04-0.04,0.07-0.07,0.1s-0.06,0.04-0.1,0.04c-0.01,0-0.02,0-0.03,0
				c-0.01,0-0.02,0-0.03,0l0.02-0.06c0.01,0,0.01,0,0.02,0c0.01,0,0.01,0,0.02,0c0.02,0,0.04-0.01,0.06-0.02
				c0.02-0.01,0.03-0.03,0.04-0.06l0.05-0.13l-0.22-0.56h0.08l0.16,0.45c0,0.01,0,0.01,0.01,0.02s0,0.01,0.01,0.02h0
				c0-0.01,0-0.01,0-0.02c0-0.01,0-0.01,0.01-0.02l0.17-0.45H48.08z"/>
			<path class="st2" d="M48.62,10.86h-0.41c0,0.08,0.02,0.13,0.05,0.17c0.04,0.04,0.08,0.05,0.14,0.05c0.03,0,0.05,0,0.08-0.01
				c0.03-0.01,0.05-0.02,0.08-0.04l0.04,0.05c-0.03,0.02-0.06,0.04-0.09,0.05c-0.03,0.01-0.07,0.02-0.11,0.02
				c-0.08,0-0.14-0.02-0.19-0.07c-0.05-0.05-0.07-0.12-0.07-0.22c0-0.09,0.02-0.16,0.07-0.21c0.05-0.06,0.11-0.08,0.19-0.08
				c0.07,0,0.13,0.02,0.17,0.07c0.04,0.05,0.06,0.11,0.06,0.2V10.86z M48.55,10.8c0-0.06-0.02-0.1-0.04-0.14
				c-0.03-0.03-0.06-0.05-0.11-0.05c-0.05,0-0.09,0.02-0.12,0.05s-0.05,0.08-0.06,0.14H48.55z"/>
			<path class="st2" d="M49.14,11.1c-0.03,0.02-0.05,0.03-0.08,0.03c-0.03,0.01-0.05,0.01-0.08,0.01c-0.08,0-0.14-0.03-0.19-0.08
				s-0.07-0.12-0.07-0.21c0-0.09,0.03-0.16,0.08-0.22c0.05-0.06,0.12-0.08,0.21-0.08c0.03,0,0.05,0,0.07,0.01
				c0.02,0.01,0.05,0.02,0.07,0.03l-0.03,0.05c-0.02-0.01-0.04-0.02-0.06-0.02c-0.02,0-0.04-0.01-0.06-0.01
				c-0.06,0-0.12,0.02-0.15,0.07s-0.06,0.1-0.06,0.17c0,0.07,0.02,0.13,0.05,0.17c0.04,0.04,0.08,0.06,0.14,0.06
				c0.02,0,0.04,0,0.06-0.01c0.02-0.01,0.04-0.02,0.06-0.03L49.14,11.1z"/>
			<path class="st2" d="M49.51,11.12c-0.01,0.01-0.03,0.01-0.04,0.02c-0.01,0-0.03,0.01-0.05,0.01c-0.04,0-0.07-0.01-0.09-0.04
				s-0.03-0.06-0.03-0.11v-0.37h-0.1v-0.06h0.1v-0.14l0.07-0.02v0.17h0.15v0.06h-0.15v0.36c0,0.03,0.01,0.06,0.02,0.07
				c0.01,0.01,0.03,0.02,0.05,0.02c0.01,0,0.02,0,0.03,0s0.02-0.01,0.03-0.01L49.51,11.12z"/>
			<path class="st2" d="M49.85,11.14c-0.08,0-0.15-0.03-0.2-0.08c-0.05-0.05-0.07-0.12-0.07-0.21c0-0.09,0.03-0.17,0.08-0.22
				c0.05-0.05,0.12-0.08,0.2-0.08c0.08,0,0.15,0.03,0.19,0.08s0.07,0.12,0.07,0.22c0,0.09-0.02,0.16-0.07,0.21
				C50.01,11.12,49.94,11.14,49.85,11.14z M49.86,11.08c0.06,0,0.11-0.02,0.15-0.06c0.03-0.04,0.05-0.1,0.05-0.17
				c0-0.08-0.02-0.13-0.05-0.17c-0.03-0.04-0.08-0.06-0.14-0.06c-0.06,0-0.11,0.02-0.15,0.06s-0.06,0.1-0.06,0.17
				c0,0.07,0.02,0.13,0.05,0.17C49.75,11.06,49.8,11.08,49.86,11.08z"/>
			<path class="st2" d="M51.16,10.34l-0.3,0.79h-0.07l-0.29-0.79h0.08l0.22,0.63c0,0.01,0.01,0.02,0.01,0.04
				c0,0.01,0.01,0.02,0.01,0.04h0c0-0.01,0-0.02,0.01-0.03c0-0.01,0.01-0.03,0.01-0.04l0.23-0.63H51.16z"/>
			<path class="st2" d="M51.35,11.13h-0.07v-0.79h0.07V11.13z"/>
			<path class="st2" d="M52.28,10.57l-0.28,0.69c-0.02,0.04-0.04,0.07-0.07,0.1s-0.06,0.04-0.1,0.04c-0.01,0-0.02,0-0.03,0
				c-0.01,0-0.02,0-0.03,0l0.01-0.06c0.01,0,0.01,0,0.02,0c0.01,0,0.01,0,0.02,0c0.02,0,0.04-0.01,0.06-0.02
				c0.02-0.01,0.03-0.03,0.04-0.06l0.05-0.13l-0.22-0.56h0.08l0.16,0.45c0,0.01,0,0.01,0.01,0.02s0,0.01,0.01,0.02h0
				c0-0.01,0-0.01,0-0.02c0-0.01,0-0.01,0.01-0.02l0.17-0.45H52.28z"/>
			<path class="st2" d="M53.27,10.34l-0.3,0.79H52.9l-0.29-0.79h0.08l0.22,0.63c0,0.01,0.01,0.02,0.01,0.04c0,0.01,0,0.02,0.01,0.04
				h0c0-0.01,0-0.02,0.01-0.03c0-0.01,0.01-0.03,0.01-0.04l0.23-0.63H53.27z"/>
			<path class="st2" d="M53.46,11.13h-0.07v-0.79h0.07V11.13z"/>
			<path class="st2" d="M53.74,11.13h-0.07v-0.79h0.07V11.13z"/>
			<path class="st2" d="M54.02,11.13h-0.07v-0.79h0.07V11.13z"/>
		</g>
	</g>
	<line class="st5" x1="9.48" y1="14.44" x2="90.52" y2="14.44"/>
	<path class="st6" d="M58.07,6.41c0,0.51-0.42,0.93-0.93,0.93H43.07c-0.51,0-0.93-0.42-0.93-0.93"/>
	<path class="st0" d="M58.07,12.45c0,0.51-0.42,0.93-0.93,0.93H43.07c-0.51,0-0.93-0.42-0.93-0.93"/>
	<path class="st0" d="M90.52,12.69c0,0.51-0.42,0.93-0.93,0.93H75.52c-0.51,0-0.93-0.42-0.93-0.93"/>
	<line class="st7" x1="50.1" y1="13.7" x2="50.1" y2="15.39"/>
	<line class="st7" x1="82.55" y1="13.87" x2="82.55" y2="15.57"/>
	<line class="st7" x1="16.97" y1="13.87" x2="16.97" y2="15.57"/>
</g>
</svg>
