<?xml version="1.0" encoding="UTF-8"?>
<svg id="Layer_1" data-name="Layer 1" xmlns="http://www.w3.org/2000/svg" viewBox="0 0 184 101.94">
  <defs>
    <style>
      .cls-1 {
        font-size: 1.21px;
      }

      .cls-1, .cls-2 {
        fill: #505050;
        font-family: Arial-Black, Arial;
        font-weight: 800;
      }

      .cls-3 {
        fill: #ef4623;
      }

      .cls-3, .cls-4, .cls-5, .cls-6 {
        stroke-width: 0px;
      }

      .cls-4 {
        fill: #fac4bd;
      }

      .cls-5 {
        fill: #393e95;
      }

      .cls-7 {
        letter-spacing: -.03em;
      }

      .cls-8 {
        letter-spacing: -.04em;
      }

      .cls-9 {
        fill: none;
      }

      .cls-9, .cls-10 {
        stroke: #fac4bd;
        stroke-miterlimit: 10;
        stroke-width: .5px;
      }

      .cls-11 {
        letter-spacing: 0em;
      }

      .cls-12 {
        fill: #3d3d3d;
        font-family: ArialMT, Arial;
        font-size: 1.13px;
      }

      .cls-6 {
        fill: #d1cee7;
      }

      .cls-13 {
        letter-spacing: .02em;
      }

      .cls-10 {
        fill: #fff;
      }

      .cls-2 {
        font-size: 1.21px;
      }

      .cls-14 {
        letter-spacing: -.03em;
      }

      .cls-15 {
        letter-spacing: -.02em;
      }

      .cls-16 {
        letter-spacing: -.02em;
      }

      .cls-17 {
        letter-spacing: 0em;
      }
    </style>
  </defs>
  <rect class="cls-4" x="93.18" y="7.31" width="15.93" height="4.93" rx=".88" ry=".88"/>
  <rect class="cls-4" x="60.67" y="7.09" width="15.93" height="4.93" rx=".88" ry=".88"/>
  <text class="cls-12" transform="translate(96.63 9.45)"><tspan x="0" y="0">Proyecto de</tspan><tspan class="cls-16" x="6" y="0"> </tspan><tspan class="cls-8" x="6.3" y="0">T</tspan><tspan x="6.94" y="0">itulo</tspan><tspan x="3.44" y="1.04">I y II</tspan></text>
  <rect class="cls-6" x="60.73" y="0" width="15.93" height="5.8" rx=".93" ry=".93"/>
  <text class="cls-12" transform="translate(65.31 2.55)"><tspan x="0" y="0">Herramientas </tspan><tspan x="-.97" y="1.04">Computacionales</tspan></text>
  <text class="cls-1" transform="translate(31.43 15.66)"><tspan x="0" y="0">Ci</tspan><tspan class="cls-14" x="1.35" y="0">c</tspan><tspan x="2.12" y="0">lo Básico</tspan><tspan x="2.37" y="1.21">I a IV</tspan></text>
  <text class="cls-2" transform="translate(62.27 15.66)"><tspan x="0" y="0">Ci</tspan><tspan class="cls-7" x="1.34" y="0">c</tspan><tspan class="cls-11" x="2.11" y="0">lo Especializado</tspan><tspan x="3.97" y="1.21">V a VIII</tspan></text>
  <text class="cls-1" transform="translate(95.95 15.66)"><tspan x="0" y="0">Ci</tspan><tspan class="cls-14" x="1.35" y="0">c</tspan><tspan x="2.12" y="0">lo P</tspan><tspan class="cls-13" x="4.61" y="0">r</tspan><tspan x="5.17" y="0">o</tspan><tspan class="cls-15" x="5.98" y="0">f</tspan><tspan class="cls-17" x="6.43" y="0">esional</tspan><tspan x="3.62" y="1.21">IX a X</tspan></text>
  <text class="cls-12" transform="translate(64.18 9.82)"><tspan x="0" y="0">Proyecto VI y VIII</tspan></text>
  <line class="cls-9" x1="28.07" y1="13.06" x2="109.1" y2="13.06"/>
  <path class="cls-5" d="M76.65,5.03c0,.51-.42.93-.93.93h-14.07c-.51,0-.93-.42-.93-.93"/>
  <path class="cls-3" d="M76.65,11.07c0,.51-.42.93-.93.93h-14.07c-.51,0-.93-.42-.93-.93"/>
  <path class="cls-3" d="M109.1,11.31c0,.51-.42.93-.93.93h-14.07c-.51,0-.93-.42-.93-.93"/>
  <line class="cls-10" x1="68.69" y1="12.32" x2="68.69" y2="14.01"/>
  <line class="cls-10" x1="101.14" y1="12.49" x2="101.14" y2="14.18"/>
  <line class="cls-10" x1="35.55" y1="12.49" x2="35.55" y2="14.18"/>
</svg>