<?xml version="1.0" encoding="UTF-8"?>
<svg id="Layer_1" data-name="Layer 1" xmlns="http://www.w3.org/2000/svg" viewBox="0 0 100 19.8">
  <defs>
    <style>
      .cls-1 {
        fill: none;
        stroke: #1d1d1b;
        stroke-miterlimit: 10;
        stroke-width: .5px;
      }

      .cls-2 {
        fill: #471ca7;
      }

      .cls-2, .cls-3, .cls-4, .cls-5 {
        stroke-width: 0px;
      }

      .cls-3 {
        fill: #ffd6cd;
      }

      .cls-6 {
        font-size: 1.22px;
      }

      .cls-6, .cls-7, .cls-8, .cls-9 {
        font-family: ArialMT, Arial;
      }

      .cls-7 {
        font-size: 1.71px;
      }

      .cls-8 {
        font-size: 1.47px;
      }

      .cls-10 {
        letter-spacing: -.02em;
      }

      .cls-9 {
        font-size: 1.65px;
      }

      .cls-4 {
        fill: #dacaff;
      }

      .cls-5 {
        fill: #ff5607;
      }
    </style>
  </defs>
  <path class="cls-3" d="M40.11,7.85h16.45c.39,0,.72.32.72.72v6.15h-17.88v-6.15c0-.39.32-.72.72-.72Z"/>
  <path class="cls-3" d="M79.98,8.95h16.45c.39,0,.72.32.72.72v4.9h-17.88v-4.9c0-.39.32-.72.72-.72Z"/>
  <rect class="cls-5" x="79.27" y="13.68" width="17.88" height=".89"/>
  <rect class="cls-5" x="39.4" y="13.83" width="17.88" height=".89"/>
  <line class="cls-1" x1="48.34" y1="16.19" x2="48.34" y2="14.88"/>
  <text class="cls-8" transform="translate(41.98 17.56)"><tspan x="0" y="0">Ciclo Especializado</tspan><tspan x="3.96" y="1.76">V a VIII</tspan></text>
  <line class="cls-1" x1="10.5" y1="16.16" x2="10.5" y2="14.85"/>
  <text class="cls-8" transform="translate(6.09 17.53)"><tspan x="0" y="0">Ciclo Básico</tspan><tspan x="2.32" y="1.76">I a IV</tspan></text>
  <line class="cls-1" x1="88.21" y1="16.19" x2="88.21" y2="14.88"/>
  <text class="cls-8" transform="translate(82.7 17.56)"><tspan x="0" y="0">Ciclo Profesional</tspan><tspan x="3.51" y="1.76">IX a X</tspan></text>
  <text class="cls-9" transform="translate(79.74 12.18)"><tspan x="0" y="0">Proyecto de</tspan><tspan class="cls-10" x="8.8" y="0"> </tspan><tspan x="9.23" y="0">Título I y II</tspan></text>
  <text class="cls-7" transform="translate(43.29 10.54)"><tspan x="0" y="0">Seminario de</tspan><tspan x="-1.43" y="2.05">Licenciatura I y II</tspan></text>
  <path class="cls-3" d="M2.28,10.38h16.45c.39,0,.72.32.72.72v3.76H1.56v-3.76c0-.39.32-.72.72-.72Z"/>
  <rect class="cls-5" x="1.56" y="13.96" width="17.88" height=".89"/>
  <text class="cls-7" transform="translate(6.41 12.75)"><tspan x="0" y="0">Proyecto I </tspan></text>
  <path class="cls-3" d="M2.28,5.18h16.45c.39,0,.72.32.72.72v3.76H1.56v-3.76c0-.39.32-.72.72-.72Z"/>
  <rect class="cls-5" x="1.56" y="8.76" width="17.88" height=".89"/>
  <text class="cls-7" transform="translate(6.41 7.55)"><tspan x="0" y="0">Proyecto II</tspan></text>
  <path class="cls-4" d="M40.11,0h16.45c.39,0,.72.32.72.72v6.23h-17.88V.72c0-.39.32-.72.72-.72Z"/>
  <rect class="cls-2" x="39.4" y="6.05" width="17.88" height=".89"/>
  <text class="cls-6" transform="translate(41.57 2.08)"><tspan x="0" y="0">AUD5I026: Prototipado y</tspan><tspan x="-1.63" y="1.47">Comunicación de Experiencias</tspan><tspan x="3.81" y="2.94">y Servicios</tspan></text>
  <polyline class="cls-1" points="0 14.85 50 14.85 100 14.85"/>
</svg>