<?xml version="1.0" encoding="UTF-8"?>
<svg xmlns="http://www.w3.org/2000/svg" viewBox="0 0 100 31">
  <defs>
    <style>
      .cls-1, .cls-2, .cls-3, .cls-4 {
        font-family: ArialMT, Arial;
      }

      .cls-1, .cls-2, .cls-4 {
        font-size: 1px;
      }

      .cls-5 {
        fill: #ff5432;
      }

      .cls-5, .cls-6 {
        stroke: #1d1d1b;
        stroke-miterlimit: 10;
        stroke-width: .5px;
      }

      .cls-2 {
        fill: #444;
      }

      .cls-7 {
        opacity: .5;
      }

      .cls-7, .cls-8 {
        fill: #1f5592;
      }

      .cls-9 {
        font-family: Arial-BoldMT, Arial;
        font-size: 1.5px;
        font-weight: 700;
      }

      .cls-10 {
        font-family: Arial-ItalicMT, Arial;
        font-style: italic;
      }

      .cls-6 {
        fill: none;
      }

      .cls-11 {
        font-size: 2px;
      }

      .cls-4 {
        fill: #1d1d1b;
      }
    </style>
  </defs>
  <g id="Simbología">
    <g>
      <g>
        <rect class="cls-7" x="8.68" y="29" width="2" height="1.92"/>
        <rect class="cls-8" x="8.68" y="30.71" width="2" height=".29"/>
      </g>
      <text class="cls-1" transform="translate(11.4 30.37) scale(1.1 1)"><tspan x="0" y="0">Mención visualidad y medios</tspan></text>
    </g>
    <g>
      <text class="cls-1" transform="translate(2.24 30.37) scale(1.1 1)"><tspan x="0" y="0">Electivo</tspan></text>
      <text class="cls-9" transform="translate(-.11 30.56)"><tspan x="0" y="0">E.</tspan></text>
    </g>
  </g>
  <g id="Cuadros">
    <g>
      <rect class="cls-7" x="69.84" y="10.54" width="30.15" height="8.25"/>
      <rect class="cls-8" x="69.84" y="17.99" width="30.15" height="1.49"/>
    </g>
    <g>
      <rect class="cls-7" x="34.93" y="10.54" width="30.15" height="8.24"/>
      <rect class="cls-8" x="34.93" y="17.99" width="30.15" height="1.49"/>
    </g>
    <g>
      <rect class="cls-7" x="34.92" y=".76" width="30.15" height="8.2"/>
      <rect class="cls-8" x="34.92" y="8.2" width="30.15" height="1.5"/>
    </g>
    <text transform="translate(44.54 4.26)"><tspan class="cls-9"><tspan x="0" y="0">E. Oficio digital</tspan></tspan><tspan class="cls-2"><tspan x=".18" y="1.5">(Primer semestre-2025)</tspan></tspan></text>
    <text transform="translate(39 14.04)"><tspan class="cls-9"><tspan x="0" y="0">Seminario de Licenciatura I y II</tspan></tspan><tspan class="cls-2"><tspan x="-.28" y="1.5">(Primer semestre-2025 y Segundo semestre-2024)</tspan></tspan></text>
    <text transform="translate(76.72 14.06)"><tspan class="cls-9"><tspan x="0" y="0">Proyecto de Título I y II</tspan></tspan><tspan class="cls-2"><tspan x="-3.05" y="1.5">(Primer semestre-2025 y Segundo semestre 2024) </tspan></tspan></text>
    <text class="cls-4" transform="translate(47.17 9.26)"><tspan x="0" y="0">(AUD7V019)</tspan></text>
    <text class="cls-4" transform="translate(78.85 19.09)"><tspan x="0" y="0">(AUD9V001) | (AUD10V01)</tspan></text>
    <text class="cls-4" transform="translate(43.93 19.02)"><tspan x="0" y="0">(AUD7V002) | (AUD8V001)</tspan></text>
  </g>
  <g id="Línea">
    <g>
      <line class="cls-6" x1="15.07" y1="22.38" x2="15.07" y2="19.59"/>
      <line class="cls-5" y1="19.71" x2="100" y2="19.71"/>
      <line class="cls-6" x1="50" y1="22.51" x2="50" y2="19.71"/>
      <line class="cls-6" x1="84.93" y1="22.51" x2="84.93" y2="19.71"/>
    </g>
    <text class="cls-11" transform="translate(10.28 24.58)"><tspan class="cls-3"><tspan x="0" y="0">Ciclo básico</tspan></tspan><tspan class="cls-10"><tspan x="-1.5" y="2">Semestre I a IV</tspan></tspan></text>
    <text class="cls-11" transform="translate(41.33 24.61)"><tspan class="cls-3"><tspan x="0" y="0">Ciclo Especializado</tspan></tspan><tspan class="cls-10"><tspan x=".83" y="2">Semestre V a VIII</tspan></tspan></text>
    <text class="cls-11" transform="translate(77.42 24.6)"><tspan class="cls-3"><tspan x="0" y="0">Ciclo Profesional</tspan></tspan><tspan class="cls-10"><tspan x=".22" y="2">Semestre IX a X</tspan></tspan></text>
  </g>
</svg>