<?xml version="1.0" encoding="UTF-8"?>
<svg xmlns="http://www.w3.org/2000/svg" viewBox="0 0 92.18 18.42">
  <defs>
    <style>
      .cls-1 {
        letter-spacing: 0em;
      }

      .cls-2 {
        fill: #ffccbc;
      }

      .cls-3 {
        letter-spacing: -.02em;
      }

      .cls-4 {
        letter-spacing: -.02em;
      }

      .cls-5 {
        letter-spacing: -.02em;
      }

      .cls-6 {
        fill: #ff5722;
      }

      .cls-7 {
        letter-spacing: -.01em;
      }

      .cls-8 {
        letter-spacing: 0em;
      }

      .cls-9 {
        letter-spacing: -.01em;
      }

      .cls-10 {
        letter-spacing: -.02em;
      }

      .cls-11 {
        fill: #1d1d1b;
        font-family: Montserrat-Medium, Montserrat;
        font-size: 1.06px;
        font-variation-settings: 'wght' 500;
        font-weight: 500;
      }

      .cls-12 {
        letter-spacing: 0em;
      }

      .cls-13 {
        fill: none;
        stroke: #ffccbc;
        stroke-miterlimit: 10;
        stroke-width: .25px;
      }

      .cls-14 {
        letter-spacing: 0em;
      }
    </style>
  </defs>
  <g id="Capa_1" data-name="Capa 1">
    <line class="cls-13" y1="14.23" x2="92.18" y2="14.23"/>
    <g>
      <rect class="cls-2" x="36.58" y="7.27" width="19.02" height="5.36" rx=".78" ry=".78"/>
      <rect class="cls-6" x="36.58" y="11.31" width="19.02" height="1.41" rx=".71" ry=".71"/>
    </g>
    <g>
      <rect class="cls-2" x="62.03" y="7.22" width="19.02" height="5.36" rx=".78" ry=".78"/>
      <rect class="cls-6" x="62.03" y="11.26" width="19.02" height="1.41" rx=".71" ry=".71"/>
    </g>
    <g>
      <rect class="cls-2" x="62.03" y="0" width="19.02" height="5.36" rx=".78" ry=".78"/>
      <rect class="cls-6" x="62.03" y="4.04" width="19.02" height="1.41" rx=".71" ry=".71"/>
    </g>
    <g>
      <rect class="cls-2" x="8.64" y="7.17" width="19.02" height="5.36" rx=".78" ry=".78"/>
      <rect class="cls-6" x="8.64" y="11.22" width="19.02" height="1.41" rx=".71" ry=".71"/>
    </g>
    <line class="cls-13" x1="17.73" y1="13.34" x2="17.73" y2="15.1"/>
    <line class="cls-13" x1="46.09" y1="13.35" x2="46.09" y2="15.1"/>
    <line class="cls-13" x1="71.54" y1="13.29" x2="71.54" y2="15.05"/>
  </g>
  <g id="Capa_2" data-name="Capa 2">
    <text class="cls-11" transform="translate(66.24 2.52)"><tspan x="0" y="0">Proyecto de Título II</tspan></text>
    <text class="cls-11" transform="translate(38.8 9.9)"><tspan x="0" y="0">Seminario de Licenciatu</tspan><tspan class="cls-3" x="13.01" y="0">r</tspan><tspan x="13.42" y="0">a I</tspan></text>
    <text class="cls-11" transform="translate(11.93 9.9)"><tspan class="cls-4" x="0" y="0">Configuración Visual </tspan><tspan class="cls-14" x="11.04" y="0" xml:space="preserve"> II</tspan></text>
    <text class="cls-11" transform="translate(14.59 16.56)"><tspan x="0" y="0">Ciclo Bási</tspan><tspan class="cls-8" x="5.17" y="0">c</tspan><tspan class="cls-14" x="5.77" y="0">o</tspan></text>
    <text class="cls-11" transform="translate(16.53 17.83)"><tspan x="0" y="0">I a </tspan><tspan class="cls-9" x="1.53" y="0">I</tspan><tspan class="cls-14" x="1.84" y="0">V</tspan></text>
    <g>
      <text class="cls-11" transform="translate(40.98 16.67)"><tspan x="0" y="0">Ciclo </tspan><tspan class="cls-12" x="2.91" y="0">E</tspan><tspan x="3.61" y="0">specializado</tspan></text>
      <text class="cls-11" transform="translate(44.25 17.94)"><tspan x="0" y="0">V a </tspan><tspan class="cls-5" x="1.96" y="0">V</tspan><tspan x="2.7" y="0">III</tspan></text>
    </g>
    <g>
      <text class="cls-11" transform="translate(67.05 16.56)"><tspan x="0" y="0">Ci</tspan><tspan class="cls-12" x="1.05" y="0">c</tspan><tspan x="1.65" y="0">lo </tspan><tspan class="cls-7" x="2.9" y="0">P</tspan><tspan class="cls-1" x="3.65" y="0">r</tspan><tspan x="4.08" y="0">o</tspan><tspan class="cls-8" x="4.75" y="0">f</tspan><tspan class="cls-14" x="5.12" y="0">esional</tspan></text>
      <text class="cls-11" transform="translate(70.08 17.83)"><tspan class="cls-10" x="0" y="0">I</tspan><tspan x=".31" y="0">X a X</tspan></text>
    </g>
    <text class="cls-11" transform="translate(66.35 9.91)"><tspan x="0" y="0">Proyecto de Título I</tspan></text>
  </g>
</svg>