<?xml version="1.0" encoding="UTF-8"?>
<svg xmlns="http://www.w3.org/2000/svg" viewBox="0 0 92.18 18.28">
  <defs>
    <style>
      .cls-1 {
        letter-spacing: 0em;
      }

      .cls-2 {
        letter-spacing: -.02em;
      }

      .cls-3 {
        fill: #ffccbc;
      }

      .cls-4 {
        letter-spacing: -.02em;
      }

      .cls-5 {
        letter-spacing: 0em;
      }

      .cls-6 {
        letter-spacing: -.02em;
      }

      .cls-7 {
        letter-spacing: -.02em;
      }

      .cls-8 {
        fill: #ff5722;
      }

      .cls-9 {
        letter-spacing: -.01em;
      }

      .cls-10 {
        fill: #1d1d1b;
        font-family: ArialMT, Arial;
        font-size: 1.06px;
      }

      .cls-11 {
        letter-spacing: 0em;
      }

      .cls-12 {
        letter-spacing: -.01em;
      }

      .cls-13 {
        letter-spacing: 0em;
      }

      .cls-14 {
        fill: none;
        stroke: #ffccbc;
        stroke-miterlimit: 10;
        stroke-width: .25px;
      }
    </style>
  </defs>
  <g id="Capa_1" data-name="Capa 1">
    <line class="cls-14" y1="14.23" x2="92.18" y2="14.23"/>
    <g>
      <rect class="cls-3" x="36.58" y="7.27" width="19.02" height="5.36" rx=".78" ry=".78"/>
      <rect class="cls-8" x="36.58" y="11.31" width="19.02" height="1.41" rx=".71" ry=".71"/>
    </g>
    <g>
      <rect class="cls-3" x="62.03" y="7.22" width="19.02" height="5.36" rx=".78" ry=".78"/>
      <rect class="cls-8" x="62.03" y="11.26" width="19.02" height="1.41" rx=".71" ry=".71"/>
    </g>
    <g>
      <rect class="cls-3" x="62.03" y="0" width="19.02" height="5.36" rx=".78" ry=".78"/>
      <rect class="cls-8" x="62.03" y="4.04" width="19.02" height="1.41" rx=".71" ry=".71"/>
    </g>
    <g>
      <rect class="cls-3" x="8.64" y="7.17" width="19.02" height="5.36" rx=".78" ry=".78"/>
      <rect class="cls-8" x="8.64" y="11.22" width="19.02" height="1.41" rx=".71" ry=".71"/>
    </g>
    <line class="cls-14" x1="17.73" y1="13.34" x2="17.73" y2="15.1"/>
    <line class="cls-14" x1="46.09" y1="13.35" x2="46.09" y2="15.1"/>
    <line class="cls-14" x1="71.54" y1="13.29" x2="71.54" y2="15.05"/>
  </g>
  <g id="Capa_2" data-name="Capa 2">
    <text class="cls-10" transform="translate(67.1 2.68)"><tspan x="0" y="0">Proyecto de Título II</tspan></text>
    <text class="cls-10" transform="translate(39.68 9.95)"><tspan x="0" y="0">Seminario de Licenciatu</tspan><tspan class="cls-4" x="11.3" y="0">r</tspan><tspan x="11.64" y="0">a I</tspan></text>
    <text class="cls-10" transform="translate(12.57 9.85)"><tspan class="cls-6" x="0" y="0">Configuración Visual </tspan><tspan x="9.61" y="0" xml:space="preserve"> II</tspan></text>
    <text class="cls-10" transform="translate(14.59 16.56)"><tspan x="0" y="0">Ciclo Bási</tspan><tspan class="cls-11" x="4.71" y="0">c</tspan><tspan x="5.23" y="0">o</tspan></text>
    <text class="cls-10" transform="translate(16.53 17.83)"><tspan x="0" y="0">I a </tspan><tspan class="cls-12" x="1.47" y="0">I</tspan><tspan x="1.75" y="0">V</tspan></text>
    <g>
      <text class="cls-10" transform="translate(40.98 16.67)"><tspan x="0" y="0">Ciclo </tspan><tspan class="cls-13" x="2.65" y="0">E</tspan><tspan x="3.35" y="0">specializado</tspan></text>
      <text class="cls-10" transform="translate(44.25 17.94)"><tspan x="0" y="0">V a </tspan><tspan class="cls-7" x="1.88" y="0">V</tspan><tspan x="2.57" y="0">III</tspan></text>
    </g>
    <g>
      <text class="cls-10" transform="translate(67.05 16.56)"><tspan x="0" y="0">Ci</tspan><tspan class="cls-5" x="1" y="0">c</tspan><tspan x="1.52" y="0">lo </tspan><tspan class="cls-9" x="2.64" y="0">P</tspan><tspan class="cls-1" x="3.33" y="0">r</tspan><tspan x="3.68" y="0">o</tspan><tspan class="cls-11" x="4.27" y="0">f</tspan><tspan x="4.55" y="0">esional</tspan></text>
      <text class="cls-10" transform="translate(70.08 17.83)"><tspan class="cls-2" x="0" y="0">I</tspan><tspan x=".27" y="0">X a X</tspan></text>
    </g>
    <text class="cls-10" transform="translate(67.1 9.9)"><tspan x="0" y="0">Proyecto de Título I</tspan></text>
  </g>
</svg>