<?xml version="1.0" encoding="UTF-8"?>
<svg xmlns="http://www.w3.org/2000/svg" version="1.1" viewBox="0 0 100 20">
  <!-- Generator: Adobe Illustrator 29.4.0, SVG Export Plug-In . SVG Version: 2.1.0 Build 152)  -->
  <defs>
    <style>
      .st0 {
        fill: #ffb199;
      }

      .st1 {
        fill: #dfdfdf;
      }

      .st2 {
        fill: #f2d5d3;
      }

      .st3 {
        fill: #383c95;
      }

      .st4 {
        fill: #fafafa;
      }

      .st5 {
        fill: #d0cdea;
      }
    </style>
  </defs>
  <g id="fondo">
    <rect class="st4" width="100" height="20"/>
  </g>
  <g id="Capa_1">
    <rect class="st1" x="7.3" y="11.2" width="88.1" height="1.3" rx=".5" ry=".5"/>
    <rect class="st2" x="37.5" y="2.4" width="28.1" height="5.2" rx=".7" ry=".7"/>
    <rect class="st5" x="7.8" y="2.3" width="28.1" height="5.2" rx=".5" ry=".5"/>
    <rect class="st2" x="67.5" y="2.3" width="28.1" height="5" rx=".4" ry=".4"/>
    <rect class="st0" x="67.5" y="6.5" width="28.1" height="1.4" rx=".5" ry=".5"/>
    <path class="st1" d="M20.9,12.5h1.1v.7c0,.2-.2.4-.4.4h-.2c-.2,0-.4-.2-.4-.4v-.7h0Z"/>
    <path class="st1" d="M51.9,12.5v.6c0,.3-.2.6-.6.6h0c-.3,0-.6-.2-.6-.6v-.6"/>
    <path class="st1" d="M84.4,12.5v.6c0,.3-.2.6-.6.6h0c-.3,0-.6-.2-.6-.6v-.6"/>
    <g>
      <path d="M17,16.1c-.1,0-.2,0-.3,0,0,0-.2,0-.2-.1,0,0-.1-.1-.2-.2s0-.2,0-.3,0-.2,0-.3,0-.2.2-.2.1-.1.2-.1c0,0,.2,0,.3,0s.2,0,.3,0,.2,0,.2.2h-.1c0,0-.1,0-.2,0,0,0-.1,0-.2,0s-.1,0-.2,0c0,0-.1,0-.2.1s0,.1-.1.2c0,0,0,.1,0,.2s0,.1,0,.2c0,0,0,.1.1.2s.1,0,.2.1c0,0,.1,0,.2,0s.1,0,.2,0c0,0,.1,0,.2-.1h.1c0,.2-.1.2-.2.3,0,0-.2,0-.3,0Z"/>
      <path d="M17.8,14.9s0,0,0,0c0,0,0,0,0,0s0,0,0,0c0,0,0,0,0,0s0,0,0,0c0,0,0,0,0,0s0,0,0,0c0,0,0,0,0,0ZM17.7,16.1v-1h.2v1h-.2Z"/>
      <path d="M18.7,16.1c-.1,0-.2,0-.3,0,0,0-.1-.1-.2-.2s0-.2,0-.3,0-.2,0-.3.1-.1.2-.2c0,0,.2,0,.3,0s.2,0,.3,0c0,0,.1,0,.2.2h-.1s0,0-.1,0c0,0-.1,0-.2,0s-.1,0-.2,0c0,0,0,0-.1.1,0,0,0,.1,0,.2s0,.1,0,.2c0,0,0,0,.1.1,0,0,.1,0,.2,0s.1,0,.2,0c0,0,0,0,.1-.1h.1c0,.2,0,.2-.2.3,0,0-.2,0-.3,0Z"/>
      <path d="M19.4,16.1v-1.5h.2v1.5h-.2Z"/>
      <path d="M20.4,16.1c-.1,0-.2,0-.3,0,0,0-.1-.1-.2-.2s0-.2,0-.3,0-.2,0-.3.1-.1.2-.2c0,0,.2,0,.3,0s.2,0,.3,0c0,0,.1.1.2.2s0,.2,0,.3,0,.2,0,.3-.1.1-.2.2c0,0-.2,0-.3,0ZM20.4,15.9c0,0,.1,0,.2,0,0,0,0,0,.1-.1,0,0,0-.1,0-.2s0-.1,0-.2c0,0,0,0-.1-.1s-.1,0-.2,0-.1,0-.2,0,0,0-.1.1c0,0,0,.1,0,.2s0,.1,0,.2c0,0,0,0,.1.1,0,0,.1,0,.2,0Z"/>
      <path d="M21.7,16.1v-1.5h.2v.9s0,.2,0,.2v.3h-.2ZM22.3,16.1c0,0-.2,0-.2,0,0,0-.1,0-.2-.2,0,0,0-.2,0-.3s0-.2,0-.3,0-.1.2-.2c0,0,.1,0,.2,0s.2,0,.3,0c0,0,.1.1.2.2,0,0,0,.2,0,.3s0,.2,0,.3c0,0-.1.1-.2.2,0,0-.2,0-.3,0ZM22.3,15.9c0,0,.1,0,.2,0,0,0,0,0,.1-.1,0,0,0-.1,0-.2s0-.1,0-.2c0,0,0,0-.1-.1,0,0-.1,0-.2,0s-.1,0-.2,0,0,0-.1.1c0,0,0,.1,0,.2s0,.1,0,.2,0,0,.1.1c0,0,.1,0,.2,0Z"/>
      <path d="M23.4,16.1c0,0-.1,0-.2,0s-.1,0-.1-.1c0,0,0,0,0-.2s0-.1,0-.2c0,0,0,0,.1-.1s.1,0,.2,0h.3c0,.1-.3.1-.3.1,0,0-.2,0-.2,0,0,0,0,0,0,.1s0,0,0,.1c0,0,0,0,.2,0s.1,0,.2,0c0,0,0,0,.1-.1h0c0,.2,0,.2-.1.3,0,0-.1,0-.2,0ZM23.7,16.1v-.2h0v-.4c0,0,0-.1,0-.2s-.1,0-.2,0-.1,0-.2,0c0,0-.1,0-.1,0h0c0-.2.1-.2.2-.2,0,0,.2,0,.2,0,.1,0,.3,0,.3.1,0,0,.1.2.1.3v.6h-.2ZM23.3,14.9l.3-.3h.2l-.3.3h-.2Z"/>
      <path d="M24.5,16.1c0,0-.2,0-.2,0,0,0-.1,0-.2,0h0c0-.1,0,0,.2,0,0,0,.1,0,.2,0s.2,0,.2,0c0,0,0,0,0-.1s0,0,0,0c0,0,0,0,0,0,0,0,0,0-.1,0,0,0,0,0-.1,0,0,0,0,0-.1,0,0,0,0,0,0,0s0,0,0-.1,0-.1,0-.2,0,0,.1-.1c0,0,.1,0,.2,0s.1,0,.2,0c0,0,.1,0,.2,0h0c0,.1,0,0-.1,0s-.1,0-.2,0c0,0-.1,0-.2,0,0,0,0,0,0,.1s0,0,0,0c0,0,0,0,0,0,0,0,0,0,.1,0,0,0,0,0,.1,0s0,0,.1,0,0,0,0,0c0,0,0,0,0,.1s0,.1,0,.2c0,0,0,0-.2.1,0,0-.1,0-.2,0Z"/>
      <path d="M25.3,14.9s0,0,0,0c0,0,0,0,0,0s0,0,0,0c0,0,0,0,0,0s0,0,0,0c0,0,0,0,0,0s0,0,0,0c0,0,0,0,0,0ZM25.2,16.1v-1h.2v1h-.2Z"/>
      <path d="M26.2,16.1c-.1,0-.2,0-.3,0,0,0-.1-.1-.2-.2s0-.2,0-.3,0-.2,0-.3.1-.1.2-.2c0,0,.2,0,.3,0s.2,0,.3,0c0,0,.1,0,.2.2h-.1s0,0-.1,0c0,0-.1,0-.2,0s-.1,0-.2,0c0,0,0,0-.1.1,0,0,0,.1,0,.2s0,.1,0,.2c0,0,0,0,.1.1,0,0,.1,0,.2,0s.1,0,.2,0c0,0,0,0,.1-.1h.1c0,.2,0,.2-.2.3,0,0-.2,0-.3,0Z"/>
      <path d="M27.3,16.1c-.1,0-.2,0-.3,0,0,0-.1-.1-.2-.2s0-.2,0-.3,0-.2,0-.3.1-.1.2-.2c0,0,.2,0,.3,0s.2,0,.3,0c0,0,.1.1.2.2s0,.2,0,.3,0,.2,0,.3-.1.1-.2.2c0,0-.2,0-.3,0ZM27.3,15.9c0,0,.1,0,.2,0,0,0,0,0,.1-.1,0,0,0-.1,0-.2s0-.1,0-.2c0,0,0,0-.1-.1s-.1,0-.2,0-.1,0-.2,0,0,0-.1.1c0,0,0,.1,0,.2s0,.1,0,.2c0,0,0,0,.1.1,0,0,.1,0,.2,0Z"/>
      <path d="M19.8,18.4v-1.4h.2v1.4h-.2Z"/>
      <path d="M21.2,18.4c0,0-.1,0-.2,0s-.1,0-.1-.1c0,0,0,0,0-.2s0-.1,0-.2c0,0,0,0,.1-.1s.1,0,.2,0h.3c0,.1-.3.1-.3.1,0,0-.2,0-.2,0,0,0,0,0,0,.1s0,0,0,.1c0,0,0,0,.2,0s.1,0,.2,0c0,0,0,0,.1-.1h0c0,.2,0,.2-.1.3,0,0-.1,0-.2,0ZM21.6,18.4v-.2h0v-.4c0,0,0-.1,0-.2s-.1,0-.2,0-.1,0-.2,0c0,0-.1,0-.1,0h0c0-.2.1-.2.2-.2,0,0,.2,0,.2,0,.1,0,.3,0,.3.1,0,0,.1.2.1.3v.6h-.2Z"/>
      <path d="M22.7,18.4v-1.4h.2v1.4h-.2Z"/>
      <path d="M23.7,18.4l-.6-1.4h.2l.6,1.3h-.1l.6-1.3h.2l-.6,1.4h-.2Z"/>
    </g>
    <g>
      <path d="M43,16.1c-.1,0-.2,0-.3,0,0,0-.2,0-.2-.1,0,0-.1-.1-.2-.2s0-.2,0-.3,0-.2,0-.3,0-.2.2-.2.1-.1.2-.1c0,0,.2,0,.3,0s.2,0,.3,0,.2,0,.2.2h-.1c0,0-.1,0-.2,0,0,0-.1,0-.2,0s-.1,0-.2,0c0,0-.1,0-.2.1s0,.1-.1.2c0,0,0,.1,0,.2s0,.1,0,.2c0,0,0,.1.1.2s.1,0,.2.1c0,0,.1,0,.2,0s.1,0,.2,0c0,0,.1,0,.2-.1h.1c0,.2-.1.2-.2.3,0,0-.2,0-.3,0Z"/>
      <path d="M43.8,14.9s0,0,0,0c0,0,0,0,0,0s0,0,0,0c0,0,0,0,0,0s0,0,0,0c0,0,0,0,0,0s0,0,0,0c0,0,0,0,0,0ZM43.7,16.1v-1h.2v1h-.2Z"/>
      <path d="M44.7,16.1c-.1,0-.2,0-.3,0,0,0-.1-.1-.2-.2s0-.2,0-.3,0-.2,0-.3.1-.1.2-.2c0,0,.2,0,.3,0s.2,0,.3,0c0,0,.1,0,.2.2h-.1s0,0-.1,0c0,0-.1,0-.2,0s-.1,0-.2,0c0,0,0,0-.1.1,0,0,0,.1,0,.2s0,.1,0,.2c0,0,0,0,.1.1,0,0,.1,0,.2,0s.1,0,.2,0c0,0,0,0,.1-.1h.1c0,.2,0,.2-.2.3,0,0-.2,0-.3,0Z"/>
      <path d="M45.4,16.1v-1.5h.2v1.5h-.2Z"/>
      <path d="M46.4,16.1c-.1,0-.2,0-.3,0,0,0-.1-.1-.2-.2s0-.2,0-.3,0-.2,0-.3.1-.1.2-.2c0,0,.2,0,.3,0s.2,0,.3,0c0,0,.1.1.2.2s0,.2,0,.3,0,.2,0,.3-.1.1-.2.2c0,0-.2,0-.3,0ZM46.4,15.9c0,0,.1,0,.2,0,0,0,0,0,.1-.1,0,0,0-.1,0-.2s0-.1,0-.2c0,0,0,0-.1-.1s-.1,0-.2,0-.1,0-.2,0,0,0-.1.1c0,0,0,.1,0,.2s0,.1,0,.2c0,0,0,0,.1.1,0,0,.1,0,.2,0Z"/>
      <path d="M48.2,16.1c-.1,0-.2,0-.3,0s-.2-.1-.2-.2c0,0,0-.2,0-.3s0-.2,0-.3.1-.1.2-.2c0,0,.2,0,.3,0s.2,0,.3,0c0,0,.1.1.2.2,0,0,0,.2,0,.3s0,0,0,0c0,0,0,0,0,0h-.9c0-.1.8-.1.8-.1h0s0,0,0-.1c0,0,0,0-.1-.1,0,0-.1,0-.2,0s-.1,0-.2,0c0,0,0,0-.1.1,0,0,0,.1,0,.2h0c0,.1,0,.2,0,.2,0,0,0,0,.1.1,0,0,.1,0,.2,0s.1,0,.2,0c0,0,0,0,.1,0h.1c0,.2-.1.2-.2.2,0,0-.1,0-.2,0Z"/>
      <path d="M49.2,16.1c0,0-.2,0-.2,0,0,0-.1,0-.2,0h0c0-.1,0,0,.2,0,0,0,.1,0,.2,0s.2,0,.2,0c0,0,0,0,0-.1s0,0,0,0c0,0,0,0,0,0,0,0,0,0-.1,0,0,0,0,0-.1,0,0,0,0,0-.1,0s0,0,0,0c0,0,0,0,0-.1s0-.1,0-.2c0,0,0,0,.2-.1s.1,0,.2,0,.1,0,.2,0c0,0,.1,0,.2,0h0c0,.1,0,0-.1,0,0,0-.1,0-.2,0,0,0-.1,0-.2,0,0,0,0,0,0,.1s0,0,0,0c0,0,0,0,0,0,0,0,0,0,.1,0,0,0,0,0,.1,0,0,0,0,0,.1,0,0,0,0,0,0,0,0,0,0,0,0,.1s0,.1,0,.2c0,0,0,0-.2.1,0,0-.1,0-.2,0Z"/>
      <path d="M49.9,16.5v-1.4h.2v.5s0,.2,0,.2v.7h-.2ZM50.5,16.1c0,0-.2,0-.2,0s-.1,0-.2-.2c0,0,0-.2,0-.3s0-.2,0-.3,0-.1.2-.2c0,0,.2,0,.2,0s.2,0,.3,0c0,0,.1.1.2.2,0,0,0,.2,0,.3s0,.2,0,.3c0,0-.1.1-.2.2,0,0-.2,0-.3,0ZM50.5,15.9c0,0,.1,0,.2,0,0,0,0,0,.1-.1,0,0,0-.1,0-.2s0-.1,0-.2c0,0,0,0-.1-.1s-.1,0-.2,0-.1,0-.2,0,0,0-.1.1c0,0,0,.1,0,.2s0,.1,0,.2c0,0,0,0,.1.1,0,0,.1,0,.2,0Z"/>
      <path d="M51.7,16.1c-.1,0-.2,0-.3,0,0,0-.1-.1-.2-.2,0,0,0-.2,0-.3s0-.2,0-.3c0,0,.1-.1.2-.2,0,0,.2,0,.3,0s.2,0,.3,0c0,0,.1.1.2.2s0,.2,0,.3,0,0,0,0c0,0,0,0,0,0h-.9c0-.1.8-.1.8-.1h0s0,0,0-.1c0,0,0,0-.1-.1,0,0-.1,0-.2,0s-.1,0-.2,0c0,0,0,0-.1.1,0,0,0,.1,0,.2h0c0,.1,0,.2,0,.2,0,0,0,0,.1.1,0,0,.1,0,.2,0s.1,0,.2,0c0,0,0,0,.1,0h.1c0,.2-.1.2-.2.2,0,0-.1,0-.2,0Z"/>
      <path d="M52.9,16.1c-.1,0-.2,0-.3,0s-.1-.1-.2-.2c0,0,0-.2,0-.3s0-.2,0-.3c0,0,.1-.1.2-.2,0,0,.2,0,.3,0s.2,0,.3,0c0,0,.1,0,.2.2h-.1s0,0-.1,0-.1,0-.2,0-.1,0-.2,0c0,0,0,0-.1.1,0,0,0,.1,0,.2s0,.1,0,.2,0,0,.1.1c0,0,.1,0,.2,0s.1,0,.2,0c0,0,0,0,.1-.1h.1c0,.2,0,.2-.2.3,0,0-.2,0-.3,0Z"/>
      <path d="M53.7,14.9s0,0,0,0c0,0,0,0,0,0s0,0,0,0c0,0,0,0,0,0s0,0,0,0c0,0,0,0,0,0s0,0,0,0c0,0,0,0,0,0ZM53.6,16.1v-1h.2v1h-.2Z"/>
      <path d="M54.4,16.1c0,0-.1,0-.2,0s-.1,0-.1-.1c0,0,0,0,0-.2s0-.1,0-.2c0,0,0,0,.1-.1s.1,0,.2,0h.3c0,.1-.3.1-.3.1,0,0-.2,0-.2,0,0,0,0,0,0,.1s0,0,0,.1c0,0,0,0,.2,0s.1,0,.2,0c0,0,0,0,.1-.1h0c0,.2,0,.2-.1.3,0,0-.1,0-.2,0ZM54.8,16.1v-.2h0v-.4c0,0,0-.1,0-.2,0,0-.1,0-.2,0s-.1,0-.2,0c0,0-.1,0-.1,0h0c0-.2.1-.2.2-.2,0,0,.2,0,.2,0,.1,0,.3,0,.3.1,0,0,.1.2.1.3v.6h-.2Z"/>
      <path d="M55.3,16.1v-1.5h.2v1.5h-.2Z"/>
      <path d="M55.9,14.9s0,0,0,0c0,0,0,0,0,0s0,0,0,0c0,0,0,0,0,0s0,0,0,0c0,0,0,0,0,0s0,0,0,0c0,0,0,0,0,0ZM55.8,16.1v-1h.2v1h-.2Z"/>
      <path d="M56.3,16.1h0c0-.1.7-.9.7-.9h0c0,0-.7,0-.7,0v-.2h.8c0,.1-.7.9-.7.9h0c0,0,.7,0,.7,0v.2h-.9Z"/>
      <path d="M57.7,16.1c0,0-.1,0-.2,0s-.1,0-.1-.1c0,0,0,0,0-.2s0-.1,0-.2c0,0,0,0,.1-.1s.1,0,.2,0h.3c0,.1-.3.1-.3.1,0,0-.2,0-.2,0,0,0,0,0,0,.1s0,0,0,.1c0,0,0,0,.2,0s.1,0,.2,0c0,0,0,0,.1-.1h0c0,.2,0,.2-.1.3,0,0-.1,0-.2,0ZM58,16.1v-.2h0v-.4c0,0,0-.1,0-.2,0,0-.1,0-.2,0s-.1,0-.2,0c0,0-.1,0-.1,0h0c0-.2.1-.2.2-.2,0,0,.2,0,.2,0,.1,0,.3,0,.3.1,0,0,.1.2.1.3v.6h-.2Z"/>
      <path d="M59,16.1c-.1,0-.2,0-.3,0,0,0-.1-.1-.2-.2,0,0,0-.2,0-.3s0-.2,0-.3c0,0,.1-.1.2-.2,0,0,.2,0,.3,0s.2,0,.2,0c0,0,.1,0,.2.2,0,0,0,.2,0,.3s0,.2,0,.3,0,.1-.2.2-.2,0-.2,0ZM59,15.9c0,0,.1,0,.2,0,0,0,0,0,.1-.1,0,0,0-.1,0-.2s0-.1,0-.2c0,0,0,0-.1-.1s-.1,0-.2,0-.1,0-.2,0c0,0,0,0-.1.1,0,0,0,.1,0,.2s0,.1,0,.2,0,0,.1.1c0,0,.1,0,.2,0ZM59.4,16.1v-.5s0-.2,0-.2v-.7h.2v1.5h-.2Z"/>
      <path d="M60.4,16.1c-.1,0-.2,0-.3,0,0,0-.1-.1-.2-.2,0,0,0-.2,0-.3s0-.2,0-.3c0,0,.1-.1.2-.2,0,0,.2,0,.3,0s.2,0,.3,0c0,0,.1.1.2.2s0,.2,0,.3,0,.2,0,.3-.1.1-.2.2c0,0-.2,0-.3,0ZM60.4,15.9c0,0,.1,0,.2,0,0,0,0,0,.1-.1,0,0,0-.1,0-.2s0-.1,0-.2c0,0,0,0-.1-.1s-.1,0-.2,0-.1,0-.2,0c0,0,0,0-.1.1,0,0,0,.1,0,.2s0,.1,0,.2,0,0,.1.1c0,0,.1,0,.2,0Z"/>
      <path d="M48.7,18.4l-.6-1.4h.2l.6,1.3h-.1l.6-1.3h.2l-.6,1.4h-.2Z"/>
      <path d="M50.6,18.4c0,0-.1,0-.2,0s-.1,0-.1-.1c0,0,0,0,0-.2s0-.1,0-.2c0,0,0,0,.1-.1s.1,0,.2,0h.3c0,.1-.3.1-.3.1,0,0-.2,0-.2,0,0,0,0,0,0,.1s0,0,0,.1c0,0,0,0,.2,0s.1,0,.2,0c0,0,0,0,.1-.1h0c0,.2,0,.2-.1.3,0,0-.1,0-.2,0ZM50.9,18.4v-.2h0v-.4c0,0,0-.1,0-.2,0,0-.1,0-.2,0s-.1,0-.2,0c0,0-.1,0-.1,0h0c0-.2.1-.2.2-.2,0,0,.2,0,.2,0,.1,0,.3,0,.3.1,0,0,.1.2.1.3v.6h-.2Z"/>
      <path d="M52.4,18.4l-.6-1.4h.2l.6,1.3h-.1l.6-1.3h.2l-.6,1.4h-.2Z"/>
      <path d="M53.4,18.4v-1.4h.2v1.4h-.2Z"/>
      <path d="M54,18.4v-1.4h.2v1.4h-.2Z"/>
      <path d="M54.6,18.4v-1.4h.2v1.4h-.2Z"/>
    </g>
    <g>
      <path d="M76.4,16.1c-.1,0-.2,0-.3,0,0,0-.2,0-.2-.1s-.1-.1-.2-.2c0,0,0-.2,0-.3s0-.2,0-.3c0,0,0-.2.2-.2s.1-.1.2-.1c0,0,.2,0,.3,0s.2,0,.3,0,.2,0,.2.2h-.1c0,0-.1,0-.2,0,0,0-.1,0-.2,0s-.1,0-.2,0c0,0-.1,0-.2.1,0,0,0,.1-.1.2,0,0,0,.1,0,.2s0,.1,0,.2c0,0,0,.1.1.2,0,0,.1,0,.2.1,0,0,.1,0,.2,0s.1,0,.2,0c0,0,.1,0,.2-.1h.1c0,.2-.1.2-.2.3,0,0-.2,0-.3,0Z"/>
      <path d="M77.3,14.9s0,0,0,0c0,0,0,0,0,0s0,0,0,0c0,0,0,0,0,0s0,0,0,0c0,0,0,0,0,0s0,0,0,0c0,0,0,0,0,0ZM77.2,16.1v-1h.2v1h-.2Z"/>
      <path d="M78.2,16.1c-.1,0-.2,0-.3,0s-.1-.1-.2-.2c0,0,0-.2,0-.3s0-.2,0-.3c0,0,.1-.1.2-.2,0,0,.2,0,.3,0s.2,0,.3,0c0,0,.1,0,.2.2h-.1s0,0-.1,0-.1,0-.2,0-.1,0-.2,0c0,0,0,0-.1.1,0,0,0,.1,0,.2s0,.1,0,.2,0,0,.1.1c0,0,.1,0,.2,0s.1,0,.2,0c0,0,0,0,.1-.1h.1c0,.2,0,.2-.2.3,0,0-.2,0-.3,0Z"/>
      <path d="M78.8,16.1v-1.5h.2v1.5h-.2Z"/>
      <path d="M79.8,16.1c-.1,0-.2,0-.3,0,0,0-.1-.1-.2-.2,0,0,0-.2,0-.3s0-.2,0-.3c0,0,.1-.1.2-.2,0,0,.2,0,.3,0s.2,0,.3,0c0,0,.1.1.2.2s0,.2,0,.3,0,.2,0,.3-.1.1-.2.2c0,0-.2,0-.3,0ZM79.8,15.9c0,0,.1,0,.2,0,0,0,0,0,.1-.1,0,0,0-.1,0-.2s0-.1,0-.2c0,0,0,0-.1-.1s-.1,0-.2,0-.1,0-.2,0c0,0,0,0-.1.1,0,0,0,.1,0,.2s0,.1,0,.2,0,0,.1.1c0,0,.1,0,.2,0Z"/>
      <path d="M81.2,16.5v-1.4h.2v.5s0,.2,0,.2v.7h-.2ZM81.7,16.1c0,0-.2,0-.2,0s-.1,0-.2-.2c0,0,0-.2,0-.3s0-.2,0-.3,0-.1.2-.2c0,0,.2,0,.2,0s.2,0,.3,0c0,0,.1.1.2.2,0,0,0,.2,0,.3s0,.2,0,.3c0,0-.1.1-.2.2,0,0-.2,0-.3,0ZM81.7,15.9c0,0,.1,0,.2,0,0,0,0,0,.1-.1,0,0,0-.1,0-.2s0-.1,0-.2c0,0,0,0-.1-.1s-.1,0-.2,0-.1,0-.2,0,0,0-.1.1c0,0,0,.1,0,.2s0,.1,0,.2c0,0,0,0,.1.1,0,0,.1,0,.2,0Z"/>
      <path d="M82.5,16.1v-1h.2v.3h0c0-.1,0-.2.1-.2,0,0,.2,0,.3,0v.2s0,0,0,0h0c-.1,0-.2,0-.2,0,0,0,0,.1,0,.3v.5h-.2Z"/>
      <path d="M83.7,16.1c-.1,0-.2,0-.3,0,0,0-.1-.1-.2-.2,0,0,0-.2,0-.3s0-.2,0-.3c0,0,.1-.1.2-.2,0,0,.2,0,.3,0s.2,0,.3,0c0,0,.1.1.2.2s0,.2,0,.3,0,.2,0,.3-.1.1-.2.2c0,0-.2,0-.3,0ZM83.7,15.9c0,0,.1,0,.2,0,0,0,0,0,.1-.1,0,0,0-.1,0-.2s0-.1,0-.2c0,0,0,0-.1-.1s-.1,0-.2,0-.1,0-.2,0c0,0,0,0-.1.1,0,0,0,.1,0,.2s0,.1,0,.2,0,0,.1.1c0,0,.1,0,.2,0Z"/>
      <path d="M84.4,15.2v-.2h.7v.2h-.7ZM84.6,16.1v-1.1c0-.1,0-.2,0-.2s.1,0,.3,0,0,0,.1,0c0,0,0,0,0,0h0c0,.1,0,.1,0,.1,0,0,0,0,0,0,0,0,0,0-.1,0,0,0,0,0,0,.1h0c0,.1,0,.2,0,.2v.9h-.2Z"/>
      <path d="M85.7,16.1c-.1,0-.2,0-.3,0,0,0-.1-.1-.2-.2,0,0,0-.2,0-.3s0-.2,0-.3c0,0,.1-.1.2-.2,0,0,.2,0,.3,0s.2,0,.3,0c0,0,.1.1.2.2s0,.2,0,.3,0,0,0,0c0,0,0,0,0,0h-.9c0-.1.8-.1.8-.1h0s0,0,0-.1c0,0,0,0-.1-.1,0,0-.1,0-.2,0s-.1,0-.2,0c0,0,0,0-.1.1,0,0,0,.1,0,.2h0c0,.1,0,.2,0,.2,0,0,0,0,.1.1,0,0,.1,0,.2,0s.1,0,.2,0c0,0,0,0,.1,0h.1c0,.2-.1.2-.2.2,0,0-.1,0-.2,0Z"/>
      <path d="M86.7,16.1c0,0-.2,0-.2,0,0,0-.1,0-.2,0h0c0-.1,0,0,.2,0,0,0,.1,0,.2,0s.2,0,.2,0c0,0,0,0,0-.1s0,0,0,0c0,0,0,0,0,0,0,0,0,0-.1,0,0,0,0,0-.1,0,0,0,0,0-.1,0s0,0,0,0c0,0,0,0,0-.1s0-.1,0-.2c0,0,0,0,.2-.1s.1,0,.2,0,.1,0,.2,0c0,0,.1,0,.2,0h0c0,.1,0,0-.1,0,0,0-.1,0-.2,0,0,0-.1,0-.2,0,0,0,0,0,0,.1s0,0,0,0c0,0,0,0,0,0,0,0,0,0,.1,0,0,0,0,0,.1,0,0,0,0,0,.1,0,0,0,0,0,0,0,0,0,0,0,0,.1s0,.1,0,.2c0,0,0,0-.2.1,0,0-.1,0-.2,0Z"/>
      <path d="M87.5,14.9s0,0,0,0c0,0,0,0,0,0s0,0,0,0c0,0,0,0,0,0s0,0,0,0c0,0,0,0,0,0s0,0,0,0c0,0,0,0,0,0ZM87.4,16.1v-1h.2v1h-.2Z"/>
      <path d="M88.4,16.1c-.1,0-.2,0-.3,0,0,0-.1-.1-.2-.2,0,0,0-.2,0-.3s0-.2,0-.3c0,0,.1-.1.2-.2,0,0,.2,0,.3,0s.2,0,.3,0c0,0,.1.1.2.2s0,.2,0,.3,0,.2,0,.3-.1.1-.2.2c0,0-.2,0-.3,0ZM88.4,15.9c0,0,.1,0,.2,0,0,0,0,0,.1-.1,0,0,0-.1,0-.2s0-.1,0-.2c0,0,0,0-.1-.1s-.1,0-.2,0-.1,0-.2,0c0,0,0,0-.1.1,0,0,0,.1,0,.2s0,.1,0,.2,0,0,.1.1c0,0,.1,0,.2,0Z"/>
      <path d="M89.8,15c0,0,.2,0,.2,0,0,0,.1,0,.2.1,0,0,0,.2,0,.3v.6h-.2v-.6c0-.1,0-.2,0-.2s-.1,0-.2,0-.1,0-.2,0,0,0-.1.1c0,0,0,.1,0,.2v.5h-.2v-1h.2v.3h0c0-.1,0-.2.2-.2,0,0,.2,0,.2,0Z"/>
      <path d="M90.9,16.1c0,0-.1,0-.2,0s-.1,0-.1-.1c0,0,0,0,0-.2s0-.1,0-.2c0,0,0,0,.1-.1s.1,0,.2,0h.3c0,.1-.3.1-.3.1,0,0-.2,0-.2,0,0,0,0,0,0,.1s0,0,0,.1c0,0,0,0,.2,0s.1,0,.2,0c0,0,0,0,.1-.1h0c0,.2,0,.2-.1.3,0,0-.1,0-.2,0ZM91.2,16.1v-.2h0v-.4c0,0,0-.1,0-.2,0,0-.1,0-.2,0s-.1,0-.2,0c0,0-.1,0-.1,0h0c0-.2.1-.2.2-.2,0,0,.2,0,.2,0,.1,0,.3,0,.3.1,0,0,.1.2.1.3v.6h-.2Z"/>
      <path d="M91.7,16.1v-1.5h.2v1.5h-.2Z"/>
      <path d="M81.3,18.4v-1.4h.2v1.4h-.2Z"/>
      <path d="M81.7,18.4l.6-.8v.2l-.5-.7h.2l.4.6h0s.4-.6.4-.6h.2l-.5.7h0c0-.1.6.6.6.6h-.2l-.5-.6h0l-.4.6h-.2Z"/>
      <path d="M84,18.4c0,0-.1,0-.2,0s-.1,0-.1-.1c0,0,0,0,0-.2s0-.1,0-.2c0,0,0,0,.1-.1s.1,0,.2,0h.3c0,.1-.3.1-.3.1,0,0-.2,0-.2,0,0,0,0,0,0,.1s0,0,0,.1c0,0,0,0,.2,0s.1,0,.2,0c0,0,0,0,.1-.1h0c0,.2,0,.2-.1.3,0,0-.1,0-.2,0ZM84.4,18.4v-.2h0v-.4c0,0,0-.1,0-.2,0,0-.1,0-.2,0s-.1,0-.2,0c0,0-.1,0-.1,0h0c0-.2.1-.2.2-.2,0,0,.2,0,.2,0,.1,0,.3,0,.3.1,0,0,.1.2.1.3v.6h-.2Z"/>
      <path d="M85.3,18.4l.6-.8v.2l-.5-.7h.2l.4.6h0s.4-.6.4-.6h.2l-.5.7h0c0-.1.6.6.6.6h-.2l-.5-.6h0l-.4.6h-.2Z"/>
    </g>
    <g>
      <path d="M40,5.3c0,0-.2,0-.3,0,0,0-.1,0-.2-.1h0c0,0,0,0,.2,0,0,0,.1,0,.2,0s.1,0,.2,0c0,0,0,0,.1,0,0,0,0,0,0-.1s0,0,0-.1c0,0,0,0-.1,0s0,0-.1,0c0,0-.1,0-.2,0s-.1,0-.1,0c0,0,0,0-.1,0,0,0,0,0,0-.2s0-.1,0-.2c0,0,0,0,.1-.1,0,0,.1,0,.3,0s.1,0,.2,0,.1,0,.2,0h0c0,0-.1,0-.2,0,0,0-.1,0-.2,0s-.1,0-.2,0,0,0-.1,0c0,0,0,0,0,.1s0,0,0,.1c0,0,0,0,.1,0,0,0,0,0,.1,0,0,0,.1,0,.2,0,0,0,.1,0,.1,0s0,0,.1,0c0,0,0,0,0,.2s0,.1,0,.2c0,0,0,0-.1.1,0,0-.1,0-.3,0Z"/>
      <path d="M41.1,5.3c0,0-.2,0-.2,0,0,0-.1,0-.2-.2,0,0,0-.1,0-.2s0-.2,0-.2c0,0,0-.1.2-.2,0,0,.1,0,.2,0s.2,0,.2,0c0,0,.1,0,.2.2,0,0,0,.1,0,.2s0,0,0,0,0,0,0,0h-.8c0,0,.7,0,.7,0h0s0,0,0-.1c0,0,0,0-.1-.1,0,0-.1,0-.2,0s-.1,0-.2,0c0,0,0,0-.1.1,0,0,0,.1,0,.2h0c0,0,0,.1,0,.2,0,0,0,0,.1.1,0,0,.1,0,.2,0s.1,0,.2,0c0,0,0,0,.1,0h0c0,.1,0,.2-.1.2,0,0-.1,0-.2,0Z"/>
      <path d="M42.8,4.4c0,0,.1,0,.2,0,0,0,0,0,.1.1s0,.1,0,.2v.5h-.1v-.5c0,0,0-.2,0-.2,0,0-.1,0-.2,0s-.1,0-.2,0c0,0,0,0-.1.1,0,0,0,.1,0,.2v.5h-.1v-.5c0,0,0-.2,0-.2,0,0-.1,0-.2,0s-.1,0-.2,0c0,0,0,0-.1.1,0,0,0,.1,0,.2v.5h-.1v-.9h.1v.2h0c0-.1,0-.2.1-.2,0,0,.1,0,.2,0s.2,0,.2,0c0,0,.1.1.1.2h0c0,0,0-.2.1-.2,0,0,.1,0,.2,0Z"/>
      <path d="M43.6,4.2s0,0,0,0,0,0,0,0,0,0,0,0,0,0,0,0,0,0,0,0,0,0,0,0,0,0,0,0,0,0,0,0ZM43.5,5.3v-.9h.1v.9h-.1Z"/>
      <path d="M44.5,4.4c0,0,.1,0,.2,0,0,0,0,0,.1.1,0,0,0,.1,0,.2v.5h-.1v-.5c0,0,0-.2,0-.2,0,0-.1,0-.2,0s-.1,0-.2,0,0,0-.1.1c0,0,0,.1,0,.2v.5h-.1v-.9h.1v.2h0c0-.1,0-.2.1-.2,0,0,.1,0,.2,0Z"/>
      <path d="M45.4,5.3c0,0-.1,0-.2,0,0,0,0,0-.1,0,0,0,0,0,0-.1s0,0,0-.1c0,0,0,0,.1,0,0,0,.1,0,.2,0h.3c0,0-.3,0-.3,0,0,0-.1,0-.2,0s0,0,0,.1,0,0,0,.1,0,0,.2,0,.1,0,.2,0c0,0,0,0,.1-.1h0c0,.1,0,.2-.1.2,0,0-.1,0-.2,0ZM45.7,5.3v-.2h0v-.4c0,0,0-.1,0-.2,0,0-.1,0-.2,0s-.1,0-.2,0c0,0,0,0-.1,0h0c0-.1.1-.2.2-.2,0,0,.1,0,.2,0,.1,0,.2,0,.3,0,0,0,0,.1,0,.3v.6h-.1Z"/>
      <path d="M46.2,5.3v-.9h.1v.2h0c0-.1,0-.2.1-.2s.1,0,.2,0h0c0,.1,0,.1,0,.1s0,0,0,0c0,0-.2,0-.2,0,0,0,0,.1,0,.2v.5h-.1Z"/>
      <path d="M46.9,4.2s0,0,0,0,0,0,0,0,0,0,0,0,0,0,0,0,0,0,0,0,0,0,0,0,0,0,0,0,0,0,0,0ZM46.9,5.3v-.9h.1v.9h-.1Z"/>
      <path d="M47.7,5.3c0,0-.2,0-.2,0,0,0-.1,0-.2-.2,0,0,0-.1,0-.2s0-.2,0-.2c0,0,0-.1.2-.2,0,0,.1,0,.2,0s.2,0,.2,0c0,0,.1,0,.2.2,0,0,0,.1,0,.2s0,.2,0,.2c0,0,0,.1-.2.2,0,0-.1,0-.2,0ZM47.7,5.2c0,0,.1,0,.2,0,0,0,0,0,.1-.1,0,0,0-.1,0-.2s0-.1,0-.2c0,0,0,0-.1-.1,0,0-.1,0-.2,0s-.1,0-.2,0c0,0,0,0-.1.1s0,.1,0,.2,0,.1,0,.2,0,0,.1.1c0,0,.1,0,.2,0Z"/>
      <path d="M49.2,5.3c0,0-.2,0-.2,0,0,0-.1,0-.2-.2,0,0,0-.1,0-.2s0-.2,0-.2c0,0,0-.1.2-.2,0,0,.1,0,.2,0s.1,0,.2,0c0,0,.1,0,.1.2s0,.2,0,.2,0,.2,0,.2c0,0,0,.1-.1.2,0,0-.1,0-.2,0ZM49.2,5.2c0,0,.1,0,.2,0,0,0,0,0,.1-.1s0-.1,0-.2,0-.1,0-.2,0,0-.1-.1c0,0-.1,0-.2,0s-.1,0-.2,0c0,0,0,0-.1.1,0,0,0,.1,0,.2s0,.1,0,.2c0,0,0,0,.1.1,0,0,.1,0,.2,0ZM49.5,5.3v-.5s0-.2,0-.2v-.6h.1v1.3h-.1Z"/>
      <path d="M50.4,5.3c0,0-.2,0-.2,0,0,0-.1,0-.2-.2,0,0,0-.1,0-.2s0-.2,0-.2c0,0,0-.1.2-.2,0,0,.1,0,.2,0s.2,0,.2,0,.1,0,.2.2c0,0,0,.1,0,.2s0,0,0,0c0,0,0,0,0,0h-.8c0,0,.7,0,.7,0h0s0,0,0-.1c0,0,0,0-.1-.1,0,0-.1,0-.2,0s-.1,0-.2,0c0,0,0,0-.1.1,0,0,0,.1,0,.2h0c0,0,0,.1,0,.2,0,0,0,0,.1.1,0,0,.1,0,.2,0s.1,0,.2,0c0,0,0,0,.1,0h0c0,.1,0,.2-.2.2,0,0-.1,0-.2,0Z"/>
      <path d="M51.5,5.3v-1.2h.1v1.1h.7c0,.1-.8.1-.8.1Z"/>
      <path d="M52.6,4.2s0,0,0,0c0,0,0,0,0,0s0,0,0,0c0,0,0,0,0,0s0,0,0,0c0,0,0,0,0,0s0,0,0,0,0,0,0,0ZM52.5,5.3v-.9h.1v.9h-.1Z"/>
      <path d="M53.3,5.3c0,0-.2,0-.2,0,0,0-.1,0-.2-.2,0,0,0-.1,0-.2s0-.2,0-.2c0,0,0-.1.2-.2,0,0,.1,0,.2,0s.1,0,.2,0,.1,0,.1.1h0s0,0-.1,0c0,0,0,0-.1,0s-.1,0-.2,0c0,0,0,0-.1.1,0,0,0,.1,0,.2s0,.1,0,.2c0,0,0,0,.1.1,0,0,.1,0,.2,0s.1,0,.1,0c0,0,0,0,.1,0h0c0,.1,0,.2-.1.2,0,0-.1,0-.2,0Z"/>
      <path d="M54.3,5.3c0,0-.2,0-.2,0,0,0-.1,0-.2-.2,0,0,0-.1,0-.2s0-.2,0-.2c0,0,0-.1.2-.2,0,0,.1,0,.2,0s.2,0,.2,0,.1,0,.2.2c0,0,0,.1,0,.2s0,0,0,0c0,0,0,0,0,0h-.8c0,0,.7,0,.7,0h0s0,0,0-.1c0,0,0,0-.1-.1,0,0-.1,0-.2,0s-.1,0-.2,0c0,0,0,0-.1.1,0,0,0,.1,0,.2h0c0,0,0,.1,0,.2,0,0,0,0,.1.1,0,0,.1,0,.2,0s.1,0,.2,0c0,0,0,0,.1,0h0c0,.1,0,.2-.2.2,0,0-.1,0-.2,0Z"/>
      <path d="M55.4,4.4c0,0,.1,0,.2,0,0,0,0,0,.1.1,0,0,0,.1,0,.2v.5h-.1v-.5c0,0,0-.2,0-.2,0,0-.1,0-.2,0s-.1,0-.2,0c0,0,0,0-.1.1,0,0,0,.1,0,.2v.5h-.1v-.9h.1v.2h0c0-.1,0-.2.1-.2,0,0,.1,0,.2,0Z"/>
      <path d="M56.5,5.3c0,0-.2,0-.2,0,0,0-.1,0-.2-.2,0,0,0-.1,0-.2s0-.2,0-.2c0,0,0-.1.2-.2,0,0,.1,0,.2,0s.1,0,.2,0,.1,0,.1.1h0s0,0-.1,0c0,0,0,0-.1,0s-.1,0-.2,0c0,0,0,0-.1.1,0,0,0,.1,0,.2s0,.1,0,.2c0,0,0,0,.1.1,0,0,.1,0,.2,0s.1,0,.1,0c0,0,0,0,.1,0h0c0,.1,0,.2-.1.2,0,0-.1,0-.2,0Z"/>
      <path d="M57.1,4.2s0,0,0,0c0,0,0,0,0,0s0,0,0,0c0,0,0,0,0,0s0,0,0,0c0,0,0,0,0,0s0,0,0,0,0,0,0,0ZM57.1,5.3v-.9h.1v.9h-.1Z"/>
      <path d="M57.8,5.3c0,0-.1,0-.2,0s0,0-.1,0c0,0,0,0,0-.1s0,0,0-.1c0,0,0,0,.1,0s.1,0,.2,0h.3c0,0-.3,0-.3,0,0,0-.1,0-.2,0,0,0,0,0,0,.1s0,0,0,.1,0,0,.2,0,.1,0,.2,0c0,0,0,0,.1-.1h0c0,.1,0,.2-.1.2,0,0-.1,0-.2,0ZM58.1,5.3v-.2h0v-.4c0,0,0-.1,0-.2,0,0-.1,0-.2,0s-.1,0-.2,0c0,0,0,0-.1,0h0c0-.1.1-.2.2-.2,0,0,.1,0,.2,0,.1,0,.2,0,.3,0,0,0,0,.1,0,.3v.6h-.1Z"/>
      <path d="M58.4,4.5h0c0-.1.6-.1.6-.1h0c0,.1-.6.1-.6.1ZM58.8,5.3c0,0-.1,0-.2,0s0-.1,0-.2v-.8h.1v.8c0,0,0,0,0,.1,0,0,0,0,.1,0s0,0,.1,0h0c0,.1,0,.1,0,.1,0,0,0,0-.1,0Z"/>
      <path d="M59.6,5.3c0,0-.1,0-.2,0s-.1,0-.1-.1c0,0,0-.1,0-.2v-.5h.1v.5c0,0,0,.2,0,.2,0,0,.1,0,.2,0s.1,0,.2,0c0,0,0,0,.1-.1,0,0,0-.1,0-.2v-.5h.1v.9h-.1v-.2h0c0,.1,0,.2-.1.2,0,0-.1,0-.2,0Z"/>
      <path d="M60.4,5.3v-.9h.1v.2h0c0-.1,0-.2.1-.2s.1,0,.2,0h0c0,.1,0,.1,0,.1,0,0,0,0,0,0,0,0-.2,0-.2,0,0,0,0,.1,0,.2v.5h-.1Z"/>
      <path d="M61.3,5.3c0,0-.1,0-.2,0s0,0-.1,0c0,0,0,0,0-.1s0,0,0-.1c0,0,0,0,.1,0s.1,0,.2,0h.3c0,0-.3,0-.3,0,0,0-.1,0-.2,0,0,0,0,0,0,.1s0,0,0,.1,0,0,.2,0,.1,0,.2,0c0,0,0,0,.1-.1h0c0,.1,0,.2-.1.2,0,0-.1,0-.2,0ZM61.7,5.3v-.2h0v-.4c0,0,0-.1,0-.2,0,0-.1,0-.2,0s-.1,0-.2,0c0,0,0,0-.1,0h0c0-.1.1-.2.2-.2,0,0,.1,0,.2,0,.1,0,.2,0,.3,0,0,0,0,.1,0,.3v.6h-.1Z"/>
      <path d="M62.6,5.3v-1.2h.1v1.2h-.1Z"/>
      <path d="M63.1,5.3v-1.2h.1v1.2h-.1Z"/>
    </g>
    <g>
      <path d="M73.5,5.1v-1.2h.4c.1,0,.2,0,.3,0,0,0,.1,0,.2.1,0,0,0,.1,0,.2s0,.2,0,.2,0,.1-.2.1-.2,0-.3,0h-.4,0c0,0,0,.4,0,.4h-.1ZM73.6,4.7h0c0,0,.4,0,.4,0,.1,0,.2,0,.3,0,0,0,0-.1,0-.2s0-.2,0-.2c0,0-.2,0-.3,0h-.4,0c0,0,0,.7,0,.7Z"/>
      <path d="M74.7,5.1v-.9h.1v.2h0c0-.1,0-.2.1-.2s.1,0,.2,0h0c0,.1,0,.1,0,.1,0,0,0,0,0,0,0,0-.2,0-.2,0,0,0,0,.1,0,.2v.5h-.1Z"/>
      <path d="M75.7,5.1c0,0-.2,0-.2,0,0,0-.1,0-.2-.2s0-.1,0-.2,0-.2,0-.2c0,0,0-.1.2-.2,0,0,.1,0,.2,0s.2,0,.2,0c0,0,.1,0,.2.2,0,0,0,.1,0,.2s0,.2,0,.2c0,0,0,.1-.2.2,0,0-.1,0-.2,0ZM75.7,5c0,0,.1,0,.2,0,0,0,0,0,.1-.1s0-.1,0-.2,0-.1,0-.2,0,0-.1-.1c0,0-.1,0-.2,0s-.1,0-.2,0c0,0,0,0-.1.1,0,0,0,.1,0,.2s0,.1,0,.2c0,0,0,0,.1.1,0,0,.1,0,.2,0Z"/>
      <path d="M76.4,5.5s0,0-.1,0,0,0,0,0h0c0,0,0,0,0,0,0,0,0,0,0,0s0,0,.1,0c0,0,0,0,0-.1h0c0-.1,0-.2,0-.2l.4-.8h.1l-.5,1c0,0,0,.1,0,.1s0,0,0,0,0,0-.1,0ZM76.7,5.2l-.4-.9h.1l.4.8h0Z"/>
      <path d="M77.8,5.1c0,0-.2,0-.2,0,0,0-.1,0-.2-.2,0,0,0-.1,0-.2s0-.2,0-.2c0,0,0-.1.2-.2,0,0,.1,0,.2,0s.2,0,.2,0,.1,0,.2.2c0,0,0,.1,0,.2s0,0,0,0c0,0,0,0,0,0h-.8c0,0,.7,0,.7,0h0s0,0,0-.1c0,0,0,0-.1-.1,0,0-.1,0-.2,0s-.1,0-.2,0c0,0,0,0-.1.1,0,0,0,.1,0,.2h0c0,0,0,.1,0,.2,0,0,0,0,.1.1,0,0,.1,0,.2,0s.1,0,.2,0c0,0,0,0,.1,0h0c0,.1,0,.2-.2.2,0,0-.1,0-.2,0Z"/>
      <path d="M78.8,5.1c0,0-.2,0-.2,0,0,0-.1,0-.2-.2,0,0,0-.1,0-.2s0-.2,0-.2c0,0,0-.1.2-.2,0,0,.1,0,.2,0s.1,0,.2,0,.1,0,.1.1h0s0,0-.1,0c0,0,0,0-.1,0s-.1,0-.2,0c0,0,0,0-.1.1,0,0,0,.1,0,.2s0,.1,0,.2c0,0,0,0,.1.1,0,0,.1,0,.2,0s.1,0,.1,0c0,0,0,0,.1,0h0c0,.1,0,.2-.1.2,0,0-.1,0-.2,0Z"/>
      <path d="M79.2,4.3h0c0-.1.6-.1.6-.1h0c0,.1-.6.1-.6.1ZM79.7,5.1c0,0-.1,0-.2,0s0-.1,0-.2v-.8h.1v.8c0,0,0,0,0,.1,0,0,0,0,.1,0s0,0,.1,0h0c0,.1,0,.1,0,.1,0,0,0,0-.1,0Z"/>
      <path d="M80.4,5.1c0,0-.2,0-.2,0,0,0-.1,0-.2-.2s0-.1,0-.2,0-.2,0-.2c0,0,0-.1.2-.2,0,0,.1,0,.2,0s.2,0,.2,0c0,0,.1,0,.2.2,0,0,0,.1,0,.2s0,.2,0,.2c0,0,0,.1-.2.2,0,0-.1,0-.2,0ZM80.4,5c0,0,.1,0,.2,0,0,0,0,0,.1-.1s0-.1,0-.2,0-.1,0-.2,0,0-.1-.1c0,0-.1,0-.2,0s-.1,0-.2,0c0,0,0,0-.1.1,0,0,0,.1,0,.2s0,.1,0,.2c0,0,0,0,.1.1,0,0,.1,0,.2,0Z"/>
      <path d="M82,5.1c0,0-.2,0-.2,0,0,0-.1,0-.2-.2,0,0,0-.1,0-.2s0-.2,0-.2c0,0,0-.1.2-.2,0,0,.1,0,.2,0s.1,0,.2,0c0,0,.1,0,.1.2s0,.2,0,.2,0,.2,0,.2c0,0,0,.1-.1.2,0,0-.1,0-.2,0ZM82,5c0,0,.1,0,.2,0,0,0,0,0,.1-.1s0-.1,0-.2,0-.1,0-.2,0,0-.1-.1c0,0-.1,0-.2,0s-.1,0-.2,0c0,0,0,0-.1.1,0,0,0,.1,0,.2s0,.1,0,.2c0,0,0,0,.1.1,0,0,.1,0,.2,0ZM82.3,5.1v-.5s0-.2,0-.2v-.6h.1v1.3h-.1Z"/>
      <path d="M83.1,5.1c0,0-.2,0-.2,0,0,0-.1,0-.2-.2,0,0,0-.1,0-.2s0-.2,0-.2c0,0,0-.1.2-.2,0,0,.1,0,.2,0s.2,0,.2,0,.1,0,.2.2c0,0,0,.1,0,.2s0,0,0,0c0,0,0,0,0,0h-.8c0,0,.7,0,.7,0h0s0,0,0-.1c0,0,0,0-.1-.1,0,0-.1,0-.2,0s-.1,0-.2,0c0,0,0,0-.1.1,0,0,0,.1,0,.2h0c0,0,0,.1,0,.2,0,0,0,0,.1.1,0,0,.1,0,.2,0s.1,0,.2,0c0,0,0,0,.1,0h0c0,.1,0,.2-.2.2,0,0-.1,0-.2,0Z"/>
      <path d="M84.1,4.3h0c0-.1.6-.1.6-.1h0c0,.1-.6.1-.6.1ZM84.5,5.1c0,0-.1,0-.2,0s0-.1,0-.2v-.8h.1v.8c0,0,0,0,0,.1,0,0,0,0,.1,0s0,0,.1,0h0c0,.1,0,.1,0,.1,0,0,0,0-.1,0Z"/>
      <path d="M84.9,4.1l.2-.2h.2l-.3.2h-.1ZM84.9,5.1v-.9h.1v.9h-.1Z"/>
      <path d="M85.3,4.3h0c0-.1.6-.1.6-.1h0c0,.1-.6.1-.6.1ZM85.7,5.1c0,0-.1,0-.2,0s0-.1,0-.2v-.8h.1v.8c0,0,0,0,0,.1,0,0,0,0,.1,0s0,0,.1,0h0c0,.1,0,.1,0,.1,0,0,0,0-.1,0Z"/>
      <path d="M86.5,5.1c0,0-.1,0-.2,0s-.1,0-.1-.1c0,0,0-.1,0-.2v-.5h.1v.5c0,0,0,.2,0,.2,0,0,.1,0,.2,0s.1,0,.2,0c0,0,0,0,.1-.1,0,0,0-.1,0-.2v-.5h.1v.9h-.1v-.2h0c0,.1,0,.2-.1.2,0,0-.1,0-.2,0Z"/>
      <path d="M87.2,5.1v-1.3h.1v1.3h-.1Z"/>
      <path d="M88.1,5.1c0,0-.2,0-.2,0,0,0-.1,0-.2-.2s0-.1,0-.2,0-.2,0-.2c0,0,0-.1.2-.2,0,0,.1,0,.2,0s.2,0,.2,0c0,0,.1,0,.2.2,0,0,0,.1,0,.2s0,.2,0,.2c0,0,0,.1-.2.2,0,0-.1,0-.2,0ZM88.1,5c0,0,.1,0,.2,0,0,0,0,0,.1-.1s0-.1,0-.2,0-.1,0-.2,0,0-.1-.1c0,0-.1,0-.2,0s-.1,0-.2,0c0,0,0,0-.1.1,0,0,0,.1,0,.2s0,.1,0,.2c0,0,0,0,.1.1,0,0,.1,0,.2,0Z"/>
      <path d="M89.3,5.1v-1.2h.1v1.2h-.1Z"/>
    </g>
    <g>
      <path d="M12.7,4h.7c0,.1-.8.1-.8.1v-1.2h.8c0,.1-.7.1-.7.1v1ZM12.7,3.5h.6c0,.1-.6.1-.6.1h0Z"/>
      <path d="M13.7,4.1v-.9h.1v.2h0c0-.1,0-.2.1-.2s.1,0,.2,0h0c0,.1,0,.1,0,.1s0,0,0,0c0,0-.2,0-.2,0,0,0,0,.1,0,.2v.5h-.1Z"/>
      <path d="M14.8,4.1c0,0-.2,0-.2,0,0,0-.1,0-.2-.2s0-.1,0-.2,0-.2,0-.2,0-.1.2-.2c0,0,.1,0,.2,0s.2,0,.2,0c0,0,.1,0,.2.1,0,0,0,.1,0,.2s0,.2,0,.2c0,0,0,.1-.2.1,0,0-.1,0-.2,0ZM14.8,4.5c0,0-.2,0-.2,0,0,0-.1,0-.2-.1h0c0,0,0,0,.2,0,0,0,.1,0,.2,0,.1,0,.2,0,.3,0s0-.1,0-.2v-.4s0-.2,0-.2v-.3h.1v.8c0,.2,0,.3-.1.3s-.2.1-.3.1ZM14.8,4c0,0,.1,0,.2,0,0,0,0,0,.1-.1,0,0,0-.1,0-.2s0-.1,0-.2c0,0,0,0-.1-.1,0,0-.1,0-.2,0s-.1,0-.2,0c0,0,0,0-.1.1,0,0,0,.1,0,.2s0,.1,0,.2c0,0,0,0,.1.1,0,0,.1,0,.2,0Z"/>
      <path d="M15.9,4.1c0,0-.2,0-.2,0,0,0-.1,0-.2-.2,0,0,0-.1,0-.2s0-.2,0-.2c0,0,0-.1.2-.2,0,0,.1,0,.2,0s.2,0,.2,0c0,0,.1,0,.2.2,0,0,0,.1,0,.2s0,.2,0,.2c0,0,0,.1-.2.2,0,0-.1,0-.2,0ZM15.9,4c0,0,.1,0,.2,0,0,0,0,0,.1-.1,0,0,0-.1,0-.2s0-.1,0-.2c0,0,0,0-.1-.1,0,0-.1,0-.2,0s-.1,0-.2,0c0,0,0,0-.1.1s0,.1,0,.2,0,.1,0,.2,0,0,.1.1c0,0,.1,0,.2,0Z"/>
      <path d="M17.1,3.2c0,0,.1,0,.2,0,0,0,0,0,.1.1,0,0,0,.1,0,.2v.5h-.1v-.5c0,0,0-.2,0-.2,0,0-.1,0-.2,0s-.1,0-.2,0,0,0-.1.1c0,0,0,.1,0,.2v.5h-.1v-.9h.1v.2h0c0-.1,0-.2.1-.2,0,0,.1,0,.2,0Z"/>
      <path d="M18.2,4.1c0,0-.2,0-.2,0,0,0-.1,0-.2-.2,0,0,0-.1,0-.2s0-.2,0-.2c0,0,0-.1.2-.2,0,0,.1,0,.2,0s.2,0,.2,0c0,0,.1,0,.2.2,0,0,0,.1,0,.2s0,.2,0,.2c0,0,0,.1-.2.2,0,0-.1,0-.2,0ZM18.2,4c0,0,.1,0,.2,0,0,0,0,0,.1-.1,0,0,0-.1,0-.2s0-.1,0-.2c0,0,0,0-.1-.1,0,0-.1,0-.2,0s-.1,0-.2,0c0,0,0,0-.1.1s0,.1,0,.2,0,.1,0,.2,0,0,.1.1c0,0,.1,0,.2,0Z"/>
      <path d="M20,3.2c0,0,.1,0,.2,0,0,0,0,0,.1.1s0,.1,0,.2v.5h-.1v-.5c0,0,0-.2,0-.2,0,0-.1,0-.2,0s-.1,0-.2,0c0,0,0,0-.1.1,0,0,0,.1,0,.2v.5h-.1v-.5c0,0,0-.2,0-.2,0,0-.1,0-.2,0s-.1,0-.2,0c0,0,0,0-.1.1,0,0,0,.1,0,.2v.5h-.1v-.9h.1v.2h0c0-.1,0-.2.1-.2,0,0,.1,0,.2,0s.2,0,.2,0c0,0,.1.1.1.2h0c0,0,0-.2.1-.2,0,0,.1,0,.2,0Z"/>
      <path d="M20.7,3.1l.2-.2h.2l-.3.2h-.1ZM20.7,4.1v-.9h.1v.9h-.1Z"/>
      <path d="M21.4,4.1c0,0-.1,0-.2,0,0,0,0,0-.1,0,0,0,0,0,0-.1s0,0,0-.1c0,0,0,0,.1,0,0,0,.1,0,.2,0h.3c0,0-.3,0-.3,0,0,0-.1,0-.2,0s0,0,0,.1,0,0,0,.1,0,0,.2,0,.1,0,.2,0c0,0,0,0,.1-.1h0c0,.1,0,.2-.1.2,0,0-.1,0-.2,0ZM21.7,4.1v-.2h0v-.4c0,0,0-.1,0-.2,0,0-.1,0-.2,0s-.1,0-.2,0c0,0,0,0-.1,0h0c0-.1.1-.2.2-.2,0,0,.1,0,.2,0,.1,0,.2,0,.3,0,0,0,0,.1,0,.3v.6h-.1Z"/>
      <path d="M22.6,4.5s0,0-.1,0c0,0,0,0,0,0h0c0,0,0,0,0,0,0,0,0,0,0,0s0,0,.1,0c0,0,0,0,0-.1h0c0-.1,0-.2,0-.2l.4-.8h.1l-.5,1c0,0,0,.1,0,.1s0,0,0,0c0,0,0,0-.1,0ZM22.9,4.2l-.4-.9h.1l.4.8h0Z"/>
      <path d="M24.2,4.1h-.1v-1.2h.8c0,.1-.7.1-.7.1v1.1ZM24.1,3.5h.6c0,.1-.6.1-.6.1h0Z"/>
      <path d="M25.4,4.1c0,0-.1,0-.2,0,0,0,0,0-.1,0,0,0,0,0,0-.1s0,0,0-.1c0,0,0,0,.1,0,0,0,.1,0,.2,0h.3c0,0-.3,0-.3,0,0,0-.1,0-.2,0s0,0,0,.1,0,0,0,.1,0,0,.2,0,.1,0,.2,0c0,0,0,0,.1-.1h0c0,.1,0,.2-.1.2,0,0-.1,0-.2,0ZM25.7,4.1v-.2h0v-.4c0,0,0-.1,0-.2,0,0-.1,0-.2,0s-.1,0-.2,0c0,0,0,0-.1,0h0c0-.1.1-.2.2-.2,0,0,.1,0,.2,0,.1,0,.2,0,.3,0,0,0,0,.1,0,.3v.6h-.1Z"/>
      <path d="M26.5,4.1c0,0-.2,0-.2,0,0,0-.1,0-.2-.2,0,0,0-.1,0-.2s0-.2,0-.2c0,0,0-.1.2-.2,0,0,.2,0,.2,0s.1,0,.2,0c0,0,.1,0,.1.1h0s0,0-.1,0c0,0,0,0-.1,0s-.1,0-.2,0c0,0,0,0-.1.1s0,.1,0,.2,0,.1,0,.2c0,0,0,0,.1.1,0,0,.1,0,.2,0s.1,0,.1,0c0,0,0,0,.1,0h0c0,.1,0,.2-.1.2,0,0-.1,0-.2,0Z"/>
      <path d="M26.9,3.3h0c0-.1.6-.1.6-.1h0c0,.1-.6.1-.6.1ZM27.4,4.1c0,0-.1,0-.2,0,0,0,0-.1,0-.2v-.8h.1v.8c0,0,0,0,0,.1,0,0,0,0,.1,0s0,0,.1,0h0c0,.1,0,.1,0,.1s0,0-.1,0Z"/>
      <path d="M28.1,4.1c0,0-.2,0-.2,0,0,0-.1,0-.2-.2,0,0,0-.1,0-.2s0-.2,0-.2c0,0,0-.1.2-.2,0,0,.1,0,.2,0s.2,0,.2,0c0,0,.1,0,.2.2,0,0,0,.1,0,.2s0,.2,0,.2c0,0,0,.1-.2.2,0,0-.1,0-.2,0ZM28.1,4c0,0,.1,0,.2,0,0,0,0,0,.1-.1,0,0,0-.1,0-.2s0-.1,0-.2c0,0,0,0-.1-.1,0,0-.1,0-.2,0s-.1,0-.2,0c0,0,0,0-.1.1s0,.1,0,.2,0,.1,0,.2,0,0,.1.1c0,0,.1,0,.2,0Z"/>
      <path d="M28.8,4.1v-.9h.1v.2h0c0-.1,0-.2.1-.2s.1,0,.2,0h0c0,.1,0,.1,0,.1s0,0,0,0c0,0-.2,0-.2,0,0,0,0,.1,0,.2v.5h-.1Z"/>
      <path d="M29.9,4.1c0,0-.2,0-.2,0,0,0-.1,0-.2-.2,0,0,0-.1,0-.2s0-.2,0-.2c0,0,0-.1.2-.2,0,0,.1,0,.2,0s.2,0,.2,0c0,0,.1,0,.2.2,0,0,0,.1,0,.2s0,0,0,0,0,0,0,0h-.8c0,0,.7,0,.7,0h0s0,0,0-.1c0,0,0,0-.1-.1,0,0-.1,0-.2,0s-.1,0-.2,0c0,0,0,0-.1.1,0,0,0,.1,0,.2h0c0,0,0,.1,0,.2,0,0,0,0,.1.1,0,0,.1,0,.2,0s.1,0,.2,0c0,0,0,0,.1,0h0c0,.1,0,.2-.1.2,0,0-.1,0-.2,0Z"/>
      <path d="M30.8,4.1c0,0-.1,0-.2,0,0,0-.1,0-.2,0h0c0,0,0,0,.1,0s.1,0,.2,0,.1,0,.2,0,0,0,0-.1,0,0,0,0,0,0,0,0c0,0,0,0-.1,0,0,0,0,0-.1,0,0,0,0,0-.1,0,0,0,0,0,0,0s0,0,0-.1,0,0,0-.1c0,0,0,0,.1,0,0,0,.1,0,.2,0s.1,0,.2,0c0,0,.1,0,.1,0h0c0,0,0,0-.1,0,0,0,0,0-.1,0,0,0-.1,0-.2,0,0,0,0,0,0,.1s0,0,0,0,0,0,0,0c0,0,0,0,.1,0,0,0,0,0,.1,0,0,0,0,0,.1,0,0,0,0,0,0,0,0,0,0,0,0,.1s0,0,0,.1c0,0,0,0-.1,0,0,0-.1,0-.2,0Z"/>
      <path d="M17.9,6.2h-.1v-1.2h.1v1.2ZM18.7,5.7h-.8c0-.1.8-.1.8-.1h0ZM18.7,5h.1v1.2h-.1v-1.2Z"/>
      <path d="M19.5,6.2c0,0-.1,0-.2,0,0,0-.1,0-.1-.1,0,0,0-.1,0-.2v-.5h.1v.5c0,0,0,.2,0,.2,0,0,.1,0,.2,0s.1,0,.2,0c0,0,0,0,.1-.1,0,0,0-.1,0-.2v-.5h.1v.9h-.1v-.2h0c0,.1,0,.2-.1.2,0,0-.1,0-.2,0Z"/>
      <path d="M21.4,5.3c0,0,.1,0,.2,0,0,0,0,0,.1.1s0,.1,0,.2v.5h-.1v-.5c0,0,0-.2,0-.2,0,0-.1,0-.2,0s-.1,0-.2,0c0,0,0,0-.1.1,0,0,0,.1,0,.2v.5h-.1v-.5c0,0,0-.2,0-.2,0,0-.1,0-.2,0s-.1,0-.2,0c0,0,0,0-.1.1,0,0,0,.1,0,.2v.5h-.1v-.9h.1v.2h0c0-.1,0-.2.1-.2,0,0,.1,0,.2,0s.2,0,.2,0c0,0,.1.1.1.2h0c0,0,0-.2.1-.2,0,0,.1,0,.2,0Z"/>
      <path d="M22.4,6.2c0,0-.1,0-.2,0,0,0,0,0-.1,0,0,0,0,0,0-.1s0,0,0-.1c0,0,0,0,.1,0,0,0,.1,0,.2,0h.3c0,0-.3,0-.3,0,0,0-.1,0-.2,0s0,0,0,.1,0,0,0,.1,0,0,.2,0,.1,0,.2,0c0,0,0,0,.1-.1h0c0,.1,0,.2-.1.2,0,0-.1,0-.2,0ZM22.7,6.2v-.2h0v-.4c0,0,0-.1,0-.2,0,0-.1,0-.2,0s-.1,0-.2,0c0,0,0,0-.1,0h0c0-.1.1-.2.2-.2,0,0,.1,0,.2,0,.1,0,.2,0,.3,0,0,0,0,.1,0,.3v.6h-.1Z"/>
      <path d="M23.6,5.3c0,0,.1,0,.2,0,0,0,0,0,.1.1,0,0,0,.1,0,.2v.5h-.1v-.5c0,0,0-.2,0-.2,0,0-.1,0-.2,0s-.1,0-.2,0,0,0-.1.1c0,0,0,.1,0,.2v.5h-.1v-.9h.1v.2h0c0-.1,0-.2.1-.2,0,0,.1,0,.2,0Z"/>
      <path d="M24.7,6.2c0,0-.2,0-.2,0,0,0-.1,0-.2-.2,0,0,0-.1,0-.2s0-.2,0-.2c0,0,0-.1.2-.2,0,0,.1,0,.2,0s.2,0,.2,0c0,0,.1,0,.2.2,0,0,0,.1,0,.2s0,.2,0,.2c0,0,0,.1-.2.2,0,0-.1,0-.2,0ZM24.7,6.1c0,0,.1,0,.2,0,0,0,0,0,.1-.1,0,0,0-.1,0-.2s0-.1,0-.2c0,0,0,0-.1-.1,0,0-.1,0-.2,0s-.1,0-.2,0c0,0,0,0-.1.1s0,.1,0,.2,0,.1,0,.2,0,0,.1.1c0,0,.1,0,.2,0Z"/>
      <path d="M25.6,6.2c0,0-.1,0-.2,0,0,0-.1,0-.2,0h0c0,0,0,0,.1,0s.1,0,.2,0,.1,0,.2,0,0,0,0-.1,0,0,0,0,0,0,0,0c0,0,0,0-.1,0,0,0,0,0-.1,0,0,0,0,0-.1,0,0,0,0,0,0,0s0,0,0-.1,0,0,0-.1c0,0,0,0,.1,0,0,0,.1,0,.2,0s.1,0,.2,0c0,0,.1,0,.1,0h0c0,0,0,0-.1,0,0,0,0,0-.1,0,0,0-.1,0-.2,0,0,0,0,0,0,.1s0,0,0,0,0,0,0,0c0,0,0,0,.1,0,0,0,0,0,.1,0,0,0,0,0,.1,0,0,0,0,0,0,0,0,0,0,0,0,.1s0,0,0,.1c0,0,0,0-.1,0,0,0-.1,0-.2,0Z"/>
    </g>
    <rect class="st0" x="37.5" y="6.5" width="28.1" height="1.4" rx=".5" ry=".5"/>
    <rect class="st3" x="7.8" y="6.5" width="28.1" height="1.4" rx=".5" ry=".5"/>
  </g>
</svg>