<?xml version="1.0" encoding="UTF-8"?>
<svg id="Capa_1" xmlns="http://www.w3.org/2000/svg" version="1.1" viewBox="0 0 100 20">
  <!-- Generator: Adobe Illustrator 29.4.0, SVG Export Plug-In . SVG Version: 2.1.0 Build 152)  -->
  <defs>
    <style>
      .st0 {
        fill: #ffb199;
      }

      .st1 {
        fill: #dfdfdf;
      }

      .st2 {
        fill: #f2d5d3;
      }

      .st3 {
        fill: #383c95;
      }

      .st4 {
        fill: #d0cdea;
      }
    </style>
  </defs>
  <rect class="st1" x="6.1" y="11.4" width="90.5" height="1.3" rx=".7" ry=".7"/>
  <rect class="st2" x="37.2" y="2.3" width="28.9" height="5.4" rx=".9" ry=".9"/>
  <rect class="st0" x="37.2" y="6.5" width="28.9" height="2.1" rx=".5" ry=".5"/>
  <rect class="st4" x="6.6" y="2.3" width="28.9" height="5.3" rx="1" ry="1"/>
  <rect class="st3" x="6.6" y="6.5" width="28.9" height="2" rx=".5" ry=".5"/>
  <rect class="st2" x="68" y="2.5" width="28.9" height="4.9" rx=".7" ry=".7"/>
  <rect class="st0" x="68" y="6.5" width="28.9" height="2.3" rx=".7" ry=".7"/>
  <path class="st1" d="M20.1,12.8h1.1v.6c0,.3-.3.6-.6.6h0c-.3,0-.6-.3-.6-.6v-.6h0Z"/>
  <path class="st1" d="M52,12.7v.6c0,.3-.3.6-.6.6h0c-.3,0-.6-.3-.6-.6v-.6"/>
  <path class="st1" d="M85.3,12.7v.6c0,.3-.3.6-.6.6h0c-.3,0-.6-.3-.6-.6v-.6"/>
  <g>
    <path d="M16,16.5c-.1,0-.2,0-.3,0,0,0-.2,0-.2-.2s-.1-.1-.2-.2,0-.2,0-.3,0-.2,0-.3,0-.2.2-.2c0,0,.1-.1.2-.2,0,0,.2,0,.3,0s.2,0,.3,0c0,0,.2,0,.2.2h-.1c0,0-.1,0-.2,0,0,0-.1,0-.2,0s-.2,0-.2,0c0,0-.1,0-.2.1,0,0,0,.1-.1.2,0,0,0,.1,0,.2s0,.2,0,.2c0,0,0,.1.1.2,0,0,.1,0,.2.1,0,0,.1,0,.2,0s.1,0,.2,0c0,0,.1,0,.2-.1h.1c0,.2-.1.3-.2.3,0,0-.2,0-.3,0Z"/>
    <path d="M16.9,15.2s0,0,0,0,0,0,0,0,0,0,0,0c0,0,0,0,0,0s0,0,0,0c0,0,0,0,0,0s0,0,0,0c0,0,0,0,0,0ZM16.8,16.4v-1.1h.2v1.1h-.2Z"/>
    <path d="M17.9,16.4c-.1,0-.2,0-.3,0,0,0-.2-.1-.2-.2s0-.2,0-.3,0-.2,0-.3c0,0,.1-.1.2-.2,0,0,.2,0,.3,0s.2,0,.3,0c0,0,.1,0,.2.2h-.1s0,0-.1,0c0,0-.1,0-.2,0s-.1,0-.2,0c0,0,0,0-.1.1s0,.1,0,.2,0,.1,0,.2c0,0,0,0,.1.1,0,0,.1,0,.2,0s.1,0,.2,0c0,0,0,0,.1-.1h.1c0,.2-.1.2-.2.3,0,0-.2,0-.3,0Z"/>
    <path d="M18.5,16.4v-1.5h.2v1.5h-.2Z"/>
    <path d="M19.6,16.4c-.1,0-.2,0-.3,0s-.1-.1-.2-.2c0,0,0-.2,0-.3s0-.2,0-.3c0,0,.1-.1.2-.2,0,0,.2,0,.3,0s.2,0,.3,0c0,0,.1.1.2.2,0,0,0,.2,0,.3s0,.2,0,.3c0,0-.1.1-.2.2s-.2,0-.3,0ZM19.6,16.3c0,0,.1,0,.2,0,0,0,0,0,.1-.1,0,0,0-.1,0-.2s0-.1,0-.2c0,0,0,0-.1-.1,0,0-.1,0-.2,0s-.1,0-.2,0,0,0-.1.1,0,.1,0,.2,0,.1,0,.2c0,0,0,.1.1.1,0,0,.1,0,.2,0Z"/>
    <path d="M20.9,16.4v-1.5h.2v1s0,.2,0,.2v.3h-.2ZM21.5,16.4c0,0-.2,0-.2,0,0,0-.1-.1-.2-.2,0,0,0-.2,0-.3s0-.2,0-.3c0,0,.1-.1.2-.2s.2,0,.2,0,.2,0,.3,0c0,0,.1.1.2.2,0,0,0,.2,0,.3s0,.2,0,.3-.1.1-.2.2-.2,0-.3,0ZM21.5,16.3c0,0,.1,0,.2,0,0,0,0,0,.1-.1,0,0,0-.1,0-.2s0-.1,0-.2c0,0,0,0-.1-.1,0,0-.1,0-.2,0s-.1,0-.2,0c0,0,0,0-.1.1,0,0,0,.1,0,.2s0,.1,0,.2c0,0,0,.1.1.1,0,0,.1,0,.2,0Z"/>
    <path d="M22.6,16.4c0,0-.1,0-.2,0,0,0-.1,0-.1-.1,0,0,0-.1,0-.2s0-.1,0-.2c0,0,0,0,.1-.1s.1,0,.3,0h.3c0,.1-.3.1-.3.1,0,0-.2,0-.2,0,0,0,0,0,0,.1s0,0,0,.1c0,0,0,0,.2,0s.1,0,.2,0c0,0,0,0,.1-.1h0c0,.2,0,.2-.1.3,0,0-.1,0-.2,0ZM23,16.4v-.2h0v-.4c0,0,0-.1,0-.2,0,0-.1,0-.2,0s-.1,0-.2,0c0,0-.1,0-.2,0h0c0-.2.1-.2.2-.2,0,0,.2,0,.2,0,.1,0,.3,0,.3.1s.1.2.1.3v.6h-.2ZM22.6,15.2l.3-.3h.2l-.3.3h-.2Z"/>
    <path d="M23.8,16.4c0,0-.2,0-.3,0,0,0-.1,0-.2,0v-.2c.1,0,.2,0,.2,0,0,0,.1,0,.2,0s.2,0,.2,0c0,0,0,0,0-.1s0,0,0,0c0,0,0,0,0,0,0,0,0,0-.1,0,0,0,0,0-.1,0,0,0,0,0-.1,0,0,0,0,0,0,0,0,0,0,0,0-.1s0-.1,0-.2c0,0,0,0,.2-.1,0,0,.1,0,.2,0s.1,0,.2,0,.1,0,.2,0v.2c-.1,0-.2,0-.2,0,0,0-.1,0-.2,0,0,0-.1,0-.2,0s0,0,0,.1,0,0,0,0c0,0,0,0,0,0,0,0,0,0,.1,0s0,0,.1,0,0,0,.1,0c0,0,0,0,0,0s0,0,0,.1,0,.1,0,.2,0,0-.2.1-.2,0-.2,0Z"/>
    <path d="M24.6,15.2s0,0,0,0,0,0,0,0,0,0,0,0c0,0,0,0,0,0s0,0,0,0c0,0,0,0,0,0s0,0,0,0c0,0,0,0,0,0ZM24.5,16.4v-1.1h.2v1.1h-.2Z"/>
    <path d="M25.5,16.4c-.1,0-.2,0-.3,0,0,0-.2-.1-.2-.2s0-.2,0-.3,0-.2,0-.3c0,0,.1-.1.2-.2,0,0,.2,0,.3,0s.2,0,.3,0c0,0,.1,0,.2.2h-.1s0,0-.1,0c0,0-.1,0-.2,0s-.1,0-.2,0c0,0,0,0-.1.1s0,.1,0,.2,0,.1,0,.2c0,0,0,0,.1.1,0,0,.1,0,.2,0s.1,0,.2,0c0,0,0,0,.1-.1h.1c0,.2-.1.2-.2.3,0,0-.2,0-.3,0Z"/>
    <path d="M26.7,16.4c-.1,0-.2,0-.3,0s-.1-.1-.2-.2c0,0,0-.2,0-.3s0-.2,0-.3c0,0,.1-.1.2-.2,0,0,.2,0,.3,0s.2,0,.3,0c0,0,.1.1.2.2,0,0,0,.2,0,.3s0,.2,0,.3c0,0-.1.1-.2.2s-.2,0-.3,0ZM26.7,16.3c0,0,.1,0,.2,0,0,0,0,0,.1-.1,0,0,0-.1,0-.2s0-.1,0-.2c0,0,0,0-.1-.1,0,0-.1,0-.2,0s-.1,0-.2,0,0,0-.1.1,0,.1,0,.2,0,.1,0,.2c0,0,0,.1.1.1,0,0,.1,0,.2,0Z"/>
    <path d="M19,18.8v-1.4h.2v1.4h-.2Z"/>
    <path d="M20.4,18.8c0,0-.1,0-.2,0,0,0-.1,0-.1-.1,0,0,0-.1,0-.2s0-.1,0-.2c0,0,0,0,.1-.1s.1,0,.3,0h.3c0,.1-.3.1-.3.1,0,0-.2,0-.2,0,0,0,0,0,0,.1s0,0,0,.1c0,0,0,0,.2,0s.1,0,.2,0c0,0,0,0,.1-.1h0c0,.2,0,.2-.1.3,0,0-.1,0-.2,0ZM20.8,18.8v-.2h0v-.4c0,0,0-.1,0-.2,0,0-.1,0-.2,0s-.1,0-.2,0c0,0-.1,0-.2,0h0c0-.2.1-.2.2-.2,0,0,.2,0,.2,0,.1,0,.3,0,.3.1s.1.2.1.3v.6h-.2Z"/>
    <path d="M21.9,18.8v-1.4h.2v1.4h-.2Z"/>
    <path d="M22.9,18.8l-.6-1.4h.2l.6,1.3h-.1l.6-1.3h.2l-.6,1.4h-.2Z"/>
  </g>
  <g>
    <path d="M42.8,16.5c-.1,0-.2,0-.3,0,0,0-.2,0-.2-.2s-.1-.1-.2-.2,0-.2,0-.3,0-.2,0-.3,0-.2.2-.2c0,0,.1-.1.2-.2,0,0,.2,0,.3,0s.2,0,.3,0c0,0,.2,0,.2.2h-.1c0,0-.1,0-.2,0,0,0-.1,0-.2,0s-.2,0-.2,0c0,0-.1,0-.2.1,0,0,0,.1-.1.2,0,0,0,.1,0,.2s0,.2,0,.2c0,0,0,.1.1.2,0,0,.1,0,.2.1,0,0,.1,0,.2,0s.1,0,.2,0c0,0,.1,0,.2-.1h.1c0,.2-.1.3-.2.3,0,0-.2,0-.3,0Z"/>
    <path d="M43.7,15.2s0,0,0,0,0,0,0,0,0,0,0,0c0,0,0,0,0,0s0,0,0,0c0,0,0,0,0,0s0,0,0,0c0,0,0,0,0,0ZM43.6,16.4v-1.1h.2v1.1h-.2Z"/>
    <path d="M44.6,16.4c-.1,0-.2,0-.3,0,0,0-.2-.1-.2-.2s0-.2,0-.3,0-.2,0-.3c0,0,.1-.1.2-.2,0,0,.2,0,.3,0s.2,0,.3,0c0,0,.1,0,.2.2h-.1s0,0-.1,0c0,0-.1,0-.2,0s-.1,0-.2,0c0,0,0,0-.1.1s0,.1,0,.2,0,.1,0,.2c0,0,0,0,.1.1,0,0,.1,0,.2,0s.1,0,.2,0c0,0,0,0,.1-.1h.1c0,.2-.1.2-.2.3,0,0-.2,0-.3,0Z"/>
    <path d="M45.3,16.4v-1.5h.2v1.5h-.2Z"/>
    <path d="M46.3,16.4c-.1,0-.2,0-.3,0s-.1-.1-.2-.2c0,0,0-.2,0-.3s0-.2,0-.3c0,0,.1-.1.2-.2,0,0,.2,0,.3,0s.2,0,.3,0c0,0,.1.1.2.2,0,0,0,.2,0,.3s0,.2,0,.3c0,0-.1.1-.2.2s-.2,0-.3,0ZM46.3,16.3c0,0,.1,0,.2,0,0,0,0,0,.1-.1,0,0,0-.1,0-.2s0-.1,0-.2c0,0,0,0-.1-.1,0,0-.1,0-.2,0s-.1,0-.2,0,0,0-.1.1,0,.1,0,.2,0,.1,0,.2c0,0,0,.1.1.1,0,0,.1,0,.2,0Z"/>
    <path d="M48.1,16.4c-.1,0-.2,0-.3,0,0,0-.2-.1-.2-.2,0,0,0-.2,0-.3s0-.2,0-.3c0,0,.1-.1.2-.2,0,0,.2,0,.3,0s.2,0,.3,0c0,0,.1.1.2.2,0,0,0,.2,0,.3s0,0,0,0c0,0,0,0,0,0h-.9c0-.1.8-.1.8-.1h0s0,0,0-.1c0,0,0,0-.1-.1s-.1,0-.2,0-.1,0-.2,0c0,0,0,0-.1.1,0,0,0,.1,0,.2h0c0,.1,0,.2,0,.2,0,0,0,0,.1.1,0,0,.1,0,.2,0s.1,0,.2,0,0,0,.1,0h.1c0,.2-.1.2-.2.3s-.2,0-.2,0Z"/>
    <path d="M49.2,16.4c0,0-.2,0-.3,0,0,0-.1,0-.2,0v-.2c.1,0,.2,0,.2,0,0,0,.1,0,.2,0s.2,0,.2,0c0,0,0,0,0-.1s0,0,0,0c0,0,0,0,0,0,0,0,0,0-.1,0,0,0,0,0-.1,0,0,0,0,0-.1,0,0,0,0,0,0,0,0,0,0,0,0-.1s0-.1,0-.2c0,0,0,0,.2-.1,0,0,.1,0,.2,0s.1,0,.2,0,.1,0,.2,0v.2c-.1,0-.2,0-.2,0,0,0-.1,0-.2,0,0,0-.1,0-.2,0s0,0,0,.1,0,0,0,0c0,0,0,0,0,0,0,0,0,0,.1,0s0,0,.1,0,0,0,.1,0c0,0,0,0,0,0s0,0,0,.1,0,.1,0,.2,0,0-.2.1-.2,0-.2,0Z"/>
    <path d="M49.9,16.8v-1.5h.2v.5s0,.2,0,.2v.7h-.2ZM50.5,16.4c0,0-.2,0-.2,0,0,0-.1-.1-.2-.2,0,0,0-.2,0-.3s0-.2,0-.3c0,0,0-.1.2-.2s.2,0,.2,0,.2,0,.3,0c0,0,.1.1.2.2,0,0,0,.2,0,.3s0,.2,0,.3-.1.1-.2.2-.2,0-.3,0ZM50.5,16.3c0,0,.1,0,.2,0,0,0,0,0,.1-.1,0,0,0-.1,0-.2s0-.1,0-.2c0,0,0,0-.1-.1,0,0-.1,0-.2,0s-.1,0-.2,0c0,0,0,0-.1.1,0,0,0,.1,0,.2s0,.1,0,.2c0,0,0,.1.1.1,0,0,.1,0,.2,0Z"/>
    <path d="M51.8,16.4c-.1,0-.2,0-.3,0s-.2-.1-.2-.2c0,0,0-.2,0-.3s0-.2,0-.3c0,0,.1-.1.2-.2,0,0,.2,0,.3,0s.2,0,.3,0c0,0,.1.1.2.2,0,0,0,.2,0,.3s0,0,0,0c0,0,0,0,0,0h-.9c0-.1.8-.1.8-.1h0s0,0,0-.1c0,0,0,0-.1-.1s-.1,0-.2,0-.1,0-.2,0c0,0,0,0-.1.1,0,0,0,.1,0,.2h0c0,.1,0,.2,0,.2s0,0,.1.1c0,0,.1,0,.2,0s.1,0,.2,0,0,0,.1,0h.1c0,.2-.1.2-.2.3,0,0-.2,0-.2,0Z"/>
    <path d="M53,16.4c-.1,0-.2,0-.3,0,0,0-.2-.1-.2-.2,0,0,0-.2,0-.3s0-.2,0-.3c0,0,.1-.1.2-.2,0,0,.2,0,.3,0s.2,0,.3,0c0,0,.1,0,.2.2h-.1s0,0-.1,0c0,0-.1,0-.2,0s-.1,0-.2,0c0,0,0,0-.1.1s0,.1,0,.2,0,.1,0,.2c0,0,0,0,.1.1,0,0,.1,0,.2,0s.1,0,.2,0c0,0,0,0,.1-.1h.1c0,.2-.1.2-.2.3,0,0-.2,0-.3,0Z"/>
    <path d="M53.8,15.2s0,0,0,0c0,0,0,0,0,0s0,0,0,0c0,0,0,0,0,0s0,0,0,0c0,0,0,0,0,0s0,0,0,0c0,0,0,0,0,0ZM53.7,16.4v-1.1h.2v1.1h-.2Z"/>
    <path d="M54.5,16.4c0,0-.1,0-.2,0,0,0-.1,0-.1-.1,0,0,0-.1,0-.2s0-.1,0-.2,0,0,.1-.1.1,0,.3,0h.3c0,.1-.3.1-.3.1,0,0-.2,0-.2,0,0,0,0,0,0,.1s0,0,0,.1c0,0,0,0,.2,0s.1,0,.2,0,0,0,.1-.1h0c0,.2,0,.2-.1.3,0,0-.1,0-.2,0ZM54.9,16.4v-.2h0v-.4c0,0,0-.1,0-.2,0,0-.1,0-.2,0s-.1,0-.2,0c0,0-.1,0-.2,0h0c0-.2.1-.2.2-.2,0,0,.2,0,.2,0,.1,0,.3,0,.3.1s.1.2.1.3v.6h-.2Z"/>
    <path d="M55.4,16.4v-1.5h.2v1.5h-.2Z"/>
    <path d="M56.1,15.2s0,0,0,0c0,0,0,0,0,0s0,0,0,0c0,0,0,0,0,0s0,0,0,0c0,0,0,0,0,0s0,0,0,0c0,0,0,0,0,0ZM56,16.4v-1.1h.2v1.1h-.2Z"/>
    <path d="M56.5,16.4h0c0-.1.7-1,.7-1h0c0,0-.7,0-.7,0v-.2h.9c0,.1-.7,1-.7,1h0c0,0,.7,0,.7,0v.2h-.9Z"/>
    <path d="M57.9,16.4c0,0-.1,0-.2,0,0,0-.1,0-.1-.1,0,0,0-.1,0-.2s0-.1,0-.2c0,0,0,0,.1-.1s.1,0,.3,0h.3c0,.1-.3.1-.3.1,0,0-.2,0-.2,0s0,0,0,.1,0,0,0,.1c0,0,0,0,.2,0s.1,0,.2,0c0,0,0,0,.1-.1h0c0,.2,0,.2-.1.3,0,0-.1,0-.2,0ZM58.3,16.4v-.2h0v-.4c0,0,0-.1,0-.2s-.1,0-.2,0-.1,0-.2,0c0,0-.1,0-.2,0h0c0-.2.1-.2.2-.2,0,0,.2,0,.2,0,.1,0,.3,0,.3.1s.1.2.1.3v.6h-.2Z"/>
    <path d="M59.3,16.4c-.1,0-.2,0-.3,0,0,0-.1-.1-.2-.2,0,0,0-.2,0-.3s0-.2,0-.3c0,0,.1-.1.2-.2,0,0,.2,0,.3,0s.2,0,.2,0,.1.1.2.2c0,0,0,.2,0,.3s0,.2,0,.3c0,0,0,.1-.2.2,0,0-.2,0-.2,0ZM59.3,16.3c0,0,.1,0,.2,0,0,0,0,0,.1-.1,0,0,0-.1,0-.2s0-.1,0-.2c0,0,0,0-.1-.1,0,0-.1,0-.2,0s-.1,0-.2,0,0,0-.1.1,0,.1,0,.2,0,.1,0,.2c0,0,0,.1.1.1,0,0,.1,0,.2,0ZM59.6,16.4v-.5s0-.2,0-.2v-.7h.2v1.5h-.2Z"/>
    <path d="M60.6,16.4c-.1,0-.2,0-.3,0s-.2-.1-.2-.2c0,0,0-.2,0-.3s0-.2,0-.3c0,0,.1-.1.2-.2,0,0,.2,0,.3,0s.2,0,.3,0c0,0,.1.1.2.2,0,0,0,.2,0,.3s0,.2,0,.3-.1.1-.2.2-.2,0-.3,0ZM60.6,16.3c0,0,.1,0,.2,0,0,0,0,0,.1-.1,0,0,0-.1,0-.2s0-.1,0-.2c0,0,0,0-.1-.1,0,0-.1,0-.2,0s-.1,0-.2,0,0,0-.1.1,0,.1,0,.2,0,.1,0,.2c0,0,0,.1.1.1,0,0,.1,0,.2,0Z"/>
    <path d="M48.7,18.8l-.6-1.4h.2l.6,1.3h-.1l.6-1.3h.2l-.6,1.4h-.2Z"/>
    <path d="M50.6,18.8c0,0-.1,0-.2,0,0,0-.1,0-.1-.1,0,0,0-.1,0-.2s0-.1,0-.2c0,0,0,0,.1-.1s.1,0,.3,0h.3c0,.1-.3.1-.3.1,0,0-.2,0-.2,0,0,0,0,0,0,.1s0,0,0,.1c0,0,0,0,.2,0s.1,0,.2,0c0,0,0,0,.1-.1h0c0,.2,0,.2-.1.3,0,0-.1,0-.2,0ZM50.9,18.8v-.2h0v-.4c0,0,0-.1,0-.2,0,0-.1,0-.2,0s-.1,0-.2,0c0,0-.1,0-.2,0h0c0-.2.1-.2.2-.2,0,0,.2,0,.2,0,.1,0,.3,0,.3.1,0,0,.1.2.1.3v.6h-.2Z"/>
    <path d="M52.4,18.8l-.6-1.4h.2l.6,1.3h-.1l.6-1.3h.2l-.6,1.4h-.2Z"/>
    <path d="M53.5,18.8v-1.4h.2v1.4h-.2Z"/>
    <path d="M54.1,18.8v-1.4h.2v1.4h-.2Z"/>
    <path d="M54.7,18.8v-1.4h.2v1.4h-.2Z"/>
  </g>
  <g>
    <path d="M77.1,16.5c-.1,0-.2,0-.3,0,0,0-.2,0-.2-.2s-.1-.1-.2-.2c0,0,0-.2,0-.3s0-.2,0-.3c0,0,0-.2.2-.2,0,0,.1-.1.2-.2,0,0,.2,0,.3,0s.2,0,.3,0,.2,0,.2.2h-.1c0,0-.1,0-.2,0,0,0-.1,0-.2,0s-.2,0-.2,0c0,0-.1,0-.2.1,0,0,0,.1-.1.2,0,0,0,.1,0,.2s0,.2,0,.2c0,0,0,.1.1.2,0,0,.1,0,.2.1,0,0,.1,0,.2,0s.1,0,.2,0c0,0,.1,0,.2-.1h.1c0,.2-.1.3-.2.3,0,0-.2,0-.3,0Z"/>
    <path d="M78,15.2s0,0,0,0c0,0,0,0,0,0s0,0,0,0c0,0,0,0,0,0s0,0,0,0c0,0,0,0,0,0s0,0,0,0c0,0,0,0,0,0ZM77.9,16.4v-1.1h.2v1.1h-.2Z"/>
    <path d="M79,16.4c-.1,0-.2,0-.3,0s-.2-.1-.2-.2c0,0,0-.2,0-.3s0-.2,0-.3c0,0,.1-.1.2-.2,0,0,.2,0,.3,0s.2,0,.3,0c0,0,.1,0,.2.2h-.1s0,0-.1,0c0,0-.1,0-.2,0s-.1,0-.2,0c0,0,0,0-.1.1s0,.1,0,.2,0,.1,0,.2c0,0,0,0,.1.1,0,0,.1,0,.2,0s.1,0,.2,0c0,0,0,0,.1-.1h.1c0,.2-.1.2-.2.3,0,0-.2,0-.3,0Z"/>
    <path d="M79.6,16.4v-1.5h.2v1.5h-.2Z"/>
    <path d="M80.7,16.4c-.1,0-.2,0-.3,0s-.2-.1-.2-.2c0,0,0-.2,0-.3s0-.2,0-.3c0,0,.1-.1.2-.2,0,0,.2,0,.3,0s.2,0,.3,0c0,0,.1.1.2.2,0,0,0,.2,0,.3s0,.2,0,.3-.1.1-.2.2-.2,0-.3,0ZM80.7,16.3c0,0,.1,0,.2,0,0,0,0,0,.1-.1,0,0,0-.1,0-.2s0-.1,0-.2c0,0,0,0-.1-.1,0,0-.1,0-.2,0s-.1,0-.2,0,0,0-.1.1,0,.1,0,.2,0,.1,0,.2c0,0,0,.1.1.1,0,0,.1,0,.2,0Z"/>
    <path d="M82,16.8v-1.5h.2v.5s0,.2,0,.2v.7h-.2ZM82.6,16.4c0,0-.2,0-.2,0,0,0-.1-.1-.2-.2,0,0,0-.2,0-.3s0-.2,0-.3c0,0,.1-.1.2-.2s.2,0,.2,0,.2,0,.3,0c0,0,.1.1.2.2,0,0,0,.2,0,.3s0,.2,0,.3-.1.1-.2.2c0,0-.2,0-.3,0ZM82.6,16.3c0,0,.1,0,.2,0,0,0,0,0,.1-.1,0,0,0-.1,0-.2s0-.1,0-.2c0,0,0,0-.1-.1,0,0-.1,0-.2,0s-.1,0-.2,0c0,0,0,0-.1.1s0,.1,0,.2,0,.1,0,.2c0,0,0,.1.1.1,0,0,.1,0,.2,0Z"/>
    <path d="M83.4,16.4v-1.1h.2v.3h0c0-.1,0-.2.1-.2,0,0,.2,0,.3,0v.2s0,0,0,0h0c-.1,0-.2,0-.2,0,0,0,0,.2,0,.3v.5h-.2Z"/>
    <path d="M84.7,16.4c-.1,0-.2,0-.3,0s-.2-.1-.2-.2c0,0,0-.2,0-.3s0-.2,0-.3c0,0,.1-.1.2-.2,0,0,.2,0,.3,0s.2,0,.3,0c0,0,.1.1.2.2,0,0,0,.2,0,.3s0,.2,0,.3-.1.1-.2.2-.2,0-.3,0ZM84.7,16.3c0,0,.1,0,.2,0,0,0,0,0,.1-.1,0,0,0-.1,0-.2s0-.1,0-.2c0,0,0,0-.1-.1,0,0-.1,0-.2,0s-.1,0-.2,0,0,0-.1.1,0,.1,0,.2,0,.1,0,.2c0,0,0,.1.1.1,0,0,.1,0,.2,0Z"/>
    <path d="M85.4,15.5v-.2h.7v.2h-.7ZM85.5,16.4v-1.2c0-.1,0-.2,0-.3,0,0,.1,0,.3,0s0,0,.1,0c0,0,0,0,0,0h0c0,.1,0,.1,0,.1,0,0,0,0,0,0,0,0,0,0-.1,0,0,0,0,0,0,.1h0c0,.1,0,.2,0,.2v.9h-.2Z"/>
    <path d="M86.7,16.4c-.1,0-.2,0-.3,0s-.2-.1-.2-.2,0-.2,0-.3,0-.2,0-.3c0,0,.1-.1.2-.2,0,0,.2,0,.3,0s.2,0,.3,0c0,0,.1.1.2.2,0,0,0,.2,0,.3s0,0,0,0,0,0,0,0h-.9c0-.1.8-.1.8-.1h0s0,0,0-.1,0,0-.1-.1-.1,0-.2,0-.1,0-.2,0c0,0,0,0-.1.1s0,.1,0,.2h0c0,.1,0,.2,0,.2s0,0,.1.1c0,0,.1,0,.2,0s.1,0,.2,0,0,0,.1,0h.1c0,.2-.1.2-.2.3,0,0-.2,0-.2,0Z"/>
    <path d="M87.8,16.4c0,0-.2,0-.3,0,0,0-.1,0-.2,0v-.2c.1,0,.2,0,.2,0,0,0,.1,0,.2,0s.2,0,.2,0c0,0,0,0,0-.1s0,0,0,0c0,0,0,0,0,0,0,0,0,0-.1,0,0,0,0,0-.1,0,0,0,0,0-.1,0,0,0,0,0,0,0,0,0,0,0,0-.1s0-.1,0-.2c0,0,0,0,.2-.1,0,0,.1,0,.2,0s.1,0,.2,0c0,0,.1,0,.2,0v.2c-.1,0-.2,0-.2,0,0,0-.1,0-.2,0,0,0-.1,0-.2,0,0,0,0,0,0,.1s0,0,0,0c0,0,0,0,0,0,0,0,0,0,.1,0,0,0,0,0,.1,0,0,0,0,0,.1,0,0,0,0,0,0,0,0,0,0,0,0,.1s0,.1,0,.2c0,0,0,0-.2.1s-.2,0-.2,0Z"/>
    <path d="M88.6,15.2s0,0,0,0c0,0,0,0,0,0s0,0,0,0c0,0,0,0,0,0s0,0,0,0c0,0,0,0,0,0s0,0,0,0c0,0,0,0,0,0ZM88.5,16.4v-1.1h.2v1.1h-.2Z"/>
    <path d="M89.5,16.4c-.1,0-.2,0-.3,0s-.2-.1-.2-.2c0,0,0-.2,0-.3s0-.2,0-.3c0,0,.1-.1.2-.2,0,0,.2,0,.3,0s.2,0,.3,0c0,0,.1.1.2.2,0,0,0,.2,0,.3s0,.2,0,.3-.1.1-.2.2-.2,0-.3,0ZM89.5,16.3c0,0,.1,0,.2,0,0,0,0,0,.1-.1,0,0,0-.1,0-.2s0-.1,0-.2c0,0,0,0-.1-.1,0,0-.1,0-.2,0s-.1,0-.2,0,0,0-.1.1,0,.1,0,.2,0,.1,0,.2c0,0,0,.1.1.1,0,0,.1,0,.2,0Z"/>
    <path d="M90.9,15.4c0,0,.2,0,.2,0s.1,0,.2.2c0,0,0,.2,0,.3v.6h-.2v-.6c0-.1,0-.2,0-.2,0,0-.1,0-.2,0s-.1,0-.2,0c0,0,0,0-.1.1,0,0,0,.1,0,.2v.5h-.2v-1.1h.2v.3h0c0-.1,0-.2.2-.2,0,0,.2,0,.3,0Z"/>
    <path d="M92,16.4c0,0-.1,0-.2,0,0,0-.1,0-.1-.1,0,0,0-.1,0-.2s0-.1,0-.2c0,0,0,0,.1-.1s.1,0,.3,0h.3c0,.1-.3.1-.3.1,0,0-.2,0-.2,0,0,0,0,0,0,.1s0,0,0,.1c0,0,0,0,.2,0s.1,0,.2,0c0,0,0,0,.1-.1h0c0,.2,0,.2-.1.3,0,0-.1,0-.2,0ZM92.3,16.4v-.2h0v-.4c0,0,0-.1,0-.2s-.1,0-.2,0-.1,0-.2,0c0,0-.1,0-.2,0h0c0-.2.1-.2.2-.2,0,0,.2,0,.2,0,.1,0,.3,0,.3.1,0,0,.1.2.1.3v.6h-.2Z"/>
    <path d="M92.9,16.4v-1.5h.2v1.5h-.2Z"/>
    <path d="M82.2,18.8v-1.4h.2v1.4h-.2Z"/>
    <path d="M82.6,18.8l.6-.8v.2l-.6-.8h.2l.4.6h0s.4-.6.4-.6h.2l-.5.8h0c0-.1.6.7.6.7h-.2l-.5-.6h0l-.5.6h-.2Z"/>
    <path d="M85,18.8c0,0-.1,0-.2,0,0,0-.1,0-.1-.1,0,0,0-.1,0-.2s0-.1,0-.2c0,0,0,0,.1-.1s.1,0,.3,0h.3c0,.1-.3.1-.3.1,0,0-.2,0-.2,0,0,0,0,0,0,.1s0,0,0,.1c0,0,0,0,.2,0s.1,0,.2,0c0,0,0,0,.1-.1h0c0,.2,0,.2-.1.3,0,0-.1,0-.2,0ZM85.3,18.8v-.2h0v-.4c0,0,0-.1,0-.2s-.1,0-.2,0-.1,0-.2,0c0,0-.1,0-.2,0h0c0-.2.1-.2.2-.2,0,0,.2,0,.2,0,.1,0,.3,0,.3.1,0,0,.1.2.1.3v.6h-.2Z"/>
    <path d="M86.3,18.8l.6-.8v.2l-.6-.8h.2l.4.6h0s.4-.6.4-.6h.2l-.5.8h0c0-.1.6.7.6.7h-.2l-.5-.6h0l-.5.6h-.2Z"/>
  </g>
  <g>
    <path d="M40,5.3c0,0-.2,0-.3,0,0,0-.1,0-.2-.1h0c0,0,.1,0,.2,0,0,0,.2,0,.2,0s.1,0,.2,0c0,0,0,0,.1,0s0,0,0-.1,0,0,0-.1c0,0,0,0-.1,0,0,0,0,0-.1,0,0,0-.1,0-.2,0,0,0-.1,0-.1,0,0,0,0,0-.1,0,0,0,0,0,0-.2s0-.1,0-.2c0,0,0,0,.1-.1,0,0,.2,0,.3,0s.1,0,.2,0c0,0,.1,0,.2,0h0c0,0-.1,0-.2,0,0,0-.1,0-.2,0s-.1,0-.2,0c0,0,0,0-.1,0,0,0,0,0,0,.1s0,0,0,.1c0,0,0,0,.1,0,0,0,0,0,.1,0,0,0,.1,0,.2,0,0,0,.1,0,.1,0s0,0,.1,0c0,0,0,0,0,.2s0,.1,0,.2c0,0,0,0-.2.1,0,0-.2,0-.3,0Z"/>
    <path d="M41.1,5.3c0,0-.2,0-.3,0,0,0-.1,0-.2-.2,0,0,0-.2,0-.2s0-.2,0-.2c0,0,0-.1.2-.2s.1,0,.2,0,.2,0,.2,0c0,0,.1,0,.2.2,0,0,0,.2,0,.2s0,0,0,0c0,0,0,0,0,0h-.8c0,0,.7,0,.7,0h0s0,0,0-.1,0,0-.1-.1-.1,0-.2,0-.1,0-.2,0c0,0,0,0-.1.1,0,0,0,.1,0,.2h0c0,0,0,.2,0,.2,0,0,0,0,.1.1,0,0,.1,0,.2,0s.1,0,.2,0,0,0,.1,0h0c0,.1,0,.2-.2.2,0,0-.1,0-.2,0Z"/>
    <path d="M42.9,4.4c0,0,.1,0,.2,0s0,0,.1.1c0,0,0,.1,0,.2v.5h-.1v-.5c0,0,0-.2,0-.2s-.1,0-.2,0-.1,0-.2,0,0,0-.1.1c0,0,0,.1,0,.2v.5h-.1v-.5c0,0,0-.2,0-.2,0,0-.1,0-.2,0s-.1,0-.2,0c0,0,0,0-.1.1,0,0,0,.1,0,.2v.5h-.1v-.9h.1v.2h0c0-.1,0-.2.1-.2s.1,0,.2,0,.2,0,.2,0c0,0,.1.1.1.2h0c0,0,0-.2.1-.2,0,0,.2,0,.2,0Z"/>
    <path d="M43.7,4.2s0,0,0,0,0,0,0,0,0,0,0,0,0,0,0,0,0,0,0,0,0,0,0,0,0,0,0,0,0,0,0,0ZM43.6,5.3v-.9h.1v.9h-.1Z"/>
    <path d="M44.6,4.4c0,0,.1,0,.2,0s.1,0,.1.1c0,0,0,.1,0,.2v.5h-.1v-.5c0,0,0-.2,0-.2,0,0-.1,0-.2,0s-.1,0-.2,0,0,0-.1.1c0,0,0,.1,0,.2v.5h-.1v-.9h.1v.3h0c0-.1,0-.2.1-.2s.1,0,.2,0Z"/>
    <path d="M45.5,5.3c0,0-.1,0-.2,0,0,0,0,0-.1,0,0,0,0,0,0-.1s0,0,0-.1c0,0,0,0,.1,0,0,0,.1,0,.2,0h.3c0,0-.3,0-.3,0,0,0-.2,0-.2,0s0,0,0,.1,0,0,0,.1c0,0,0,0,.2,0s.1,0,.2,0c0,0,0,0,.1-.1h0c0,.1,0,.2-.1.2,0,0-.1,0-.2,0ZM45.9,5.3v-.2h0v-.4c0,0,0-.1,0-.2,0,0-.1,0-.2,0s-.1,0-.2,0,0,0-.1,0h0c0-.1.1-.2.2-.2,0,0,.1,0,.2,0,.1,0,.2,0,.3,0,0,0,0,.1,0,.3v.6h-.1Z"/>
    <path d="M46.3,5.3v-.9h.1v.3h0c0-.1,0-.2.1-.2,0,0,.1,0,.2,0h0c0,.1,0,.1,0,.1,0,0,0,0,0,0,0,0-.2,0-.2,0,0,0,0,.1,0,.3v.5h-.1Z"/>
    <path d="M47.1,4.2s0,0,0,0,0,0,0,0,0,0,0,0,0,0,0,0,0,0,0,0,0,0,0,0,0,0,0,0,0,0,0,0ZM47,5.3v-.9h.1v.9h-.1Z"/>
    <path d="M47.9,5.3c0,0-.2,0-.2,0,0,0-.1,0-.2-.2,0,0,0-.2,0-.2s0-.2,0-.2c0,0,0-.1.2-.2,0,0,.2,0,.2,0s.2,0,.2,0,.1,0,.2.2c0,0,0,.2,0,.2s0,.2,0,.2c0,0,0,.1-.2.2,0,0-.2,0-.2,0ZM47.9,5.2c0,0,.1,0,.2,0,0,0,0,0,.1-.1,0,0,0-.1,0-.2s0-.1,0-.2c0,0,0,0-.1-.1,0,0-.1,0-.2,0s-.1,0-.2,0c0,0,0,0-.1.1,0,0,0,.1,0,.2s0,.1,0,.2c0,0,0,0,.1.1,0,0,.1,0,.2,0Z"/>
    <path d="M49.4,5.3c0,0-.2,0-.2,0,0,0-.1,0-.2-.2,0,0,0-.2,0-.2s0-.2,0-.2c0,0,0-.1.2-.2,0,0,.1,0,.2,0s.2,0,.2,0c0,0,.1,0,.2.2s0,.2,0,.3,0,.2,0,.3,0,.1-.2.2c0,0-.1,0-.2,0ZM49.4,5.2c0,0,.1,0,.2,0,0,0,0,0,.1-.1,0,0,0-.1,0-.2s0-.1,0-.2c0,0,0,0-.1-.1,0,0-.1,0-.2,0s-.1,0-.2,0c0,0,0,0-.1.1,0,0,0,.1,0,.2s0,.1,0,.2c0,0,0,0,.1.1,0,0,.1,0,.2,0ZM49.8,5.3v-.5s0-.2,0-.2v-.7h.1v1.3h-.1Z"/>
    <path d="M50.7,5.3c0,0-.2,0-.3,0,0,0-.1,0-.2-.2,0,0,0-.2,0-.2s0-.2,0-.2c0,0,0-.1.2-.2s.1,0,.2,0,.2,0,.2,0c0,0,.1,0,.2.2,0,0,0,.2,0,.2s0,0,0,0c0,0,0,0,0,0h-.8c0,0,.7,0,.7,0h0s0,0,0-.1,0,0-.1-.1-.1,0-.2,0-.1,0-.2,0c0,0,0,0-.1.1,0,0,0,.1,0,.2h0c0,0,0,.2,0,.2,0,0,0,0,.1.1,0,0,.1,0,.2,0s.1,0,.2,0,0,0,.1,0h0c0,.1,0,.2-.2.2,0,0-.1,0-.2,0Z"/>
    <path d="M51.8,5.3v-1.2h.1v1.1h.7c0,.1-.8.1-.8.1Z"/>
    <path d="M52.9,4.2s0,0,0,0,0,0,0,0,0,0,0,0,0,0,0,0,0,0,0,0,0,0,0,0,0,0,0,0c0,0,0,0,0,0ZM52.8,5.3v-.9h.1v.9h-.1Z"/>
    <path d="M53.7,5.3c0,0-.2,0-.2,0,0,0-.1,0-.2-.2,0,0,0-.2,0-.2s0-.2,0-.2c0,0,0-.1.2-.2,0,0,.2,0,.2,0s.2,0,.2,0c0,0,.1,0,.1.1h0s0,0-.1,0,0,0-.2,0-.1,0-.2,0c0,0,0,0-.1.1,0,0,0,.1,0,.2s0,.1,0,.2c0,0,0,0,.1.1,0,0,.1,0,.2,0s.1,0,.2,0,0,0,.1-.1h0c0,.1,0,.2-.1.2,0,0-.1,0-.2,0Z"/>
    <path d="M54.7,5.3c0,0-.2,0-.3,0,0,0-.1,0-.2-.2,0,0,0-.2,0-.2s0-.2,0-.2c0,0,0-.1.2-.2,0,0,.1,0,.2,0s.2,0,.2,0c0,0,.1,0,.2.2s0,.2,0,.2h0s0,0,0,0h-.8c0,0,.7,0,.7,0h0s0,0,0-.1c0,0,0,0-.1-.1,0,0-.1,0-.2,0s-.1,0-.2,0,0,0-.1.1c0,0,0,.1,0,.2h0c0,0,0,.2,0,.2,0,0,0,0,.1.1,0,0,.1,0,.2,0s.1,0,.2,0,0,0,.1,0h0c0,.1,0,.2-.2.2s-.1,0-.2,0Z"/>
    <path d="M55.8,4.4c0,0,.1,0,.2,0,0,0,.1,0,.1.1s0,.1,0,.2v.5h-.1v-.5c0,0,0-.2,0-.2,0,0-.1,0-.2,0s-.1,0-.2,0,0,0-.1.1c0,0,0,.1,0,.2v.5h-.1v-.9h.1v.3h0c0-.1,0-.2.1-.2s.1,0,.2,0Z"/>
    <path d="M56.9,5.3c0,0-.2,0-.2,0,0,0-.1,0-.2-.2,0,0,0-.2,0-.2s0-.2,0-.2c0,0,0-.1.2-.2,0,0,.2,0,.2,0s.2,0,.2,0c0,0,.1,0,.1.1h0s0,0-.1,0,0,0-.2,0-.1,0-.2,0c0,0,0,0-.1.1,0,0,0,.1,0,.2s0,.1,0,.2c0,0,0,0,.1.1,0,0,.1,0,.2,0s.1,0,.2,0,0,0,.1-.1h0c0,.1,0,.2-.1.2,0,0-.1,0-.2,0Z"/>
    <path d="M57.6,4.2s0,0,0,0,0,0,0,0,0,0,0,0,0,0,0,0,0,0,0,0,0,0,0,0,0,0,0,0c0,0,0,0,0,0ZM57.5,5.3v-.9h.1v.9h-.1Z"/>
    <path d="M58.3,5.3c0,0-.1,0-.2,0,0,0,0,0-.1,0,0,0,0,0,0-.1s0,0,0-.1c0,0,0,0,.1,0,0,0,.1,0,.2,0h.3c0,0-.3,0-.3,0,0,0-.2,0-.2,0,0,0,0,0,0,.1s0,0,0,.1c0,0,0,0,.2,0s.1,0,.2,0c0,0,0,0,.1-.1h0c0,.1,0,.2-.1.2,0,0-.1,0-.2,0ZM58.6,5.3v-.2h0v-.4c0,0,0-.1,0-.2,0,0-.1,0-.2,0s-.1,0-.2,0c0,0,0,0-.1,0h0c0-.1.1-.2.2-.2,0,0,.1,0,.2,0,.1,0,.2,0,.3,0,0,0,0,.1,0,.3v.6h-.1Z"/>
    <path d="M58.9,4.5h0c0-.1.6-.1.6-.1h0c0,.1-.6.1-.6.1ZM59.4,5.3c0,0-.2,0-.2,0,0,0,0-.1,0-.2v-.9h.1v.9c0,0,0,0,0,.1,0,0,0,0,.1,0s.1,0,.1,0h0c0,.1,0,.1,0,.1,0,0,0,0-.1,0Z"/>
    <path d="M60.2,5.3c0,0-.1,0-.2,0s-.1,0-.1-.1,0-.1,0-.2v-.5h.1v.5c0,0,0,.2,0,.2,0,0,.1,0,.2,0s.1,0,.2,0,0,0,.1-.1c0,0,0-.1,0-.2v-.5h.1v.9h-.1v-.3h0c0,.1,0,.2-.1.2s-.1,0-.2,0Z"/>
    <path d="M61,5.3v-.9h.1v.3h0c0-.1,0-.2.1-.2,0,0,.1,0,.2,0h0c0,.1,0,.1,0,.1,0,0,0,0,0,0,0,0-.2,0-.2,0,0,0,0,.1,0,.3v.5h-.1Z"/>
    <path d="M61.9,5.3c0,0-.1,0-.2,0,0,0,0,0-.1,0,0,0,0,0,0-.1s0,0,0-.1c0,0,0,0,.1,0,0,0,.1,0,.2,0h.3c0,0-.3,0-.3,0,0,0-.2,0-.2,0,0,0,0,0,0,.1s0,0,0,.1c0,0,0,0,.2,0s.1,0,.2,0c0,0,0,0,.1-.1h0c0,.1,0,.2-.1.2,0,0-.1,0-.2,0ZM62.2,5.3v-.2h0v-.4c0,0,0-.1,0-.2,0,0-.1,0-.2,0s-.1,0-.2,0c0,0,0,0-.1,0h0c0-.1.1-.2.2-.2,0,0,.1,0,.2,0,.1,0,.2,0,.3,0,0,0,0,.1,0,.3v.6h-.1Z"/>
    <path d="M63.2,5.3v-1.2h.1v1.2h-.1Z"/>
  </g>
  <g>
    <path d="M72.8,5.7v-1.2h.5c.1,0,.2,0,.3,0,0,0,.1,0,.2.1,0,0,0,.1,0,.2s0,.2,0,.2c0,0,0,.1-.2.1,0,0-.2,0-.3,0h-.4,0c0,0,0,.4,0,.4h-.1ZM72.9,5.2h0c0,0,.4,0,.4,0,.1,0,.2,0,.3,0,0,0,0-.1,0-.2s0-.2,0-.2-.2,0-.3,0h-.4,0c0,0,0,.7,0,.7Z"/>
    <path d="M74,5.7v-.9h.1v.3h0c0-.1,0-.2.1-.2,0,0,.1,0,.2,0h0c0,.1,0,.1,0,.1s0,0,0,0c0,0-.2,0-.2,0,0,0,0,.1,0,.3v.5h-.1Z"/>
    <path d="M75.1,5.7c0,0-.2,0-.2,0,0,0-.1,0-.2-.2s0-.2,0-.2,0-.2,0-.2c0,0,0-.1.2-.2,0,0,.2,0,.2,0s.2,0,.2,0,.1,0,.2.2c0,0,0,.2,0,.2s0,.2,0,.2c0,0,0,.1-.2.2,0,0-.2,0-.2,0ZM75.1,5.6c0,0,.1,0,.2,0,0,0,0,0,.1-.1,0,0,0-.1,0-.2s0-.1,0-.2c0,0,0,0-.1-.1,0,0-.1,0-.2,0s-.1,0-.2,0c0,0,0,0-.1.1,0,0,0,.1,0,.2s0,.1,0,.2,0,0,.1.1c0,0,.1,0,.2,0Z"/>
    <path d="M75.8,6s0,0-.1,0c0,0,0,0-.1,0h0c0,0,0,0,0,0,0,0,0,0,0,0s0,0,.1,0,0,0,0-.1h0c0-.1,0-.2,0-.2l.4-.9h.1l-.5,1c0,0,0,.1,0,.1s0,0-.1,0c0,0,0,0-.1,0ZM76.1,5.7l-.4-1h.1l.4.8h0Z"/>
    <path d="M77.2,5.7c0,0-.2,0-.3,0,0,0-.1,0-.2-.2,0,0,0-.2,0-.2s0-.2,0-.2c0,0,0-.1.2-.2,0,0,.1,0,.2,0s.2,0,.2,0c0,0,.1,0,.2.2,0,0,0,.2,0,.2s0,0,0,0c0,0,0,0,0,0h-.8c0,0,.7,0,.7,0h0s0,0,0-.1c0,0,0,0-.1-.1s-.1,0-.2,0-.1,0-.2,0,0,0-.1.1c0,0,0,.1,0,.2h0c0,0,0,.2,0,.2,0,0,0,0,.1.1,0,0,.1,0,.2,0s.1,0,.2,0,0,0,.1,0h0c0,.1,0,.2-.2.2s-.1,0-.2,0Z"/>
    <path d="M78.2,5.7c0,0-.2,0-.2,0,0,0-.1,0-.2-.2,0,0,0-.2,0-.2s0-.2,0-.2c0,0,0-.1.2-.2,0,0,.2,0,.2,0s.2,0,.2,0c0,0,.1,0,.1.1h0s0,0-.1,0c0,0,0,0-.2,0s-.1,0-.2,0c0,0,0,0-.1.1,0,0,0,.1,0,.2s0,.1,0,.2c0,0,0,0,.1.1,0,0,.1,0,.2,0s.1,0,.2,0c0,0,0,0,.1-.1h0c0,.1,0,.2-.1.2,0,0-.1,0-.2,0Z"/>
    <path d="M78.7,4.8h0c0-.1.6-.1.6-.1h0c0,.1-.6.1-.6.1ZM79.1,5.7c0,0-.2,0-.2,0,0,0,0-.1,0-.2v-.9h.1v.9c0,0,0,0,0,.1,0,0,0,0,.1,0s.1,0,.1,0h0c0,.1,0,.1,0,.1,0,0,0,0-.1,0Z"/>
    <path d="M79.9,5.7c0,0-.2,0-.2,0,0,0-.1,0-.2-.2s0-.2,0-.2,0-.2,0-.2c0,0,0-.1.2-.2,0,0,.2,0,.2,0s.2,0,.2,0,.1,0,.2.2c0,0,0,.2,0,.2s0,.2,0,.2c0,0,0,.1-.2.2,0,0-.2,0-.2,0ZM79.9,5.6c0,0,.1,0,.2,0,0,0,0,0,.1-.1,0,0,0-.1,0-.2s0-.1,0-.2c0,0,0,0-.1-.1,0,0-.1,0-.2,0s-.1,0-.2,0c0,0,0,0-.1.1,0,0,0,.1,0,.2s0,.1,0,.2,0,0,.1.1c0,0,.1,0,.2,0Z"/>
    <path d="M81.5,5.7c0,0-.2,0-.2,0,0,0-.1,0-.2-.2,0,0,0-.2,0-.2s0-.2,0-.2c0,0,0-.1.2-.2,0,0,.1,0,.2,0s.2,0,.2,0c0,0,.1,0,.2.2s0,.2,0,.3,0,.2,0,.3c0,0,0,.1-.2.2,0,0-.1,0-.2,0ZM81.5,5.6c0,0,.1,0,.2,0,0,0,0,0,.1-.1,0,0,0-.1,0-.2s0-.1,0-.2c0,0,0,0-.1-.1,0,0-.1,0-.2,0s-.1,0-.2,0c0,0,0,0-.1.1,0,0,0,.1,0,.2s0,.1,0,.2,0,0,.1.1c0,0,.1,0,.2,0ZM81.8,5.7v-.5s0-.2,0-.2v-.7h.1v1.3h-.1Z"/>
    <path d="M82.7,5.7c0,0-.2,0-.3,0,0,0-.1,0-.2-.2,0,0,0-.2,0-.2s0-.2,0-.2c0,0,0-.1.2-.2,0,0,.1,0,.2,0s.2,0,.2,0c0,0,.1,0,.2.2,0,0,0,.2,0,.2s0,0,0,0c0,0,0,0,0,0h-.8c0,0,.7,0,.7,0h0s0,0,0-.1c0,0,0,0-.1-.1s-.1,0-.2,0-.1,0-.2,0,0,0-.1.1c0,0,0,.1,0,.2h0c0,0,0,.2,0,.2,0,0,0,0,.1.1,0,0,.1,0,.2,0s.1,0,.2,0,0,0,.1,0h0c0,.1,0,.2-.2.2s-.1,0-.2,0Z"/>
    <path d="M83.7,4.8h0c0-.1.6-.1.6-.1h0c0,.1-.6.1-.6.1ZM84.1,5.7c0,0-.2,0-.2,0,0,0,0-.1,0-.2v-.9h.1v.9c0,0,0,0,0,.1,0,0,0,0,.1,0s.1,0,.1,0h0c0,.1,0,.1,0,.1,0,0,0,0-.1,0Z"/>
    <path d="M84.5,4.6l.2-.2h.2l-.3.2h-.1ZM84.6,5.7v-.9h.1v.9h-.1Z"/>
    <path d="M84.9,4.8h0c0-.1.6-.1.6-.1h0c0,.1-.6.1-.6.1ZM85.3,5.7c0,0-.2,0-.2,0,0,0,0-.1,0-.2v-.9h.1v.9c0,0,0,0,0,.1,0,0,0,0,.1,0s.1,0,.1,0h0c0,.1,0,.1,0,.1,0,0,0,0-.1,0Z"/>
    <path d="M86.1,5.7c0,0-.1,0-.2,0s-.1,0-.1-.1,0-.1,0-.2v-.5h.1v.5c0,0,0,.2,0,.2,0,0,.1,0,.2,0s.1,0,.2,0c0,0,0,0,.1-.1,0,0,0-.1,0-.2v-.5h.1v.9h-.1v-.3h0c0,.1,0,.2-.1.2,0,0-.1,0-.2,0Z"/>
    <path d="M86.9,5.7v-1.3h.1v1.3h-.1Z"/>
    <path d="M87.8,5.7c0,0-.2,0-.2,0,0,0-.1,0-.2-.2s0-.2,0-.2,0-.2,0-.2c0,0,0-.1.2-.2,0,0,.2,0,.2,0s.2,0,.2,0,.1,0,.2.2c0,0,0,.2,0,.2s0,.2,0,.2c0,0,0,.1-.2.2,0,0-.2,0-.2,0ZM87.8,5.6c0,0,.1,0,.2,0,0,0,0,0,.1-.1,0,0,0-.1,0-.2s0-.1,0-.2c0,0,0,0-.1-.1,0,0-.1,0-.2,0s-.1,0-.2,0c0,0,0,0-.1.1,0,0,0,.1,0,.2s0,.1,0,.2,0,0,.1.1c0,0,.1,0,.2,0Z"/>
    <path d="M89,5.7v-1.2h.1v1.2h-.1Z"/>
    <path d="M90,6s0,0-.1,0c0,0,0,0-.1,0h0c0,0,0,0,0,0,0,0,0,0,0,0s0,0,.1,0,0,0,0-.1h0c0-.1,0-.2,0-.2l.4-.9h.1l-.5,1c0,0,0,.1,0,.1s0,0-.1,0c0,0,0,0-.1,0ZM90.2,5.7l-.4-1h.1l.4.8h0Z"/>
    <path d="M91.4,5.7v-1.2h.1v1.2h-.1Z"/>
    <path d="M91.9,5.7v-1.2h.1v1.2h-.1Z"/>
  </g>
  <g>
    <path d="M12.1,5.3c0,0-.2,0-.3,0s-.1,0-.2-.1c0,0-.1-.1-.1-.2,0,0,0-.2,0-.3s0-.2,0-.2c0,0,0-.1.1-.2,0,0,.1-.1.2-.1,0,0,.2,0,.3,0s.2,0,.3,0c0,0,.1,0,.2.1h0c0,0-.1,0-.2,0s-.1,0-.2,0-.1,0-.2,0c0,0-.1,0-.2.1s0,.1-.1.2c0,0,0,.1,0,.2s0,.1,0,.2c0,0,0,.1.1.2s.1,0,.2.1c0,0,.1,0,.2,0s.1,0,.2,0,.1,0,.2-.1h0c0,.1-.1.2-.2.2,0,0-.2,0-.3,0Z"/>
    <path d="M13.2,5.3c0,0-.2,0-.2,0,0,0-.1,0-.2-.2,0,0,0-.2,0-.2s0-.2,0-.2c0,0,0-.1.2-.2,0,0,.2,0,.2,0s.2,0,.2,0,.1,0,.2.2c0,0,0,.2,0,.2s0,.2,0,.2c0,0,0,.1-.2.2,0,0-.2,0-.2,0ZM13.2,5.2c0,0,.1,0,.2,0,0,0,0,0,.1-.1,0,0,0-.1,0-.2s0-.1,0-.2c0,0,0,0-.1-.1,0,0-.1,0-.2,0s-.1,0-.2,0c0,0,0,0-.1.1,0,0,0,.1,0,.2s0,.1,0,.2c0,0,0,0,.1.1,0,0,.1,0,.2,0Z"/>
    <path d="M14.4,4.4c0,0,.1,0,.2,0s.1,0,.1.1c0,0,0,.1,0,.2v.5h-.1v-.5c0,0,0-.2,0-.2,0,0-.1,0-.2,0s-.1,0-.2,0,0,0-.1.1c0,0,0,.1,0,.2v.5h-.1v-.9h.1v.3h0c0-.1,0-.2.1-.2s.1,0,.2,0Z"/>
    <path d="M15,4.5h0c0-.1.6-.1.6-.1h0c0,.1-.6.1-.6.1ZM15.2,5.3v-1c0,0,0-.1,0-.2,0,0,.1,0,.2,0s0,0,.1,0,0,0,0,0h0c0,0,0,0,0,0,0,0,0,0,0,0,0,0,0,0-.1,0,0,0,0,0,0,.1h0c0,.1,0,.2,0,.2v.8h-.1ZM15.8,4.2s0,0,0,0,0,0,0,0,0,0,0,0,0,0,0,0,0,0,0,0,0,0,0,0,0,0,0,0c0,0,0,0,0,0ZM15.7,5.3v-.9h.1v.9h-.1Z"/>
    <path d="M16.6,5.3c0,0-.2,0-.2,0,0,0-.1,0-.2-.2,0,0,0-.1,0-.2s0-.2,0-.2c0,0,0-.1.2-.2,0,0,.1,0,.2,0s.2,0,.2,0c0,0,.1,0,.2.2,0,0,0,.1,0,.2s0,.2,0,.2c0,0,0,.1-.2.2,0,0-.1,0-.2,0ZM16.6,5.7c0,0-.2,0-.2,0,0,0-.1,0-.2-.1h0c0,0,0,0,.2,0s.1,0,.2,0c.1,0,.2,0,.3,0,0,0,0-.1,0-.3v-.4s0-.2,0-.2v-.3h.1v.8c0,.2,0,.3-.1.4,0,0-.2.1-.3.1ZM16.6,5.2c0,0,.1,0,.2,0,0,0,0,0,.1-.1,0,0,0-.1,0-.2s0-.1,0-.2c0,0,0,0-.1-.1,0,0-.1,0-.2,0s-.1,0-.2,0c0,0,0,0-.1.1,0,0,0,.1,0,.2s0,.1,0,.2c0,0,0,0,.1.1,0,0,.1,0,.2,0Z"/>
    <path d="M17.8,5.3c0,0-.1,0-.2,0,0,0-.1,0-.1-.1,0,0,0-.1,0-.2v-.5h.1v.5c0,0,0,.2,0,.2,0,0,.1,0,.2,0s.1,0,.2,0c0,0,0,0,.1-.1,0,0,0-.1,0-.2v-.5h.1v.9h-.1v-.3h0c0,.1,0,.2-.1.2s-.1,0-.2,0Z"/>
    <path d="M18.6,5.3v-.9h.1v.3h0c0-.1,0-.2.1-.2,0,0,.1,0,.2,0h0c0,.1,0,.1,0,.1,0,0,0,0,0,0,0,0-.2,0-.2,0,0,0,0,.1,0,.3v.5h-.1Z"/>
    <path d="M19.6,5.3c0,0-.1,0-.2,0,0,0,0,0-.1,0,0,0,0,0,0-.1s0,0,0-.1c0,0,0,0,.1,0,0,0,.1,0,.2,0h.3c0,0-.3,0-.3,0,0,0-.2,0-.2,0s0,0,0,.1,0,0,0,.1c0,0,0,0,.2,0s.1,0,.2,0c0,0,0,0,.1-.1h0c0,.1,0,.2-.1.2,0,0-.1,0-.2,0ZM19.9,5.3v-.2h0v-.4c0,0,0-.1,0-.2,0,0-.1,0-.2,0s-.1,0-.2,0,0,0-.1,0h0c0-.1.1-.2.2-.2,0,0,.1,0,.2,0,.1,0,.2,0,.3,0,0,0,0,.1,0,.3v.6h-.1Z"/>
    <path d="M20.7,5.3c0,0-.2,0-.2,0,0,0-.1,0-.2-.2,0,0,0-.2,0-.2s0-.2,0-.2c0,0,0-.1.2-.2,0,0,.2,0,.2,0s.1,0,.2,0c0,0,.1,0,.1.1h0s0,0-.1,0,0,0-.2,0-.1,0-.2,0c0,0,0,0-.1.1,0,0,0,.1,0,.2s0,.1,0,.2c0,0,0,0,.1.1,0,0,.1,0,.2,0s.1,0,.2,0,0,0,.1-.1h0c0,.1,0,.2-.1.2,0,0-.1,0-.2,0Z"/>
    <path d="M21.4,4.2s0,0,0,0,0,0,0,0,0,0,0,0,0,0,0,0,0,0,0,0,0,0,0,0,0,0,0,0,0,0,0,0ZM21.4,5.3v-.9h.1v.9h-.1Z"/>
    <path d="M22.2,5.3c0,0-.2,0-.2,0,0,0-.1,0-.2-.2,0,0,0-.2,0-.2s0-.2,0-.2c0,0,0-.1.2-.2,0,0,.2,0,.2,0s.2,0,.2,0,.1,0,.2.2c0,0,0,.2,0,.2s0,.2,0,.2c0,0,0,.1-.2.2,0,0-.2,0-.2,0ZM22.2,5.2c0,0,.1,0,.2,0,0,0,0,0,.1-.1,0,0,0-.1,0-.2s0-.1,0-.2c0,0,0,0-.1-.1,0,0-.1,0-.2,0s-.1,0-.2,0c0,0,0,0-.1.1,0,0,0,.1,0,.2s0,.1,0,.2c0,0,0,0,.1.1,0,0,.1,0,.2,0ZM22.1,4.2l.2-.2h.2l-.3.2h-.1Z"/>
    <path d="M23.4,4.4c0,0,.1,0,.2,0s.1,0,.1.1c0,0,0,.1,0,.2v.5h-.1v-.5c0,0,0-.2,0-.2,0,0-.1,0-.2,0s-.1,0-.2,0,0,0-.1.1c0,0,0,.1,0,.2v.5h-.1v-.9h.1v.3h0c0-.1,0-.2.1-.2s.1,0,.2,0Z"/>
    <path d="M25,5.3l-.5-1.2h.1l.5,1.2h0l.5-1.2h.1l-.5,1.2h-.1Z"/>
    <path d="M25.9,4.2s0,0,0,0,0,0,0,0,0,0,0,0,0,0,0,0,0,0,0,0,0,0,0,0,0,0,0,0,0,0,0,0ZM25.8,5.3v-.9h.1v.9h-.1Z"/>
    <path d="M26.5,5.3c0,0-.1,0-.2,0,0,0-.1,0-.2,0h0c0,0,0,0,.1,0,0,0,.1,0,.2,0s.2,0,.2,0c0,0,0,0,0-.1s0,0,0,0c0,0,0,0,0,0,0,0,0,0-.1,0,0,0,0,0-.1,0,0,0,0,0-.1,0,0,0,0,0,0,0,0,0,0,0,0-.1s0,0,0-.1,0,0,.1,0,.1,0,.2,0,.1,0,.2,0c0,0,.1,0,.1,0h0c0,0,0,0-.1,0,0,0,0,0-.1,0,0,0-.1,0-.2,0s0,0,0,.1,0,0,0,0c0,0,0,0,0,0,0,0,0,0,.1,0,0,0,0,0,.1,0,0,0,0,0,.1,0,0,0,0,0,0,0,0,0,0,0,0,.1s0,.1,0,.1c0,0,0,0-.1,0,0,0-.1,0-.2,0Z"/>
    <path d="M27.5,5.3c0,0-.1,0-.2,0,0,0-.1,0-.1-.1,0,0,0-.1,0-.2v-.5h.1v.5c0,0,0,.2,0,.2,0,0,.1,0,.2,0s.1,0,.2,0c0,0,0,0,.1-.1,0,0,0-.1,0-.2v-.5h.1v.9h-.1v-.3h0c0,.1,0,.2-.1.2s-.1,0-.2,0Z"/>
    <path d="M28.6,5.3c0,0-.1,0-.2,0,0,0,0,0-.1,0,0,0,0,0,0-.1s0,0,0-.1c0,0,0,0,.1,0,0,0,.1,0,.2,0h.3c0,0-.3,0-.3,0,0,0-.2,0-.2,0s0,0,0,.1,0,0,0,.1c0,0,0,0,.2,0s.1,0,.2,0c0,0,0,0,.1-.1h0c0,.1,0,.2-.1.2,0,0-.1,0-.2,0ZM28.9,5.3v-.2h0v-.4c0,0,0-.1,0-.2,0,0-.1,0-.2,0s-.1,0-.2,0,0,0-.1,0h0c0-.1.1-.2.2-.2,0,0,.1,0,.2,0,.1,0,.2,0,.3,0,0,0,0,.1,0,.3v.6h-.1Z"/>
    <path d="M29.4,5.3v-1.3h.1v1.3h-.1Z"/>
    <path d="M30.3,5.3v-1.2h.1v1.2h-.1Z"/>
  </g>
</svg>