<?xml version="1.0" encoding="UTF-8"?>
<svg id="Capa_1" data-name="Capa 1" xmlns="http://www.w3.org/2000/svg" viewBox="0 0 100 30">
  <defs>
    <style>
      .cls-1 {
        font-family: Arial-BoldMT, Arial;
        font-size: 1.5px;
        font-weight: 700;
      }

      .cls-1, .cls-2, .cls-3, .cls-4, .cls-5, .cls-6, .cls-7, .cls-8, .cls-9, .cls-10 {
        isolation: isolate;
      }

      .cls-11, .cls-2 {
        fill: #1f5592;
      }

      .cls-2, .cls-3 {
        opacity: .5;
      }

      .cls-3, .cls-12 {
        fill: #da4f40;
      }

      .cls-5 {
        letter-spacing: -.05em;
      }

      .cls-5, .cls-6, .cls-7, .cls-8, .cls-10 {
        font-family: ArialMT, Arial;
      }

      .cls-5, .cls-7 {
        fill: #fff;
      }

      .cls-5, .cls-7, .cls-8, .cls-10 {
        font-size: 1px;
      }

      .cls-6, .cls-9 {
        font-size: 2px;
      }

      .cls-8 {
        fill: #444;
      }

      .cls-9 {
        font-family: Arial-ItalicMT, Arial;
        font-style: italic;
      }

      .cls-13 {
        fill: none;
        stroke: #1d1d1b;
        stroke-miterlimit: 10;
        stroke-width: .5px;
      }
    </style>
  </defs>
  <g id="Simbología">
    <g>
      <g>
        <rect class="cls-2" x=".05" y="27.98" width="2" height="1.92"/>
        <rect class="cls-11" x=".05" y="29.69" width="2" height=".29"/>
      </g>
      <g class="cls-4">
        <text class="cls-10" transform="translate(2.77 29.35) scale(1.1 1)"><tspan x="0" y="0">Mención visualidad y medios</tspan></text>
      </g>
    </g>
    <g>
      <g>
        <rect class="cls-3" x="19.46" y="28" width="2" height="1.92"/>
        <rect class="cls-12" x="19.46" y="29.71" width="2" height=".29"/>
      </g>
      <g class="cls-4">
        <text class="cls-10" transform="translate(22.18 29.36) scale(1.1 1)"><tspan x="0" y="0">Ambas menciones</tspan></text>
      </g>
    </g>
  </g>
  <g id="Cuadros">
    <g>
      <rect class="cls-3" y="0" width="30.15" height="8.2"/>
      <rect class="cls-12" y="7.45" width="30.15" height="1.5"/>
    </g>
    <g class="cls-4">
      <text class="cls-1" transform="translate(6.23 3.49)"><tspan x="0" y="0">Lenguaje y Significación</tspan></text>
      <text class="cls-8" transform="translate(9.74 4.99)"><tspan x="0" y="0">(Primer semestre-2025)</tspan></text>
    </g>
    <g class="cls-4">
      <text class="cls-7" transform="translate(12.24 8.56)"><tspan x="0" y="0">(AUD10003)</tspan></text>
    </g>
    <g>
      <rect class="cls-3" y="9.83" width="30.15" height="8.2"/>
      <rect class="cls-12" y="17.27" width="30.15" height="1.5"/>
    </g>
    <g class="cls-4">
      <text class="cls-1" transform="translate(5.06 13.3)"><tspan x="0" y="0">Diseño, Estética y Sociedad</tspan></text>
      <text class="cls-8" transform="translate(9.21 14.8)"><tspan x="0" y="0">(Segundo semestre-2024)</tspan></text>
    </g>
    <g class="cls-4">
      <text class="cls-7" transform="translate(12.24 18.37)"><tspan x="0" y="0">(AUD30002)</tspan></text>
    </g>
    <g>
      <rect class="cls-2" x="34.93" y="9.79" width="30.15" height="8.24"/>
      <rect class="cls-11" x="34.93" y="17.24" width="30.15" height="1.49"/>
    </g>
    <g class="cls-4">
      <text class="cls-1" transform="translate(38.99 13.29)"><tspan x="0" y="0">Seminario de Licenciatura I y II</tspan></text>
      <text class="cls-8" transform="translate(38.71 14.79)"><tspan x="0" y="0">(Segundo semestre-2024 y Primer semestre-2025)</tspan></text>
    </g>
    <g class="cls-4">
      <text class="cls-7" transform="translate(44.28 18.36)"><tspan x="0" y="0">(AUD7V002 |</tspan></text>
      <text class="cls-5" transform="translate(50.16 18.36)"><tspan x="0" y="0"> </tspan></text>
      <text class="cls-7" transform="translate(50.38 18.36)"><tspan x="0" y="0">AUD8V001)</tspan></text>
    </g>
    <g>
      <rect class="cls-2" x="69.85" y="9.78" width="30.15" height="8.24"/>
      <rect class="cls-11" x="69.85" y="17.23" width="30.15" height="1.49"/>
    </g>
    <g class="cls-4">
      <text class="cls-1" transform="translate(76.72 13.28)"><tspan x="0" y="0">Proyecto de Título I y II</tspan></text>
      <text class="cls-8" transform="translate(73.65 14.78)"><tspan x="0" y="0">(Segundo semestre-2024 y Primer semestre-2025)</tspan></text>
    </g>
    <g class="cls-4">
      <text class="cls-7" transform="translate(79.21 18.35)"><tspan x="0" y="0">(AUD9V001 |</tspan></text>
      <text class="cls-5" transform="translate(85.08 18.35)"><tspan x="0" y="0"> </tspan></text>
      <text class="cls-7" transform="translate(85.31 18.35)"><tspan x="0" y="0">AUD10V01)</tspan></text>
    </g>
  </g>
  <g id="Línea">
    <g>
      <line class="cls-13" x1="15.07" y1="21.61" x2="15.07" y2="18.81"/>
      <line class="cls-13" y1="18.94" x2="100" y2="18.94"/>
      <line class="cls-13" x1="50" y1="21.73" x2="50" y2="18.94"/>
      <line class="cls-13" x1="84.93" y1="21.73" x2="84.93" y2="18.94"/>
    </g>
    <g class="cls-4">
      <text class="cls-6" transform="translate(10.28 23.8)"><tspan x="0" y="0">Ciclo básico</tspan></text>
      <text class="cls-9" transform="translate(8.78 25.8)"><tspan x="0" y="0">Semestre I a IV</tspan></text>
    </g>
    <g class="cls-4">
      <text class="cls-6" transform="translate(41.33 23.84)"><tspan x="0" y="0">Ciclo Especializado</tspan></text>
      <text class="cls-9" transform="translate(42.16 25.84)"><tspan x="0" y="0">Semestre V a VIII</tspan></text>
    </g>
    <g class="cls-4">
      <text class="cls-6" transform="translate(77.42 23.83)"><tspan x="0" y="0">Ciclo Profesional</tspan></text>
      <text class="cls-9" transform="translate(77.64 25.83)"><tspan x="0" y="0">Semestre IX a X</tspan></text>
    </g>
  </g>
</svg>