<?xml version="1.0" encoding="UTF-8"?>
<svg xmlns="http://www.w3.org/2000/svg" viewBox="0 0 100 31">
  <defs>
    <style>
      .cls-1, .cls-2, .cls-3, .cls-4 {
        font-family: ArialMT, Arial;
      }

      .cls-2, .cls-3, .cls-4 {
        font-size: 1px;
      }

      .cls-5 {
        font-family: Arial-BoldMT, Arial;
        font-size: 1.5px;
        font-weight: 700;
      }

      .cls-6 {
        font-size: 2px;
      }

      .cls-7 {
        fill: #ff5432;
      }

      .cls-7, .cls-8 {
        stroke: #1d1d1b;
        stroke-miterlimit: 10;
        stroke-width: .5px;
      }

      .cls-9 {
        letter-spacing: -.05em;
      }

      .cls-10 {
        font-family: Arial-ItalicMT, Arial;
        font-style: italic;
      }

      .cls-11 {
        letter-spacing: 0em;
      }

      .cls-12, .cls-13 {
        opacity: .5;
      }

      .cls-12, .cls-13, .cls-14, .cls-15 {
        stroke-width: 0px;
      }

      .cls-12, .cls-15 {
        fill: #da4f40;
      }

      .cls-13, .cls-14 {
        fill: #1f5592;
      }

      .cls-3 {
        fill: #444;
      }

      .cls-4 {
        fill: #1d1d1b;
      }

      .cls-8 {
        fill: none;
      }
    </style>
  </defs>
  <g id="Simbología">
    <g>
      <g>
        <rect class="cls-13" x=".05" y="28.99" width="2" height="1.92"/>
        <rect class="cls-14" x=".05" y="30.7" width="2" height=".29"/>
      </g>
      <text class="cls-2" transform="translate(2.77 30.36) scale(1.1 1)"><tspan x="0" y="0">Mención visualidad y medios</tspan></text>
    </g>
    <g>
      <g>
        <rect class="cls-12" x="19.46" y="29.01" width="2" height="1.92"/>
        <rect class="cls-15" x="19.46" y="30.72" width="2" height=".29"/>
      </g>
      <text class="cls-2" transform="translate(22.18 30.37) scale(1.1 1)"><tspan x="0" y="0">Ambas menciones</tspan></text>
    </g>
  </g>
  <g id="Cuadros">
    <g>
      <rect class="cls-12" x="0" y=".79" width="30.15" height="8.2"/>
      <rect class="cls-15" x="0" y="8.23" width="30.15" height="1.5"/>
    </g>
    <text transform="translate(6.23 4.27)"><tspan class="cls-5"><tspan x="0" y="0">Lenguaje y Significación</tspan></tspan><tspan class="cls-3"><tspan x="3.51" y="1.5">(Primer semestre-2025)</tspan></tspan></text>
    <text class="cls-4" transform="translate(12.24 9.34)"><tspan x="0" y="0">(AUD10003)</tspan></text>
    <g>
      <rect class="cls-12" x="0" y="10.61" width="30.15" height="8.2"/>
      <rect class="cls-15" x="0" y="18.05" width="30.15" height="1.5"/>
    </g>
    <text transform="translate(5.06 14.08)"><tspan class="cls-5"><tspan x="0" y="0">Diseño, Estética y Sociedad</tspan></tspan><tspan class="cls-3"><tspan x="4.15" y="1.5">(Segundo semestre-2024)</tspan></tspan></text>
    <text class="cls-4" transform="translate(12.24 19.15)"><tspan x="0" y="0">(AUD30002)</tspan></text>
    <g>
      <rect class="cls-13" x="34.93" y="10.57" width="30.15" height="8.24"/>
      <rect class="cls-14" x="34.93" y="18.02" width="30.15" height="1.49"/>
    </g>
    <text transform="translate(38.99 14.07)"><tspan class="cls-5"><tspan x="0" y="0">Seminario de Licenciatura I y II</tspan></tspan><tspan class="cls-3"><tspan x="-.28" y="1.5">(Segundo semestre-2024 y Primer semestre-2025)</tspan></tspan></text>
    <text class="cls-4" transform="translate(44.28 19.14)"><tspan x="0" y="0">(AUD7V002 |</tspan><tspan class="cls-9" x="5.88" y="0"> </tspan><tspan class="cls-11" x="6.1" y="0">AUD8V001)</tspan></text>
    <g>
      <rect class="cls-13" x="69.85" y="10.56" width="30.15" height="8.24"/>
      <rect class="cls-14" x="69.85" y="18.01" width="30.15" height="1.49"/>
    </g>
    <text transform="translate(76.72 14.06)"><tspan class="cls-5"><tspan x="0" y="0">Proyecto de Título I y II</tspan></tspan><tspan class="cls-3"><tspan x="-3.07" y="1.5">(Segundo semestre-2024 y Primer semestre-2025)</tspan></tspan></text>
    <text class="cls-4" transform="translate(79.21 19.13)"><tspan x="0" y="0">(AUD9V001 |</tspan><tspan class="cls-9" x="5.87" y="0"> </tspan><tspan class="cls-11" x="6.1" y="0">AUD10V01)</tspan></text>
  </g>
  <g id="Línea">
    <g>
      <line class="cls-8" x1="15.07" y1="22.39" x2="15.07" y2="19.59"/>
      <line class="cls-7" y1="19.72" x2="100" y2="19.72"/>
      <line class="cls-8" x1="50" y1="22.51" x2="50" y2="19.72"/>
      <line class="cls-8" x1="84.93" y1="22.51" x2="84.93" y2="19.72"/>
    </g>
    <text class="cls-6" transform="translate(10.28 24.58)"><tspan class="cls-1"><tspan x="0" y="0">Ciclo básico</tspan></tspan><tspan class="cls-10"><tspan x="-1.5" y="2">Semestre I a IV</tspan></tspan></text>
    <text class="cls-6" transform="translate(41.33 24.62)"><tspan class="cls-1"><tspan x="0" y="0">Ciclo Especializado</tspan></tspan><tspan class="cls-10"><tspan x=".83" y="2">Semestre V a VIII</tspan></tspan></text>
    <text class="cls-6" transform="translate(77.42 24.61)"><tspan class="cls-1"><tspan x="0" y="0">Ciclo Profesional</tspan></tspan><tspan class="cls-10"><tspan x=".22" y="2">Semestre IX a X</tspan></tspan></text>
  </g>
</svg>