<?xml version="1.0" encoding="utf-8"?>
<!-- Generator: Adobe Illustrator 27.9.3, SVG Export Plug-In . SVG Version: 9.03 Build 53313)  -->
<svg version="1.1" id="Capa_1" xmlns="http://www.w3.org/2000/svg" xmlns:xlink="http://www.w3.org/1999/xlink" x="0px" y="0px"
	 viewBox="0 0 100 32.79" style="enable-background:new 0 0 100 32.79;" xml:space="preserve">
<style type="text/css">
	.st0{fill:#FFD3CC;}
	.st1{fill:#FF5432;}
	.st2{font-family:'Arial-BoldMT';}
	.st3{font-size:1.5px;}
	.st4{fill:#FFE7B6;}
	.st5{fill:#FFA300;}
	.st6{font-family:'ArialMT';}
	.st7{font-size:1px;}
	.st8{fill:#D1CFE8;}
	.st9{fill:#393F95;}
	.st10{fill:none;stroke:#1D1D1B;stroke-width:0.5;stroke-miterlimit:10;}
	.st11{font-size:2px;}
	.st12{font-family:'Arial-ItalicMT';}
</style>
<g>
	<rect x="35.38" y="10.97" class="st0" width="30.15" height="8.59"/>
	<rect x="35.38" y="18.64" class="st1" width="30.15" height="1.28"/>
</g>
<g>
	<rect x="69.85" y="10.93" class="st0" width="30.15" height="8.59"/>
	<rect x="69.85" y="18.6" class="st1" width="30.15" height="1.28"/>
</g>
<text transform="matrix(1 0 0 1 39.4468 15.7967)" class="st2 st3">Seminario de Licenciatura I y II</text>
<text transform="matrix(1 0 0 1 76.72 15.7606)" class="st2 st3">Proyecto de Título I y II</text>
<g>
	<rect x="21.33" y="29.44" class="st4" width="2" height="1.92"/>
	<rect x="21.33" y="31.15" class="st5" width="2" height="0.29"/>
</g>
<text transform="matrix(1.1 0 0 1 24.0103 30.8205)" class="st6 st7">Mención industrial y servicios</text>
<g>
	<g>
		<rect x="40.8" y="29.39" class="st8" width="2" height="1.92"/>
		<rect x="40.8" y="31.1" class="st9" width="2" height="0.29"/>
	</g>
	<text transform="matrix(1.1 0 0 1 43.5205 30.8107)" class="st6 st7">Mención visualidad y medios</text>
</g>
<g>
	<g>
		<rect x="60.12" y="29.49" class="st0" width="2" height="1.92"/>
		<rect x="60.12" y="31.21" class="st1" width="2" height="0.29"/>
	</g>
	<text transform="matrix(1.1 0 0 1 62.8403 30.8004)" class="st6 st7">Ambas menciones</text>
</g>
<g>
	<text transform="matrix(1.1 0 0 1 11.2705 30.8205)" class="st6 st7">Electivo troncal</text>
	<text transform="matrix(1 0 0 1 8.64 31.0106)" class="st2 st3">E</text>
	<text transform="matrix(1 0 0 1 9.64 31.0106)" class="st2 st3">T</text>
	<text transform="matrix(1 0 0 1 10.39 31.0106)" class="st2 st3">.</text>
</g>
<g>
	<text transform="matrix(1.1 0 0 1 2.3306 30.8205)" class="st6 st7">Electivo</text>
	<text transform="matrix(1 0 0 1 -0.01 31.0106)" class="st2 st3">E.</text>
</g>
<g>
	<rect x="-0.01" y="10.97" class="st0" width="30.15" height="8.59"/>
	<rect x="-0.01" y="18.65" class="st1" width="30.15" height="1.28"/>
</g>
<text transform="matrix(1 0 0 1 6.3594 15.7966)" class="st2 st3">Lenguaje y significación</text>
<g id="Línea">
	<g>
		<line class="st10" x1="15.07" y1="22.55" x2="15.07" y2="19.75"/>
		<line class="st10" x1="0" y1="19.88" x2="100" y2="19.88"/>
		<line class="st10" x1="50" y1="22.68" x2="50" y2="19.88"/>
		<line class="st10" x1="84.93" y1="22.68" x2="84.93" y2="19.88"/>
	</g>
	<text transform="matrix(1 0 0 1 10.28 25.1006)" class="st6 st11">Ciclo básico</text>
	<text transform="matrix(1 0 0 1 13.34 27.1006)" class="st12 st11">I a IV</text>
	<text transform="matrix(1 0 0 1 41.37 25.0106)" class="st6 st11">Ciclo Especializado</text>
	<text transform="matrix(1 0 0 1 46.76 27.0106)" class="st12 st11">V a VIII</text>
	<text transform="matrix(1 0 0 1 77.53 25.0006)" class="st6 st11">Ciclo profesional</text>
	<text transform="matrix(1 0 0 1 82.2 27.0006)" class="st12 st11">IX a X</text>
</g>
<g>
	<rect x="-0.01" y="1.19" class="st0" width="30.15" height="8.59"/>
	<rect x="-0.01" y="8.87" class="st1" width="30.15" height="1.28"/>
</g>
<text transform="matrix(1 0 0 1 5.2741 6.0193)" class="st2 st3">Diseño, estética y sociedad</text>
</svg>
