<?xml version="1.0" encoding="utf-8"?>
<!-- Generator: Adobe Illustrator 28.1.0, SVG Export Plug-In . SVG Version: 6.00 Build 0)  -->
<svg version="1.1" id="Layer_1" xmlns="http://www.w3.org/2000/svg" xmlns:xlink="http://www.w3.org/1999/xlink" x="0px" y="0px"
	 viewBox="0 0 100 25" style="enable-background:new 0 0 100 25;" xml:space="preserve">
<style type="text/css">
	.st0{fill:none;stroke:#000000;stroke-width:0.5;stroke-miterlimit:10;}
	.st1{fill:none;stroke:#000000;stroke-miterlimit:10;}
	.st2{fill:#FCCBBA;}
	.st3{fill:#FE5420;}
	.st4{fill:none;}
	.st5{font-family:'Arial-BoldMT';}
	.st6{font-size:1.5px;}
	.st7{font-family:'ArialMT';}
	.st8{font-size:1.3px;}
	.st9{fill:#DBCCFF;}
	.st10{fill:#4725A5;}
	.st11{font-family:'ArialNarrow';}
</style>
<g>
	<line class="st0" x1="4.01" y1="18.3" x2="95.99" y2="18.3"/>
	<line class="st1" x1="22.14" y1="19.72" x2="22.14" y2="18.3"/>
	<line class="st1" x1="50" y1="19.72" x2="50" y2="18.3"/>
	<line class="st1" x1="77.86" y1="19.72" x2="77.86" y2="18.3"/>
</g>
<rect x="11.7" y="13.55" class="st2" width="21" height="4.5"/>
<rect x="11.7" y="17.25" class="st3" width="21" height="0.8"/>
<rect x="13.33" y="19.65" class="st4" width="17.75" height="4.75"/>
<text transform="matrix(1 0 0 1 18.0818 21.3687)" class="st5 st6">Ciclo Básico</text>
<text transform="matrix(1 0 0 1 20.3224 23.2003)" class="st5 st6">I a IV</text>
<rect x="38.69" y="19.65" class="st4" width="22.75" height="4.75"/>
<text transform="matrix(1 0 0 1 43.5469 21.3687)" class="st5 st6">Ciclo Especializado</text>
<text transform="matrix(1 0 0 1 47.6472 23.217)" class="st5 st6">V a VIII</text>
<rect x="69.17" y="19.65" class="st4" width="17.5" height="4.75"/>
<text transform="matrix(1 0 0 1 71.7517 21.3687)" class="st5 st6">Ciclo Profesional</text>
<text transform="matrix(1 0 0 1 75.7985 23.2005)" class="st5 st6">IX a X</text>
<rect x="67.42" y="13.55" class="st2" width="21" height="4.5"/>
<rect x="67.42" y="17.25" class="st3" width="21" height="0.8"/>
<rect x="67.42" y="8.3" class="st2" width="21" height="4.5"/>
<rect x="67.42" y="12" class="st3" width="21" height="0.8"/>
<text transform="matrix(1 0 0 1 15.3416 15.1722)" class="st7 st8">Procesos y Prototipos II</text>
<rect x="70.8" y="8.75" class="st4" width="14.25" height="2.5"/>
<text transform="matrix(1 0 0 1 72.1037 9.8654)" class="st7 st8">Proyecto de Título II</text>
<rect x="70.8" y="14.07" class="st4" width="14.25" height="2.5"/>
<text transform="matrix(1 0 0 1 72.2839 15.1865)" class="st7 st8">Proyecto de Título I</text>
<rect x="39.53" y="3.05" class="st9" width="20.94" height="4.5"/>
<rect x="39.53" y="6.72" class="st10" width="20.94" height="0.8"/>
<rect x="39.53" y="13.55" class="st2" width="20.94" height="4.5"/>
<rect x="39.53" y="17.25" class="st3" width="20.94" height="0.8"/>
<rect x="39.53" y="8.3" class="st2" width="20.94" height="4.5"/>
<rect x="39.53" y="12.06" class="st3" width="20.94" height="0.8"/>
<rect x="45.12" y="13.97" class="st4" width="9.75" height="2.5"/>
<text transform="matrix(1 0 0 1 46.4595 15.0916)" class="st7 st8">Proyecto VII</text>
<text transform="matrix(1 0 0 1 41.0761 10.0253)" class="st7 st8">Seminario de Licenciatura I y II</text>
<rect x="42" y="3.4" class="st4" width="16" height="1.9"/>
<text transform="matrix(1 0 0 1 42.9918 4.5155)" class="st7 st8">Electivo Troncal de I y S</text>
<rect x="42.94" y="10.55" class="st4" width="14.25" height="1.92"/>
<text transform="matrix(1 0 0 1 44.7869 11.6658)" class="st11 st8">AUD7002 - AUD8I001</text>
<rect x="46.56" y="5.2" class="st4" width="7" height="1.92"/>
<text transform="matrix(1 0 0 1 47.4968 6.3241)" class="st11 st8">AUD6I016</text>
<rect x="46.56" y="15.8" class="st4" width="7" height="1.92"/>
<text transform="matrix(1 0 0 1 47.4985 16.9158)" class="st11 st8">AUD7I020</text>
<rect x="18.7" y="15.89" class="st4" width="7" height="1.92"/>
<text transform="matrix(1 0 0 1 19.4759 16.9828)" class="st11 st8">AUD40005</text>
<rect x="74.42" y="15.61" class="st4" width="7" height="1.92"/>
<text transform="matrix(1 0 0 1 75.3553 16.7292)" class="st11 st8">AUD9I001</text>
<rect x="74.42" y="10.29" class="st4" width="7" height="1.92"/>
<text transform="matrix(1 0 0 1 75.3568 11.4483)" class="st11 st8">AUD10I01</text>
</svg>
