<?xml version="1.0" encoding="UTF-8"?>
<svg id="Capa_1" data-name="Capa 1" xmlns="http://www.w3.org/2000/svg" viewBox="0 0 100 50">
  <defs>
    <style>
      .cls-1 {
        font-family: Arial-BoldMT, Arial;
        font-size: 1.5px;
        font-weight: 700;
      }

      .cls-1, .cls-2, .cls-3, .cls-4, .cls-5, .cls-6, .cls-7, .cls-8, .cls-9, .cls-10 {
        isolation: isolate;
      }

      .cls-2, .cls-9 {
        opacity: .5;
      }

      .cls-2, .cls-11 {
        fill: #da4f40;
      }

      .cls-4, .cls-5, .cls-6, .cls-8, .cls-10 {
        font-family: ArialMT, Arial;
      }

      .cls-4, .cls-7 {
        font-size: 2px;
      }

      .cls-5 {
        fill: #fff;
      }

      .cls-5, .cls-6, .cls-8, .cls-10 {
        font-size: 1px;
      }

      .cls-12 {
        letter-spacing: -.11em;
      }

      .cls-6 {
        fill: #444;
      }

      .cls-7 {
        font-family: Arial-ItalicMT, Arial;
        font-style: italic;
      }

      .cls-8 {
        fill: #1d1d1b;
      }

      .cls-9, .cls-13 {
        fill: #f7ce65;
      }

      .cls-14 {
        fill: none;
        stroke: #1d1d1b;
        stroke-miterlimit: 10;
        stroke-width: .5px;
      }

      .cls-15 {
        letter-spacing: 0em;
      }
    </style>
  </defs>
  <g id="Cuadros">
    <g>
      <rect class="cls-9" x="69.84" y="29.54" width="30.15" height="8.25"/>
      <rect class="cls-13" x="69.84" y="36.99" width="30.15" height="1.49"/>
    </g>
    <g>
      <rect class="cls-9" x="34.93" y="29.55" width="30.15" height="8.24"/>
      <rect class="cls-13" x="34.93" y="37" width="30.15" height="1.49"/>
    </g>
    <g>
      <rect class="cls-9" x="34.92" y="19.76" width="30.15" height="8.2"/>
      <rect class="cls-13" x="34.92" y="27.2" width="30.15" height="1.5"/>
    </g>
    <g class="cls-3">
      <text class="cls-1" transform="translate(45.66 23.27)"><tspan x="0" y="0">Proyecto VII</tspan></text>
      <text class="cls-6" transform="translate(44.7 24.77)"><tspan x="0" y="0">(Primer semestre-2025)</tspan></text>
    </g>
    <g class="cls-3">
      <text class="cls-1" transform="translate(39 33.05)"><tspan x="0" y="0">Seminario de Licenciatura I y II</tspan></text>
      <text class="cls-6" transform="translate(38.72 34.55)"><tspan x="0" y="0">(Primer semestre-2025 y Segundo semestre-2024)</tspan></text>
    </g>
    <g class="cls-3">
      <text class="cls-1" transform="translate(76.72 33.07)"><tspan x="0" y="0">Proyecto de Título I y II</tspan></text>
      <text class="cls-6" transform="translate(79.64 34.57)"><tspan x="0" y="0">(Primer semestre-2025)</tspan></text>
    </g>
    <g class="cls-3">
      <text class="cls-8" transform="translate(47.54 28.26)"><tspan x="0" y="0">(AUD7I001)</tspan></text>
    </g>
    <g>
      <rect class="cls-2" x="-.03" y="29.53" width="30.15" height="8.2"/>
      <rect class="cls-11" x="-.03" y="36.97" width="30.15" height="1.5"/>
    </g>
    <g class="cls-3">
      <text class="cls-1" transform="translate(6.46 33.03)"><tspan x="0" y="0">Procesos y Prototipos II</tspan></text>
      <text class="cls-6" transform="translate(9.25 34.53)"><tspan x="0" y="0">(Segundo semestre-2024)</tspan></text>
    </g>
    <g class="cls-3">
      <text class="cls-5" transform="translate(12.35 38.02)"><tspan x="0" y="0">(AUD40005)</tspan></text>
    </g>
    <g class="cls-3">
      <text class="cls-8" transform="translate(79.68 38.09)"><tspan x="0" y="0">(AUD9I001) | (AUD10I01)</tspan></text>
    </g>
    <g class="cls-3">
      <text class="cls-8" transform="translate(44.59 38.02)"><tspan x="0" y="0">(AUD7I002) | (AUD8I001)</tspan></text>
    </g>
    <g>
      <rect class="cls-9" x="34.92" y="9.97" width="30.15" height="8.2"/>
      <rect class="cls-13" x="34.92" y="17.41" width="30.15" height="1.5"/>
    </g>
    <g>
      <rect class="cls-9" x="34.93" y=".19" width="30.15" height="8.2"/>
      <rect class="cls-13" x="34.93" y="7.63" width="30.15" height="1.5"/>
    </g>
    <g class="cls-3">
      <text class="cls-1" transform="translate(40.16 12.47)"><tspan x="0" y="0">E</tspan><tspan class="cls-12" x="1" y="0">T</tspan><tspan class="cls-15" x="1.75" y="0">. Materiales, tecnologías y </tspan></text>
      <text class="cls-1" transform="translate(41.74 14.47)"><tspan x="0" y="0">Procesos de fabricación</tspan></text>
      <text class="cls-6" transform="translate(45.12 15.97)"><tspan x="0" y="0">(Primer semestre-2025)</tspan></text>
    </g>
    <g class="cls-3">
      <text class="cls-8" transform="translate(47.93 18.46)"><tspan x="0" y="0">(AUD6I016)</tspan></text>
    </g>
    <g class="cls-3">
      <text class="cls-1" transform="translate(40.35 1.69)"><tspan x="0" y="0">E. Principios de estructuras, </tspan></text>
      <text class="cls-1" transform="translate(38.06 3.69)"><tspan x="0" y="0">materiales compuestos y plásticos </tspan></text>
      <text class="cls-1" transform="translate(46.64 5.69)"><tspan x="0" y="0">reforzados</tspan></text>
      <text class="cls-6" transform="translate(44.69 7.19)"><tspan x="0" y="0">(Segundo semestre-2024)</tspan></text>
    </g>
    <g class="cls-3">
      <text class="cls-8" transform="translate(47.92 8.68)"><tspan x="0" y="0">(AUD7I020)</tspan></text>
    </g>
  </g>
  <g id="Línea">
    <g>
      <line class="cls-14" x1="15.07" y1="41.39" x2="15.07" y2="38.59"/>
      <line class="cls-14" y1="38.72" x2="100" y2="38.72"/>
      <line class="cls-14" x1="50" y1="41.52" x2="50" y2="38.72"/>
      <line class="cls-14" x1="84.93" y1="41.52" x2="84.93" y2="38.72"/>
    </g>
    <g class="cls-3">
      <text class="cls-4" transform="translate(10.28 43.58)"><tspan x="0" y="0">Ciclo básico</tspan></text>
      <text class="cls-7" transform="translate(8.78 45.58)"><tspan x="0" y="0">Semestre I a IV</tspan></text>
    </g>
    <g class="cls-3">
      <text class="cls-4" transform="translate(41.33 43.62)"><tspan x="0" y="0">Ciclo Especializado</tspan></text>
      <text class="cls-7" transform="translate(42.16 45.62)"><tspan x="0" y="0">Semestre V a VIII</tspan></text>
    </g>
    <g class="cls-3">
      <text class="cls-4" transform="translate(77.42 43.61)"><tspan x="0" y="0">Ciclo Profesional</tspan></text>
      <text class="cls-7" transform="translate(77.64 45.61)"><tspan x="0" y="0">Semestre IX a X</tspan></text>
    </g>
  </g>
  <g>
    <g id="Simbología">
      <g>
        <rect class="cls-9" x="21.07" y="47.99" width="2" height="1.92"/>
        <rect class="cls-13" x="21.07" y="49.71" width="2" height=".29"/>
      </g>
      <g class="cls-3">
        <text class="cls-10" transform="translate(23.75 49.38) scale(1.1 1)"><tspan x="0" y="0">Mención industrial y servicios</tspan></text>
      </g>
      <g>
        <g class="cls-3">
          <text class="cls-10" transform="translate(11.07 49.38) scale(1.1 1)"><tspan x="0" y="0">Electivo troncal</tspan></text>
        </g>
        <g class="cls-3">
          <text class="cls-1" transform="translate(8.56 49.56)"><tspan x="0" y="0">E</tspan><tspan class="cls-12" x="1" y="0">T</tspan><tspan class="cls-15" x="1.75" y="0">.</tspan></text>
        </g>
      </g>
      <g>
        <g class="cls-3">
          <text class="cls-10" transform="translate(2.24 49.38) scale(1.1 1)"><tspan x="0" y="0">Electivo</tspan></text>
        </g>
        <g class="cls-3">
          <text class="cls-1" transform="translate(-.11 49.56)"><tspan x="0" y="0">E.</tspan></text>
        </g>
      </g>
    </g>
    <g>
      <g>
        <rect class="cls-2" x="40.65" y="48.02" width="2" height="1.92"/>
        <rect class="cls-11" x="40.65" y="49.73" width="2" height=".29"/>
      </g>
      <g class="cls-3">
        <text class="cls-10" transform="translate(43.37 49.38) scale(1.1 1)"><tspan x="0" y="0">Ambas menciones</tspan></text>
      </g>
    </g>
  </g>
</svg>