<?xml version="1.0" encoding="UTF-8"?>
<svg xmlns="http://www.w3.org/2000/svg" version="1.1" viewBox="0 0 100 44.9">
  <!-- Generator: Adobe Illustrator 29.3.1, SVG Export Plug-In . SVG Version: 2.1.0 Build 151)  -->
  <defs>
    <style>
      .st0 {
        font-size: 1px;
      }

      .st0, .st1 {
        font-family: ArialMT, Arial;
      }

      .st2 {
        fill: #393f95;
      }

      .st3, .st4 {
        fill: #ff5432;
      }

      .st3, .st5 {
        stroke: #1d1d1b;
        stroke-miterlimit: 10;
        stroke-width: .5px;
      }

      .st6 {
        fill: #ffa300;
      }

      .st7 {
        fill: #ffe7b6;
      }

      .st8 {
        font-family: Arial-BoldMT, Arial;
        font-size: 1.5px;
        font-weight: 700;
      }

      .st9 {
        font-family: Arial-ItalicMT, Arial;
        font-style: italic;
      }

      .st5 {
        fill: none;
      }

      .st10 {
        font-size: 2px;
      }

      .st11 {
        fill: #d1cfe8;
      }

      .st12 {
        fill: #ffd3cc;
      }
    </style>
  </defs>
  <g id="Cuadros">
    <g>
      <rect class="st12" x="35.4" y="23.1" width="30.1" height="8.6"/>
      <rect class="st4" x="35.4" y="30.7" width="30.1" height="1.3"/>
    </g>
    <g>
      <rect class="st12" x="35.5" y="13.3" width="30.1" height="8.6"/>
      <rect class="st4" x="35.5" y="21" width="30.1" height="1.3"/>
    </g>
    <text class="st8" transform="translate(40.2 27.9)"><tspan x="0" y="0">Seminario de Licenciatura I</tspan></text>
    <text class="st8" transform="translate(45.7 17.9)"><tspan x="0" y="0">Proyecto VII</tspan></text>
    <g>
      <rect class="st7" x="35.5" y="3.5" width="30.1" height="8.6"/>
      <rect class="st6" x="35.5" y="11.2" width="30.1" height="1.3"/>
    </g>
    <text class="st8" transform="translate(40.4 7.4)"><tspan x="0" y="0">ET. Materiales, tecnologías y</tspan><tspan x="1.6" y="1.8">Procesos de fabricación</tspan><tspan x="10" y="3.6"> </tspan></text>
    <g>
      <rect class="st12" x="69.9" y="22.8" width="30.1" height="8.6"/>
      <rect class="st4" x="69.9" y="30.4" width="30.1" height="1.3"/>
    </g>
    <text class="st8" transform="translate(77.2 27.9)"><tspan x="0" y="0">Proyecto de Título I y II</tspan></text>
    <g>
      <g>
        <rect class="st7" x="21.3" y="41.6" width="2" height="1.9"/>
        <rect class="st6" x="21.3" y="43.3" width="2" height=".3"/>
      </g>
      <text class="st0" transform="translate(24 43) scale(1.1 1)"><tspan x="0" y="0">Mención industrial y servicios</tspan></text>
    </g>
    <g>
      <g>
        <rect class="st11" x="40.8" y="41.5" width="2" height="1.9"/>
        <rect class="st2" x="40.8" y="43.2" width="2" height=".3"/>
      </g>
      <text class="st0" transform="translate(43.5 42.9) scale(1.1 1)"><tspan x="0" y="0">Mención visualidad y medios</tspan></text>
    </g>
    <g>
      <g>
        <rect class="st12" x="60.1" y="41.6" width="2" height="1.9"/>
        <rect class="st4" x="60.1" y="43.3" width="2" height=".3"/>
      </g>
      <text class="st0" transform="translate(62.8 42.9) scale(1.1 1)"><tspan x="0" y="0">Ambas menciones</tspan></text>
    </g>
    <g>
      <text class="st0" transform="translate(11.3 43) scale(1.1 1)"><tspan x="0" y="0">Electivo troncal</tspan></text>
      <text class="st8" transform="translate(8.8 43.1)"><tspan x="0" y="0">ET</tspan></text>
    </g>
    <g>
      <text class="st0" transform="translate(2.3 43) scale(1.1 1)"><tspan x="0" y="0">Electivo</tspan></text>
      <text class="st8" transform="translate(0 43.1)"><tspan x="0" y="0">E.</tspan></text>
    </g>
  </g>
  <g id="Línea">
    <g>
      <line class="st5" x1="15.1" y1="34.7" x2="15.1" y2="31.9"/>
      <line class="st3" y1="32" x2="100" y2="32"/>
      <line class="st5" x1="50" y1="34.8" x2="50" y2="32"/>
      <line class="st5" x1="84.9" y1="34.8" x2="84.9" y2="32"/>
    </g>
    <text class="st10" transform="translate(10.3 37.2)"><tspan class="st1"><tspan x="0" y="0">Ciclo básico</tspan></tspan><tspan class="st9"><tspan x="3.1" y="2">I a IV</tspan></tspan></text>
    <text class="st10" transform="translate(41.4 37.1)"><tspan class="st1"><tspan x="0" y="0">Ciclo Especializado</tspan></tspan><tspan class="st9"><tspan x="5.4" y="2">V a VIII</tspan></tspan></text>
    <text class="st10" transform="translate(77.5 37.1)"><tspan class="st1"><tspan x="0" y="0">Ciclo profesional</tspan></tspan><tspan class="st9"><tspan x="4.7" y="2">IX a X</tspan></tspan></text>
  </g>
</svg>