<?xml version="1.0" encoding="utf-8"?>
<!-- Generator: Adobe Illustrator 28.0.0, SVG Export Plug-In . SVG Version: 6.00 Build 0)  -->
<svg version="1.1" id="Capa_1" xmlns="http://www.w3.org/2000/svg" xmlns:xlink="http://www.w3.org/1999/xlink" x="0px" y="0px"
	 viewBox="0 0 100 20" style="enable-background:new 0 0 100 20;" xml:space="preserve">
<style type="text/css">
	.st0{fill:#FFD3CA;}
	.st1{fill:#FF3C00;}
	.st2{fill:#9F9FFF;}
	.st3{fill:#00007F;}
	.st4{fill:none;}
	.st5{font-family:'Arial-BoldMT';}
	.st6{font-size:1.4887px;}
	.st7{fill:#CACAFF;}
	.st8{font-family:'ArialMT';}
	.st9{font-size:1.3136px;}
	.st10{font-size:0.7px;}
	.st11{font-size:1.1px;}
</style>
<rect x="6.2" y="16.3" class="st4" width="13.4" height="3.3"/>
<text transform="matrix(1 0 0 1 8.4856 17.4092)"><tspan x="0" y="0" class="st5 st6">Ciclo básico</tspan><tspan x="2.6" y="1.8" class="st5 st6">I a IV</tspan></text>
<rect x="43.1" y="16.3" class="st4" width="14.4" height="3.3"/>
<text transform="matrix(1 0 0 1 43.4622 17.4092)"><tspan x="0" y="0" class="st5 st6">Ciclo especializado</tspan><tspan x="4.4" y="1.8" class="st5 st6">V a VIII</tspan></text>
<rect x="80.1" y="16.3" class="st4" width="14.4" height="3.3"/>
<text transform="matrix(1 0 0 1 81.2383 17.4092)"><tspan x="0" y="0" class="st5 st6">Ciclo profesional</tspan><tspan x="4.2" y="1.8" class="st5 st6">IXa X</tspan></text>
<rect y="14.4" width="100" height="0.7"/>
<rect x="12.4" y="14.6" width="0.9" height="1.4"/>
<rect x="50" y="14.5" width="0.9" height="1.4"/>
<rect x="87.1" y="14.6" width="0.9" height="1.4"/>
<g>
	<rect x="3.7" y="8.9" class="st0" width="18.4" height="4.9"/>
	<rect x="3.7" y="13.5" class="st1" width="18.4" height="0.9"/>
</g>
<g>
	<rect x="41.3" y="8.9" class="st0" width="18.4" height="4.9"/>
	<rect x="41.3" y="13.5" class="st1" width="18.4" height="0.9"/>
</g>
<rect x="41.3" y="2.1" class="st7" width="18.4" height="4.9"/>
<rect x="41.3" y="6.8" class="st3" width="18.4" height="0.9"/>
<rect x="4.5" y="10.7" class="st4" width="16.7" height="3.1"/>
<text transform="matrix(1 0 0 1 4.803 11.6102)"><tspan x="0" y="0" class="st8 st9">Historia y cultura del diseño</tspan><tspan x="6.4" y="0.8" class="st8 st10">AUD10002</tspan></text>
<rect x="42.3" y="10.6" class="st4" width="16.6" height="3.3"/>
<text transform="matrix(1 0 0 1 42.6556 11.5361)"><tspan x="0" y="0" class="st8 st9">Seminario de Licenciatura I</tspan><tspan x="6.3" y="0.8" class="st8 st10">AUD7I002</tspan></text>
<rect x="42.3" y="2.8" class="st4" width="16.6" height="3.6"/>
<text transform="matrix(1 0 0 1 43.8649 3.5868)"><tspan x="0" y="0" class="st8 st11">Electivo Ambas Menciones: </tspan><tspan x="2" y="1.3" class="st8 st11">Muralismo en Chile</tspan><tspan x="5.1" y="2.2" class="st8 st10">AUDIV058</tspan></text>
</svg>
