<?xml version="1.0" encoding="UTF-8"?>
<svg id="Capa_1" data-name="Capa 1" xmlns="http://www.w3.org/2000/svg" viewBox="0 0 100 20">
  <defs>
    <style>
      .cls-1 {
        font-size: 1.31px;
      }

      .cls-2 {
        letter-spacing: -.06em;
      }

      .cls-3 {
        font-family: Arial-BoldMT, Arial;
        font-size: 1.49px;
        font-weight: 700;
      }

      .cls-4, .cls-5, .cls-6, .cls-7, .cls-8 {
        stroke-width: 0px;
      }

      .cls-5 {
        fill: #cacaff;
      }

      .cls-9 {
        font-size: .7px;
      }

      .cls-6 {
        fill: #00007f;
      }

      .cls-10 {
        font-size: 1.1px;
      }

      .cls-11 {
        font-family: ArialMT, Arial;
      }

      .cls-7 {
        fill: #ff3c00;
      }

      .cls-8 {
        fill: #ffd3ca;
      }
    </style>
  </defs>
  <text class="cls-3" transform="translate(8.49 17.41)"><tspan x="0" y="0">Ciclo básico</tspan><tspan x="2.65" y="1.79">I a IV</tspan></text>
  <text class="cls-3" transform="translate(43.46 17.41)"><tspan x="0" y="0">Ciclo especializado</tspan><tspan x="4.43" y="1.79">V a VIII</tspan></text>
  <text class="cls-3" transform="translate(81.24 17.41)"><tspan x="0" y="0">Ciclo profesional</tspan><tspan x="4.22" y="1.79">IXa X</tspan></text>
  <rect class="cls-4" y="14.44" width="100" height=".74"/>
  <rect class="cls-4" x="12.43" y="14.58" width=".88" height="1.39"/>
  <rect class="cls-4" x="50" y="14.49" width=".88" height="1.39"/>
  <rect class="cls-4" x="87.09" y="14.62" width=".88" height="1.39"/>
  <g>
    <rect class="cls-8" x="3.69" y="8.89" width="18.36" height="4.89"/>
    <rect class="cls-7" x="3.69" y="13.52" width="18.36" height=".92"/>
  </g>
  <g>
    <rect class="cls-8" x="41.26" y="8.89" width="18.36" height="4.89"/>
    <rect class="cls-7" x="41.26" y="13.52" width="18.36" height=".92"/>
  </g>
  <rect class="cls-5" x="41.26" y="2.14" width="18.36" height="4.89"/>
  <rect class="cls-6" x="41.26" y="6.76" width="18.36" height=".92"/>
  <text class="cls-11" transform="translate(4.8 11.33)"><tspan class="cls-1"><tspan x="0" y="0">Historia y cultura del diseño</tspan></tspan><tspan class="cls-9"><tspan x="6.36" y=".84">AUD10002</tspan></tspan></text>
  <text class="cls-11" transform="translate(42.66 11.25)"><tspan class="cls-1"><tspan x="0" y="0">Seminario de Licenciatura I</tspan></tspan><tspan class="cls-9"><tspan x="6.34" y=".84">AUD7I002</tspan></tspan></text>
  <text class="cls-11" transform="translate(43.9 3.59)"><tspan class="cls-10"><tspan x="0" y="0">Electivo</tspan><tspan class="cls-2" x="3.85" y="0"> </tspan><tspan x="4.1" y="0">Ambas Menciones: </tspan></tspan><tspan class="cls-10"><tspan x="2.02" y="1.32">Muralismo en Chile</tspan></tspan><tspan class="cls-9"><tspan x="5.07" y="2.16">AUDIV058</tspan></tspan></text>
</svg>