<?xml version="1.0" encoding="UTF-8"?>
<svg id="Capa_1" data-name="Capa 1" xmlns="http://www.w3.org/2000/svg" viewBox="0 0 100 20">
  <defs>
    <style>
      .cls-1 {
        fill: none;
        stroke: #000;
        stroke-miterlimit: 10;
      }

      .cls-2, .cls-3, .cls-4, .cls-5 {
        stroke-width: 0px;
      }

      .cls-6 {
        letter-spacing: -.02em;
      }

      .cls-7 {
        font-family: ArialMT, Arial;
        font-size: 1.54px;
      }

      .cls-3 {
        fill: #fac4bc;
      }

      .cls-4 {
        fill: #ff3f0d;
      }

      .cls-5 {
        fill: #ffccbe;
      }
    </style>
  </defs>
  <rect class="cls-5" x="72.4" y="7.47" width="20.15" height="5.5"/>
  <rect class="cls-4" x="72.4" y="12.97" width="20.15" height=".87"/>
  <rect class="cls-3" x="39.92" y="7.51" width="20.15" height="5.5"/>
  <rect class="cls-4" x="39.92" y="13.01" width="20.15" height=".87"/>
  <text class="cls-7" transform="translate(41.24 9.94)"><tspan x="0" y="0">Seminario de Licenciatura</tspan><tspan x="7.44" y="2.02">I y II</tspan></text>
  <text class="cls-7" transform="translate(76.24 9.9)"><tspan x="0" y="0">Proyecto de</tspan><tspan class="cls-6" x="8.21" y="0"> </tspan><tspan x="8.61" y="0">Título</tspan><tspan x="4.78" y="2.02">I y II</tspan></text>
  <text class="cls-7" transform="translate(11.76 17.09)"><tspan x="0" y="0">Ciclo básico</tspan><tspan x="2.35" y="2.03">I a IV</tspan></text>
  <text class="cls-7" transform="translate(43.41 17.09)"><tspan x="0" y="0">Ciclo especializado</tspan><tspan x="4.06" y="2.03">V a VIII</tspan></text>
  <text class="cls-7" transform="translate(76.78 16.96)"><tspan x="0" y="0">Ciclo profesional</tspan><tspan x="3.59" y="2.03">IX a X</tspan></text>
  <rect class="cls-3" x="5.85" width="20.15" height="5.5"/>
  <rect class="cls-4" x="5.85" y="5.5" width="20.15" height=".87"/>
  <text class="cls-7" transform="translate(12.88 2.43)"><tspan x="0" y="0">Proyecto</tspan><tspan x="2.82" y="2.02">I</tspan></text>
  <rect class="cls-3" x="5.84" y="7.47" width="20.15" height="5.5"/>
  <rect class="cls-4" x="5.84" y="12.97" width="20.15" height=".87"/>
  <text class="cls-7" transform="translate(12.88 9.9)"><tspan x="0" y="0">Proyecto</tspan><tspan x="2.61" y="2.02">II</tspan></text>
  <line class="cls-1" x1="5.85" y1="14.37" x2="92.55" y2="14.37"/>
  <rect class="cls-2" x="15.51" y="14.87" width=".8" height=".8"/>
  <rect class="cls-2" x="49.6" y="14.87" width=".8" height=".8"/>
  <rect class="cls-2" x="82.07" y="14.87" width=".8" height=".8"/>
</svg>