<?xml version="1.0" encoding="UTF-8"?>
<svg xmlns="http://www.w3.org/2000/svg" viewBox="0 0 100 30">
  <defs>
    <style>
      .cls-1, .cls-2, .cls-3 {
        font-size: 1px;
      }

      .cls-1, .cls-2, .cls-3, .cls-4 {
        font-family: ArialMT, Arial;
      }

      .cls-2 {
        fill: #fff;
      }

      .cls-5 {
        fill: #ff5432;
      }

      .cls-5, .cls-6 {
        stroke: #1d1d1b;
        stroke-miterlimit: 10;
        stroke-width: .5px;
      }

      .cls-3 {
        fill: #444;
      }

      .cls-7, .cls-8 {
        opacity: .5;
      }

      .cls-7, .cls-9 {
        fill: #da4f40;
      }

      .cls-8, .cls-10 {
        fill: #1f5592;
      }

      .cls-11 {
        font-family: Arial-BoldMT, Arial;
        font-size: 1.5px;
        font-weight: 700;
      }

      .cls-12 {
        font-family: Arial-ItalicMT, Arial;
        font-style: italic;
      }

      .cls-6 {
        fill: none;
      }

      .cls-13 {
        font-size: 2px;
      }
    </style>
  </defs>
  <g id="Simbología">
    <g>
      <g>
        <g>
          <rect class="cls-8" x="0" y="28" width="2" height="1.92"/>
          <rect class="cls-10" y="29.71" width="2" height=".29"/>
        </g>
        <text class="cls-1" transform="translate(2.72 29.37) scale(1.1 1)"><tspan x="0" y="0">Mención visualidad y medios</tspan></text>
      </g>
      <g>
        <g>
          <rect class="cls-7" x="19.35" y="28" width="2" height="1.92"/>
          <rect class="cls-9" x="19.35" y="29.71" width="2" height=".29"/>
        </g>
        <text class="cls-1" transform="translate(22.07 29.37) scale(1.1 1)"><tspan x="0" y="0">Ambas menciones</tspan></text>
      </g>
    </g>
  </g>
  <g id="Cuadros">
    <g>
      <rect class="cls-8" x="69.84" y="9.78" width="30.15" height="8.25"/>
      <rect class="cls-10" x="69.84" y="17.23" width="30.15" height="1.49"/>
    </g>
    <g>
      <rect class="cls-8" x="34.93" y="9.78" width="30.15" height="8.24"/>
      <rect class="cls-10" x="34.93" y="17.23" width="30.15" height="1.49"/>
    </g>
    <text transform="translate(38.99 13.28)"><tspan class="cls-11"><tspan x="0" y="0">Seminario de Licenciatura I y II</tspan></tspan><tspan class="cls-3"><tspan x="-.28" y="1.5">(Primer semestre-2025 y Segundo semestre-2024)</tspan></tspan></text>
    <text transform="translate(76.71 13.28)"><tspan class="cls-11"><tspan x="0" y="0">Proyecto de Título I y II</tspan></tspan><tspan class="cls-3"><tspan x="-3.07" y="1.5">(Primer semestre-2025 y Segundo semestre-2024) </tspan></tspan></text>
    <text class="cls-2" transform="translate(78.85 18.34)"><tspan x="0" y="0">(AUD9V001) | (AUD10V01)</tspan></text>
    <text class="cls-2" transform="translate(43.92 18.27)"><tspan x="0" y="0">(AUD7V002) | (AUD8V001)</tspan></text>
    <g>
      <rect class="cls-7" x="0" y="9.79" width="30.15" height="8.25"/>
      <rect class="cls-9" y="17.24" width="30.15" height="1.49"/>
    </g>
    <text transform="translate(11.25 13.32)"><tspan class="cls-11"><tspan x="0" y="0">Proyecto II</tspan></tspan><tspan class="cls-3"><tspan x="-1.44" y="1.5">(Primer semestre-2025) </tspan></tspan></text>
    <text class="cls-2" transform="translate(12.3 18.35)"><tspan x="0" y="0">(AUD20001)</tspan></text>
    <g>
      <rect class="cls-7" x="0" y="0" width="30.15" height="8.25"/>
      <rect class="cls-9" y="7.45" width="30.15" height="1.49"/>
    </g>
    <text transform="translate(11.46 3.53)"><tspan class="cls-11"><tspan x="0" y="0">Proyecto I</tspan></tspan><tspan class="cls-3"><tspan x="-2.18" y="1.5">(Segundo semestre-2024) </tspan></tspan></text>
    <text class="cls-2" transform="translate(12.3 8.56)"><tspan x="0" y="0">(AUD10001)</tspan></text>
  </g>
  <g id="Línea">
    <g>
      <line class="cls-6" x1="15.07" y1="21.63" x2="15.07" y2="18.83"/>
      <line class="cls-5" y1="18.96" x2="100" y2="18.96"/>
      <line class="cls-6" x1="50" y1="21.75" x2="50" y2="18.96"/>
      <line class="cls-6" x1="84.93" y1="21.75" x2="84.93" y2="18.96"/>
    </g>
    <text class="cls-13" transform="translate(10.28 23.82)"><tspan class="cls-4"><tspan x="0" y="0">Ciclo básico</tspan></tspan><tspan class="cls-12"><tspan x="-1.5" y="2">Semestre I a IV</tspan></tspan></text>
    <text class="cls-13" transform="translate(41.33 23.86)"><tspan class="cls-4"><tspan x="0" y="0">Ciclo Especializado</tspan></tspan><tspan class="cls-12"><tspan x=".83" y="2">Semestre V a VIII</tspan></tspan></text>
    <text class="cls-13" transform="translate(77.42 23.85)"><tspan class="cls-4"><tspan x="0" y="0">Ciclo Profesional</tspan></tspan><tspan class="cls-12"><tspan x=".22" y="2">Semestre IX a X</tspan></tspan></text>
  </g>
</svg>