<?xml version="1.0" encoding="UTF-8"?>
<svg xmlns="http://www.w3.org/2000/svg" viewBox="0 0 100.31 40.56">
  <defs>
    <style>
      .cls-1 {
        font-size: 1px;
      }

      .cls-1, .cls-2 {
        font-family: ArialMT, Arial;
      }

      .cls-3 {
        fill: #393f95;
      }

      .cls-4, .cls-5 {
        fill: #ff5432;
      }

      .cls-4, .cls-6 {
        stroke: #1d1d1b;
        stroke-miterlimit: 10;
        stroke-width: .5px;
      }

      .cls-7 {
        fill: #ffa300;
      }

      .cls-8 {
        letter-spacing: -.11em;
      }

      .cls-9 {
        fill: #ffe7b6;
      }

      .cls-10 {
        font-family: Arial-BoldMT, Arial;
        font-size: 1.5px;
        font-weight: 700;
      }

      .cls-11 {
        font-family: Arial-ItalicMT, Arial;
        font-style: italic;
      }

      .cls-6 {
        fill: none;
      }

      .cls-12 {
        font-size: 2px;
      }

      .cls-13 {
        fill: #d1cfe8;
      }

      .cls-14 {
        fill: #ffd3cc;
      }
    </style>
  </defs>
  <g id="Cuadros">
    <g>
      <rect class="cls-14" x="35.69" y="19.92" width="30.15" height="8.59"/>
      <rect class="cls-5" x="35.69" y="27.59" width="30.15" height="1.28"/>
    </g>
    <g>
      <g>
        <rect class="cls-9" x="35.74" y="10.14" width="30.05" height="8.59"/>
        <rect class="cls-7" x="35.74" y="17.81" width="30.05" height="1.28"/>
      </g>
      <text class="cls-10" transform="translate(46.55 14.06)"><tspan x="0" y="0">Métodos de </tspan><tspan x="-5.58" y="1.8">Investigación Cuantitativos</tspan></text>
    </g>
    <text class="cls-10" transform="translate(39.76 24.59)"><tspan x="0" y="0">Seminario de Licenciatura I y II</tspan></text>
    <g>
      <g>
        <rect class="cls-9" x="35.76" width="30.05" height="8.59"/>
        <rect class="cls-7" x="35.76" y="7.67" width="30.05" height="1.28"/>
      </g>
      <text class="cls-10" transform="translate(46.57 3.92)"><tspan x="0" y="0">Métodos de </tspan><tspan x="-5.09" y="1.8">Investigación Cualitativos</tspan></text>
    </g>
    <g>
      <rect class="cls-14" x="70.17" y="19.92" width="30.15" height="8.59"/>
      <rect class="cls-5" x="70.17" y="27.59" width="30.15" height="1.28"/>
    </g>
    <text class="cls-10" transform="translate(77.03 24.6)"><tspan x="0" y="0">Proyecto de Título I y II</tspan></text>
    <g>
      <rect class="cls-14" x=".31" y="19.92" width="30.15" height="8.59"/>
      <rect class="cls-5" x=".31" y="27.59" width="30.15" height="1.28"/>
    </g>
    <text class="cls-10" transform="translate(4.39 23.58)"><tspan x="0" y="0">Introducción a la Investigación </tspan><tspan x="6.58" y="1.8">en el Diseño</tspan></text>
  </g>
  <g id="Info_lectura" data-name="Info lectura">
    <g>
      <g>
        <g>
          <rect class="cls-9" x="21.65" y="38.43" width="2" height="1.92"/>
          <rect class="cls-7" x="21.65" y="40.14" width="2" height=".29"/>
        </g>
        <text class="cls-1" transform="translate(24.33 39.81) scale(1.1 1)"><tspan x="0" y="0">Mención industrial y servicios</tspan></text>
      </g>
      <g>
        <g>
          <rect class="cls-13" x="41.11" y="38.38" width="2" height="1.92"/>
          <rect class="cls-3" x="41.11" y="40.1" width="2" height=".29"/>
        </g>
        <text class="cls-1" transform="translate(43.83 39.8) scale(1.1 1)"><tspan x="0" y="0">Mención visualidad y medios</tspan></text>
      </g>
      <g>
        <g>
          <rect class="cls-14" x="60.44" y="38.48" width="2" height="1.92"/>
          <rect class="cls-5" x="60.44" y="40.2" width="2" height=".29"/>
        </g>
        <text class="cls-1" transform="translate(63.15 39.79) scale(1.1 1)"><tspan x="0" y="0">Ambas menciones</tspan></text>
      </g>
      <g>
        <text class="cls-1" transform="translate(11.58 39.81) scale(1.1 1)"><tspan x="0" y="0">Electivo troncal</tspan></text>
        <text class="cls-10" transform="translate(8.95 40)"><tspan x="0" y="0">E</tspan><tspan class="cls-8" x="1" y="0">T</tspan><tspan x="1.75" y="0">.</tspan></text>
      </g>
      <g>
        <text class="cls-1" transform="translate(2.64 39.81) scale(1.1 1)"><tspan x="0" y="0">Electivo</tspan></text>
        <text class="cls-10" transform="translate(.3 40)"><tspan x="0" y="0">E.</tspan></text>
      </g>
    </g>
  </g>
  <g id="Línea">
    <g>
      <line class="cls-6" x1="15.39" y1="31.54" x2="15.39" y2="28.74"/>
      <line class="cls-4" x1=".31" y1="28.87" x2="100.31" y2="28.87"/>
      <line class="cls-6" x1="50.31" y1="31.67" x2="50.31" y2="28.87"/>
      <line class="cls-6" x1="85.24" y1="31.67" x2="85.24" y2="28.87"/>
    </g>
    <text class="cls-12" transform="translate(10.6 34.09)"><tspan class="cls-2"><tspan x="0" y="0">Ciclo básico</tspan></tspan><tspan class="cls-11"><tspan x="3.06" y="2">I a IV</tspan></tspan></text>
    <text class="cls-12" transform="translate(41.68 34)"><tspan class="cls-2"><tspan x="0" y="0">Ciclo Especializado</tspan></tspan><tspan class="cls-11"><tspan x="5.39" y="2">V a VIII</tspan></tspan></text>
    <text class="cls-12" transform="translate(77.85 33.99)"><tspan class="cls-2"><tspan x="0" y="0">Ciclo profesional</tspan></tspan><tspan class="cls-11"><tspan x="4.67" y="2">IX a X</tspan></tspan></text>
  </g>
</svg>