<?xml version="1.0" encoding="UTF-8"?>
<svg id="Layer_1" data-name="Layer 1" xmlns="http://www.w3.org/2000/svg" viewBox="0 0 100 26.11">
  <defs>
    <style>
      .cls-1 {
        letter-spacing: .02em;
      }

      .cls-2, .cls-3 {
        fill: none;
        stroke: #231f20;
        stroke-miterlimit: 10;
      }

      .cls-4 {
        font-family: ArialMT, Arial;
      }

      .cls-4, .cls-5, .cls-6 {
        fill: #231f20;
        font-size: 2.5px;
      }

      .cls-5 {
        font-family: Bahnschrift, Bahnschrift;
        font-variation-settings: 'wght' 400, 'wdth' 100;
      }

      .cls-7 {
        letter-spacing: -.02em;
      }

      .cls-8 {
        letter-spacing: -.02em;
      }

      .cls-9 {
        letter-spacing: -.01em;
      }

      .cls-10 {
        fill: #ec552e;
      }

      .cls-10, .cls-11 {
        stroke-width: 0px;
      }

      .cls-11 {
        fill: #f8bab2;
      }

      .cls-6 {
        font-family: ArialNarrow, Arial;
      }

      .cls-3 {
        stroke-width: 4px;
      }

      .cls-12 {
        letter-spacing: 0em;
      }

      .cls-13 {
        letter-spacing: 0em;
      }

      .cls-14 {
        letter-spacing: -.01em;
      }

      .cls-15 {
        letter-spacing: -.01em;
      }
    </style>
  </defs>
  <rect class="cls-11" x="32.41" width="31.26" height="4.09"/>
  <rect class="cls-10" x="32.44" y="4.1" width="31.26" height="1.28"/>
  <rect class="cls-11" x="32.55" y="6.63" width="31.26" height="7.8"/>
  <rect class="cls-10" x="32.55" y="14.22" width="31.26" height=".93"/>
  <line class="cls-2" y1="15.68" x2="100" y2="15.68"/>
  <text class="cls-4" transform="translate(39.49 10.1)"><tspan x="0" y="0">Seminario de </tspan><tspan x="0" y="3">licenciatura I</tspan><tspan class="cls-8" x="14.04" y="3" xml:space="preserve"> Y</tspan><tspan x="16.31" y="3" xml:space="preserve"> II</tspan></text>
  <text class="cls-5" transform="translate(5.72 19.51)"><tspan x="0" y="0">Ciclo básico </tspan><tspan x="0" y="3" xml:space="preserve">      I a </tspan><tspan class="cls-1" x="7.39" y="3">I</tspan><tspan x="8.13" y="3">V</tspan></text>
  <text class="cls-5" transform="translate(36.86 19.21)"><tspan x="0" y="0">Ciclo especializado </tspan><tspan x="0" y="3" xml:space="preserve">           V a </tspan><tspan class="cls-13" x="11.53" y="3">V</tspan><tspan x="13.01" y="3">III</tspan></text>
  <text class="cls-5" transform="translate(72.65 19.21)"><tspan x="0" y="0">Ciclo p</tspan><tspan class="cls-12" x="7.54" y="0">r</tspan><tspan x="8.58" y="0">o</tspan><tspan class="cls-14" x="9.94" y="0">f</tspan><tspan x="10.7" y="0">esional </tspan><tspan x="0" y="3" xml:space="preserve">         IX a X</tspan></text>
  <text class="cls-6" transform="translate(40.74 2.98)"><tspan x="0" y="0">Proyecto V y VI</tspan></text>
  <rect class="cls-10" x="67.74" y="14.22" width="28.34" height=".93"/>
  <rect class="cls-11" x="67.74" y="9.39" width="28.34" height="4.83"/>
  <text class="cls-6" transform="translate(70.35 12.56)"><tspan x="0" y="0">Proyecto de</tspan><tspan class="cls-9" x="10.94" y="0"> </tspan><tspan class="cls-7" x="11.48" y="0">T</tspan><tspan x="12.68" y="0">itulo I</tspan><tspan class="cls-15" x="17.58" y="0" xml:space="preserve"> Y</tspan><tspan x="19.45" y="0" xml:space="preserve"> II</tspan></text>
  <line class="cls-3" x1="13.18" y1="15.68" x2="13.18" y2="17.14"/>
  <line class="cls-3" x1="48.04" y1="15.83" x2="48.04" y2="17.29"/>
  <line class="cls-3" x1="82.45" y1="15.83" x2="82.45" y2="17.29"/>
</svg>